<?xml version="1.0" encoding="UTF-8"?><svg id="a" xmlns="http://www.w3.org/2000/svg" viewBox="0 0 70.31 61.71"><defs><style>.b{fill:none;}.c{fill:#b69461;}.d{fill:#c30d23;}</style></defs><path class="b" d="M25.11,34.93c-1-1-1.85-2.24-2.78-3.39l-1.23,.77,1.16,1.47c1.54,1.93,3.16,3.62,5.01,5.32l.62,.62c.23-.08,1.16-.85,1.16-.85-1.39-1.23-2.7-2.54-3.93-3.93Z"/><path class="b" d="M27.89,33.7c-1.16-1.31-2.16-2.47-3.16-3.86l-1.08,.85,.93,1.31c.77,.85,1.47,1.85,2.31,2.62l3.32,3.39,1.16-1c-1.23-1.08-2.39-2.16-3.47-3.32Z"/><path class="b" d="M29.9,31.69c-.93-1.16-1.77-2.16-2.78-3.47l-1.08,.85,.85,1.08c1.31,1.85,2.85,3.39,4.47,4.86l1.08,1,1-.93c-1.23-1.16-2.47-2.24-3.55-3.39Z"/><path class="b" d="M29.82,22.44c-.92,.31-2.16,.69-3.62,1.31,3.09,4.86,6.09,8.17,8.17,10.1,2.85-3.39,5.01-7.25,6.94-10.8,.46-.69,.77-1.31,1.16-2.01-1.23-.15-2.54-.15-3.86-.15-2.78,.15-5.78,.62-8.79,1.54Z"/><path class="d" d="M57.19,15.27l-.38-.31,3.55-8.48,.23-.54c.39-1.16-.15-2.39-1.23-2.78l-7.71-3.16-1,2.54c-1.23,2.85-2.39,5.94-3.7,8.79-6.17-1.23-13.11-.93-20.13,1.16-1.46,.46-3.39,1.08-5.32,1.93-.39-1-.85-2.31-1.16-3.55-.46-1.16-1.7-1.77-2.78-1.31l-7.87,3.08c.85,2.39,1.77,4.78,2.62,7.09,0,0,2.76,5.8,4.93,9.33,3.16,5.24,6.48,8.94,9.02,11.49l6.54,8.37c1.25-.71,2.42-1.48,3.48-2.28,6.32-4.94,10.72-11.88,14.27-18.74l1.85-3.39c4.24,3.24,6.25,8.79,4.78,13.8-1.7,5.55-6.71,11.03-13.26,14.27-.46,.23-.62,.69-.39,1,.23,.46,.69,.62,1.08,.39,1.77-.85,3.39-1.7,4.93-3.01l3.47-2.93,1,.85-1.39,1.31c-1,1-2.31,1.93-3.47,2.7-1.31,.85-2.47,1.62-3.78,2.24-.38,.31-.54,.77-.38,1.16,.31,.23,.69,.39,1.16,.15,1.77-.92,3.55-1.93,5.17-3.24,1.31-1,2.62-2.08,3.78-3.32l1,1-1.47,1.39c-1.23,1.08-2.47,2.24-3.78,3.08-1.39,.85-2.62,1.62-4.01,2.39-.46,.08-.62,.54-.31,.93,.23,.39,.62,.54,1,.31,2-1,3.86-2.24,5.55-3.47,1.54-1.16,2.78-2.39,4.09-3.62l1.08,1.08-1.62,1.54-1.77,1.47c-.62,.46-1.47,1.16-2.16,1.62-1.39,.85-2.85,1.7-4.4,2.54-.31,.23-.46,.62-.31,1.08,.23,.39,.69,.62,1.16,.39,9.02-4.63,15.65-12.18,18.04-20.43,2.78-9.72-1.16-20.59-10.03-25.91Zm-29.3,24.45l-.62-.62c-1.85-1.7-3.47-3.39-5.01-5.32l-1.16-1.47,1.23-.77c.92,1.16,1.77,2.39,2.78,3.39,1.23,1.39,2.54,2.7,3.93,3.93,0,0-.93,.77-1.16,.85Zm2.31-1.7l-3.32-3.39c-.85-.77-1.54-1.77-2.31-2.62l-.93-1.31,1.08-.85c1,1.39,2,2.54,3.16,3.86,1.08,1.16,2.24,2.24,3.47,3.32l-1.16,1Zm2.24-2l-1.08-1c-1.62-1.46-3.16-3.01-4.47-4.86l-.85-1.08,1.08-.85c1,1.31,1.85,2.31,2.78,3.47,1.08,1.16,2.31,2.24,3.55,3.39l-1,.93Zm8.87-12.96c-1.93,3.55-4.09,7.4-6.94,10.8-2.08-1.93-5.09-5.24-8.17-10.1,1.47-.62,2.7-1,3.62-1.31,3.01-.92,6.02-1.39,8.79-1.54,1.31,0,2.62,0,3.86,.15-.38,.69-.69,1.31-1.16,2.01Z"/><path class="c" d="M15.86,41.95c-1.39-.46-2.39-1.39-2.85-2.62-.62-1.39-.46-3.16,.39-5.09,.93-2.01,2.16-3.7,3.86-5.17-2.18-3.53-4.93-9.33-4.93-9.33-3.39,2.47-6.48,5.94-8.48,10.26-2.01,4.47-2.16,9.33-.39,13.49,1.62,3.7,4.78,6.71,8.87,8.17,7.1,2.6,14.72,.56,20.5-2.73l-6.54-8.37c-3.32,1.62-7.17,2.54-10.41,1.39Z"/></svg>