<?xml version="1.0" encoding="UTF-8"?><svg id="a" xmlns="http://www.w3.org/2000/svg" viewBox="0 0 70.31 49.65"><defs><style>.b{fill:#b69461;}.c{fill:#c30d23;}</style></defs><path class="c" d="M5.26,2.65l.69,8.25c.08,1.16,1.16,2.08,2.39,2,3.59-.28,6.95-.53,10.13-.76l-.82-10.38c-3.85,.27-7.96,.56-12.4,.88Z"/><path class="c" d="M62.17,5.81C59.93,2.96,55.61-.35,47.13,.03c-2.28,.1-4.64,.21-7.1,.34l.88,10.35c2.29-.13,4.49-.25,6.6-.36,3.08-.08,5.24,.31,6.17,2.08,1,1.23,1.23,3.86,.08,8.17-2.31,7.4-8.79,14.03-14.81,18.74-.85,.69-1.85,1.23-2.7,1.85-.31,.31-.39,.77-.15,1.08,.23,.39,.77,.46,1.16,.15,1.7-1.23,3.55-2.47,5.09-3.86,1-.77,1.85-1.93,2.78-2.7l1.23,.85c-.46,.62-1.39,1.31-1.39,1.31-1.93,2.16-4.47,3.86-6.86,5.63-.46,.15-.54,.62-.23,1.08,.31,.39,.85,.39,1.16,.15,2.93-2.24,5.94-4.39,8.48-7.09l1,.85c-.54,.69-1.39,1.47-1.39,1.47-2.16,2.24-4.78,4.01-7.25,5.78-.38,.31-.46,.69-.15,1.08,.23,.31,.77,.39,1.08,.15,1.77-1.31,3.55-2.39,5.24-3.93l2.24-2.16,1-1c0-.08,.39-.39,.39-.46l1.08,.93c0,.15-2.47,2.7-5.09,4.86-1.31,1-2.7,1.93-4.01,2.85-.31,.23-.39,.77-.15,1.08,.31,.31,.77,.46,1.08,.23,1.85-1.31,3.7-2.78,5.4-4.24,6.01-5.09,13.11-12.34,15.89-21.44,2.08-7.79,1.39-13.88-1.7-18.04Z"/><path class="b" d="M17.65,1.77l.82,10.38c8.7-.62,15.98-1.07,22.44-1.43l-.88-10.35c-6.52,.34-13.79,.8-22.37,1.4Z"/></svg>