<?xml version="1.0" encoding="UTF-8"?><svg id="a" xmlns="http://www.w3.org/2000/svg" viewBox="0 0 70.31 59.15"><defs><style>.b{fill:none;}.c{fill:#b69461;}.d{fill:#c30d23;}</style></defs><path class="b" d="M38.94,22.05c1.47-.08,2.93-.62,4.01-1,.93-.39,1.46-.77,1.54-.85l-.85-1.08c-.15,.08-.54,.39-1.23,.69-.93,.39-2.24,.77-3.55,.85-1.31,.15-2.62-.15-3.7-.46l-.85,1.23,.62,.15c1.08,.39,2.54,.62,4.01,.46Z"/><path class="b" d="M45.34,26.3c1.54-.62,2.47-1.31,2.62-1.39l-.85-1.16c-.08,.08-1,.69-2.39,1.31-1.39,.62-3.32,1.16-5.4,1.31-2.08,.15-4.16-.15-5.63-.54-.77-.15-1.31-.39-1.77-.62l-.69,1.16c4.55,1.85,9.56,2.01,14.11-.08Z"/><path class="b" d="M39.17,24.91c1.93-.15,3.7-.62,5.01-1.23l1.47-.69,.54-.39-.77-1.16c-.15,.15-.54,.23-.54,.23-.23,.23-.69,.46-1.31,.77-1.16,.54-2.78,1-4.47,1.08-1.7,.15-3.32-.15-4.63-.46l-1.08-.31c-.23,.31-.46,.69-.69,1.16l1.47,.54c1.23,.39,3.16,.62,5.01,.46Z"/><path class="b" d="M38.79,19.05c1.08-.08,2.24-.39,2.93-.69,1.47-.62,3.62-2.39,3.62-4.24,.08-.54-.46-1.16-.93-1.08-1.08,.23-2.7,.77-4.55,2.39-1.23,1-2.47,2.24-3.55,3.47,.77,.15,1.54,.23,2.47,.15Z"/><path class="d" d="M55.44,53.98l-4.32-6.94c-.62-1-1.93-1.39-3.01-.77-2.28,1.18-6.46,2.75-11.32,2.43l1.21,10.45c.08,0,.16,0,.24,0,10.02,0,16.89-4.94,17.2-5.17Z"/><path class="d" d="M30.46,27.68c3.24,1.31,6.63,1.93,10.03,1.47,1.77-.23,3.55-.62,5.24-1.39,2.39-1.08,3.01-1.47,3.16-1.77,3.24-2.24,5.63-5.71,6.48-9.18,1.39-5.55-.85-10.95-5.32-13.11-3.39-1.62-9.02-2.31-16.58,4.16-1.85,1.62-3.7,3.55-5.55,5.63-1.77-2.85-2.7-6.86-2.78-11.34,0-1.23-1-2.16-2.24-2.16H14.57c-.39,9.25,2.24,17.04,7.02,22.29-.69,1.16-1.31,2.31-1.85,3.47-.57,1.19-1.1,2.52-1.56,3.95l9.95,3.59c.65-1.97,1.5-3.88,2.32-5.6Zm9.41-12.26c1.85-1.62,3.47-2.16,4.55-2.39,.46-.08,1,.54,.93,1.08,0,1.85-2.16,3.62-3.62,4.24-.69,.31-1.85,.62-2.93,.69-.93,.08-1.7,0-2.47-.15,1.08-1.23,2.31-2.47,3.55-3.47Zm-4.7,4.78c1.08,.31,2.39,.62,3.7,.46,1.31-.08,2.62-.46,3.55-.85,.69-.31,1.08-.62,1.23-.69l.85,1.08c-.08,.08-.62,.46-1.54,.85-1.08,.39-2.54,.93-4.01,1-1.47,.15-2.93-.08-4.01-.46l-.62-.15,.85-1.23Zm-1.77,2.54l1.08,.31c1.31,.31,2.93,.62,4.63,.46,1.7-.08,3.32-.54,4.47-1.08,.62-.31,1.08-.54,1.31-.77,0,0,.38-.08,.54-.23l.77,1.16-.54,.39-1.47,.69c-1.31,.62-3.09,1.08-5.01,1.23-1.85,.15-3.78-.08-5.01-.46l-1.47-.54c.23-.46,.46-.85,.69-1.16Zm-1.47,2.47c.46,.23,1,.46,1.77,.62,1.47,.39,3.55,.69,5.63,.54,2.08-.15,4.01-.69,5.4-1.31,1.39-.62,2.31-1.23,2.39-1.31l.85,1.16c-.15,.08-1.08,.77-2.62,1.39-4.55,2.08-9.56,1.93-14.11,.08l.69-1.16Z"/><path class="c" d="M36.09,48.66c-3.86-.39-6.4-1.77-7.71-4.09-1.97-3.49-1.48-7.51-.24-11.28l-9.95-3.59c-1.93,6.04-2.48,13.77,1.02,19.88,2.08,3.78,6.55,8.33,15.73,9.41,1.07,.07,2.13,.14,3.08,.15l-1.21-10.45c-.24-.02-.47-.01-.71-.04Z"/></svg>