<?xml version="1.0" encoding="UTF-8"?><svg id="a" xmlns="http://www.w3.org/2000/svg" viewBox="0 0 70.31 69.44"><defs><style>.b{fill:none;}.c{fill:#b69461;}.d{fill:#c30d23;}</style></defs><path class="b" d="M37.58,23.29c-2.16,2.08-4.47,4.16-6.09,5.71l1,.93,6.09-5.63c2.24-2.01,4.4-4.09,5.94-5.78v-1.93l-1.08,1c-1.54,1.54-3.62,3.62-5.86,5.71Z"/><path class="b" d="M35.66,33l1,1c1.7-1.54,3.78-3.39,5.94-5.48l1.93-1.77v-2.01l-2.85,2.78-6.02,5.48Z"/><path class="b" d="M39.59,25.37c-2.16,2.08-4.32,4.16-6.01,5.63l.92,.93c1.7-1.47,3.93-3.47,6.02-5.48l4.01-3.78v-1.93c-1.39,1.46-3.16,3.01-4.94,4.63Z"/><path class="d" d="M42.6,28.53c-2.16,2.08-4.24,3.93-5.94,5.48l-1-1,6.02-5.48,2.85-2.78v-2.08l-4.01,3.78c-2.08,2.01-4.32,4.01-6.02,5.48l-.92-.93c1.7-1.46,3.86-3.55,6.01-5.63,1.77-1.62,3.55-3.16,4.94-4.63v-2.24c-1.54,1.7-3.7,3.78-5.94,5.78l-6.09,5.63-1-.93c1.62-1.54,3.93-3.62,6.09-5.71,2.24-2.08,4.32-4.16,5.86-5.71l1.08-1v-2.16l-2.16,2.16-2.62,2.62-3.16,3.08-6.17,5.55c-1.39,1.23-2.31,2.16-2.62,2.47-.39,.23-.69,.54-1.08,.77-.39,.23-.93,0-.93-.39V13.19c0-1.23-.93-2.24-2.16-2.24H15.38v24.21c0,5.01,2.7,7.02,4.4,7.79,1,.46,2.08,.69,3.16,.69,4.01,0,8.48-3.08,11.8-5.94,.46-.39,1.47-1.23,2.62-2.31,1.7-1.62,4.01-3.7,6.25-5.71l.93-.85v-2.08l-1.93,1.77Z"/><path class="d" d="M44.52,40.33c0,11.03-10.26,18.74-12.96,20.67-.39,.23-.46,.69-.15,1.08,.23,.39,.77,.39,1.16,.15,2-1.31,3.93-3.01,5.63-4.78,.62-.62,1.23-1.39,1.85-2.01l1.08,.85c-2.31,2.62-4.94,5.09-7.87,7.09-.31,.23-.39,.77-.15,1.08,.31,.31,.77,.46,1.16,.15,2.08-1.47,4.16-3.24,6.02-5.09,.69-.77,1.39-1.46,2.01-2.31,0,0,.92,.85,1.08,.92-2.54,2.85-5.17,5.4-8.33,7.63-.31,.23-.46,.69-.15,1,.23,.39,.77,.46,1.08,.23,2.31-1.62,4.47-3.55,6.4-5.55,.69-.69,1.46-1.46,2.16-2.31,.08-.08,.93,.77,1.08,.93-2.62,2.93-5.48,5.71-8.79,8.02-.39,.23-.46,.77-.15,1.08,.23,.31,.69,.39,1.08,.08,4.4-3.01,17.2-13.26,17.2-28.92v-2.61h-10.41v2.61Z"/><path class="c" d="M52.78,0h-8.25V37.72h10.41V2.08c0-1.23-1-2.08-2.16-2.08Z"/></svg>