<?xml version="1.0" encoding="UTF-8"?><svg id="a" xmlns="http://www.w3.org/2000/svg" viewBox="0 0 70.31 68.86"><defs><style>.b{fill:none;}.c{fill:#b69461;}.d{fill:#c30d23;}</style></defs><path class="b" d="M27.48,57.45c0,.69,.54,1.31,1.16,1.31,.77,0,1.31-.62,1.31-1.31v-1.93c-1.39,.23-2.47,1.16-2.47,1.93Z"/><path class="d" d="M47.37,32.77l-.85-8.25c-.08-1.08-1.16-1.93-2.39-1.77l-3.62,.23v10.41s6.86-.62,6.86-.62Z"/><path class="d" d="M41.43,45.65c.39,.08,.85,0,1.39,.08,.93,0,1.93,.23,3.01,.39,2.01,.23,4.09,.69,6.17,1.23,.31,.08,.77-.15,.85-.62,.08-.39-.23-.85-.69-.93-3.78-.92-7.63-1.46-11.64-1.62v-3.9l-10.49,.48v4.43c-1.23,.08-1.93,.31-2.47,.46-6.25,1.85-10.1,6.4-10.1,11.8,0,6.25,5.17,11.41,11.49,11.41s11.57-5.17,11.57-11.41v-3.08c.31,0,.77,0,1.39,.08,2.85,.15,5.71,.69,8.56,1.47,.31,.15,.69-.08,.77-.54,.08-.46-.15-.85-.62-.93-3.24-1-6.63-1.39-10.1-1.54v-1.39c.31,0,.93,0,1.54,.08,3.01,.23,5.94,.69,8.87,1.47,.39,.15,.77-.15,.85-.46,.15-.46-.15-.85-.62-.93-2.01-.62-3.93-1-5.94-1.23-1-.15-2-.39-3.01-.39-.46-.08-1.23,0-1.7-.08v-1.39c.39,0,1,0,1.77,.08,3.08,.15,6.17,.77,9.18,1.62,.38,.08,.77-.15,.85-.62,.08-.46-.15-.85-.62-.93-2.01-.54-4.09-1-6.17-1.23-1-.15-2.08-.23-3.16-.31l-1.85-.15v-1.39c.23-.08,.62,0,.93,0Zm-11.49,11.8c0,.69-.54,1.31-1.31,1.31-.62,0-1.16-.62-1.16-1.31,0-.77,1.08-1.7,2.47-1.93v1.93Z"/><path class="d" d="M20.3,24.91l.69,8.1c.15,1.31,1.31,2.16,2.47,2.01l6.55-.62v-10.41l-9.72,.93Z"/><path class="d" d="M47.37,15.81l-.85-8.17c-.08-1.16-1.16-2.08-2.39-2.01l-3.62,.39V2.16c0-1.23-.93-2.16-2.16-2.16h-8.33V7.02l-9.72,1,.69,8.1c.15,1.16,1.31,2,2.47,1.93l6.55-.62,10.49-1,6.86-.62Z"/><polygon class="c" points="40.51 33.39 40.51 22.98 40.51 16.43 30.02 17.43 30.02 23.98 30.02 34.39 30.02 40.76 40.51 40.28 40.51 33.39"/></svg>