<?xml version="1.0" encoding="UTF-8"?><svg id="a" xmlns="http://www.w3.org/2000/svg" viewBox="0 0 70.31 64.93"><defs><style>.b{fill:none;}.c{fill:#b69461;}.d{fill:#c30d23;}</style></defs><path class="b" d="M35.71,53.44c0,.77,.54,1.31,1.23,1.31s1.31-.54,1.31-1.31v-1.85c-1.54,.15-2.54,1.08-2.54,1.85Z"/><path class="d" d="M60.69,41.87c-3.86-1.08-7.87-1.54-11.88-1.7v-8.79c0-1.16-.93-2.24-2.24-2.24h-8.25v11.95c-.85,.23-1.77,.39-2.47,.62-6.25,1.85-10.1,6.32-10.1,11.72,0,6.25,5.09,11.49,11.49,11.49s11.57-5.24,11.57-11.49v-3.01c3.39,.15,6.71,.62,9.95,1.47,.46,.08,.85-.15,.85-.46,.15-.46-.08-.93-.54-1-2.47-.69-5.01-1.16-7.48-1.39-.54,0-1-.08-1.62-.08-.15,0-1,.08-1.16-.08v-1.39c3.55,.15,7.02,.62,10.56,1.62,.31,.08,.69-.15,.77-.62,.15-.46-.15-.85-.54-.93-2.62-.69-5.32-1.39-8.02-1.47l-2.78-.15v-1.39c3.7,.15,7.4,.62,11.03,1.62,.38,.08,.85-.15,.92-.54,.08-.46-.23-.85-.62-.93-2.47-.69-4.94-1.08-7.48-1.39-1.08-.08-2.08-.15-3.24-.15-.08,0-.62,0-.62-.08,0-1,0-1.47,.08-1.39,.08-.15,.46-.08,.62,0,1.23,0,2.31,.15,3.47,.23,2.47,.31,5.01,.69,7.4,1.39,.46,.08,.77-.08,.85-.54,.08-.46-.08-.85-.54-.93Zm-22.44,11.57c0,.77-.62,1.31-1.31,1.31s-1.23-.54-1.23-1.31,1-1.7,2.54-1.85v1.85Z"/><path class="d" d="M64.78,13.03c-5.48-4.7-10.26-6.09-15.5-6.79-3.47-.54-7.09-.31-10.64-.15-.39,0-.69,.39-.69,.85,0,.39,.39,.69,.77,.69,2.08-.08,4.24-.31,6.32-.31,1.16,.08,2.31,.15,3.39,.31,.62,.15,1.39,.23,2.01,.46l-.31,1.31-.62-.08c-1.77-.46-3.55-.46-5.32-.54-1.77,0-3.62,.15-5.4,.23-.39,0-.69,.39-.69,.85,0,.39,.39,.69,.77,.69,3.7-.15,7.25-.54,10.87,.39l-.39,1.31-.46-.08c-1.62-.46-3.24-.62-5.01-.54l-4.94,.31c-.39,0-.69,.39-.69,.85,0,.31,.31,.62,.77,.54,1.77,0,3.62-.15,5.32-.15,1,0,2,.08,2.93,.15l1.7,.31-.31,1.31c-.15,0-1.08-.31-2.62-.39-2.31-.08-4.63,.15-6.94,.23-.46,0-.69,.39-.69,.85,0,.39,.31,.69,.77,.69,2.31-.15,4.78-.39,7.09-.23,5.55,.39,9.72,2.39,13.65,5.94l5.01-5.86c.85-1,.77-2.31-.15-3.16Z"/><path class="d" d="M23.06,3.16c.08-1.16-.77-2.31-1.93-2.39L12.88,0c0,.08-.39,3.62-1.23,8.95l10.8-.85c.31-2.08,.46-3.7,.62-4.94Z"/><path class="d" d="M6.71,32.62c-.31,1.16,.46,2.39,1.62,2.62l8.17,1.77c1.85-6.55,3.16-12.88,4.16-18.35l-10.95,.93c-.85,4.01-1.77,8.56-3.01,13.03Z"/><path class="c" d="M27.61,9.87c-.15-1.31-1.16-2.08-2.47-2l-2.7,.23-10.8,.85-6.86,.62,.69,8.17c.08,1.16,1.16,2.08,2.39,2l1.85-.15,10.95-.93,7.56-.69-.62-8.1Z"/></svg>