<?xml version="1.0" encoding="UTF-8"?><svg id="a" xmlns="http://www.w3.org/2000/svg" viewBox="0 0 201.37 56.41"><defs><style>.b{fill:#f4afa8;}.c{fill:#f6efde;}.d{fill:#f8cbc6;}.e{fill:#f8c8c2;}.f{fill:#f3a198;}.g{fill:#ecb89a;}.h{fill:#ed7373;}.i{fill:#f1ab3f;}.j{fill:#f6bf5d;}.k{fill:#f6b9b3;}.l{fill:#e88659;}.m{fill:#e55f5e;}.n{fill:#fff;}.o{fill:#8c000e;}.p{fill:#b7585f;}.q{fill:#ce7247;}.r{fill:#db842e;}.s{fill:#c9c9c9;}.t{fill:#dc9a76;}.u{fill:#adacac;}.v{fill:#e0922e;}.w{fill:#374a60;}.x{fill:#636463;}.y{fill:#296296;}.z{fill:#5c403a;}.aa{fill:#347bbb;}.ab{fill:#5f2716;}.ac{fill:#4f4e4e;}.ad{fill:#7b7b7c;}</style></defs><g><ellipse class="o" cx="99.33" cy="50.35" rx="79.19" ry="2.24"/><rect class="ac" x="125.84" y="31.81" width="22.53" height="12.09"/><rect class="ac" x="48.1" y="31.81" width="22.53" height="12.09"/><path class="i" d="M19.23,2.07V40.07c0,.46,.3,.86,.74,.98l10.27,2.81c.09,.02,.18,.04,.27,.04h17.99c-.04-.39-.07-.79-.07-1.2,0-1.98,.54-3.83,1.49-5.41,1.84-3.07,5.2-5.12,9.04-5.12s7.2,2.05,9.04,5.12c.95,1.58,1.49,3.43,1.49,5.41,0,.4-.02,.8-.07,1.2h57.14c-.04-.39-.07-.79-.07-1.2,0-1.98,.54-3.83,1.49-5.41,1.84-3.07,5.2-5.12,9.04-5.12s7.2,2.05,9.04,5.12c.95,1.58,1.49,3.43,1.49,5.41,0,.4-.02,.8-.07,1.2h23.94c.67,0,1.21-.54,1.21-1.22V2.07H19.23Z"/><path class="v" d="M127.99,37.3c-.95,1.58-1.49,3.43-1.49,5.41,0,.4,.02,.8,.07,1.2h-57.14c.04-.39,.07-.79,.07-1.2,0-1.98-.54-3.83-1.49-5.41h60Z"/><path class="j" d="M21.1,0H170.75c1.03,0,1.88,.84,1.88,1.88v.19H19.23v-.19c0-1.03,.84-1.88,1.88-1.88Z"/><rect class="p" x="18.31" y="28.95" width="1.84" height="8.35" rx=".83" ry=".83"/><rect class="ad" x="77.62" y="5.36" width="20.46" height="38.54"/><path class="ad" d="M30.56,5.36h123.03V24.63H30.56c-4.82,0-8.74-3.92-8.74-8.74v-1.79c0-4.82,3.92-8.74,8.74-8.74Z"/><g><path class="ad" d="M172.63,30.59c-.89-.44-2.83-1.56-2.83-2.79V5.8c0-.24,.19-.44,.44-.44h2.39"/><path class="u" d="M172.42,5.93h.21V25.68h-2.23V7.96c0-1.12,.91-2.02,2.02-2.02Z"/></g><path class="v" d="M49.92,37.3c-.95,1.58-1.49,3.43-1.49,5.41,0,.4,.02,.8,.07,1.2H30.5c-.09,0-.18-.01-.27-.04l-10.27-2.81c-.44-.12-.74-.52-.74-.98v-2.78h30.69Z"/><path class="v" d="M172.63,37.3v5.39c0,.67-.54,1.22-1.21,1.22h-23.94c.04-.39,.07-.79,.07-1.2,0-1.98-.54-3.83-1.49-5.41h26.57Z"/><g><circle class="x" cx="58.96" cy="42.7" r="8.61" transform="translate(11.63 98.01) rotate(-85.36)"/><path class="u" d="M64.83,42.7c0,1.54-.59,2.93-1.55,3.98-.47,.52-1.04,.94-1.67,1.26-.8,.41-1.7,.63-2.66,.63-.81,0-1.58-.16-2.29-.46-.78-.33-1.47-.82-2.03-1.43-.97-1.05-1.56-2.45-1.56-3.99,0-.2,.01-.4,.03-.6,.08-.82,.34-1.6,.73-2.29,.85-1.51,2.35-2.61,4.13-2.91,.32-.06,.65-.09,.99-.09,.49,0,.98,.06,1.43,.18,1.62,.4,2.98,1.49,3.75,2.93,.36,.66,.59,1.4,.67,2.18,.02,.2,.03,.4,.03,.6Z"/><circle class="ac" cx="58.96" cy="42.7" r="5.41" transform="translate(10.19 96.75) rotate(-83.86)"/><path class="u" d="M64.14,39.93l-2.83,.82c-.39,.11-.79-.17-.8-.58l-.12-3.17c-.46-.12-.94-.18-1.43-.18-.34,0-.67,.03-.99,.09l-.12,3.26c-.02,.41-.41,.69-.8,.58l-3.21-.93c-.39,.69-.64,1.46-.73,2.29l3.03,1.27c.38,.16,.5,.63,.26,.95l-1.77,2.36c.56,.61,1.26,1.1,2.03,1.43l1.92-2.61c.24-.33,.73-.34,.99-.03l2.04,2.46c.63-.32,1.19-.75,1.67-1.26l-1.76-2.36c-.24-.33-.12-.8,.26-.95l3.03-1.27"/><g><circle class="x" cx="58.96" cy="42.7" r="1.2"/><circle class="x" cx="57.59" cy="44.56" r=".37"/><circle class="x" cx="60.36" cy="44.56" r=".37"/><circle class="x" cx="61.11" cy="42.26" r=".37"/><path class="x" d="M57.22,42.26c0,.21-.17,.37-.37,.37s-.37-.17-.37-.37,.17-.37,.37-.37,.37,.17,.37,.37Z"/><path class="x" d="M59.4,40.85c0,.21-.17,.37-.37,.37s-.37-.17-.37-.37,.17-.37,.37-.37,.37,.17,.37,.37Z"/></g></g><g><circle class="x" cx="137.02" cy="42.7" r="8.61" transform="translate(80.19 174.49) rotate(-83.98)"/><path class="u" d="M142.9,42.7c0,1.54-.59,2.93-1.55,3.98-.47,.52-1.04,.94-1.67,1.26-.8,.41-1.7,.63-2.66,.63-.81,0-1.58-.16-2.29-.46-.78-.33-1.47-.82-2.03-1.43-.97-1.05-1.56-2.45-1.56-3.99,0-.2,.01-.4,.03-.6,.08-.82,.34-1.6,.73-2.29,.85-1.51,2.35-2.61,4.13-2.91,.32-.06,.65-.09,.99-.09,.49,0,.98,.06,1.43,.18,1.62,.4,2.98,1.49,3.75,2.93,.36,.66,.59,1.4,.67,2.18,.02,.2,.03,.4,.03,.6Z"/><circle class="ac" cx="137.02" cy="42.7" r="5.41"/><path class="u" d="M142.21,39.93l-2.83,.82c-.39,.11-.79-.17-.8-.58l-.12-3.17c-.46-.12-.94-.18-1.43-.18-.34,0-.67,.03-.99,.09l-.12,3.26c-.02,.41-.41,.69-.8,.58l-3.21-.93c-.39,.69-.64,1.46-.73,2.29l3.03,1.27c.38,.16,.5,.63,.26,.95l-1.77,2.36c.56,.61,1.26,1.1,2.03,1.43l1.92-2.61c.24-.33,.73-.34,.99-.03l2.04,2.46c.63-.32,1.19-.75,1.67-1.26l-1.76-2.36c-.24-.33-.12-.8,.26-.95l3.03-1.27"/><g><circle class="x" cx="137.02" cy="42.7" r="1.2"/><circle class="x" cx="135.66" cy="44.56" r=".37"/><path class="x" d="M138.8,44.56c0,.21-.17,.37-.37,.37s-.37-.17-.37-.37,.17-.37,.37-.37,.37,.17,.37,.37Z"/><circle class="x" cx="139.18" cy="42.26" r=".37"/><circle class="x" cx="134.91" cy="42.26" r=".37"/><path class="x" d="M137.47,40.85c0,.21-.17,.37-.37,.37s-.37-.17-.37-.37,.17-.37,.37-.37,.37,.17,.37,.37Z"/></g></g><g><rect class="u" x="23.51" y="7.51" width="16.4" height="15.48"/><polygon class="s" points="31.74 22.98 39.9 14.62 39.9 16.55 33.61 22.98 31.74 22.98"/><polygon class="s" points="36.44 7.51 23.51 20.78 23.51 19.48 35.17 7.51 36.44 7.51"/><polygon class="s" points="39.9 7.51 39.9 11.65 28.84 22.98 23.51 22.98 23.51 22.78 38.39 7.51 39.9 7.51"/></g><g><rect class="x" x="168.86" y="6.53" width=".58" height="2.45" rx=".27" ry=".27"/><polygon class="x" points="169.28 6.77 176.83 6.77 176.83 7.63 169.28 8.87 169.28 6.77"/><path class="x" d="M175.79,15.1l.59-.25c.13-.05,.22-.18,.23-.32l.71-7.54c.01-.12-.08-.22-.2-.22h-.29l-.74,2.5-.3,5.83Z"/><rect class="x" x="175.47" y="9.26" width=".47" height="5.84" rx=".21" ry=".21" transform="translate(.87 -9.08) rotate(2.97)"/></g><g><rect class="u" x="79.37" y="6.97" width="7.55" height="35.33"/><polygon class="s" points="84.47 6.97 79.37 12.16 79.37 10.23 82.57 6.97 84.47 6.97"/><polygon class="s" points="79.37 39.64 86.93 32.26 86.93 33.56 79.37 40.94 79.37 39.64"/><polygon class="s" points="80.03 42.29 86.93 35.56 86.93 41 85.6 42.29 80.03 42.29"/></g><path class="ad" d="M80.85,24.07h.17v4.24h-.17c-.89,0-1.62-.72-1.62-1.62v-1.01c0-.89,.72-1.62,1.62-1.62Z" transform="translate(160.24 52.39) rotate(180)"/><g><path class="ad" d="M168.17,6.19V43.9h-14.69V5.36h13.86c.46,0,.83,.37,.83,.83Z"/><rect class="u" x="155" y="6.97" width="11.64" height="35.33"/><polygon class="s" points="165.33 6.97 155 16.92 155 15.03 163.34 6.97 165.33 6.97"/><polygon class="s" points="160.29 6.97 155 12.1 155 6.97 160.29 6.97"/><path class="ad" d="M166.48,24.09h.17v4.24h-.17c-.89,0-1.62-.72-1.62-1.62v-1.01c0-.89,.72-1.62,1.62-1.62Z"/></g><rect class="n" x="171.27" y="32.18" width="2.12" height="5.12" rx=".96" ry=".96"/><g><rect class="u" x="41.48" y="7.51" width="16.4" height="15.48"/><polygon class="s" points="48.74 7.51 41.48 14.94 41.48 13.01 46.85 7.51 48.74 7.51"/><polygon class="s" points="43.94 7.51 41.48 10.04 41.48 7.51 43.94 7.51"/><polygon class="s" points="55.18 22.98 57.87 20.23 57.87 21.53 56.45 22.98 55.18 22.98"/></g><g><rect class="u" x="59.44" y="7.51" width="16.4" height="15.48"/><polygon class="s" points="66.85 22.98 75.84 13.83 75.84 15.75 68.73 22.98 66.85 22.98"/><polygon class="s" points="71.59 7.51 59.44 19.92 59.44 18.63 70.33 7.51 71.59 7.51"/><polygon class="s" points="73.56 7.51 75.84 7.51 75.84 10.86 63.95 22.98 59.44 22.98 59.44 21.93 73.56 7.51"/></g><g><rect class="u" x="135.56" y="7.51" width="16.39" height="15.48"/><polygon class="s" points="146.77 22.98 151.95 17.97 151.95 19.86 148.71 22.98 146.77 22.98"/><polygon class="s" points="150.57 7.51 151.89 7.51 136.05 22.98 135.56 22.98 135.56 22.17 150.57 7.51"/><polygon class="s" points="138.1 22.98 151.95 9.46 151.95 15.06 143.78 22.98 138.1 22.98"/></g><g><rect class="u" x="99.62" y="7.51" width="16.39" height="15.48"/><polygon class="s" points="108.48 22.98 116.01 15.7 116.01 17.6 110.42 22.98 108.48 22.98"/><polygon class="s" points="113.6 7.51 99.62 21.16 99.62 19.86 112.27 7.51 113.6 7.51"/><polygon class="s" points="115.65 7.51 116.01 7.51 116.01 12.77 105.49 22.98 99.8 22.98 115.65 7.51"/></g><g><rect class="u" x="117.59" y="7.51" width="16.39" height="15.48"/><polygon class="s" points="126.48 7.51 117.59 16.08 117.59 14.18 124.49 7.51 126.48 7.51"/><polygon class="s" points="121.44 7.51 117.59 11.24 117.59 7.51 121.44 7.51"/></g><g><rect class="u" x="88.77" y="6.97" width="7.55" height="35.33"/><polygon class="s" points="88.5 42.29 96.33 34.73 96.33 36.57 90.39 42.29 88.5 42.29"/><polygon class="s" points="96.33 23.08 96.33 24.38 88.77 31.75 88.77 30.46 96.33 23.08"/><polygon class="s" points="96.33 26.38 96.33 31.88 88.77 39.21 88.77 33.76 96.33 26.38"/></g><path class="ad" d="M96.16,24.07h.17v4.24h-.17c-.89,0-1.62-.72-1.62-1.62v-1.01c0-.89,.72-1.62,1.62-1.62Z"/></g><g><g><polygon class="e" points="159.8 50.01 159.8 54.43 161.14 54.43 162.16 50.25 159.8 50.01"/><path class="l" d="M161.24,54.04l-.26,1.16h-2.22c0-.31,.17-.6,.43-.75l.6-.35,1.44-.06Z"/><polygon class="e" points="166.46 50.03 166.6 54.43 165.25 54.43 164.23 50.25 166.46 50.03"/><path class="l" d="M165.16,54.04l.26,1.16h2.22c0-.31-.17-.6-.43-.75l-.6-.35-1.44-.06Z"/><path class="e" d="M168.18,43.64c.06,.08,.12,.15,.18,.23,.1,.12,.19,.25,.29,.37,0,.01,.02,.03,.03,.04,.02,.03,.04,.06,.07,.08,.03,.01,.07,0,.08-.02,.01-.02,0-.05,0-.07-.03-.07-.07-.14-.1-.21,.1,.14,.21,.28,.31,.42,.04,.05,.1,0,.1-.04,0-.05-.03-.1-.05-.14-.02-.05-.04-.09-.07-.14,.02,.04,.06,.08,.09,.12,.05,.07,.1,.15,.15,.21,0,.01,.02,.02,.04,.03,.02,0,.04,0,.06-.02,.01-.02,.02-.04,.01-.06,0-.03-.02-.05-.03-.08-.06-.1-.09-.21-.17-.31,0,0,.23,.24,.23,.24,.03,.03,.07,.04,.1,0,.04-.04,.01-.09,0-.13-.06-.11-.12-.23-.2-.34-.04-.07-.09-.13-.13-.2h0s.05,0,.06,0c.02,0,.04,0,.07,0,.03,0,.07,0,.1,0,.07,0,.14,.03,.2,.02,.05,0,.09-.04,.1-.09l-.43-.2-.5-.36-.55,.63Z"/><polygon class="e" points="165.82 41.66 168.18 43.64 168.73 43.01 167.18 40.37 165.82 41.66"/><polygon class="l" points="160 45.07 159.13 49.95 162.31 50.27 162.72 47.67 163.23 47.67 163.83 50.45 167.17 49.91 165.8 44.72 160 45.07"/><path class="e" d="M155.15,34.74c-.08-.06-.15-.12-.23-.18-.12-.1-.25-.19-.37-.29-.01-.01-.03-.02-.04-.03-.03-.02-.06-.04-.08-.07-.01-.03,0-.07,.02-.08,.02-.01,.05,0,.07,0,.07,.03,.14,.07,.2,.1-.14-.1-.28-.21-.42-.31-.05-.04,0-.1,.04-.1,.05,0,.1,.03,.14,.05,.05,.02,.09,.04,.14,.07-.04-.02-.08-.06-.12-.09-.07-.05-.14-.1-.21-.16-.01,0-.02-.02-.03-.04,0-.02,0-.04,.02-.06,.02-.01,.04-.02,.06-.01,.03,0,.05,.02,.08,.03,.1,.06,.21,.1,.3,.17,0,0-.23-.23-.23-.23-.03-.03-.04-.07,0-.1,.04-.04,.09-.01,.13,0,.11,.06,.23,.13,.34,.2,.07,.04,.13,.09,.2,.13h0s0-.05,0-.06c0-.02,0-.04,0-.07,0-.03,0-.07,0-.1,0-.07-.02-.14-.02-.2,0-.05,.04-.09,.09-.1l.19,.43,.3,.56-.57,.49Z"/><path class="e" d="M158.54,36.55l-2.85-2.35-.54,.55,1.12,1.43,1.17,1.24s.44-.54,1.1-.86Z"/><path class="e" d="M164.21,35.91c0,.8-.76,1.45-1.69,1.45s-1.69-.65-1.69-1.45,.76-1.45,1.69-1.45,1.69,.65,1.69,1.45Z"/><path class="e" d="M164.77,35.91c0,.23-.32,.41-.54,.41s-.28-.18-.28-.41,.18-.41,.41-.41,.41,.18,.41,.41Z"/><path class="e" d="M160.32,35.91c0,.23,.32,.41,.54,.41s.28-.18,.28-.41-.18-.41-.41-.41-.41,.18-.41,.41Z"/><path class="z" d="M160.52,35.55s.05-.1-.1-.33c-.16-.23-.23-.68,.26-.72,0,0-.44-.62,.15-.95,0,0,.26-.22,.67,0,0,0,.14-.87,1.07-.78,.93,.08,1.05,.49,.56,1.03,0,0,.45-.44,.9-.02,.45,.42,.04,.8,.04,.8,0,0,.51-.25,.67,.12,.16,.37-.13,.57-.13,.57,0,0-.1,.09-.09,.26,0,0-.24-.06-.35,.03,0,0-.29,.25-.47,0-.18-.25-.04-.38-.04-.38,0,0-.04-.12-.17-.04-.13,.08-.32,.06-.32-.11,0-.17-.12-.22-.2-.12-.08,.1-.54,.67-1.15,.17,0,0-.02,.28-.35,.2,0,0,.01,.43-.36,.45,0,0-.18-.35-.58-.17Z"/><polygon class="e" points="162.01 37.08 162.01 37.68 163.18 37.68 163.18 36.95 162.01 37.08"/><path class="g" d="M166.22,44.56c-2.87,1.21-6.66,.43-6.66,.43l.43-4.86,.56-2.4,.8-.05h.12s2.19-.03,2.19-.03h.87s1.68,6.9,1.68,6.9Z"/><path class="g" d="M160.89,40.64s1.72-1.93,.39-2.99c-1.33-1.06-1.86-1.47-1.86-1.47,0,0-1-.11-1.99,1.23l3.45,3.23Z"/><path class="g" d="M164.69,40.67l1,1.18s1.49-.76,2.05-1.75c0,0-1.76-1.82-3.2-2.45l.15,3.02Z"/><path class="t" d="M165.33,41.2s-.08-.03-.09-.07l-.32-1.47c-.01-.05,.02-.1,.07-.11,.05-.01,.1,.02,.11,.07l.32,1.47c.01,.05-.02,.1-.07,.11,0,0-.01,0-.02,0Z"/><path class="e" d="M163.67,37.74c0,.64-.52,1.16-1.16,1.16s-1.16-.52-1.16-1.16c0-.02,0-.03,0-.05l2.31-.03s0,.05,0,.08Z"/></g><g><path class="e" d="M176.4,35.65c0,.79-.75,1.44-1.68,1.44s-1.68-.64-1.68-1.44,.75-1.44,1.68-1.44,1.68,.64,1.68,1.44Z"/><path class="l" d="M176.35,35.3s.41,1.17-1.13,1.72v.42l.51,.14,1.13-.24s1.21-.24,1.37-1.7c0,0-1.27-.68-1.33-1.49-.07-.81-.79-.95-1.22-.6,0,0-.41-.99-1.94-.58-1.54,.41-1.47,1.48-1.47,1.48,0,0-.49,1.2-1.39,1.54,0,0,.1,1.31,2.26,1.72l.21-.05,.97-.23v-.4s-.98-.22-1.23-1.1c0,0,2.11-.29,2.69-1.41,0,0,.02,.62,.57,.77h0Z"/><path class="e" d="M176.95,35.65c0,.22-.31,.4-.54,.4s-.27-.18-.27-.4,.18-.4,.4-.4,.4,.18,.4,.4Z"/><path class="e" d="M171.3,39.97l-2.16,2.96,.52,.59,2.54-2.17s-.68-.66-.9-1.38Z"/><path class="e" d="M169.69,43.48c-.07,.07-.13,.13-.2,.2-.11,.11-.21,.21-.32,.32-.01,.01-.02,.02-.03,.03-.02,.02-.04,.05-.08,.06-.03,.01-.07,0-.08-.03,0-.02,0-.05,.02-.07,.04-.06,.08-.12,.12-.18-.12,.12-.23,.24-.35,.37-.04,.04-.1,0-.09-.05,0-.05,.04-.09,.07-.13,.02-.04,.05-.09,.08-.13-.03,.04-.07,.07-.1,.1-.06,.06-.11,.13-.17,.19-.01,.01-.02,.02-.04,.02-.02,0-.04,0-.05-.03-.01-.02-.01-.04,0-.06,0-.03,.02-.05,.04-.07,.07-.09,.12-.19,.2-.27,0,0-.25,.2-.25,.2-.03,.02-.07,.03-.09,0-.03-.04,0-.09,.02-.12,.07-.1,.15-.21,.23-.3,.05-.06,.1-.12,.15-.17h0s-.05,0-.06,0c-.02,0-.04,0-.06,0-.03,0-.07,0-.1,0-.07,0-.13,0-.2,0-.05-.01-.08-.05-.09-.09l.44-.14,.58-.22,.41,.61Z"/><polygon class="e" points="172.2 49.07 172.94 54.17 174.22 54.17 175.04 49.07 172.2 49.07"/><path class="h" d="M172.94,54.17l-.85,.38c-.25,.11-.42,.37-.42,.65h1.85c.32,0,.6-.24,.64-.56l.06-.46h-1.28Z"/><polygon class="e" points="178.18 48.39 177.48 54.17 176.2 54.17 175.35 48.8 178.18 48.39"/><path class="h" d="M177.48,54.17l.85,.38c.25,.11,.42,.37,.42,.65h-1.85c-.32,0-.6-.24-.64-.56l-.06-.46h1.28Z"/><path class="e" d="M178.44,36.17h0c.5,.54,1.04,1.04,1.49,.46l2-2.73-.58-.41-2.9,2.68Z"/><rect class="e" x="174.3" y="36.87" width="1.04" height=".55"/><polygon class="g" points="176.99 41.12 172.88 41.12 172.88 37.72 173.96 37.47 174 37.47 174.17 37.43 175.22 37.4 176.88 37.24 176.99 41.12"/><path class="g" d="M176.82,37.3l1.92-1.85c.59,.43,1.11,.93,1.57,1.49l-3.34,3.06-.14-2.7Z"/><path class="g" d="M172.88,37.72l-2.14,1.62s.43,1.46,1.45,2.15l.68-.38v-3.39Z"/><path class="e" d="M181.9,33.93c.07-.06,.14-.13,.2-.19,.11-.1,.22-.21,.33-.31,.01-.01,.02-.02,.03-.03,.02-.02,.05-.04,.07-.07,.01-.03,0-.07-.03-.08-.02,0-.05,0-.07,.02-.06,.04-.13,.08-.19,.12,.13-.11,.25-.22,.38-.33,.05-.04,0-.1-.05-.09-.05,0-.09,.04-.14,.06-.04,.02-.09,.05-.13,.08,.04-.03,.07-.06,.11-.09,.06-.06,.13-.11,.19-.17,.01-.01,.02-.02,.02-.04,0-.02,0-.04-.03-.05-.02-.01-.04-.01-.06,0-.03,0-.05,.02-.07,.04-.1,.06-.2,.11-.28,.19l.21-.24s.03-.07,0-.09c-.04-.03-.09,0-.12,.02-.1,.07-.21,.14-.31,.22-.06,.05-.12,.1-.18,.15h0s0-.05,0-.06c0-.02,0-.04,0-.06,0-.03,0-.07,0-.1,0-.07,.01-.13,0-.2-.01-.05-.04-.08-.09-.09l-.15,.43-.24,.57,.59,.43Z"/><path class="h" d="M172.88,41.12l-1.44,7.95s2.75,1.39,7.94-.62l-2.39-7.33h-4.11Z"/><path class="h" d="M172.88,41.12s.02-1.01,.04-1.07c.02-.08-.04-2.32-.04-2.32l.86-.2s-.14,1.37,.84,1.79c.43,.18,.93,.05,1.18-.34,.18-.28,.29-.91,.28-1.64l.86-.08,.05,2.76,.03,1.12h-4.11Z"/><path class="m" d="M174.92,41.48c-.98,0-1.87-.23-1.92-.25-.05-.01-.08-.06-.07-.11,.01-.05,.06-.08,.11-.07,.02,0,1.94,.5,3.19,.04,.05-.02,.1,0,.12,.06,.02,.05,0,.1-.06,.12-.42,.16-.91,.21-1.38,.21Z"/><path class="e" d="M175.73,37.35c-.02,.46-.42,.9-.88,.9s-.81-.33-.85-.77l.3-.06,1.04-.02,.39-.05Z"/></g><g><path class="e" d="M188.38,52l-2.01-.18v2.01s-.21,.08-.21,.08l-.1,.04-.1,.04-.11,.04-.73,.3-.18,.07-.91,.25c-.09,.06-.11,.18-.07,.27,.04,.07,.11,.11,.19,.11l3.49,.05h.03c.12,0,.23-.05,.32-.14,.03-.03,.06-.07,.08-.11,.02-.04,.03-.07,.04-.11,0-.02,.01-.05,.01-.08l.02-.36,.02-.26h0l.22-2.04Z"/><path class="ab" d="M188.25,54.94s0,.01,0,.02c-.02,.1-.2,.14-.28,.14h-.32s-.03,0-.03,0l-3.46-.04c-.08,0-.15-.04-.19-.12-.05-.09-.02-.21,.07-.27l1.74-.62s-.08,.5,.34,.8c0,0,.82,0,1.47,0,.14,0,.28,0,.43,0,.06,0,.13,0,.19,0,0,0,.01,0,.02,0,.01,0,.01,.02,.02,.03,0,.02,0,.04,0,.07Z"/><path class="e" d="M194.66,51.31l-2.01,.24,.41,1.97-.18,.12-.09,.06-.09,.06-.1,.06-.65,.44-.16,.11-.84,.43c-.07,.08-.08,.2,0,.28,.05,.06,.13,.09,.21,.07l3.43-.67h.03c.12-.03,.22-.11,.28-.21,.03-.04,.04-.08,.05-.13,.01-.04,.02-.08,.02-.12,0-.03,0-.05,0-.08l-.05-.35-.03-.26h0l-.2-2.04Z"/><path class="ab" d="M195.15,54.21s0,.01,0,.02c0,.1-.17,.17-.25,.19l-.32,.06h-.03s-3.39,.67-3.39,.67c-.08,.02-.16-.01-.21-.07-.07-.08-.06-.2,0-.28l1.58-.97s.03,.51,.5,.71c0,0,.81-.17,1.44-.3,.14-.03,.28-.06,.42-.09,.06-.01,.13-.03,.19-.04,0,0,.01,0,.02,0,.01,0,.02,.02,.02,.03,0,.02,.02,.04,.02,.06Z"/><polygon class="g" points="189.42 43.34 190.26 34.72 190.99 34.78 191.77 43.26 195.18 43.37 194.83 30.43 186.69 30.43 186.22 43.3 189.42 43.34"/><polygon class="g" points="191.77 43.26 192.45 52.51 195.08 52.23 195.18 43.3 191.77 43.26"/><polygon class="g" points="186.22 43.3 186.1 51.96 188.62 52.23 189.42 43.34 186.22 43.3"/><path class="l" d="M194.72,20.01l-2.08-.58c-.43,.74-1.47,.79-1.47,.79-1.15-.14-1.15-.85-1.15-.85l-1.93,.76-.53,2.33-1.07,9.01c2.65,.58,3.58-.46,5.11,.16,1.53,.62,3.33,.11,3.33,.11v-7.14s.2-4.48-.21-4.59Z"/><path class="r" d="M194.92,24.73c-.06,0-.12-.05-.12-.11l-.15-1.77c0-.07,.05-.13,.11-.13,.07,0,.13,.05,.13,.11l.15,1.77c0,.07-.05,.13-.11,.13,0,0,0,0-.01,0Z"/><g><path class="e" d="M189.37,16.61s.02,2.08,.66,2.19v.61s-.16,1.35,1.26,1.05c1.42-.3,1.35-1.02,1.35-1.02l-.27-1.66s.61-.08,.51-.77c0,0,0-.54-.59-.37l-.22-1.45-2.38,.29-.33,1.13Z"/><path class="z" d="M193.09,15.76c-.08-.04-.19-.03-.27,0,.12-.3,.24-.63,.13-.93-.01-.03-.03-.07-.05-.09-.09-.08-.22-.01-.3,.07,0-.07,0-.14,0-.21,0-.07,0-.15-.04-.22-.03-.07-.1-.12-.17-.12-.09,0-.16,.09-.21,.17,.01-.19,0-.4-.11-.54-.02-.02-.04-.05-.07-.06-.06-.02-.12,0-.17,.04-.04,.04-.07,.1-.09,.16,0-.1,0-.21-.04-.3-.04-.09-.13-.17-.23-.16-.05,0-.1,.03-.14,.06-.11,.09-.17,.22-.17,.36-.03-.11-.09-.21-.16-.29-.08-.09-.22-.15-.31-.07-.06,.05-.06,.14-.11,.2-.02-.16-.19-.28-.35-.24-.13,.03-.23,.15-.28,.28-.05,.13-.05,.27-.08,.4-.04-.08-.1-.16-.18-.14-.05,.01-.08,.06-.1,.1-.09,.18-.1,.4-.03,.59-.09-.02-.16-.12-.24-.1-.07,.02-.11,.1-.12,.18-.02,.14,0,.28,.03,.41-.06-.06-.16-.03-.21,.04-.04,.07-.04,.16-.03,.24,.01,.11,.05,.28,.05,.28,.08,.38,.35,.74,.35,.74,0,0,.1-.16,.12-.42,.02-.26,.32-.25,.47-.13,.15,.12,.28,.06,.34-.08,.06-.13,.24-.21,.38-.07,.15,.14,.16,.14,.41,.02,.25-.13,.45-.08,.59,.4,.14,.48,.61,.31,.61,.31,.36-.07,.5,.1,.5,.1,0,0,.41-.31,.42-.8,0,0-.04-.13-.12-.17Z"/><path class="f" d="M190.03,18.8s.75,.16,1.44-.49c0,0-.26,.62-1.45,.76v-.27Z"/></g><path class="n" d="M191.41,21.97c0,.08-.07,.15-.15,.15s-.15-.07-.15-.15,.07-.15,.15-.15,.15,.07,.15,.15Z"/><path class="n" d="M191.77,21.06c0,.08-.07,.15-.15,.15s-.15-.07-.15-.15,.07-.15,.15-.15,.15,.07,.15,.15Z"/><path class="e" d="M190.55,20.37s-.17,1.03,.3,1.83c0,0,.03-1.43,.82-1.87l-1.11,.03Z"/><path class="e" d="M183.29,30.43l1.36,.47-1.92,2.56s-.1,.04-.15,.03c-.06-.02-.09-.08-.08-.13-.09,.12-.18,.24-.27,.36,0,0-.07,.05-.15,.03-.07-.02-.12-.08-.11-.15-.03,.05-.06,.09-.09,.14-.06,.04-.16,.05-.23,0-.07-.03-.1-.09-.09-.16,.05-.07,.09-.13,.14-.2l.3-.43-.42,.34c-.07,.05-.14,.07-.21,.02-.07-.05-.07-.12-.02-.19,.27-.3,.48-.63,.75-.94l-.24,.12s-.11,.05-.18,.05c-.09,0-.18-.03-.24-.08l.46-.33,.46-.32c.1-.07,.09-.11,.22-.1l.71-1.08Z"/><path class="l" d="M185.54,24.49l1.42-3.36c.28-.66,.94-1.28,1.73-1.48l1.33-.27-1.44,5.66c-.14-.15-.59-.62-1.35-.77-.74-.14-1.7,.22-1.7,.22Z"/><path class="l" d="M182.48,30.71l2.46-4.58,.79-2.09,2.74,.26-.74,2.49c-.03,.1-.08,.2-.15,.28l-3.55,4.88-1.54-1.23Z"/><path class="e" d="M199.5,30.92l-1.37,.42,1.82,2.63s.1,.05,.15,.03c.06-.02,.1-.07,.08-.13,.09,.13,.17,.25,.25,.37,0,0,.07,.05,.15,.03,.07-.02,.12-.08,.12-.14,.03,.05,.06,.09,.09,.14,.06,.04,.15,.05,.23,.02,.07-.03,.1-.09,.09-.16-.05-.07-.09-.14-.13-.21l-.28-.44,.41,.35c.06,.05,.14,.07,.21,.02,.07-.05,.08-.12,.03-.18-.26-.31-.46-.65-.71-.97l.23,.13s.11,.05,.17,.06c.09,0,.18-.02,.25-.07l-.45-.35-.45-.34c-.09-.07-.08-.11-.21-.11l-.67-1.11Z"/><path class="l" d="M197.49,24.9l-1.29-3.41c-.25-.67-.89-1.32-1.67-1.55l-1.32-.33,1.22,5.71c.14-.15,.61-.6,1.38-.71,.74-.11,1.69,.29,1.69,.29Z"/><path class="l" d="M200.29,31.24l-2.28-4.68-.7-2.12-2.74,.15,.21,1.59c.03,.1,.51,1.13,.57,1.22l3.41,5.12,1.54-1.27Z"/><path class="q" d="M186.92,28s0,0-.01,0c-.05,0-.09-.06-.08-.11l.67-4.25c0-.05,.06-.09,.11-.08,.05,0,.09,.06,.08,.11l-.67,4.25s-.05,.08-.09,.08Z"/></g><g><path class="e" d="M152.64,39.92l-4.07-6.5h-3.81c1.17,3.58,1.34,4.86,4.63,7.43,0,0,.66,4.78,.81,8.51l2.12,.15,.48-7.94c.11-.35,.12-.72,.05-1.07-.04-.2-.12-.4-.22-.58Z"/><path class="e" d="M145.74,49.13l2.13,.09s.55-4.88,.55-4.97l-2.94-.04c.04,.14,.25,4.04,.27,4.93Z"/><path class="e" d="M144.72,33.42c.04,3.38,.63,9.52,.76,10.79l2.89,.3c.03-.12,.05-.24,.06-.37l1.29-10.73h-5Z"/><path class="h" d="M146.59,28.79s-3.14,2.45-2.76,11.25c0,0,2.16-1.27,3.75,.67,1.58,1.94,5.84,1.58,6.61,.72l-3.16-12.28-4.44-.36Z"/><path class="e" d="M153.18,28.24l-.49-2.35c-.48-.02-.73-.21-1.09-.46-.12-.08-.22-.18-.33-.27-.38-.3-.08-.24-.57-.16l.85,3.32c.06,.26,.09,.43,.15,.58l1.48-.65Z"/><path class="e" d="M153.18,28.24l-1.49,.62c.06,.19,.09,.31,.23,.54l1.41,2.4,1.47,.35-1.62-3.91Z"/><path class="g" d="M151.13,21.81c.31-.09,.64-.02,.91,.09,.14,.05,.26,.23,.34,.36,.14,.23,.8,3.98,.8,3.98l-2.14,.28s-.63-2.06-.67-2.47c-.08-.89-.45-1.72,.52-2.15,.08-.04,.16-.07,.24-.1Z"/><polygon class="h" points="146.43 21.64 146.44 21.65 146.43 21.65 146.43 21.64"/><path class="g" d="M146.44,28.27c-.03,.2-.06,.39-.1,.58l4.54,.52c.11-.42,.25-.89,.32-1.18,.21-.88,.84-1.48,1.11-1.94,.24-.42,.36-.9,.33-1.38-.08-1.31-.41-2.16-.81-3.1l-1.1-.13-.17-.02s-1.15-.01-2.28-.02c-1.04,0-1.72,.02-1.84,.05,.06,.24,.3,4.34,0,6.63Z"/><path class="d" d="M150.73,21.64c-.07,.61-.4,1.11-1.04,1.12-.66,0-1.37-.52-1.42-1.16,1.13,0,2.28,.02,2.28,.02l.17,.02Z"/><path class="l" d="M148.88,55.11l-2.42-.22-.28-.03c-.19-.02-.32-.19-.31-.38l.04-.4,.03-.36-.2-4.59,2.13,.05-.35,4.6,1.47,1.03c.14,.1,.06,.32-.11,.31Z"/><path class="l" d="M153.55,55.2l-2.31-.12-.39-.02c-.19,0-.33-.17-.32-.36l.02-.32,.02-.45-.36-4.58,2.14-.04-.2,4.61,1.52,.97c.14,.1,.07,.32-.1,.31Z"/><g><path class="l" d="M150.37,21.28s1.12,.04,2.02-.49c0,0-.74-.66-.71-1.8l-1.71,.38,.12,1.84,.27,.07Z"/><g><path class="d" d="M151.69,17.76s.38,2.62-1.35,2.82l.06,1.43s-1.28,.21-1.84-.28l.27-2.34s-.66-.27-.39-.81c.27-.54,.75-.08,.75-.08l.36-.98,2.14,.24Z"/><path class="k" d="M150.34,20.58s-.59-.04-.82-.38c0,0,.15,.65,.83,.79l-.02-.41Z"/><path class="l" d="M146.25,20.37c-.05-.06-.1-.13-.15-.2-.06-.1-.11-.2-.15-.31-.01-.03-.06-.25-.09-.26,1.48,.2,2-1.13,2.27-1.89,.27-.77,.91-1.32,2.18-1.27,.05,0,.1,0,.15,.01,.88,.09,1.48,.96,1.34,1.88l-.07,.44c-.5-.21-.55-.75-.55-.75-.87,.97-2.02,.52-2.02,.52-.68-.22-.74,.23-.74,.23-.04,.56,.51,.65,.51,.65-.06,.44-.13,.88-.19,1.32-.02,.15-.02,.54-.15,.58-.09,.03-.22-.01-.3-.03-.15-.03-.3-.06-.45-.08-.3-.05-.6-.09-.87-.23-.15-.08-.29-.19-.43-.3-.11-.09-.21-.19-.31-.3Z"/></g><path class="l" d="M148.17,15.62c-.11,.55,.24,1.09,.8,1.21,.55,.11,1.09-.24,1.21-.8,.11-.55-.24-1.09-.8-1.21-.55-.11-1.09,.24-1.21,.8Z"/><g><path class="z" d="M148.81,16.81c-.14,0-.47-.02-.74-.18-.27-.16-.44-.35-.46-.5,0-.05,0-.1,.04-.14,.14-.15,.54-.03,.84,.16,.34,.21,.43,.57,.44,.58,0,.02,0,.04-.01,.05-.01,.01-.03,.02-.05,.03,0,0-.03,0-.07,0Zm-.97-.76s-.08,0-.1,.03c0,0-.01,.02,0,.04,.01,.09,.14,.25,.41,.41h0c.22,.14,.51,.16,.64,.16-.04-.11-.15-.3-.36-.43-.24-.15-.46-.21-.59-.21Z"/><path class="z" d="M148.18,17.33c-.07,0-.13-.02-.17-.06-.03-.03-.04-.07-.03-.11,.02-.1,.15-.23,.34-.34,.24-.13,.55-.09,.56-.09,.02,0,.03,.01,.04,.03,.01,.02,.01,.03,0,.05,0,.01-.08,.26-.32,.39-.14,.08-.31,.13-.43,.13Zm.59-.48c-.1,0-.26,.01-.39,.08-.19,.1-.27,.2-.28,.25,.03,.04,.22,.03,.45-.09,.12-.07,.19-.17,.23-.24h-.01Z"/><path class="z" d="M148.89,16.87s-.03,0-.04-.02c-.02-.02-.02-.06,0-.09,.01-.01,.28-.27,.96-.36,.03,0,.07,.02,.07,.05,0,.03-.02,.07-.05,.07-.63,.09-.89,.33-.89,.33-.01,.01-.03,.02-.04,.02Z"/></g></g><path class="h" d="M146.59,25.23s.91-.03,1.19-1.19c0,0,2.72,.54,3.94,.1,0,0,.73,.88,.59,2.11l-1.5,3.39-4.5-.61,.28-3.8Z"/><path class="h" d="M147.78,24.04s-.03-1.87-.26-2.44h.54s.26,1.88,.19,2.52l-.28,.14-.19-.23Z"/><path class="h" d="M151.24,24.35s-.06-2.11-.29-2.68l.55,.06s.29,1.87,.23,2.51l-.31,.16-.17-.04Z"/><path class="n" d="M148.12,24.34c0,.08-.09,.14-.17,.13-.08,0-.14-.09-.13-.17,0-.08,.09-.14,.17-.13,.08,0,.14,.09,.13,.17Z"/><path class="n" d="M151.65,24.46c0,.08-.09,.14-.17,.13-.08,0-.14-.09-.13-.17,0-.08,.09-.14,.17-.13,.08,0,.14,.09,.13,.17Z"/><path class="m" d="M148.72,29.4c-1.46,0-2.3-.3-2.34-.31-.05-.02-.07-.07-.06-.12,.02-.05,.07-.07,.12-.06,.01,0,1.33,.47,3.5,.24,.05-.01,.1,.03,.1,.08,0,.05-.03,.1-.08,.1-.45,.05-.87,.07-1.24,.07Z"/><path class="g" d="M146.52,54.53c.02,.13,0,.26-.06,.37l-.28-.03c-.19-.02-.32-.19-.31-.38l.04-.4c.29-.04,.56,.15,.62,.44Z"/><path class="g" d="M151.27,54.9c0,.07-.01,.13-.03,.18l-.39-.02c-.19,0-.33-.17-.32-.36l.02-.32c.06-.02,.12-.03,.18-.03,.3,0,.55,.25,.55,.55Z"/><path class="e" d="M148.57,30.99l-1.03,.62,2.56,2.1s.1,.02,.14-.01c.05-.04,.05-.1,.02-.15,.12,.1,.24,.2,.36,.3,0,0,.07,.03,.13,0,.05-.04,.07-.11,.04-.17,.04,.04,.09,.08,.13,.12,.07,.02,.15,0,.2-.05,.05-.05,.05-.12,.01-.18-.07-.05-.13-.11-.19-.17l-.41-.36,.48,.24c.07,.03,.14,.03,.19-.04,.04-.07,.02-.14-.05-.19-.34-.24-.64-.52-.98-.76l.24,.07c.05,.02,.11,.02,.17,0,.08-.02,.14-.07,.18-.14l-.51-.22-.51-.21c-.11-.04-.22-.05-.33-.01l-.11,.02-.73-.78Z"/><path class="e" d="M152.96,31.23l1.11-.44,1.51,2.95s0,.1-.04,.13c-.05,.04-.11,.03-.15-.02,.07,.14,.14,.27,.22,.41,0,0,.01,.08-.04,.13-.05,.04-.12,.05-.18,0,.03,.05,.06,.1,.09,.15,0,.07-.02,.15-.09,.18-.06,.04-.13,.02-.18-.03-.04-.08-.08-.15-.12-.22l-.27-.48,.13,.52c.02,.08,0,.15-.08,.18-.07,.03-.14-.01-.18-.09-.16-.38-.37-.74-.54-1.12v.25c.02,.06,.01,.11-.01,.16-.04,.07-.1,.12-.17,.14l-.11-.55-.1-.54c-.02-.11,0-.23,.06-.33l.04-.11-.9-1.3Z"/><path class="e" d="M148.57,30.99l-2.04-2.08,.44-2.43c-.46-.12-.48-.32-.79-.64-.1-.11-.18-.22-.27-.33-.31-.38-.24-.43-.74-.46l-.59,3.82c-.06,.39,.09,.78,.4,1.02l3.73,2.7-.15-1.58Z"/><path class="g" d="M147.15,21.71c-.47-.12-.82-.13-1.19,.39-.15,.21-1.48,2.88-1.56,2.91,.5,.6,2,1.51,2.56,1.47,.08-.51,.61-2.07,.64-2.48,.07-.89,.43-1.72-.54-2.14-.08-.03,.17-.13,.09-.15Z"/></g></g><g><path class="d" d="M76.77,16.7s-.66,3.03,1.34,3.42l-.2,1.67s1.48,.36,2.18-.17l-.11-2.76s.79-.26,.52-.92c-.27-.66-.87-.16-.87-.16l-.34-1.18-2.52,.1Z"/><path class="b" d="M78.11,20.12s.69,0,.99-.38c0,0-.23,.75-1.04,.86l.06-.48Z"/><path class="w" d="M76.59,17.36l.04,.52c.32-.04,.32-.61,.32-.61,.93,1.2,2.71,.55,2.71,.55,.82-.2,.84,.33,.84,.33,0,.66-.66,.71-.66,.71,.02,.2,.03,.4,.05,.6,.24-.1,.46-.22,.67-.36,0,0,0,0,.01,0,.52-.36,.71-1.04,.51-1.65-.06-.18-.11-.35-.15-.51-.25-.92-.95-1.62-2.44-1.67-.06,0-.12,0-.18,0-1.03,.02-1.81,.99-1.73,2.08Z"/><path class="w" d="M81.78,14.06c-1.11,.93-1.37,2.44-1.37,2.44,0,0,1.53,0,2.64-.93,1.11-.93,1.72-2.03,1.37-2.44-.35-.42-1.53,0-2.64,.93Z"/><path class="e" d="M72.13,29.07l.75,1.04-3.41,.99c-.05,0-.11-.02-.13-.07-.03-.06,0-.12,.05-.15-.16,.05-.32,.09-.48,.14,0,0-.09,0-.13-.07-.03-.06-.02-.14,.03-.19-.06,.02-.12,.04-.18,.06-.08,0-.15-.06-.17-.13-.03-.07,0-.14,.06-.19,.09-.03,.17-.06,.26-.08l.56-.18-.57,.03c-.09,0-.15-.03-.17-.11-.01-.08,.04-.15,.13-.17,.43-.09,.85-.24,1.29-.34l-.27-.04c-.06,0-.12-.03-.17-.06-.07-.05-.11-.13-.12-.21h.6s.59,0,.59,0c.12,0,.24,.05,.33,.13l.1,.07,1.05-.46Z"/><path class="e" d="M72.13,29.07l2.88-1.18,.6-2.58c.5,.08,.61-.11,1.05-.3,.15-.06,.26-.14,.41-.21,.47-.24,.42-.32,.92-.14l-1.04,4c-.1,.41-.42,.73-.83,.83l-4.81,1.07,.81-1.49Z"/><polygon class="e" points="81.48 49.6 83.78 49.48 83.71 54.47 83.72 54.54 82 54.56 81.48 49.6"/><path class="h" d="M80.44,55.89l1.43-1.06,.13-.24v-.02s1.72-.02,1.72-.02l.02,.28,.02,.19,.05,.44c.02,.2-.12,.39-.32,.42l-.31,.04-2.61,.31c-.18,.03-.28-.21-.13-.33Z"/><path class="h" d="M73.97,55.68l1.66-1.02v-.19s1.72,.07,1.72,.07v.16s0,.49,0,.49v.35c.02,.21-.14,.38-.34,.39l-.43,.02-2.51,.09c-.19,0-.26-.24-.11-.34Z"/><polygon class="e" points="75.49 49.66 77.81 49.73 77.36 54.54 75.63 54.47 75.49 49.66"/><path class="e" d="M83.96,27.6l-.46-2.56c-.52-.03-.78-.25-1.17-.53-.13-.09-.23-.2-.35-.3-.41-.34-.08-.26-.61-.19l.83,3.63c.05,.28,.09,.47,.15,.63l1.62-.67Z"/><path class="e" d="M83.96,27.6l-1.64,.63c.06,.21,.09,.34,.23,.59l2.04,3.41,1.01-.35-1.65-4.29Z"/><path class="e" d="M83.76,30.74l1.25-.37,1.33,3.34c.01,.05-.01,.11-.06,.14-.05,.04-.12,.02-.16-.03,.06,.16,.13,.31,.19,.47,0,0,0,.09-.05,.13-.05,.04-.14,.04-.19-.02,.03,.06,.05,.11,.08,.17,0,.08-.04,.16-.11,.19-.07,.03-.14,.01-.19-.05-.03-.09-.07-.17-.11-.25l-.24-.54,.09,.58c.01,.09-.01,.16-.1,.18-.08,.02-.15-.03-.18-.11-.14-.43-.33-.83-.47-1.26v.28c0,.06-.02,.12-.06,.17-.05,.08-.12,.12-.2,.14l-.06-.6-.06-.59c-.01-.12,.02-.25,.09-.35l.06-.11-.84-1.5Z"/><path class="e" d="M75.32,39.45l1.34-2.07h5.33c-.66,1-1.58,1.94-3.16,3.13,0,0-.79,5.18-1.02,9.22l-2.31,.13-.39-8.62c-.11-.38-.12-.78-.03-1.16,.05-.22,.13-.43,.25-.63Z"/><path class="e" d="M83.78,49.49l-2.3,.16s-.74-5.28-.75-5.38l3.19-.14c-.04,.16-.14,4.39-.14,5.35Z"/><path class="e" d="M83.11,33.75c.32,3.66,.33,10.36,.33,11.74l-3.09,.64c-.04-.13-.08-.26-.11-.39l-2.53-11.45,5.4-.53Z"/><path class="h" d="M82.13,28.93s2.28,6.47,3.94,20.06c0,0-3.58-1.59-5.3,.52-1.72,2.11-6.34,1.71-7.18,.79l3.05-20.96,5.49-.41Z"/><path class="aa" d="M77.51,21.12c-.33-.12-.61-.09-.94-.04-.16,.02-.35,.32-.45,.46-.17,.23-1.66,6.41-1.66,6.41l2.12,1.98s1.51-5.85,1.58-6.28c.15-.95,.63-1.82-.39-2.37-.08-.05-.17-.12-.26-.15Z"/><path class="aa" d="M82.13,28.93l-5.51,.51c-.09-.46-.34-3.02-.4-3.6-.12-1.05-.14-3.82,.37-4.8l1.25-.07h.19s1.25,.07,2.47,.15c1.12,.08,1.86,.15,1.99,.2-.09,.25-.38,7.41-.35,7.61Z"/><path class="y" d="M76.63,28.98c-.07,0-.13-.05-.14-.11-.04-.18-1-4.34-.38-5.75,.03-.07,.12-.11,.19-.07,.07,.03,.11,.12,.07,.19-.58,1.32,.39,5.52,.4,5.57,.02,.08-.03,.16-.11,.18-.01,0-.02,0-.03,0Z"/><path class="aa" d="M81.71,21.33c.51-.1,.92-.14,1.28,.45,.15,.24,1.99,6.76,2.07,6.8-.59,.61-2.23,1.45-2.83,1.35-.04-.55-1.19-5.71-1.19-6.15,0-.97-.33-1.9,.76-2.28,.09-.03-.18-.15-.08-.17Z"/><path class="y" d="M82.07,28.19s0,0-.01,0c-.08,0-.14-.08-.13-.16l.15-1.76v-2.49c0-.08,.06-.15,.15-.15s.15,.07,.15,.15v2.5l-.15,1.77c0,.08-.07,.13-.14,.13Z"/><polygon class="aa" points="80.41 21.12 80.41 20.17 77.81 20.38 77.84 20.97 80.41 21.12"/></g><g><path class="e" d="M73.23,41.55l-1.55,1.16,.72,.77-1.09,1.56,.57,.54,1.79-1.59c.34-.3,.43-.79,.21-1.19l-.66-1.25Z"/><path class="e" d="M65.28,45.31l.15,.18-.29,1.2s-.37-.02-.41-.81l.55-.57Z"/><path class="e" d="M63.21,41.92l1.6,1.09-.68,.8,1.15,1.5-.55,.57-1.86-1.51c-.35-.28-.46-.77-.27-1.18l.6-1.28Z"/><path class="e" d="M71.31,45.03l-.14,.19,.34,1.18s.37-.03,.37-.82l-.57-.54Z"/><polygon class="e" points="65.04 50.78 65.04 55.34 66.43 55.34 67.48 51.03 65.04 50.78"/><path class="aa" d="M66.53,54.94l-.27,1.2h-2.29c0-.32,.17-.61,.45-.77l.62-.36,1.49-.07Z"/><polygon class="e" points="71.91 50.8 72.06 55.34 70.67 55.34 69.61 51.03 71.91 50.8"/><path class="aa" d="M70.57,54.94l.27,1.2h2.29c0-.32-.17-.61-.45-.77l-.62-.36-1.49-.07Z"/><polygon class="aa" points="65.24 45.68 64.35 50.71 67.63 51.05 68.06 48.36 68.58 48.36 69.2 51.23 72.65 50.67 71.23 45.32 65.24 45.68"/><path class="c" d="M71.23,45.32c-2.96,1.24-5.99,.36-5.99,.36v-5.09s.58-2.47,.58-2.47l.82-.05h.12s2.26-.03,2.26-.03l1.45-.05,.75,7.33Z"/><path class="c" d="M70.38,41.62l1,1.25s1.56-.74,2.17-1.73c0,0-1.75-2.29-3.06-3.14l-.11,3.63Z"/><path class="e" d="M69.04,38.12c0,.66-.54,1.2-1.2,1.2s-1.2-.54-1.2-1.2c0-.02,0-.04,0-.05h.12s2.26-.03,2.26-.03c0,.03,0,.06,0,.08Z"/><rect class="e" x="67.03" y="37.34" width="1.71" height=".81"/><path class="b" d="M68.74,37.57v.23c-.28,.12-.58,.19-.91,.19-.28,0-.55-.05-.8-.15v-.23c.25,.1,.52,.15,.8,.15,.32,0,.63-.07,.91-.19Z"/><path class="e" d="M67.82,37.78h0c-.97,0-1.76-.79-1.76-1.76v-.94h3.52v.94c0,.97-.79,1.76-1.76,1.76Z"/><path class="e" d="M65.49,36.67c.04,.26,.44,.41,.7,.37,.26-.04,.28-.26,.24-.52-.04-.26-.29-.44-.55-.39-.26,.04-.44,.29-.39,.55Z"/><path class="e" d="M70.16,36.73c-.07,.25-.48,.36-.73,.29-.25-.07-.25-.29-.19-.54,.07-.25,.33-.4,.58-.34,.25,.07,.4,.33,.34,.58Z"/><path class="w" d="M69.47,35.81c.03,.12,.05,.24,.1,.35,.16-.04,.34,0,.47,.1,.07-.05,.15-.11,.2-.18,.05-.08,.07-.18,.03-.26-.04-.08-.16-.12-.23-.06,.07-.05,.15-.1,.2-.18,.05-.07,.08-.17,.05-.25-.03-.08-.13-.15-.21-.11,.1-.03,.2-.07,.26-.15,.06-.08,.07-.21-.02-.27-.08-.06-.19-.02-.28,.01,.17-.06,.27-.26,.25-.43-.02-.17-.2-.32-.37-.29,.12-.07,.14-.26,.06-.38-.08-.12-.23-.17-.37-.17-.14,0-.28,.06-.4,.13,.03-.17-.15-.31-.32-.31-.17,0-.32,.09-.47,.19,.02-.13-.04-.27-.14-.35-.1-.08-.24-.12-.37-.11-.25,.01-.49,.16-.59,.38,0-.18-.23-.3-.39-.23-.17,.07-.25,.26-.26,.44-.02-.1-.16-.13-.26-.1-.17,.05-.3,.2-.33,.37-.04-.1-.17-.14-.27-.11-.1,.04-.17,.13-.2,.24-.03,.1-.04,.22-.02,.32-.05-.11-.24-.1-.32,0-.08,.1-.08,.24-.06,.36,.04,.24,.13,.47,.27,.67-.05-.1-.23-.05-.27,.06-.04,.11,.02,.23,.07,.33,.06,.1,.13,.2,.2,.3,.09,.12,.08,.13,.21,.1,.19-.05,.36-.06,.56-.07,.12,0,.24-.02,.36-.05,.39-.11,.76-.41,.8-.81,.02,.06,.09,.1,.15,.09,.06-.01,.11-.07,.11-.14,.15,.17,.38,.28,.6,.35,.1,.03,.21,.05,.32,.03,.11-.02,.21-.08,.25-.18,.02,.14,.11,.26,.23,.34,.12,.07,.27,.1,.4,.06Z"/><path class="c" d="M65.96,41.72l-1,1.49s-1.84-.67-2.45-1.67c0,0,2.01-2.58,3.31-3.43l.13,3.61Z"/><path class="aa" d="M65.24,45.68l.03-2.88s1.13-1.88,.55-4.69l.47-.03,.46,1.8c.14,.54,.63,.92,1.19,.92h0c.62,0,1.14-.46,1.22-1.07l.23-1.71h.39s-.03,3.19,1.14,4.29l.28,2.99s-2.9,2.14-5.99,.36Z"/><path class="n" d="M66.69,40.67c0,.13-.1,.23-.23,.23s-.23-.1-.23-.23,.1-.23,.23-.23,.23,.1,.23,.23Z"/><path class="n" d="M69.78,40.55c0,.13-.1,.23-.23,.23s-.23-.1-.23-.23,.1-.23,.23-.23,.23,.1,.23,.23Z"/></g><g><polygon class="e" points="20.97 28.85 20.97 29.6 19.79 29.6 19.79 28.99 20.97 28.85"/><path class="b" d="M20.97,28.96v.13c-.21,.08-.44,.13-.68,.13-.18,0-.35-.03-.51-.07v-.13c.16,.05,.33,.07,.51,.07,.24,0,.47-.05,.68-.13Z"/><path class="l" d="M24.93,55.87l-1.52-.94v-.17s-1.58,.07-1.58,.07v.14s0,.45,0,.45v.32c-.02,.19,.13,.35,.31,.35l.39,.02,2.3,.08c.17,0,.24-.22,.1-.31Z"/><polygon class="e" points="23.82 49.83 21.49 49.9 21.83 54.82 23.41 54.76 23.82 49.83"/><path class="l" d="M16.44,55.87l1.52-.94v-.17s1.58,.07,1.58,.07v.14s0,.45,0,.45v.32c.02,.19-.13,.35-.31,.35l-.39,.02-2.3,.08c-.17,0-.24-.22-.1-.31Z"/><polygon class="e" points="17.64 49.83 19.98 49.9 19.55 54.82 17.96 54.76 17.64 49.83"/><path class="e" d="M13.04,33.66c-.07-.1-.15-.21-.22-.31-.12-.17-.24-.34-.36-.51-.01-.02-.03-.04-.04-.05-.03-.04-.06-.07-.07-.12,0-.04,.02-.1,.06-.1,.03,0,.06,.02,.09,.04,.08,.06,.15,.14,.22,.21-.14-.19-.28-.37-.42-.56-.05-.07,.03-.13,.09-.12,.06,.02,.12,.08,.16,.12,.05,.04,.1,.09,.15,.14-.04-.05-.08-.1-.12-.16-.07-.09-.15-.18-.21-.28-.01-.02-.02-.04-.02-.06,0-.03,.02-.05,.05-.07,.03-.01,.05,0,.08,0,.03,.01,.06,.04,.08,.07,.11,.11,.23,.2,.32,.33,0,0-.22-.38-.22-.38-.03-.04-.02-.1,.03-.13,.06-.03,.12,.02,.16,.06,.12,.12,.25,.25,.36,.38,.07,.08,.13,.16,.2,.25h0s.01-.07,.01-.08c0-.03,.01-.06,.02-.09,0-.05,.02-.09,.03-.14,.02-.09,.02-.19,.05-.27,.03-.06,.08-.1,.14-.1l.09,.64,.18,.85-.9,.45Z"/><polygon class="l" points="17.55 37.95 17.49 52.78 19.93 52.69 20.55 41.14 21.05 41.14 21.42 52.78 23.96 52.69 24.05 37.52 17.55 37.95"/><path class="e" d="M22.05,27.42c0,.95-.79,1.71-1.76,1.71s-1.76-.77-1.76-1.71,.79-1.71,1.76-1.71,1.76,.77,1.76,1.71Z"/><path class="e" d="M22.79,27.42c0,.27-.37,.48-.64,.48s-.32-.22-.32-.48,.22-.48,.48-.48,.48,.22,.48,.48Z"/><path class="e" d="M17.88,27.42c0,.27,.37,.48,.64,.48s.32-.22,.32-.48-.22-.48-.48-.48-.48,.22-.48,.48Z"/><path class="l" d="M18,27.1s0-.22-.18-.49c-.18-.27-.27-.8,.31-.85,0,0-.51-.73,.17-1.11,0,0,.3-.26,.78,0,0,0,.17-1.02,1.26-.92,1.1,.1,1.24,.57,.67,1.21,0,0,.53-.52,1.06-.02,.53,.5,.04,.94,.04,.94,0,0,.6-.29,.79,.14,.19,.43-.15,.67-.15,.67,0,0-.09,.25-.09,.44,0,0-.23-.26-.44-.11,0,0-.35,.29-.55,0-.21-.29-.05-.45-.05-.45,0,0-.05-.14-.2-.04-.15,.1-.37,.07-.38-.12,0-.2-.14-.26-.23-.14-.09,.12-.63,.79-1.36,.2,0,0-.02,.33-.41,.23,0,0,.01,.5-.43,.53,0,0-.15-.31-.62-.1Z"/><path class="e" d="M16.11,33.13l-.81,1.54-1.36-1.46-.9,.45,1.7,2.48c.46,.64,1.41,.66,1.88,.03l1.22-1.6s-1.16-.59-1.74-1.44Z"/><path class="aa" d="M24.41,39.25c-2.94,1.23-7.28,.13-7.28,.13l1.02-9.77,.97-.05h.12s2.24-.03,2.24-.03l1.68,.15,1.25,9.58Z"/><path class="aa" d="M18.15,29.6s-1.05,.4-1.83,1.96c-.78,1.56-1.04,2.21-1.04,2.21,0,0,.74,.84,2.44,.71l.43-4.88Z"/><path class="e" d="M25.46,39.35c.03,.12,.07,.25,.1,.37,.05,.2,.11,.4,.16,.6,0,.02,.01,.04,.02,.06,.01,.04,.01,.09,.05,.13,.03,.03,.08,.05,.12,.02,.03-.02,.03-.06,.03-.09,0-.1,0-.2-.02-.3,.05,.22,.11,.45,.16,.67,.02,.08,.12,.06,.15,0,.03-.06,.01-.14,.01-.2,0-.07,0-.14-.01-.21,0,.06,.03,.13,.04,.19,.03,.11,.05,.23,.08,.34,0,.02,.01,.04,.03,.05,.02,.02,.06,.02,.08,0,.02-.01,.04-.04,.05-.06,.01-.04,0-.07,0-.11-.01-.16,0-.31-.05-.46,0,0,.16,.41,.16,.41,.02,.05,.06,.08,.12,.06,.07-.02,.06-.1,.06-.16-.02-.17-.03-.35-.07-.52-.02-.1-.04-.21-.06-.31h0s.06,.03,.07,.04c.03,.01,.05,.03,.08,.04,.04,.02,.09,.04,.13,.07,.08,.05,.16,.11,.25,.13,.06,.02,.13,0,.17-.05l-.43-.47-.54-.67-.92,.41Z"/><path class="e" d="M25.71,33.28l.66,5.66-.92,.41-1.8-5.13s1.28-.27,2.05-.94Z"/><path class="aa" d="M23.16,29.66s1.05,.34,1.83,1.9c.78,1.56,1.04,2.21,1.04,2.21,0,0-.74,.84-2.44,.71l-.44-4.82Z"/><path class="e" d="M21.57,29.6c0,.66-.53,1.19-1.19,1.19s-1.19-.53-1.19-1.19c0-.02,0-.04,0-.05h.12s2.24-.03,2.24-.03c0,.03,0,.05,0,.08Z"/><path class="y" d="M17.71,34.59s0,0,0,0c-.06,0-.1-.06-.09-.11l.23-2.62c0-.06,.06-.1,.11-.09,.06,0,.1,.06,.09,.11l-.23,2.62c0,.05-.05,.09-.1,.09Z"/><path class="y" d="M23.72,34.47c-.05,0-.1-.04-.1-.09l-.38-2.81c0-.06,.03-.11,.09-.12,.06-.01,.11,.03,.12,.09l.38,2.81c0,.06-.03,.11-.09,.12,0,0,0,0-.01,0Z"/></g><g><path class="l" d="M7.7,32.03s.56-.04,1.18-.29c.33-.13,.45-.53,.25-.83-.18-.28-.36-.67-.38-1.17l-1.58,.48,.25,1.81h.27Z"/><g><path class="d" d="M8.68,28.58s.53,2.44-1.08,2.75l.03,1.33s-.93,.31-1.49-.12l.06-2.22s-.79-.03-.53-.75c.2-.54,.7-.12,.7-.12l.27-.95,2.03,.08Z"/><path class="l" d="M3.74,31.41s-.02-.03-.04-.04c0,0-.01-.01-.02-.02-.18-.25-.04-.61,.26-.69,.91-.26,1.22-1.26,1.39-1.88,.2-.74,.77-1.3,1.96-1.34,.05,0,.1,0,.15,0,.83,.02,1.46,.8,1.39,1.67l-.03,.42c-.49-.16-.57-.67-.57-.67-.75,.97-1.87,.63-1.87,.63-.66-.16-.68,.27-.68,.27,0,.53,.53,.57,.53,.57-.03,.42,.01,1.62-.05,1.75-.04,.08-.35,.06-.43,.05-.14-.02-.28-.03-.43-.04-.3-.03-.58-.06-.87-.19-.26-.11-.5-.28-.7-.49Z"/></g><path class="e" d="M7.04,41.73c.15,1.02,.76,5.27,.95,8.67l2.23,.12,.38-8.33c.04-.15,.07-.31,.08-.47h-3.63Z"/><path class="aa" d="M11.28,56.11l-1.46-.9v-.17s-1.51,.06-1.51,.06v.14s0,.43,0,.43v.3c-.02,.18,.12,.33,.3,.34h.38s2.2,.09,2.2,.09c.16,0,.23-.21,.09-.3Z"/><polygon class="e" points="10.22 50.33 7.99 50.4 8.31 55.11 9.83 55.05 10.22 50.33"/><path class="e" d="M3.82,42.6l.36,7.93,2.23-.12c.16-2.78,.59-6.11,.82-7.8H3.82Z"/><path class="aa" d="M3.02,56.11l1.46-.9v-.17s1.51,.06,1.51,.06v.14s0,.43,0,.43v.3c.02,.18-.12,.33-.3,.34h-.38s-2.2,.09-2.2,.09c-.16,0-.23-.21-.09-.3Z"/><polygon class="e" points="4.17 50.33 6.41 50.4 5.99 55.11 4.47 55.05 4.17 50.33"/><path class="e" d="M3.19,35.08l-2.15,4.02,.77,.61,2.79-3.14s-.98-.66-1.41-1.49Z"/><path class="e" d="M1.84,39.66c-.07,.09-.14,.19-.21,.28-.11,.15-.23,.3-.34,.45-.01,.02-.02,.03-.04,.05-.03,.03-.04,.07-.08,.09-.04,.02-.09,.01-.11-.02-.01-.03,0-.06,0-.09,.04-.08,.08-.17,.12-.25-.12,.17-.25,.34-.37,.51-.05,.06-.12,.01-.12-.05,0-.06,.04-.12,.06-.17,.02-.06,.05-.11,.08-.17-.03,.05-.07,.1-.1,.15-.06,.09-.12,.18-.18,.26-.01,.02-.03,.03-.05,.03-.03,0-.05,0-.07-.02-.02-.02-.02-.05-.02-.07,0-.03,.02-.06,.04-.09,.07-.13,.11-.26,.2-.37,0,0-.27,.29-.27,.29-.03,.03-.08,.05-.12,.01-.05-.04-.02-.11,0-.16,.07-.14,.15-.28,.23-.41,.05-.08,.1-.16,.16-.24,0,0,0,0,0,0,0,0-.06,0-.07,0-.03,0-.05,0-.08,.01-.04,0-.09,0-.13,.01-.08,.01-.17,.04-.25,.03-.06,0-.11-.04-.13-.1l.53-.25,.68-.38,.63,.65Z"/><polygon class="g" points="9.41 36.17 4.67 36.17 4.67 32.26 5.8 32 5.91 31.98 5.95 31.97 6.16 31.92 7.36 31.9 7.89 31.93 7.93 31.93 8.08 31.96 9.29 32.15 9.41 36.17"/><path class="g" d="M4.67,32.26l-2.11,2.18s.75,1.58,2.04,2.19l.71-.55-.65-3.82Z"/><path class="e" d="M10.96,34.76l2.44,3.85-.72,.66-3.01-2.93s.93-.73,1.3-1.58Z"/><path class="e" d="M12.64,39.23c.08,.09,.15,.18,.23,.26,.12,.14,.25,.28,.37,.43,.01,.01,.03,.03,.04,.04,.03,.03,.05,.07,.09,.09,.04,.02,.09,0,.1-.03,.01-.03,0-.06-.01-.09-.04-.08-.09-.16-.14-.24,.13,.16,.27,.32,.4,.48,.05,.06,.12,0,.12-.06,0-.06-.05-.12-.07-.17-.03-.06-.06-.11-.09-.16,.03,.05,.08,.09,.11,.14,.07,.08,.13,.17,.2,.25,.01,.01,.03,.03,.05,.03,.03,0,.05,0,.07-.03,.01-.02,.02-.05,.01-.07,0-.03-.03-.06-.04-.09-.07-.12-.13-.25-.23-.36,0,0,.29,.27,.29,.27,.03,.03,.08,.04,.12,0,.04-.05,.01-.11-.02-.15-.08-.13-.17-.27-.26-.4-.06-.08-.12-.15-.18-.23,0,0,0,0,0,0,0,0,.06,0,.07,0,.03,0,.05,0,.08,0,.04,0,.09,0,.13,0,.08,0,.17,.03,.25,.01,.06-.01,.1-.05,.12-.11l-.54-.21-.71-.33-.58,.7Z"/><path class="g" d="M9.29,32.15l2.25,1.93s-.64,1.63-1.88,2.33l-.75-.5,.37-3.76Z"/><path class="aa" d="M11.62,46.21l-2.21-10.03H4.67l-1.5,10.07s1.43-1.44,3.99,0c2.56,1.44,4.46-.04,4.46-.04Z"/><path class="g" d="M4.35,38.14l.32-5.79,1-.31s-.16,2.11,.97,2.76c.5,.28,1.07,.08,1.35-.53,.2-.44,.36-1.14,.36-2.28l1,.21,.49,5.94H4.35Z"/><path class="d" d="M8.08,31.96c-.06,.59-.53,1-1.14,1s-1.06-.4-1.14-.96l.11-.03h.04s.2-.06,.2-.06l1.2-.02,.53,.03h.04s.15,.03,.15,.03Z"/><path class="t" d="M9.67,36.49c-.07,0-.13-.06-.14-.13l-.12-2c0-.08,.05-.14,.13-.15,.07,0,.14,.05,.15,.13l.12,2c0,.08-.05,.14-.13,.15,0,0,0,0,0,0Z"/><path class="t" d="M4.45,36.55s0,0,0,0c-.08,0-.13-.07-.13-.15l.11-2.07c0-.08,.07-.13,.15-.13,.08,0,.13,.07,.13,.15l-.11,2.07c0,.07-.07,.13-.14,.13Z"/><path class="b" d="M7.6,31.34s-.44-.01-.72-.23c0,0,.12,.53,.73,.61v-.39Z"/></g></svg>