<?xml version="1.0" encoding="utf-8"?>
<!-- Generator: Adobe Illustrator 26.5.0, SVG Export Plug-In . SVG Version: 6.00 Build 0)  -->
<svg version="1.1" id="a" xmlns="http://www.w3.org/2000/svg" xmlns:xlink="http://www.w3.org/1999/xlink" x="0px" y="0px"
	 viewBox="0 0 107.5 137.4" style="enable-background:new 0 0 107.5 137.4;" xml:space="preserve">
<style type="text/css">
	.st0{clip-path:url(#SVGID_00000066480182603157518340000004767703007262624657_);}
	.st1{fill:#FFFFFF;}
</style>
<g>
	<defs>
		<rect id="SVGID_1_" x="0" y="0.1" width="107.4" height="137.4"/>
	</defs>
	<clipPath id="SVGID_00000175304436708806663590000016492366451814589101_">
		<use xlink:href="#SVGID_1_"  style="overflow:visible;"/>
	</clipPath>
	<g style="clip-path:url(#SVGID_00000175304436708806663590000016492366451814589101_);">
		<g id="c">
			<path id="d" class="st1" d="M84,121.3v9.4c0,2.4-0.3,3.1-2.6,3.7c-3,0.9-6.1,1.5-9.2,2c-9.4,1.1-18.8,1.3-28.2,0.8
				c-5.1-0.1-10.2-0.8-15.2-1.9c-1.1-0.3-2.2-0.6-3.3-1.1c-1.3-0.4-2.1-1.7-2-3c0.1-2.6,0-5.2,0-7.8c0.1-1.5-0.6-2.9-1.9-3.7
				C10.5,112,3,100.2,0.8,86.9c-2.3-12.9,0.7-26.3,8.3-37c3.4-5,7.7-9.2,12.7-12.7c1.1-0.7,1.8-1.9,1.7-3.2c-0.1-3.2,0-6.4,0.1-9.6
				c0.1-8.6,5-16.5,12.8-20.3c6.1-3.2,13-4.6,19.8-4c5.8,0.2,11.5,2.1,16.3,5.4c7.5,4.8,11.9,13.1,11.7,22c0,2.1,0.1,4.2,0,6.3
				c-0.1,1.4,0.5,2.7,1.7,3.4C94,43,100.4,51,104,60.4c7.5,19.2,2.4,41-12.8,54.9C89,117.4,86.5,119.2,84,121.3 M39.7,41.8
				c-0.2,0.3-0.3,0.7-0.4,1.1c-0.8,5-1.8,10.1-2.4,15.1c-1,8.8-1.3,17.7-1,26.6c0.2,8.7,1.1,17.3,2.6,25.8c0.9,5,2.2,10,3.8,14.8
				c0.2,1,1,1.8,2.1,1.9c5.9,1,11.8,1,17.7,0.1c1.5-0.1,2.8-1.1,3.1-2.6c3.8-12,5.8-24.5,6.1-37c0.2-5.4,0.1-10.8,0.1-16.2
				c-0.2-9.1-1.2-18.1-3-27c-0.2-1-0.5-1.9-0.7-2.7L39.7,41.8L39.7,41.8z M81.9,23.5c0-0.3,0-0.6,0-1c-1-5.7-4.2-10.8-8.8-14.4
				C68.5,4.6,63,2.4,57.1,1.9c-6.7-0.8-13.4,0.4-19.5,3.4C32,8,27.7,13.1,26,19.2c-0.5,1.4-0.7,2.8-0.6,4.3
				C44,19.6,63.2,19.6,81.9,23.5 M25.5,36.7c1,0.5,2.1,0.8,3.2,1.1c3.7,0.7,7.4,1.3,11.1,1.6c6,0.4,12,0.5,18,0.5
				c6.3,0.1,12.7-0.5,18.9-1.7c1.9-0.2,3.7-0.8,5.2-1.9c0.2-2.2,0.1-4.4-0.1-6.6c-18.6,3.7-37.8,3.7-56.4,0L25.5,36.7L25.5,36.7z
				 M25.2,124.8v6.3c0,0.7,0.5,1.4,1.1,1.5c1.1,0.4,2.3,0.8,3.5,1.1c5.2,1,10.4,1.6,15.6,1.7c9.4,0.5,18.8,0.2,28.2-1
				c2.3-0.4,4.6-0.9,6.8-1.5c0.8-0.2,1.7-0.5,1.7-1.5c0.1-2.2,0-4.3,0-6.6c-2.5,0.5-4.7,1-6.8,1.5c-1.9,0.4-3.9,0.8-5.8,1.3
				c-10.6,3-21.8,3-32.3-0.1C33.5,126.4,29.5,125.7,25.2,124.8"/>
		</g>
	</g>
</g>
</svg>
