<?xml version="1.0" encoding="UTF-8"?><svg id="a" xmlns="http://www.w3.org/2000/svg" xmlns:xlink="http://www.w3.org/1999/xlink" viewBox="0 0 107.46 137.44"><defs><style>.e{fill:none;}.f{fill:#c30d23;}.g{clip-path:url(#b);}</style><clipPath id="b"><rect class="e" x=".02" y=".06" width="107.42" height="137.35"/></clipPath></defs><g class="g"><g id="c"><path id="d" class="f" d="M83.97,121.3v9.37c0,2.39-.31,3.09-2.63,3.74-3.01,.87-6.07,1.52-9.17,1.96-9.36,1.08-18.79,1.34-28.2,.78-5.11-.11-10.2-.75-15.18-1.91-1.12-.29-2.23-.65-3.3-1.08-1.28-.42-2.1-1.67-1.95-3.01,.09-2.59-.04-5.19,.04-7.78,.11-1.5-.63-2.94-1.92-3.71C10.52,112.02,2.98,100.18,.77,86.87c-2.34-12.94,.67-26.27,8.34-36.96,3.43-4.95,7.72-9.24,12.67-12.68,1.12-.66,1.78-1.9,1.68-3.19-.06-3.2-.05-6.42,.08-9.62,.12-8.62,5.04-16.45,12.75-20.3C42.38,.94,49.24-.45,56.08,.13c5.83,.24,11.48,2.11,16.3,5.4,7.46,4.8,11.88,13.14,11.68,22.01,0,2.11,.08,4.23,0,6.34-.14,1.36,.53,2.69,1.71,3.38,8.25,5.72,14.6,13.77,18.26,23.11,7.51,19.19,2.43,41.03-12.78,54.94-2.26,2.07-4.73,3.91-7.27,5.96M39.7,41.77c-.15,.35-.28,.71-.37,1.08-.83,5.04-1.83,10.07-2.42,15.14-.96,8.82-1.28,17.7-.97,26.57,.21,8.66,1.08,17.3,2.6,25.83,.88,5.04,2.17,10,3.85,14.83,.21,1.02,1.04,1.79,2.07,1.92,5.86,.98,11.85,1.03,17.73,.12,1.5-.07,2.78-1.13,3.12-2.6,3.75-12,5.81-24.46,6.12-37.03,.22-5.38,.13-10.78,.06-16.16-.17-9.08-1.16-18.12-2.96-27.02-.19-.97-.5-1.92-.72-2.71h-28.11Zm42.16-18.25c.03-.32,.03-.64,0-.97-1.02-5.72-4.15-10.84-8.77-14.36-4.58-3.61-10.13-5.78-15.94-6.25-6.68-.77-13.44,.41-19.47,3.41-5.72,2.67-9.98,7.72-11.65,13.81-.53,1.36-.73,2.83-.6,4.29,18.6-3.86,37.8-3.84,56.39,.07m-56.33,13.16c1.05,.47,2.14,.85,3.25,1.14,3.67,.74,7.38,1.28,11.12,1.63,5.96,.37,11.99,.46,17.99,.49,6.35,.06,12.69-.5,18.93-1.68,1.88-.19,3.68-.84,5.24-1.91,.17-2.21,.14-4.42-.09-6.63-18.63,3.67-37.8,3.67-56.43,0v6.96Zm-.3,88.12v6.34c-.02,.71,.46,1.35,1.15,1.52,1.15,.43,2.32,.79,3.51,1.08,5.16,.98,10.39,1.56,15.64,1.74,9.41,.53,18.85,.18,28.2-1.02,2.29-.37,4.55-.88,6.77-1.52,.77-.2,1.71-.49,1.74-1.49,.07-2.17,0-4.34,0-6.6-2.47,.54-4.65,.98-6.83,1.46-1.92,.43-3.87,.81-5.76,1.35-10.56,3.04-21.76,3-32.29-.14-3.84-1.08-7.81-1.77-12.14-2.71"/></g></g></svg>