<?xml version="1.0" encoding="UTF-8"?><svg id="a" xmlns="http://www.w3.org/2000/svg" viewBox="0 0 253.83 91.8"><defs><style>.b,.c{fill:#fff;}.d{fill:#c30d23;}.c,.e{stroke:#fff;}.c,.e,.f{stroke-miterlimit:10;}.e,.f{fill:none;}.f{stroke:#c30d23;}</style></defs><rect class="e" x="1.93" y="19.12" width="83.8" height="18.62"/><rect class="e" x="1.93" y="37.74" width="83.8" height="18.62"/><rect class="e" x="1.93" y="56.37" width="83.8" height="18.62"/><rect class="e" x="85.73" y="19.12" width="83.8" height="18.62"/><rect class="e" x="85.73" y="37.74" width="83.8" height="18.62"/><rect class="e" x="85.73" y="56.37" width="83.8" height="18.62"/><rect class="e" x="169.53" y="19.12" width="83.8" height="18.62"/><rect class="c" x="1.93" y=".5" width="83.8" height="18.62"/><rect class="c" x="85.73" y=".5" width="83.8" height="18.62"/><rect class="c" x="169.53" y=".5" width="83.8" height="18.62"/><rect class="e" x="169.53" y="37.74" width="83.8" height="18.62"/><rect class="e" x="169.53" y="56.37" width="83.8" height="18.62"/><g><path class="b" d="M16.18,30.76c.2,.7,.82,.93,1.45,.93,1.55,0,1.92-1.09,2.03-2.5-.26,.25-.82,.81-2.26,.81-1.96,0-2.9-1.16-2.9-2.6,0-1.71,1.32-2.76,3.19-2.76s3.44,1.08,3.44,4.09c0,3.77-2.48,4.23-3.49,4.23-.29,0-2.65-.07-3.05-2.2h1.59Zm-.15-3.33c0,.83,.65,1.43,1.7,1.43,1.4,0,1.8-.85,1.8-1.45,0-.7-.51-1.52-1.79-1.52-1.42,0-1.71,.99-1.71,1.54Z"/><path class="b" d="M26.4,24.86l-3.54,7.88h-1.04l3.54-7.88h1.04Z"/><path class="b" d="M33.7,31.58v1.16h-6.65c.11-1.7,.9-2.23,3.37-3.87,1.47-.98,1.68-1.25,1.68-1.85,0-.84-.82-1.11-1.55-1.11-1.5,0-1.78,.9-1.83,1.81h-1.54c.04-.69,.19-3.08,3.37-3.08,2.04,0,3.08,1.07,3.08,2.37,0,1.12-.62,1.76-2.08,2.68-1.52,.96-1.93,1.28-2.44,1.89h4.59Z"/><path class="b" d="M36.2,30.12c.04,.49,.15,1.57,1.71,1.57,.24,0,1.81,0,1.81-1.3,0-1.04-.97-1.29-1.62-1.29h-.69v-1.04h.59c.74,0,1.54-.36,1.54-1.12,0-1.03-1.19-1.03-1.49-1.03-1.03,0-1.54,.31-1.6,1.28h-1.56c.04-.34,.1-.88,.52-1.45,.71-.95,1.96-1.1,2.68-1.1,1.66,0,2.98,.72,2.98,2.13,0,1.23-.93,1.56-1.35,1.71,.39,.13,1.53,.49,1.53,1.91,0,1.56-1.24,2.57-3.31,2.57-1.73,0-3.14-.74-3.29-2.84h1.55Z"/><path class="b" d="M46.24,24.83c-.49,.52-1.7,1.79-1.7,4.11s1.21,3.59,1.7,4.11l-.74,.67c-1.65-1.66-1.97-3.53-1.97-4.78s.32-3.12,1.97-4.78l.74,.67Z"/><path class="b" d="M52.42,29.02h3.15v1.11h-3.15v2.04h1.3c-.4-.24-.61-.33-.78-.4,.44-.65,.73-1.21,.84-1.57l1.15,.48c.09,.04,.14,.07,.14,.13,0,.08-.05,.12-.3,.13-.2,.5-.53,1.04-.65,1.23h1.83v1.09h-8.43v-1.09h1.95c-.09-.21-.34-.76-.83-1.41l1.03-.59c.32,.39,.72,1.07,.93,1.53-.46,.24-.52,.28-.82,.47h1.34v-2.04h-3.18v-1.11h3.18v-.74h-1.53v-.72c-.3,.21-.79,.52-1.75,1.03-.16-.2-.51-.65-.98-.97,2.74-1.17,4.03-2.7,4.4-3.33l1.35,.16c.08,0,.16,.04,.16,.1,0,.13-.18,.17-.25,.18,1.7,1.86,3.53,2.55,4.16,2.78-.18,.16-.72,.67-.9,1.08-.65-.26-1.25-.62-1.86-1.02v.71h-1.5v.74Zm.94-1.84c-.74-.56-1.11-.93-1.6-1.49-.46,.57-1.16,1.12-1.64,1.49h3.24Z"/><path class="b" d="M60.29,28.94c0,.56-.45,1.01-1.01,1.01s-1.01-.45-1.01-1.01,.46-1.01,1.01-1.01,1.01,.45,1.01,1.01Z"/><path class="b" d="M64.83,33.47h-1.2v-3.24c-.45,.42-.68,.6-.82,.72-.25-.4-.71-.73-.94-.85,1.05-.68,2.26-1.9,2.8-3h-2.47v-1.15h1.43v-1.67l1.2,.04c.05,0,.2,0,.2,.1,0,.1-.13,.19-.2,.22v1.31h1.09l.43,.59c-.2,.53-.73,1.29-1.13,1.88,.15,.16,.74,.83,1.61,1.4-.49,.46-.66,.66-.83,.9-.27-.18-.61-.39-1.17-1v3.75Zm3.51-4.29c.1,.03,.18,.06,.18,.15,0,.1-.13,.15-.19,.17-.19,2.58-1.35,3.47-2.25,4.04-.21-.4-.69-.7-.97-.82,1.39-.66,2.06-1.77,2.06-3.45,0-.15,0-.24-.02-.42h-.71v-4.22h4.55v4.22h-1.06v3.02c0,.17,0,.31,.23,.31,.31,0,.37-.09,.46-1.24,.59,.38,.89,.44,1.06,.47-.21,1.49-.46,1.98-1.33,1.98h-.51c-1.04,0-1.06-.82-1.06-1.21v-3.33h-1.52l1.08,.33Zm-.71-3.46v2h2.16v-2h-2.16Z"/><path class="b" d="M72.33,33.04c.49-.52,1.7-1.79,1.7-4.11s-1.21-3.59-1.7-4.11l.74-.67c1.65,1.66,1.97,3.53,1.97,4.78s-.32,3.12-1.97,4.78l-.74-.67Z"/></g><g><path class="b" d="M7.87,91.56h-1.26v-.31H3.1v.31H1.86v-2.95c-.54,.22-.89,.32-1.16,.39-.18-.5-.33-.73-.7-1.05,1.57-.39,2.67-.81,4-1.75-.11-.1-.62-.59-1.05-1.23-.51,.59-.64,.7-1.72,1.63-.47-.44-.76-.62-1.02-.76,.11-.06,1.93-1.11,3.17-3.53l1.2,.3c.13,.03,.19,.07,.19,.14,0,.09-.05,.1-.28,.17-.06,.08-.17,.24-.25,.35h3.08l.51,.47c-.66,1.08-1.29,1.78-2,2.45,1.32,.9,2.67,1.27,3.91,1.54-.29,.39-.57,.88-.66,1.18-.26-.06-.62-.15-1.21-.38v3.03Zm-1.26-1.34v-1.33H3.1v1.33h3.51Zm-.31-2.39c-.39-.2-.88-.48-1.4-.87-.46,.32-.69,.48-1.39,.87h2.79Zm-2.3-3.46c.3,.47,.66,.85,.93,1.09,.35-.31,.72-.69,.94-1.09h-1.87Z"/><path class="b" d="M12.43,84.4c.12,.03,.16,.04,.16,.11,0,.12-.15,.2-.22,.24v6.84h-1.16v-5.11c-.26,.42-.35,.55-.46,.7-.29-.49-.47-.74-.84-1.08,.66-.74,1.32-2.04,1.75-3.8l1.25,.35c.06,.02,.12,.06,.12,.14,0,.12-.12,.14-.29,.17-.15,.54-.24,.75-.48,1.4l.17,.04Zm6.87-1.15v.97h-6.51v-.97h2.62v-.89l1.38,.04c.06,0,.18,0,.18,.11,0,.09-.07,.14-.25,.24v.5h2.58Zm0,3.72v1.89h-1.1v-1.05h-4.29v1.05h-1.09v-1.89h6.48Zm-.84-.34h-4.9v-2.05h4.9v2.05Zm-1.76,3.76c0,.72-.07,1.25-1.89,1.25-.12-.62-.34-.97-.53-1.24,.35,.05,.62,.06,.75,.06,.43,0,.49-.11,.49-.55v-.74h-1.37v-.93h3.79v.93h-1.24v1.22Zm-2-5.07v.56h2.57v-.56h-2.57Z"/><path class="b" d="M23.49,84.04c.36,.53,.86,1.53,1.03,2,.96-.71,1.05-1.78,1.09-2.21h-.82v-1.05h4.28c-.15,3.51-.48,4.13-1.87,4.13-.16,0-.27,0-.4-.03-.02-.13-.11-.72-.43-1.24,.27,.07,.47,.13,.75,.13,.4,0,.47-.21,.56-.61,.05-.26,.12-.8,.13-1.33h-1.07c-.06,.68-.24,2.18-1.65,3.21-.44-.45-.61-.57-.73-.66-.46,.17-.54,.2-.86,.35-.09-.29-.12-.39-.24-.68-1.03,.45-2.41,.9-2.44,.9-.04,.15-.09,.28-.21,.28-.13,0-.16-.15-.18-.24l-.23-1.04c.21-.04,.34-.06,.57-.13l-.2-3.08,.58,.11c.13,0,.22,0,.35,0,1.21,0,2.09-.4,2.46-.57l.64,.88c.07,.09,.1,.15,.1,.2,0,.06-.06,.09-.13,.09-.12,0-.22-.05-.3-.09-1.22,.38-1.97,.44-2.44,.48l.11,1.63c.23-.07,.41-.13,.92-.32-.25-.48-.29-.54-.37-.66l1-.46Zm-1,7.18v.31h-1.25v-4.4h7.17v4.4h-1.25v-.31h-4.67Zm1.72-2.51v-.61h-1.72v.61h1.72Zm0,1.58v-.7h-1.72v.7h1.72Zm2.95-1.58v-.61h-1.76v.61h1.76Zm-1.76,.88v.7h1.76v-.7h-1.76Z"/><path class="b" d="M34.65,84.61v3.41h-2.58c-.06,1.26-.25,2.66-.8,3.64-.23-.12-.66-.33-1.22-.4,.8-1.17,.82-2.74,.82-3.57v-3.08h3.78Zm.22-1.78v1.05h-4.5v-1.05h4.5Zm-2.8,2.85v1.29h1.4v-1.29h-1.4Zm6.36,5.88h-1.2v-5.03h-.9c0,.94-.01,3.34-2.12,5.17-.36-.36-.45-.4-1.05-.72,.64-.43,1.14-1.05,1.5-1.74,.29-.57,.5-1.23,.5-2.48v-3.82l.89,.07c.38,.03,1.69-.29,2.52-.7l.79,1.04s.05,.08,.05,.12c0,.06-.04,.11-.12,.11s-.17-.04-.27-.09c-.89,.33-1.95,.52-2.69,.61v1.3h3.09v1.13h-.99v5.03Z"/><path class="b" d="M45.35,82.58c.07,.02,.2,.04,.2,.16,0,.09-.11,.15-.24,.16-.11,.24-.18,.38-.3,.62,1.42-.2,1.93-.38,2.26-.5v1.28c-.94,.17-1.94,.34-2.91,.43-.12,.22-.35,.59-.52,.89,.42-.23,.86-.23,.95-.23,.16,0,1.07,.02,1.51,.92,.71-.32,1.7-.77,2.12-.99l.5,1.36c-.88,.27-1.64,.52-2.36,.82,.03,.39,.04,.74,.04,1,0,.44-.02,.74-.03,.99-.07,0-.88-.03-1.34,0,.05-.51,.05-.6,.05-1.38-1.09,.59-1.5,1.03-1.5,1.46s.51,.61,1.69,.61c.36,0,1.53,0,3.14-.45-.13,.52-.16,.99-.16,1.37-1.24,.27-2.48,.27-2.78,.27-.56,0-3.18,0-3.18-1.71,0-1.39,2.06-2.47,2.67-2.79-.09-.24-.29-.54-.82-.54-.78,0-1.52,.59-2.47,2.15l-1.19-.7c.43-.44,1.45-1.7,2.2-2.94-.49,.02-.79,.03-1.6,.02v-1.25c.23,.02,.83,.08,1.61,.08,.36,0,.51,0,.61-.02,.06-.12,.39-.78,.57-1.36l1.28,.27Z"/><path class="b" d="M51.74,88.26c.08,0,.16,.05,.16,.12,0,.1-.11,.14-.23,.19-.11,.85-.24,1.54-.52,2.35-.35-.12-.69-.2-1.06-.23,.37-.76,.56-2.01,.59-2.57l1.06,.14Zm2.63-4.44c.06,.03,.12,.1,.12,.17,0,.11-.14,.11-.28,.11-.11,.14-.55,.78-.64,.91-.17,.23-.51,.69-1.12,1.43,.15,0,.8-.1,.94-.11-.13-.44-.19-.57-.23-.66l1-.24c.94-1.28,1.35-2.42,1.51-3.04l1.16,.37c.08,.03,.16,.09,.16,.16,0,.1-.16,.15-.28,.17-.19,.49-.28,.68-.35,.86h2.84c.03,2.48-.08,5.02-.37,6.13-.3,1.15-.86,1.49-2.34,1.43-.02-.22-.06-.61-.53-1.37,.15,.04,.54,.13,.86,.13,.62,0,.86-.33,1.04-1.55,.19-1.24,.17-3.05,.16-3.67h-2.22c-.3,.53-.4,.72-.73,1.15-.2-.2-.52-.38-.82-.52,.22,.62,.39,1.37,.49,1.82-.57,.15-.75,.21-1.04,.33-.02-.14-.03-.25-.08-.52l-.55,.09v4.17h-1.14v-4.01c-.19,.02-1.04,.12-1.21,.14-.03,.12-.1,.23-.18,.23-.11,0-.17-.12-.18-.21l-.15-1.08c.33-.03,.49-.04,.85-.07,.24-.28,.42-.5,.57-.7-.38-.39-.49-.48-1.44-1.3l.68-.96c.27,.2,.34,.27,.46,.36,.62-1.04,.78-1.44,.88-1.7l.97,.48c.07,.03,.12,.09,.12,.15,0,.09-.09,.11-.29,.11-.35,.65-.77,1.3-.98,1.59,.06,.05,.13,.11,.33,.31,.72-1.01,.86-1.24,1.05-1.62l.96,.53Zm-.06,4.16c.09,.74,.23,1.28,.52,2.14-.14,.04-.73,.17-1.03,.36-.13-.42-.42-1.41-.49-2.23l1-.27Zm1.96-1.89c.45,.81,.73,1.43,.98,2.22-.76,.33-.9,.4-1.06,.48-.21-.76-.61-1.65-.98-2.3l1.06-.4Z"/><path class="b" d="M67.25,90.82h-1.5v-5.32h-1.68v-1.1c.84-.04,1.64-.14,1.99-1.46h1.19v7.88Z"/><path class="b" d="M76.52,82.94v1.16h-3.78l-.39,2.03c.49-.39,1.16-.53,1.78-.53,1.64,0,2.84,1.01,2.84,2.6,0,.62-.25,2.84-3.31,2.84-2.88,0-3.2-1.84-3.29-2.39h1.58c.21,1.12,1.4,1.12,1.72,1.12,1.21,0,1.77-.71,1.77-1.52,0-.6-.35-1.47-1.7-1.47-.93,0-1.33,.32-1.53,.49h-1.57l.83-4.33h5.05Z"/><path class="b" d="M82.42,87.02v-.99c-.42,.46-.81,.78-1.38,1.22-.41-.64-.73-.84-.96-.96,1.25-.93,2.18-1.69,3.12-3.56l1.05,.69c.07,.05,.16,.1,.16,.18,0,.1-.12,.12-.28,.12-.51,.82-.81,1.31-1.52,2.1h4.9c-.68-.71-.97-1.34-1.29-2.06h-1.36v-1.16h2.39c.16,1.23,1.02,2.63,2.69,3.54-.42,.43-.59,.63-.78,1.08-.51-.28-1.05-.81-1.24-1-.12,3.19-.16,4.3-.9,4.93-.42,.37-1.48,.4-2.02,.36-.01-.62-.26-1.11-.36-1.32,.21,.03,.55,.08,.88,.08,.68,0,.86,0,1.04-1.69,.02-.24,.06-1.34,.07-1.56h-1.67c-.17,2.85-2.16,3.95-3.46,4.53-.09-.21-.24-.53-.88-1.06,1.55-.54,2.96-1.37,3.12-3.47h-1.32Z"/><path class="b" d="M94.48,82.65c.13,.02,.21,.03,.21,.14,0,.1-.11,.13-.18,.15-.06,.69-.07,1-.08,1.2,.97-.2,1.34-.35,1.71-.52-.02,.98-.02,1.09,.01,1.37-.84,.3-1.58,.43-1.77,.46,0,.16-.01,.85-.02,1,.88-.34,1.54-.36,1.79-.36,1.36,0,2.73,.82,2.73,2.57s-1.25,2.39-2.25,2.39c-1.51,0-1.55-1.37-1.56-1.73,.19-.06,.84-.27,1.08-.36,0,.27-.01,.82,.6,.82,.5,0,.81-.48,.81-1.07,0-.75-.51-1.43-1.49-1.43-.76,0-1.49,.34-1.71,.44,.04,2.08,.05,2.31,.13,3.14l-1.14,.52c-.65-.65-1.14-1.02-1.86-1.54-.21,.21-.32,.33-.52,.56l-.6-1.45c.46-.25,2.28-1.63,2.69-1.87-.01-.49-.01-.98-.01-1.47-.63,.05-1.41,.06-1.95,.06v-1.35c.2,.03,.36,.05,.76,.05,.44,0,1.04-.04,1.19-.05,0-.46-.02-1.42-.03-1.92l1.46,.25Zm-2.22,6.45c.09,.07,.63,.48,.73,.48,.07,0,.08-.12,.08-.22v-.89c-.29,.2-.52,.37-.81,.63Zm5.31-5.25c.73,.38,1.65,1.02,2.18,1.61-.4,.42-.55,.6-.84,1.03-.52-.6-1.23-1.2-2.12-1.58l.78-1.06Z"/><path class="b" d="M105.31,82.45c.05,.39,.1,.72,.22,1.18,1.05-.31,1.56-.61,1.85-.78,.22,.52,.28,.66,.47,1.06-.28,.17-.75,.45-1.95,.83,.16,.38,.22,.52,.28,.64,.11-.04,1.2-.37,2.22-1.09,.1,.18,.58,.94,.67,1.09-.75,.52-1.58,.86-2.31,1.11,.64,1.11,1.33,1.79,1.63,2.09l-.8,.84c-1.34-.9-2.72-.91-2.98-.91-.45,0-1.47,.15-1.47,.85,0,.5,.51,.96,1.98,.96,.21,0,1.55,0,2.55-.4-.04,.2-.1,.52-.1,.94,0,.15,.02,.25,.03,.35-1.06,.31-2.21,.31-2.5,.31-2.55,0-3.3-1.23-3.3-2.13,0-1.18,1.16-1.87,2.55-1.87,.73,0,1.32,.12,1.65,.19-.22-.3-.31-.44-.53-.86-1.03,.21-2.44,.38-3.42,.38-.09,0-.36,0-.64-.03l-.15-1.26c.22,.02,.59,.04,1.05,.04,1.29,0,2.21-.19,2.63-.27-.05-.11-.25-.57-.29-.66-.75,.15-1.74,.23-2.6,.27l-.28-1.2c.51,0,1.17,.02,2.45-.19-.22-.59-.31-.89-.42-1.23l1.51-.25Z"/><path class="b" d="M112.91,83.14c.15,.06,.23,.08,.23,.17,0,.1-.1,.12-.25,.14-.17,.52-.66,1.97-.66,4.15,0,.58,.04,.78,.09,1.1,.03-.08,.33-.76,.49-1.04,.18,.28,.39,.51,.68,.71-.13,.26-.73,1.53-.68,2.51l-1.2,.34c-.32-.88-.67-1.97-.67-3.88s.3-3.2,.63-4.7l1.34,.5Zm2.62,4.67c-.19,.43-.25,.71-.25,.86,0,.5,.46,.6,1.54,.6,.71,0,1.61-.04,2.52-.27-.14,.63-.13,1.2-.12,1.39-.61,.09-1.69,.14-2.32,.14-2,0-2.84-.45-2.84-1.44,0-.21,.02-.75,.36-1.49l1.11,.21Zm-1.08-4.11c.28,.02,.63,.05,1.19,.05,.93,0,1.98-.05,3.03-.32,.06,.92,.1,1.12,.13,1.3-1.03,.21-2.09,.29-3.14,.29-.55,0-.91-.02-1.21-.04v-1.28Z"/><path class="b" d="M127.38,86.54h-.73v1h2.01v1.11h-2.01v1.23c0,.36,.01,.45,.52,.45h.61c.39,0,.63-.06,.81-1.13,.43,.29,.66,.42,1.08,.61-.38,1.3-.58,1.62-1.82,1.62h-1.2c-1.19,0-1.19-.74-1.19-1.11v-1.67h-1.04c-.38,1.55-1.51,2.6-3.05,2.96-.22-.37-.44-.68-.71-1,1.36-.18,2.33-1.11,2.57-1.96h-1.83v-1.11h1.99c.01-.07,.01-.11,.01-.19v-.81h-.63v-.46c-.62,.54-1.1,.88-1.76,1.21-.22-.3-.54-.64-.85-.85,.46-.18,1.01-.44,1.64-.95-.57-.54-.71-.66-.98-.87l.76-.7h-.54v-1.01h3.57l.3,.39c-.42,1.04-1.25,1.92-1.43,2.11h3.31c-.93-.96-1.6-2.06-1.82-2.56l.93-.45c.25,.42,.39,.6,.65,.93,.33-.34,.49-.53,.72-.9l.87,.58s.1,.07,.1,.15c0,.16-.24,.13-.36,.12-.25,.35-.32,.41-.74,.86,.19,.22,.33,.35,.43,.44,.51-.53,.75-.88,.9-1.12l.9,.63s.1,.08,.1,.14c0,.11-.14,.12-.3,.12-.38,.46-.38,.47-.81,.87,.72,.52,1.17,.71,1.4,.81-.23,.23-.61,.66-.79,1.01-.77-.44-1.05-.62-1.59-1.15v.65Zm-5.77-2.62c.08,.05,.58,.4,1.01,.8,.33-.37,.47-.61,.58-.8h-1.59Zm2.94,2.62v1h.91v-1h-.91Z"/><path class="b" d="M139.12,83.17v1.01h-3.52v.51h2.81v3.7h-2.81v.56h3.99v1.03h-3.99v1.64h-1.24v-1.64h-3.95v-1.03h3.95v-.56h-2.82v-3.7h2.82v-.51h-3.56v-1.01h3.56v-.82l1.26,.07c.12,0,.22,.07,.22,.15,0,.1-.1,.14-.24,.19v.41h3.52Zm-4.76,2.95v-.49h-1.56v.49h1.56Zm-1.56,.8v.5h1.56v-.5h-1.56Zm4.37-.8v-.49h-1.57v.49h1.57Zm-1.57,.8v.5h1.57v-.5h-1.57Z"/><path class="b" d="M143.82,82.8c.16,.02,.23,.03,.23,.14,0,.1-.14,.15-.22,.17-.28,1.55-.29,3.95-.29,4.49,0,1.72,.16,2.39,1.09,2.39,1.7,0,3.21-2.03,3.62-2.91,.52,.68,.8,.94,1.01,1.12-1.63,2.62-3.58,3.2-4.76,3.2-2.27,0-2.34-2.16-2.34-4.16,0-.63,.11-3.41,.11-3.98,0-.41-.01-.48-.02-.68l1.57,.22Z"/><path class="b" d="M155.86,82.69c.1,.02,.2,.04,.2,.14,0,.12-.11,.15-.18,.17-.02,.23-.03,.4-.05,.68,.26-.01,.7-.02,1.37-.02,.57,0,.92,0,1.5,.06v1.27c-.48-.04-1.29-.11-2.91-.07v1.3c.26-.02,1.44-.11,2.65-.46v1.29c-.82,.18-1.76,.25-2.62,.32,.01,.17,.03,.92,.03,1.07,1.4,.24,2.87,1.02,3.33,1.36-.36,.37-.59,.65-.93,1.08-.51-.44-1.35-1-2.33-1.32,.04,.62,.06,1.79-2.05,1.79-1.74,0-2.49-.85-2.49-1.58,0-1.25,1.75-1.54,2.56-1.54,.11,0,.43,.02,.56,.02,0-.05,0-.71,0-.8-1.17,.02-2.87,.06-2.87-.87,0-.34,.18-.64,.71-1.17l.96,.25c-.11,.12-.28,.31-.28,.38,0,.26,.37,.27,.87,.27,.23,0,.38,0,.58,0-.01-.21-.01-1.14-.01-1.33-1.41,.05-2.42,.18-3.24,.28v-1.34c.51-.05,2.77-.14,3.23-.17-.02-.92-.02-1.02-.05-1.28l1.47,.23Zm-1.92,6.53c-.32,0-1.19,.06-1.19,.54,0,.42,.76,.45,.91,.45,.61,0,.92-.24,.85-.93-.13-.03-.29-.06-.57-.06Z"/><path class="b" d="M165.98,82.58c.16,.02,.23,.04,.23,.11,0,.09-.06,.12-.16,.17-.03,.18-.04,.35-.05,.8,2.93-.12,3.26-.14,3.38-.15-.02,.17-.03,.2-.03,.49,0,.25,0,.62,.04,.88-1.9-.08-2.92-.06-3.37-.04,0,.17-.02,.83,0,1.3,.51,.69,.51,1.7,.51,1.82,0,1.06-.55,2.83-2.4,3.84-.3-.29-.57-.51-1.21-.89,1.57-.63,1.88-1.4,2-1.71-.27,.24-.6,.35-.96,.35-1.22,0-1.44-1.23-1.44-1.9,0-1.23,.69-2.04,1.75-2.04,.21,0,.32,.03,.42,.06,0-.42,0-.56,0-.78-2.25,.14-3.41,.35-4.1,.48l-.1-1.43c.33,0,.71-.02,4.16-.22-.05-.8-.1-1.07-.14-1.32l1.45,.18Zm-2.33,5.02c0,.83,.45,.93,.62,.93,.4,0,.66-.48,.66-1.06,0-.21-.06-.78-.62-.78-.34,0-.66,.3-.66,.91Z"/><path class="b" d="M173.4,90c0,.76-.62,1.36-1.36,1.36s-1.36-.6-1.36-1.36,.61-1.37,1.36-1.37,1.36,.61,1.36,1.37Zm-2.16,0c0,.44,.36,.8,.8,.8s.79-.36,.79-.8-.35-.8-.79-.8-.8,.37-.8,.8Z"/></g><g><path class="b" d="M174.76,28.97v-.98h3.13v-2.05l1.05,.06c.12,0,.18,.04,.18,.1,0,.07-.09,.1-.18,.13v1.76h3.09v.98h-3.06c.36,1.17,1.1,2.62,3.17,3.67-.47,.36-.61,.51-.78,.79-.86-.38-2.22-1.56-2.93-3.15-.92,1.98-2.26,2.72-3.19,3.17-.08-.18-.21-.43-.71-.89,.67-.26,2.74-1.1,3.25-3.59h-3.02Z"/><path class="b" d="M185.89,27.78h.77v.82h-.77v1.49l.97,.03c.06,0,.14,.02,.14,.1,0,.07-.06,.1-.19,.17v.36h2.18v.82h-2.18v.7h3.13v.85h-7.23v-.85h3.13v-.7h-2.2v-.82h2.2v-.42h-.9v-1.73h-.5c-.17,1.04-.49,1.51-.88,1.95-.29-.21-.58-.34-.9-.46,.54-.53,.76-.92,.86-1.5h-.78v-.82h.85v-.67h-.61v-.8h3.48v.8h-.58v.67Zm-.94-.67h-.44v.67h.44v-.67Zm3.03-.59c.08,0,.14,0,.14,.09,0,.09-.1,.13-.18,.15v2.67h-.92v-2.96l.95,.05Zm1.7-.42c.06,0,.11,.02,.11,.08,0,.08-.1,.14-.16,.16v3.4c0,.59-.12,.83-1.42,.83-.02-.19-.03-.42-.33-1.02,.29,.04,.49,.04,.54,.04,.26,0,.26-.1,.26-.37v-3.18l.99,.06Z"/><path class="b" d="M193.77,27.26c.1,.02,.15,.05,.15,.11,0,.09-.11,.12-.17,.14-.5,2.56-1.31,4.09-2.23,5.13-.31-.23-.84-.42-1.02-.49,1.47-1.64,1.91-3.36,2.17-5.15l1.1,.26Zm2-.46c.96,1.28,1.91,2.9,2.42,5-.32,.16-.98,.55-1.08,.62-.52-2.55-1.5-4.11-2.22-4.97l.88-.65Zm1-.33c.23,.21,.58,.58,.8,.89-.18,.14-.38,.33-.52,.46-.3-.42-.62-.73-.81-.91l.53-.44Zm.77-.62c.39,.34,.63,.59,.82,.86-.22,.14-.48,.38-.58,.48-.16-.24-.52-.66-.79-.9l.54-.44Z"/><path class="b" d="M199.63,27.64v-1.02h4.06c.13,0,.42-.02,.55-.06l.54,.58c-.16,.21-.25,.39-.3,.51-.33,.78-.52,1.21-1.03,2.04,.61,.46,1.86,1.54,2.5,2.31-.28,.3-.73,.8-.82,.91-.43-.6-1.09-1.47-2.27-2.38-.55,.7-1.85,1.92-3.2,2.5-.25-.43-.38-.62-.76-.94,.48-.17,1.65-.6,2.83-1.87,.86-.92,1.17-1.67,1.51-2.58h-3.61Z"/><path class="b" d="M210,30.64c.03,.39,.12,1.25,1.37,1.25,.19,0,1.45,0,1.45-1.04,0-.83-.78-1.03-1.29-1.03h-.55v-.83h.47c.59,0,1.23-.29,1.23-.9,0-.82-.95-.82-1.19-.82-.82,0-1.23,.25-1.28,1.02h-1.25c.03-.27,.08-.7,.42-1.16,.57-.76,1.57-.88,2.14-.88,1.33,0,2.38,.58,2.38,1.7,0,.98-.74,1.25-1.08,1.37,.31,.1,1.22,.39,1.22,1.53,0,1.25-.99,2.05-2.65,2.05-1.38,0-2.51-.59-2.63-2.27h1.24Z"/><path class="b" d="M222.01,26.6c1.09,.86,1.95,1.98,2.24,2.5-.55,.32-.62,.36-.88,.57-.11-.19-.22-.38-.52-.8-1.56,.14-4.05,.33-5.61,.46-.07,.15-.09,.18-.15,.18-.07,0-.12-.09-.13-.14l-.21-1.04c.22,0,.8-.02,1.2-.02,.82-1.17,1.16-1.96,1.35-2.39l1.05,.28c.06,.02,.11,.06,.11,.11,0,.04-.06,.06-.24,.13-.18,.34-.54,.98-1.1,1.82,1.59-.07,1.77-.08,3.1-.16-.42-.46-.78-.76-.94-.89l.74-.61Zm-3.25,6.35v.37h-1.06v-3.46h5.5v3.46h-1.06v-.37h-3.39Zm3.39-.92v-1.25h-3.39v1.25h3.39Z"/><path class="b" d="M232,27.35c-2,0-3.77,1.63-3.77,3.09,0,.94,.66,1.54,2.35,1.67-.31,.58-.43,.96-.5,1.21-1.22-.27-2.92-.97-2.92-2.78,0-1.07,.61-1.99,1.68-2.81-.51,.03-2.87,.3-3.65,.5l-.15-1.29c.15,.02,.3,.02,.52,.02,.54,0,3.88-.14,6.24-.76l.21,1.14Zm-1.33,1.29c.11,.13,.51,.59,.7,.86-.2,.14-.49,.42-.54,.46-.27-.4-.41-.58-.68-.89l.52-.44Zm.77-.59c.22,.19,.57,.62,.73,.85-.18,.12-.37,.3-.52,.46-.25-.38-.4-.57-.7-.9l.5-.4Z"/><path class="b" d="M234.8,29.1v2.32c.06,.56,.57,.77,.65,.79,.37,.11,1.2,.11,1.6,.11,.51,0,2.26-.05,3.28-.2-.24,.42-.33,.62-.41,1.08h-3.33c-1.14,0-1.71-.15-2.19-.85-.2,.17-.78,.59-1.06,.77,0,.1-.04,.22-.12,.22-.09,0-.13-.1-.15-.15l-.41-1.01c.36-.13,.94-.46,1.14-.62v-1.5h-.92v-.95h1.93Zm-1.22-3.06c.47,.38,.98,.92,1.33,1.36-.16,.14-.59,.53-.79,.73-.34-.47-1.1-1.2-1.29-1.38l.74-.71Zm3.25,.28c.07,.02,.15,.06,.15,.12,0,.1-.11,.11-.23,.14-.22,.7-.25,.78-.41,1.21-.07,.19-.43,1.02-.5,1.19,.37,.64,1.01,1.75,1.34,2.67-.26,.04-.71,.24-.93,.39-.43-1.29-1.08-2.42-1.42-3,.19-.41,.27-.61,.5-1.25,.15-.43,.18-.57,.49-1.78l1.01,.3Zm1.53-.06c.06,.02,.15,.05,.15,.12,0,.09-.11,.1-.26,.13-.12,.42-.2,.63-.42,1.21-.08,.2-.46,1.06-.54,1.23,.61,.99,1.03,1.67,1.38,2.59-.44,.13-.79,.37-.9,.45-.31-.9-.95-2.23-1.51-2.97,.61-1.33,.8-1.88,1.14-3.03l.96,.27Zm1.43,.08c.07,.02,.18,.06,.18,.13,0,.1-.14,.11-.26,.11-.05,.14-.17,.47-.38,1.01-.05,.13-.46,1.06-.57,1.31,.11,.2,.61,1.06,.7,1.24,.38,.72,.52,1.1,.58,1.27-.22,.08-.56,.24-.84,.42-.24-.78-.93-2.13-1.5-2.92,.33-.66,.82-1.71,1.1-2.87l.98,.3Z"/><path class="b" d="M242.04,32.93v.38h-.98v-7.04h6.81v7.03h-.98v-.37h-4.85Zm4.85-.84v-4.97h-4.85v4.97h4.85Zm-3.17-1.02v.37h-1.01v-3.55h3.5v3.55h-.98v-.37h-1.51Zm1.51-.86v-1.46h-1.51v1.46h1.51Z"/></g><g><path class="b" d="M177.35,45.74s.11,.05,.11,.12c0,.1-.05,.1-.26,.13-.31,1.25-1.1,2.75-1.68,3.43-.26-.18-.74-.38-1.04-.44,.47-.56,.78-.95,1.16-1.74,.14-.28,.55-1.14,.66-1.84l1.05,.34Zm1.64-1.93c.07,0,.18,.02,.18,.1,0,.06-.04,.09-.15,.15v5.9c0,.72-.25,1.15-1.53,1.15-.1,0-.18,0-.25,0-.12-.49-.18-.66-.42-1.06,.36,.07,.64,.07,.66,.07,.42,0,.46-.08,.46-.36v-6l1.04,.06Zm1.49,1.5c.66,1.14,1.21,2.21,1.82,3.88-.48,.17-.64,.25-1.05,.46-.35-1.11-.79-2.32-1.72-3.89l.95-.45Z"/><path class="b" d="M185.89,45.52h.77v.82h-.77v1.49l.97,.03c.06,0,.14,.02,.14,.1,0,.07-.06,.1-.19,.17v.36h2.18v.82h-2.18v.7h3.13v.85h-7.23v-.85h3.13v-.7h-2.2v-.82h2.2v-.42h-.9v-1.73h-.5c-.17,1.04-.49,1.51-.88,1.95-.29-.21-.58-.34-.9-.46,.54-.53,.76-.92,.86-1.5h-.78v-.82h.85v-.67h-.61v-.8h3.48v.8h-.58v.67Zm-.94-.67h-.44v.67h.44v-.67Zm3.03-.59c.08,0,.14,0,.14,.09,0,.09-.1,.13-.18,.15v2.67h-.92v-2.96l.95,.05Zm1.7-.42c.06,0,.11,.02,.11,.08,0,.08-.1,.14-.16,.16v3.4c0,.59-.12,.83-1.42,.83-.02-.19-.03-.42-.33-1.02,.29,.04,.49,.04,.54,.04,.26,0,.26-.1,.26-.37v-3.18l.99,.06Z"/><path class="b" d="M193.77,44.99c.1,.02,.15,.05,.15,.11,0,.09-.11,.12-.17,.14-.5,2.56-1.31,4.09-2.23,5.13-.31-.23-.84-.42-1.02-.49,1.47-1.64,1.91-3.36,2.17-5.15l1.1,.26Zm2-.46c.96,1.28,1.91,2.9,2.42,5-.32,.16-.98,.55-1.08,.62-.52-2.55-1.5-4.11-2.22-4.97l.88-.65Zm1-.33c.23,.21,.58,.58,.8,.89-.18,.14-.38,.33-.52,.46-.3-.42-.62-.73-.81-.91l.53-.44Zm.77-.62c.39,.34,.63,.59,.82,.86-.22,.14-.48,.38-.58,.48-.16-.24-.52-.66-.79-.9l.54-.44Z"/><path class="b" d="M199.63,45.38v-1.02h4.06c.13,0,.42-.02,.55-.06l.54,.58c-.16,.21-.25,.39-.3,.51-.33,.78-.52,1.21-1.03,2.04,.61,.46,1.86,1.54,2.5,2.31-.28,.3-.73,.8-.82,.91-.43-.6-1.09-1.47-2.27-2.38-.55,.7-1.85,1.92-3.2,2.5-.25-.43-.38-.62-.76-.94,.48-.17,1.65-.6,2.83-1.87,.86-.92,1.17-1.67,1.51-2.58h-3.61Z"/><path class="b" d="M214.08,49.54v.93h-5.32c.09-1.36,.72-1.78,2.69-3.09,1.18-.78,1.34-1,1.34-1.48,0-.67-.66-.89-1.24-.89-1.2,0-1.42,.72-1.46,1.45h-1.23c.03-.55,.15-2.46,2.69-2.46,1.63,0,2.46,.86,2.46,1.9,0,.9-.5,1.41-1.66,2.14-1.22,.77-1.54,1.02-1.95,1.51h3.67Z"/><path class="b" d="M222.01,44.34c1.09,.86,1.95,1.98,2.24,2.5-.55,.32-.62,.36-.88,.57-.11-.19-.22-.38-.52-.8-1.56,.14-4.05,.33-5.61,.46-.07,.15-.09,.18-.15,.18-.07,0-.12-.09-.13-.14l-.21-1.04c.22,0,.8-.02,1.2-.02,.82-1.17,1.16-1.96,1.35-2.39l1.05,.28c.06,.02,.11,.06,.11,.11,0,.04-.06,.06-.24,.13-.18,.34-.54,.98-1.1,1.82,1.59-.07,1.77-.08,3.1-.16-.42-.46-.78-.76-.94-.89l.74-.61Zm-3.25,6.35v.37h-1.06v-3.46h5.5v3.46h-1.06v-.37h-3.39Zm3.39-.92v-1.25h-3.39v1.25h3.39Z"/><path class="b" d="M232,45.08c-2,0-3.77,1.63-3.77,3.09,0,.94,.66,1.54,2.35,1.67-.31,.58-.43,.96-.5,1.21-1.22-.27-2.92-.97-2.92-2.78,0-1.07,.61-1.99,1.68-2.81-.51,.03-2.87,.3-3.65,.5l-.15-1.29c.15,.02,.3,.02,.52,.02,.54,0,3.88-.14,6.24-.76l.21,1.14Zm-1.33,1.29c.11,.13,.51,.59,.7,.86-.2,.14-.49,.42-.54,.46-.27-.4-.41-.58-.68-.89l.52-.44Zm.77-.59c.22,.19,.57,.62,.73,.85-.18,.12-.37,.3-.52,.46-.25-.38-.4-.57-.7-.9l.5-.4Z"/><path class="b" d="M234.8,46.84v2.32c.06,.56,.57,.77,.65,.79,.37,.11,1.2,.11,1.6,.11,.51,0,2.26-.05,3.28-.2-.24,.42-.33,.62-.41,1.08h-3.33c-1.14,0-1.71-.15-2.19-.85-.2,.17-.78,.59-1.06,.77,0,.1-.04,.22-.12,.22-.09,0-.13-.1-.15-.15l-.41-1.01c.36-.13,.94-.46,1.14-.62v-1.5h-.92v-.95h1.93Zm-1.22-3.06c.47,.38,.98,.92,1.33,1.36-.16,.14-.59,.53-.79,.73-.34-.47-1.1-1.2-1.29-1.38l.74-.71Zm3.25,.28c.07,.02,.15,.06,.15,.12,0,.1-.11,.11-.23,.14-.22,.7-.25,.78-.41,1.21-.07,.19-.43,1.02-.5,1.19,.37,.64,1.01,1.75,1.34,2.67-.26,.04-.71,.24-.93,.39-.43-1.29-1.08-2.42-1.42-3,.19-.41,.27-.61,.5-1.25,.15-.43,.18-.57,.49-1.78l1.01,.3Zm1.53-.06c.06,.02,.15,.05,.15,.12,0,.09-.11,.1-.26,.13-.12,.42-.2,.63-.42,1.21-.08,.2-.46,1.06-.54,1.23,.61,.99,1.03,1.67,1.38,2.59-.44,.13-.79,.37-.9,.45-.31-.9-.95-2.23-1.51-2.97,.61-1.33,.8-1.88,1.14-3.03l.96,.27Zm1.43,.08c.07,.02,.18,.06,.18,.13,0,.1-.14,.11-.26,.11-.05,.14-.17,.47-.38,1.01-.05,.13-.46,1.06-.57,1.31,.11,.2,.61,1.06,.7,1.24,.38,.72,.52,1.1,.58,1.27-.22,.08-.56,.24-.84,.42-.24-.78-.93-2.13-1.5-2.92,.33-.66,.82-1.71,1.1-2.87l.98,.3Z"/><path class="b" d="M242.04,50.67v.38h-.98v-7.04h6.81v7.03h-.98v-.37h-4.85Zm4.85-.84v-4.97h-4.85v4.97h4.85Zm-3.17-1.02v.37h-1.01v-3.55h3.5v3.55h-.98v-.37h-1.51Zm1.51-.86v-1.46h-1.51v1.46h1.51Z"/></g><g><path class="b" d="M174.76,65.33v-.98h3.13v-2.05l1.05,.06c.12,0,.18,.04,.18,.1,0,.07-.09,.1-.18,.13v1.76h3.09v.98h-3.06c.36,1.17,1.1,2.62,3.17,3.67-.47,.36-.61,.51-.78,.79-.86-.38-2.22-1.56-2.93-3.15-.92,1.98-2.26,2.72-3.19,3.17-.08-.18-.21-.43-.71-.89,.67-.26,2.74-1.1,3.25-3.59h-3.02Z"/><path class="b" d="M185.89,64.14h.77v.82h-.77v1.49l.97,.03c.06,0,.14,.02,.14,.1,0,.07-.06,.1-.19,.17v.36h2.18v.82h-2.18v.7h3.13v.85h-7.23v-.85h3.13v-.7h-2.2v-.82h2.2v-.42h-.9v-1.73h-.5c-.17,1.04-.49,1.51-.88,1.95-.29-.21-.58-.34-.9-.46,.54-.53,.76-.92,.86-1.5h-.78v-.82h.85v-.67h-.61v-.8h3.48v.8h-.58v.67Zm-.94-.67h-.44v.67h.44v-.67Zm3.03-.59c.08,0,.14,0,.14,.09,0,.09-.1,.13-.18,.15v2.67h-.92v-2.96l.95,.05Zm1.7-.42c.06,0,.11,.02,.11,.08,0,.08-.1,.14-.16,.16v3.4c0,.59-.12,.83-1.42,.83-.02-.19-.03-.42-.33-1.02,.29,.04,.49,.04,.54,.04,.26,0,.26-.1,.26-.37v-3.18l.99,.06Z"/><path class="b" d="M193.77,63.62c.1,.02,.15,.05,.15,.11,0,.09-.11,.12-.17,.14-.5,2.56-1.31,4.09-2.23,5.13-.31-.23-.84-.42-1.02-.49,1.47-1.64,1.91-3.36,2.17-5.15l1.1,.26Zm2-.46c.96,1.28,1.91,2.9,2.42,5-.32,.16-.98,.55-1.08,.62-.52-2.55-1.5-4.11-2.22-4.97l.88-.65Zm1-.33c.23,.21,.58,.58,.8,.89-.18,.14-.38,.33-.52,.46-.3-.42-.62-.73-.81-.91l.53-.44Zm.77-.62c.39,.34,.63,.59,.82,.86-.22,.14-.48,.38-.58,.48-.16-.24-.52-.66-.79-.9l.54-.44Z"/><path class="b" d="M199.63,64v-1.02h4.06c.13,0,.42-.02,.55-.06l.54,.58c-.16,.21-.25,.39-.3,.51-.33,.78-.52,1.21-1.03,2.04,.61,.46,1.86,1.54,2.5,2.31-.28,.3-.73,.8-.82,.91-.43-.6-1.09-1.47-2.27-2.38-.55,.7-1.85,1.92-3.2,2.5-.25-.43-.38-.62-.76-.94,.48-.17,1.65-.6,2.83-1.87,.86-.92,1.17-1.67,1.51-2.58h-3.61Z"/><path class="b" d="M210,67c.03,.39,.12,1.25,1.37,1.25,.19,0,1.45,0,1.45-1.04,0-.83-.78-1.03-1.29-1.03h-.55v-.83h.47c.59,0,1.23-.29,1.23-.9,0-.82-.95-.82-1.19-.82-.82,0-1.23,.25-1.28,1.02h-1.25c.03-.27,.08-.7,.42-1.16,.57-.76,1.57-.88,2.14-.88,1.33,0,2.38,.58,2.38,1.7,0,.98-.74,1.25-1.08,1.37,.31,.1,1.22,.39,1.22,1.53,0,1.25-.99,2.05-2.65,2.05-1.38,0-2.51-.59-2.63-2.27h1.24Z"/><path class="b" d="M222.01,62.96c1.09,.86,1.95,1.98,2.24,2.5-.55,.32-.62,.36-.88,.57-.11-.19-.22-.38-.52-.8-1.56,.14-4.05,.33-5.61,.46-.07,.15-.09,.18-.15,.18-.07,0-.12-.09-.13-.14l-.21-1.04c.22,0,.8-.02,1.2-.02,.82-1.17,1.16-1.96,1.35-2.39l1.05,.28c.06,.02,.11,.06,.11,.11,0,.04-.06,.06-.24,.13-.18,.34-.54,.98-1.1,1.82,1.59-.07,1.77-.08,3.1-.16-.42-.46-.78-.76-.94-.89l.74-.61Zm-3.25,6.35v.37h-1.06v-3.46h5.5v3.46h-1.06v-.37h-3.39Zm3.39-.92v-1.25h-3.39v1.25h3.39Z"/><path class="b" d="M232,63.7c-2,0-3.77,1.63-3.77,3.09,0,.94,.66,1.54,2.35,1.67-.31,.58-.43,.96-.5,1.21-1.22-.27-2.92-.97-2.92-2.78,0-1.07,.61-1.99,1.68-2.81-.51,.03-2.87,.3-3.65,.5l-.15-1.29c.15,.02,.3,.02,.52,.02,.54,0,3.88-.14,6.24-.76l.21,1.14Zm-1.33,1.29c.11,.13,.51,.59,.7,.86-.2,.14-.49,.42-.54,.46-.27-.4-.41-.58-.68-.89l.52-.44Zm.77-.59c.22,.19,.57,.62,.73,.85-.18,.12-.37,.3-.52,.46-.25-.38-.4-.57-.7-.9l.5-.4Z"/><path class="b" d="M234.8,65.46v2.32c.06,.56,.57,.77,.65,.79,.37,.11,1.2,.11,1.6,.11,.51,0,2.26-.05,3.28-.2-.24,.42-.33,.62-.41,1.08h-3.33c-1.14,0-1.71-.15-2.19-.85-.2,.17-.78,.59-1.06,.77,0,.1-.04,.22-.12,.22-.09,0-.13-.1-.15-.15l-.41-1.01c.36-.13,.94-.46,1.14-.62v-1.5h-.92v-.95h1.93Zm-1.22-3.06c.47,.38,.98,.92,1.33,1.36-.16,.14-.59,.53-.79,.73-.34-.47-1.1-1.2-1.29-1.38l.74-.71Zm3.25,.28c.07,.02,.15,.06,.15,.12,0,.1-.11,.11-.23,.14-.22,.7-.25,.78-.41,1.21-.07,.19-.43,1.02-.5,1.19,.37,.64,1.01,1.75,1.34,2.67-.26,.04-.71,.24-.93,.39-.43-1.29-1.08-2.42-1.42-3,.19-.41,.27-.61,.5-1.25,.15-.43,.18-.57,.49-1.78l1.01,.3Zm1.53-.06c.06,.02,.15,.05,.15,.12,0,.09-.11,.1-.26,.13-.12,.42-.2,.63-.42,1.21-.08,.2-.46,1.06-.54,1.23,.61,.99,1.03,1.67,1.38,2.59-.44,.13-.79,.37-.9,.45-.31-.9-.95-2.23-1.51-2.97,.61-1.33,.8-1.88,1.14-3.03l.96,.27Zm1.43,.08c.07,.02,.18,.06,.18,.13,0,.1-.14,.11-.26,.11-.05,.14-.17,.47-.38,1.01-.05,.13-.46,1.06-.57,1.31,.11,.2,.61,1.06,.7,1.24,.38,.72,.52,1.1,.58,1.27-.22,.08-.56,.24-.84,.42-.24-.78-.93-2.13-1.5-2.92,.33-.66,.82-1.71,1.1-2.87l.98,.3Z"/><path class="b" d="M242.04,69.29v.38h-.98v-7.04h6.81v7.03h-.98v-.37h-4.85Zm4.85-.84v-4.97h-4.85v4.97h4.85Zm-3.17-1.02v.37h-1.01v-3.55h3.5v3.55h-.98v-.37h-1.51Zm1.51-.86v-1.46h-1.51v1.46h1.51Z"/></g><g><path class="d" d="M109.89,9.53v2.76c0,1.34,1.44,1.34,2.91,1.34,2.05,0,3.44-.13,4.1-.2-.19,.38-.31,.84-.34,1.26h-4.33c-1.96,0-2.52-.44-2.95-.99-.13,.12-.87,.7-1.08,.85,.01,.16,.03,.31-.13,.31-.08,0-.13-.1-.17-.17l-.57-1.08c.39-.15,1.05-.55,1.33-.78v-2.2h-1.08v-1.1h2.31Zm-1.63-3.63c.64,.55,1.02,.95,1.51,1.49-.25,.2-.86,.8-.91,.85-.14-.2-.74-1.01-1.42-1.59l.82-.75Zm5.59,1.33h1.35v.83h-1.35v.37h2.2v3.03h-2.2v.39h2.72v.84h-2.72v.72h-1.08v-.72h-2.51v-.84h2.51v-.39h-2.18v-3.03h2.18v-.37h-1.49v-.83h1.49v-.42h-1.76v1h-1.03v-1.87h6.53v1.87h-1.03v-1h-1.4c.05,.13-.12,.19-.23,.23v.19Zm-1.08,1.93h-1.09v.44h1.09v-.44Zm0,1.1h-1.09v.46h1.09v-.46Zm1.08-.66h1.11v-.44h-1.11v.44Zm0,1.12h1.11v-.46h-1.11v.46Z"/><path class="d" d="M121.32,8.3c.07,.04,.15,.1,.15,.16,0,.03,0,.05,0,.08h5.24v1.15h-1.36v3.96c0,.69-.24,1.26-2.25,1.21-.05-.39-.22-.95-.43-1.29,.19,.03,.69,.09,.86,.09,.38,0,.52-.09,.52-.42v-3.55h-2.77v-1.07s-.08,0-.13,0c-.32,.42-.83,1.1-.97,1.25,.15,.04,.25,.09,.25,.17s-.06,.14-.16,.17v4.65h-1.3v-3.74c-.49,.44-.67,.58-.84,.7-.22-.32-.64-.63-.94-.79,1.78-1.23,2.91-2.89,3.12-3.33l1.02,.59Zm-.41-2.06c.06,.04,.12,.08,.12,.16,0,.12-.18,.14-.27,.13-.87,.95-1.56,1.55-2.49,2.18-.27-.36-.7-.67-.96-.81,.86-.49,2.1-1.57,2.65-2.27l.95,.61Zm5.43,.9h-4.66v-1.15h4.66v1.15Z"/><path class="d" d="M130.87,6.52v6.71h-1.13v-.38h-.81v.82h-1.12V6.52h3.06Zm-1.13,2.6v-1.54h-.81v1.54h.81Zm-.81,1.07v1.61h.81v-1.61h-.81Zm6.7-.29c.12,0,.19,.05,.19,.1,0,.09-.13,.15-.18,.17v.6h1.02v1.08h-1.02v1.93c0,.9-.46,1.2-2.07,1.12-.04-.53-.16-.87-.44-1.28,.21,.04,.76,.09,.89,.09,.27,0,.36-.07,.36-.41v-1.45h-2.02c.14,.13,.71,.71,1.09,1.28-.29,.22-.41,.33-.95,.82-.11-.16-.63-.98-1.17-1.47l.77-.63h-.84v-1.08h3.12v-.92h-3.27v-1.09h2.03v-.81h-1.78v-1.09h1.78v-1.13l1.39,.05c.08,0,.15,.04,.15,.12,0,.09-.12,.14-.25,.18v.78h1.96v1.09h-1.96v.81h2.32v1.09h-1.58l.46,.05Z"/><path class="d" d="M141.77,5.92v3.33h-2.74v5.6h-1.18V5.92h3.92Zm-1.16,1.29v-.49h-1.58v.49h1.58Zm-1.58,.68v.54h1.58v-.54h-1.58Zm5.17,5.66h-3.04v.38h-1.1v-4.07h4.14v3.69Zm-1.09-2.26v-.53h-1.95v.53h1.95Zm-1.95,.81v.55h1.95v-.55h-1.95Zm5.24-6.18v7.81c0,.76-.34,1.21-1.56,1.21-.09,0-.16,0-.23,0-.11-.58-.23-.82-.57-1.32,.38,.12,.69,.12,.77,.12,.31,0,.43-.07,.43-.52v-3.96h-2.76v-3.33h3.92Zm-1.19,1.27v-.49h-1.57v.49h1.57Zm-1.57,.7v.5h1.57v-.5h-1.57Z"/></g><g><path class="d" d="M31.59,9.53v2.76c0,1.34,1.44,1.34,2.91,1.34,2.05,0,3.44-.13,4.1-.2-.19,.38-.31,.84-.34,1.26h-4.33c-1.96,0-2.52-.44-2.95-.99-.13,.12-.87,.7-1.08,.85,.01,.16,.03,.31-.13,.31-.08,0-.13-.1-.17-.17l-.57-1.08c.39-.15,1.05-.55,1.33-.78v-2.2h-1.08v-1.1h2.31Zm-1.63-3.63c.64,.55,1.02,.95,1.51,1.49-.25,.2-.86,.8-.91,.85-.14-.2-.74-1.01-1.42-1.59l.82-.75Zm5.59,1.33h1.35v.83h-1.35v.37h2.2v3.03h-2.2v.39h2.72v.84h-2.72v.72h-1.08v-.72h-2.51v-.84h2.51v-.39h-2.18v-3.03h2.18v-.37h-1.49v-.83h1.49v-.42h-1.76v1h-1.03v-1.87h6.53v1.87h-1.03v-1h-1.4c.05,.13-.12,.19-.23,.23v.19Zm-1.08,1.93h-1.09v.44h1.09v-.44Zm0,1.1h-1.09v.46h1.09v-.46Zm1.08-.66h1.11v-.44h-1.11v.44Zm0,1.12h1.11v-.46h-1.11v.46Z"/><path class="d" d="M43.02,8.3c.07,.04,.15,.1,.15,.16,0,.03,0,.05,0,.08h5.24v1.15h-1.36v3.96c0,.69-.24,1.26-2.25,1.21-.05-.39-.22-.95-.43-1.29,.19,.03,.69,.09,.86,.09,.38,0,.52-.09,.52-.42v-3.55h-2.77v-1.07s-.08,0-.13,0c-.32,.42-.83,1.1-.97,1.25,.15,.04,.25,.09,.25,.17s-.06,.14-.16,.17v4.65h-1.3v-3.74c-.49,.44-.67,.58-.84,.7-.22-.32-.64-.63-.94-.79,1.78-1.23,2.91-2.89,3.12-3.33l1.02,.59Zm-.41-2.06c.06,.04,.12,.08,.12,.16,0,.12-.18,.14-.27,.13-.87,.95-1.56,1.55-2.49,2.18-.27-.36-.7-.67-.96-.81,.86-.49,2.1-1.57,2.65-2.27l.95,.61Zm5.43,.9h-4.66v-1.15h4.66v1.15Z"/><path class="d" d="M51.63,13.89v.59h-1.31V6.34h7.01V14.47h-1.31v-.58h-4.39Zm4.39-4.43v-1.97h-4.39v1.97h4.39Zm0,3.23v-2.09h-4.39v2.09h4.39Z"/></g><g><path class="d" d="M198.36,6.45c1.36,1.08,2.44,2.48,2.8,3.13-.69,.4-.78,.45-1.1,.71-.14-.24-.27-.47-.65-1-1.95,.17-5.07,.41-7.02,.58-.09,.19-.11,.22-.19,.22-.09,0-.15-.11-.16-.18l-.26-1.3c.27,0,1-.02,1.5-.03,1.02-1.46,1.45-2.45,1.69-2.99l1.31,.35c.08,.02,.14,.08,.14,.14,0,.05-.07,.08-.3,.16-.23,.42-.67,1.22-1.38,2.28,1.99-.09,2.21-.1,3.88-.2-.52-.57-.98-.95-1.18-1.11l.92-.76Zm-4.07,7.94v.46h-1.32v-4.33h6.88v4.33h-1.32v-.46h-4.24Zm4.24-1.15v-1.57h-4.24v1.57h4.24Z"/><path class="d" d="M224.86,10.22c.09,.04,.16,.09,.16,.14,0,.12-.19,.09-.27,.08-.04,.08-.07,.14-.12,.23h2.12v.99h-.37s.02,.05,.02,.07c0,.1-.16,.12-.25,.12-.2,.52-.4,.83-.74,1.25,.55,.43,.65,.56,.76,.7-.32,.34-.61,.76-.68,.87-.3-.32-.51-.52-.84-.79-.74,.62-1.35,.87-1.89,1.03-.17-.39-.51-.73-.64-.85,.91-.2,1.54-.67,1.69-.79-.19-.14-.42-.27-.62-.39l-.22,.3c-.34-.26-.58-.36-.92-.45,.18-.24,.36-.47,.76-1.07h-.99v-.99h1.61c.1-.16,.21-.34,.37-.67h-.03v-.95c-.1,.13-.61,.78-1.33,1.3-.16-.19-.5-.52-.82-.68,.72-.41,1.31-1.05,1.57-1.34h-1.37v-.95h.72c-.08-.18-.47-.9-.68-1.19l.88-.48c.2,.19,.65,.94,.77,1.26-.2,.07-.8,.35-.9,.41h1.19v-1.72l1.12,.09s.15,.03,.15,.12c0,.06-.04,.1-.24,.18v1.33h1.02c-.16-.12-.3-.19-.76-.38,.3-.45,.5-.81,.68-1.26l.97,.37c.07,.03,.1,.08,.1,.12,0,.14-.21,.16-.28,.17-.4,.69-.49,.82-.61,.98h.74v.95h-1.38c.34,.38,.59,.6,1.13,.99-.26,.21-.58,.56-.74,.73-.41-.35-.67-.67-.87-.94v.89h-.48l.51,.22Zm-.81,1.44c-.08,.12-.14,.21-.27,.4,.25,.14,.71,.41,.81,.48,.2-.24,.38-.5,.54-.88h-1.08Zm4.66-5.77c.11,.01,.15,.06,.15,.13s-.02,.12-.25,.2c-.04,.41-.11,.81-.19,1.21h2.62v1.12h-.47c-.02,.31-.13,2.17-1.06,3.85,.44,.64,1,1.17,1.64,1.6-.28,.28-.58,.63-.8,.92-.33-.25-.85-.65-1.52-1.52-.15,.18-.75,.91-1.83,1.52-.31-.43-.46-.59-.87-.86,.95-.42,1.66-1.19,2.04-1.67-.48-.92-.63-1.54-.74-2.19-.19,.35-.29,.46-.42,.61-.14-.13-.35-.35-.93-.57,.35-.47,.74-1.04,1.01-2.03,.11-.39,.38-1.47,.44-2.47l1.18,.15Zm-.52,2.66c.08,1.35,.56,2.44,.67,2.69,.48-1.11,.56-2.42,.58-2.69h-1.25Z"/></g><g><path class="b" d="M16.68,49.24c.2,.7,.82,.93,1.45,.93,1.55,0,1.92-1.09,2.03-2.5-.26,.25-.82,.81-2.26,.81-1.96,0-2.9-1.16-2.9-2.6,0-1.71,1.32-2.76,3.19-2.76s3.44,1.08,3.44,4.09c0,3.77-2.48,4.23-3.49,4.23-.29,0-2.65-.07-3.05-2.2h1.59Zm-.15-3.33c0,.83,.65,1.43,1.7,1.43,1.4,0,1.8-.85,1.8-1.45,0-.7-.51-1.52-1.79-1.52-1.42,0-1.71,.99-1.71,1.54Z"/><path class="b" d="M26.89,43.34l-3.54,7.88h-1.04l3.54-7.88h1.04Z"/><path class="b" d="M34.2,50.06v1.16h-6.65c.11-1.7,.9-2.23,3.37-3.87,1.47-.98,1.68-1.25,1.68-1.85,0-.84-.82-1.11-1.55-1.11-1.5,0-1.78,.9-1.83,1.81h-1.54c.04-.69,.19-3.08,3.37-3.08,2.04,0,3.08,1.07,3.08,2.37,0,1.12-.62,1.76-2.08,2.68-1.52,.96-1.93,1.28-2.44,1.89h4.59Z"/><path class="b" d="M40.55,48.29h1.29v1.16h-1.29v1.77h-1.5v-1.77h-3.93v-1.16l3.93-4.95h1.5v4.95Zm-1.5,0v-3.28l-2.61,3.28h2.61Z"/><path class="b" d="M46.74,43.31c-.49,.52-1.7,1.79-1.7,4.11s1.21,3.59,1.7,4.11l-.74,.67c-1.65-1.66-1.97-3.53-1.97-4.78s.32-3.12,1.97-4.78l.74,.67Z"/><path class="b" d="M56.45,45.78v1.16h-3.5v3.56h3.96v1.14h-9.2v-1.14h3.9v-3.56h-3.44v-1.16h3.44v-2.97l1.38,.08c.1,0,.2,.06,.2,.12,0,.09-.14,.16-.23,.2v2.57h3.5Z"/><path class="b" d="M57.83,51.53c.49-.52,1.7-1.79,1.7-4.11s-1.21-3.59-1.7-4.11l.74-.67c1.65,1.66,1.97,3.53,1.97,4.78s-.32,3.12-1.97,4.78l-.74-.67Z"/></g><g><path class="b" d="M16.68,67.72c.2,.7,.82,.93,1.45,.93,1.55,0,1.92-1.09,2.03-2.5-.26,.25-.82,.81-2.26,.81-1.96,0-2.9-1.16-2.9-2.6,0-1.71,1.32-2.76,3.19-2.76s3.44,1.08,3.44,4.09c0,3.77-2.48,4.23-3.49,4.23-.29,0-2.65-.07-3.05-2.2h1.59Zm-.15-3.33c0,.83,.65,1.43,1.7,1.43,1.4,0,1.8-.85,1.8-1.45,0-.7-.51-1.52-1.79-1.52-1.42,0-1.71,.99-1.71,1.54Z"/><path class="b" d="M26.89,61.83l-3.54,7.88h-1.04l3.54-7.88h1.04Z"/><path class="b" d="M34.2,68.54v1.16h-6.65c.11-1.7,.9-2.23,3.37-3.87,1.47-.98,1.68-1.25,1.68-1.85,0-.84-.82-1.11-1.55-1.11-1.5,0-1.78,.9-1.83,1.81h-1.54c.04-.69,.19-3.08,3.37-3.08,2.04,0,3.08,1.07,3.08,2.37,0,1.12-.62,1.76-2.08,2.68-1.52,.96-1.93,1.28-2.44,1.89h4.59Z"/><path class="b" d="M41.29,61.83v1.16h-3.78l-.39,2.03c.49-.39,1.16-.53,1.78-.53,1.64,0,2.84,1.01,2.84,2.6,0,.62-.25,2.84-3.31,2.84-2.88,0-3.2-1.84-3.29-2.39h1.58c.21,1.12,1.4,1.12,1.72,1.12,1.21,0,1.77-.71,1.77-1.52,0-.6-.35-1.47-1.7-1.47-.93,0-1.33,.32-1.53,.49h-1.57l.83-4.33h5.05Z"/><path class="b" d="M46.74,61.8c-.49,.52-1.7,1.79-1.7,4.11s1.21,3.59,1.7,4.11l-.74,.67c-1.65-1.66-1.97-3.53-1.97-4.78s.32-3.12,1.97-4.78l.74,.67Z"/><path class="b" d="M50.08,69.48v.59h-1.31v-8.15h7.01v8.13h-1.31v-.58h-4.39Zm4.39-4.43v-1.97h-4.39v1.97h4.39Zm0,3.23v-2.09h-4.39v2.09h4.39Z"/><path class="b" d="M57.83,70.01c.49-.52,1.7-1.79,1.7-4.11s-1.21-3.59-1.7-4.11l.74-.67c1.65,1.66,1.97,3.53,1.97,4.78s-.32,3.12-1.97,4.78l-.74-.67Z"/></g><g><path class="b" d="M94.76,32.73h-1.5v-5.32h-1.68v-1.1c.84-.04,1.64-.14,1.99-1.46h1.19v7.88Z"/><path class="b" d="M100.35,32.73h-1.5v-5.32h-1.68v-1.1c.84-.04,1.64-.14,1.99-1.46h1.19v7.88Z"/><path class="b" d="M105.35,26.99v1.58h-1.52v-1.58h1.52Zm0,4.18v1.57h-1.52v-1.57h1.52Z"/><path class="b" d="M113.28,28.8c0,1.41-.37,4.16-3.32,4.16s-3.32-2.74-3.32-4.16,.34-4.16,3.32-4.16,3.32,2.75,3.32,4.16Zm-5.1,0c0,.43,0,2.9,1.78,2.9s1.77-2.47,1.77-2.9,0-2.9-1.77-2.9-1.78,2.43-1.78,2.9Z"/><path class="b" d="M120.87,28.8c0,1.41-.37,4.16-3.32,4.16s-3.32-2.74-3.32-4.16,.34-4.16,3.32-4.16,3.32,2.75,3.32,4.16Zm-5.1,0c0,.43,0,2.9,1.78,2.9s1.77-2.47,1.77-2.9,0-2.9-1.77-2.9-1.78,2.43-1.78,2.9Z"/><path class="b" d="M130.2,28.88c-.22,.34-.95,1.46-2.3,1.46-.5,0-1.07-.13-1.78-.8-.63-.6-.87-.83-1.42-.83-.82,0-1.36,.82-1.63,1.25l-.59-.96c.25-.4,.93-1.46,2.21-1.46,.29,0,.88,0,1.86,.92,.57,.53,.86,.71,1.28,.71,.91,0,1.43-.82,1.7-1.26l.67,.97Z"/><path class="b" d="M136.26,32.73h-1.5v-5.32h-1.68v-1.1c.84-.04,1.64-.14,1.99-1.46h1.19v7.88Z"/><path class="b" d="M144.9,24.86v1.16c-1.09,.76-1.92,2.41-2.15,2.92-.67,1.48-.76,2.78-.81,3.8h-1.56c.11-3.91,2.61-6.41,2.94-6.72h-4.86v-1.16h6.44Z"/><path class="b" d="M147.86,26.99v1.58h-1.52v-1.58h1.52Zm0,4.18v1.57h-1.52v-1.57h1.52Z"/><path class="b" d="M155.79,28.8c0,1.41-.37,4.16-3.32,4.16s-3.32-2.74-3.32-4.16,.34-4.16,3.32-4.16,3.32,2.75,3.32,4.16Zm-5.1,0c0,.43,0,2.9,1.78,2.9s1.77-2.47,1.77-2.9,0-2.9-1.77-2.9-1.78,2.43-1.78,2.9Z"/><path class="b" d="M163.38,28.8c0,1.41-.37,4.16-3.32,4.16s-3.32-2.74-3.32-4.16,.34-4.16,3.32-4.16,3.32,2.75,3.32,4.16Zm-5.1,0c0,.43,0,2.9,1.78,2.9s1.77-2.47,1.77-2.9,0-2.9-1.77-2.9-1.78,2.43-1.78,2.9Z"/></g><g><path class="b" d="M94.76,69.7h-1.5v-5.32h-1.68v-1.1c.84-.04,1.64-.14,1.99-1.46h1.19v7.88Z"/><path class="b" d="M100.35,69.7h-1.5v-5.32h-1.68v-1.1c.84-.04,1.64-.14,1.99-1.46h1.19v7.88Z"/><path class="b" d="M105.35,63.95v1.58h-1.52v-1.58h1.52Zm0,4.18v1.57h-1.52v-1.57h1.52Z"/><path class="b" d="M113.28,65.76c0,1.41-.37,4.16-3.32,4.16s-3.32-2.74-3.32-4.16,.34-4.16,3.32-4.16,3.32,2.75,3.32,4.16Zm-5.1,0c0,.43,0,2.9,1.78,2.9s1.77-2.47,1.77-2.9,0-2.9-1.77-2.9-1.78,2.43-1.78,2.9Z"/><path class="b" d="M120.87,65.76c0,1.41-.37,4.16-3.32,4.16s-3.32-2.74-3.32-4.16,.34-4.16,3.32-4.16,3.32,2.75,3.32,4.16Zm-5.1,0c0,.43,0,2.9,1.78,2.9s1.77-2.47,1.77-2.9,0-2.9-1.77-2.9-1.78,2.43-1.78,2.9Z"/><path class="b" d="M130.2,65.84c-.22,.34-.95,1.46-2.3,1.46-.5,0-1.07-.13-1.78-.8-.63-.6-.87-.83-1.42-.83-.82,0-1.36,.82-1.63,1.25l-.59-.96c.25-.4,.93-1.46,2.21-1.46,.29,0,.88,0,1.86,.92,.57,.53,.86,.71,1.28,.71,.91,0,1.43-.82,1.7-1.26l.67,.97Z"/><path class="b" d="M136.26,69.7h-1.5v-5.32h-1.68v-1.1c.84-.04,1.64-.14,1.99-1.46h1.19v7.88Z"/><path class="b" d="M144.9,61.83v1.16c-1.09,.76-1.92,2.41-2.15,2.92-.67,1.48-.76,2.78-.81,3.8h-1.56c.11-3.91,2.61-6.41,2.94-6.72h-4.86v-1.16h6.44Z"/><path class="b" d="M147.86,63.95v1.58h-1.52v-1.58h1.52Zm0,4.18v1.57h-1.52v-1.57h1.52Z"/><path class="b" d="M155.79,65.76c0,1.41-.37,4.16-3.32,4.16s-3.32-2.74-3.32-4.16,.34-4.16,3.32-4.16,3.32,2.75,3.32,4.16Zm-5.1,0c0,.43,0,2.9,1.78,2.9s1.77-2.47,1.77-2.9,0-2.9-1.77-2.9-1.78,2.43-1.78,2.9Z"/><path class="b" d="M163.38,65.76c0,1.41-.37,4.16-3.32,4.16s-3.32-2.74-3.32-4.16,.34-4.16,3.32-4.16,3.32,2.75,3.32,4.16Zm-5.1,0c0,.43,0,2.9,1.78,2.9s1.77-2.47,1.77-2.9,0-2.9-1.77-2.9-1.78,2.43-1.78,2.9Z"/></g><g><path class="b" d="M94.76,51.22h-1.5v-5.32h-1.68v-1.1c.84-.04,1.64-.14,1.99-1.46h1.19v7.88Z"/><path class="b" d="M101.28,48.29h1.29v1.16h-1.29v1.77h-1.5v-1.77h-3.93v-1.16l3.93-4.95h1.5v4.95Zm-1.5,0v-3.28l-2.61,3.28h2.61Z"/><path class="b" d="M105.35,45.47v1.58h-1.52v-1.58h1.52Zm0,4.18v1.57h-1.52v-1.57h1.52Z"/><path class="b" d="M113.28,47.28c0,1.41-.37,4.16-3.32,4.16s-3.32-2.74-3.32-4.16,.34-4.16,3.32-4.16,3.32,2.75,3.32,4.16Zm-5.1,0c0,.43,0,2.9,1.78,2.9s1.77-2.47,1.77-2.9,0-2.9-1.77-2.9-1.78,2.43-1.78,2.9Z"/><path class="b" d="M120.87,47.28c0,1.41-.37,4.16-3.32,4.16s-3.32-2.74-3.32-4.16,.34-4.16,3.32-4.16,3.32,2.75,3.32,4.16Zm-5.1,0c0,.43,0,2.9,1.78,2.9s1.77-2.47,1.77-2.9,0-2.9-1.77-2.9-1.78,2.43-1.78,2.9Z"/><path class="b" d="M130.2,47.36c-.22,.34-.95,1.46-2.3,1.46-.5,0-1.07-.13-1.78-.8-.63-.6-.87-.83-1.42-.83-.82,0-1.36,.82-1.63,1.25l-.59-.96c.25-.4,.93-1.46,2.21-1.46,.29,0,.88,0,1.86,.92,.57,.53,.86,.71,1.28,.71,.91,0,1.43-.82,1.7-1.26l.67,.97Z"/><path class="b" d="M136.26,51.22h-1.5v-5.32h-1.68v-1.1c.84-.04,1.64-.14,1.99-1.46h1.19v7.88Z"/><path class="b" d="M144.9,43.34v1.16c-1.09,.76-1.92,2.41-2.15,2.92-.67,1.48-.76,2.78-.81,3.8h-1.56c.11-3.91,2.61-6.41,2.94-6.72h-4.86v-1.16h6.44Z"/><path class="b" d="M147.86,45.47v1.58h-1.52v-1.58h1.52Zm0,4.18v1.57h-1.52v-1.57h1.52Z"/><path class="b" d="M155.79,47.28c0,1.41-.37,4.16-3.32,4.16s-3.32-2.74-3.32-4.16,.34-4.16,3.32-4.16,3.32,2.75,3.32,4.16Zm-5.1,0c0,.43,0,2.9,1.78,2.9s1.77-2.47,1.77-2.9,0-2.9-1.77-2.9-1.78,2.43-1.78,2.9Z"/><path class="b" d="M163.38,47.28c0,1.41-.37,4.16-3.32,4.16s-3.32-2.74-3.32-4.16,.34-4.16,3.32-4.16,3.32,2.75,3.32,4.16Zm-5.1,0c0,.43,0,2.9,1.78,2.9s1.77-2.47,1.77-2.9,0-2.9-1.77-2.9-1.78,2.43-1.78,2.9Z"/></g><line class="f" x1="169.53" y1=".5" x2="169.53" y2="19.12"/><line class="f" x1="85.73" y1=".5" x2="85.73" y2="19.12"/></svg>