<svg viewBox="0 0 165.82 107.56" xmlns="http://www.w3.org/2000/svg"><circle cx="82.05" cy="17.21" fill="#fff" r="17.21"/><path d="m67.46 20.02v-.7h1.73v.7zm4.19 3.64c-.3-.29-.55-.62-.74-1.01v1.28h-.67v-1.24c-.2.38-.47.74-.79 1.03l-.32-.53v.51h-.92v.23h-.65v-2.01h1.56v1.06c.39-.23.73-.56 1.01-.97h-.8v-2.48h.91v-.29h-1.03v-.68h1.03v-.31h.67v.31h1.04v.68h-1.04v.29h.92v2.48h-.82c.3.42.64.72 1.02.95zm-4.02-4.56v-.68h1.44v.67h-1.44zm0 1.77v-.61h1.44v.61zm0 .83v-.61h1.44v.61zm.94.86h-.38v.5h.38zm1.77-2.42h-.47v1.3h.47zm-.28 1.18c-.04-.31-.1-.65-.17-.92l.25-.1c.08.28.14.61.19.89zm1.24-1.18h-.48v1.3h.48zm-.47 1.06c.08-.25.14-.6.17-.9l.26.08c-.04.33-.1.69-.17.95z" fill="#231815"/><path d="m74.89 22.7v1.22h-.78v-1.22h-1.85v-.73h1.85v-.49h-1.42v-2.95h3.63v2.95h-1.44v.49h1.87v.73h-1.87zm.71-3.47h-2.18v.46h2.18zm0 1.07h-2.18v.49h2.18z" fill="#231815"/><path d="m77.09 19.61v-.77h1.83v-.58h.76v.58h1.86v.77h-4.46zm1.84 4.32v-2.89h-.86v2.33h-.72v-3.11h1.58v-.52h.74v.52h1.64v1.91c0 1.06-.21 1.15-1.16 1.15l-.29-.86h.31c.37 0 .44-.02.44-.24v-1.19h-.92v2.89h-.74z" fill="#231815"/><path d="m86.09 23.93c-.46-.13-.87-.34-1.22-.6-.4.28-.86.48-1.37.6l-.31-.76c.44-.06.82-.18 1.13-.35-.31-.37-.55-.8-.69-1.25h-.34v-.76h.38l-.3-.46c-.1.21-.21.41-.34.61v2.96h-.68v-2.14c-.1.14-.21.26-.31.36l-.23-.89c.5-.43.82-.95 1.09-1.6l.52.31c.29-.22.37-.49.37-1.31v-.21h1.83v1.31c0 .08.03.08.07.08h.04c.1 0 .1-.05.1-.83l.55.28c0 1.27-.16 1.3-.68 1.3h-.34c-.34 0-.43-.14-.43-.38v-.98h-.44v.15c0 .48-.22 1.12-.76 1.45h2.37v.7c-.14.52-.38.96-.69 1.31.28.16.62.28 1 .34zm-4.22-4.45c.44-.31.71-.73.92-1.22l.62.33c-.28.65-.64 1.18-1.17 1.62l-.37-.74zm2.51 2.09c.11.32.28.6.5.83.22-.23.38-.52.49-.83h-.98z" fill="#231815"/><path d="m86.61 23.37c.23-.61.32-1.64.32-3v-.77h1.82v2.15h-1.15c-.03.7-.12 1.48-.35 2.16l-.64-.55zm.16-4.14v-.73h2.08v.73zm1.33 1.07h-.48v.76h.48zm1.97 3.64v-3.07h-.39c-.04 1.18-.16 2.18-.5 3.05l-.65-.54c.38-.8.47-1.76.47-3.33v-1.43c.71-.01 1.45-.1 1.84-.29l.32.74c-.44.14-1.04.23-1.46.26v.79s1.48 0 1.48 0v.75h-.41v3.07h-.69z" fill="#231815"/><path d="m91.49 19.67v-.73h1.07c-.09-.17-.22-.37-.32-.5l.76-.21c.12.19.26.45.38.71h.68c.16-.24.28-.5.35-.71l.79.21c-.06.13-.17.33-.28.5h1.01v.73zm1.06 3.43h.16c.37 0 .39-.04.39-.22v-.23h-.66v1.27h-.69v-3.98h2.02v3.14c0 .64-.11.8-.94.8zm.55-2.49h-.66v.4h.66zm0 .99h-.66v.46h.66zm.95 1.27v-2.78h.63v2.78zm.25.27c.64 0 .7 0 .7-.25v-2.97h.73v3.24c0 .64-.19.77-1.14.77z" fill="#231815"/><path d="m71.94 15.21c.96-1.62 1.43-3.83 1.58-5.9l1.15.14c-.21 2.15-.67 4.48-1.52 6.22zm5.04.28c-.28-2.09-.85-4.35-1.55-6l1.08-.31c.7 1.68 1.44 4.19 1.67 5.86zm-.15-5.67c-.08-.37-.4-1.19-.56-1.5l.58-.12c.14.27.48 1.06.58 1.48zm1.01-.12c-.1-.36-.38-1.09-.58-1.46l.57-.09c.18.31.49 1.02.59 1.39z" fill="#c30d23"/><path d="m83.86 15.75c-.59-1.04-1.13-1.71-1.66-2.3-.85 1.18-1.94 1.94-2.86 2.34l-.72-1.01c2.48-.88 3.49-2.92 3.77-4.45l-3.02.03v-1.12h4.4c-.18 1.33-.5 2.35-.97 3.25.6.56 1.32 1.36 1.92 2.24l-.87 1.01z" fill="#c30d23"/><path d="m85.8 16.16v-4.12c-.16.26-.3.48-.42.64l-.26-1.47c.52-.74.9-1.8 1.12-2.84l.98.23c-.12.57-.28 1.15-.48 1.67v5.88h-.95zm5-2.24v.43h-.95v.35c0 1.3-.14 1.45-1.66 1.46l-.38-1.04h.53c.49 0 .5-.06.5-.46v-.31h-1.24v-.43h-.59v-1.72h4.38v1.72zm-3.6-4.22v-.91h1.47v-.42h1.07v.42h1.62v.9h-4.16zm.21 2.18v-1.86h3.61v1.86zm3.03 1.22h-2.5v.42h2.5zm-.37-2.37h-1.72v.45h1.72z" fill="#c30d23"/><g fill="#fff"><path d="m51.93 80.96v9.39 9.39l10.17-9.39z"/><path d="m54.02 49.83s-.1.07-.22.08c0 .11-.18 1.56-.52 2.44 0 .02-.02.03-.04.03-.28-.1-.98-.12-.98-.12.55-1.04.71-2.41.72-2.75.07 0 .71.08.94.13.05 0 .08.04.1.07v-.72c-.35.06-.73.1-1.09.15 0 .13-.07.26-.14.26-.18 0-.36-1.14-.36-1.17.25 0 .53 0 .8-.03.16-.2.33-.4.49-.6-.26-.33-.73-.88-1.25-1.28l.51-.74c.09.08.19.16.28.24.47-.67.82-1.55.87-1.67.02 0 .72.3 1.03.52.05.04.08.08.08.11 0 .05-.06.08-.16.08-.03 0-.07 0-.11 0-.08.14-.64 1.08-1.05 1.6.13.14.25.28.35.4.52-.74.93-1.43 1.04-1.7.02 0 .73.43.94.59.06.05.09.1.09.14 0 .06-.04.09-.13.09-.05 0-.09 0-.16-.03-.06.08-.48.67-1 1.34l.61-.24c.07.1.16.24.25.41.93-1.05 1.3-2.65 1.37-3.25 0 0 .95.12 1.18.17.07.02.14.07.14.11s-.08.1-.28.13c-.07.24-.16.59-.29 1h2.79v.31 1.9c0 3.12-.27 4.86-2.5 4.86-.12 0-.25 0-.4-.02-.04 0-.08 0-.09-.05-.11-.44-.69-1.22-.69-1.22.4.06.8.15 1.17.15 1.19 0 1.37-.98 1.37-3.65v-1.33h-2.01c-.18.43-.4.87-.68 1.25 0 0-.02.02-.03.02h-.02c-.24-.1-.69-.19-.95-.24.21.38.43.86.53 1.29l-.77.36c-.04-.16-.08-.34-.14-.54-.15.04-.35.07-.59.11l.03 3.96h-1.04l.02-2.98zm1.31-1.85c-.1-.22-.23-.42-.35-.59-.19.24-.38.48-.56.72.37-.04.69-.08.91-.12zm.3 4.1c-.08-.92-.37-2.06-.53-2.45l.75-.21c.16.37.56 1.47.7 2.29zm2.01-4.47c.43.47 1.06 1.2 1.45 1.98l-.99.67c-.4-.96-.96-1.69-1.41-2.12z"/><path d="m64.76 46.89h-1.61v-.93c1.42-.1 1.86-.72 2.03-1.16h1.03v7.56h-1.45z"/><path d="m70.61 50.18c.06.85.58 1.13 1.2 1.13.93 0 1.38-.66 1.38-1.51s-.45-1.47-1.3-1.47c-.47 0-1.02.19-1.27.78h-1.38l.55-4.25h4.36v1.2h-3.22l-.26 1.66c.41-.36 1.01-.46 1.33-.46h.07c1.64 0 2.58 1.12 2.58 2.52 0 1.65-1.16 2.72-2.81 2.72-1.53 0-2.66-.74-2.74-2.33h1.53z"/><path d="m78.01 47.97c-.57.73-1.1 1.13-1.12 1.13s-.05 0-.08-.05c-.21-.23-1.06-.61-1.06-.61 1.58-.94 2.71-3.12 2.89-3.96 0 0 .95.3 1.22.44.09.06.13.1.13.14 0 .08-.13.12-.28.12h-.05c-.22.46-.66 1.38-1.3 2.3h3.86c-.65-.83-1.25-1.8-1.68-2.65l1.03-.4c.74 1.52 1.85 2.89 3.25 3.69 0 0-.84.46-1.11.78-.02.03-.04.05-.06.05-.05 0-.44-.33-.77-.69-.03 3.15-.35 4.43-2.2 4.43-.63 0-.64-.04-.66-.13-.08-.4-.67-1.16-.67-1.16.4.06.86.18 1.25.18s.75-.12.89-.54c.2-.58.24-1.73.24-2.55h-1.35c-.2 1.3-.78 3.46-3.35 4.3-.04 0-.06.02-.08.02s-.04 0-.06-.04c-.21-.29-1.08-.83-1.08-.83 2.65-.5 3.22-2.17 3.4-3.46h-1.21v-.53z"/><path d="m86.75 51.41c-.09.12-.16.19-.24.24-.03 0-.07.03-.09.03-.07 0-.99-.65-.99-.81 0-.03.04-.05.1-.08.07-.03.38-.24.4-.26.45-.39 1.5-1.21 2.22-1.64v-1.24c-.32.08-.66.11-.9.11-.31 0-.59-.06-.92-.19 0-.05-.13-1.12-.13-1.12v-.04s0-.07.04-.07c.02 0 .04 0 .07.02.34.14.78.25 1.18.25.22 0 .38-.03.68-.09 0-.67-.02-1.31-.08-1.88 1.42 0 1.5.1 1.5.16s-.08.12-.23.15c-.02.27-.03.71-.05 1.23.42-.14.9-.33 1.45-.56l.06 1.23c-.51.19-1.04.37-1.53.51 0 .34 0 .68-.02 1.03.77-.27 1.37-.37 1.87-.37 1.23 0 2.4.55 2.4 1.76 0 1.06-1.05 2.24-2.59 2.24-.46 0-1.2-.22-1.2-.4 0-.05 0-.09 0-.15 0-.47-.14-1.23-.13-1.22.43.31.86.59 1.37.59.79 0 1.29-.6 1.29-1.05 0-.4-.39-.72-1.22-.72s-1.46.28-1.81.45v1.25s0 .72 0 1v.06c0 .08-.02.09-.1.12-.1.05-.87.24-.99.24s-.1-.11-.2-.22c-.2-.22-.67-.42-1.2-.55zm1.37-.45c0-.31.02-.64.02-.98-.33.22-.69.49-.92.75.34.08.66.15.9.23zm3.4-4.89h.15c1.08 0 1.99.28 2.43.75l-.41 1.11s-.03.06-.05.06-.04 0-.06-.04c-.48-.62-1.3-.89-2.48-.91l.41-.97z"/><path d="m95.75 47.32v-.05s0-.05.03-.05c.02 0 .05 0 .09.03.55.19 1.05.28 1.62.28.51 0 1.07-.08 1.76-.22-.11-.2-.23-.4-.35-.6-.51.09-.9.14-1.27.14-.4 0-.77-.06-1.21-.2l-.12-1.06s0-.08.04-.08c0 0 .03 0 .06.02.54.22.9.31 1.32.31.2 0 .41-.03.66-.07-.24-.43-.45-.86-.63-1.25.37-.08 1.11-.21 1.3-.21.1 0 .15.03.15.08 0 .06-.06.13-.17.21.11.32.25.64.4.96.63-.16 1.02-.31 1.49-.52l.47.93s0 .03 0 .04c0 .03-.57.25-1.49.47.11.2.23.4.34.58.7-.2 1.17-.4 1.64-.62l.55.97s.02.02.02.03c0 .06-1 .39-1.64.56.52.86.97 1.62 1.09 2.17 0 0-.93.21-1.04.22-.03 0-.05 0-.07 0s-.03 0-.06-.02c-.38-.2-1.1-.35-1.81-.35-1.43 0-1.6.4-1.6.6 0 .58 1.06.72 1.96.72.56 0 1.33-.13 2.01-.4 0 0-.2.88-.23 1.3 0 .07-.02.08-.08.08-.54.13-1.25.2-1.78.2-1.99 0-3.12-.86-3.12-1.85 0-.62.42-1.65 3.05-1.65.4 0 .81.02 1.07.05-.06-.18-.22-.47-.41-.84-.97.22-1.84.34-2.59.34-.51 0-.97-.06-1.37-.18l-.09-1.1z"/><path d="m105.46 52.47c-.42-.8-.54-1.7-.54-2.49v-.09c.04-2.15.58-3.93.62-4.98 0-.05 0-.08.04-.08s1.26.36 1.27.36c.1.04.16.08.16.13 0 .06-.08.11-.27.12-.2.98-.77 2.73-.79 3.88 0 .21 0 .34.03.34.04 0 .1-.17.72-1.73 0 0 .24.76.41 1.06-.59 1.62-.71 2.01-.71 2.65 0 .15 0 .32.04.52v.02s-.02.07-.06.08zm3.54-2.77c-.11.13-.26.29-.3.38-.03.06-.05.1-.05.16 0 .31.57.54 1.56.54h.06c.57 0 1.27-.14 1.94-.39 0 0-.14.9-.15 1.26 0 .02-.02.04-.04.05-.07.02-1.04.26-1.84.26-1.65 0-2.7-.7-2.7-1.52 0-.46.35-.83.55-1.02l.97.27zm-1.04-3.79c.48.13 1.01.18 1.56.18.72 0 1.48-.08 2.27-.22v1.14s-.02.05-.05.05c-.61.1-1.32.17-2.01.17s-1.31-.06-1.83-.21l.05-1.11z"/><path d="m52.02 61.49c-.23.08-.96.34-1.04.34 0 0-.03 0-.04-.02-.18-.24-1.03-.86-1.03-.86 1.61-.28 2.83-.83 3.78-1.48-.39-.37-.68-.72-.89-1.03-.84.91-1.43 1.22-1.45 1.22 0 0-.03 0-.04-.02-.22-.18-1.1-.52-1.1-.52 1.41-.71 2.64-2.14 3.22-3.27 0 0 .87.18 1.08.28.09.05.14.09.14.14 0 .06-.08.09-.24.09h-.08c-.06.09-.12.21-.2.32h2.14c.06 0 .1-.07.17-.07.06 0 .79.47.79.6 0 .07-.09.11-.21.15-.47.76-1.03 1.45-1.68 2.05.85.53 2.02.98 3.62 1.16 0 0-.82.69-1.06 1-.02.02-.04.03-.06.03-.04 0-.55-.13-.93-.27l.02 3.12h-1.05v-.38h-2.85v.43h-1.04l.02-3.04zm4.48-.28c-.79-.31-1.44-.68-1.99-1.06-.55.41-1.14.76-1.81 1.06h3.79zm-.61 1.95v-1.04h-2.85v1.04zm-2.38-5.54c.16.29.48.75 1.01 1.21.43-.4.79-.82 1.08-1.23h-2.08s0 .02 0 .02z"/><path d="m60.61 61.1v-.84c-.18.34-.39.66-.43.66-.02 0-.04 0-.05-.03-.24-.36-.87-.81-.87-.81 1.03-1.02 1.76-2.99 1.97-4.13.14.02 1.37.33 1.37.49 0 .07-.1.12-.25.12-.02 0-.05 0-.08 0-.12.38-.35 1-.65 1.69h.06c.18.04.25.08.25.12 0 .07-.12.14-.26.18v.56 5.49h-1.1zm1.4-1.04h6.04v1.65h-.77v.48h-1.68v.33.76.03c0 1.04-.84 1.26-1.72 1.26-.08 0-.16 0-.24 0s-.08-.04-.09-.07c-.1-.38-.64-1.04-.64-1.04.39.05.72.08.99.08.4 0 .65-.08.65-.38v-.98h-1.79v-.43h-.75zm.28-3.36h2.15c0-.15 0-.49-.03-.76 0 0 .92.02 1.22.06.14.02.22.07.22.13s-.1.14-.3.18c0 .11 0 .28-.02.4h2.58v.88h-5.82v-.88zm.4 1.23h4.61v1.85h-1v-.15h-2.62v.17h-1v-1.87zm4.32 3.44v-.48h-4.04v.48zm-.71-2.36v-.42h-2.62v.42z"/><path d="m69.48 56.66s.44.04.61.07c.91-.19 2.11-.61 2.36-.81 0 0 .58.67.73.88v-.35h4.01c0 .65-.05 1.92-.23 2.65-.19.81-.79 1.04-1.47 1.04-.38 0-.4-.02-.42-.08-.07-.25-.28-.58-.42-.79-.56.88-1.37 1.16-1.38 1.16-.02 0-.03 0-.05-.02-.27-.28-1-.57-1-.57 1.77-.6 1.96-1.68 1.96-2.37v-.09h-1v-.39s-.04 0-.06 0c-.08 0-.18-.04-.28-.12-.54.23-1.67.55-2.27.69l.12 1.38c.48-.16.92-.32 1.22-.44-.24-.4-.44-.67-.44-.67l.85-.35s.61.76 1.01 1.61l-.93.45c-.04-.1-.08-.2-.11-.3-.56.26-1.88.76-2.65 1v.03c0 .15-.04.24-.1.24-.05 0-.1-.05-.16-.14-.13-.22-.49-.92-.49-.92.24-.05.52-.11.8-.2l-.21-2.58zm.67 3.82h6.28v4.04h-.99v-.4h-4.31v.45h-.98v-4.1zm2.59 1.38v-.6h-1.61v.6zm0 1.43v-.66h-1.61v.66zm2.69-1.43v-.6h-1.71v.6zm0 1.43v-.66h-1.72v.66zm-.24-5.77c-.03.49-.15 1.06-.45 1.59.21.05.41.08.59.08.6 0 .76-.44.79-1.84h-.92v.16z"/><path d="m81.37 61.02h-1.3c-.05 2.57-.81 3.41-.84 3.41-.02 0-.03 0-.05-.02-.24-.16-1.11-.26-1.11-.26.88-.98.98-2.56.98-3.62 0-.28 0-.53 0-.72 0-.38-.02-1.75-.02-1.75h3.32v3.38h-.98v-.41zm-2.77-4.61h3.98v1.02h-3.98zm2.77 3.68v-1.12h-1.31s0 .38 0 .87v.25h1.3zm3.49-.2h-.89c-.02 1.6-.24 3.32-1.7 4.54-.02.02-.04.03-.06.03 0 0-.02 0-.04-.02-.23-.2-1.21-.46-1.21-.46 1.78-1.04 1.97-2.64 1.97-4.18 0-.18 0-.37 0-.55-.02-1.11-.08-2.5-.08-2.5l1.04.17c.98-.25 1.87-.65 2.14-.86 0 0 .61.64.79.85.06.07.08.13.08.18 0 .07-.04.1-.11.1s-.15-.03-.26-.09c0 0-1.21.48-2.55.76v1.01h3.08v1.02h-1.09v4.68h-1.08v-4.68z"/><path d="m88.44 61.19c-.06-.02-.09-.04-.09-.07 0-.02.02-.05.05-.08.8-.89 1.24-1.4 1.95-2.64-.05 0-.09 0-.14 0-.1 0-.2 0-.28 0-.4 0-.73-.05-1.05-.2l-.11-1.03v-.04s0-.06.04-.06c0 0 .04 0 .08.03.41.21.9.26 1.31.26.18 0 .39-.02.63-.04.14-.35.27-.78.39-1.24.19.02 1.38.19 1.38.36 0 .06-.11.11-.3.12-.05.13-.15.36-.25.58.54-.1 1.14-.24 1.81-.41l-.04 1.09c-.88.18-1.62.32-2.24.4-.15.25-.38.58-.56.83 0 0-.02.02-.02.03 0 .02.02.03.04.03s.04 0 .05-.02c.32-.2.61-.27.88-.26.54 0 .96.33 1.17.89.86-.38 1.69-.67 2.2-.88l.81.92s.05.06.05.08c0 .06-.1.07-.22.08-.93.16-1.88.46-2.72.84 0 .41-.05 1.12-.06 1.58l-1.12.11c0-.36.04-.78.06-1.14-.79.48-1.01.81-1.01 1.13 0 .4.4.72 1.37.72.62 0 1.47-.18 2.45-.44 0 0-.22.85-.23 1.21 0 .06-.02.07-.06.08-.52.12-1.31.24-2.04.24-2.05 0-2.62-.99-2.62-1.76s.61-1.53 2.13-2.32c-.07-.38-.24-.5-.49-.5-.63 0-1.47.86-2.1 1.83l-1.07-.36z"/><path d="m97.73 60.89h2.14c0-.17 0-.35 0-.51 0-.17 0-.32 0-.45h-.45v-.2c-.81.68-1.44.92-1.48.92 0 0-.03 0-.05-.04-.21-.27-.99-.72-.99-.72 1.91-.6 3.25-2.15 3.64-2.8h-1.85v-.87s2.51 0 2.51 0c.04 0 .09-.08.14-.08.04 0 .72.38.72.5 0 .04-.03.08-.12.12.13.17.27.34.43.52.35-.33.73-.76.89-1.07 0 0 .71.38.96.59.06.05.08.09.08.12 0 .04-.03.06-.09.06-.05 0-.11 0-.2-.04 0 0-.5.57-.99 1.01.16.14.33.28.51.42.35-.33.73-.77.89-1.07 0 0 .71.37.95.57.06.05.08.09.08.13s-.04.07-.1.07c-.05 0-.1-.02-.18-.04 0 0-.42.48-.87.89.52.31 1.09.59 1.74.81 0 0-.77.48-1 .75-.02.02-.04.03-.05.03-.04 0-.58-.23-1.47-.86v.24h-.58v.96s2.21 0 2.21 0v.99h-2.23v1.06c0 .36.14.44.65.44.89 0 .92-.39.94-1.3 0 0 .65.57 1.03.74.04.02.05.03.05.06v.05c-.12.98-.44 1.46-2.02 1.46-.74 0-1.72-.03-1.72-1.2 0-.21 0-.73 0-1.32h-.98c-.36 2.39-2.84 2.73-2.87 2.73-.02 0-.04 0-.06-.04-.21-.31-.98-.87-.98-.87 2.18-.25 2.67-1.17 2.81-1.83h-2.05v-.99zm.54-3.87s.58.33 1.18.91l-.74.72c-.51-.61-1.14-1.02-1.14-1.02l.71-.61zm4.46 1.99c-.53-.48-.96-.97-1.31-1.39-.3.42-.72.91-1.2 1.39h2.5zm-.86 1.88v-.96s-.92 0-.92 0v.45.51z"/><path d="m106.73 62.32h3.6v-.66h-1.43v.27h-1.02v-3.72h2.45v-.48h-3.31v-.94h3.31v-.16s0-.41-.03-.68c0 0 .96.02 1.24.07.11.02.18.06.18.1 0 .07-.09.13-.3.16 0 .13-.02.39-.02.39v.12h3.49v.94h-3.49v.48h2.57v3.66h-1.04v-.22h-1.53v.66h3.65v.95h-3.65v1.3h-1.07v-1.3h-3.6v-.95zm3.6-2.77v-.54h-1.43v.54zm0 1.32v-.56h-1.43v.56zm2.61-1.32v-.54h-1.53v.54zm0 1.32v-.56h-1.53v.56z"/><circle cx="82.05" cy="90.35" r="17.21"/></g><path d="m70.19 90.5v-.7h1.73v.7zm4.19 3.64c-.3-.29-.55-.62-.74-1.01v1.28h-.67v-1.24c-.2.38-.47.74-.79 1.03l-.32-.53v.51h-.92v.23h-.65v-2.01h1.56v1.06c.39-.23.73-.56 1.01-.97h-.8v-2.48h.91v-.29h-1.03v-.68h1.03v-.31h.67v.31h1.04v.68h-1.04v.29h.92v2.48h-.82c.3.42.64.72 1.02.95zm-4.02-4.56v-.68h1.44v.67h-1.44zm0 1.77v-.61h1.44v.61zm0 .83v-.61h1.44v.61zm.94.86h-.38v.5h.38zm1.77-2.42h-.47v1.3h.47zm-.28 1.18c-.04-.31-.1-.65-.17-.92l.25-.1c.08.28.14.61.19.89zm1.24-1.18h-.48v1.3h.48zm-.47 1.06c.08-.25.14-.6.17-.9l.26.08c-.04.33-.1.69-.17.95z" fill="#231815"/><path d="m77.63 93.19v1.22h-.78v-1.22h-1.85v-.73h1.85v-.49h-1.42v-2.95h3.63v2.95h-1.44v.49h1.87v.73h-1.87zm.71-3.47h-2.18v.46h2.18zm0 1.07h-2.18v.49h2.18z" fill="#231815"/><path d="m79.76 94.12c.04-.41.07-1.13.07-1.57l.39.05v.41c0 .41-.01.91-.04 1.22l-.43-.11zm4.13.28c-.47-.73-.72-1.64-.83-2.87h-.26c-.01 1.11-.13 2.03-.47 2.87l-.51-.57c-.1.48-.32.58-.82.58l-.19-.71c.46 0 .51-.02.53-.45v-.02l-.21.11c-.05-.28-.12-.59-.18-.77l.23-.09c.06.16.13.41.17.61v-.66h-1.43v-3.53h2.01v.66h-.49v.38h.37v.55h-.37v.41h.37v.54h-.37v.41h.45v.64c0 .42 0 .75-.03 1.01.26-.72.28-1.56.28-3.05v-1.52h2.06v2.63h-.48c.07.93.28 1.64.65 2.17l-.47.7zm-3.57-.53c0-.08 0-.18 0-.28 0-.31-.01-.67-.04-.94l.29-.07c.05.34.08.85.1 1.22l-.36.07zm.57-4.32h-.33v.38h.33zm0 .92h-.33v.41h.33zm0 .95h-.33v.41h.33zm-.13 2.16c-.02-.29-.07-.66-.13-.98l.26-.08c.05.25.14.65.19.95l-.31.11zm2.76-3.96h-.7v1.18h.7z" fill="#231815"/><path d="m88.23 94.42v-.26h-2.76v.26h-.71v-4.01h1.18v-.74h-1.34v-.77h4.52v.77h-1.33v.74h1.17v4.01h-.71zm0-1.62h-.67c-.32 0-.5-.09-.5-.43v-1.22h-.41c-.04.85-.21 1.46-.76 1.98l-.43-.52v.8h2.76v-.62zm-2.76-1.64v1.28c.34-.32.46-.67.49-1.28zm1.61-1.48h-.43v.74h.43zm1.16 1.48h-.49v.84c0 .08.01.09.1.09h.39z" fill="#231815"/><path d="m92.81 94.23v-.48h-2.33v.48h-.82v-4.97h3.97v4.97zm0-4.17h-2.33v2.88h2.33z" fill="#231815"/><path d="m73.49 101.09v-.28h-2.1v.3h-.83v-4.69h3.75v4.68h-.82zm0-3.92h-2.1v2.86h2.1z" fill="#231815"/><path d="m75.15 98.99v-.8h4.19v.8z" fill="#231815"/><path d="m80.07 100.68c1.01-.19 1.72-.66 2.21-1.22-.34-.3-.7-.55-1.07-.79l.49-.56c.28.17.65.41 1.02.72.29-.52.44-1.05.5-1.51h-1.41c-.33.64-.83 1.31-1.4 1.76l-.62-.58c.94-.64 1.54-1.8 1.76-2.67l.81.17c-.07.2-.14.42-.23.63.57 0 1.69-.01 1.95-.01-.16 1.69-.71 3.99-3.42 4.74l-.59-.67z" fill="#231815"/><path d="m85.29 99.18v-3.18h.82v3.18zm.14 1.4c1.82-.21 2.14-1.3 2.15-2.24v-2.35h.82s.01 1.13.01 1.86c0 1.43-.09 2.99-2.48 3.52l-.51-.79z" fill="#231815"/><path d="m89.55 98.99v-.8h4.19v.8z" fill="#231815"/><path d="m55.45 90.35h-40.94v-73.14h46.42" fill="none" stroke="#fff" stroke-miterlimit="10" stroke-width="3"/><path d="m112.3 26.6v-9.39-9.39l-10.17 9.39z" fill="#fff"/><path d="m110.34 17.21h40.94v73.14h-47.72" fill="none" stroke="#fff" stroke-miterlimit="10" stroke-width="3"/><path d="m28.73 82.71h-25.78c-1.63 0-2.95 1.32-2.95 2.95v10.04c0 .76.62 1.38 1.38 1.38h4.12c.51 1.04 1.57 1.77 2.81 1.77s2.3-.72 2.81-1.77h10.63c.51 1.04 1.57 1.77 2.81 1.77s2.3-.72 2.81-1.77h2.94c.76 0 1.38-.62 1.38-1.38v-10.04c0-1.63-1.32-2.95-2.95-2.95z" fill="#c30d23"/><path d="m28.73 82.71h-25.78c-1.63 0-2.95 1.32-2.95 2.95v10.04c0 .76.62 1.38 1.38 1.38h4.12c.51 1.04 1.57 1.77 2.81 1.77s2.3-.72 2.81-1.77h10.63c.51 1.04 1.57 1.77 2.81 1.77s2.3-.72 2.81-1.77h2.94c.76 0 1.38-.62 1.38-1.38v-10.04c0-1.63-1.32-2.95-2.95-2.95zm-25.78 1.06h25.78c.85 0 1.57.57 1.8 1.35h-29.38c.23-.78.95-1.35 1.8-1.35zm18.25 2.42v3.23h-3.18v-3.23zm-4.24 0v3.23h-3.18v-3.23zm-4.24 0v3.23h-3.18v-3.23zm-4.24 0v3.23h-3.18v-3.23zm-.18 11.59c-1.14 0-2.06-.92-2.06-2.06s.92-2.06 2.06-2.06 2.06.92 2.06 2.06-.92 2.06-2.06 2.06zm16.25 0c-1.14 0-2.06-.92-2.06-2.06s.92-2.06 2.06-2.06 2.06.92 2.06 2.06-.92 2.06-2.06 2.06zm6.06-2.08c0 .17-.14.32-.32.32h-2.64c0-.1.01-.19.01-.29 0-1.72-1.4-3.12-3.12-3.12s-3.12 1.4-3.12 3.12c0 .1 0 .2.01.29h-10.02c0-.1.01-.19.01-.29 0-1.72-1.4-3.12-3.12-3.12s-3.12 1.4-3.12 3.12c0 .1 0 .2.01.29h-3.81c-.17 0-.32-.14-.32-.32v-9.51h3.18v3.23h-1.35v1.06h20.37v-1.06h-1v-3.23h2.82v4.87l5.53 1.65v3zm0-4.11-4.47-1.33v-4.08h4.47z" fill="#fff100"/><path d="m134.14 13.07v10.04c0 .76.62 1.38 1.38 1.38h2.94c.51 1.04 1.57 1.77 2.81 1.77s2.3-.72 2.81-1.77h10.63c.51 1.04 1.57 1.77 2.81 1.77s2.3-.72 2.81-1.77h4.12c.76 0 1.38-.62 1.38-1.38v-10.04c0-1.63-1.32-2.95-2.95-2.95h-25.78c-1.63 0-2.95 1.32-2.95 2.95z" fill="#c30d23"/><path d="m134.14 13.07v10.04c0 .76.62 1.38 1.38 1.38h2.94c.51 1.04 1.57 1.77 2.81 1.77s2.3-.72 2.81-1.77h10.63c.51 1.04 1.57 1.77 2.81 1.77s2.3-.72 2.81-1.77h4.12c.76 0 1.38-.62 1.38-1.38v-10.04c0-1.63-1.32-2.95-2.95-2.95h-25.78c-1.63 0-2.95 1.32-2.95 2.95zm30.53-.53h-29.38c.23-.78.95-1.35 1.8-1.35h25.78c.85 0 1.57.57 1.8 1.35zm-16.87 1.06v3.23h-3.18v-3.23zm4.24 0v3.23h-3.18v-3.23zm4.24 0v3.23h-3.18v-3.23zm4.24 0v3.23h-3.18v-3.23zm-5.06 9.53c0-1.14.92-2.06 2.06-2.06s2.06.92 2.06 2.06-.92 2.06-2.06 2.06-2.06-.92-2.06-2.06zm-16.25 0c0-1.14.92-2.06 2.06-2.06s2.06.92 2.06 2.06-.92 2.06-2.06 2.06-2.06-.92-2.06-2.06zm-4-3.02 5.53-1.65v-4.87h2.82v3.23h-1s0 1.06 0 1.06h20.37s0-1.06 0-1.06h-1.35v-3.23h3.18v9.51c0 .17-.14.32-.32.32h-3.82c0-.1.01-.19.01-.29 0-1.72-1.4-3.12-3.12-3.12s-3.12 1.4-3.12 3.12c0 .1 0 .2.01.29h-10.04c0-.1.01-.19.01-.29 0-1.72-1.4-3.12-3.12-3.12s-3.12 1.4-3.12 3.12c0 .1 0 .2.01.29h-2.64c-.17 0-.32-.14-.32-.32v-3zm0-6.52h4.47v4.08s-4.47 1.33-4.47 1.33z" fill="#fff100"/><path d="m71.94 86.18c.96-1.62 1.43-3.83 1.58-5.9l1.15.14c-.21 2.15-.67 4.48-1.52 6.22zm5.04.28c-.28-2.09-.85-4.35-1.55-6l1.08-.31c.7 1.68 1.44 4.19 1.67 5.86zm-.15-5.67c-.08-.37-.4-1.19-.56-1.5l.58-.12c.14.27.48 1.06.58 1.48zm1.01-.12c-.1-.36-.38-1.09-.58-1.46l.57-.09c.18.31.49 1.02.59 1.39z" fill="#c30d23"/><path d="m83.86 86.71c-.59-1.04-1.13-1.71-1.66-2.3-.85 1.18-1.94 1.94-2.86 2.34l-.72-1.01c2.48-.88 3.49-2.92 3.77-4.45l-3.02.03v-1.12h4.4c-.18 1.33-.5 2.35-.97 3.25.6.56 1.32 1.36 1.92 2.24l-.87 1.01z" fill="#c30d23"/><path d="m85.8 87.12v-4.12c-.16.26-.3.48-.42.64l-.26-1.47c.52-.74.9-1.8 1.12-2.84l.98.23c-.12.57-.28 1.15-.48 1.67v5.88h-.95zm5-2.24v.43h-.95v.35c0 1.3-.14 1.45-1.66 1.46l-.38-1.04h.53c.49 0 .5-.06.5-.46v-.31h-1.24v-.43h-.59v-1.72h4.38v1.72zm-3.6-4.22v-.91h1.47v-.42h1.07v.42h1.62v.9h-4.16zm.21 2.18v-1.86h3.61v1.86zm3.03 1.22h-2.5v.42h2.5zm-.37-2.37h-1.72v.45h1.72z" fill="#c30d23"/></svg>