<?xml version="1.0" encoding="UTF-8"?><svg id="a" xmlns="http://www.w3.org/2000/svg" viewBox="0 0 280.09 117.53"><defs><style>.q{fill:#fff;}</style></defs><path id="b" class="q" d="M72.04,18.83V6.43c-.03-.4,.27-.74,.67-.77,.03,0,.06,0,.1,0h4.02c.4,.03,.74-.27,.77-.67,0-.03,0-.07,0-.1v-.72c.03-.4-.27-.74-.67-.77-.03,0-.06,0-.1,0h-4.92c-.4,.03-.74-.27-.77-.67,0-.03,0-.06,0-.1V1.3c-.03-.4,.27-.74,.67-.77,.03,0,.06,0,.1,0h19.52c.4-.03,.74,.27,.77,.67,0,.03,0,.07,0,.1v1.35c.03,.4-.27,.74-.67,.77-.03,0-.06,0-.1,0h-5.41c-.4-.03-.74,.27-.77,.67,0,.03,0,.06,0,.1v.72c-.03,.4,.27,.74,.67,.77,.03,0,.06,0,.1,0h4.52c.4-.03,.74,.27,.77,.67,0,.03,0,.07,0,.1v12.39c.03,.4-.27,.74-.67,.77-.03,0-.07,0-.1,0h-17.73c-.4,.03-.74-.27-.77-.67,0-.03,0-.06,0-.1m4.04-2.25h11.18c.4,.03,.74-.27,.77-.67,0-.03,0-.06,0-.1v-.7c0-.51-.27-.72-.81-.63-.3,.07-.62,.1-.93,.09h-1.93c-.6,.05-1.19-.08-1.72-.37-.41-.29-.64-.78-.58-1.28v-3.6c.04-.31-.17-.6-.49-.65-.05,0-.11,0-.16,0-.36-.04-.68,.22-.72,.57,0,.03,0,.05,0,.08-.07,1.16-.41,2.29-.99,3.31-.62,.99-1.42,1.85-2.38,2.52-.11,.08-.24,.12-.37,.12-.13,.01-.25-.04-.34-.13-.04-.05-.08-.1-.13-.14-.02-.01-.04-.03-.05-.06l-.19-.21-.51-.51c-.12-.12-.23-.17-.31-.13s-.13,.14-.13,.31v1.39c-.03,.4,.27,.74,.67,.77,.03,0,.06,0,.1,0m.3-4.92c.57-.61,.95-1.36,1.09-2.18,.05-.2,0-.42-.14-.57-.15-.15-.36-.23-.58-.22h-.67c-.4-.03-.74,.27-.77,.67,0,.03,0,.06,0,.1v2c0,.45,.12,.67,.37,.67,.17,0,.4-.15,.7-.46m5.04-5.99c.31,.05,.6-.17,.65-.49,0-.05,0-.11,0-.16v-.95c0-.36-.29-.65-.65-.65-.36,0-.65,.29-.65,.65h0v.96c-.05,.31,.17,.6,.49,.65,.05,0,.11,0,.16,0m4.25,5.75h.28c.19,.01,.37-.11,.42-.3,.09-.29,.15-.6,.19-.91,.03-.25,.15-.32,.37-.21l.72,.3c.26,.08,.39-.01,.39-.28v-.58c.03-.4-.27-.74-.67-.77-.03,0-.06,0-.1,0h-1.25c-.4-.03-.74,.27-.77,.67,0,.03,0,.06,0,.1v1.53c.06,.25,.12,.38,.16,.41,.08,.03,.17,.04,.26,.03"/><path id="c" class="q" d="M95.67,19.87l-.28-.53c-.07-.12-.14-.24-.22-.36-.1-.15-.2-.3-.31-.45-.16-.28-.35-.53-.58-.74-.22-.29-.16-.49,.16-.58,1.98-.51,3.77-1.59,5.15-3.11,1.21-1.61,1.91-3.55,2-5.57,.08-.35-.14-.7-.49-.78-.08-.02-.17-.02-.25,0l-4.55,.14c-.2,.02-.41-.04-.56-.19-.14-.15-.23-.35-.23-.56l-.05-1.84c-.02-.2,.04-.41,.19-.56,.15-.14,.35-.23,.56-.23l4.76-.07c.2,0,.39-.09,.53-.23,.14-.14,.22-.33,.21-.53V.07c-.03-.4,.27-.74,.67-.77,.03,0,.06,0,.1,0h1.93c.4-.03,.74,.27,.77,.67,0,.03,0,.06,0,.1V3.57c0,.21,.07,.41,.21,.56,.15,.14,.35,.21,.56,.19l5.2-.12c.31,0,.46,.16,.46,.49l-.05,.49-.12,2c-.03,.47-.07,1.22-.12,2.26s-.09,1.98-.14,2.82l-.19,3.62c-.03,.48,.18,.72,.63,.72,.29,.02,.58-.05,.84-.19,.28-.19,.48-.76,.6-1.72,.03-.37,.18-.56,.44-.56,.19,.02,.37,.08,.53,.19,.6,.26,1.21,.48,1.83,.67,.17,.05,.32,.15,.42,.29,.12,.24,.16,.52,.09,.79-.06,.46-.15,.91-.26,1.36-.11,.49-.31,.97-.58,1.39-.59,.89-1.62,1.4-2.69,1.32h-2.69c-.79,.06-1.58-.12-2.27-.51-.53-.47-.78-1.18-.65-1.88l.3-5.13c.03-.59,.06-1.23,.1-1.94,.04-.7,.08-1.49,.13-2.35,.03-.21-.04-.43-.19-.59-.15-.15-.37-.23-.58-.2l-1.16,.02c-.39-.02-.72,.28-.74,.67,0,.02,0,.04,0,.05-.12,2.62-.94,5.15-2.39,7.33-1.58,2.1-3.74,3.69-6.22,4.57-.15,.08-.32,.08-.48,.01-.15-.07-.27-.19-.34-.34"/><path id="d" class="q" d="M120.94,5.5l-.02,1c-.06,.82-.14,1.65-.22,2.48-.08,.82-.23,1.64-.45,2.44-.04,.19-.17,.36-.35,.45-.15,.08-.33,.1-.5,.06-.16-.05-.3-.09-.43-.13s-.26-.07-.4-.1c-.24-.06-.48-.11-.72-.14-.53-.06-.72-.33-.58-.79,.31-1.5,.51-3.02,.6-4.55,.02-.13,.02-.27,.02-.41,0-.13,0-.29,.01-.46,0-.18,.09-.35,.22-.48,.15-.14,.35-.21,.56-.18l1.55,.07c.37-.02,.68,.25,.7,.62,0,.04,0,.08,0,.12m-1.46,14.45c-.4-.44-.85-.83-1.35-1.16-.48-.37-.5-.74-.07-1.11,1.16-1.03,2.06-2.33,2.6-3.78,.47-1.48,.69-3.02,.65-4.57V.12c-.03-.4,.27-.74,.67-.77,.03,0,.06,0,.1,0h1.83c.4-.03,.74,.27,.77,.67,0,.03,0,.06,0,.1V4.25c0,.51,.21,.77,.63,.77,.13,0,.27-.03,.39-.07l.63-.23c.36-.11,.6-.02,.72,.28l.35,.74c.05,.11,.08,.21,.12,.32,.15,.39,.23,.37,.23-.05V.61c-.03-.4,.27-.74,.67-.77,.03,0,.06,0,.1,0h1.83c.4-.03,.74,.27,.77,.67,0,.03,0,.06,0,.1v3.71c0,.51,.21,.77,.63,.77,.13,0,.27-.03,.39-.07l.67-.26c.31-.16,.7-.03,.85,.28,.01,.02,.02,.04,.03,.07,.14,.27,.26,.55,.37,.84,.2,.59,.33,.88,.4,.88,.06,0,.09-.13,.09-.4V.1c-.03-.4,.27-.74,.67-.77,.03,0,.06,0,.1,0h1.86c.4-.03,.74,.27,.77,.67,0,.03,0,.06,0,.1V19.57c.03,.4-.27,.74-.67,.77-.03,0-.06,0-.1,0h-1.86c-.4,.03-.74-.27-.77-.67,0-.03,0-.06,0-.1v-7.87c0-.36-.18-.49-.53-.4l-.53,.16c-.17,.03-.33,.08-.49,.16-.19,.09-.43,.01-.52-.18-.02-.04-.03-.09-.04-.14-.17-.62-.26-.97-.27-1.06,0-.08-.03-.17-.06-.24l-.39-1.32c-.06-.14-.12-.28-.16-.43-.05-.15-.1-.32-.15-.51-.05-.19-.12-.29-.18-.29-.07,0-.1,.14-.1,.42v10.05c.03,.4-.27,.74-.67,.77-.03,0-.06,0-.1,0h-1.83c-.4,.03-.74-.27-.77-.67,0-.03,0-.06,0-.1v-6.2c0-.34-.16-.46-.49-.37l-.49,.14-.42,.16c-.18,.08-.39,0-.48-.17-.02-.04-.03-.08-.03-.13-.03-.12-.06-.25-.09-.37s-.06-.26-.09-.39l-.44-1.56c-.11-.29-.19-.56-.26-.79-.06-.23-.12-.35-.19-.35s-.09,.13-.09,.39v1.04c0,4.46-1.36,8.01-4.08,10.67-.13,.14-.32,.23-.51,.23-.23-.02-.44-.12-.6-.28"/><path id="e" class="q" d="M142.8,5.06l-.14-.37s0-.03-.02-.05c-.1-.16-.05-.36,.1-.46,.05-.03,.1-.05,.15-.05l.28-.09c.45-.12,.44-.19-.02-.19h-1.02c-.4,.03-.74-.27-.77-.67,0-.03,0-.06,0-.09v-1.05c-.03-.4,.27-.74,.67-.77,.03,0,.06,0,.1,0h1.9c.4,.03,.74-.27,.77-.67,0-.03,0-.06,0-.1V-.04c0-.21,.07-.41,.21-.56,.15-.14,.35-.22,.56-.21h1.81c.21,0,.41,.07,.56,.21,.14,.15,.22,.35,.21,.56V.52c-.03,.4,.27,.74,.67,.77,.03,0,.06,0,.1,0h1.79c.4-.03,.74,.27,.77,.67,0,.03,0,.06,0,.1v1.05c.03,.4-.27,.74-.67,.77-.03,0-.06,0-.1,0h-1.14c-.26,0-.4,.02-.41,.06s.12,.09,.38,.15l.4,.12c.22,.02,.38,.22,.36,.44,0,.04-.01,.08-.03,.12-.02,.15-.06,.3-.12,.44l-.19,.44c-.11,.31,0,.46,.33,.46h.77c.4-.03,.74,.27,.77,.67,0,.03,0,.07,0,.1v1.09c.03,.4-.27,.74-.67,.77-.03,0-.07,0-.1,0h-2.43c-.31,0-.56,.25-.56,.56s.25,.56,.56,.56h1.88c.4-.03,.74,.27,.77,.67,0,.03,0,.06,0,.1v1.3c.03,.4-.27,.74-.67,.77-.03,0-.06,0-.1,0h-.77c-.28,0-.45,.06-.5,.19-.05,.12-.01,.27,.1,.35,.12,.11,.22,.2,.3,.28l.35,.28c.6,.6,1.03,.9,1.28,.9s.41-.17,.49-.51c.32-1.78,.48-3.59,.46-5.41V1.75c0-.21,.07-.41,.21-.56,.22-.17,.48-.25,.75-.23,.36-.02,.83-.06,1.4-.13,.57-.07,1.14-.17,1.72-.29,1.1-.23,2.17-.57,3.2-1.02,.15-.05,.3-.07,.45-.07,.21,.02,.41,.14,.52,.33l1.09,1.49c.16,.18,.22,.43,.16,.66-.08,.22-.26,.39-.49,.45-1.62,.6-3.31,.99-5.04,1.16-.4,0-.71,.33-.7,.73,0,.02,0,.04,0,.06v1.16c-.03,.4,.27,.74,.67,.77,.03,0,.07,0,.1,0h4.78c.4-.03,.74,.27,.77,.67,0,.03,0,.07,0,.1v1.56c.03,.4-.27,.74-.67,.77-.03,0-.07,0-.1,0h-.21c-.4-.03-.74,.27-.77,.67,0,.03,0,.06,0,.1v9.61c.03,.4-.27,.74-.67,.77-.03,0-.06,0-.1,0h-1.74c-.4,.03-.74-.27-.77-.67,0-.03,0-.06,0-.1V9.98c0-.36-.29-.65-.65-.65-.36,0-.65,.29-.65,.65h0c-.02,2.67-.6,5.3-1.69,7.73-.4,.81-.88,1.58-1.44,2.3-.13,.17-.32,.27-.53,.28-.18,0-.36-.04-.51-.14-.14-.09-.27-.19-.39-.28-.37-.24-.76-.47-1.16-.67-.18-.07-.32-.22-.37-.41-.03-.16,.08-.38,.33-.66,.61-.66,1.1-1.43,1.46-2.25,.08-.19,.09-.29,.03-.33-.05-.03-.16,.04-.31,.21-.32,.33-.61,.69-.88,1.07-.07,.12-.19,.2-.34,.21-.13,0-.25-.05-.34-.14l-.37-.35c-.08-.08-.16-.15-.24-.23-.08-.08-.18-.17-.28-.27-.06-.08-.15-.13-.24-.15-.11,0-.16,.12-.16,.35v3.32c.03,.4-.27,.74-.67,.77-.03,0-.06,0-.1,0h-1.6c-.4,.03-.74-.27-.77-.67,0-.03,0-.07,0-.1v-2.74c0-.37-.07-.56-.2-.56-.17,.03-.33,.13-.42,.28-.15,.19-.28,.36-.38,.51-.33,.42-.69,.81-1.07,1.18-.12,.15-.3,.23-.49,.23-.18,0-.36-.08-.49-.21-.24-.25-.51-.49-.79-.7-.2-.14-.35-.25-.44-.33-.37-.23-.39-.5-.07-.81,.77-.67,1.46-1.41,2.07-2.23,.04-.07,.09-.13,.14-.19l.3-.4s.05-.06,.07-.09c.05-.08,.11-.17,.17-.24,.1-.12,.11-.29,.02-.42-.08-.15-.27-.22-.57-.22h-.77c-.4,.03-.74-.27-.77-.67,0-.03,0-.06,0-.1v-1.3c-.03-.4,.27-.74,.67-.77,.03,0,.06,0,.1,0h2.34c.31,0,.56-.25,.56-.56s-.25-.56-.56-.56h-2.76c-.4,.03-.74-.27-.77-.67,0-.03,0-.07,0-.1v-1.08c-.03-.4,.27-.74,.67-.77,.03,0,.07,0,.1,0h.97c.14,.01,.27-.04,.36-.14,.07-.11,.09-.25,.03-.37l-.14-.51Zm3.02,.66c.09,.25,.33,.4,.59,.36,.3,.02,.56-.18,.64-.46l.3-.74s.02-.05,.02-.07c0-.02,0-.03,.02-.05l.07-.28c.04-.06,.08-.13,.09-.2,.03-.1,0-.21-.06-.29-.09-.1-.22-.15-.36-.14h-1.44c-.36,0-.47,.17-.35,.51,.03,.08,.06,.16,.09,.26,.03,.09,.06,.19,.09,.3,.11,.29,.2,.56,.28,.8"/><path id="f" class="q" d="M167.49,19.57v-1.98c.03-.4-.27-.74-.67-.77-.03,0-.06,0-.1,0h-2.09c-.4,.03-.74-.27-.77-.67,0-.03,0-.07,0-.1v-1.14c-.03-.4,.27-.74,.67-.77,.03,0,.07,0,.1,0h2.25c.16,0,.32-.06,.43-.17,.23-.25,.23-.63,0-.88-.11-.11-.27-.18-.43-.17h-1.81c-.4,.03-.74-.27-.77-.67,0-.03,0-.07,0-.1V5.44c-.03-.4,.27-.74,.67-.77,.03,0,.07,0,.1,0h1.88c.26,.03,.5-.15,.54-.41,0-.05,0-.09,0-.14,.04-.26-.14-.5-.4-.54-.04,0-.09,0-.13,0h-2.27c-.4,.03-.74-.27-.77-.67,0-.03,0-.06,0-.1V1.77c-.03-.4,.27-.74,.67-.77,.03,0,.07,0,.1,0h2.04c.4,.03,.74-.27,.77-.67,0-.03,0-.06,0-.1V.07c-.03-.4,.27-.74,.67-.77,.03,0,.07,0,.1,0h1.55c.4-.03,.74,.27,.77,.67,0,.03,0,.07,0,.1V.23c-.03,.4,.27,.74,.67,.77,.03,0,.06,0,.1,0h1.81c.4-.03,.74,.27,.77,.67,0,.03,0,.07,0,.1v1.05c.03,.4-.27,.74-.67,.77-.03,0-.06,0-.1,0h-2.02c-.27-.04-.51,.14-.56,.41,0,.05,0,.09,0,.14-.04,.27,.15,.51,.42,.55,.05,0,.09,0,.14,0h2.6v.12c1.51-1.47,2.76-3.18,3.69-5.06,.12-.33,.46-.53,.81-.46l2.09,.3c.22,.03,.42,.15,.53,.35,1.21,1.8,2.75,3.37,4.53,4.62,.18,.08,.32,.25,.35,.45,.02,.16-.04,.33-.15,.44-.08,.08-.15,.16-.22,.24l-.28,.28c-.34,.4-.67,.82-.97,1.25-.05,.11-.12,.12-.23,.05l-.3-.21c-.09-.06-.14-.03-.14,.09v1.14c.03,.4-.27,.74-.67,.77-.03,0-.06,0-.1,0h-.79c-.4-.03-.74,.27-.77,.67,0,.03,0,.06,0,.1v.77c-.03,.4,.27,.74,.67,.77,.03,0,.07,0,.1,0h2.39c.4-.03,.74,.27,.77,.67,0,.03,0,.06,0,.1v1.46c.03,.4-.27,.74-.67,.77-.03,0-.06,0-.1,0h-2.39c-.4-.03-.74,.27-.77,.67,0,.03,0,.07,0,.1v4.48c.03,.4-.27,.74-.67,.77-.03,0-.07,0-.1,0h-1.65c-.4,.03-.74-.27-.77-.67,0-.03,0-.07,0-.1v-4.48c.03-.4-.27-.74-.67-.77-.03,0-.07,0-.1,0h-2c-.4,.03-.74-.27-.77-.67,0-.03,0-.06,0-.1v-1.46c-.03-.4,.27-.74,.67-.77,.03,0,.06,0,.1,0h2c.4,.03,.74-.27,.77-.67,0-.03,0-.07,0-.1v-.77c.03-.4-.27-.74-.67-.77-.03,0-.06,0-.1,0h-.67c-.4,.03-.74-.27-.77-.67,0-.03,0-.07,0-.1v-1.14c0-.15-.06-.19-.19-.09l-.4,.35c-.08,.1-.22,.12-.32,.05-.02-.01-.03-.03-.05-.05l-.72-.65c-.22-.19-.33-.14-.33,.14v5.29c.03,.4-.27,.74-.67,.77-.03,0-.06,0-.1,0h-1.76c-.17,0-.33,.06-.45,.17-.23,.25-.23,.63,0,.88,.12,.12,.28,.18,.45,.17h2.23c.4-.03,.74,.27,.77,.67,0,.03,0,.07,0,.1v1.14c.03,.4-.27,.74-.67,.77-.03,0-.06,0-.1,0h-2.09c-.4-.03-.74,.27-.77,.67,0,.03,0,.06,0,.1v1.98c.03,.4-.27,.74-.67,.77-.03,0-.07,0-.1,0h-1.55c-.4,.03-.74-.27-.77-.67,0-.03,0-.07,0-.1m.3-11.86h2.44c.21,.03,.41-.11,.44-.33,0-.04,0-.08,0-.11,.03-.21-.12-.41-.33-.44-.04,0-.07,0-.11,0h-2.44c-.21-.03-.41,.12-.44,.33,0,.04,0,.07,0,.11-.03,.21,.12,.41,.33,.44,.04,0,.07,0,.11,0m0,3.02h2.44c.24,0,.44-.2,.44-.44,0-.24-.2-.44-.44-.44h-2.44c-.24,0-.44,.2-.44,.44,0,.24,.2,.44,.44,.44m9.77-4.41h3.06c.62,0,.97-.12,1.07-.37s-.08-.6-.51-1.04c-.46-.49-.89-1-1.3-1.53-.15-.22-.39-.37-.66-.39-.22,0-.44,.16-.64,.49-.42,.6-.91,1.24-1.46,1.9-.25,.29-.34,.53-.27,.7s.31,.26,.71,.26"/><path id="g" class="q" d="M190.38,19.64v-5.64c0-.54-.05-.54-.14,0-.03,.14-.06,.28-.09,.42-.03,.14-.07,.33-.13,.57-.05,.24-.12,.51-.2,.82-.23,.79-.39,1.32-.49,1.6-.2,.51-.52,.68-.95,.51-.11-.03-.22-.07-.33-.12-.16-.06-.33-.1-.5-.14-.21-.05-.37-.09-.48-.12-.43-.08-.57-.32-.4-.72,.49-1.25,.86-2.54,1.11-3.85,.02-.4,.36-.7,.75-.68,.06,0,.12,.01,.17,.03l.95,.21c.18,.05,.37,.02,.51-.09,.27-.21,.32-.6,.11-.87-.15-.19-.39-.27-.62-.22l-1.62,.21c-.33,.09-.67-.1-.77-.43-.02-.06-.02-.11-.02-.17l-.26-1.97c-.03-.19,.05-.28,.23-.28l.28-.02h.33c.18,0,.35-.06,.48-.19,.12-.12,.22-.24,.33-.36l.31-.36,.47-.53c.24-.24,.24-.63,0-.87-.04-.04-.09-.08-.14-.1-.15-.12-.31-.24-.48-.36-.16-.12-.33-.23-.5-.35l-.48-.32c-.15-.1-.31-.21-.5-.31-.18-.1-.3-.27-.35-.46-.04-.22,0-.45,.14-.63l1-1.53c.05-.09,.16-.13,.26-.08,0,0,.01,0,.02,.01l.35,.19c.11,.08,.19,.06,.26-.05l.56-.97c.12-.22,.24-.42,.35-.63l.3-.63c.1-.16,.17-.33,.24-.51,.11-.29,.44-.43,.73-.32,.01,0,.03,.01,.04,.02l1.28,.53c.22,.07,.39,.23,.48,.44,.07,.21,.03,.45-.1,.63l-.7,1.18c-.36,.6-.71,1.15-1.07,1.65-.06,.12-.04,.21,.07,.26l.12,.09h.02l.02,.02h.02l.12,.09c.09,.08,.17,.07,.23-.02,.68-.99,1.19-1.77,1.53-2.34,.1-.21,.3-.35,.53-.37,.17,0,.33,.03,.49,.09l1.18,.6c.48,.28,.57,.63,.28,1.04-1.12,1.7-2.33,3.34-3.64,4.9-.15,.22-.1,.31,.16,.28l.81-.07c.25-.03,.32-.15,.23-.37-.03-.02-.05-.06-.06-.09,0-.03-.02-.06-.03-.09-.16-.24-.1-.57,.14-.73,.04-.03,.08-.05,.12-.06l1.11-.53c.1-.04,.21-.07,.33-.07,.25-.01,.49,.12,.61,.34,.12,.2,.23,.41,.33,.63,.08,.19,.16,.35,.22,.48,.2,.47,.33,.7,.41,.7s.1-.13,.1-.4V1.88c-.03-.4,.27-.74,.67-.77,.03,0,.06,0,.1,0h1.9c.33,.02,.62-.19,.7-.51,.03-.11,.06-.22,.08-.33,.02-.11,.05-.22,.08-.33,.03-.09,.05-.19,.06-.29,0-.08,.02-.16,.03-.24,.03-.28,.28-.49,.56-.47,.01,0,.03,0,.04,0l2.39,.25c.29,.03,.4,.19,.33,.49-.03,.06-.06,.13-.08,.2-.02,.07-.05,.14-.08,.22l-.23,.49c-.12,.34-.02,.51,.33,.51h3.46c.4-.03,.74,.27,.77,.67,0,.03,0,.07,0,.1v7.24c.03,.4-.27,.74-.67,.77-.03,0-.07,0-.1,0h-2.95c-.18-.03-.35,.1-.37,.28,0,.03,0,.06,0,.09v.23c.13,.52,.34,1.01,.63,1.46,.09,.17,.2,.26,.33,.26,.12,0,.23-.03,.33-.1,.09-.07,.19-.15,.29-.23,.1-.08,.19-.17,.28-.27,.08-.09,.15-.16,.2-.21l.49-.49c.13-.15,.31-.24,.5-.26,.18,0,.34,.07,.48,.19l.9,.79c.17,.13,.28,.32,.29,.53,.01,.19-.05,.37-.18,.5-.13,.13-.25,.25-.35,.34-.1,.09-.21,.2-.33,.31s-.23,.22-.35,.32-.25,.22-.41,.36c-.15,.13-.24,.31-.27,.5,0,.26,.13,.5,.34,.66,.62,.64,1.29,1.23,2,1.76,.37,.31,.38,.61,.02,.91-.08,.08-.16,.16-.26,.24-.09,.09-.19,.17-.28,.27-.18,.17-.35,.35-.51,.55-.13,.19-.34,.3-.57,.31-.19,0-.37-.06-.5-.19-.87-.75-1.65-1.61-2.3-2.55-.2-.28-.38-.42-.53-.42s-.23,.22-.23,.67v1.32c.14,1.11-.64,2.12-1.74,2.27-.38,.06-.77,.1-1.16,.09h-.63c-.17,0-.34-.06-.46-.17-.14-.15-.22-.34-.23-.55-.06-.56-.17-1.12-.33-1.67-.11-.31,0-.46,.33-.46h.51c.22,.02,.44-.02,.64-.13,.14-.15,.2-.35,.17-.55v-3.88c0-.45-.02-.68-.06-.69-.04,0-.12,.21-.24,.64-.28,1.14-.7,2.24-1.24,3.28-.54,1.05-1.21,2.02-2.01,2.89-.12,.15-.31,.23-.5,.23-.17,0-.34-.05-.48-.16-.36-.35-.77-.65-1.21-.9-.43-.25-.48-.53-.14-.84,.24-.21,.46-.43,.67-.67,.17-.2,.24-.32,.22-.35-.02-.03-.1-.02-.22,.02l-.79,.35c-.27,.15-.44,.09-.51-.21l-.65-2.62c-.05-.22-.09-.32-.12-.31s-.05,.12-.05,.34v5.64c.03,.4-.27,.74-.67,.77-.03,0-.07,0-.1,0h-1.43c-.4,.03-.74-.27-.77-.67,0-.03,0-.06,0-.1m6.36-5.99c-.29,.04-.56-.16-.6-.46,0-.05,0-.1,0-.14v-1.19c-.03-.4,.27-.74,.67-.77,.03,0,.06,0,.1,0h2.99c.15,0,.3,.04,.42,.14,.16,.08,.25,.1,.29,.08s.06-.08,.06-.17v-.49c.03-.4-.27-.74-.67-.77-.03,0-.06,0-.1,0h-2.78c-.08,0-.11,.05-.09,.14l.12,.26c.03,.09,0,.15-.07,.19l-1.14,.49c-.18,.07-.35,.16-.52,.26-.16,.09-.33,.19-.5,.28-.12,.11-.22,.08-.28-.09l-.05-.26-.09-.26c-.04-.15-.19-.25-.34-.21,0,0,0,0,0,0l-.51,.09c-.17,.01-.29,.15-.28,.32,0,0,0,0,0,0v.51c-.01,.2,.06,.39,.21,.52,.16,.12,.37,.15,.56,.08l.72-.21c.2-.06,.42-.04,.6,.07,.16,.1,.28,.26,.32,.44,.12,.47,.22,.78,.28,.93l.28,.95c.09,.28,.2,.42,.33,.42s.25-.11,.37-.32c.02-.02,.02-.04,.02-.07,.26-.51,.16-.77-.3-.77m3.48-9.21h3.81c.13,0,.26-.05,.35-.14,.18-.2,.18-.51,0-.72-.09-.09-.22-.14-.35-.14h-3.81c-.14,0-.27,.04-.37,.14-.09,.09-.14,.22-.14,.35-.04,.25,.14,.47,.38,.51,.04,0,.09,0,.13,0m0,3.13h3.81c.13,0,.26-.05,.35-.14,.19-.2,.19-.52,0-.72-.09-.09-.22-.14-.35-.14h-3.81c-.14,0-.27,.04-.37,.14-.09,.09-.14,.22-.14,.35-.04,.25,.14,.48,.38,.51,.04,0,.09,0,.13,0"/><path id="h" class="q" d="M275.4,40.19c-15.07-.41-30.14-.75-45.23-1.02,.53-1.5,.89-2.53,1.07-3.09,.27-.44,.65-.8,1.11-1.04,.61-.29,1.27-.44,1.94-.45-.02-.48-.05-.96-.07-1.44l-.28-.34h-12.57c-2.43,6.59-5.61,12.88-9.47,18.74,3.96,.18,7.93,.37,11.89,.57,.73-1.17,1.38-2.29,1.94-3.37,4.55,.2,9.1,.41,13.64,.64,.04,2.24,.07,4.47,.11,6.71-3.53-.25-7.06-.49-10.59-.71-2.92,1.67-5.84,3.31-8.77,4.92,.09,5.29,.19,10.59,.28,15.88-2.68-.3-5.37-.59-8.06-.86,.09,3.12,.18,6.24,.26,9.36,9.22,1.14,18.41,2.49,27.57,4.06,.14,5.95,.28,11.91,.42,17.88,3.9,.89,7.8,1.83,11.68,2.82-.13-6.19-.27-12.38-.4-18.57,6.84,1.32,13.66,2.76,20.45,4.32,2.9,.68,4.29-.61,4.19-3.89,.13-.88,.33-1.75,.58-2.61,.3-.41,.69-.75,1.15-.99,.6-.23,1.24-.28,1.87-.15,.01-.56,.03-1.11,.04-1.67l-.37-.47c-9.37-1.87-18.79-3.55-28.24-5.04-.09-4.35-.18-8.71-.27-13.06,5.34,.61,10.68,1.26,16,1.96,.79,.18,1.61-.2,1.98-.93,.44-.89,.6-1.9,.47-2.89-.11-1.07,.03-2.14,.42-3.14,.25-.54,.71-.96,1.28-1.15,.7-.19,1.43-.26,2.15-.21,.01-.55,.02-1.09,.04-1.64l-.38-.42c-7.38-.71-14.78-1.36-22.18-1.94-.07-2.32-.13-4.64-.2-6.96,5.68,.32,11.36,.67,17.03,1.04,2.93,.2,4.34-1.31,4.23-4.52,.13-.9,.33-1.79,.59-2.66,.31-.46,.7-.85,1.16-1.16,.58-.32,1.23-.48,1.89-.47,.01-.55,.02-1.1,.04-1.65l-.38-.4m-35.4,38.48c-2.87-.4-5.74-.79-8.62-1.16-.1-4.09-.2-8.18-.3-12.26,2.88,.27,5.75,.55,8.63,.84,.1,4.19,.19,8.39,.29,12.58"/><path id="i" class="q" d="M82.9,64.94c.06-.57,.22-1.13,.46-1.65,.39-.48,.9-.84,1.47-1.05,.62-.22,1.27-.37,1.93-.45l.05-1.31-.38-.29c-5.68,.28-11.36,.61-17.03,.99-.06,3.53-.12,7.05-.19,10.58,1.15-.1,2.3-.21,3.44-.31-.13,6.84-.26,13.69-.39,20.54-1.05,.14-2.1,.28-3.15,.43,0,2.83-.01,5.67-.02,8.5,20.2-3.2,40.59-5.03,61.04-5.48,.02-2.61,.03-5.21,.05-7.82-15.95,.3-31.87,1.35-47.76,3.13,.15-8.61,.31-17.22,.46-25.83"/><path id="j" class="q" d="M82.1,52.46c.45-.71,.63-1.55,.52-2.38-.1-.86,.03-1.73,.38-2.52,.39-.48,.88-.85,1.45-1.08,.69-.23,1.4-.36,2.12-.4,.02-.44,.03-.87,.05-1.31l-.28-.3c-5.54,.12-11.08,.26-16.61,.41-.06,3.02-.12,6.04-.17,9.07,3.47-.17,6.95-.33,10.43-.48,.83,.03,1.63-.35,2.12-1.02"/><path id="k" class="q" d="M129.72,34.12c-13.82,0-27.64,.03-41.46,.06,0,2.7-.02,5.41-.03,8.11,7.83-.13,15.67-.24,23.51-.31-2.85,2.3-5.7,4.62-8.56,6.97-1.04-1.62-2.08-3.25-3.11-4.89-3.31,.05-6.62,.11-9.94,.18,.97,1.66,1.94,3.31,2.91,4.95-1.64,.04-3.28,.09-4.92,.14-.13,12.93-.27,25.87-.4,38.8,3.36-.33,6.72-.63,10.09-.9,.04-2.79,.07-5.57,.11-8.36,1.55-.1,3.1-.2,4.65-.29-.04,2.77-.07,5.54-.11,8.31,3.33-.23,6.67-.44,10.01-.61,.03-2.74,.06-5.47,.09-8.21,1.55-.07,3.1-.13,4.65-.19-.03,2.73-.06,5.45-.09,8.18,3.34-.14,6.68-.26,10.02-.34,.03-11.3,.06-22.59,.09-33.89,.08-.13,.14-.28,.17-.44,.26-.44,.68-.78,1.16-.96,.57-.17,1.15-.27,1.74-.3,.01-.41,.03-.83,.04-1.24l-.38-.29c-4.2,.02-8.41,.06-12.61,.12,2.55-2.41,5.1-4.81,7.65-7.19,.82-.56,1.26-1.51,1.17-2.49-.12-.72-.02-1.46,.29-2.12,.36-.47,.87-.81,1.45-.95,.7-.16,1.41-.26,2.13-.29l.04-1.24-.38-.29m-27.2,35.94c-1.55,.08-3.09,.16-4.64,.24,.01-.68,.03-1.36,.04-2.04,1.55-.08,3.09-.16,4.64-.23-.01,.67-.03,1.35-.04,2.02m.18-10.55c-1.55,.05-3.09,.11-4.64,.17-.02-.68-.04-1.35-.06-2.03,1.54-.06,3.09-.11,4.63-.16,.02,.67,.04,1.35,.06,2.02m14.44,9.98c-1.55,.05-3.1,.1-4.65,.15,.01-.67,.03-1.33,.04-2,1.55-.05,3.1-.1,4.64-.14-.01,.66-.02,1.33-.04,1.99m.16-10.39c-1.58,.03-3.16,.07-4.74,.11,.01-.67,.03-1.33,.04-2,1.55-.04,3.09-.07,4.64-.1,.02,.66,.04,1.33,.06,1.99"/><path id="l" class="q" d="M163.45,42.98c3.18,.03,6.36,.06,9.54,.1,1.88,.02,3.76,.05,5.65,.07l2.76,.04c2.84,.04,5.68,.09,8.52,.14h.28v-.02c.69,0,1.33-.33,1.72-.9,.43-.71,.57-1.55,.42-2.37-.14-.87-.02-1.77,.36-2.56,.29-.49,.74-.85,1.28-1.03,.67-.2,1.37-.31,2.07-.33l.03-1.31-.28-.31-5.72-.02-8.69-.02c-12.88-.03-25.77-.05-38.66-.05-.05,2.82-.09,5.64-.14,8.47h1.27c6.53,0,13.06,.04,19.59,.1"/><path id="m" class="q" d="M208.16,75.55c-4.81-.47-9.63-.88-14.46-1.24,0,2.7,.02,5.4,.03,8.11-.34,3.72-1.47,3.58-3.46,3.57-.66,.02-1.66-.07-2.66-.16-.7-.04-1.4-.13-2.09-.25-1.01-.16-1.77-.69-1.81-1.71-.25-6.22-.49-12.44-.74-18.64-.02-1.2-.04-2.41-.06-3.61,3.96,.17,7.91,.36,11.86,.58,.77,.12,1.55-.21,2-.85,.43-.71,.59-1.55,.46-2.37-.11-.87,0-1.75,.31-2.57,.34-.47,.83-.81,1.38-.98,.68-.17,1.37-.26,2.07-.26,0-.44,.02-.88,.03-1.32l-.28-.32c-9.22-.39-18.44-.69-27.67-.9-3.19-.07-6.37-.14-9.56-.19-8.67-.14-17.35-.2-26.03-.19-.05,2.82-.1,5.64-.15,8.47,5.01-.01,10.03,.01,15.04,.07,0,1.17,0,2.34,.01,3.51h-.02c-.16,3.88-.73,7.6-2.31,10.51-3.13,5.72-8.6,9.5-16.22,11.94,2.71,2.34,4.82,5.3,6.14,8.64,7.55-2.52,17.01-7.06,21.11-15.59,2.21-4.67,2.97-10.06,3.12-15.25-.02-1.18-.03-2.36-.05-3.53,2.32,.06,4.64,.12,6.97,.19,0,1.19,.02,2.37,.02,3.56,.25,6.57,.51,13.15,.76,19.74,.24,6.32,4.23,10.19,10.09,10.96,4.27,.54,8.53,.99,12.44,1.29,7.43,.58,10.72-1.71,10.31-17.45,.06-.33,.17-.64,.31-.94,.29-.47,.75-.81,1.28-.93,.68-.14,1.38-.19,2.07-.15,0-.45,.02-.89,.03-1.34l-.28-.34"/><path id="n" class="q" d="M26.92,58.32c.08-8.51,.17-17.01,.25-25.51H.16c-.05,28.23-.11,56.47-.16,84.73,3.1-1.01,6.2-1.98,9.31-2.91,.1-16.6,.2-33.18,.3-49.76,4.32-.5,8.65-.98,12.98-1.43,2.86-.3,4.31-2,4.33-5.11M9.72,42.06c2.58-.09,5.16-.17,7.74-.25v3.06c-2.59,.11-5.17,.22-7.75,.34,0-1.05,0-2.1,.01-3.15m7.68,12.92c-2.57,.2-5.15,.41-7.72,.62,0-1.05,0-2.1,.01-3.15,2.57-.18,5.15-.36,7.73-.53,0,1.02-.01,2.04-.01,3.06"/><path id="o" class="q" d="M63.51,32.8h-31.24c-.1,9.89-.2,19.78-.3,29.68,6.2-.6,12.41-1.14,18.62-1.63-.16,14.5-.32,29-.48,43.51,3.17-.64,6.34-1.25,9.52-1.82,.29-21.33,.59-42.65,.88-63.96,.07-.89,.25-1.76,.54-2.61,.26-.48,.66-.87,1.15-1.1,.52-.21,1.07-.33,1.63-.37,.02-.46,.03-.91,.05-1.37l-.38-.32m-21.73,8.31c3.01-.08,6.02-.15,9.03-.22,0,.92-.02,1.84-.03,2.76-3.01,.09-6.02,.19-9.03,.29,0-.94,.02-1.89,.03-2.83m8.93,11.63c-3.04,.17-6.08,.35-9.12,.54l.03-2.83c3.04-.16,6.08-.32,9.12-.46,0,.92-.02,1.84-.03,2.75"/><path id="p" class="q" d="M48.85,79.91c-2.73,.37-5.45,.75-8.17,1.15,.02-2.2,.05-4.4,.07-6.61l1.42-.18c.78-.06,1.47-.51,1.83-1.2,.38-.75,.52-1.59,.42-2.43-.1-.88,0-1.77,.27-2.62,.33-.49,.79-.89,1.33-1.15,.6-.25,1.23-.43,1.88-.52,0-.42,0-.84,0-1.26l-.28-.31c-1.6,.15-3.2,.3-4.8,.46-8.17,.8-16.31,1.69-24.44,2.69-1.73,.21-3.47,.43-5.21,.65-.04,3.3-.07,6.6-.11,9.9,2.41-.4,4.83-.78,7.24-1.15-.02,2.35-.03,4.71-.05,7.06-2.69,.48-5.38,.98-8.07,1.5-.04,3.31-.07,6.62-.11,9.94,2.58-.59,5.16-1.16,7.74-1.71-.56,2.6-1.9,4.96-3.84,6.77-.73,.65-1.55,1.2-2.43,1.62-.13,.06-.26,.12-.39,.19-.11,3.11-.22,6.22-.33,9.33,0-.04,12.14-5.22,14.21-19.41,1.93-.39,3.86-.76,5.79-1.13-.04,5.27-.08,10.53-.12,15.79,2.58-.62,5.16-1.22,7.74-1.79,.05-5.14,.1-10.28,.14-15.42,.94-.16,1.88-.33,2.82-.49,.78-.1,1.47-.58,1.83-1.28,.38-.75,.52-1.6,.42-2.43-.09-.88,0-1.77,.27-2.62,.34-.5,.79-.92,1.33-1.2,.6-.28,1.23-.48,1.88-.6v-1.25l-.28-.3m-15.96,2.35c-.67,.11-1.34,.21-2.01,.32-1.11,.18-2.22,.36-3.32,.55l-.1,.02c.01-2.3,.03-4.59,.04-6.89,1.14-.16,2.28-.33,3.42-.49l2.02-.28c-.02,2.26-.04,4.51-.06,6.77"/></svg>