<?xml version="1.0" encoding="UTF-8"?><svg id="a" xmlns="http://www.w3.org/2000/svg" viewBox="0 0 545.56 376.04"><defs><style>.b{fill:none;}.c{fill:#b69461;}.d{fill:#c30d23;}</style></defs><g><path class="d" d="M97.66,367.68c-1.52,1.5-3.49,2.2-5.62,2.2-5.49,0-7.82-3.78-7.84-7.63-.02-3.87,2.49-7.8,7.84-7.8,2.01,0,3.91,.76,5.43,2.26l-1.86,1.8c-.97-.95-2.28-1.39-3.57-1.39-3.57,0-5.11,2.66-5.09,5.13,.02,2.45,1.44,5.01,5.09,5.01,1.29,0,2.75-.53,3.72-1.5l1.9,1.92Z"/><path class="d" d="M108.73,364.34c0,3-2.05,5.43-5.43,5.43s-5.41-2.43-5.41-5.43,2.07-5.43,5.39-5.43,5.45,2.45,5.45,5.43Zm-8.26,0c0,1.58,.95,3.06,2.83,3.06s2.83-1.48,2.83-3.06-1.1-3.08-2.83-3.08c-1.86,0-2.83,1.52-2.83,3.08Z"/><path class="d" d="M118.17,369.54v-5.45c0-1.58-.87-2.79-2.51-2.79s-2.66,1.33-2.66,2.92v5.32h-2.56v-10.44h2.3l.17,1.42c1.06-1.04,2.11-1.56,3.42-1.56,2.45,0,4.42,1.84,4.42,5.11v5.47h-2.58Z"/><path class="d" d="M131.15,358.06l1.9,1.44-1.16,1.48c.8,.91,1.1,1.94,1.1,3.08,0,1.29-.49,3.11-2.2,3.89,1.73,.87,2.16,2.11,2.16,3.44,0,2.87-2.2,4.65-5.22,4.65s-5.28-1.84-5.28-4.65h2.56c0,1.35,1.25,2.24,2.73,2.24s2.64-.8,2.64-2.24-1.35-2.09-2.64-2.09c-3.25,0-5.28-1.99-5.28-5.24s2.37-5.28,5.28-5.28c.82,0,1.67,.11,2.39,.59l1.04-1.31Zm-6.15,6c0,1.82,1.23,2.89,2.73,2.89s2.7-1.1,2.7-2.89-1.23-2.94-2.7-2.94-2.73,1.12-2.73,2.94Z"/><path class="d" d="M137.02,359.12l.19,1.2c.8-1.29,1.88-1.48,2.94-1.48s2.11,.42,2.68,.99l-1.16,2.24c-.53-.44-1.01-.68-1.86-.68-1.35,0-2.6,.72-2.6,2.64v5.49h-2.58v-10.42h2.39Z"/><path class="d" d="M152.06,359.12h2.47v10.42h-2.43l-.13-1.52c-.59,1.23-2.22,1.82-3.38,1.84-3.08,.02-5.37-1.88-5.37-5.54s2.39-5.47,5.43-5.45c1.39,0,2.73,.66,3.32,1.69l.08-1.44Zm-6.25,5.2c0,1.99,1.37,3.17,3.08,3.17,4.06,0,4.06-6.32,0-6.32-1.71,0-3.08,1.16-3.08,3.15Z"/><path class="d" d="M160.35,356.18v2.96h2.87v2.22h-2.89v4.5c0,.99,.55,1.48,1.35,1.48,.4,0,.87-.13,1.25-.32l.72,2.2c-.74,.3-1.35,.42-2.13,.44-2.26,.08-3.74-1.2-3.74-3.8v-4.5h-1.94v-2.22h1.94v-2.68l2.58-.27Z"/><path class="d" d="M167.79,359.12v5.45c0,1.58,.87,2.79,2.51,2.79s2.66-1.33,2.66-2.92v-5.32h2.56v10.44h-2.3l-.17-1.42c-1.08,1.06-2.07,1.56-3.53,1.56-2.49,0-4.31-1.88-4.31-5.11v-5.47h2.58Z"/><path class="d" d="M180.36,354.77v14.77h-2.56v-14.77h2.56Z"/><path class="d" d="M190.88,359.12h2.47v10.42h-2.43l-.13-1.52c-.59,1.23-2.22,1.82-3.38,1.84-3.08,.02-5.37-1.88-5.37-5.54s2.39-5.47,5.43-5.45c1.39,0,2.73,.66,3.32,1.69l.08-1.44Zm-6.25,5.2c0,1.99,1.37,3.17,3.08,3.17,4.06,0,4.06-6.32,0-6.32-1.71,0-3.08,1.16-3.08,3.15Z"/><path class="d" d="M199.16,356.18v2.96h2.87v2.22h-2.89v4.5c0,.99,.55,1.48,1.35,1.48,.4,0,.87-.13,1.25-.32l.72,2.2c-.74,.3-1.35,.42-2.13,.44-2.26,.08-3.74-1.2-3.74-3.8v-4.5h-1.94v-2.22h1.94v-2.68l2.58-.27Z"/><path class="d" d="M206.77,356.18c0,2.01-3.04,2.01-3.04,0s3.04-2.01,3.04,0Zm-2.81,2.89v10.46h2.58v-10.46h-2.58Z"/><path class="d" d="M219.22,364.34c0,3-2.05,5.43-5.43,5.43s-5.41-2.43-5.41-5.43,2.07-5.43,5.39-5.43,5.45,2.45,5.45,5.43Zm-8.26,0c0,1.58,.95,3.06,2.83,3.06s2.83-1.48,2.83-3.06-1.1-3.08-2.83-3.08c-1.86,0-2.83,1.52-2.83,3.08Z"/><path class="d" d="M228.66,369.54v-5.45c0-1.58-.87-2.79-2.51-2.79s-2.66,1.33-2.66,2.92v5.32h-2.56v-10.44h2.3l.17,1.42c1.06-1.04,2.11-1.56,3.42-1.56,2.45,0,4.42,1.84,4.42,5.11v5.47h-2.58Z"/><path class="d" d="M240.26,361.89c-.74-.7-1.58-.93-2.58-.93-1.23,0-1.9,.38-1.9,1.04s.61,1.06,1.94,1.14c1.96,.13,4.46,.57,4.46,3.34,0,1.84-1.5,3.42-4.48,3.42-1.65,0-3.3-.28-4.82-1.86l1.27-1.84c.74,.82,2.43,1.44,3.59,1.46,.97,.02,1.88-.49,1.88-1.25,0-.72-.59-1.01-2.07-1.1-1.96-.15-4.31-.87-4.31-3.23s2.49-3.25,4.39-3.25c1.63,0,2.85,.32,4.06,1.37l-1.44,1.69Z"/><path class="d" d="M258.45,364.34c0,3-2.05,5.43-5.43,5.43s-5.41-2.43-5.41-5.43,2.07-5.43,5.39-5.43,5.45,2.45,5.45,5.43Zm-8.26,0c0,1.58,.95,3.06,2.83,3.06s2.83-1.48,2.83-3.06-1.1-3.08-2.83-3.08c-1.86,0-2.83,1.52-2.83,3.08Z"/><path class="d" d="M267.9,369.54v-5.45c0-1.58-.87-2.79-2.51-2.79s-2.66,1.33-2.66,2.92v5.32h-2.56v-10.44h2.3l.17,1.42c1.06-1.04,2.11-1.56,3.42-1.56,2.45,0,4.42,1.84,4.42,5.11v5.47h-2.58Z"/><path class="d" d="M279.52,354.77v14.77h-2.56v-14.77h2.56Z"/><path class="d" d="M284.59,356.18c0,2.01-3.04,2.01-3.04,0s3.04-2.01,3.04,0Zm-2.81,2.89v10.46h2.58v-10.46h-2.58Z"/><path class="d" d="M294.35,369.54v-5.45c0-1.58-.87-2.79-2.51-2.79s-2.66,1.33-2.66,2.92v5.32h-2.56v-10.44h2.3l.17,1.42c1.06-1.04,2.11-1.56,3.42-1.56,2.45,0,4.42,1.84,4.42,5.11v5.47h-2.58Z"/><path class="d" d="M301.67,354.77v8.54l3.51-4.18h3.08v.15l-4.25,4.75,4.84,5.32v.19h-3.11l-4.08-4.71v4.71h-2.58v-14.77h2.58Z"/><path class="d" d="M317.93,356.18v2.96h2.87v2.22h-2.89v4.5c0,.99,.55,1.48,1.35,1.48,.4,0,.87-.13,1.25-.32l.72,2.2c-.74,.3-1.35,.42-2.13,.44-2.26,.08-3.74-1.2-3.74-3.8v-4.5h-1.94v-2.22h1.94v-2.68l2.58-.27Z"/><path class="d" d="M333.08,364.34c0,3-2.05,5.43-5.43,5.43s-5.41-2.43-5.41-5.43,2.07-5.43,5.39-5.43,5.45,2.45,5.45,5.43Zm-8.26,0c0,1.58,.95,3.06,2.83,3.06s2.83-1.48,2.83-3.06-1.1-3.08-2.83-3.08c-1.86,0-2.83,1.52-2.83,3.08Z"/><path class="d" d="M339.34,369.54v-14.79h2.77v14.79h-2.77Z"/><path class="d" d="M351.34,361.89c-.74-.7-1.58-.93-2.58-.93-1.23,0-1.9,.38-1.9,1.04s.61,1.06,1.94,1.14c1.96,.13,4.46,.57,4.46,3.34,0,1.84-1.5,3.42-4.48,3.42-1.65,0-3.3-.28-4.82-1.86l1.27-1.84c.74,.82,2.43,1.44,3.59,1.46,.97,.02,1.88-.49,1.88-1.25,0-.72-.59-1.01-2.07-1.1-1.96-.15-4.31-.87-4.31-3.23s2.49-3.25,4.39-3.25c1.63,0,2.85,.32,4.06,1.37l-1.44,1.69Z"/><path class="d" d="M363.17,359.12h2.47v10.42h-2.43l-.13-1.52c-.59,1.23-2.22,1.82-3.38,1.84-3.08,.02-5.37-1.88-5.37-5.54s2.39-5.47,5.43-5.45c1.39,0,2.73,.66,3.32,1.69l.08-1.44Zm-6.25,5.2c0,1.99,1.37,3.17,3.08,3.17,4.06,0,4.06-6.32,0-6.32-1.71,0-3.08,1.16-3.08,3.15Z"/><path class="d" d="M370.4,354.75v5.79c.93-1.2,2.07-1.56,3.25-1.56,2.96,0,4.27,2.01,4.27,5.07v5.49h-2.58v-5.47c0-1.9-.99-2.7-2.37-2.7-1.52,0-2.58,1.29-2.58,2.85v5.32h-2.58v-14.79h2.58Z"/><path class="d" d="M388.36,359.12h2.47v10.42h-2.43l-.13-1.52c-.59,1.23-2.22,1.82-3.38,1.84-3.08,.02-5.37-1.88-5.37-5.54s2.39-5.47,5.43-5.45c1.39,0,2.73,.66,3.32,1.69l.08-1.44Zm-6.25,5.2c0,1.99,1.37,3.17,3.08,3.17,4.06,0,4.06-6.32,0-6.32-1.71,0-3.08,1.16-3.08,3.15Z"/><path class="d" d="M403.51,359.12l-6.36,14.77h-2.83l1.94-4.52-4.16-10.25h3l1.58,4.5,.99,2.94,1.08-2.87,1.9-4.56h2.85Z"/><path class="d" d="M413.12,359.12h2.47v10.42h-2.43l-.13-1.52c-.59,1.23-2.22,1.82-3.38,1.84-3.08,.02-5.37-1.88-5.37-5.54s2.39-5.47,5.43-5.45c1.39,0,2.73,.66,3.32,1.69l.08-1.44Zm-6.25,5.2c0,1.99,1.37,3.17,3.08,3.17,4.06,0,4.06-6.32,0-6.32-1.71,0-3.08,1.16-3.08,3.15Z"/><path class="d" d="M417.67,361.47h7.8v2.37h-7.8v-2.37Z"/><path class="d" d="M436.39,368.21c-1.2,1.18-2.47,1.65-4.01,1.65-3.02,0-5.54-1.82-5.54-5.51s2.51-5.51,5.54-5.51c1.48,0,2.62,.42,3.76,1.54l-1.63,1.71c-.61-.55-1.37-.82-2.09-.82-1.73,0-3,1.27-3,3.08,0,1.99,1.35,3.04,2.96,3.04,.82,0,1.65-.23,2.28-.87l1.73,1.69Z"/><path class="d" d="M440.34,356.18c0,2.01-3.04,2.01-3.04,0s3.04-2.01,3.04,0Zm-2.81,2.89v10.46h2.58v-10.46h-2.58Z"/><path class="d" d="M446.07,356.18v2.96h2.87v2.22h-2.89v4.5c0,.99,.55,1.48,1.35,1.48,.4,0,.87-.13,1.25-.32l.72,2.2c-.74,.3-1.35,.42-2.13,.44-2.26,.08-3.74-1.2-3.74-3.8v-4.5h-1.94v-2.22h1.94v-2.68l2.58-.27Z"/><path class="d" d="M461.36,359.12l-6.36,14.77h-2.83l1.94-4.52-4.16-10.25h3l1.58,4.5,.99,2.94,1.08-2.87,1.9-4.56h2.85Z"/></g><g><path class="d" d="M140.31,37.96V13.83c0-.45,.14-.81,.41-1.08s.63-.41,1.08-.41h7.82c.45,0,.81-.14,1.08-.41s.41-.63,.41-1.09v-1.4c0-.45-.14-.81-.41-1.08s-.63-.41-1.08-.41h-9.58c-.45,0-.81-.14-1.08-.41s-.41-.63-.41-1.08V3.84c0-.45,.14-.81,.41-1.09,.27-.27,.63-.41,1.08-.41h38.01c.45,0,.81,.14,1.09,.41,.27,.27,.41,.63,.41,1.09v2.62c0,.45-.14,.81-.41,1.08s-.63,.41-1.09,.41h-10.53c-.45,0-.81,.14-1.08,.41s-.41,.63-.41,1.08v1.4c0,.45,.14,.81,.41,1.09s.63,.41,1.08,.41h8.81c.45,0,.81,.14,1.09,.41,.27,.27,.41,.63,.41,1.08v24.13c0,.45-.14,.81-.41,1.08s-.63,.41-1.09,.41h-34.53c-.45,0-.81-.14-1.08-.41-.27-.27-.41-.63-.41-1.08Zm7.86-4.38h21.78c.45,0,.81-.14,1.08-.41s.41-.63,.41-1.08v-1.36c0-.99-.53-1.4-1.58-1.22-.48,.12-1.08,.18-1.81,.18h-3.75c-1.54,0-2.65-.24-3.34-.72-.75-.45-1.13-1.28-1.13-2.49v-7.01c0-.84-.42-1.27-1.27-1.27s-1.31,.42-1.4,1.27c-.21,2.5-.85,4.65-1.92,6.44-1.07,1.79-2.61,3.43-4.63,4.9-.18,.15-.42,.23-.72,.23s-.52-.08-.66-.25c-.14-.17-.22-.26-.25-.27-.03-.01-.06-.05-.09-.11l-.36-.41-.99-.99c-.24-.24-.45-.32-.61-.25-.17,.08-.25,.28-.25,.61v2.71c0,.45,.14,.81,.41,1.08s.63,.41,1.08,.41Zm.59-9.58c1.11-1.2,1.82-2.62,2.12-4.25,.09-.45,0-.82-.27-1.11-.27-.29-.65-.43-1.13-.43h-1.31c-.45,0-.81,.14-1.08,.41s-.41,.63-.41,1.08v3.89c0,.87,.24,1.31,.72,1.31,.33,0,.78-.3,1.36-.9Zm9.81-11.66c.84,0,1.27-.42,1.27-1.27v-1.85c0-.84-.42-1.27-1.27-1.27s-1.27,.42-1.27,1.27v1.85c0,.84,.42,1.27,1.27,1.27Zm8.27,11.21h.54c.42,0,.69-.2,.81-.59,.12-.3,.24-.89,.36-1.76,.06-.48,.3-.62,.72-.41l1.4,.59c.51,.15,.77-.03,.77-.54v-1.13c0-.45-.14-.81-.41-1.08s-.63-.41-1.08-.41h-2.44c-.45,0-.81,.14-1.08,.41s-.41,.63-.41,1.08v2.98c.12,.48,.23,.75,.32,.79s.26,.07,.5,.07Z"/><path class="d" d="M186.32,40l-.54-1.04c-.09-.18-.23-.41-.43-.7-.2-.29-.4-.58-.61-.88-.45-.72-.83-1.2-1.13-1.45-.42-.57-.32-.95,.32-1.13,4.49-1.39,7.83-3.4,10.03-6.06,2.17-2.65,3.47-6.27,3.89-10.85,.06-.48-.05-.87-.32-1.15-.27-.29-.65-.41-1.13-.38l-8.86,.27c-.45,.03-.81-.09-1.08-.36s-.42-.63-.45-1.08l-.09-3.57c-.03-.45,.09-.81,.36-1.09s.63-.42,1.09-.45l9.26-.14c.42-.03,.77-.18,1.04-.45s.41-.62,.41-1.04V1.45c0-.45,.14-.81,.41-1.08,.27-.27,.63-.41,1.08-.41h3.75c.45,0,.81,.14,1.08,.41,.27,.27,.41,.63,.41,1.08v6.82c0,.45,.14,.81,.41,1.08s.63,.39,1.09,.36l10.12-.23c.6,0,.9,.32,.9,.95l-.09,.95-.23,3.89c-.06,.9-.14,2.37-.23,4.41-.09,2.03-.18,3.86-.27,5.49l-.36,7.05c-.06,.93,.35,1.4,1.22,1.4,.69,0,1.24-.12,1.63-.36,.54-.36,.93-1.48,1.18-3.34,.06-.72,.35-1.08,.86-1.08,.27,0,.62,.12,1.04,.36,.48,.24,1.67,.68,3.57,1.31,.33,.09,.6,.28,.81,.57,.21,.29,.27,.8,.18,1.54s-.26,1.62-.5,2.64c-.24,1.02-.62,1.93-1.13,2.71-1.11,1.72-2.86,2.58-5.24,2.58h-5.24c-2.02,0-3.5-.33-4.43-.99-.93-.66-1.36-1.88-1.27-3.66l.59-9.99c.06-1.14,.13-2.4,.2-3.77,.08-1.37,.16-2.9,.25-4.59,.03-.48-.09-.87-.36-1.15-.27-.29-.65-.41-1.13-.38l-2.26,.05c-.9,.06-1.39,.53-1.45,1.4-.48,5.85-2.03,10.61-4.65,14.28-2.65,3.77-6.69,6.73-12.11,8.9-.33,.15-.64,.16-.93,.02-.29-.14-.5-.35-.66-.66Z"/><path class="d" d="M235.53,12.02l-.05,1.94c-.12,1.6-.26,3.21-.43,4.84-.17,1.63-.46,3.21-.88,4.75-.12,.42-.35,.72-.68,.88-.33,.17-.66,.2-.97,.11-.32-.09-.59-.17-.84-.25-.24-.08-.5-.14-.77-.2-.45-.12-.92-.21-1.4-.27-1.02-.12-1.4-.63-1.13-1.54,.48-2.05,.87-5,1.18-8.86,.03-.27,.05-.53,.05-.79s0-.56,.02-.9c.01-.35,.16-.66,.43-.93,.27-.27,.63-.39,1.08-.36l3.03,.14c.9,.06,1.36,.54,1.36,1.45Zm-2.85,28.16c-.75-.84-1.63-1.6-2.62-2.26-.93-.72-.98-1.45-.14-2.17,2.44-2.26,4.13-4.72,5.06-7.37,.84-2.35,1.27-5.32,1.27-8.9V1.54c0-.45,.14-.81,.41-1.09s.63-.41,1.08-.41h3.57c.45,0,.81,.14,1.08,.41,.27,.27,.41,.63,.41,1.09V9.58c0,.99,.41,1.49,1.22,1.49,.24,0,.5-.05,.77-.14l1.22-.45c.69-.21,1.16-.03,1.4,.54l.68,1.45c.09,.21,.17,.42,.23,.63,.3,.75,.45,.72,.45-.09V2.49c0-.45,.14-.81,.41-1.08,.27-.27,.63-.41,1.08-.41h3.57c.45,0,.81,.14,1.08,.41s.41,.63,.41,1.08v7.23c0,.99,.41,1.49,1.22,1.49,.24,0,.5-.05,.77-.14l1.31-.5c.81-.27,1.39-.05,1.72,.68,.3,.6,.54,1.15,.72,1.63,.39,1.15,.65,1.72,.77,1.72s.18-.26,.18-.77V1.49c0-.45,.14-.81,.41-1.09s.63-.41,1.08-.41h3.62c.45,0,.81,.14,1.08,.41s.41,.63,.41,1.09V39.41c0,.45-.14,.81-.41,1.09-.27,.27-.63,.41-1.08,.41h-3.62c-.45,0-.81-.14-1.08-.41-.27-.27-.41-.63-.41-1.09v-15.32c0-.69-.35-.95-1.04-.77l-1.04,.32c-.42,.09-.74,.2-.95,.32-.57,.18-.93-.03-1.08-.63-.33-1.2-.5-1.89-.52-2.06-.02-.17-.05-.32-.11-.47l-.77-2.58c-.12-.27-.23-.55-.32-.84-.09-.29-.19-.62-.29-.99-.11-.38-.23-.56-.36-.56s-.2,.27-.2,.81v19.57c0,.45-.14,.81-.41,1.08s-.63,.41-1.08,.41h-3.57c-.45,0-.81-.14-1.08-.41-.27-.27-.41-.63-.41-1.08v-12.07c0-.66-.32-.9-.95-.72l-.95,.27-.81,.32c-.54,.15-.87-.05-.99-.59-.06-.24-.12-.48-.18-.72-.06-.24-.12-.5-.18-.77l-.86-3.03c-.21-.57-.38-1.08-.5-1.54-.12-.45-.24-.68-.36-.68s-.18,.26-.18,.77v2.03c0,8.68-2.65,15.61-7.95,20.79-.3,.3-.63,.45-.99,.45s-.75-.18-1.18-.54Z"/><path class="d" d="M278.11,11.16l-.27-.72s-.02-.06-.04-.09c-.21-.51-.05-.84,.5-.99l.54-.18c.87-.24,.86-.36-.05-.36h-1.99c-.45,0-.81-.14-1.08-.41-.27-.27-.41-.63-.41-1.08v-2.03c0-.45,.14-.81,.41-1.08s.63-.41,1.08-.41h3.71c.45,0,.81-.14,1.09-.41s.41-.63,.41-1.08V1.22c0-.45,.14-.81,.41-1.09s.63-.41,1.08-.41h3.53c.45,0,.81,.14,1.09,.41s.41,.63,.41,1.09v1.08c0,.45,.14,.81,.41,1.08s.63,.41,1.08,.41h3.48c.45,0,.81,.14,1.08,.41s.41,.63,.41,1.08v2.03c0,.45-.14,.81-.41,1.08-.27,.27-.63,.41-1.08,.41h-2.21c-.51,0-.78,.04-.79,.11-.02,.08,.23,.17,.75,.29l.77,.23c.57,.15,.78,.51,.63,1.08-.03,.24-.11,.53-.23,.86l-.36,.86c-.21,.6,0,.9,.63,.9h1.49c.45,0,.81,.14,1.09,.41s.41,.63,.41,1.09v2.12c0,.45-.14,.81-.41,1.09s-.63,.41-1.09,.41h-4.75c-.33,0-.59,.1-.79,.29-.2,.2-.29,.46-.29,.79s.1,.59,.29,.79c.2,.2,.46,.29,.79,.29h3.66c.45,0,.81,.14,1.08,.41s.41,.63,.41,1.08v2.53c0,.45-.14,.81-.41,1.08s-.63,.41-1.08,.41h-1.49c-.54,0-.87,.12-.97,.36-.11,.24-.04,.47,.2,.68,.24,.21,.44,.39,.59,.54l.68,.54c1.18,1.18,2,1.76,2.49,1.76s.8-.33,.95-.99c.6-3.16,.9-6.67,.9-10.53V4.7c0-.45,.14-.81,.41-1.08s.76-.42,1.47-.45c.71-.03,1.62-.11,2.73-.25,1.11-.14,2.23-.32,3.34-.56,2.44-.54,4.52-1.2,6.24-1.99,.24-.09,.53-.14,.88-.14s.68,.21,1.02,.63l2.12,2.89c.33,.45,.44,.88,.32,1.29-.12,.41-.44,.7-.95,.88-3.47,1.24-6.73,1.99-9.81,2.26-.9,.12-1.36,.63-1.36,1.54v2.26c0,.45,.14,.81,.41,1.09,.27,.27,.63,.41,1.08,.41h9.31c.45,0,.81,.14,1.09,.41s.41,.63,.41,1.08v3.03c0,.45-.14,.81-.41,1.09s-.63,.41-1.09,.41h-.41c-.45,0-.81,.14-1.09,.41-.27,.27-.41,.63-.41,1.08v18.71c0,.45-.14,.81-.41,1.09s-.63,.41-1.08,.41h-3.39c-.45,0-.81-.14-1.08-.41s-.41-.63-.41-1.09V20.74c0-.84-.42-1.27-1.27-1.27s-1.27,.42-1.27,1.27c-.21,5.97-1.31,10.98-3.3,15.05-.75,1.54-1.69,3.03-2.8,4.47-.3,.36-.65,.54-1.04,.54s-.72-.09-.99-.27c-.27-.18-.53-.36-.77-.54-.48-.33-1.24-.77-2.26-1.31-.42-.21-.66-.47-.72-.79-.06-.32,.15-.75,.63-1.29,1.14-1.24,2.09-2.7,2.85-4.38,.15-.36,.17-.57,.07-.63-.11-.06-.31,.08-.61,.41-.63,.66-1.21,1.36-1.72,2.08-.18,.27-.4,.41-.66,.41s-.47-.09-.66-.27l-.72-.68c-.15-.15-.31-.3-.47-.45-.17-.15-.35-.32-.54-.52-.2-.2-.35-.29-.47-.29-.21,0-.32,.23-.32,.68v6.46c0,.45-.14,.81-.41,1.09-.27,.27-.63,.41-1.08,.41h-3.12c-.45,0-.81-.14-1.09-.41-.27-.27-.41-.63-.41-1.09v-5.33c0-.72-.13-1.08-.38-1.08s-.53,.18-.81,.54c-.29,.36-.54,.69-.75,.99-.45,.6-1.15,1.37-2.08,2.3-.27,.3-.59,.45-.95,.45s-.68-.14-.95-.41c-.63-.63-1.15-1.09-1.54-1.36-.39-.27-.68-.48-.86-.63-.72-.45-.77-.98-.14-1.58,1.18-.96,2.52-2.41,4.02-4.34,.12-.18,.21-.3,.27-.36l.59-.77c.06-.06,.1-.12,.14-.18,.03-.06,.14-.22,.34-.47,.2-.26,.21-.53,.04-.81-.17-.29-.53-.43-1.11-.43h-1.49c-.45,0-.81-.14-1.09-.41s-.41-.63-.41-1.08v-2.53c0-.45,.14-.81,.41-1.08s.63-.41,1.09-.41h4.56c.33,0,.59-.1,.79-.29,.2-.2,.29-.46,.29-.79s-.1-.59-.29-.79c-.2-.2-.46-.29-.79-.29h-5.42c-.45,0-.81-.14-1.09-.41s-.41-.63-.41-1.09v-2.12c0-.45,.14-.81,.41-1.09s.63-.41,1.09-.41h1.9c.33,0,.57-.09,.7-.27,.14-.18,.16-.42,.07-.72l-.27-.99Zm5.88,1.29c.15,.47,.53,.7,1.15,.7s1.03-.3,1.24-.9l.59-1.45c.03-.06,.04-.1,.04-.14s.01-.06,.05-.09l.14-.54c.06-.06,.12-.19,.18-.38,.06-.2,.02-.38-.11-.57-.14-.18-.37-.27-.7-.27h-2.8c-.69,0-.92,.33-.68,.99,.06,.15,.12,.32,.18,.5,.06,.18,.12,.38,.18,.59,.21,.57,.39,1.09,.54,1.56Z"/><path class="d" d="M326.2,39.41v-3.84c0-.45-.14-.81-.41-1.08s-.63-.41-1.08-.41h-4.07c-.45,0-.81-.14-1.09-.41-.27-.27-.41-.63-.41-1.09v-2.21c0-.45,.14-.81,.41-1.09s.63-.41,1.09-.41h4.38c.33,0,.61-.11,.84-.34,.23-.23,.34-.51,.34-.86s-.11-.63-.34-.86c-.23-.23-.5-.34-.84-.34h-3.53c-.45,0-.81-.14-1.09-.41s-.41-.63-.41-1.08V11.89c0-.45,.14-.81,.41-1.09,.27-.27,.63-.41,1.09-.41h3.66c.69,0,1.04-.35,1.04-1.06s-.35-1.06-1.04-1.06h-4.43c-.45,0-.81-.14-1.08-.41s-.41-.63-.41-1.08v-2.03c0-.45,.14-.81,.41-1.09,.27-.27,.63-.41,1.08-.41h3.98c.45,0,.81-.14,1.08-.41s.41-.63,.41-1.08v-.32c0-.45,.14-.81,.41-1.08,.27-.27,.63-.41,1.09-.41h3.03c.45,0,.81,.14,1.09,.41,.27,.27,.41,.63,.41,1.08v.32c0,.45,.14,.81,.41,1.08s.63,.41,1.08,.41h3.53c.45,0,.81,.14,1.09,.41,.27,.27,.41,.63,.41,1.09v2.03c0,.45-.14,.81-.41,1.08s-.63,.41-1.09,.41h-3.93c-.72,0-1.09,.35-1.09,1.06s.36,1.06,1.09,1.06h5.06v.23c2.83-2.71,5.23-6,7.19-9.85,.3-.69,.83-.99,1.58-.9l4.07,.59c.45,.06,.8,.29,1.04,.68,2.56,3.71,5.5,6.7,8.81,8.99,.42,.24,.65,.54,.68,.88,.03,.35-.07,.63-.29,.86-.23,.23-.37,.38-.43,.47l-.54,.54c-.66,.78-1.3,1.6-1.9,2.44-.09,.21-.24,.24-.45,.09l-.59-.41c-.18-.12-.27-.06-.27,.18v2.21c0,.45-.14,.81-.41,1.09s-.63,.41-1.08,.41h-1.54c-.45,0-.81,.14-1.08,.41s-.41,.63-.41,1.08v1.49c0,.45,.14,.81,.41,1.09,.27,.27,.63,.41,1.08,.41h4.65c.45,0,.81,.14,1.09,.41,.27,.27,.41,.63,.41,1.08v2.85c0,.45-.14,.81-.41,1.08-.27,.27-.63,.41-1.09,.41h-4.65c-.45,0-.81,.14-1.08,.41s-.41,.63-.41,1.09v8.72c0,.45-.14,.81-.41,1.09s-.63,.41-1.08,.41h-3.21c-.45,0-.81-.14-1.08-.41-.27-.27-.41-.63-.41-1.09v-8.72c0-.45-.14-.81-.41-1.09s-.63-.41-1.08-.41h-3.89c-.45,0-.81-.14-1.08-.41s-.41-.63-.41-1.08v-2.85c0-.45,.14-.81,.41-1.08s.63-.41,1.08-.41h3.89c.45,0,.81-.14,1.08-.41,.27-.27,.41-.63,.41-1.09v-1.49c0-.45-.14-.81-.41-1.08s-.63-.41-1.08-.41h-1.31c-.45,0-.81-.14-1.08-.41s-.41-.63-.41-1.09v-2.21c0-.3-.12-.36-.36-.18l-.77,.68c-.24,.24-.48,.24-.72,0l-1.4-1.27c-.42-.36-.63-.27-.63,.27v10.31c0,.45-.14,.81-.41,1.08s-.63,.41-1.08,.41h-3.44c-.36,0-.66,.11-.88,.34s-.34,.51-.34,.86,.11,.63,.34,.86c.23,.23,.52,.34,.88,.34h4.34c.45,0,.81,.14,1.08,.41s.41,.63,.41,1.09v2.21c0,.45-.14,.81-.41,1.09-.27,.27-.63,.41-1.08,.41h-4.07c-.45,0-.81,.14-1.08,.41s-.41,.63-.41,1.08v3.84c0,.45-.14,.81-.41,1.09-.27,.27-.63,.41-1.09,.41h-3.03c-.45,0-.81-.14-1.09-.41-.27-.27-.41-.63-.41-1.09Zm.59-23.09h4.75c.57,0,.86-.29,.86-.86s-.29-.86-.86-.86h-4.75c-.57,0-.86,.29-.86,.86s.29,.86,.86,.86Zm0,5.88h4.75c.57,0,.86-.29,.86-.86s-.29-.86-.86-.86h-4.75c-.57,0-.86,.29-.86,.86s.29,.86,.86,.86Zm19.03-8.59h5.97c1.2,0,1.9-.24,2.08-.72,.18-.48-.15-1.16-.99-2.03-.9-.96-1.75-1.96-2.53-2.98-.42-.51-.85-.77-1.29-.77s-.85,.32-1.24,.95c-.81,1.18-1.76,2.41-2.85,3.71-.48,.57-.66,1.02-.52,1.36,.14,.33,.59,.5,1.38,.5Z"/><path class="d" d="M370.76,39.55v-10.98c0-1.05-.09-1.05-.27,0-.06,.27-.12,.54-.18,.81-.06,.27-.14,.64-.25,1.11s-.23,1-.38,1.6c-.45,1.54-.77,2.58-.95,3.12-.39,.99-1.01,1.33-1.85,.99-.21-.06-.42-.14-.63-.23-.24-.09-.57-.18-.97-.27-.41-.09-.72-.17-.93-.23-.84-.15-1.1-.62-.77-1.4,.81-1.96,1.54-4.46,2.17-7.5,.21-1.02,.81-1.45,1.81-1.27l1.85,.41c.42,.09,.75,.03,1-.18,.24-.21,.36-.53,.36-.95s-.12-.74-.36-.95c-.24-.21-.57-.29-1-.23l-3.16,.41c-.9,.12-1.42-.27-1.54-1.18l-.5-3.84c-.06-.36,.09-.54,.45-.54l.54-.04h.63c.39,0,.7-.12,.93-.36,.23-.24,.44-.47,.63-.7,.2-.23,.4-.46,.61-.7l.9-1.04c.54-.72,.45-1.36-.27-1.9-.3-.24-.61-.47-.93-.7s-.64-.45-.97-.68c-.33-.23-.64-.44-.93-.63s-.61-.4-.97-.61c-.36-.21-.59-.51-.68-.9-.09-.39,0-.8,.27-1.22l1.94-2.98c.15-.21,.33-.26,.54-.14l.68,.36c.21,.15,.38,.12,.5-.09l1.08-1.9c.24-.42,.47-.83,.68-1.22l.59-1.22c.12-.18,.27-.51,.45-.99,.33-.63,.83-.83,1.49-.59l2.49,1.04c.48,.18,.79,.47,.93,.86,.14,.39,.07,.8-.2,1.22l-1.36,2.31c-.69,1.18-1.39,2.24-2.08,3.21-.12,.24-.08,.41,.14,.5l.23,.18h.04l.05,.05h.04l.23,.18c.18,.15,.33,.14,.45-.05,1.33-1.93,2.32-3.45,2.98-4.57,.3-.48,.65-.72,1.04-.72s.71,.06,.95,.18l2.31,1.18c.93,.54,1.11,1.22,.54,2.03-1.75,2.74-4.11,5.92-7.1,9.54-.3,.42-.2,.6,.32,.54l1.58-.14c.48-.06,.63-.3,.45-.72-.06-.06-.1-.12-.11-.18-.02-.06-.04-.12-.07-.18-.33-.69-.17-1.2,.5-1.54l2.17-1.04c.24-.09,.45-.14,.63-.14,.54,0,.94,.22,1.2,.66,.26,.44,.47,.84,.63,1.22,.17,.38,.31,.69,.43,.93,.39,.9,.65,1.36,.79,1.36s.2-.26,.2-.77V4.97c0-.45,.14-.81,.41-1.08,.27-.27,.63-.41,1.08-.41h3.71c.69,0,1.14-.33,1.36-.99,.06-.21,.11-.42,.16-.63,.05-.21,.1-.42,.16-.63,.06-.21,.1-.4,.11-.57,.01-.17,.04-.32,.07-.47,.15-.66,.54-.96,1.18-.9l4.66,.5c.57,.06,.78,.38,.63,.95-.06,.12-.11,.25-.16,.38-.05,.14-.1,.28-.16,.43l-.45,.95c-.24,.66-.03,.99,.63,.99h6.73c.45,0,.81,.14,1.09,.41,.27,.27,.41,.63,.41,1.08v14.1c0,.45-.14,.81-.41,1.08-.27,.27-.63,.41-1.09,.41h-5.74c-.48,0-.72,.24-.72,.72v.45c0,.39,.41,1.34,1.22,2.85,.18,.33,.39,.5,.63,.5s.45-.07,.63-.2c.18-.14,.37-.29,.57-.45,.2-.17,.38-.34,.54-.52,.17-.18,.29-.32,.38-.41l.95-.95c.33-.33,.66-.5,.97-.5s.62,.12,.93,.36l1.76,1.54c.36,.3,.55,.65,.57,1.04s-.11,.72-.36,.97c-.26,.26-.48,.47-.68,.66-.2,.18-.41,.38-.63,.61-.23,.23-.45,.44-.68,.63s-.49,.43-.79,.7-.47,.59-.52,.97c-.05,.38,.17,.81,.65,1.29,.75,.84,2.05,1.99,3.89,3.44,.72,.6,.74,1.19,.04,1.76-.15,.15-.32,.31-.5,.47-.18,.17-.36,.34-.54,.52-.33,.3-.66,.66-1,1.06-.33,.41-.7,.61-1.11,.61s-.73-.12-.97-.36c-1.45-1.18-2.94-2.83-4.47-4.97-.39-.54-.74-.81-1.04-.81s-.45,.44-.45,1.31v2.58c0,2.5-1.13,3.98-3.39,4.43-.69,.12-1.45,.18-2.26,.18h-1.22c-.36,0-.66-.11-.9-.34-.24-.23-.39-.58-.45-1.06-.12-1.08-.33-2.17-.63-3.25-.21-.6,0-.9,.63-.9h.99c.6,0,1.02-.08,1.24-.25s.34-.52,.34-1.06v-7.55c0-.87-.04-1.32-.11-1.33-.08-.01-.23,.4-.47,1.24-.51,2.14-1.32,4.27-2.42,6.4-1.1,2.12-2.4,4-3.91,5.63-.27,.3-.59,.45-.97,.45s-.69-.11-.93-.32c-.72-.69-1.51-1.28-2.35-1.76s-.93-1.02-.27-1.63c.54-.48,.98-.92,1.31-1.31,.33-.39,.47-.62,.43-.68-.04-.06-.19-.05-.43,.05l-1.54,.68c-.51,.3-.84,.17-1-.41l-1.27-5.11c-.09-.42-.17-.62-.23-.61-.06,.02-.09,.23-.09,.66v10.98c0,.45-.14,.81-.41,1.08-.27,.27-.63,.41-1.09,.41h-2.8c-.45,0-.81-.14-1.08-.41s-.41-.63-.41-1.08Zm12.38-11.66c-.78,0-1.18-.39-1.18-1.18v-2.3c0-.45,.14-.81,.41-1.09,.27-.27,.63-.41,1.08-.41h5.83c.33,0,.6,.09,.81,.27,.3,.15,.49,.2,.57,.16s.11-.16,.11-.34v-.95c0-.45-.14-.81-.41-1.09s-.63-.41-1.08-.41h-5.42c-.15,0-.21,.09-.18,.27l.23,.5c.06,.18,.01,.3-.14,.36l-2.21,.95c-.36,.15-.7,.32-1.02,.5s-.64,.36-.97,.54c-.24,.21-.42,.15-.54-.18l-.09-.5-.18-.5c-.12-.33-.35-.47-.68-.41l-1,.18c-.36,.06-.54,.27-.54,.63v.99c0,.45,.14,.79,.41,1.02,.27,.23,.63,.28,1.08,.16l1.4-.41c.45-.12,.84-.08,1.18,.14,.33,.21,.54,.5,.63,.86,.24,.9,.42,1.51,.54,1.81l.54,1.85c.18,.54,.39,.81,.63,.81s.48-.21,.72-.63c.03-.03,.05-.08,.05-.14,.51-.99,.32-1.49-.59-1.49Zm6.78-17.94h7.41c.27,0,.5-.09,.68-.27,.18-.18,.27-.41,.27-.7s-.09-.52-.27-.7c-.18-.18-.41-.27-.68-.27h-7.41c-.3,0-.54,.09-.72,.27s-.27,.41-.27,.68c0,.66,.33,.99,1,.99Zm0,6.1h7.41c.27,0,.5-.09,.68-.27,.18-.18,.27-.41,.27-.7s-.09-.52-.27-.7c-.18-.18-.41-.27-.68-.27h-7.41c-.3,0-.54,.09-.72,.27-.18,.18-.27,.41-.27,.68,0,.66,.33,.99,1,.99Z"/></g><g><g><path class="d" d="M89.54,245.28l.43,5.17c.05,.72,.73,1.31,1.5,1.26,2.25-.17,4.36-.33,6.35-.47l-.51-6.51c-2.41,.17-4.99,.35-7.77,.55Z"/><path class="d" d="M125.22,247.26c-1.4-1.79-4.11-3.87-9.43-3.63-1.43,.06-2.91,.13-4.45,.21l.55,6.49c1.44-.08,2.81-.15,4.14-.22,1.93-.05,3.29,.19,3.87,1.31,.63,.77,.77,2.42,.05,5.12-1.45,4.64-5.51,8.8-9.28,11.75-.53,.44-1.16,.77-1.69,1.16-.19,.19-.24,.48-.1,.68,.14,.24,.48,.29,.73,.1,1.06-.77,2.22-1.55,3.19-2.42,.63-.48,1.16-1.21,1.74-1.69l.77,.53c-.29,.39-.87,.82-.87,.82-1.21,1.35-2.8,2.42-4.3,3.53-.29,.1-.34,.39-.15,.68,.19,.24,.53,.24,.73,.1,1.84-1.4,3.72-2.76,5.32-4.45l.63,.53c-.34,.44-.87,.92-.87,.92-1.35,1.4-3,2.51-4.55,3.63-.24,.19-.29,.43-.1,.68,.15,.19,.48,.24,.68,.1,1.11-.82,2.22-1.5,3.29-2.47l1.4-1.35,.63-.63s.24-.24,.24-.29l.68,.58c0,.1-1.55,1.69-3.19,3.05-.82,.63-1.69,1.21-2.51,1.79-.19,.15-.24,.48-.1,.68,.19,.19,.48,.29,.68,.15,1.16-.82,2.32-1.74,3.38-2.66,3.77-3.19,8.22-7.74,9.96-13.44,1.31-4.88,.87-8.7-1.06-11.31Z"/><path class="c" d="M97.31,244.72l.51,6.51c5.45-.39,10.02-.67,14.07-.9l-.55-6.49c-4.09,.21-8.65,.5-14.03,.88Z"/></g><g><path class="b" d="M165.59,269.74c0,.48,.34,.82,.77,.82s.82-.34,.82-.82v-1.16c-.97,.1-1.6,.68-1.6,1.16Z"/><path class="d" d="M181.26,262.49c-2.42-.68-4.93-.97-7.45-1.06v-5.51c0-.73-.58-1.4-1.4-1.4h-5.17v7.49c-.53,.15-1.11,.24-1.55,.39-3.92,1.16-6.33,3.96-6.33,7.35,0,3.92,3.19,7.2,7.2,7.2s7.25-3.29,7.25-7.2v-1.89c2.13,.1,4.21,.39,6.24,.92,.29,.05,.53-.1,.53-.29,.1-.29-.05-.58-.34-.63-1.55-.43-3.14-.73-4.69-.87-.34,0-.63-.05-1.02-.05-.1,0-.63,.05-.73-.05v-.87c2.22,.1,4.4,.39,6.62,1.02,.19,.05,.44-.1,.48-.39,.1-.29-.1-.53-.34-.58-1.64-.44-3.34-.87-5.03-.92l-1.74-.1v-.87c2.32,.1,4.64,.39,6.91,1.02,.24,.05,.53-.1,.58-.34,.05-.29-.15-.53-.39-.58-1.55-.43-3.09-.68-4.69-.87-.68-.05-1.31-.1-2.03-.1-.05,0-.39,0-.39-.05,0-.63,0-.92,.05-.87,.05-.1,.29-.05,.39,0,.77,0,1.45,.1,2.18,.15,1.55,.19,3.14,.44,4.64,.87,.29,.05,.48-.05,.53-.34,.05-.29-.05-.53-.34-.58Zm-14.07,7.25c0,.48-.39,.82-.82,.82s-.77-.34-.77-.82,.63-1.06,1.6-1.16v1.16Z"/><path class="d" d="M183.82,244.41c-3.43-2.95-6.43-3.82-9.72-4.26-2.18-.34-4.45-.19-6.67-.1-.24,0-.44,.24-.44,.53,0,.24,.24,.43,.48,.43,1.31-.05,2.66-.19,3.96-.19,.73,.05,1.45,.1,2.13,.19,.39,.1,.87,.15,1.26,.29l-.19,.82-.39-.05c-1.11-.29-2.22-.29-3.34-.34-1.11,0-2.27,.1-3.38,.14-.24,0-.44,.24-.44,.53,0,.24,.24,.44,.48,.44,2.32-.1,4.54-.34,6.82,.24l-.24,.82-.29-.05c-1.02-.29-2.03-.39-3.14-.34l-3.09,.19c-.24,0-.44,.24-.44,.53,0,.19,.19,.39,.48,.34,1.11,0,2.27-.1,3.34-.1,.63,0,1.26,.05,1.84,.1l1.06,.19-.19,.82c-.1,0-.68-.19-1.64-.24-1.45-.05-2.9,.1-4.35,.14-.29,0-.44,.24-.44,.53,0,.24,.19,.44,.48,.44,1.45-.1,3-.24,4.45-.15,3.48,.24,6.09,1.5,8.56,3.72l3.14-3.67c.53-.63,.48-1.45-.1-1.98Z"/><path class="d" d="M157.66,238.22c.05-.73-.48-1.45-1.21-1.5l-5.17-.48s-.24,2.27-.77,5.61l6.77-.53c.19-1.31,.29-2.32,.39-3.09Z"/><path class="d" d="M147.41,256.69c-.19,.73,.29,1.5,1.02,1.64l5.13,1.11c1.16-4.11,1.98-8.07,2.61-11.51l-6.87,.58c-.53,2.51-1.11,5.37-1.89,8.17Z"/><path class="c" d="M160.52,242.43c-.1-.82-.73-1.31-1.55-1.26l-1.69,.15-6.77,.53-4.3,.39,.44,5.13c.05,.72,.73,1.31,1.5,1.26l1.16-.1,6.87-.58,4.74-.43-.39-5.08Z"/></g><g><path class="b" d="M276.95,249.1c-1.35,1.31-2.8,2.61-3.82,3.58l.63,.58,3.82-3.53c1.4-1.26,2.76-2.56,3.72-3.63v-1.21l-.68,.63c-.97,.97-2.27,2.27-3.67,3.58Z"/><path class="b" d="M275.74,255.19l.63,.63c1.06-.97,2.37-2.13,3.72-3.43l1.21-1.11v-1.26l-1.79,1.74-3.77,3.43Z"/><path class="b" d="M278.21,250.4c-1.35,1.31-2.71,2.61-3.77,3.53l.58,.58c1.06-.92,2.47-2.18,3.77-3.43l2.51-2.37v-1.21c-.87,.92-1.98,1.89-3.09,2.9Z"/><path class="d" d="M280.1,252.39c-1.35,1.31-2.66,2.47-3.72,3.43l-.63-.63,3.77-3.43,1.79-1.74v-1.31l-2.51,2.37c-1.31,1.26-2.71,2.51-3.77,3.43l-.58-.58c1.06-.92,2.42-2.22,3.77-3.53,1.11-1.02,2.22-1.98,3.09-2.9v-1.4c-.97,1.06-2.32,2.37-3.72,3.63l-3.82,3.53-.63-.58c1.02-.97,2.47-2.27,3.82-3.58,1.4-1.31,2.71-2.61,3.67-3.58l.68-.63v-1.35l-1.35,1.35-1.64,1.64-1.98,1.93-3.87,3.48c-.87,.77-1.45,1.35-1.64,1.55-.24,.14-.44,.34-.68,.48-.24,.15-.58,0-.58-.24v-10.98c0-.77-.58-1.4-1.35-1.4h-5.17v15.18c0,3.14,1.69,4.4,2.76,4.88,.63,.29,1.31,.43,1.98,.43,2.51,0,5.32-1.93,7.4-3.72,.29-.24,.92-.77,1.64-1.45,1.06-1.02,2.51-2.32,3.92-3.58l.58-.53v-1.31l-1.21,1.11Z"/><path class="d" d="M281.3,259.78c0,6.91-6.43,11.75-8.12,12.96-.24,.15-.29,.43-.1,.68,.15,.24,.48,.24,.73,.1,1.26-.82,2.47-1.89,3.53-3,.39-.39,.77-.87,1.16-1.26l.68,.53c-1.45,1.64-3.09,3.19-4.93,4.45-.19,.14-.24,.48-.1,.68,.19,.19,.48,.29,.73,.1,1.31-.92,2.61-2.03,3.77-3.19,.44-.48,.87-.92,1.26-1.45,0,0,.58,.53,.68,.58-1.6,1.79-3.24,3.38-5.22,4.79-.19,.15-.29,.44-.1,.63,.15,.24,.48,.29,.68,.15,1.45-1.02,2.8-2.22,4.01-3.48,.43-.43,.92-.92,1.35-1.45,.05-.05,.58,.48,.68,.58-1.64,1.84-3.43,3.58-5.51,5.03-.24,.14-.29,.48-.1,.68,.15,.19,.44,.24,.68,.05,2.76-1.89,10.78-8.32,10.78-18.13v-1.63h-6.53v1.63Z"/><path class="c" d="M286.48,234.5h-5.17v23.65h6.53v-22.35c0-.77-.63-1.31-1.35-1.31Z"/></g><g><path class="b" d="M320.21,270.66c0,.43,.34,.82,.73,.82,.48,0,.82-.39,.82-.82v-1.21c-.87,.15-1.55,.73-1.55,1.21Z"/><path class="d" d="M335.68,263.36c-2.37-.58-4.79-.92-7.3-1.02v-6.77l4.3-.39-.53-5.17c-.05-.68-.73-1.21-1.5-1.11l-2.27,.15v-4.11l-6.58,.63v4.11l-6.09,.58,.44,5.08c.1,.82,.82,1.35,1.55,1.26l4.11-.39v6.77c-.77,.05-1.21,.19-1.55,.29-3.92,1.16-6.33,4.01-6.33,7.4,0,3.92,3.24,7.16,7.2,7.16s7.25-3.24,7.25-7.16v-1.93c.19,0,.48,0,.87,.05,1.79,.1,3.58,.43,5.37,.92,.19,.1,.44-.05,.48-.34,.05-.29-.1-.53-.39-.58-2.03-.63-4.16-.87-6.33-.97v-.87c.19,0,.58,0,.97,.05,1.89,.14,3.72,.44,5.56,.92,.24,.1,.48-.1,.53-.29,.1-.29-.1-.53-.39-.58-1.26-.39-2.47-.63-3.72-.77-.63-.1-1.26-.24-1.89-.24-.29-.05-.77,0-1.06-.05v-.87c.24,0,.63,0,1.11,.05,1.93,.1,3.87,.48,5.75,1.02,.24,.05,.48-.1,.53-.39,.05-.29-.1-.53-.39-.58-1.26-.34-2.56-.63-3.87-.77-.63-.1-1.31-.15-1.98-.19l-1.16-.1v-.87c.15-.05,.39,0,.58,0,.24,.05,.53,0,.87,.05,.58,0,1.21,.15,1.89,.24,1.26,.14,2.56,.44,3.87,.77,.19,.05,.48-.1,.53-.39,.05-.24-.15-.53-.44-.58Zm-13.92,7.3c0,.43-.34,.82-.82,.82-.39,0-.73-.39-.73-.82,0-.48,.68-1.06,1.55-1.21v1.21Z"/><path class="d" d="M328.38,236c0-.77-.58-1.35-1.35-1.35h-5.22v4.4l6.58-.63v-2.42Z"/><path class="c" d="M332.69,244.55l-.53-5.13c-.05-.73-.73-1.31-1.5-1.26l-2.27,.24-6.58,.63-6.09,.63,.44,5.08c.1,.72,.82,1.26,1.55,1.21l4.11-.39,6.58-.63,4.3-.39Z"/></g><g><path class="d" d="M368.5,238.36c-.1-1.11-.58-1.74-1.64-1.64h-5.03v23.74l6.59-2.52,.08-19.58Z"/><path class="d" d="M390.5,262.97c-.15-.19-.48-.14-.63,.05-.77,.97-1.69,1.79-2.56,2.71l-1.64,1.69c-.39-.39-.63-.58-.63-.68,0-.05,.19-.14,.19-.14l.68-.68c1.16-1.16,2.32-2.27,3.34-3.53,.19-.24,.19-.48,0-.68-.19-.19-.48-.19-.63,0-1.35,1.55-2.8,2.95-4.25,4.35,0,0-.58-.53-.58-.58s.19-.24,.24-.24l.53-.58c1.11-1.21,2.32-2.32,3.38-3.53,.19-.24,.15-.53-.05-.72-.15-.19-.44-.19-.63,0-1.31,1.5-2.76,2.95-4.11,4.4l-.53-.58c-.15-.15-.1-.1,0-.24l1.16-1.11c.97-1.02,1.89-2.03,2.85-3.09,.15-.19,.19-.48,0-.63-.19-.19-.53-.14-.68,.05-.77,.92-1.64,1.69-2.47,2.56l-2.22,2.32c-1.69,1.76-3.45,3.53-5.12,4.77l2.82,5.9c3.03-2.02,6.3-5.26,10.14-9.45l1.45-1.6c.19-.19,.19-.53-.05-.72Z"/><path class="c" d="M372.03,270.47c-2.61-.29-3.63-1.55-3.63-7.74l.02-4.79-6.59,2.52v2.27c0,4.11,0,12.72,9.19,14.26,.44,.1,.92,.1,1.35,.1,2.16,0,4.31-.83,6.59-2.34l-2.82-5.9c-1.49,1.1-2.9,1.77-4.11,1.61Z"/></g><g><path class="d" d="M436.22,244.36l-.39-5.12c-.05-.77-.73-1.35-1.5-1.31l-28.96,2.18,.44,5.03c.05,.77,.68,1.35,1.45,1.31l13.25-.97,8.17-.58,7.54-.53Z"/><path class="d" d="M432.25,274.87c-1.31,.34-2.76,.44-3.96,.39-1.16,0-2.32-.19-3.29-.43l.19-.87c.87,.24,2.03,.43,3.09,.43,1.31,.05,2.56-.19,3.77-.48,.24-.05,.44-.19,.39-.48-.05-.24-.34-.39-.53-.34-2.13,.48-4.45,.58-6.53,0l.15-.87c.77,.19,1.79,.39,2.76,.39,1.16,0,2.32-.15,3.38-.39,.24-.05,.43-.29,.39-.58-.05-.29-.29-.43-.58-.39-1.89,.43-3.87,.58-5.75,.05l.19-.87c.63,.19,1.5,.34,2.42,.34,1.11,0,2.22-.15,2.95-.34,.29-.05,.48-.29,.44-.63-.1-.29-.39-.43-.68-.39-2.22,.58-4.93,.53-6.91-.82-1.6-1.11-2.51-3-2.61-5.46-.01-.27-.01-.55-.01-.82l-6.39,2.87c.56,3.71,2.39,6.77,5.2,8.74,2.27,1.6,5.08,2.42,8.03,2.42,1.35,0,2.71-.19,4.11-.53,.29-.05,.44-.29,.39-.58-.05-.24-.29-.39-.58-.34Z"/><path class="c" d="M428.67,244.89l-8.17,.58c-3.09,5.08-5.85,11.41-5.56,17.94,.03,.6,.08,1.18,.17,1.76l6.39-2.87c.04-4.81,2.41-10.55,7.17-17.41Z"/></g><g><path class="b" d="M230.8,267.04c1.35-.29,2.61-.82,3.58-1.4l-.29-.82c-.92,.53-2.22,1.11-3.43,1.4-.63,.15-1.21,.15-1.74,.15-.15-.05-.24-.1-.39-.1-.05,.29-.15,.53-.24,.87,.19,0,.39,.05,.53,.05,.68,.05,1.31,0,1.98-.14Z"/><path class="b" d="M212.82,270.13l.92,1.26,.87,1.26,.73-.58-.87-1.21c-.24-.39-.58-.82-.92-1.31-.24-.39-.53-.82-.87-1.21l-.44,.92,.58,.87Z"/><path class="b" d="M213.35,267.62l.97,1.45c.34,.44,.63,.87,.87,1.21l.87,1.21,.73-.48-.87-1.21-1.84-2.61c-.15-.29-.34-.58-.48-.82l-.44,.97,.19,.29Z"/><path class="b" d="M214.9,266.6c.29,.53,.63,1.02,.97,1.45,.29,.39,.58,.82,.87,1.16l.82,1.16,.68-.53-1.64-2.27-.97-1.4-1.21-1.89-.39,1.02,.87,1.31Z"/><path class="b" d="M231.19,268.78c1.45-.34,2.85-.82,3.87-1.4l-.29-.82c-1.02,.53-2.32,1.16-3.77,1.45-.73,.1-1.5,.1-2.22,.1-.24,0-.48-.05-.73-.05l-.24,.77c.29,.05,.58,.15,.92,.15,.77,.05,1.64,0,2.47-.19Z"/><path class="b" d="M231.39,269.74c-.87,.19-1.84,.24-2.76,.19-.39-.05-.77-.1-1.11-.19l-.34,.82c.48,.15,.87,.24,1.4,.24,.97,.14,2.03,0,2.95-.19,1.64-.34,3.09-.97,4.21-1.55l-.34-.82c-1.11,.53-2.47,1.16-4.01,1.5Z"/><path class="d" d="M202.33,272.89l4.5,2.85c.68,.44,1.55,.24,1.93-.39,.39-.62,.93-1.45,1.55-2.5l-5.64-3.52c-1.33,2.26-2.32,3.53-2.34,3.56Z"/><path class="d" d="M237.04,238.46c.53,.44,1.21,1.16,1.89,1.84,.58,.72,1.21,1.45,1.5,2.13l.29,.63c.15,.19,.44,.29,.68,.19,.19-.1,.34-.39,.24-.58-.1-.24-.24-.44-.39-.68-.39-.73-.97-1.5-1.6-2.27-.68-.77-1.45-1.4-2.03-2.03l-.63-.48c-.19-.15-.53-.05-.68,.1-.15,.24-.1,.53,.1,.73l.63,.43Z"/><path class="d" d="M235.83,239.86c.48,.44,1.21,.97,1.74,1.69,.58,.63,1.06,1.26,1.31,1.74l.24,.44c.1,.29,.39,.29,.58,.24,.24-.1,.34-.34,.24-.58l-.24-.58c-.29-.53-.87-1.21-1.45-1.93-.53-.63-1.26-1.31-1.79-1.69l-.58-.48c-.19-.19-.53-.14-.63,.1-.15,.15-.1,.44,.1,.63l.48,.43Z"/><path class="d" d="M230.13,240.54l-2.85,4.16c-.39,.58-.24,1.4,.39,1.84,3.92,2.51,8.17,7.78,8.65,12.04,.24,2.13-.39,3.72-2.03,5.03l-.63,.39c-.87,.58-2.13,1.02-3.14,1.26-.58,.15-1.06,.15-1.5,.15-.15,0-.24-.05-.29-.05,.58-2.85,.77-6.14,0-9.19-1.16-4.4-4.79-6.62-10.78-6.24,.29-2.37,.44-4.55,.44-6.82v-6.96c0-.73-.63-1.4-1.4-1.4h-5.17v8.36c0,2.42-.19,4.69-.53,7.16,0,0-3.43,.34-5.95,.53-1.5,.1-4.5,.39-4.5,.39l.44,4.83c.1,.73,.77,1.31,1.55,1.26l3.14-.29c1.35-.1,2.66-.29,4.06-.39l6.87-.44h1.06c3.96,0,4.21,.92,4.4,1.69,1.02,3.72,0,8.17-1.64,11.6-.58,.87-1.31,.43-1.74-.19l-.77-1.11c-.29-.29-.53-.73-.82-1.11-.34-.48-.63-.92-.92-1.4-.58-.92-1.16-1.79-1.6-2.47l-.44,1.11,1.21,1.89,.97,1.4,1.64,2.27-.68,.53-.82-1.16c-.29-.34-.58-.77-.87-1.16-.34-.43-.68-.92-.97-1.45l-.87-1.31-.44,1.06c.14,.24,.34,.53,.48,.82l1.84,2.61,.87,1.21-.73,.48-.87-1.21c-.24-.34-.53-.77-.87-1.21l-.97-1.45-.19-.29-.48,1.02c.34,.39,.63,.82,.87,1.21,.34,.48,.68,.92,.92,1.31l.87,1.21-.73,.58-.87-1.26-.92-1.26-.58-.87-.48,.97,.29,.39,.92,1.35c.48,.68,.82,1.11,.92,1.16,.82,1.11,3.14,4.35,6.58,4.35,.15,0,.34,0,.53-.05,1.5-.15,3.63-1.06,5.13-4.35,.19-.34,.48-.92,.77-1.6,.48,.14,1.02,.24,1.6,.29,1.11,.1,2.22-.05,3.24-.24,2.13-.44,3.87-1.26,5.13-1.98,.63-.34,1.11-.63,1.4-.92l.58-.34c3.05-2.71,4.5-6.29,4.01-10.4-.82-7.25-6.91-14.41-12.72-17.36Zm-1.6,25.72c.15,0,.24,.05,.39,.1,.53,0,1.11,0,1.74-.15,1.21-.29,2.51-.87,3.43-1.4l.29,.82c-.97,.58-2.22,1.11-3.58,1.4-.68,.14-1.31,.19-1.98,.14-.15,0-.34-.05-.53-.05,.1-.34,.19-.58,.24-.87Zm-.48,1.79c.24,0,.48,.05,.73,.05,.73,0,1.5,0,2.22-.1,1.45-.29,2.76-.92,3.77-1.45l.29,.82c-1.02,.58-2.42,1.06-3.87,1.4-.82,.19-1.69,.24-2.47,.19-.34,0-.63-.1-.92-.15l.24-.77Zm3.48,2.56c-.92,.19-1.98,.34-2.95,.19-.53,0-.92-.1-1.4-.24l.34-.82c.34,.1,.73,.15,1.11,.19,.92,.05,1.89,0,2.76-.19,1.55-.34,2.9-.97,4.01-1.5l.34,.82c-1.11,.58-2.56,1.21-4.21,1.55Z"/><path class="d" d="M242.8,241.07c-.44-.73-1.11-1.69-1.84-2.51-.77-.87-1.55-1.64-2.18-2.18-.29-.19-.58-.39-.73-.53-.19-.19-.48-.14-.63,.05-.19,.24-.15,.53,.05,.73l.68,.53c.63,.48,1.45,1.16,2.13,1.98,.68,.87,1.31,1.74,1.69,2.42,.19,.29,.34,.58,.44,.82,.05,.15,.39,.29,.63,.15,.19-.1,.34-.34,.24-.58-.15-.19-.34-.53-.48-.87Z"/><path class="d" d="M244.87,241.22c-.15-.24-.34-.63-.53-1.02-.48-.87-1.26-1.93-2.08-2.8-.82-.97-1.69-1.79-2.37-2.37-.29-.24-.58-.43-.72-.63-.24-.15-.53-.1-.73,.1-.15,.24-.05,.48,.15,.68l.73,.63c.63,.48,1.5,1.31,2.27,2.18,.77,.87,1.5,1.89,1.93,2.66,.24,.39,.39,.72,.53,1.02,.05,.15,.39,.29,.58,.15,.24-.1,.34-.34,.24-.58Z"/><path class="c" d="M212.67,268.34l.48-1.02,.44-.97,.44-1.06,.39-1.02,.44-1.11c.77-2.08,1.45-4.5,2.03-7.01l-6.87,.44c-1.46,5.45-3.67,9.88-5.35,12.74l5.64,3.52c.45-.76,.94-1.63,1.44-2.62l.48-.97,.44-.92Z"/></g><g><path class="b" d="M29.44,317.89l.68,.48,.19-.29c.39-.48,.92-.92,1.4-1.35,.68-.53,1.31-.97,1.98-1.45v-.92l-.77,.48c-1.4,.77-2.51,1.79-3.48,3.05Z"/><path class="b" d="M30.41,319.68c-.97,1.45-1.31,3.63,.19,4.93,.58,.48,1.55,.72,1.98,.63,1.02-.15,1.06-1.5,1.06-2.37v-6.43c-1.31,.87-2.47,1.89-3.24,3.24Z"/><path class="b" d="M33.6,312.43c-2.13,1.21-4.11,2.56-5.61,4.45l.68,.48,.29-.29c.58-.72,1.31-1.45,2.03-1.98,.87-.63,1.79-1.26,2.71-1.79v-.97s-.1,.05-.1,.1Z"/><path class="b" d="M47.52,300.39s-1.89-.05-3.67,.05v.82s1.84-.15,3.63-.05c.92,.05,1.79,.1,2.42,.24l1.11,.14,.19-.87-1.16-.1c-.68-.15-1.6-.15-2.51-.24Z"/><path class="b" d="M47.57,299.42c.92,.1,1.89,.14,2.61,.29l1.21,.15,.15-.87-1.21-.15c-.77-.15-1.74-.24-2.76-.24h-3.82l.05,.87c1.84-.1,3.77-.05,3.77-.05Z"/><path class="b" d="M47.43,302.18s-1.74-.05-3.53,.05l.05,.87c1.79-.1,3.43-.05,3.43-.05,.82,.1,1.69,.14,2.32,.24l.97,.14,.15-.92-1.06-.1c-.58-.1-1.45-.15-2.32-.24Z"/><path class="b" d="M26.59,315.91l.68,.44,.34-.39c.73-.97,1.69-1.84,2.71-2.56,.53-.44,1.11-.82,1.69-1.16,.53-.34,1.11-.63,1.69-.92v-.92c-.97,.39-1.89,.92-2.76,1.5-1.64,1.11-3.14,2.47-4.35,4.01Z"/><path class="d" d="M39.83,307.5l.05-3.19,2.03-.15c2.9-.19,5.85-.39,8.61,.19,1.98,.34,4.25,1.35,6.77,3.09l2.76-3.63c.48-.63,.34-1.55-.24-2.03-2.37-1.84-5.03-3.09-8.07-3.72-3.53-.68-7.06-.58-10.2-.29l-1.6,.15v-3.43c0-.73-.53-1.35-1.31-1.35h-5.22v5.17l-6.19,.53,.44,4.98c.1,.72,.77,1.31,1.5,1.26l4.4-.39v4.45l.05,.29-.44,.19c-4.83,2.08-8.9,6.14-9.62,11.46-.39,3.05,.72,6.04,3.14,8.07,.87,.68,1.89,1.31,3,1.69,1.16,.39,2.42,.53,3.67,.39,1.35-.15,2.66-.73,3.72-1.64,1.06-.87,1.69-2.03,2.13-3.14,.63-1.74,.58-3.53,.58-5.37v-7.11c.15,0,.29-.05,.39-.05,.81-.18,1.64-.28,2.46-.33v-6.39c-.93,.05-1.87,.14-2.8,.29Zm10.83-4.06l-.97-.14c-.63-.1-1.5-.15-2.32-.24,0,0-1.64-.05-3.43,.05l-.05-.87c1.79-.1,3.53-.05,3.53-.05,.87,.1,1.74,.14,2.32,.24l1.06,.1-.15,.92Zm.34-1.84l-1.11-.14c-.63-.15-1.5-.19-2.42-.24-1.79-.1-3.63,.05-3.63,.05v-.82c1.79-.1,3.67-.05,3.67-.05,.92,.1,1.84,.1,2.51,.24l1.16,.1-.19,.87Zm-3.43-3c1.02,0,1.98,.1,2.76,.24l1.21,.15-.15,.87-1.21-.15c-.73-.15-1.69-.19-2.61-.29,0,0-1.93-.05-3.77,.05l-.05-.87h3.82Zm-13.92,24.27c0,.87-.05,2.22-1.06,2.37-.44,.1-1.4-.15-1.98-.63-1.5-1.31-1.16-3.48-.19-4.93,.77-1.35,1.93-2.37,3.24-3.24v6.43Zm.05-7.59c-.68,.48-1.31,.92-1.98,1.45-.48,.44-1.02,.87-1.4,1.35l-.19,.29-.68-.48c.97-1.26,2.08-2.27,3.48-3.05l.77-.48v.92Zm0-1.98c-.92,.53-1.84,1.16-2.71,1.79-.73,.53-1.45,1.26-2.03,1.98l-.29,.29-.68-.48c1.5-1.89,3.48-3.24,5.61-4.45,0-.05,.05-.05,.1-.1v.97Zm0-1.98c-.58,.29-1.16,.58-1.69,.92-.58,.34-1.16,.72-1.69,1.16-1.02,.73-1.98,1.6-2.71,2.56l-.34,.39-.68-.44c1.21-1.55,2.71-2.9,4.35-4.01,.87-.58,1.79-1.11,2.76-1.5v.92Z"/><path class="d" d="M52.36,320.14c-.16,1.12-.67,2.22-1.5,3.17-1.6,1.74-3.92,2.85-6.14,3.77-.24,.05-.34,.39-.24,.63,.15,.24,.44,.34,.73,.24,2.08-.87,4.11-1.69,5.71-3.29l.24-.19,.48,.68c-1.74,1.6-3.82,2.71-6,3.63-.29,.1-.39,.34-.24,.58,.15,.19,.44,.29,.68,.19,2.22-.87,4.21-2.03,6.09-3.53l.63,.58c-1.84,1.64-4.01,2.8-6.29,3.72-.24,.1-.34,.39-.24,.58,.15,.24,.48,.34,.68,.24,2.37-.97,4.54-2.18,6.43-3.77l.53,.68c-1.93,1.64-4.16,2.85-6.48,3.82-.24,.15-.34,.44-.24,.68,.15,.24,.48,.39,.73,.24,2.9-1.21,5.75-2.85,7.88-5.22,.87-.97,1.64-2.08,2.22-3.48,.53-1.28,.85-2.52,.96-3.81l-6.62-.13Z"/><path class="c" d="M59.03,319.59c.05-1.69-.34-3.58-1.16-5.17-.87-1.64-2.13-3.09-3.58-4.16-2.9-2.18-6.62-3.09-10.11-3.09-.52,0-1.03,.02-1.55,.04v6.39c.49-.03,.98-.05,1.46-.05,2.56,.05,4.74,.68,6.29,1.84,1.62,1.26,2.23,3.03,1.98,4.76l6.62,.13c.02-.23,.05-.45,.05-.68Z"/></g><g><path class="b" d="M93.18,316.35c-.63-.63-1.16-1.4-1.74-2.13l-.77,.48,.73,.92c.97,1.21,1.98,2.27,3.14,3.34l.39,.39c.15-.05,.73-.53,.73-.53-.87-.77-1.69-1.6-2.47-2.47Z"/><path class="b" d="M94.92,315.57c-.73-.82-1.35-1.55-1.98-2.42l-.68,.53,.58,.82c.48,.53,.92,1.16,1.45,1.64l2.08,2.13,.73-.63c-.77-.68-1.5-1.35-2.18-2.08Z"/><path class="b" d="M96.17,314.32c-.58-.72-1.11-1.35-1.74-2.18l-.68,.53,.53,.68c.82,1.16,1.79,2.13,2.8,3.05l.68,.63,.63-.58c-.77-.73-1.55-1.4-2.22-2.13Z"/><path class="b" d="M96.12,308.51c-.58,.19-1.35,.44-2.27,.82,1.93,3.05,3.82,5.13,5.13,6.33,1.79-2.13,3.14-4.55,4.35-6.77,.29-.44,.48-.82,.73-1.26-.77-.1-1.6-.1-2.42-.1-1.74,.1-3.63,.39-5.51,.97Z"/><path class="d" d="M113.29,304.02l-.24-.19,2.22-5.32,.15-.34c.24-.72-.1-1.5-.77-1.74l-4.83-1.98-.63,1.6c-.77,1.79-1.5,3.72-2.32,5.51-3.87-.77-8.22-.58-12.62,.72-.92,.29-2.13,.68-3.34,1.21-.24-.63-.53-1.45-.73-2.22-.29-.72-1.06-1.11-1.74-.82l-4.93,1.93c.53,1.5,1.11,3,1.64,4.45,0,0,1.73,3.64,3.09,5.85,1.98,3.29,4.06,5.61,5.66,7.2l4.1,5.25c.79-.45,1.52-.93,2.18-1.43,3.96-3.09,6.72-7.45,8.94-11.75l1.16-2.13c2.66,2.03,3.92,5.51,3,8.65-1.06,3.48-4.21,6.91-8.32,8.94-.29,.15-.39,.44-.24,.63,.15,.29,.44,.39,.68,.24,1.11-.53,2.13-1.06,3.09-1.89l2.18-1.84,.63,.53-.87,.82c-.63,.63-1.45,1.21-2.18,1.69-.82,.53-1.55,1.02-2.37,1.4-.24,.19-.34,.48-.24,.73,.19,.15,.43,.24,.73,.1,1.11-.58,2.22-1.21,3.24-2.03,.82-.63,1.64-1.31,2.37-2.08l.63,.63-.92,.87c-.77,.68-1.55,1.4-2.37,1.93-.87,.53-1.64,1.02-2.51,1.5-.29,.05-.39,.34-.19,.58,.15,.24,.39,.34,.63,.19,1.26-.63,2.42-1.4,3.48-2.18,.97-.73,1.74-1.5,2.56-2.27l.68,.68-1.02,.97-1.11,.92c-.39,.29-.92,.73-1.35,1.02-.87,.53-1.79,1.06-2.76,1.6-.19,.14-.29,.39-.19,.68,.15,.24,.44,.39,.73,.24,5.66-2.9,9.81-7.64,11.31-12.81,1.74-6.09-.73-12.91-6.29-16.25Zm-18.37,15.33l-.39-.39c-1.16-1.06-2.18-2.13-3.14-3.34l-.73-.92,.77-.48c.58,.73,1.11,1.5,1.74,2.13,.77,.87,1.6,1.69,2.47,2.47,0,0-.58,.48-.73,.53Zm1.45-1.06l-2.08-2.13c-.53-.48-.97-1.11-1.45-1.64l-.58-.82,.68-.53c.63,.87,1.26,1.6,1.98,2.42,.68,.73,1.4,1.4,2.18,2.08l-.73,.63Zm1.4-1.26l-.68-.63c-1.02-.92-1.98-1.89-2.8-3.05l-.53-.68,.68-.53c.63,.82,1.16,1.45,1.74,2.18,.68,.73,1.45,1.4,2.22,2.13l-.63,.58Zm5.56-8.12c-1.21,2.22-2.56,4.64-4.35,6.77-1.31-1.21-3.19-3.29-5.13-6.33,.92-.39,1.69-.63,2.27-.82,1.89-.58,3.77-.87,5.51-.97,.82,0,1.64,0,2.42,.1-.24,.44-.43,.82-.73,1.26Z"/><path class="c" d="M87.37,320.75c-.87-.29-1.5-.87-1.79-1.64-.39-.87-.29-1.98,.24-3.19,.58-1.26,1.35-2.32,2.42-3.24-1.37-2.21-3.09-5.85-3.09-5.85-2.13,1.55-4.06,3.72-5.32,6.43-1.26,2.8-1.35,5.85-.24,8.46,1.02,2.32,3,4.21,5.56,5.13,4.45,1.63,9.23,.35,12.85-1.71l-4.1-5.25c-2.08,1.02-4.5,1.6-6.53,.87Z"/></g><g><path class="d" d="M162.65,314.85c.24,.05,.44-.14,.44-.43v-.58c0-.68-.1-1.55-.29-2.42-.24-.87-.58-1.74-.82-2.37-.14-.29-.19-.53-.29-.63-.1-.24-.39-.39-.58-.24-.24,.1-.34,.34-.24,.58,.05,.19,.15,.39,.24,.68,.24,.58,.58,1.4,.77,2.22,.15,.82,.29,1.6,.29,2.22v.43c0,.29,.19,.53,.48,.53Z"/><path class="d" d="M164.53,311.03c-.24-1.02-.58-1.93-.87-2.66l-.34-.77c-.15-.19-.34-.29-.58-.19-.29,.1-.39,.34-.29,.58,.1,.19,.24,.48,.34,.73,.24,.73,.58,1.64,.82,2.56,.24,.92,.34,1.84,.34,2.51v.68c0,.29,.19,.48,.48,.48,.24,.05,.43-.15,.43-.39,.05-.24,.05-.48,0-.77,0-.77-.15-1.79-.34-2.76Z"/><path class="d" d="M163.85,331.33c-1.31,.34-2.76,.44-3.96,.39-1.16,0-2.32-.19-3.29-.43l.19-.87c.87,.24,2.03,.43,3.09,.43,1.31,.05,2.56-.19,3.77-.48,.24-.05,.44-.19,.39-.48-.05-.24-.34-.39-.53-.34-2.13,.48-4.45,.58-6.53,0l.15-.87c.77,.19,1.79,.39,2.76,.39,1.16,0,2.32-.15,3.38-.39,.24-.05,.44-.29,.39-.58-.05-.29-.29-.43-.58-.39-1.89,.43-3.87,.58-5.75,.05l.19-.87c.63,.19,1.5,.34,2.42,.34,1.11,0,2.22-.15,2.95-.34,.29-.05,.48-.29,.44-.63-.1-.29-.39-.43-.68-.39-2.22,.58-4.93,.53-6.91-.82-1.6-1.11-2.51-3-2.61-5.46-.24-4.98,2.13-10.98,7.16-18.23l-8.17,.58c-3.09,5.08-5.85,11.41-5.56,17.94,.19,4.5,2.13,8.22,5.37,10.49,2.27,1.6,5.08,2.42,8.03,2.42,1.35,0,2.71-.19,4.11-.53,.29-.05,.44-.29,.39-.58-.05-.24-.29-.39-.58-.34Z"/><path class="d" d="M165.31,307.64l-.39-.82c-.1-.19-.34-.29-.58-.19-.24,.1-.39,.39-.24,.63,.05,.19,.19,.43,.34,.77,.29,.73,.68,1.74,.92,2.8,.24,1.02,.39,2.08,.39,2.9v.87c0,.29,.19,.48,.48,.48,.24,.05,.44-.14,.44-.39v-1.02c0-.87-.19-1.98-.44-3.09-.24-1.06-.58-2.18-.92-2.95Z"/><path class="d" d="M166.95,307.01l-.39-.92c-.15-.24-.39-.34-.63-.24-.24,.1-.34,.39-.24,.68l.39,.82c.39,.82,.77,1.89,1.02,3,.24,1.16,.44,2.37,.44,3.34v1.06c0,.24,.19,.48,.44,.48,.29,0,.48-.19,.48-.39v-1.21c0-1.02-.19-2.27-.48-3.43-.29-1.26-.63-2.37-1.02-3.19Z"/><path class="c" d="M167.82,300.83l-.39-5.13c-.05-.77-.72-1.35-1.5-1.31l-28.96,2.18,.44,5.03c.05,.77,.68,1.35,1.45,1.31l13.25-.97,8.17-.58,7.54-.53Z"/></g><g><path class="b" d="M205.17,308.76c.92-.05,1.84-.39,2.51-.63,.58-.24,.92-.48,.97-.53l-.53-.68c-.1,.05-.34,.24-.77,.43-.58,.24-1.4,.48-2.22,.53-.82,.1-1.64-.1-2.32-.29l-.53,.77,.39,.1c.68,.24,1.6,.39,2.51,.29Z"/><path class="b" d="M209.18,311.41c.97-.39,1.55-.82,1.64-.87l-.53-.72s-.63,.43-1.5,.82c-.87,.39-2.08,.73-3.38,.82-1.31,.1-2.61-.1-3.53-.34-.48-.1-.82-.24-1.11-.39l-.44,.73c2.85,1.16,6,1.26,8.85-.05Z"/><path class="b" d="M205.32,310.54c1.21-.1,2.32-.39,3.14-.77l.92-.44,.34-.24-.48-.73c-.1,.1-.34,.15-.34,.15-.15,.14-.44,.29-.82,.48-.73,.34-1.74,.63-2.8,.68-1.06,.1-2.08-.1-2.9-.29l-.68-.19c-.15,.19-.29,.44-.44,.73l.92,.34c.77,.24,1.98,.39,3.14,.29Z"/><path class="b" d="M205.07,306.87c.68-.05,1.4-.24,1.84-.44,.92-.39,2.27-1.5,2.27-2.66,.05-.34-.29-.73-.58-.68-.68,.14-1.69,.48-2.85,1.5-.77,.63-1.55,1.4-2.22,2.18,.48,.1,.97,.15,1.55,.1Z"/><path class="d" d="M215.52,328.77l-2.71-4.35c-.39-.63-1.21-.87-1.89-.48-1.43,.74-4.05,1.72-7.1,1.52l.76,6.55s.1,0,.15,0c6.29,0,10.59-3.09,10.78-3.24Z"/><path class="d" d="M199.85,312.28c2.03,.82,4.16,1.21,6.29,.92,1.11-.15,2.22-.39,3.29-.87,1.5-.68,1.89-.92,1.98-1.11,2.03-1.4,3.53-3.58,4.06-5.75,.87-3.48-.53-6.87-3.34-8.22-2.13-1.02-5.66-1.45-10.4,2.61-1.16,1.02-2.32,2.22-3.48,3.53-1.11-1.79-1.69-4.3-1.74-7.11,0-.77-.63-1.35-1.4-1.35h-5.22c-.24,5.8,1.4,10.69,4.4,13.97-.44,.73-.82,1.45-1.16,2.18-.36,.75-.69,1.58-.98,2.47l6.24,2.25c.41-1.24,.94-2.43,1.46-3.51Zm5.9-7.69c1.16-1.02,2.18-1.35,2.85-1.5,.29-.05,.63,.34,.58,.68,0,1.16-1.35,2.27-2.27,2.66-.43,.19-1.16,.39-1.84,.44-.58,.05-1.06,0-1.55-.1,.68-.77,1.45-1.55,2.22-2.18Zm-2.95,3c.68,.19,1.5,.39,2.32,.29,.82-.05,1.64-.29,2.22-.53,.44-.19,.68-.39,.77-.43l.53,.68s-.39,.29-.97,.53c-.68,.24-1.6,.58-2.51,.63-.92,.1-1.84-.05-2.51-.29l-.39-.1,.53-.77Zm-1.11,1.6l.68,.19c.82,.19,1.84,.39,2.9,.29,1.06-.05,2.08-.34,2.8-.68,.39-.19,.68-.34,.82-.48,0,0,.24-.05,.34-.15l.48,.73-.34,.24-.92,.44c-.82,.39-1.93,.68-3.14,.77-1.16,.1-2.37-.05-3.14-.29l-.92-.34c.15-.29,.29-.53,.44-.73Zm-.92,1.55c.29,.15,.63,.29,1.11,.39,.92,.24,2.22,.43,3.53,.34,1.31-.1,2.51-.43,3.38-.82,.87-.39,1.45-.77,1.5-.82l.53,.72c-.1,.05-.68,.48-1.64,.87-2.85,1.31-6,1.21-8.85,.05l.44-.73Z"/><path class="c" d="M203.38,325.44c-2.42-.24-4.01-1.11-4.83-2.56-1.24-2.19-.93-4.71-.15-7.07l-6.24-2.25c-1.21,3.79-1.55,8.63,.64,12.47,1.31,2.37,4.11,5.22,9.86,5.9,.67,.04,1.34,.09,1.93,.09l-.76-6.55c-.15,0-.3,0-.45-.02Z"/></g><g><path class="d" d="M237.24,303.92l-.87,.19,1.26,4.98c.19,.77,.97,1.11,1.69,.97,5.2-1.56,9.12-2.13,11.78-1.78l1.39-6.33c-5.66-.81-12.25,1.18-15.24,1.97Z"/><path class="d" d="M251.46,299.18c1.6,0,3.14-.24,4.79-.34,.24,0,.44-.19,.44-.48,0-.24-.24-.48-.48-.48-1.89,.19-3.77,.24-5.61,.34l.05-.87,.97-.05c1.5,0,3-.19,4.54-.29,.24,0,.39-.19,.39-.48s-.24-.48-.48-.48c-1.84,.15-3.63,.24-5.42,.34l.05-.87,.87-.05c1.45,0,2.95-.19,4.45-.29,.24,0,.44-.15,.44-.44-.05-.29-.24-.48-.48-.48-1.74,.15-3.48,.24-5.27,.34l.05-.87,.82-.05c1.4,0,2.85-.15,4.35-.29,.29,0,.39-.19,.39-.48-.05-.24-.19-.48-.48-.43l-3.82,.19c-2.18,.19-4.11-.24-4.79-2.47l-4.69,1.69c-.73,.29-1.16,1.11-.82,1.84,1.11,2.61,3.63,5.56,9.77,5.46Z"/><path class="d" d="M247.01,327.52l-2.37,2.18c-.19,.19-.24,.53-.05,.68,.24,.19,.53,.19,.73,0l4.83-4.45,.73,.53-4.93,4.59c-.15,.1-.15,.44,.05,.58,.15,.19,.44,.19,.63,0l4.98-4.59,.77,.53-5.08,4.64c-.19,.19-.19,.48,0,.68,.19,.15,.53,.19,.73,0l5.08-4.69,.68,.48-5.08,4.79c-.19,.19-.19,.48,0,.68s.53,.19,.77,0c1.45-1.26,2.76-2.66,4.01-3.87l.68-.58c2.64-2.53,4.6-5.04,5.93-7.52l-5.93-3.57c-1.53,3.14-4.22,6.25-7.16,8.91Z"/><path class="c" d="M261.08,308.08c-1.67-3.93-4.94-5.61-8.59-6.13l-1.39,6.33c1.97,.26,3.24,1.03,3.79,2.31,1.06,2.5,.61,5.27-.72,8.01l5.93,3.57c2.65-4.92,2.85-9.69,.98-14.1Z"/></g><g><polygon class="b" points="296.3 314.65 304.42 311.37 304.08 310.59 295.96 313.88 296.3 314.65"/><polygon class="b" points="295.57 313.01 303.74 309.72 303.4 308.9 295.18 312.19 295.57 313.01"/><polygon class="b" points="303.06 308.03 302.73 307.21 294.51 310.54 294.85 311.27 303.06 308.03"/><path class="d" d="M311.62,294.3l.44,.43c.48,.44,1.11,1.11,1.6,1.79,.53,.63,.97,1.31,1.21,1.84,.1,.15,.15,.29,.19,.39,.1,.19,.39,.34,.63,.24,.24-.1,.34-.29,.24-.48-.05-.19-.15-.39-.24-.58-.24-.53-.73-1.31-1.26-2.03-.58-.68-1.26-1.35-1.74-1.79l-.48-.48c-.19-.14-.48-.14-.63,.05-.19,.24-.19,.48,.05,.63Z"/><path class="d" d="M313.31,293.48c.53,.53,1.21,1.16,1.79,1.93,.53,.73,1.06,1.5,1.35,2.18l.29,.58c.1,.24,.39,.39,.58,.29,.24-.1,.39-.39,.29-.63l-.34-.68c-.29-.68-.82-1.55-1.45-2.32-.63-.77-1.35-1.5-1.89-1.98l-.58-.58c-.19-.14-.48-.1-.68,.05-.15,.19-.15,.48,.05,.68l.58,.48Z"/><path class="d" d="M314.52,292.22c.63,.48,1.31,1.31,1.93,2.08,.68,.82,1.26,1.74,1.6,2.47,.15,.29,.24,.58,.34,.82,.1,.19,.39,.34,.63,.24,.24-.1,.34-.34,.24-.58l-.39-.87c-.39-.77-.97-1.74-1.64-2.56-.73-.92-1.5-1.69-2.03-2.27-.29-.24-.53-.44-.68-.58-.19-.19-.48-.19-.68,.05-.19,.19-.15,.48,.05,.63l.63,.58Z"/><path class="d" d="M315.73,290.96c.63,.58,1.45,1.35,2.18,2.27,.68,.87,1.4,1.89,1.74,2.71l.39,1.02c.1,.24,.39,.34,.68,.24,.24-.05,.29-.34,.24-.53l-.48-1.11c-.44-.87-1.11-1.89-1.89-2.85-.73-.97-1.55-1.84-2.22-2.42-.24-.29-.53-.53-.73-.68-.19-.14-.44-.14-.63,0-.19,.24-.15,.53,.05,.73,.19,.1,.39,.39,.68,.63Z"/><path class="d" d="M290.49,324.23c-.82-.73-1.31-1.55-1.31-2.51,0-1.02,.48-2.08,1.31-2.85,1.93-1.74,11.65-5.46,16.34-7.35,6.14-2.42,7.88-7.49,6.91-11.27-.97-3.87-4.5-6.19-8.51-5.85l-18.9,1.64,.48,5.13c.05,.73,.72,1.31,1.5,1.21l17.6-1.5c.29-.05,1.16-.14,1.45,.92,.29,1.16-.39,2.76-2.76,3.67l-10.44,4.21c-3.72,1.84-6.58,3.14-8.07,4.45-2.18,1.98-3.48,4.79-3.48,7.69,.05,2.8,1.31,5.37,3.58,7.35,1.86,1.57,4.18,2.64,6.93,3.19l.55-6.6c-1.24-.3-2.33-.79-3.18-1.52Zm13.92-12.86l-8.12,3.29-.34-.77,8.12-3.29,.34,.77Zm-.68-1.64l-8.17,3.29-.39-.82,8.22-3.29,.34,.82Zm-1.02-2.51l.34,.82-8.22,3.24-.34-.73,8.22-3.34Z"/><path class="c" d="M303.74,332.2c3.72-.68,6.91-1.64,9.72-2.51,.73-.24,1.11-1.06,.92-1.84l-1.5-5.03c-4.03,1.56-13.34,4.36-19.21,2.93l-.55,6.6c1.4,.28,2.9,.43,4.53,.43,1.89,0,3.92-.24,6.09-.58Z"/></g><g><path class="d" d="M336.66,321.86c-.68,3.24,.44,5.51,1.5,6.87,3.05,3.77,9.14,4.11,9.81,4.21,.53,.05,1.06,.05,1.64,.05h1.74c1.26-.05,2.56-.1,3.82-.19,.29-.05,.48-.24,.48-.53-.05-.24-.24-.48-.53-.43-1.21,.1-2.47,.19-3.67,.19-1.21,.05-2.42,0-3.63-.1l.05-.87c.24,0,.63,.05,1.06,.05,2.08,.1,4.11,.05,6.14-.14,.24,0,.43-.24,.43-.48,0-.29-.24-.48-.48-.48-1.21,.14-2.42,.19-3.58,.24-1.21,.05-2.32-.05-3.48-.15l.05-.87,.29,.05c1.06,.05,2.13,.1,3.14,.1,1.16-.05,2.32-.1,3.48-.24,.24,0,.44-.24,.44-.43,0-.29-.19-.44-.48-.44-1.16,.15-2.27,.15-3.43,.19-1.11,.05-2.22-.05-3.38-.1l.1-.87h.05s.24,0,.34,0c.29,0,.58,0,.87,.05,.58,0,1.16,.05,1.79,0,1.16-.05,2.37-.05,3.58-.19,.29,0,.44-.24,.44-.48,0-.29-.19-.48-.48-.48-2.32,.24-4.69,.44-7.01,.1-1.5-.19-6.09-1.31-4.45-3.72,.63-.87,1.98-1.26,2.95-1.5,1.35-.34,2.66-.43,3.96-.53,3.05-.29,6.04-.14,9.04,.24l4.83,.68-1.26-4.69c-.03-.11-.19-.71-.47-1.73-1.69-.36-4.15-.79-7.12-1.07-6.58-.24-17.12,.48-18.57,7.74Z"/><path class="d" d="M363.59,303.39l-.34-4.93c-.05-.77-.73-1.35-1.5-1.31l-4.83,.39-1.89-5.41c-.29-.73-1.06-1.16-1.79-.92l-5.08,1.5c.63,1.69,1.4,3.67,1.93,5.27l-11.85,.87,.34,4.93c0,.73,.73,1.31,1.45,1.26l12.23-.87,6.67-.44,4.64-.34Z"/><path class="d" d="M371.18,299.81c-.1-1.21-.39-2.42-.58-3.24l-.24-.97c-.1-.29-.34-.39-.58-.34-.24,.05-.39,.34-.34,.58l.29,.92c.24,.82,.44,1.98,.53,3.14,.1,1.11,.1,2.37,0,3.29-.05,.39-.14,.77-.19,1.06-.05,.24,.15,.48,.44,.53,.24,0,.43-.1,.48-.39,.05-.24,.15-.68,.19-1.11,.1-1.02,.1-2.27,0-3.48Z"/><path class="d" d="M364.5,298.07c.15,.68,.34,1.55,.39,2.32,.1,.82,.1,1.64,.05,2.18,0,.19-.05,.39-.1,.53-.05,.24,.15,.48,.39,.53,.24,.05,.48-.1,.53-.34,.05-.15,.05-.39,.1-.63,.05-.58,.05-1.45,0-2.37-.05-.82-.29-1.74-.44-2.42-.1-.29-.15-.53-.19-.73-.1-.24-.34-.39-.63-.29-.19,.05-.34,.29-.29,.58,.1,.14,.15,.39,.19,.63Z"/><path class="d" d="M367.16,297.39c-.1-.34-.15-.53-.24-.77-.05-.24-.34-.39-.58-.34-.19,.1-.34,.39-.29,.63l.24,.73c.1,.72,.39,1.69,.44,2.56,.1,.97,.05,1.89,0,2.56-.05,.29-.1,.53-.1,.68-.05,.29,.1,.53,.39,.58,.24,.1,.44-.1,.48-.34l.15-.77c.15-.77,.1-1.79,0-2.8-.1-.97-.29-1.98-.48-2.71Z"/><path class="d" d="M368.9,297.01l-.24-.87c-.1-.24-.34-.43-.58-.34-.24,.1-.39,.34-.34,.58,.1,.19,.15,.53,.24,.82,.19,.77,.39,1.79,.48,2.8,.1,1.11,.14,2.18,0,3l-.15,.87c0,.24,.15,.48,.43,.53,.24,.05,.48-.1,.48-.34l.15-.97c.15-.87,.1-2.03,0-3.14-.1-1.06-.29-2.18-.48-2.95Z"/><path class="c" d="M352.27,304.16c1.21,4.16,2.22,7.45,2.95,9.96,2.97,.28,5.43,.72,7.12,1.07-.59-2.15-1.73-6.16-3.4-11.47l-6.67,.44Z"/></g><g><path class="b" d="M416.6,306.63l-.73-.48c-.63,.82-1.31,1.69-1.89,2.51l-2.8,3.38,.63,.63,2.85-3.43c.63-.87,1.26-1.84,1.93-2.61Z"/><polygon class="b" points="415.06 305.61 414.38 305.08 412.49 307.6 409.84 310.93 410.46 311.51 413.12 308.18 415.06 305.61"/><path class="b" d="M415.4,309.82l-2.85,3.43,.68,.63,2.8-3.63c.77-.87,1.4-1.79,1.93-2.56l-.68-.43c-.58,.72-1.11,1.64-1.89,2.56Z"/><path class="d" d="M396.97,321.52c-2.76-.53-3.19-7.4-3.48-9.48-.29-2.71-.58-7.78-.63-10.83-.05-.77-.68-1.31-1.4-1.26l-5.22,.44c.19,4.69,.43,9.62,.77,12.43,.58,4.69,1.45,11.65,6.24,14.12,2.98,1.56,6.02,.89,8.72-.67l-2.99-5.28c-.72,.4-1.41,.62-2.01,.54Z"/><path class="d" d="M422.79,303.05c-4.35-2.95-4.93-3.38-5.46-3.67l-5.22,7.25-5.71,6.91c-.07,.09-.15,.18-.24,.29l4.52,4.32c1.41-1.56,2.57-2.92,3.7-4.36l2.47-2.9,1.89-2.71c2.18,1.93,3.09,4.01,2.47,6.77-.58,2.47-1.31,5.03-2.08,7.45-.1,.24,0,.48,.24,.58,.29,.05,.58-.1,.68-.29,.73-2.08,1.31-4.11,1.84-6.24,.05-.29,.1-.58,.19-.77l.87,.15c-.58,2.37-1.21,4.74-2.03,7.06-.1,.24,.05,.53,.29,.63,.24,0,.53-.14,.63-.39,.73-2.03,1.35-4.11,1.84-6.24l.19-.87,.87,.19c-.53,2.42-1.21,4.79-2.03,7.2-.1,.19,.05,.48,.24,.58,.29,0,.58-.15,.68-.39,.73-2.03,1.31-4.11,1.84-6.38l.24-.97,.92,.19c-.58,2.37-1.26,4.59-1.98,7.01l-.15,.39c-.1,.29,.1,.58,.29,.58,.29,.1,.58-.05,.63-.34,.58-1.64,1.16-3.24,1.55-4.93,.44-1.45,.58-2.27,.68-2.95,1.02-4.93-.48-10.11-4.83-13.15Zm-12.96,7.88l2.66-3.34,1.89-2.51,.68,.53-1.93,2.56-2.66,3.34-.63-.58Zm1.35,1.11l2.8-3.38c.58-.82,1.26-1.69,1.89-2.51l.73,.48c-.68,.77-1.31,1.74-1.93,2.61l-2.85,3.43-.63-.63Zm4.83-1.79l-2.8,3.63-.68-.63,2.85-3.43c.77-.92,1.31-1.84,1.89-2.56l.68,.43c-.53,.77-1.16,1.69-1.93,2.56Z"/><path class="c" d="M398.98,320.98l2.99,5.28c2.08-1.2,3.96-2.94,5.45-4.6,1.25-1.33,2.31-2.47,3.26-3.52l-4.52-4.32c-1.41,1.7-4.55,5.69-7.18,7.15Z"/></g><g><path class="b" d="M454.72,327.13c0,.43,.34,.82,.73,.82,.48,0,.82-.39,.82-.82v-1.21c-.87,.14-1.55,.73-1.55,1.21Z"/><path class="d" d="M467.2,311.66l-.53-5.17c-.05-.68-.73-1.21-1.5-1.11l-2.27,.15v6.53s4.3-.39,4.3-.39Z"/><path class="d" d="M463.47,319.73c.24,.05,.53,0,.87,.05,.58,0,1.21,.15,1.89,.24,1.26,.15,2.56,.44,3.87,.77,.19,.05,.48-.1,.53-.39,.05-.24-.15-.53-.44-.58-2.37-.58-4.79-.92-7.3-1.02v-2.45l-6.58,.3v2.78c-.77,.05-1.21,.19-1.55,.29-3.92,1.16-6.33,4.01-6.33,7.4,0,3.92,3.24,7.16,7.2,7.16s7.25-3.24,7.25-7.16v-1.93c.19,0,.48,0,.87,.05,1.79,.1,3.58,.44,5.37,.92,.19,.1,.44-.05,.48-.34,.05-.29-.1-.53-.39-.58-2.03-.63-4.16-.87-6.33-.97v-.87c.19,0,.58,0,.97,.05,1.89,.14,3.72,.44,5.56,.92,.24,.1,.48-.1,.53-.29,.1-.29-.1-.53-.39-.58-1.26-.39-2.47-.63-3.72-.77-.63-.1-1.26-.24-1.89-.24-.29-.05-.77,0-1.06-.05v-.87c.24,0,.63,0,1.11,.05,1.93,.1,3.87,.48,5.75,1.02,.24,.05,.48-.1,.53-.39,.05-.29-.1-.53-.39-.58-1.26-.34-2.56-.63-3.87-.77-.63-.1-1.31-.14-1.98-.19l-1.16-.1v-.87c.15-.05,.39,0,.58,0Zm-7.2,7.4c0,.43-.34,.82-.82,.82-.39,0-.73-.39-.73-.82,0-.48,.68-1.06,1.55-1.21v1.21Z"/><path class="d" d="M450.23,306.72l.44,5.08c.1,.82,.82,1.35,1.55,1.26l4.11-.39v-6.53l-6.09,.58Z"/><path class="d" d="M467.2,301.02l-.53-5.13c-.05-.73-.73-1.31-1.5-1.26l-2.27,.24v-2.42c0-.77-.58-1.35-1.35-1.35h-5.22v4.4l-6.09,.63,.44,5.08c.1,.72,.82,1.26,1.55,1.21l4.11-.39,6.58-.63,4.3-.39Z"/><polygon class="c" points="462.89 312.04 462.89 305.52 462.89 301.41 456.32 302.03 456.32 306.14 456.32 312.67 456.32 316.66 462.89 316.36 462.89 312.04"/></g><g><path class="b" d="M505.27,314.7c-.58,0-1.02,.39-1.02,.97s.44,1.02,1.02,1.02c.34,0,.58-.14,.73-.29,.15-.14,.29-.39,.29-.72,0-.58-.44-.97-1.02-.97Z"/><path class="b" d="M508.85,309.09c.29,.14,.58,.34,.87,.53v-4.16h-.87v3.63Z"/><path class="b" d="M507.01,308.37c.29,.1,.58,.19,.87,.29v-3.19h-.87v2.9Z"/><path class="b" d="M510.68,310.4c.29,.34,.58,.68,.87,1.06v-6h-.87v4.93Z"/><path class="d" d="M512.57,294.83l.1-3.09c0-.97-.29-1.64-1.64-1.55h-5.03v5.12l-17.5,1.26,.39,4.88c.05,.87,.82,1.5,1.64,1.4l15.52-1.16v6.53c-.24-.05-.53-.05-.77-.05-4.21,0-7.59,3.34-7.59,7.49s3.38,7.54,7.59,7.54h.48c-.24,.39-.58,.82-.92,1.21-1.74,1.89-4.3,3.29-6.87,4.45-.29,.1-.39,.39-.29,.63,.1,.24,.44,.34,.68,.24,.24-.1,.53-.24,.87-.39,.82-.34,1.89-.87,2.9-1.5,.97-.58,1.89-1.31,2.47-1.84,.34-.29,.53-.53,.73-.68,0,0,.15-.15,.24-.24l.68,.58c-.15,.1-.29,.24-.29,.24-.19,.19-.44,.48-.77,.77-.63,.58-1.6,1.31-2.61,1.89-1.02,.68-2.13,1.16-2.95,1.55-.34,.19-.63,.29-.87,.44-.29,.1-.44,.39-.29,.63,.1,.24,.39,.34,.68,.24,.24-.14,.58-.29,.92-.44,.87-.43,1.98-1.02,3.09-1.64,1.06-.63,2.03-1.35,2.71-1.98,.39-.34,.63-.58,.82-.77,.15-.14,.24-.24,.29-.29l.63,.58c-.14,.1-.34,.29-.34,.29-.19,.24-.48,.53-.82,.87-.77,.63-1.79,1.4-2.9,2.08-1.11,.68-2.27,1.26-3.14,1.64-.34,.19-.68,.34-.92,.43-.24,.15-.39,.44-.29,.68,.1,.24,.43,.34,.68,.19,.24-.1,.58-.24,1.02-.43,.87-.44,2.08-1.02,3.19-1.74,1.16-.68,2.27-1.55,3.05-2.18,.39-.34,.68-.68,.92-.87,.15-.14,.24-.29,.29-.34l.63,.58c-.15,.15-.34,.39-.34,.39-.24,.19-.58,.53-.97,.87-.82,.73-1.98,1.6-3.14,2.32-1.21,.72-2.42,1.35-3.34,1.74-.39,.19-.68,.34-.97,.48-.24,.1-.39,.39-.24,.63,.1,.24,.39,.34,.68,.24,3.24-1.45,6.58-3.24,9.09-6.04,2.32-2.56,3.67-5.71,3.96-9.09,.15-1.98-.24-4.06-1.16-6.24v-12.18l.05-6.38Zm-6.58,21.56c-.15,.15-.39,.29-.73,.29-.58,0-1.02-.44-1.02-1.02s.44-.97,1.02-.97,1.02,.39,1.02,.97c0,.34-.15,.58-.29,.72Zm1.89-7.74c-.29-.1-.58-.19-.87-.29v-2.9h.87v3.19Zm1.84,.97c-.29-.19-.58-.39-.87-.53v-3.63h.87v4.16Zm1.84,1.84c-.29-.39-.58-.73-.87-1.06v-4.93h.87v6Z"/><path class="c" d="M522.1,300.54l-.39-4.88c-.05-.82-.77-1.45-1.64-1.4l-7.49,.58-.05,6.38,9.57-.68Z"/></g></g><g><g><path class="d" d="M536.33,79.57c-29.34-.8-58.7-1.46-88.09-1.99,1.03-2.91,1.72-4.92,2.08-6.01,.54-.87,1.26-1.54,2.15-2.03,.89-.49,2.16-.78,3.79-.88-.05-.94-.09-1.87-.14-2.8-.18-.22-.37-.44-.55-.66h-24.49c-4.43,12.2-10.58,24.43-18.44,36.5,7.72,.34,15.44,.71,23.15,1.11,1.42-2.27,2.68-4.46,3.78-6.56,8.86,.39,17.71,.8,26.57,1.25,.07,4.35,.14,8.71,.21,13.06-6.87-.49-13.75-.95-20.63-1.39-5.69,3.26-11.38,6.45-17.07,9.58,.18,10.31,.36,20.62,.54,30.93-5.23-.59-10.46-1.15-15.7-1.67,.17,6.07,.34,12.15,.51,18.22,17.95,2.21,35.85,4.85,53.68,7.91,.28,11.6,.55,23.2,.83,34.82,7.6,1.73,15.18,3.56,22.75,5.49-.26-12.06-.51-24.12-.77-36.16,13.32,2.57,26.6,5.37,39.83,8.42,5.65,1.31,8.36-1.19,8.16-7.58,.25-1.72,.63-3.41,1.14-5.08,.66-.87,1.41-1.52,2.23-1.92,.82-.4,2.04-.5,3.64-.3,.03-1.09,.05-2.17,.08-3.26-.24-.31-.48-.61-.72-.92-18.25-3.64-36.59-6.91-55.01-9.81-.18-8.48-.35-16.95-.53-25.42,10.4,1.18,20.79,2.46,31.16,3.81,1.77,.23,3.06-.36,3.85-1.8,.8-1.44,1.11-3.31,.92-5.62-.19-2.31,.09-4.34,.82-6.12,.61-1.17,1.45-1.92,2.49-2.25,1.04-.33,2.44-.46,4.18-.41,.02-1.06,.05-2.12,.07-3.19-.24-.27-.49-.55-.73-.82-14.38-1.38-28.78-2.64-43.2-3.79-.13-4.52-.25-9.04-.38-13.56,11.07,.63,22.13,1.3,33.17,2.02,5.71,.39,8.46-2.54,8.25-8.79,.25-1.73,.64-3.46,1.15-5.19,.67-.97,1.43-1.73,2.26-2.26,.83-.54,2.06-.84,3.69-.91,.02-1.07,.05-2.15,.07-3.22-.24-.26-.49-.52-.74-.78Zm-68.95,74.94c-5.59-.79-11.18-1.54-16.78-2.25-.19-7.97-.39-15.93-.58-23.88,5.6,.52,11.2,1.06,16.8,1.63,.19,8.16,.38,16.33,.57,24.5Z"/><g><path class="d" d="M161.45,127.78c.17-1.31,.47-2.38,.9-3.21,.79-.95,1.74-1.63,2.87-2.04,1.12-.41,2.37-.7,3.76-.88,.03-.85,.07-1.7,.1-2.54-.24-.19-.49-.37-.73-.56-11.06,.55-22.12,1.2-33.16,1.93-.12,6.87-.24,13.74-.36,20.61,2.24-.2,4.47-.4,6.71-.6-.25,13.33-.51,26.66-.76,40-2.05,.27-4.09,.55-6.14,.83-.01,5.52-.02,11.03-.04,16.55,39.4-6.24,79.12-9.8,118.88-10.67,.03-5.08,.06-10.16,.1-15.24-31.07,.59-62.11,2.63-93.01,6.1,.3-16.77,.6-33.54,.9-50.3Z"/><path class="d" d="M159.89,103.47c.84-1.24,1.17-2.78,1.01-4.63-.17-1.85,.08-3.49,.74-4.91,.89-1.03,1.83-1.73,2.82-2.11,.99-.37,2.37-.63,4.13-.78,.03-.85,.07-1.7,.1-2.54-.18-.2-.36-.39-.54-.59-10.79,.23-21.57,.5-32.36,.8-.11,5.88-.23,11.77-.34,17.65,6.77-.33,13.53-.64,20.3-.93,1.92-.08,3.29-.74,4.13-1.98Z"/><path class="d" d="M252.63,67.76c-26.91,.01-53.83,.05-80.74,.12-.02,5.27-.04,10.53-.05,15.79,15.26-.26,30.52-.46,45.78-.6-5.55,4.47-11.11,8.99-16.67,13.57-2.02-3.16-4.04-6.33-6.06-9.52-6.45,.1-12.9,.22-19.35,.34,1.89,3.23,3.77,6.44,5.66,9.64-3.2,.09-6.39,.17-9.58,.27-.26,25.19-.52,50.37-.78,75.57,6.54-.64,13.09-1.23,19.65-1.74,.07-5.43,.14-10.85,.22-16.28,3.02-.2,6.03-.39,9.05-.57-.07,5.39-.14,10.78-.21,16.18,6.49-.46,12.99-.85,19.49-1.19,.06-5.33,.12-10.66,.18-15.99,3.02-.13,6.04-.25,9.06-.36-.06,5.31-.11,10.62-.17,15.93,6.5-.28,13.01-.5,19.51-.65,.06-22,.11-44,.17-66,.17-.29,.29-.57,.33-.86,.62-.95,1.38-1.58,2.26-1.87,.88-.29,2-.49,3.39-.59,.03-.81,.05-1.61,.08-2.42-.25-.19-.49-.38-.74-.57-8.19,.05-16.37,.12-24.56,.23,4.97-4.7,9.94-9.36,14.9-14,.43-.29,.83-.67,1.21-1.15,.83-1.15,1.18-2.38,1.06-3.71-.25-1.33-.06-2.71,.56-4.14,.75-.95,1.7-1.57,2.83-1.86,1.13-.29,2.51-.48,4.15-.57,.03-.81,.05-1.61,.08-2.42-.24-.19-.49-.38-.73-.57Zm-52.98,69.99c-3.01,.15-6.03,.3-9.04,.47,.03-1.32,.06-2.64,.08-3.96,3.01-.16,6.02-.3,9.04-.44-.03,1.31-.05,2.62-.08,3.94Zm.36-20.55c-3.01,.1-6.02,.22-9.03,.33-.04-1.32-.07-2.64-.11-3.95,3.01-.11,6.02-.21,9.02-.31,.04,1.31,.07,2.62,.11,3.93Zm28.13,19.43c-3.02,.09-6.03,.19-9.05,.3,.03-1.3,.05-2.59,.08-3.89,3.02-.1,6.03-.19,9.05-.28-.02,1.29-.05,2.58-.07,3.88Zm.31-20.23c-3.08,.07-6.15,.14-9.23,.22,.03-1.3,.05-2.59,.08-3.89,3.01-.07,6.02-.14,9.03-.2,.04,1.29,.08,2.58,.12,3.87Z"/></g><g><path class="d" d="M318.32,85c6.2,.05,12.39,.12,18.59,.19,3.67,.04,7.33,.09,11,.14,1.79,.03,3.58,.05,5.38,.08,5.53,.08,11.07,.17,16.6,.27,.18,0,.36,0,.54,0,0-.02,0-.03,0-.05,1.5-.09,2.63-.65,3.34-1.75,.8-1.23,1.07-2.76,.81-4.61-.26-1.84-.03-3.5,.71-4.99,.61-.99,1.45-1.65,2.5-2,1.05-.34,2.39-.56,4.02-.65,.02-.85,.04-1.7,.05-2.55-.18-.2-.37-.4-.55-.6-3.71-.01-7.42-.02-11.13-.03-5.64-.02-11.28-.03-16.93-.04-25.09-.06-50.19-.09-75.29-.1-.09,5.5-.18,10.99-.27,16.49,.83,0,1.65,0,2.48,0,12.72,.02,25.44,.08,38.15,.19Z"/><path class="d" d="M405.39,148.44c-9.37-.9-18.76-1.71-28.15-2.42,.02,5.26,.04,10.52,.06,15.78-.66,7.25-2.85,6.98-6.74,6.95-1.29,.04-3.24-.14-5.19-.31-1.46-.13-2.92-.25-4.07-.5-1.96-.31-3.45-1.35-3.53-3.33-.48-12.11-.96-24.22-1.44-36.31-.04-2.35-.07-4.69-.11-7.04,7.7,.33,15.4,.7,23.1,1.13,1.79,.1,3.09-.45,3.89-1.66,.8-1.21,1.1-2.75,.9-4.61-.2-1.87,0-3.53,.61-5.01,.74-.97,1.64-1.61,2.69-1.91,1.05-.3,2.39-.47,4.03-.5,.02-.86,.04-1.72,.05-2.57-.18-.21-.37-.42-.55-.63-17.95-.76-35.91-1.35-53.89-1.76-6.21-.14-12.41-.26-18.62-.37-16.89-.28-33.79-.4-50.69-.37-.1,5.5-.19,10.99-.29,16.49,9.76-.03,19.53,.02,29.29,.14,0,2.28,.01,4.55,.02,6.83,0,0-.02,0-.03,0-.31,7.55-1.42,14.8-4.5,20.46-6.1,11.13-16.74,18.51-31.59,23.25,8.2,6.54,11.96,16.83,11.96,16.82,14.7-4.91,33.12-13.75,41.11-30.37,4.31-9.1,5.79-19.58,6.09-29.69-.03-2.29-.06-4.59-.09-6.88,4.52,.11,9.05,.23,13.57,.37,.01,2.31,.03,4.62,.04,6.93,.49,12.8,.99,25.62,1.48,38.44,.47,12.31,8.25,19.85,19.66,21.34,8.31,1.05,16.6,1.93,24.22,2.51,14.47,1.14,20.89-3.33,20.07-33.99,.13-.64,.32-1.26,.61-1.84,.61-.96,1.45-1.56,2.5-1.82,1.05-.25,2.39-.35,4.03-.29,.02-.87,.03-1.74,.05-2.61-.18-.22-.37-.45-.55-.67Z"/></g></g><g><path class="d" d="M52.42,114.87c.16-16.56,.33-33.12,.49-49.68H.31c-.1,54.97-.21,109.97-.31,165,6.03-1.96,12.08-3.85,18.14-5.68,.19-32.32,.39-64.62,.58-96.9,8.41-.98,16.84-1.91,25.27-2.79,5.58-.59,8.39-3.9,8.43-9.95Zm-33.51-31.66c5.03-.17,10.05-.33,15.08-.49-.01,1.99-.02,3.98-.03,5.96-5.02,.21-10.05,.43-15.07,.66,0-2.04,.01-4.09,.02-6.13Zm14.97,25.17c-5.01,.39-10.03,.79-15.04,1.21,0-2.04,.01-4.09,.02-6.13,5.01-.36,10.03-.7,15.05-1.04-.01,1.99-.02,3.98-.03,5.96Z"/><path class="d" d="M123.69,65.2H62.86c-.2,19.26-.39,38.53-.59,57.8,12.07-1.16,24.15-2.22,36.26-3.18-.31,28.24-.62,56.48-.93,84.73,6.17-1.25,12.35-2.43,18.53-3.55,.57-41.55,1.14-83.07,1.71-124.57,.17-1.9,.52-3.59,1.05-5.07,.63-1.06,1.38-1.77,2.25-2.15,.86-.37,1.92-.61,3.17-.72,.03-.89,.07-1.78,.1-2.67-.24-.21-.49-.42-.73-.63Zm-42.31,16.19c5.86-.15,11.73-.29,17.59-.42-.02,1.79-.04,3.58-.05,5.36-5.86,.18-11.73,.37-17.59,.57,.02-1.84,.03-3.67,.05-5.51Zm17.39,22.66c-5.93,.33-11.85,.68-17.77,1.05l.05-5.51c5.92-.32,11.85-.62,17.77-.91-.02,1.79-.04,3.58-.05,5.36Z"/><path class="d" d="M95.14,156.92c-5.31,.72-10.62,1.46-15.92,2.25,.05-4.29,.1-8.58,.14-12.87,.92-.12,1.84-.23,2.76-.35,1.65-.21,2.84-.99,3.56-2.34,.72-1.35,.99-2.93,.82-4.73-.17-1.8,0-3.5,.53-5.1,.78-1.07,1.65-1.82,2.59-2.24,.94-.42,2.16-.76,3.66-1.02,0-.82,0-1.64-.01-2.45-.18-.2-.36-.4-.54-.61-3.12,.29-6.24,.58-9.35,.89-15.9,1.55-31.77,3.29-47.6,5.24-3.38,.41-6.76,.84-10.14,1.27-.07,6.43-.14,12.85-.22,19.28,4.7-.77,9.4-1.52,14.1-2.24-.03,4.58-.06,9.17-.1,13.75-5.25,.94-10.49,1.91-15.72,2.91-.07,6.45-.14,12.9-.21,19.36,5.02-1.14,10.04-2.25,15.08-3.33-1.59,6.56-4.7,10.68-7.48,13.21-1.48,1.34-3.09,2.36-4.73,3.16-.25,.12-.51,.24-.77,.36-.21,6.05-.42,12.11-.63,18.18-.02-.08,23.63-10.17,27.66-37.81,3.76-.75,7.52-1.48,11.28-2.2-.08,10.25-.15,20.5-.23,30.76,5.02-1.21,10.04-2.37,15.08-3.49,.09-10.01,.19-20.01,.28-30.02,1.83-.32,3.67-.64,5.5-.95,1.65-.28,2.84-1.11,3.56-2.49,.72-1.38,.99-2.96,.82-4.74-.18-1.78,0-3.48,.53-5.1,.78-1.1,1.65-1.88,2.59-2.35,.94-.46,2.16-.85,3.66-1.17,0-.81,0-1.63,0-2.44-.18-.19-.36-.39-.54-.58Zm-31.07,4.57c-1.3,.21-2.61,.42-3.91,.63-2.16,.35-4.31,.71-6.47,1.07-.06,.01-.12,.02-.19,.03,.03-4.47,.06-8.94,.09-13.41,2.22-.32,4.44-.64,6.66-.95,1.31-.18,2.62-.37,3.94-.55-.04,4.39-.08,8.79-.12,13.18Z"/></g></g></svg>