<?xml version="1.0" encoding="UTF-8"?><svg id="a" xmlns="http://www.w3.org/2000/svg" viewBox="0 0 280.83 201.73"><defs><style>.ax{fill:#fff;}.ay{fill:#ab1f24;}.az{fill:#b41d23;}.ba{fill:#828283;}</style></defs><g id="b"><g id="c"><path id="d" class="ay" d="M22.38,142.49h0v17.76h4.1v-21.87l-4.1,4.11Z"/><path id="e" class="ay" d="M4.1,134.98l-4.1,4.1H0v24.24H5.08l4.1-4.1H4.1v-24.24Z"/></g><g id="f"><path id="g" class="ay" d="M85.97,134.98l-4.1,4.1h0v2h-9.18v4.1h9.18v4.85h-9.18v13.29h13.29v-9.18h1.91l4.11-4.1h-6.01v-4.85h6.01v-4.1h-6.01v-6.1Zm-4.11,24.24h-5.08v-5.08h5.08v5.08Z"/><path id="h" class="ay" d="M69.61,134.98l-4.1,4.1h0v24.24h4.1v-28.34Z"/></g><path id="i" class="ay" d="M118.98,154.5l4.1-4.1h0v-9.31h-8.48v-6.11l-4.1,4.1h0v2h-4.72v-6.11l-4.1,4.1h0v2h-5.08v4.1h5.08v18.14h4.1v-18.14h4.71v5.83h4.1v-5.83h4.38v9.31Z"/><path id="j" class="ba" d="M138.01,159.22v-7.92h18.37v-4.11h-9.79v-12.21l-4.1,4.1h0v8.11h-8.58v16.13h22.38l4.1-4.1h-22.38Z"/><g id="k"><path id="l" class="ay" d="M52.78,141.09v-6.11l-4.1,4.1h0v2h-14.87v4.1h14.87v8.91h4.1v-8.91h7.51v-4.1h-7.51Z"/><path id="m" class="ay" d="M39.49,151.86h-4.1v11.46h16.78l4.1-4.1h-16.78v-7.36Z"/></g><path id="n" class="ay" d="M208.84,134.98l-4.1,4.1h0v24.24h4.1v-28.34Z"/><path id="o" class="ay" d="M172.46,163.33h23.7v-4.1h-19.6v-24.24l-4.1,4.1h0v24.24Z"/><path id="p" class="ay" d="M245.77,163.33v-28.34l-4.1,4.1h0v18.51l-18.28-22.61-4.1,4.1h0v24.24h4.1v-21.12l17.25,21.12h5.13Z"/><path id="q" class="ay" d="M263.76,152.05l11.27,11.27h5.8l-14.17-14.17,14.17-14.17h-5.8l-16.58,16.58v-16.58l-4.1,4.1h0v24.24h4.1v-5.97l5.31-5.3Z"/></g><g id="r"><path id="s" class="ay" d="M280.83,201.73v-4.1h-22.38v-8.02h17.67v-4.1h-17.67v-8.02h22.38v-4.1h-22.38l-4.1,4.1h0v24.24h26.48Z"/><g id="t"><path id="u" class="ay" d="M22.38,180.89h0v17.76h4.1v-21.86l-4.1,4.1Z"/><path id="v" class="ay" d="M4.1,173.39l-4.1,4.1H0v24.24H5.08l4.1-4.1H4.1v-24.24Z"/></g><g id="w"><path id="x" class="ay" d="M85.97,173.39l-4.1,4.1h0v2h-9.18v4.11h9.18v4.85h-9.18v13.29h13.29v-9.18h1.91l4.11-4.1h-6.01v-4.85h6.01v-4.11h-6.01v-6.1Zm-4.11,24.24h-5.08v-5.08h5.08v5.08Z"/><path id="y" class="ay" d="M69.61,173.39l-4.1,4.1h0v24.24h4.1v-28.35Z"/></g><path id="z" class="ay" d="M118.98,192.9l4.1-4.1h0v-9.3h-8.48v-6.11l-4.1,4.1h0v2h-4.72v-6.11l-4.1,4.1h0v2h-5.08v4.1h5.08v18.14h4.1v-18.14h4.71v5.83h4.1v-5.83h4.38v9.3Z"/><g id="aa"><path id="ab" class="ay" d="M52.78,179.49v-6.11l-4.1,4.1h0v2h-14.87v4.1h14.87v8.91h4.1v-8.91h7.51v-4.1h-7.51Z"/><path id="ac" class="ay" d="M39.49,190.26h-4.1v11.47h16.78l4.1-4.1h-16.78v-7.37Z"/></g><path id="ad" class="ay" d="M208.84,173.39l-4.1,4.1h0v24.24h4.1v-28.35Z"/><path id="ae" class="ay" d="M172.46,201.73h23.7v-4.1h-19.6v-24.24l-4.1,4.1h0v24.24Z"/><path id="af" class="ay" d="M228.7,190.46l11.27,11.27h5.8l-14.17-14.17,14.17-14.17h-5.8l-16.58,16.58v-16.58l-4.1,4.1h0v24.24h4.1v-5.97l5.31-5.3Z"/><path id="ag" class="ba" d="M139.77,197.63v-5.92h8.2v4.41h4.1v-4.41h6.06v-4.1h-12.68v-4.01h11.19v-4.1h-11.19v-6.11l-4.1,4.1h0v2h-7.46v4.1h7.46v4.01h-5.69v14.13h20.61l4.1-4.1h-20.6Z"/></g><path id="ah" class="ba" d="M179.94,40.91l-37.75,37.74v29.85l52.66-52.66c4.97-4.97,8.2-11.4,9.21-18.35h-21.76c-.57,1.28-1.38,2.44-2.37,3.43Z"/><path id="ai" class="az" d="M163.53,24.5c3.37-3.37,8.46-4.33,12.83-2.43,3.58,1.55,6.13,4.8,6.79,8.65,.19,1.06,.22,2.14,.11,3.21h21.12c.14-3.74-.36-7.48-1.47-11.06-5.42-17.22-23.77-26.78-40.99-21.36-5.02,1.58-9.58,4.35-13.3,8.07l-.42,.42h-15.55l-.42-.42c-12.75-12.77-33.44-12.79-46.21-.04-6.45,6.44-9.92,15.28-9.56,24.38h21.12c-.37-3.48,.85-6.94,3.32-9.43,1.03-1.03,2.24-1.86,3.58-2.43,4.37-1.9,9.46-.94,12.83,2.43l16.88,16.87h12.48l16.87-16.87Z"/><path id="aj" class="ax" d="M58.05,45.35v23.53H218.29s6.23-1.71,1.56-8.87c0,0-4.83-3.89-20.7-4.97-9.35-1.4-18.53-3.75-27.4-7-7.55-1.34-15.21-2.02-22.88-2.03-4.83,0-90.82-.66-90.82-.66Z"/><path id="ak" class="az" d="M61.79,56.15h0c-1.12,0-2.03-.91-2.03-2.03v-.24c0-1.12,.91-2.03,2.03-2.03h0c1.12,0,2.03,.91,2.03,2.03v.25c0,1.12-.91,2.02-2.03,2.02Z"/><g id="al"><path id="am" class="az" d="M215.71,62.4c-1.05-.31-2.11-.56-3.19-.74-.95,.31-1.86,.74-2.7,1.29,1.34,.16,2.69,.24,4.04,.24,2.27,0,2.39-.67,1.84-.8Z"/><path id="an" class="az" d="M221.32,60.53c-2.54-3.17-8.19-4.9-18.87-5.79-6.04-.26-12-1.44-17.68-3.5-1.08-.39-2.21-.78-3.47-1.16l-1.24-.37c-5.64-1.73-14.17-4.35-33.51-4.35H58.05v1.38h88.5c14.82,0,23.21,1.55,28.82,3.04-2.29,1.56-2.94,3.41,4.05,4.42,3.55,.68,7.19,.74,10.75,.17,4,.9,8.06,1.49,12.15,1.77,10.13,.85,15.66,2.47,17.91,5.28,.99,1.26,1.38,2.88,1.09,4.45v.08H58.03v5.94H208.74c.54,0,13.18-.08,13.96-5.85,.35-1.94-.15-3.94-1.37-5.5Z"/></g><rect id="ao" class="az" x="59.77" y="51.86" width="4.04" height="4.29" rx=".42" ry=".42"/><rect id="ap" class="az" x="67.86" y="51.86" width="4.04" height="4.29" rx=".42" ry=".42"/><rect id="aq" class="az" x="75.96" y="51.86" width="4.04" height="4.29" rx=".42" ry=".42"/><rect id="ar" class="az" x="118.78" y="51.86" width="4.04" height="4.29" rx=".42" ry=".42"/><rect id="as" class="az" x="126.88" y="51.86" width="4.04" height="4.29" rx=".42" ry=".42"/><rect id="at" class="az" x="134.97" y="51.86" width="4.04" height="4.29" rx=".42" ry=".42"/><rect id="au" class="az" x="146.56" y="49.74" width="3.49" height="4.78" rx=".42" ry=".42"/><rect id="av" class="az" x="155.38" y="51.18" width="1.53" height="4.08" rx=".42" ry=".42"/><path id="aw" class="ba" d="M100.9,40.91c-.99-.99-1.79-2.15-2.37-3.43h-21.75c1.01,6.95,4.24,13.39,9.21,18.35l52.66,52.66v-29.85l-37.75-37.74Z"/></svg>