<?xml version="1.0" encoding="UTF-8"?><svg id="a" xmlns="http://www.w3.org/2000/svg" viewBox="0 0 59 59"><defs><style>.e{fill:#fff;}.f{fill:#c30d23;}</style></defs><circle id="b" class="f" cx="29.5" cy="29.5" r="29.5"/><g id="c"><path id="d" class="e" d="M42.27,28.1c-.54,4.41-4.24,7.74-8.68,7.82-2.21,.02-4.41,0-6.62,0h-.7c0,1.14,.02,2.21-.01,3.28,0,.29-.1,.58-.29,.8-.13,.1-.54-.06-.76-.2-2.88-1.83-5.76-3.66-8.63-5.51-.2-.15-.39-.31-.57-.48v-.35c.19-.13,.38-.26,.57-.38,2.88-1.84,5.76-3.67,8.64-5.5,.22-.14,.64-.3,.76-.2,.2,.22,.3,.51,.29,.8,.03,1.07,.01,2.14,.01,3.21,.09,.03,.19,.05,.29,.06,2.32,0,4.65,.06,6.97-.02,2.16-.06,3.96-1.65,4.28-3.79,.34-2.22-1.06-4.35-3.23-4.91-.74-.17-1.5-.23-2.26-.2-4.49-.02-8.98,0-13.48,0-.76,0-.96-.19-.97-.9,0-.9,0-1.8,0-2.7,0-.73,.19-.93,.94-.93,4.76,0,9.53-.03,14.3,0,3.8-.04,7.24,2.28,8.63,5.81,.34,.79,.56,1.62,.64,2.48,.03,.6,0,1.21-.11,1.81Z"/></g></svg>