<?xml version="1.0" encoding="UTF-8"?><svg id="a" xmlns="http://www.w3.org/2000/svg" viewBox="0 0 623 391.15"><defs><style>.b{fill:#fff;}.c{fill:#c30d23;}</style></defs><rect class="b" width="623" height="391.15"/><g><path class="c" d="M341.46,208.76c3.09,.73,6,1.51,8.95,2.1,2.07,.41,4.19,.62,6.3,.84,9.16,.94,18.35,.45,27.52,.46,55.77,.05,161.55,.02,217.32,.02,8.86,0,17.71,0,26.57,0,.81,0,1.63,0,2.45,0,.57,1.22,.32,2.34,.21,3.4-.81,.84-1.77,.52-2.63,.52-7.95,.02-15.91,.01-23.86,.01-62.01,0-174.02,.02-236.03-.02-9.1,0-18.12-.82-26.91-3.36-.69-.2-1.37-.44-2.27-.74,.89-1.22,1.65-2.26,2.37-3.24Z"/><path class="c" d="M630.73,206.34v3.8c-.77,.04-1.56,.11-2.34,.12-8.37,0-16.73,0-25.1,0-18.35,0-36.69,0-55.04,0-45.12,0-140.23,0-185.35-.03-6.82,0-13.48-1.11-20.17-3.16,.52-1.3,1.18-2.35,2.07-3.2,3.07,.56,6.03,1.15,9,1.61,2.34,.36,4.7,.65,7.06,.75,3.36,.14,6.72,.1,10.09,.1,58.32,0,166.65,0,224.97,0,10.74,0,21.49,0,32.23,.01,.8,0,1.6,0,2.58,0Z"/><path class="c" d="M630.8,218.23v3.39h-2.51c-43.31,0-136.62,.01-179.93,0-28.55,0-57.1,.06-85.64-.09-8.85-.05-17.53-1.75-26.01-4.35-.3-.09-.58-.23-.92-.37,.2-1.43,1.31-2.09,2.01-2.98,3.57,.81,7.03,1.71,10.53,2.37,3.12,.59,6.28,1.09,9.45,1.3,4.65,.31,9.33,.46,13.99,.46,60.79,.03,171.57,.02,232.36,.01,8.56,0,17.13-.09,25.69-.12,.3,0,.6,.21,.97,.35Z"/><path class="c" d="M-3.94,221.4v-2.82c.14-.14,.19-.21,.25-.26,.06-.05,.14-.1,.21-.11,.24-.04,.49-.07,.73-.07,70.45,0,180.9,0,251.47,0,.46,1.04,.91,2.05,1.45,3.26H-3.94Z"/><path class="c" d="M246.91,212.36c.26,1.06,.49,1.99,.7,2.86-.14,.13-.2,.19-.26,.24-.06,.05-.13,.12-.2,.12-61.45,.03-162.89,.05-224.34,.07-.25,0-.49,0-.74,0-.16,0-.33-.02-.49-.06-.08-.02-.15-.07-.21-.12-.07-.05-.13-.1-.18-.16-.05-.06-.08-.14-.14-.2-.05-.06-.12-.11-.08-.08-.83,.22-1.58,.59-2.34,.59-7.22,.04-14.44,.02-21.66,.01-.23,0-.46-.1-.84-.19v-2.84c2.31-.53,237.66-.78,250.77-.26Z"/><path class="c" d="M-3.94,210.19v-2.99c.08-.07,.14-.13,.2-.18,.06-.05,.13-.13,.19-.14,10-.04,20.01-.07,30.01-.09,.57,0,1.13,.05,1.67,.07,.06,.31,.1,.53,.17,.94,.44-.37,.79-.66,1.12-.93H246.03c.06,1.03,.11,1.98,.16,2.85-.17,.14-.23,.2-.29,.25-.06,.05-.13,.12-.2,.12-60.37,.04-160.73,.07-221.1,.1-9.42,0-18.84,0-28.54,0Z"/><path class="c" d="M242.77,65.17h3.74c.04,.47,.08,.86,.11,1.25,.31,4.06,.63,8.13,.94,12.2,.05,.74-.01,1.48,.06,2.21,.28,3.08,.61,6.16,.89,9.24,.22,2.36,.3,4.73,.6,7.07,.67,5.33,1.39,10.66,2.18,15.97,.49,3.3,1.16,6.57,1.73,9.85,.54,3.13,1.02,6.27,1.58,9.39,.79,4.4,1.54,8.82,2.5,13.19,1.1,5.01,2.37,9.98,3.63,14.95,2.05,8.08,4.76,15.93,7.81,23.69,1.94,4.95,4.07,9.79,6.58,14.47,.23,.42,.39,.88,.67,1.5-.94,.3-1.76,.56-2.73,.87-.73-1.03-1.53-1.88-2-2.88-1.99-4.3-4.11-8.56-5.74-13-2.31-6.27-4.29-12.66-6.3-19.03-3.29-10.42-5.32-21.14-7.38-31.85-1.44-7.51-2.97-15.01-4.31-22.55-.71-4.01-1.09-8.07-1.61-12.11-.63-4.93-1.28-9.85-1.87-14.78-.23-1.94-.39-3.9-.51-5.85-.21-3.42-.37-6.85-.57-10.28-.03-.57-.2-1.13-.21-1.69,0-.6,.13-1.21,.2-1.84Z"/><path class="c" d="M285.63,195.65c-.95,.49-1.74,.89-2.76,1.41-1.07-1.89-2.23-3.66-3.12-5.55-1.45-3.1-2.59-6.36-4.12-9.42-1.95-3.9-3.15-8.05-4.45-12.16-2.34-7.46-4.31-15.02-5.76-22.72-.87-4.64-1.89-9.26-2.72-13.9-.81-4.49-1.45-9-2.21-13.5-.52-3.13-1.17-6.24-1.65-9.38-.49-3.22-.87-6.45-1.28-9.68-.3-2.34-.58-4.69-.86-7.03-.2-1.7-.42-3.39-.55-5.1-.21-2.85-.35-5.71-.54-8.56-.3-4.64-.62-9.28-.92-13.92-.01-.22,.12-.46,.24-.87h3.52c.16,2,.32,4.01,.47,6.02,.32,4.39,.63,8.79,.95,13.18,.16,2.2,.32,4.39,.5,6.59,.35,4.39,.61,8.8,1.12,13.17,.44,3.79,1.19,7.55,1.77,11.33,.55,3.54,1.01,7.09,1.6,10.62,1.55,9.15,3.21,18.27,5.25,27.33,2.6,11.6,6.38,22.77,11.12,33.63,1.24,2.83,2.83,5.51,4.38,8.51Z"/><path class="c" d="M280.63,198.14c-.85,.3-1.53,.55-2.33,.83-1.7-1.63-2.45-3.84-3.4-5.85-1.85-3.91-3.51-7.92-5.08-11.95-3.02-7.76-5.52-15.69-7.59-23.75-1.19-4.65-2.16-9.36-3.14-14.06-1.01-4.86-1.96-9.73-2.84-14.62-.94-5.21-1.77-10.43-2.62-15.66-.65-4.01-1.27-8.03-1.87-12.05-.23-1.53-.4-3.07-.53-4.62-.38-4.39-.75-8.78-1.07-13.18-.35-4.72-.65-9.44-1-14.16-.09-1.19-.3-2.37-.49-3.85,1.41-.07,2.5-.12,3.68-.18,.23,2.1,.53,4.02,.64,5.95,.24,4,.33,8,.6,12,.2,3,.58,6,.87,9,.19,2.03,.34,4.06,.56,6.09,.28,2.59,.58,5.17,.95,7.75,.47,3.3,.97,6.61,1.52,9.9,1.11,6.58,2.35,13.13,3.38,19.72,1.5,9.59,3.66,19.03,6.11,28.4,1.15,4.41,2.89,8.67,4.24,13.03,1.99,6.43,4.84,12.47,7.93,18.42,.45,.86,.92,1.72,1.5,2.81Z"/><path class="c" d="M354.99,174.78c-1.02-.69-1.83-1.24-2.77-1.88,.67-2.27,1.31-4.53,2-6.76,2.64-8.51,4.42-17.22,6.09-25.95,1.78-9.29,3.35-18.62,4.89-27.95,.69-4.19,1.12-8.42,1.61-12.63,.49-4.22,.95-8.44,1.37-12.66,.23-2.28,.4-4.56,.53-6.85,.24-4.17,.42-8.34,.64-12.51,.04-.81,.15-1.61,.24-2.52h4.59c0,.65,.04,1.2,0,1.74-.44,5.21-.89,10.42-1.35,15.63-.16,1.87-.32,3.75-.51,5.62-.51,4.87-.89,9.77-1.6,14.61-.91,6.21-2.05,12.39-3.16,18.57-1,5.54-2.07,11.06-3.15,16.58-2.36,12.1-5.07,24.11-8.89,35.85-.1,.3-.26,.57-.51,1.12Z"/><path class="c" d="M357.71,65.11h4.08c0,2.16,.04,4.19-.02,6.22-.04,1.3-.23,2.6-.33,3.9-.3,3.83-.59,7.66-.89,11.49-.19,2.36-.4,4.72-.57,7.09-.53,7.25-1.55,14.44-2.81,21.59-1.1,6.27-2.04,12.56-3.18,18.82-2.08,11.48-4.38,22.91-7.78,34.09-.16,.52-.41,1.02-.66,1.62-1.14-.28-2.14-.52-3.25-.8,0-.45-.1-.87,.01-1.22,2.3-6.99,4.03-14.13,5.54-21.32,1.02-4.87,1.86-9.78,2.67-14.69,1.19-7.24,2.37-14.49,3.38-21.76,.7-5.01,1.13-10.06,1.63-15.1,.47-4.71,.89-9.43,1.33-14.14,.04-.41,.03-.82,.05-1.23,.2-4.58,.4-9.16,.61-13.74,.01-.23,.1-.46,.19-.83Z"/><path class="c" d="M363.98,65.09h3.63c.05,.49,.16,.96,.13,1.41-.11,1.87-.26,3.75-.4,5.62-.29,3.75-.59,7.49-.88,11.24-.21,2.69-.33,5.39-.6,8.07-.4,3.98-.87,7.95-1.38,11.91-.5,3.88-.97,7.77-1.64,11.63-1.54,8.92-3.19,17.81-4.79,26.72-1.71,9.56-3.96,18.99-6.92,28.24-.2,.61-.46,1.2-.73,1.9-.54-.18-1-.3-1.42-.49-.44-.19-.86-.45-1.46-.77,5.24-17.15,7.94-34.79,11.1-52.34,3.16-17.55,4.14-35.29,5.38-53.14Z"/><path class="c" d="M301.83,234.79c1.25,.66,2.32,1.23,3.67,1.94-2.28,1.14-4.49,1.54-6.67,2.07-4.74,1.15-9.59,1.31-14.4,.91-10.33-.86-19.6-4.28-26.9-12.02-5.15-5.46-8.5-11.87-9.29-19.33-1.01-9.59,1.35-18.34,7.63-25.87,1.3-1.56,2.53-3.17,4.51-4.42,.47,1.28,.89,2.39,1.3,3.49-1.12,1.31-2.13,2.47-3.12,3.66-5.02,6.08-7.3,13.13-6.86,20.94,.37,6.54,2.79,12.36,7.04,17.42,5.57,6.63,12.71,10.28,21.13,11.84,6.86,1.27,13.64,1.17,20.41-.46,.47-.11,.97-.11,1.54-.16Z"/><path class="c" d="M284.46,217.95c1.2-.58,2-.97,2.97-1.44,.77,.71,1.6,1.36,2.29,2.14,4.41,4.94,9.64,8.81,15.46,11.89,5.06,2.68,10.33,4.7,16.1,5.47,9.15,1.23,17.93,.11,26.31-3.69,3.06-1.39,5.59-3.64,8.03-5.95,.89-.84,1.87-1.58,2.57-2.7h3.55c-.23,.48-.32,.89-.57,1.15-2.12,2.16-4.13,4.47-6.45,6.39-5.56,4.59-12.22,6.77-19.2,7.94-2.96,.5-6.03,.6-9.04,.52-5.32-.15-10.59-1-15.53-2.96-6.46-2.57-12.59-5.8-17.72-10.65-2.79-2.64-5.64-5.21-8.76-8.1Z"/><path class="c" d="M368,204.18h-2.94c-.37-2.18-.7-4.33-1.1-6.47-1.07-5.59-3.66-10.36-7.54-14.55-3.98-4.29-8.76-7.09-14.36-8.46-3.72-.91-7.53-1.37-11.38-.61-1.19,.23-2.4,.4-3.61,.56-5.19,.67-9.51,3.23-13.73,6.36-.69-.82-1.42-1.68-2.16-2.55,6.81-7.28,22.78-10.78,35.36-5.87,14.68,5.72,22.32,20.44,21.46,31.6Z"/><path class="c" d="M295.06,230.45c1.26,.82,2.62,1.7,4.33,2.81-2.3,.39-4.25,.9-6.22,1.03-6.92,.43-13.73-.12-20.23-2.77-10.01-4.08-16.66-11.19-18.83-21.89-1.89-9.35,.69-17.62,7.16-24.66,.31-.34,.71-.6,1.24-1.04,.46,1.06,.84,1.93,1.26,2.89-.84,1.18-1.7,2.36-2.53,3.56-6.58,9.43-5.61,23.22,2.94,31.76,4.54,4.53,9.93,7.09,16.1,8.24,4.87,.91,9.76,.73,14.79,.07Z"/><path class="c" d="M327.19,195.81c-.24,.4-.52,.9-.84,1.38-.31,.48-.66,.93-1.13,1.59-1.12-.75-2.32-1.4-3.35-2.26-5.46-4.57-10.89-9.16-16.29-13.79-3.82-3.27-7.78-6.31-12.85-7.28-2.87-.55-5.81-.82-8.73-1.07-1.79-.15-3.59-.03-5.5-.03-.27-.59-.57-1.16-.79-1.76-.22-.6-.36-1.22-.52-1.78,.24-.2,.36-.38,.49-.39,4.74-.3,9.47-.36,14.17,.6,5.32,1.09,10.04,3.46,14.24,6.8,3.52,2.8,6.84,5.83,10.26,8.75,3.54,3.02,7.09,6.03,10.85,9.22Z"/><path class="c" d="M289.82,215.41c1.02-.53,1.79-.92,2.39-1.23,3.12,2.62,5.97,5.16,8.98,7.51,4.55,3.55,9.67,6.12,15.15,7.81,2.77,.86,5.73,1.24,8.64,1.42,4.4,.28,8.82,.19,13.14-.94,4.31-1.13,8.4-2.67,11.88-5.55,.75-.62,1.55-1.19,2.28-1.74,1.04,.18,2,.35,3.34,.59-2.19,1.85-4.03,3.72-6.17,5.14-3.63,2.4-7.63,4.05-11.94,4.81-3.86,.68-7.73,1.4-11.67,1.03-4.86-.47-9.64-1.26-14.19-3.3-4.5-2.01-8.75-4.39-12.79-7.2-2.57-1.78-4.76-3.95-6.98-6.11-.63-.61-1.19-1.3-2.06-2.26Z"/><path class="c" d="M289.61,225.89c.83,.73,1.98,1.75,3.31,2.91-8.13,.81-15.78,.18-22.7-4.13-5.99-3.73-9.95-9.11-11.09-16.08-1.02-6.22,0-12.25,3.83-17.54,.47-.65,1.02-1.24,1.7-2.06,.55,1.39,.99,2.51,1.42,3.62-1.5,2.41-2.62,4.83-3.2,7.51-1.11,5.15-.28,9.92,2.54,14.34,3.19,4.99,7.7,8.23,13.45,9.57,3.33,.78,6.74,1.19,10.73,1.86Z"/><path class="c" d="M280.58,180.18c-.5-1.26-.95-2.38-1.46-3.66,2.34-.47,4.54-.33,6.7-.21,4.61,.24,9.11,1.07,13.04,3.67,2.11,1.39,4.11,2.97,6.04,4.6,3.75,3.16,7.39,6.45,11.14,9.62,1.99,1.69,4.1,3.24,6.16,4.85,.57,.45,1.13,.91,1.84,1.48-.67,.99-1.29,1.91-2.03,3-1.25-.87-2.45-1.57-3.48-2.46-4.97-4.24-9.91-8.54-14.85-12.82-4.25-3.69-8.89-6.68-14.53-7.72-1.2-.22-2.43-.29-3.65-.34-1.55-.06-3.1-.01-4.93-.01Z"/><path class="c" d="M320.68,205.21c-.89,1.11-1.68,2.1-2.61,3.26-1.03-.8-1.95-1.45-2.8-2.18-3.36-2.87-6.7-5.76-10.04-8.64-2.6-2.24-5.15-4.55-7.82-6.71-3.54-2.85-7.62-4.38-12.21-4.41-.49,0-.98-.02-1.47-.04-.08,0-.15-.05-.51-.16-.5-1.14-1.07-2.46-1.66-3.8,1.82-.54,5.5-.57,7.36-.18,4.69,.96,8.71,3.22,12.29,6.31,3.78,3.26,7.49,6.6,11.28,9.83,2.17,1.86,4.46,3.58,6.68,5.38,.49,.4,.94,.84,1.5,1.35Z"/><path class="c" d="M317.35,184.54c-.78-.66-1.4-1.19-2.17-1.84,2.13-1.96,4.62-3.23,7.2-4.37,5.27-2.31,10.84-2.37,16.38-1.92,4.45,.36,8.48,2.26,12.11,4.89,6.59,4.77,10.09,11.4,11.4,19.29,.18,1.1,.03,2.26,.03,3.53h-2.52c-.26-1.8-.43-3.48-.76-5.14-1.01-5.1-3.38-9.41-7.19-13.04-3.2-3.05-6.92-4.9-11.1-5.95-3.34-.84-6.74-1.17-10.18-.45-1.59,.34-3.24,.41-4.81,.82-3.03,.79-5.84,2.1-8.4,4.19Z"/><path class="c" d="M294.7,213.02c1.13-.65,1.97-1.12,2.83-1.61,1.89,1.64,3.74,3.23,5.57,4.83,2.91,2.55,6.13,4.56,9.73,6.02,2.34,.95,4.58,2.08,7.12,2.52,5.19,.9,10.33,1.2,15.54,0,3.04-.7,5.96-1.63,9.02-3.3,1.09,.18,2.49,.42,4.16,.7-1.73,1.97-3.73,2.85-5.75,3.73-5.74,2.51-11.77,3.32-17.94,2.91-5.86-.39-11.28-2.37-16.45-5.15-5.08-2.73-9.39-6.41-13.83-10.66Z"/><path class="c" d="M357.29,203.65h-2.88c-.28-1.52-.45-2.97-.81-4.36-1.18-4.54-3.84-8-7.69-10.67-3.44-2.38-7.37-3.27-11.34-3.33-3.96-.06-8.01,.46-11.51,2.77-.33,.22-.73,.33-1.14,.52-.89-.77-1.74-1.52-2.65-2.31,1.32-1.61,3.22-2.23,5.01-2.94,5.51-2.18,11.26-2.31,16.88-.94,4.33,1.05,8.01,3.64,10.96,7.09,3.26,3.81,4.6,8.38,5.26,13.22,.03,.24-.04,.49-.09,.96Z"/><path class="c" d="M334.05,187.7h3.61c-1.04,6.48-15.72,26.59-23.88,32.74-1.11-.58-2.32-1.2-3.67-1.9,10.78-8.31,17.62-19.38,23.95-30.84Z"/><path class="c" d="M348.2,193.71c-5.83,10.99-12.63,21.12-21.57,29.91-1.46-.2-2.89-.4-4.48-.62,9.6-9.42,16.84-20.24,22.75-31.98q1.76,.61,3.3,2.69Z"/><path class="c" d="M319.55,222.61c-1.13-.38-2.2-.74-3.61-1.22,10.36-9.37,17.79-20.6,23.83-32.73q1.87,.02,3.37,1.16c-3.82,9.51-14.66,25.31-23.59,32.79Z"/><path class="c" d="M272.64,219.06c-1.09-.89-2.14-1.73-3.6-2.91,6.78-1.43,12.88-3.32,18.66-6.15,5.8-2.84,11.17-6.36,16.59-10.11,.81,.59,1.63,1.19,2.73,1.99-10.28,8.5-21.75,13.91-34.39,17.18Z"/><path class="c" d="M300.13,196.1c.79,.65,1.41,1.17,2.12,1.76-.13,.87-.89,1.33-1.53,1.73-4.17,2.57-8.27,5.27-12.59,7.56-5.56,2.96-11.49,5.04-17.67,6.35-.93,.2-1.93,.13-2.93,.19-.54-.85-1.01-1.58-1.65-2.59,12.82-2.11,23.79-7.85,34.24-15Z"/><path class="c" d="M295.71,192.23c.79,.67,1.58,1.36,2.6,2.22-10.07,7.02-20.74,12.44-33.08,14.39-.29-1.17-.52-2.1-.8-3.23,11.43-2.22,21.85-6.57,31.28-13.39Z"/></g><g><path class="c" d="M234.49,275.92c1.82,.21,3.74,.26,5.7,.14-.05-.75,0-1.49-.07-2.24-1.73,.09-3.41,.07-5.14-.05l-.16-.21,.07-2.59,.19-.14c1.61,.09,3.31,.12,5.02,.02,0-.96,0-1.94,.02-3.01l.16-.19h3.15l.16,.19c-.02,.91-.05,1.84-.07,2.71,1.28-.19,2.47-.4,3.55-.65l.19,.19,.3,2.43-.16,.19c-1.26,.33-2.57,.61-3.88,.79,0,.75,0,1.47,.05,2.22,1.49-.23,2.94-.56,4.32-.96l.21,.14,.37,2.64-.12,.21c-1.59,.44-3.15,.77-4.69,1,.05,1.1,.09,2.12,.16,3.11,2.36,.96,4.32,2.24,6.51,3.95v.23l-2.05,2.47h-.26c-1.33-1.26-3.15-2.64-4.25-3.25-.14,2.52-2.17,3.5-5.44,3.5-2.22,0-4.83-1-4.83-3.74,0-3.17,3.39-3.95,6.93-3.78-.05-.7-.09-1.42-.12-2.12-2.19,.14-4.25,.09-6.3-.12l-.14-.19,.44-2.73,.16-.16Zm4.18,7.96c-1.21,0-2.01,.51-2.01,.93,0,.56,.49,.98,2.01,.98,1.31,0,1.77-.58,1.68-1.63-.51-.21-.86-.28-1.68-.28Z"/><path class="c" d="M260.33,276.5c-.09,.28-.19,.54-.19,.86,0,.51,.47,.58,1.77,.58,.19-1.31,.33-2.26,.47-3.25-1.63-.09-3.01-.21-4.27-.37l-.14-.21,.19-2.71,.19-.14c1.45,.21,2.87,.35,4.51,.4,.19-1.28,.37-2.59,.51-3.76l.21-.12,3.25,.37,.16,.21c-.14,.98-.33,2.1-.54,3.25,1.07-.05,2.12-.16,3.22-.3l.19,.14,.19,2.75-.21,.19c-1.19,.14-2.54,.23-3.92,.28-.19,1.1-.35,2.19-.49,3.22,1.52-.09,3.15-.3,4.81-.61l.21,.14,.3,2.73-.14,.19c-2.01,.33-3.85,.54-5.56,.68-.12,.91-.23,1.66-.23,2.62,0,1.17,.54,1.61,2.31,1.61,3.13,0,3.99-.61,3.99-1.56,0-.49-.23-1.24-1.33-2.43l2.78-.93c.23-.07,.42,.02,.51,.14,1.7,1.8,1.98,2.89,1.98,3.97,0,2.33-1.91,4.06-7.91,4.06-4.58,0-5.88-1.84-5.88-4.23,0-1.33,.12-2.26,.23-3.25-3.1-.16-4.39-.77-4.39-2.64,0-.56,.09-1.14,.42-1.89l.19-.09,2.5-.09,.12,.19Z"/><path class="c" d="M291.88,268.33c-.21,.93-.47,1.84-.68,2.68,.82-.16,1.63-.35,2.45-.56l.21,.09,.44,2.05c2.61,.21,5.09,.75,7.21,1.82l.07,.23-.96,2.59-.19,.09c-.75-.35-1.21-.4-1.89-.4-1.49,0-2.78,.58-2.78,1.63,0,.72,.35,1.8,1.03,3.48,1.94,.84,3.78,1.91,5.09,2.99v.23l-1.96,2.52-.21,.02c-1-.91-1.75-1.56-2.73-2.22-.07,1.89-2.12,3.13-4.76,3.13-3.04,0-4.9-1.21-4.9-3.64,0-2.19,1.87-3.74,4.37-3.74,.82,0,1.03,.05,1.52,.12-.35-1.19-.56-1.94-.51-2.85,.05-1.26,1.24-2.33,3.18-2.92-.91-.16-2.05-.26-3.18-.33l-.12-.16,.58-1.33c-1,.21-2.03,.42-3.06,.56-1.4,3.9-3.17,6.98-5.51,10.27l-.23,.05-2.75-1.77v-.21c1.96-2.36,3.55-5.07,4.72-7.89-1.21,.12-2.45,.19-3.74,.21l-.19-.14-.07-2.87,.16-.16c1.77-.05,3.43-.16,5.02-.33,.37-1.31,.68-2.59,.89-3.88l.21-.14,3.13,.54,.14,.21Zm-.28,15.74c-.79,0-1.26,.49-1.26,.89,0,.56,.51,.93,1.35,.93,1.33,0,2.1-.47,2.08-1.4-.54-.3-1.12-.42-2.17-.42Z"/><path class="c" d="M322.53,288.46c-3.6-2.75-7.03-4.88-11.49-7.19-.96-.49-1.56-1.21-1.56-2.29,0-.96,.51-1.68,1.31-2.45,2.66-2.59,6.19-5.42,9.76-8.19h.26l2.43,2.68v.23c-3.29,2.24-6.82,4.74-9.08,6.72-.23,.19-.37,.44-.35,.61s.19,.33,.4,.42c3.01,1.38,7.24,3.81,10.83,6.3l.02,.23-2.31,2.9-.21,.02Z"/><path class="c" d="M331.03,277.81c2.92-2.26,5.02-5.63,6.16-9.48l.23-.14,3.1,1.1,.09,.23c-1.42,4.27-3.41,7.8-6.63,10.65-.12,.12-.23,.16-.35,.16-.14,0-.28-.07-.42-.23l-2.19-2.29Zm1.63,7.4c1.21-.02,2.43-.05,3.64-.09,1.21-2.92,2.29-5.98,3.34-9.29l.23-.12,3.2,1.12,.12,.23c-1.07,2.94-2.08,5.49-3.22,7.89,2.12-.12,4.25-.28,6.37-.49-.77-1.1-1.56-2.12-2.43-3.15l.05-.16,2.31-1.54,.26,.05c2.01,2.12,3.85,4.51,5.51,7.1l-.02,.26-2.64,2.05-.28-.07c-.35-.63-.68-1.26-1.03-1.84-4.9,.65-9.95,1.17-14.45,1.42l-.23-.14-.91-3.04,.19-.19Zm18.72-5.37c-.12,.14-.19,.19-.28,.19s-.19-.05-.33-.16c-3.67-3.2-5.72-7.24-7.24-11.53l.12-.21,2.78-.93,.21,.09c1.26,3.46,3.55,7.4,7.05,9.9l-2.31,2.66Z"/><path class="c" d="M366.76,267.82l2.47-.07,.16,.16-.07,2.47v2.96l.07,2.62-.19,.21-2.47-.07h-3.64v13.28h-2.99l.12-7.94v-10.44l-.07-3.1,.14-.16,2.5,.07h3.97Zm-.28,3.2v-.96h-3.38v.96h3.38Zm-3.38,2.85h3.38v-.98h-3.38v.98Zm2.8,9.67l-2.03,.05-.19-.14v-2.17l.16-.14,2.05,.07h.7c.02-.61,0-1.19,0-1.8h-.21l-1.91,.05-.19-.14v-2.12l.16-.14,1.94,.07h7.87l1.94-.07,.16,.16v2.1l-.16,.14-1.94-.05h-.26v1.8h.86l1.94-.07,.16,.16v2.15l-.16,.14-1.94-.05h-.86l.12,4.76h-3.1l.12-4.76h-1.91c-.12,.7-.28,1.31-.54,1.84-.63,1.35-1.61,2.36-3.22,3.15-.09,.05-.19,.07-.26,.07-.14,0-.26-.07-.35-.19l-1.68-1.92c1.45-.58,2.38-1.17,2.87-2.08,.14-.26,.26-.56,.33-.89h-.47Zm3.57-4.13c0,.61,0,1.19-.02,1.8h1.68v-1.8h-1.66Zm4.13-3.29l-2.47,.07-.19-.21,.07-2.62v-2.96l-.07-2.47,.16-.16,2.47,.07h4.32l2.5-.07,.14,.16-.07,3.1v8.83l.12,6.68c0,2.08-1.49,2.71-3.95,2.71-.47,0-.56-.12-.65-.35l-1-2.73c.86,0,1.47-.02,2.15-.09,.28-.05,.33-.14,.33-.7v-9.25h-3.85Zm3.85-5.09v-.96h-3.55v.96h3.55Zm-3.55,2.85h3.55v-.98h-3.55v.98Z"/></g></svg>