<?xml version="1.0" encoding="UTF-8"?><svg id="a" xmlns="http://www.w3.org/2000/svg" xmlns:xlink="http://www.w3.org/1999/xlink" viewBox="0 0 384.22 81"><defs><style>.ao{fill:none;}.ap{fill:#fff;}.aq{fill:#b40019;}.ar{clip-path:url(#q);}.as{clip-path:url(#l);}.at{clip-path:url(#h);}.au{clip-path:url(#u);}.av{clip-path:url(#y);}.aw{clip-path:url(#d);}.ax{clip-path:url(#al);}.ay{clip-path:url(#ah);}.az{clip-path:url(#ad);}</style><clipPath id="d"><rect class="ao" x="53.09" y="44.67" width="19.81" height="25.33"/></clipPath><clipPath id="h"><rect class="ao" x="95.09" y="44.67" width="19.81" height="25.33"/></clipPath><clipPath id="l"><rect class="ao" x="11.09" y="44.67" width="19.81" height="25.33"/></clipPath><clipPath id="q"><rect class="ao" x="309.09" y="44.67" width="19.81" height="25.33"/></clipPath><clipPath id="u"><rect class="ao" x="351.09" y="44.67" width="19.81" height="25.33"/></clipPath><clipPath id="y"><rect class="ao" x="267.09" y="44.67" width="19.81" height="25.33"/></clipPath><clipPath id="ad"><rect class="ao" x="181.09" y="44.67" width="19.81" height="25.33"/></clipPath><clipPath id="ah"><rect class="ao" x="223.09" y="44.67" width="19.81" height="25.33"/></clipPath><clipPath id="al"><rect class="ao" x="139.09" y="44.67" width="19.81" height="25.33"/></clipPath></defs><rect id="b" class="ap" width="128" height="81"/><g id="c"><g class="aw"><g id="e"><path id="f" class="aq" d="M68.58,67.03v1.73c0,.44-.06,.57-.48,.69-.55,.16-1.12,.28-1.69,.36-1.73,.2-3.47,.25-5.2,.14-.94-.02-1.88-.14-2.8-.35-.21-.05-.41-.12-.61-.2-.24-.08-.39-.31-.36-.56,.02-.48,0-.96,0-1.43,.02-.28-.12-.54-.35-.68-2.05-1.41-3.44-3.59-3.85-6.05-.43-2.39,.12-4.85,1.54-6.82,.63-.91,1.42-1.7,2.34-2.34,.21-.12,.33-.35,.31-.59,0-.59,0-1.18,0-1.77,.02-1.59,.93-3.03,2.35-3.74,1.12-.59,2.39-.84,3.65-.74,1.08,.04,2.12,.39,3.01,1,1.38,.89,2.19,2.42,2.15,4.06,0,.39,.02,.78,0,1.17-.03,.25,.1,.5,.31,.62,1.52,1.06,2.69,2.54,3.37,4.26,1.39,3.54,.45,7.57-2.36,10.13-.42,.38-.87,.72-1.34,1.1m-8.17-14.66c-.03,.06-.05,.13-.07,.2-.15,.93-.34,1.86-.45,2.79-.18,1.63-.24,3.26-.18,4.9,.04,1.6,.2,3.19,.48,4.76,.16,.93,.4,1.84,.71,2.74,.04,.19,.19,.33,.38,.35,1.08,.18,2.19,.19,3.27,.02,.28-.01,.51-.21,.57-.48,.69-2.21,1.07-4.51,1.13-6.83,.04-.99,.02-1.99,.01-2.98-.03-1.67-.21-3.34-.55-4.98-.03-.18-.09-.36-.13-.5h-5.17Zm7.78-3.36v-.18c-.19-1.05-.77-2-1.62-2.65-.84-.67-1.87-1.07-2.94-1.15-1.23-.14-2.48,.08-3.59,.63-1.06,.49-1.84,1.42-2.15,2.55-.1,.25-.14,.52-.11,.79,3.43-.71,6.97-.71,10.4,0m-10.39,2.43c.19,.09,.39,.16,.6,.21,.68,.14,1.36,.24,2.05,.3,1.1,.07,2.21,.08,3.32,.09,1.17,0,2.34-.09,3.49-.31,.35-.03,.68-.16,.97-.35,.03-.41,.03-.82-.02-1.22-3.44,.68-6.97,.68-10.41,0,0,0,0,1.28,0,1.28Zm-.05,16.25v1.17c0,.13,.08,.25,.21,.28,.21,.08,.43,.15,.65,.2,.95,.18,1.92,.29,2.88,.32,1.74,.1,3.48,.03,5.2-.19,.42-.07,.84-.16,1.25-.28,.14-.04,.31-.09,.32-.27,.01-.4,0-.8,0-1.22-.46,.1-.86,.18-1.26,.27-.35,.08-.71,.15-1.06,.25-1.95,.56-4.01,.55-5.96-.02-.71-.2-1.44-.33-2.24-.5"/></g></g></g><g id="g"><g class="at"><g id="i"><path id="j" class="aq" d="M110.58,67.03v1.73c0,.44-.06,.57-.48,.69-.55,.16-1.12,.28-1.69,.36-1.73,.2-3.47,.25-5.2,.14-.94-.02-1.88-.14-2.8-.35-.21-.05-.41-.12-.61-.2-.24-.08-.39-.31-.36-.56,.02-.48,0-.96,0-1.43,.02-.28-.12-.54-.35-.68-2.05-1.41-3.44-3.59-3.85-6.05-.43-2.39,.12-4.85,1.54-6.82,.63-.91,1.42-1.7,2.34-2.34,.21-.12,.33-.35,.31-.59-.01-.59-.01-1.18,.01-1.77,.02-1.59,.93-3.03,2.35-3.74,1.12-.59,2.39-.84,3.65-.74,1.08,.04,2.12,.39,3.01,1,1.38,.89,2.19,2.42,2.15,4.06,0,.39,.02,.78,0,1.17-.03,.25,.1,.5,.31,.62,1.52,1.06,2.69,2.54,3.37,4.26,1.39,3.54,.45,7.57-2.36,10.13-.42,.38-.87,.72-1.34,1.1m-8.17-14.66c-.03,.06-.05,.13-.07,.2-.15,.93-.34,1.86-.45,2.79-.18,1.63-.24,3.26-.18,4.9,.04,1.6,.2,3.19,.48,4.76,.16,.93,.4,1.84,.71,2.74,.04,.19,.19,.33,.38,.35,1.08,.18,2.19,.19,3.27,.02,.28-.01,.51-.21,.57-.48,.69-2.21,1.07-4.51,1.13-6.83,.04-.99,.02-1.99,.01-2.98-.03-1.67-.21-3.34-.55-4.98-.03-.18-.09-.36-.13-.5h-5.17Zm7.78-3.36v-.18c-.19-1.05-.77-2-1.62-2.65-.84-.67-1.87-1.07-2.94-1.15-1.23-.14-2.48,.08-3.59,.63-1.06,.49-1.84,1.42-2.15,2.55-.1,.25-.14,.52-.11,.79,3.43-.71,6.97-.71,10.4,0m-10.39,2.43c.19,.09,.39,.16,.6,.21,.68,.14,1.36,.24,2.05,.3,1.1,.07,2.21,.08,3.32,.09,1.17,0,2.34-.09,3.49-.31,.35-.03,.68-.16,.97-.35,.03-.41,.03-.82-.02-1.22-3.44,.68-6.97,.68-10.41,0,0,0,0,1.28,0,1.28Zm-.05,16.25v1.17c0,.13,.08,.25,.21,.28,.21,.08,.43,.15,.65,.2,.95,.18,1.92,.29,2.88,.32,1.74,.1,3.48,.03,5.2-.19,.42-.07,.84-.16,1.25-.28,.14-.04,.31-.09,.32-.27,.01-.4,0-.8,0-1.22-.46,.1-.86,.18-1.26,.27-.35,.08-.71,.15-1.06,.25-1.95,.56-4.01,.55-5.96-.02-.71-.2-1.44-.33-2.24-.5"/></g></g></g><g id="k"><g class="as"><g id="m"><path id="n" class="aq" d="M26.58,67.03v1.73c0,.44-.06,.57-.48,.69-.55,.16-1.12,.28-1.69,.36-1.73,.2-3.47,.25-5.2,.14-.94-.02-1.88-.14-2.8-.35-.21-.05-.41-.12-.61-.2-.24-.08-.39-.31-.36-.56,.02-.48,0-.96,0-1.43,.02-.28-.12-.54-.35-.68-2.05-1.41-3.44-3.59-3.85-6.05-.43-2.39,.12-4.85,1.54-6.82,.63-.91,1.42-1.7,2.34-2.34,.21-.12,.33-.35,.31-.59-.01-.59-.01-1.18,.01-1.77,.02-1.59,.93-3.03,2.35-3.74,1.12-.59,2.39-.84,3.65-.74,1.08,.04,2.12,.39,3.01,1,1.38,.89,2.19,2.42,2.15,4.06,0,.39,.02,.78,0,1.17-.03,.25,.1,.5,.31,.62,1.52,1.06,2.69,2.54,3.37,4.26,1.39,3.54,.45,7.57-2.36,10.13-.42,.38-.87,.72-1.34,1.1m-8.17-14.66c-.03,.06-.05,.13-.07,.2-.15,.93-.34,1.86-.45,2.79-.18,1.63-.24,3.26-.18,4.9,.04,1.6,.2,3.19,.48,4.76,.16,.93,.4,1.84,.71,2.74,.04,.19,.19,.33,.38,.35,1.08,.18,2.19,.19,3.27,.02,.28-.01,.51-.21,.57-.48,.69-2.21,1.07-4.51,1.13-6.83,.04-.99,.02-1.99,.01-2.98-.03-1.67-.21-3.34-.55-4.98-.03-.18-.09-.36-.13-.5h-5.17Zm7.78-3.36v-.18c-.19-1.05-.77-2-1.62-2.65-.84-.67-1.87-1.07-2.94-1.15-1.23-.14-2.48,.08-3.59,.63-1.06,.49-1.84,1.42-2.15,2.55-.1,.25-.14,.52-.11,.79,3.43-.71,6.97-.71,10.4,0m-10.39,2.43c.19,.09,.39,.16,.6,.21,.68,.14,1.36,.24,2.05,.3,1.1,.07,2.21,.08,3.32,.09,1.17,0,2.34-.09,3.49-.31,.35-.03,.68-.16,.97-.35,.03-.41,.03-.82-.02-1.22-3.44,.68-6.97,.68-10.41,0,0,0,0,1.28,0,1.28Zm-.05,16.25v1.17c0,.13,.08,.25,.21,.28,.21,.08,.43,.15,.65,.2,.95,.18,1.92,.29,2.88,.32,1.74,.1,3.48,.03,5.2-.19,.42-.07,.84-.16,1.25-.28,.14-.04,.31-.09,.32-.27,.01-.4,0-.8,0-1.22-.46,.1-.86,.18-1.26,.27-.35,.08-.71,.15-1.06,.25-1.95,.56-4.01,.55-5.96-.02-.71-.2-1.44-.33-2.24-.5"/></g></g></g><rect id="o" class="ap" x="256" width="128" height="81"/><g id="p"><g class="ar"><g id="r"><path id="s" class="aq" d="M324.58,67.03v1.73c0,.44-.06,.57-.48,.69-.55,.16-1.12,.28-1.69,.36-1.73,.2-3.47,.25-5.2,.14-.94-.02-1.88-.14-2.8-.35-.21-.05-.41-.12-.61-.2-.24-.08-.39-.31-.36-.56,.02-.48,0-.96,0-1.43,.02-.28-.12-.54-.35-.68-2.05-1.41-3.44-3.59-3.85-6.05-.43-2.39,.12-4.85,1.54-6.82,.63-.91,1.42-1.7,2.34-2.34,.21-.12,.33-.35,.31-.59,0-.59,0-1.18,0-1.77,.02-1.59,.93-3.03,2.35-3.74,1.12-.59,2.39-.84,3.65-.74,1.08,.04,2.12,.39,3.01,1,1.38,.89,2.19,2.42,2.15,4.06,0,.39,.02,.78,0,1.17-.03,.25,.1,.5,.31,.62,1.52,1.06,2.69,2.54,3.37,4.26,1.39,3.54,.45,7.57-2.36,10.13-.42,.38-.87,.72-1.34,1.1m-8.17-14.66c-.03,.06-.05,.13-.07,.2-.15,.93-.34,1.86-.45,2.79-.18,1.63-.24,3.26-.18,4.9,.04,1.6,.2,3.19,.48,4.76,.16,.93,.4,1.84,.71,2.74,.04,.19,.19,.33,.38,.35,1.08,.18,2.19,.19,3.27,.02,.28-.01,.51-.21,.57-.48,.69-2.21,1.07-4.51,1.13-6.83,.04-.99,.02-1.99,.01-2.98-.03-1.67-.21-3.34-.55-4.98-.03-.18-.09-.36-.13-.5h-5.17Zm7.78-3.36v-.18c-.19-1.05-.77-2-1.62-2.65-.84-.67-1.87-1.07-2.94-1.15-1.23-.14-2.48,.08-3.59,.63-1.06,.49-1.84,1.42-2.15,2.55-.1,.25-.14,.52-.11,.79,3.43-.71,6.97-.71,10.4,0m-10.39,2.43c.19,.09,.39,.16,.6,.21,.68,.14,1.36,.24,2.05,.3,1.1,.07,2.21,.08,3.32,.09,1.17,0,2.34-.09,3.49-.31,.35-.03,.68-.16,.97-.35,.03-.41,.03-.82-.02-1.22-3.44,.68-6.97,.68-10.41,0,0,0,0,1.28,0,1.28Zm-.05,16.25v1.17c0,.13,.08,.25,.21,.28,.21,.08,.43,.15,.65,.2,.95,.18,1.92,.29,2.88,.32,1.74,.1,3.48,.03,5.2-.19,.42-.07,.84-.16,1.25-.28,.14-.04,.31-.09,.32-.27,.01-.4,0-.8,0-1.22-.46,.1-.86,.18-1.26,.27-.35,.08-.71,.15-1.06,.25-1.95,.56-4.01,.55-5.96-.02-.71-.2-1.44-.33-2.24-.5"/></g></g></g><g id="t"><g class="au"><g id="v"><path id="w" class="aq" d="M366.58,67.03v1.73c0,.44-.06,.57-.48,.69-.55,.16-1.12,.28-1.69,.36-1.73,.2-3.47,.25-5.2,.14-.94-.02-1.88-.14-2.8-.35-.21-.05-.41-.12-.61-.2-.24-.08-.39-.31-.36-.56,.02-.48,0-.96,0-1.43,.02-.28-.12-.54-.35-.68-2.05-1.41-3.44-3.59-3.85-6.05-.43-2.39,.12-4.85,1.54-6.82,.63-.91,1.42-1.7,2.34-2.34,.21-.12,.33-.35,.31-.59-.01-.59-.01-1.18,.01-1.77,.02-1.59,.93-3.03,2.35-3.74,1.12-.59,2.39-.84,3.65-.74,1.08,.04,2.12,.39,3.01,1,1.38,.89,2.19,2.42,2.15,4.06,0,.39,.02,.78,0,1.17-.03,.25,.1,.5,.31,.62,1.52,1.06,2.69,2.54,3.37,4.26,1.39,3.54,.45,7.57-2.36,10.13-.42,.38-.87,.72-1.34,1.1m-8.17-14.66c-.03,.06-.05,.13-.07,.2-.15,.93-.34,1.86-.45,2.79-.18,1.63-.24,3.26-.18,4.9,.04,1.6,.2,3.19,.48,4.76,.16,.93,.4,1.84,.71,2.74,.04,.19,.19,.33,.38,.35,1.08,.18,2.19,.19,3.27,.02,.28-.01,.51-.21,.57-.48,.69-2.21,1.07-4.51,1.13-6.83,.04-.99,.02-1.99,.01-2.98-.03-1.67-.21-3.34-.55-4.98-.03-.18-.09-.36-.13-.5h-5.17Zm7.78-3.36v-.18c-.19-1.05-.77-2-1.62-2.65-.84-.67-1.87-1.07-2.94-1.15-1.23-.14-2.48,.08-3.59,.63-1.06,.49-1.84,1.42-2.15,2.55-.1,.25-.14,.52-.11,.79,3.43-.71,6.97-.71,10.4,0m-10.39,2.43c.19,.09,.39,.16,.6,.21,.68,.14,1.36,.24,2.05,.3,1.1,.07,2.21,.08,3.32,.09,1.17,0,2.34-.09,3.49-.31,.35-.03,.68-.16,.97-.35,.03-.41,.03-.82-.02-1.22-3.44,.68-6.97,.68-10.41,0,0,0,0,1.28,0,1.28Zm-.05,16.25v1.17c0,.13,.08,.25,.21,.28,.21,.08,.43,.15,.65,.2,.95,.18,1.92,.29,2.88,.32,1.74,.1,3.48,.03,5.2-.19,.42-.07,.84-.16,1.25-.28,.14-.04,.31-.09,.32-.27,.01-.4,0-.8,0-1.22-.46,.1-.86,.18-1.26,.27-.35,.08-.71,.15-1.06,.25-1.95,.56-4.01,.55-5.96-.02-.71-.2-1.44-.33-2.24-.5"/></g></g></g><g id="x"><g class="av"><g id="z"><path id="aa" class="aq" d="M282.58,67.03v1.73c0,.44-.06,.57-.48,.69-.55,.16-1.12,.28-1.69,.36-1.73,.2-3.47,.25-5.2,.14-.94-.02-1.88-.14-2.8-.35-.21-.05-.41-.12-.61-.2-.24-.08-.39-.31-.36-.56,.02-.48,0-.96,0-1.43,.02-.28-.12-.54-.35-.68-2.05-1.41-3.44-3.59-3.85-6.05-.43-2.39,.12-4.85,1.54-6.82,.63-.91,1.42-1.7,2.34-2.34,.21-.12,.33-.35,.31-.59-.01-.59-.01-1.18,.01-1.77,.02-1.59,.93-3.03,2.35-3.74,1.12-.59,2.39-.84,3.65-.74,1.08,.04,2.12,.39,3.01,1,1.38,.89,2.19,2.42,2.15,4.06,0,.39,.02,.78,0,1.17-.03,.25,.1,.5,.31,.62,1.52,1.06,2.69,2.54,3.37,4.26,1.39,3.54,.45,7.57-2.36,10.13-.42,.38-.87,.72-1.34,1.1m-8.17-14.66c-.03,.06-.05,.13-.07,.2-.15,.93-.34,1.86-.45,2.79-.18,1.63-.24,3.26-.18,4.9,.04,1.6,.2,3.19,.48,4.76,.16,.93,.4,1.84,.71,2.74,.04,.19,.19,.33,.38,.35,1.08,.18,2.19,.19,3.27,.02,.28-.01,.51-.21,.57-.48,.69-2.21,1.07-4.51,1.13-6.83,.04-.99,.02-1.99,.01-2.98-.03-1.67-.21-3.34-.55-4.98-.03-.18-.09-.36-.13-.5h-5.17Zm7.78-3.36v-.18c-.19-1.05-.77-2-1.62-2.65-.84-.67-1.87-1.07-2.94-1.15-1.23-.14-2.48,.08-3.59,.63-1.06,.49-1.84,1.42-2.15,2.55-.1,.25-.14,.52-.11,.79,3.43-.71,6.97-.71,10.4,0m-10.39,2.43c.19,.09,.39,.16,.6,.21,.68,.14,1.36,.24,2.05,.3,1.1,.07,2.21,.08,3.32,.09,1.17,0,2.34-.09,3.49-.31,.35-.03,.68-.16,.97-.35,.03-.41,.03-.82-.02-1.22-3.44,.68-6.97,.68-10.41,0,0,0,0,1.28,0,1.28Zm-.05,16.25v1.17c0,.13,.08,.25,.21,.28,.21,.08,.43,.15,.65,.2,.95,.18,1.92,.29,2.88,.32,1.74,.1,3.48,.03,5.2-.19,.42-.07,.84-.16,1.25-.28,.14-.04,.31-.09,.32-.27,.01-.4,0-.8,0-1.22-.46,.1-.86,.18-1.26,.27-.35,.08-.71,.15-1.06,.25-1.95,.56-4.01,.55-5.96-.02-.71-.2-1.44-.33-2.24-.5"/></g></g></g><rect id="ab" class="aq" x="128" width="128" height="81"/><g id="ac"><g class="az"><g id="ae"><path id="af" class="ap" d="M196.58,67.03v1.73c0,.44-.06,.57-.48,.69-.55,.16-1.12,.28-1.69,.36-1.73,.2-3.47,.25-5.2,.14-.94-.02-1.88-.14-2.8-.35-.21-.05-.41-.12-.61-.2-.24-.08-.39-.31-.36-.56,.02-.48,0-.96,0-1.43,.02-.28-.12-.54-.35-.68-2.05-1.41-3.44-3.59-3.85-6.05-.43-2.39,.12-4.85,1.54-6.82,.63-.91,1.42-1.7,2.34-2.34,.21-.12,.33-.35,.31-.59,0-.59,0-1.18,0-1.77,.02-1.59,.93-3.03,2.35-3.74,1.12-.59,2.39-.84,3.65-.74,1.08,.04,2.12,.39,3.01,1,1.38,.89,2.19,2.42,2.15,4.06,0,.39,.02,.78,0,1.17-.03,.25,.1,.5,.31,.62,1.52,1.06,2.69,2.54,3.37,4.26,1.39,3.54,.45,7.57-2.36,10.13-.42,.38-.87,.72-1.34,1.1m-8.17-14.66c-.03,.06-.05,.13-.07,.2-.15,.93-.34,1.86-.45,2.79-.18,1.63-.24,3.26-.18,4.9,.04,1.6,.2,3.19,.48,4.76,.16,.93,.4,1.84,.71,2.74,.04,.19,.19,.33,.38,.35,1.08,.18,2.19,.19,3.27,.02,.28-.01,.51-.21,.57-.48,.69-2.21,1.07-4.51,1.13-6.83,.04-.99,.02-1.99,.01-2.98-.03-1.67-.21-3.34-.55-4.98-.03-.18-.09-.36-.13-.5h-5.17Zm7.78-3.36v-.18c-.19-1.05-.77-2-1.62-2.65-.84-.67-1.87-1.07-2.94-1.15-1.23-.14-2.48,.08-3.59,.63-1.06,.49-1.84,1.42-2.15,2.55-.1,.25-.14,.52-.11,.79,3.43-.71,6.97-.71,10.4,0m-10.39,2.43c.19,.09,.39,.16,.6,.21,.68,.14,1.36,.24,2.05,.3,1.1,.07,2.21,.08,3.32,.09,1.17,0,2.34-.09,3.49-.31,.35-.03,.68-.16,.97-.35,.03-.41,.03-.82-.02-1.22-3.44,.68-6.97,.68-10.41,0,0,0,0,1.28,0,1.28Zm-.05,16.25v1.17c0,.13,.08,.25,.21,.28,.21,.08,.43,.15,.65,.2,.95,.18,1.92,.29,2.88,.32,1.74,.1,3.48,.03,5.2-.19,.42-.07,.84-.16,1.25-.28,.14-.04,.31-.09,.32-.27,.01-.4,0-.8,0-1.22-.46,.1-.86,.18-1.26,.27-.35,.08-.71,.15-1.06,.25-1.95,.56-4.01,.55-5.96-.02-.71-.2-1.44-.33-2.24-.5"/></g></g></g><g id="ag"><g class="ay"><g id="ai"><path id="aj" class="ap" d="M238.58,67.03v1.73c0,.44-.06,.57-.48,.69-.55,.16-1.12,.28-1.69,.36-1.73,.2-3.47,.25-5.2,.14-.94-.02-1.88-.14-2.8-.35-.21-.05-.41-.12-.61-.2-.24-.08-.39-.31-.36-.56,.02-.48,0-.96,0-1.43,.02-.28-.12-.54-.35-.68-2.05-1.41-3.44-3.59-3.85-6.05-.43-2.39,.12-4.85,1.54-6.82,.63-.91,1.42-1.7,2.34-2.34,.21-.12,.33-.35,.31-.59-.01-.59-.01-1.18,.01-1.77,.02-1.59,.93-3.03,2.35-3.74,1.12-.59,2.39-.84,3.65-.74,1.08,.04,2.12,.39,3.01,1,1.38,.89,2.19,2.42,2.15,4.06,0,.39,.02,.78,0,1.17-.03,.25,.1,.5,.31,.62,1.52,1.06,2.69,2.54,3.37,4.26,1.39,3.54,.45,7.57-2.36,10.13-.42,.38-.87,.72-1.34,1.1m-8.17-14.66c-.03,.06-.05,.13-.07,.2-.15,.93-.34,1.86-.45,2.79-.18,1.63-.24,3.26-.18,4.9,.04,1.6,.2,3.19,.48,4.76,.16,.93,.4,1.84,.71,2.74,.04,.19,.19,.33,.38,.35,1.08,.18,2.19,.19,3.27,.02,.28-.01,.51-.21,.57-.48,.69-2.21,1.07-4.51,1.13-6.83,.04-.99,.02-1.99,.01-2.98-.03-1.67-.21-3.34-.55-4.98-.03-.18-.09-.36-.13-.5h-5.17Zm7.78-3.36v-.18c-.19-1.05-.77-2-1.62-2.65-.84-.67-1.87-1.07-2.94-1.15-1.23-.14-2.48,.08-3.59,.63-1.06,.49-1.84,1.42-2.15,2.55-.1,.25-.14,.52-.11,.79,3.43-.71,6.97-.71,10.4,0m-10.39,2.43c.19,.09,.39,.16,.6,.21,.68,.14,1.36,.24,2.05,.3,1.1,.07,2.21,.08,3.32,.09,1.17,0,2.34-.09,3.49-.31,.35-.03,.68-.16,.97-.35,.03-.41,.03-.82-.02-1.22-3.44,.68-6.97,.68-10.41,0,0,0,0,1.28,0,1.28Zm-.05,16.25v1.17c0,.13,.08,.25,.21,.28,.21,.08,.43,.15,.65,.2,.95,.18,1.92,.29,2.88,.32,1.74,.1,3.48,.03,5.2-.19,.42-.07,.84-.16,1.25-.28,.14-.04,.31-.09,.32-.27,.01-.4,0-.8,0-1.22-.46,.1-.86,.18-1.26,.27-.35,.08-.71,.15-1.06,.25-1.95,.56-4.01,.55-5.96-.02-.71-.2-1.44-.33-2.24-.5"/></g></g></g><g id="ak"><g class="ax"><g id="am"><path id="an" class="ap" d="M154.58,67.03v1.73c0,.44-.06,.57-.48,.69-.55,.16-1.12,.28-1.69,.36-1.73,.2-3.47,.25-5.2,.14-.94-.02-1.88-.14-2.8-.35-.21-.05-.41-.12-.61-.2-.24-.08-.39-.31-.36-.56,.02-.48,0-.96,0-1.43,.02-.28-.12-.54-.35-.68-2.05-1.41-3.44-3.59-3.85-6.05-.43-2.39,.12-4.85,1.54-6.82,.63-.91,1.42-1.7,2.34-2.34,.21-.12,.33-.35,.31-.59-.01-.59-.01-1.18,.01-1.77,.02-1.59,.93-3.03,2.35-3.74,1.12-.59,2.39-.84,3.65-.74,1.08,.04,2.12,.39,3.01,1,1.38,.89,2.19,2.42,2.15,4.06,0,.39,.02,.78,0,1.17-.03,.25,.1,.5,.31,.62,1.52,1.06,2.69,2.54,3.37,4.26,1.39,3.54,.45,7.57-2.36,10.13-.42,.38-.87,.72-1.34,1.1m-8.17-14.66c-.03,.06-.05,.13-.07,.2-.15,.93-.34,1.86-.45,2.79-.18,1.63-.24,3.26-.18,4.9,.04,1.6,.2,3.19,.48,4.76,.16,.93,.4,1.84,.71,2.74,.04,.19,.19,.33,.38,.35,1.08,.18,2.19,.19,3.27,.02,.28-.01,.51-.21,.57-.48,.69-2.21,1.07-4.51,1.13-6.83,.04-.99,.02-1.99,.01-2.98-.03-1.67-.21-3.34-.55-4.98-.03-.18-.09-.36-.13-.5h-5.17Zm7.78-3.36v-.18c-.19-1.05-.77-2-1.62-2.65-.84-.67-1.87-1.07-2.94-1.15-1.23-.14-2.48,.08-3.59,.63-1.06,.49-1.84,1.42-2.15,2.55-.1,.25-.14,.52-.11,.79,3.43-.71,6.97-.71,10.4,0m-10.39,2.43c.19,.09,.39,.16,.6,.21,.68,.14,1.36,.24,2.05,.3,1.1,.07,2.21,.08,3.32,.09,1.17,0,2.34-.09,3.49-.31,.35-.03,.68-.16,.97-.35,.03-.41,.03-.82-.02-1.22-3.44,.68-6.97,.68-10.41,0,0,0,0,1.28,0,1.28Zm-.05,16.25v1.17c0,.13,.08,.25,.21,.28,.21,.08,.43,.15,.65,.2,.95,.18,1.92,.29,2.88,.32,1.74,.1,3.48,.03,5.2-.19,.42-.07,.84-.16,1.25-.28,.14-.04,.31-.09,.32-.27,.01-.4,0-.8,0-1.22-.46,.1-.86,.18-1.26,.27-.35,.08-.71,.15-1.06,.25-1.95,.56-4.01,.55-5.96-.02-.71-.2-1.44-.33-2.24-.5"/></g></g></g></svg>