<?xml version="1.0" encoding="UTF-8"?><svg id="a" xmlns="http://www.w3.org/2000/svg" xmlns:xlink="http://www.w3.org/1999/xlink" viewBox="0 0 263.9 105.52"><defs><style>.d,.e,.f,.g{fill:none;}.h{stroke:#cd1d1c;stroke-width:.3px;}.h,.i{fill:#cd1d1c;}.h,.e,.f,.g{stroke-miterlimit:10;}.j{fill:#e60012;}.k{fill:#fff;}.l{fill:#fffbc7;}.m{fill:#fff100;}.n{fill:#231815;}.o{fill:#77b538;}.e{stroke:#c30d23;stroke-width:1.8px;}.f{stroke:#77b538;}.p{clip-path:url(#b);}.q{clip-path:url(#c);}.g{stroke:#231815;stroke-width:.5px;}</style><clipPath id="b"><rect class="d" x="35.7" y="30.62" width="123.13" height="23.96"/></clipPath><clipPath id="c"><rect class="d" x="39.03" y="38.34" width="58.83" height="16.68"/></clipPath></defs><g><rect class="l" x="7.34" y=".9" width="255.66" height="103.72" rx="11.12" ry="11.12"/><rect class="e" x="7.34" y=".9" width="255.66" height="103.72" rx="11.12" ry="11.12"/><g><path class="n" d="M183.9,47.44c.09,0,.17,.04,.17,.11,0,.09-.12,.13-.23,.17-.08,.57-.21,1.4-.53,2.27-.14-.06-.46-.16-.88-.21,.33-.68,.55-1.82,.61-2.48l.85,.13Zm2.5-4.33s.14,.1,.14,.17c0,.1-.1,.1-.27,.1-.17,.22-.89,1.22-1.03,1.42-.41,.54-.54,.69-.82,1.01,.38-.04,.53-.06,1.19-.15-.13-.4-.19-.56-.25-.7l.8-.22s.04,.09,.06,.15c.95-1.21,1.38-2.28,1.59-3.08l.9,.29c.1,.04,.2,.11,.2,.17s-.06,.09-.09,.1c-.06,.02-.12,.04-.18,.05-.09,.22-.27,.68-.39,.95h2.82c0,1.52,0,4.95-.5,6.24-.31,.79-.91,.99-2.07,.97-.07-.42-.23-.77-.43-1.12,.14,.03,.49,.11,.82,.11,.69,0,.88-.3,1.08-1.8,.14-1.12,.14-2.57,.12-3.5h-2.31c-.32,.54-.47,.79-.74,1.16-.29-.26-.64-.41-.81-.49,.3,.78,.46,1.48,.53,1.8-.44,.12-.6,.17-.85,.28-.03-.17-.05-.31-.11-.58l-.65,.12v4.07h-.93v-3.93c-.13,.02-1.04,.13-1.27,.16-.03,.11-.09,.22-.17,.22-.07,0-.14-.1-.16-.23l-.12-.86c.21,0,.67-.05,.8-.06,.17-.2,.28-.33,.64-.79-.47-.5-.67-.67-1.44-1.31l.56-.77c.21,.16,.34,.28,.49,.4,.07-.1,.63-1,.93-1.71l.76,.37c.08,.04,.14,.1,.14,.18,0,.09-.18,.1-.27,.09-.39,.7-.77,1.28-.99,1.59,.24,.23,.31,.3,.41,.39,.47-.61,.8-1.06,1.11-1.65l.76,.42Zm-.11,4.1c.1,.66,.25,1.18,.55,2.06-.22,.05-.6,.15-.84,.3-.13-.41-.44-1.42-.52-2.12l.81-.23Zm1.92-1.84c.65,1.14,.89,1.78,1.01,2.14-.38,.15-.54,.22-.86,.4-.24-.76-.72-1.69-1.01-2.2l.86-.34Z"/><path class="n" d="M196.84,49.89h-1.2v-5.24h-1.61v-.89c.9-.05,1.56-.2,1.85-1.41h.96v7.54Z"/><path class="n" d="M203.47,42.68v6.36h-.92v-.42h-1v.82h-.91v-6.77h2.83Zm-.92,2.49v-1.64h-1v1.64h1Zm-1,.86v1.75h1v-1.75h-1Zm6.46-.25c.07,0,.17,0,.17,.11,0,.08-.1,.11-.19,.14v.63h1.07v.88h-1.07v2c0,.73-.21,1.18-1.89,1.09-.03-.43-.14-.74-.35-1.05,.21,.04,.74,.08,.8,.08,.35,0,.43-.09,.43-.46v-1.66h-3.07v-.88h3.07v-.94h-3.23v-.89h2.07v-.93h-1.81v-.89h1.81v-1.15l1.1,.05s.17,.02,.17,.12c0,.08-.11,.13-.23,.16v.81h1.96v.89h-1.96v.93h2.32v.89h-1.71l.56,.06Zm-3.23,1.77c.35,.31,.88,.92,1.2,1.39-.32,.22-.44,.33-.78,.66-.32-.53-.69-1.03-1.14-1.44l.73-.6Z"/><path class="n" d="M213.9,42.04v3.14h-2.64v5.41h-.97v-8.55h3.61Zm-.96,1.22v-.54h-1.68v.54h1.68Zm-1.68,.61v.6h1.68v-.6h-1.68Zm4.95,5.4h-2.93v.41h-.9v-3.83h3.83v3.42Zm-.89-2.07v-.6h-2.04v.6h2.04Zm-2.04,.69v.63h2.04v-.63h-2.04Zm5.03-5.85v7.28c0,.92-.27,1.1-.63,1.22-.27,.09-.76,.12-1.06,.1-.09-.5-.23-.78-.44-1.08,.22,.06,.45,.09,.68,.09,.47,0,.52-.09,.52-.61v-3.87h-2.65v-3.13h3.59Zm-.97,1.21v-.55h-1.67v.55h1.67Zm-1.67,.61v.58h1.67v-.58h-1.67Z"/><path class="n" d="M227.34,49.89h-6.31c.09-1.41,.8-2.14,2.77-3.35,1.87-1.15,2.25-1.38,2.25-2.17,0-.85-.79-1.2-1.67-1.2-1.72,0-1.93,1.07-1.98,1.89h-1.23c.03-.36,.09-1.15,.5-1.73,.74-1.04,1.99-1.2,2.7-1.2,1.81,0,2.92,.92,2.92,2.24,0,.97-.47,1.64-2.01,2.53-1.81,1.05-2.1,1.31-2.57,1.97h4.65v1.01Z"/><path class="n" d="M233.92,43.36c.62,1,.69,2.15,.69,2.76,0,.54-.06,1.77-.69,2.76-.67,1.04-1.78,1.22-2.48,1.22-1.32,0-2.09-.6-2.49-1.22-.61-.98-.68-2.13-.68-2.76,0-.7,.1-1.83,.68-2.76,.53-.85,1.46-1.22,2.49-1.22s1.96,.4,2.48,1.22Zm-4.42,2.76c0,.8,.11,2.97,1.94,2.97s1.94-2.16,1.94-2.97c0-.95-.18-2.97-1.94-2.97s-1.94,2.07-1.94,2.97Z"/><path class="n" d="M240.56,42.77s.1,.08,.1,.14c0,.1-.09,.1-.28,.1-.79,1.29-1.44,2.18-2.98,3.38-.27-.4-.48-.6-.77-.76,1.35-.99,2.21-1.84,3.02-3.44l.9,.58Zm-1.75,3.38v-.97h5.09c-.86-.88-1.18-1.65-1.4-2.16h-1.36v-.94h2.18c.24,1.44,1.33,2.72,2.63,3.43-.37,.36-.45,.47-.64,.87-.46-.27-.84-.62-1.3-1.09-.19,4.5-.24,5.26-2.49,5.26-.1,0-.16,0-.25,0-.02-.52-.22-.91-.3-1.08,.13,.02,.44,.07,.78,.07,.9,0,.95-.27,1.09-1.44,.04-.33,.11-1.49,.1-1.95h-1.79c-.06,.89-.23,3.03-3.28,4.41-.2-.43-.55-.73-.72-.86,2.33-.86,2.93-2.21,3.01-3.55h-1.38Z"/></g><g><path class="n" d="M196.83,76.73h-1.2v-5.24h-1.61v-.89c.9-.05,1.56-.2,1.85-1.41h.96v7.54Z"/><path class="n" d="M203.47,69.52v6.36h-.92v-.42h-1v.82h-.91v-6.77h2.83Zm-.92,2.49v-1.64h-1v1.64h1Zm-1,.86v1.75h1v-1.75h-1Zm6.46-.25c.07,0,.17,0,.17,.11,0,.08-.1,.11-.19,.14v.63h1.07v.88h-1.07v2c0,.73-.21,1.18-1.89,1.09-.03-.43-.14-.74-.35-1.05,.21,.04,.74,.08,.8,.08,.35,0,.43-.09,.43-.46v-1.66h-3.07v-.88h3.07v-.94h-3.23v-.89h2.07v-.93h-1.81v-.89h1.81v-1.15l1.1,.05s.17,.02,.17,.12c0,.08-.11,.13-.23,.16v.81h1.96v.89h-1.96v.93h2.32v.89h-1.71l.55,.06Zm-3.23,1.77c.35,.31,.88,.92,1.2,1.39-.32,.22-.44,.33-.78,.66-.32-.53-.69-1.03-1.14-1.44l.73-.6Z"/><path class="n" d="M213.9,68.88v3.14h-2.64v5.41h-.97v-8.55h3.61Zm-.96,1.22v-.54h-1.68v.54h1.68Zm-1.68,.61v.6h1.68v-.6h-1.68Zm4.95,5.4h-2.93v.41h-.9v-3.83h3.83v3.42Zm-.89-2.07v-.6h-2.04v.6h2.04Zm-2.04,.69v.63h2.04v-.63h-2.04Zm5.03-5.85v7.28c0,.92-.27,1.1-.63,1.22-.27,.09-.76,.12-1.06,.09-.09-.5-.23-.77-.44-1.08,.22,.06,.45,.09,.68,.09,.47,0,.52-.09,.52-.61v-3.87h-2.65v-3.13h3.59Zm-.97,1.21v-.55h-1.67v.55h1.67Zm-1.67,.61v.58h1.67v-.58h-1.67Z"/><path class="n" d="M226.87,70.2h-3.76l-.41,2.13c.55-.49,1.26-.57,1.82-.57,1.88,0,2.78,1.37,2.78,2.56s-.84,2.61-3.1,2.61c-.45,0-1.41-.04-2.21-.62-.79-.57-.92-1.4-.96-1.66h1.27c.19,1.06,1.09,1.25,1.84,1.25,1.31,0,1.93-.78,1.93-1.62,0-.65-.42-1.54-1.84-1.54-1,0-1.41,.36-1.62,.55h-1.32l.81-4.11h4.76v1.01Z"/><path class="n" d="M233.92,70.2c.62,1,.69,2.15,.69,2.76,0,.54-.06,1.77-.69,2.76-.67,1.04-1.78,1.22-2.48,1.22-1.32,0-2.09-.6-2.49-1.22-.61-.97-.68-2.13-.68-2.76,0-.7,.1-1.83,.68-2.76,.54-.85,1.46-1.22,2.49-1.22s1.96,.4,2.48,1.22Zm-4.42,2.76c0,.8,.11,2.97,1.94,2.97s1.94-2.16,1.94-2.97c0-.95-.18-2.97-1.94-2.97s-1.94,2.07-1.94,2.97Z"/><path class="n" d="M240.56,69.61s.1,.08,.1,.14c0,.1-.09,.1-.28,.1-.79,1.29-1.44,2.18-2.98,3.38-.27-.4-.48-.6-.77-.76,1.35-.99,2.21-1.84,3.02-3.44l.9,.58Zm-1.75,3.38v-.97h5.09c-.86-.88-1.18-1.65-1.4-2.16h-1.36v-.94h2.18c.24,1.45,1.33,2.72,2.63,3.44-.37,.36-.45,.47-.64,.87-.46-.27-.84-.62-1.3-1.09-.19,4.5-.24,5.26-2.49,5.26-.1,0-.16,0-.25,0-.02-.52-.22-.91-.3-1.08,.13,.02,.44,.07,.78,.07,.9,0,.95-.27,1.09-1.44,.04-.33,.11-1.49,.1-1.95h-1.79c-.06,.89-.23,3.03-3.28,4.41-.2-.43-.56-.73-.72-.86,2.33-.86,2.93-2.21,3.01-3.55h-1.38Z"/></g><g><path class="n" d="M195.7,80.82c-.37,.37-1.25,1.24-1.25,2.86s.88,2.5,1.25,2.86l-.42,.4c-.31-.29-1.42-1.33-1.42-3.27s1.11-2.98,1.42-3.27l.42,.4Z"/><path class="n" d="M199.88,83.94h2.72v.68h-2.72v2.19h-.76v-2.19h-2.75v-.68h2.75v-2.45h-2.47v-.66h5.68v.66h-2.44v2.45Zm-2.1-2.11c.29,.46,.58,1.06,.78,1.59-.23,.09-.29,.11-.68,.29-.12-.34-.4-1.05-.76-1.61l.66-.27Zm4.06,.16c.09,.03,.14,.06,.14,.12,0,.07-.06,.07-.2,.07-.27,.73-.48,1.16-.69,1.56-.17-.08-.22-.1-.68-.27,.25-.44,.59-1.23,.71-1.74l.72,.26Z"/><path class="n" d="M203.98,80.61l.72,.05c.07,0,.14,.01,.14,.1,0,.07-.07,.1-.17,.14v1.22h.77v.55c.5-.83,.69-1.52,.79-2.15l.7,.1c.07,0,.14,.03,.14,.1,0,.1-.1,.12-.19,.14-.09,.35-.15,.53-.2,.68h2.65c.02,1.11,.02,3.75-.43,4.63-.28,.54-.76,.6-1.61,.59-.01-.25-.07-.47-.23-.79,.1,.01,.36,.06,.63,.06,.51,0,.64-.15,.79-.95,.08-.44,.16-1.55,.16-2.88h-2.21c-.32,.72-.62,1.15-.75,1.34-.07-.05-.3-.24-.63-.35,.12-.14,.22-.27,.33-.44h-.72v2.02c.48-.18,.67-.29,.79-.36-.01,.08-.02,.18-.02,.33,0,.12,0,.23,.01,.33-.77,.39-1.61,.69-1.95,.81-.02,.12-.04,.2-.13,.2-.07,0-.09-.05-.1-.12l-.14-.7c.16-.03,.36-.08,.85-.25v-2.27h-.8v-.64h.8v-1.51Zm1.69,4.53c.81-.21,1.87-.62,2.5-.92,0,.14,0,.49,0,.63-.66,.35-1.63,.71-2.04,.85,0,.1-.04,.19-.13,.19-.05,0-.1-.05-.12-.12l-.2-.64Zm2.3-1.46h-1.85v-.62h1.85v.62Z"/><path class="n" d="M212.93,82.64h-.87v-.92h.87v.92Zm0,3.01h-.87v-.91h.87v.91Z"/><path class="n" d="M216.48,84.53c.06,0,.12,.03,.12,.08,0,.07-.09,.09-.16,.12-.05,.41-.15,1-.38,1.62-.1-.04-.33-.12-.63-.15,.24-.48,.4-1.3,.44-1.77l.61,.1Zm1.78-3.09s.1,.07,.1,.12c0,.07-.07,.07-.19,.07-.12,.16-.64,.87-.74,1.01-.29,.38-.39,.49-.59,.72,.27-.03,.38-.04,.85-.11-.09-.29-.14-.4-.18-.5l.57-.16s.03,.07,.04,.11c.68-.87,.98-1.63,1.13-2.2l.64,.2c.07,.03,.14,.08,.14,.12s-.04,.07-.07,.07c-.04,.01-.09,.03-.13,.03-.06,.16-.19,.49-.28,.68h2.02c0,1.09,0,3.53-.35,4.46-.22,.57-.65,.71-1.48,.69-.05-.3-.16-.55-.31-.8,.1,.02,.35,.07,.59,.07,.49,0,.63-.21,.77-1.28,.1-.8,.1-1.84,.09-2.5h-1.65c-.22,.38-.33,.57-.53,.83-.2-.18-.46-.29-.58-.35,.21,.56,.33,1.06,.38,1.28-.31,.09-.43,.12-.61,.2-.02-.12-.03-.22-.08-.42l-.46,.09v2.91h-.66v-2.81c-.09,.01-.74,.1-.91,.12-.02,.07-.07,.16-.12,.16-.05,0-.1-.07-.12-.16l-.09-.61c.15,0,.48-.03,.57-.04,.12-.14,.2-.24,.46-.57-.33-.36-.48-.48-1.03-.94l.4-.55c.15,.12,.25,.2,.35,.29,.05-.07,.45-.72,.66-1.22l.55,.27c.05,.03,.1,.08,.1,.13,0,.06-.13,.07-.19,.06-.28,.5-.55,.91-.71,1.13,.17,.16,.23,.21,.29,.28,.33-.44,.57-.76,.79-1.18l.55,.3Zm-.08,2.93c.07,.47,.18,.84,.39,1.47-.16,.03-.43,.11-.6,.21-.1-.29-.31-1.01-.37-1.52l.58-.16Zm1.37-1.31c.46,.81,.63,1.27,.72,1.53-.27,.11-.38,.16-.61,.29-.17-.54-.51-1.21-.72-1.57l.61-.25Z"/><path class="n" d="M227.96,86.28h-4.5c.06-1,.57-1.53,1.98-2.39,1.34-.82,1.61-.98,1.61-1.55,0-.61-.57-.85-1.2-.85-1.23,0-1.38,.76-1.41,1.35h-.88c.02-.26,.06-.82,.36-1.24,.53-.74,1.42-.85,1.93-.85,1.29,0,2.08,.66,2.08,1.6,0,.69-.33,1.17-1.43,1.8-1.29,.75-1.5,.94-1.84,1.41h3.32v.72Z"/><path class="n" d="M231.83,81.13v4.55h-.65v-.3h-.72v.59h-.65v-4.83h2.02Zm-.65,1.78v-1.17h-.72v1.17h.72Zm-.72,.61v1.25h.72v-1.25h-.72Zm4.61-.18s.12,0,.12,.07c0,.05-.07,.08-.14,.1v.45h.76v.63h-.76v1.43c0,.52-.15,.84-1.35,.78-.02-.31-.1-.53-.25-.75,.15,.03,.53,.05,.57,.05,.25,0,.31-.06,.31-.33v-1.18h-2.19v-.63h2.19v-.67h-2.31v-.63h1.48v-.66h-1.29v-.64h1.29v-.82l.79,.03s.12,.01,.12,.09c0,.05-.08,.09-.16,.12v.58h1.4v.64h-1.4v.66h1.65v.63h-1.22l.4,.04Zm-2.31,1.26c.25,.22,.63,.66,.85,.99-.23,.16-.31,.24-.56,.47-.23-.38-.49-.74-.81-1.03l.52-.43Z"/><path class="n" d="M239.28,80.68v2.24h-1.89v3.86h-.69v-6.1h2.58Zm-.68,.87v-.38h-1.2v.38h1.2Zm-1.2,.44v.43h1.2v-.43h-1.2Zm3.53,3.85h-2.09v.29h-.64v-2.73h2.73v2.44Zm-.63-1.48v-.43h-1.46v.43h1.46Zm-1.46,.49v.45h1.46v-.45h-1.46Zm3.59-4.18v5.2c0,.66-.19,.79-.45,.87-.19,.06-.54,.09-.76,.07-.06-.35-.16-.55-.31-.77,.16,.04,.32,.06,.48,.06,.33,0,.37-.07,.37-.44v-2.76h-1.89v-2.23h2.56Zm-.69,.87v-.4h-1.2v.4h1.2Zm-1.2,.44v.42h1.2v-.42h-1.2Z"/><path class="n" d="M243.37,86.55c.37-.36,1.25-1.24,1.25-2.86s-.88-2.49-1.25-2.86l.42-.4c.31,.29,1.42,1.34,1.42,3.27s-1.11,2.98-1.42,3.27l-.42-.4Z"/></g><g><path class="n" d="M28.87,16.83c.14,.11,.24,.27,.24,.45,0,.14-.06,.28-.21,.42-.38,.34-.79,.63-1.18,.89,.62,.43,1.33,.75,2.17,.96,.34,.09,.49,.34,.49,.58,0,.3-.23,.61-.58,.61-.07,0-.12,0-.19-.02-2.09-.55-3.9-1.99-4.72-3.88h-1.22v2.38c.48-.11,.95-.23,1.36-.36,.06-.02,.12-.03,.17-.03,.32,0,.52,.29,.52,.58,0,.2-.11,.39-.36,.48-1.19,.4-2.69,.7-3.83,.85-.39,.05-.63-.26-.63-.58,0-.25,.15-.49,.48-.54,.36-.04,.74-.11,1.14-.17v-2.61h-1.54c-.29,0-.45-.26-.45-.51s.15-.51,.45-.51h1.54v-3.41c0-.86,.34-1.21,1.43-1.21h4.72c.3,0,.45,.25,.45,.51s-.15,.51-.45,.51h-4.61c-.34,0-.4,.09-.4,.33v.27h4.44c.28,0,.41,.23,.41,.45,0,.23-.13,.46-.41,.46h-4.44v.58h4.48c.28,0,.41,.23,.41,.45,0,.23-.13,.46-.41,.46h-4.48v.6h6.49c.31,0,.45,.25,.45,.51s-.14,.51-.45,.51h-1.27Zm-2.8,0c.23,.39,.52,.74,.83,1.07,.44-.29,.81-.59,1.16-.97,.03-.03,.08-.06,.11-.1h-2.1Z"/><path class="n" d="M33.15,11.35c0-.28,.25-.43,.5-.43s.5,.14,.5,.43v6.84h.2c.14,0,.16-.07,.16-.26v-4.74c0-.28,.25-.43,.51-.43s.5,.14,.5,.43v4.93c0,.77-.34,1.08-1.08,1.08h-1.6c-.74,0-1.08-.32-1.08-1.08v-4.93c0-.28,.25-.43,.51-.43s.5,.14,.5,.43v4.74c0,.2,.02,.26,.16,.26h.2v-6.84Zm7.67,8.2c0,.98-.41,1.35-1.18,1.35-.35,0-.57-.01-.81-.07-.32-.08-.46-.32-.46-.56,0-.31,.23-.61,.65-.55,.18,.03,.3,.04,.44,.04,.18,0,.26-.07,.26-.33v-3.24h-3.55c-.28,0-.44-.26-.44-.51s.15-.51,.44-.51h5.19c.29,0,.45,.25,.45,.51s-.15,.51-.45,.51h-.54v3.35Zm-.11-7.65c.29,0,.45,.24,.45,.49s-.15,.49-.45,.49h-1.82c-.02,.05-.04,.11-.06,.15,.61,.24,1.24,.6,1.71,1,.17,.14,.24,.31,.24,.46,0,.28-.26,.52-.56,.52-.14,0-.28-.05-.41-.17-.38-.36-.87-.71-1.42-1.02-.35,.47-.8,.84-1.33,1.12-.13,.06-.25,.1-.36,.1-.32,0-.55-.25-.55-.51,0-.17,.11-.37,.36-.49,.58-.28,.98-.65,1.22-1.16h-1.15c-.28,0-.44-.25-.44-.49s.15-.49,.44-.49h1.44c.03-.22,.04-.45,.05-.7,.01-.33,.29-.48,.57-.48s.56,.15,.55,.47c0,.25-.02,.48-.05,.71h1.57Zm-3.47,7.46c-.75,0-1.04-.32-1.04-.94v-.82c0-.62,.28-.94,1.04-.94h.87c.75,0,1.04,.32,1.04,.94v.82c-.01,.71-.36,.93-1.04,.94h-.87Zm.68-.87c.2,0,.25-.05,.25-.25v-.45c0-.2-.05-.25-.25-.25h-.48c-.21,0-.26,.05-.26,.25v.45c0,.21,.08,.25,.26,.25h.48Z"/><path class="n" d="M46.91,16.16c-.9-.46-1.27-.58-1.75-.58-.69,0-1.07,.2-1.81,.91-.12,.12-.23,.17-.36,.17-.26,0-.49-.23-.49-.46,0-.1,.03-.17,.12-.27,.73-.9,1.61-1.39,2.58-1.39,.69,0,1.24,.15,2.27,.69l.49,.25c.8,.4,1.3,.57,1.75,.57,.67,0,1.28-.3,1.8-.92,.13-.15,.23-.21,.35-.21,.25,0,.51,.25,.51,.48,0,.09-.03,.16-.11,.26-.67,.9-1.61,1.42-2.6,1.42-.7,0-1.25-.15-2.29-.69l-.47-.24Z"/><path class="n" d="M56.27,13.72c.29,0,.45,.26,.45,.54s-.15,.53-.45,.53h-.64v5.72c0,.32-.29,.47-.6,.47s-.6-.15-.6-.47v-5.72h-.77c-.28,0-.44-.27-.44-.53s.15-.54,.44-.54h.77v-2.54c0-.32,.3-.47,.6-.47s.6,.15,.6,.47v2.54h.64Zm4.23,3.58c0-.29,.28-.45,.56-.45,.29,0,.58,.15,.58,.46v.16h1.43c.29,0,.45,.24,.45,.48s-.15,.48-.45,.48h-1.43v1.26c0,.91-.39,1.2-1.19,1.2-.15,0-.42-.02-.61-.05-.36-.05-.51-.32-.51-.56,0-.31,.23-.6,.6-.54,.22,.02,.33,.04,.43,.04,.11,0,.15-.04,.15-.23v-1.13h-3.93c-.28,0-.44-.24-.44-.48s.15-.48,.44-.48h3.93v-.17Zm1.06-4.06c.89,0,1.19,.35,1.19,1.03v1.55c0,.66-.31,1.02-1.19,1.02h-3.27c-.9,0-1.19-.36-1.19-1.02v-1.55c0-.68,.3-1.03,1.19-1.03h1.02v-.45h-2.36c-.28,0-.44-.24-.44-.47,0-.24,.15-.47,.44-.47h2.36v-.68c0-.29,.28-.45,.56-.45s.56,.15,.56,.45v.68h1.22s-.05-.02-.09-.04c-.2-.11-.39-.21-.57-.3-.17-.1-.25-.24-.25-.37,0-.24,.21-.46,.47-.46,.07,0,.13,.01,.2,.03,.25,.1,.45,.21,.69,.35,.19,.11,.25,.25,.25,.39,0,.16-.11,.32-.27,.39h.94c.29,0,.45,.23,.45,.47,0,.23-.15,.47-.45,.47h-2.59v.45h1.14Zm-2.56,5.85c.15,.13,.22,.28,.22,.43,0,.29-.26,.56-.56,.56-.12,0-.25-.04-.36-.14-.22-.2-.4-.36-.67-.56-.16-.12-.23-.26-.23-.39,0-.26,.26-.5,.57-.5,.11,0,.22,.02,.34,.1,.24,.14,.49,.34,.69,.51Zm.31-4.45v-.52h-.82c-.21,0-.27,.05-.27,.23v.29h1.09Zm0,1.32v-.55h-1.09v.29c0,.2,.09,.25,.27,.25h.82Zm1.11-1.32h1.21v-.29c0-.17-.05-.23-.27-.23h-.94v.52Zm0,.78v.55h.94c.22,0,.27-.08,.27-.25v-.29h-1.21Z"/><path class="n" d="M68.64,12.82c-.81,.78-1.79,1.44-2.77,1.89-.09,.04-.17,.07-.26,.07-.31,0-.52-.26-.52-.55,0-.17,.1-.36,.34-.48,1.29-.62,2.58-1.68,3.4-2.9,.13-.2,.33-.27,.51-.27,.32,0,.62,.23,.62,.52,0,.09-.03,.2-.1,.29-.1,.14-.2,.27-.31,.42h1.29c.77,0,1.24,.38,1.24,.88,0,.25-.11,.54-.36,.82-1.64,1.86-4.07,3.07-6.45,3.64-.05,.01-.11,.02-.16,.02-.33,0-.53-.27-.53-.55,0-.22,.14-.44,.45-.51,1.1-.26,2.21-.68,3.18-1.19-.15-.16-.28-.28-.47-.44-.11-.1-.16-.22-.16-.33,0-.26,.26-.49,.56-.49,.12,0,.24,.03,.36,.12,.23,.17,.44,.35,.64,.58,.58-.39,1.08-.82,1.47-1.27,.07-.08,.1-.13,.1-.17,0-.08-.09-.11-.25-.11h-1.8Zm1.78,3.97c-1.16,.78-2.45,1.42-3.69,1.8-.06,.02-.13,.03-.2,.03-.33,0-.55-.28-.55-.56,0-.2,.12-.4,.42-.49,1.97-.58,3.86-1.78,5.03-3.08,.14-.15,.31-.22,.47-.22,.33,0,.62,.26,.62,.56,0,.13-.05,.26-.17,.38-.2,.2-.42,.39-.63,.59h.92c.78,0,1.26,.35,1.26,.86,0,.28-.15,.62-.49,.97-1.84,1.94-4.58,2.95-7.47,3.37-.42,.05-.66-.26-.66-.56,0-.23,.14-.45,.45-.5,1.45-.24,2.81-.61,3.98-1.13-.14-.14-.28-.26-.43-.38-.12-.1-.17-.22-.17-.33,0-.26,.27-.5,.59-.5,.12,0,.24,.03,.36,.12,.24,.17,.46,.36,.68,.58,.62-.36,1.18-.77,1.65-1.22,.08-.08,.11-.14,.11-.19,0-.08-.08-.11-.24-.11h-1.84Z"/><path class="n" d="M76.87,14.96v5.48c0,.31-.29,.46-.59,.46s-.6-.15-.6-.46V12.35c0-.8,.29-1.2,1.44-1.2h1.18c1.15,0,1.43,.36,1.43,1.16v1.51c0,.34-.04,.71-.35,.92-.31,.22-.72,.22-1.08,.23h-1.43Zm1.69-2.64c0-.21-.08-.27-.35-.27h-.99c-.27,0-.35,.06-.35,.27v.31h1.69v-.31Zm-.35,1.74c.27,0,.35-.05,.35-.27v-.32h-1.69v.59h1.34Zm1.16,5.51c-.9,0-1.25-.35-1.25-1.13v-1.72c0-.78,.35-1.13,1.25-1.13h1.66c.9,0,1.25,.35,1.25,1.13v1.72c-.02,.87-.44,1.11-1.25,1.13h-1.66Zm1.81-2.81c0-.19-.05-.24-.29-.24h-1.38c-.24,0-.29,.05-.29,.24v.38h1.97v-.38Zm-.29,1.89c.24,0,.29-.05,.29-.24v-.39h-1.97v.39c0,.22,.11,.24,.29,.24h1.38Zm1.25-3.7c-1.15,0-1.44-.35-1.44-1.15v-1.51c0-.8,.29-1.16,1.44-1.16h1.28c1.15,0,1.44,.4,1.44,1.2v7.02c0,1.03-.46,1.43-1.38,1.43-.29,0-.55-.02-.81-.06-.33-.05-.49-.32-.49-.59,0-.32,.23-.63,.67-.58,.17,.02,.31,.04,.47,.04,.25,0,.35-.08,.35-.35v-4.3h-1.53Zm1.53-2.64c0-.21-.08-.27-.36-.27h-1.08c-.28,0-.35,.06-.35,.27v.31h1.79v-.31Zm0,1.15h-1.79v.32c0,.22,.07,.27,.35,.27h1.44v-.59Z"/><path class="n" d="M86.55,16.62c0-2.49,2.07-4.54,5.07-4.54,2.67,0,4.21,1.67,4.21,3.85,0,1.98-1.17,3.43-3.05,4.04-.09,.03-.17,.04-.25,.04-.37,0-.61-.31-.61-.62,0-.24,.13-.48,.46-.6,1.55-.56,2.18-1.5,2.18-2.85,0-1.43-.97-2.61-2.64-2.73-.11,1.81-.56,3.46-1.24,4.65-.6,1.06-1.25,1.38-2.09,1.38-1.12,0-2.05-.9-2.05-2.6Zm1.26,0c0,1,.39,1.38,.79,1.38,.34,0,.63-.17,.95-.73,.56-.97,.96-2.38,1.09-3.99-1.63,.32-2.83,1.73-2.83,3.35Z"/><path class="n" d="M98.94,16.55c-.08,1.61-.37,2.82-.9,3.82-.14,.26-.36,.38-.58,.38-.29,0-.58-.22-.58-.55,0-.1,.03-.22,.1-.34,.56-1.03,.81-2.2,.81-4.11v-1.41c0-.67,.39-.96,1.19-.96h1.58c.85,0,1.21,.29,1.21,.96v1.22c-.02,.8-.5,.97-1.21,.98h-1.63Zm-1.3-4.01c-.31,0-.46-.27-.46-.55s.15-.55,.46-.55h4.07c.32,0,.47,.27,.47,.55s-.15,.55-.47,.55h-4.07Zm2.72,3.03c.2,0,.26-.08,.26-.22v-.78c0-.14-.06-.21-.26-.21h-1.13c-.2,0-.28,.08-.28,.27v.93h1.41Zm3.43-.24c-.14,2.29-.83,3.93-2.07,5.21-.15,.16-.33,.23-.49,.23-.32,0-.59-.25-.59-.57,0-.14,.05-.31,.21-.46,1.26-1.3,1.8-2.9,1.8-5.36v-2.11c0-.32,.29-.47,.58-.47,.13,0,.25,.03,.35,.09,.82-.22,1.55-.47,2.2-.76,.1-.04,.2-.07,.28-.07,.33,0,.56,.29,.56,.59,0,.18-.1,.38-.33,.49-.71,.31-1.55,.57-2.48,.8v1.38h3.06c.29,0,.44,.25,.44,.5s-.14,.51-.44,.51h-.87v5.01c0,.33-.28,.49-.58,.49s-.58-.16-.58-.49v-5.01h-1.05Z"/><path class="n" d="M110.49,15.66c-1.08,0-1.38-.28-1.38-1.04v-.69c0-.75,.29-1.04,1.38-1.04h.89v-.66h-2.61c-.28,0-.44-.25-.44-.5s.15-.5,.44-.5h8.74c.29,0,.45,.25,.45,.5s-.15,.5-.45,.5h-2.75v.66h1.04c1.08,0,1.38,.28,1.38,1.04v.69c0,.31-.04,.63-.32,.83-.29,.21-.71,.2-1.06,.21h-3.03c.14,.08,.25,.22,.25,.39,0,.08-.01,.15-.05,.23-.05,.11-.12,.21-.17,.32h4.86c.27,0,.4,.24,.4,.48s-.13,.48-.4,.48h-1.92c-.35,.54-.74,1.03-1.22,1.45,.71,.24,1.41,.52,2.09,.83,.25,.11,.35,.31,.35,.48,0,.26-.21,.51-.51,.51-.09,0-.17-.02-.27-.07-.84-.4-1.68-.76-2.55-1.08-1.17,.72-2.61,1.12-4.4,1.25-.37,.03-.58-.23-.58-.48,0-.23,.15-.46,.49-.48,1.29-.09,2.35-.32,3.23-.7-.42-.12-.82-.24-1.24-.34-.02,.02-.04,.04-.07,.07-.15,.15-.32,.21-.48,.21-.29,0-.55-.22-.55-.47,0-.11,.04-.22,.13-.32,.26-.29,.5-.58,.73-.86h-2.32c-.26,0-.39-.24-.39-.48s.13-.48,.39-.48h3.01c.15-.24,.29-.49,.44-.74,.04-.08,.11-.14,.19-.2h-1.69Zm.89-.92v-.93h-.79c-.28,0-.34,.05-.34,.25v.43c0,.24,.13,.25,.34,.25h.79Zm.81,2.82c-.15,.22-.32,.44-.48,.64,.57,.13,1.14,.28,1.69,.45,.4-.31,.75-.68,1.05-1.09h-2.26Zm1.48-4.67v-.66h-1.19v.66h1.19Zm-1.19,1.85h1.19v-.93h-1.19v.93Zm2.29,0h.94c.28,0,.34-.05,.34-.25v-.43c0-.2-.05-.25-.34-.25h-.94v.93Z"/><path class="n" d="M120.44,19.15c-.79,0-1.09-.34-1.09-1.1v-5.44c0-.76,.31-1.1,1.09-1.1h1.01c.8,0,1.1,.34,1.1,1.1v5.44c-.01,.79-.32,1.09-1.1,1.1h-1.01Zm1.01-6.28c0-.24-.05-.32-.27-.32h-.46c-.21,0-.26,.08-.26,.32v1.78h.99v-1.78Zm-.27,5.23c.22,0,.27-.08,.27-.32v-2.09h-.99v2.09c0,.2,.03,.32,.26,.32h.46Zm4.04-4.9h-1.4c-.31,0-.47-.26-.47-.52s.16-.52,.47-.52h1.4v-.93c0-.34,.3-.5,.59-.5s.58,.16,.58,.5v.93h1.51c.32,0,.47,.26,.47,.52s-.15,.52-.47,.52h-1.51v.94h2.31c.32,0,.47,.26,.47,.52s-.15,.52-.47,.52h-5.41c-.3,0-.47-.26-.47-.52s.16-.52,.47-.52h1.94v-.94Zm-1.76,4.21c-.3,0-.47-.26-.47-.54s.16-.52,.47-.52h2.9v-.47c0-.34,.3-.5,.59-.5s.58,.16,.58,.5v.47h1c.32,0,.47,.26,.47,.54s-.15,.52-.47,.52h-1v2.15c0,.94-.42,1.28-1.27,1.28-.33,0-.57-.02-.85-.08-.29-.07-.44-.31-.44-.56,0-.32,.23-.63,.64-.56,.16,.03,.26,.04,.46,.04,.21,0,.28-.06,.28-.27v-2.01h-2.9Zm1.76,1.15c.08,.11,.12,.22,.12,.33,0,.32-.31,.58-.61,.58-.15,0-.31-.06-.43-.23-.17-.24-.35-.45-.56-.67-.1-.11-.14-.23-.14-.35,0-.27,.26-.52,.57-.52,.13,0,.27,.05,.4,.16,.24,.2,.46,.43,.64,.7Z"/><path class="n" d="M131.59,14.96v5.48c0,.31-.3,.46-.59,.46s-.6-.15-.6-.46V12.35c0-.8,.29-1.2,1.44-1.2h1.18c1.15,0,1.43,.36,1.43,1.16v1.51c0,.34-.04,.71-.35,.92-.31,.22-.72,.22-1.08,.23h-1.43Zm1.69-2.64c0-.21-.08-.27-.35-.27h-.99c-.27,0-.35,.06-.35,.27v.31h1.69v-.31Zm-.35,1.74c.27,0,.35-.05,.35-.27v-.32h-1.69v.59h1.34Zm1.16,5.51c-.9,0-1.25-.35-1.25-1.13v-1.72c0-.78,.35-1.13,1.25-1.13h1.66c.9,0,1.25,.35,1.25,1.13v1.72c-.02,.87-.44,1.11-1.25,1.13h-1.66Zm1.82-2.81c0-.19-.05-.24-.29-.24h-1.38c-.24,0-.29,.05-.29,.24v.38h1.97v-.38Zm-.29,1.89c.24,0,.29-.05,.29-.24v-.39h-1.97v.39c0,.22,.11,.24,.29,.24h1.38Zm1.25-3.7c-1.15,0-1.44-.35-1.44-1.15v-1.51c0-.8,.3-1.16,1.44-1.16h1.28c1.15,0,1.44,.4,1.44,1.2v7.02c0,1.03-.46,1.43-1.38,1.43-.28,0-.55-.02-.81-.06-.33-.05-.49-.32-.49-.59,0-.32,.23-.63,.67-.58,.17,.02,.31,.04,.47,.04,.25,0,.35-.08,.35-.35v-4.3h-1.53Zm1.53-2.64c0-.21-.08-.27-.36-.27h-1.08c-.28,0-.35,.06-.35,.27v.31h1.79v-.31Zm0,1.15h-1.79v.32c0,.22,.07,.27,.35,.27h1.44v-.59Z"/><path class="n" d="M144.7,10.55c.1-.09,.22-.13,.33-.13,.21,0,.4,.19,.4,.39,0,.14-.05,.24-.16,.34-1.57,1.35-2.23,2.87-2.23,4.66s.66,3.31,2.23,4.66c.11,.1,.16,.2,.16,.34,0,.21-.2,.39-.4,.39-.11,0-.23-.04-.33-.13-1.8-1.45-2.67-3.24-2.67-5.26s.86-3.81,2.67-5.26Z"/><path class="n" d="M151.24,20.52c0,.31-.28,.46-.57,.46s-.57-.15-.57-.46v-.92c-1.12,.28-2.25,.52-3.27,.64-.34,.03-.54-.25-.54-.54,0-.23,.13-.46,.43-.49,.27-.03,.56-.06,.85-.11v-3.54h-.79c-.25,0-.37-.24-.37-.47s.12-.47,.37-.47h9.27c.25,0,.38,.23,.38,.47s-.13,.47-.38,.47h-4.82v4.95Zm-1.91-6.34c-.85,0-1.22-.3-1.22-.96v-1.29c0-.67,.37-.96,1.22-.96h4.17c.85,0,1.22,.29,1.22,.96v1.29c-.02,.8-.52,.95-1.22,.96h-4.17Zm-.63,1.39v.55h1.41v-.55h-1.41Zm0,1.31v.58h1.41v-.58h-1.41Zm0,2.06c.47-.08,.94-.17,1.41-.27v-.44h-1.41v.71Zm4.89-6.96c0-.19-.08-.25-.35-.25h-3.64c-.27,0-.35,.06-.35,.25v.23h4.34v-.23Zm-.35,1.43c.27,0,.35-.07,.35-.25v-.23h-4.34v.23c0,.23,.15,.25,.35,.25h3.64Zm1.39,2.7c.72,0,1.1,.29,1.1,.79,0,.19-.05,.4-.16,.64-.2,.44-.49,.87-.85,1.29,.38,.32,.82,.59,1.29,.79,.26,.11,.37,.32,.37,.51,0,.27-.21,.55-.52,.55-.09,0-.17-.02-.27-.07-.59-.26-1.14-.62-1.61-1.06-.51,.43-1.11,.82-1.76,1.13-.09,.04-.16,.05-.24,.05-.29,0-.51-.25-.51-.52,0-.19,.1-.37,.35-.48,.55-.25,1.03-.57,1.45-.93-.45-.55-.81-1.16-1.08-1.82h-.17c-.24,0-.37-.22-.37-.44s.13-.44,.37-.44h2.62Zm-1.39,.87c.19,.39,.44,.77,.71,1.1,.22-.27,.4-.56,.55-.83,.03-.07,.05-.12,.05-.15,0-.09-.08-.12-.22-.12h-1.09Z"/><path class="n" d="M159.94,18.5c.67,.69,1.69,.94,4.08,.94,1.13,0,2.03-.03,2.88-.11,.4-.03,.6,.26,.6,.57,0,.27-.16,.56-.52,.58-.9,.05-1.78,.09-2.94,.09-2.59,0-3.77-.34-4.59-1.16-.36,.41-.79,.81-1.28,1.17-.12,.09-.25,.13-.37,.13-.33,0-.59-.27-.59-.58,0-.17,.1-.36,.32-.51,.45-.31,.89-.67,1.26-1.07v-1.82c0-.21-.05-.28-.34-.28h-.62c-.32,0-.48-.27-.48-.55s.16-.54,.48-.54h.89c.91,0,1.25,.38,1.25,1.22v1.91Zm-.1-6.19c.13,.14,.19,.29,.19,.44,0,.34-.29,.61-.62,.61-.17,0-.35-.08-.5-.25-.28-.33-.55-.58-.86-.84-.15-.13-.22-.28-.22-.43,0-.29,.27-.58,.61-.58,.13,0,.27,.04,.41,.14,.37,.26,.72,.59,.99,.91Zm2.29,3.84c-.87,0-1.21-.29-1.21-.98v-.77c0-.69,.34-.98,1.21-.98h1.06v-.62h-2.29c-.25,0-.38-.25-.38-.49s.13-.49,.38-.49h2.29v-.71c0-.28,.28-.43,.56-.43s.56,.14,.56,.43v.71h2.62c.26,0,.39,.24,.39,.49s-.13,.49-.39,.49h-2.62v.62h1.17c.87,0,1.21,.29,1.21,.98v.77c0,.69-.34,.98-1.21,.98h-1.17v.33c.77,.29,1.59,.73,2.2,1.16,.2,.14,.27,.32,.27,.47,0,.27-.22,.51-.51,.51-.12,0-.25-.04-.38-.14-.49-.37-1.04-.71-1.57-.99v1.21c0,.28-.27,.43-.56,.43s-.56-.14-.56-.43v-.58l.02-1.07c-.49,.54-1.09,1.07-1.8,1.53-.12,.08-.24,.11-.34,.11-.29,0-.5-.24-.5-.5,0-.15,.08-.32,.26-.44,.69-.44,1.32-.95,1.9-1.6h-.6Zm1.06-.87v-.96h-.87c-.24,0-.31,.07-.31,.26v.44c0,.23,.11,.25,.31,.26h.87Zm2.1,0c.24,0,.31-.06,.31-.26v-.44c0-.2-.07-.26-.31-.26h-.98v.96h.98Z"/><path class="n" d="M169.05,21.07c-.1,.09-.22,.13-.33,.13-.21,0-.4-.19-.4-.39,0-.14,.05-.24,.16-.34,1.57-1.35,2.23-2.87,2.23-4.66s-.66-3.31-2.23-4.66c-.11-.1-.16-.2-.16-.34,0-.21,.2-.39,.4-.39,.11,0,.23,.04,.33,.13,1.8,1.45,2.67,3.24,2.67,5.26s-.86,3.81-2.67,5.26Z"/></g><g><path class="n" d="M179.68,17.68l-.13,.13-2.07-2.07-2.06,2.07-.13-.13,2.06-2.07-2.05-2.05,.13-.13,2.05,2.05,2.05-2.05,.13,.13-2.05,2.05,2.07,2.07Zm-3.09-2.07c0,.27-.22,.49-.49,.49s-.49-.22-.49-.49,.22-.49,.49-.49,.49,.22,.49,.49Zm1.37-1.37c0,.27-.22,.49-.49,.49s-.49-.22-.49-.49,.22-.49,.49-.49,.49,.22,.49,.49Zm0,2.75c0,.27-.22,.49-.49,.49s-.49-.22-.49-.49,.22-.49,.49-.49,.49,.22,.49,.49Zm1.37-1.37c0,.27-.22,.49-.49,.49s-.49-.22-.49-.49,.22-.49,.49-.49,.49,.22,.49,.49Z"/><path class="n" d="M181.5,17.97c-.62,0-.86-.24-.86-.73v-3.18c0-.49,.24-.73,.86-.73h2.92c.62,0,.86,.24,.86,.73v3.18c0,.58-.33,.72-.86,.73h-2.92Zm2.83-.54c.27,0,.35-.08,.35-.29v-2.98c0-.22-.08-.29-.35-.29h-2.74c-.27,0-.35,.08-.35,.29v2.98c0,.25,.12,.29,.35,.29h2.74Zm-1.12-2.12h.78c.14,0,.2,.12,.2,.25s-.06,.25-.2,.25h-.27s.09,.04,.13,.08c.09,.1,.16,.2,.22,.29,.02,.04,.03,.09,.03,.13,0,.1-.07,.18-.16,.21h.28c.14,0,.2,.12,.2,.25s-.07,.25-.2,.25h-2.53c-.13,0-.2-.13-.2-.25s.07-.25,.2-.25h.93v-.7h-.71c-.13,0-.2-.13-.2-.25s.07-.25,.2-.25h.71v-.54h-.87c-.13,0-.2-.12-.2-.25s.07-.25,.2-.25h2.41c.14,0,.21,.12,.21,.25s-.07,.25-.21,.25h-.96v.54Zm0,1.2h.6s-.09-.04-.11-.09c-.06-.1-.13-.21-.2-.3-.03-.04-.05-.09-.05-.12,0-.09,.08-.16,.17-.19h-.4v.7Z"/><path class="n" d="M190.29,14.97c.16,0,.24,.14,.24,.28s-.08,.28-.24,.28h-1.57v1.74h1.95c.16,0,.24,.14,.24,.28s-.08,.28-.24,.28h-4.5c-.15,0-.23-.14-.23-.28s.08-.28,.23-.28h1.92v-1.74h-1.5c-.15,0-.23-.14-.23-.28s.08-.28,.23-.28h1.5v-1.53c0-.16,.16-.25,.31-.25s.31,.08,.31,.25v1.53h1.57Z"/><path class="n" d="M196.11,17.42c.18,.05,.26,.18,.26,.31,0,.15-.11,.29-.3,.29-.03,0-.07,0-.11-.02-.8-.21-1.5-.56-2.07-1.03-.6,.52-1.34,.9-2.12,1.08-.03,0-.05,.01-.08,.01-.17,0-.28-.15-.28-.28,0-.11,.07-.22,.21-.26,.69-.19,1.34-.5,1.86-.93-.22-.23-.41-.49-.57-.76-.03-.05-.04-.1-.04-.15,0-.15,.14-.26,.29-.26,.1,0,.2,.05,.27,.16,.13,.22,.28,.43,.45,.61,.17-.2,.32-.42,.44-.67,.06-.13,.17-.18,.27-.18,.15,0,.29,.11,.29,.27,0,.04,0,.09-.03,.13-.15,.3-.34,.58-.56,.83,.48,.38,1.08,.64,1.81,.85Zm-2.54-4.11c0-.16,.15-.23,.3-.23s.29,.08,.29,.23v.43h1.92c.15,0,.22,.13,.22,.26s-.08,.26-.22,.26h-4.39c-.15,0-.22-.13-.22-.26s.07-.26,.22-.26h1.87v-.43Zm-.63,1.1c.15,0,.31,.11,.31,.26,0,.06-.02,.12-.07,.18-.28,.36-.67,.73-1,.96-.07,.05-.14,.07-.2,.07-.16,0-.28-.13-.28-.27,0-.09,.04-.17,.14-.25,.31-.21,.6-.49,.86-.84,.06-.08,.15-.11,.23-.11Zm2.96,.79c.08,.08,.11,.16,.11,.25,0,.16-.14,.3-.29,.3-.07,0-.15-.03-.21-.1-.27-.26-.6-.52-.91-.74-.09-.06-.12-.14-.12-.22,0-.14,.11-.27,.27-.27,.05,0,.11,.02,.17,.05,.3,.17,.69,.47,.97,.73Z"/><path class="n" d="M198.11,16.99c.33,.34,.86,.47,2.08,.47,.57,0,1.04-.02,1.46-.05,.2-.02,.3,.13,.3,.28,0,.14-.08,.27-.26,.28-.44,.03-.91,.05-1.49,.05-1.33,0-1.92-.16-2.33-.57-.18,.2-.39,.4-.62,.57-.06,.04-.13,.07-.19,.07-.15,0-.28-.13-.28-.28,0-.09,.04-.18,.16-.26,.2-.15,.41-.32,.59-.52v-.97c0-.1-.02-.14-.16-.14h-.28c-.16,0-.24-.14-.24-.27s.08-.27,.24-.27h.41c.44,0,.61,.19,.61,.59v1.01Zm-.05-3.13c.06,.07,.09,.15,.09,.22,0,.17-.15,.31-.31,.31-.09,0-.17-.04-.24-.13-.13-.15-.25-.27-.4-.4-.08-.07-.1-.14-.1-.21,0-.15,.13-.28,.3-.28,.07,0,.14,.02,.21,.07,.18,.13,.34,.28,.47,.43Zm2.27,2.42v.7c0,.14-.13,.21-.27,.21s-.27-.07-.27-.21v-.7h-.64v.74c0,.14-.14,.21-.27,.21s-.27-.07-.27-.21v-2.14c0-.36,.2-.52,.63-.52h.42c-.09-.07-.17-.14-.27-.2-.08-.06-.11-.13-.11-.2,0-.1,.08-.19,.19-.22h-.69c-.13,0-.2-.12-.2-.23,0-.13,.07-.25,.2-.25h1.97c.36,0,.54,.16,.54,.36,0,.12-.08,.27-.22,.38-.17,.13-.36,.25-.59,.35h.51c.39,0,.58,.15,.58,.5v1.86c0,.31-.2,.49-.56,.49-.08,0-.18,0-.27-.02-.15-.02-.22-.13-.22-.25,0-.13,.09-.27,.25-.25,.03,0,.1,.02,.15,.02,.09,0,.11-.03,.11-.1v-.33h-.68Zm-1.02-1.47c-.12,0-.15,.03-.15,.11v.19h.64v-.3h-.49Zm.49,1.04v-.31h-.64v.31h.64Zm-.17-2.1s.07,.03,.11,.05c.11,.07,.22,.15,.33,.24,.14-.06,.26-.13,.4-.21,.03-.02,.04-.03,.04-.05s-.02-.03-.07-.03h-.81Zm1.39,1.19c0-.09-.06-.12-.16-.12h-.52v.3h.68v-.18Zm0,.61h-.68v.31h.68v-.31Z"/><path class="n" d="M206,15.43c.53,0,.72,.17,.72,.57v1.54c-.01,.49-.28,.56-.72,.57h-1.8c-.53,0-.72-.17-.72-.57v-1.54s0-.05,0-.08c-.28,.1-.56,.18-.84,.25-.03,0-.06,0-.09,0-.18,0-.28-.14-.28-.28,0-.11,.07-.22,.22-.26,1.09-.25,2.35-.79,3.07-1.38,.07-.06,.15-.08,.22-.08,.16,0,.3,.13,.3,.27,0,.07-.04,.15-.13,.22-.39,.27-.87,.55-1.36,.77h1.39Zm-2.27-1.93c.16,0,.31,.13,.31,.28,0,.05-.02,.11-.07,.17-.27,.3-.63,.61-1.03,.83-.06,.03-.12,.05-.17,.05-.16,0-.28-.14-.28-.28,0-.1,.05-.2,.18-.27,.3-.17,.61-.43,.85-.68,.06-.06,.14-.09,.21-.09Zm1.47,.6c0,.39-.22,.58-.68,.58-.06,0-.21-.01-.32-.03-.15-.03-.23-.15-.23-.27,0-.15,.11-.3,.32-.26,.1,.02,.14,.02,.21,.02,.1,0,.13-.02,.13-.12v-.74c0-.15,.14-.23,.28-.23s.29,.08,.29,.23v.81Zm.93,1.92c0-.12-.03-.15-.19-.15h-1.7c-.15,0-.19,.03-.19,.15v.16h2.08v-.16Zm-2.08,.89h2.08v-.32h-2.08v.32Zm1.89,.76c.16,0,.19-.04,.19-.16v-.2h-2.08v.2c0,.14,.06,.16,.19,.16h1.7Zm1.22-3.49c.08,.08,.11,.16,.11,.25,0,.16-.13,.28-.29,.28-.08,0-.16-.03-.23-.11-.23-.23-.5-.48-.75-.65-.1-.07-.14-.15-.14-.23,0-.14,.13-.27,.29-.27,.06,0,.13,.02,.19,.06,.29,.19,.6,.44,.83,.68Z"/><path class="n" d="M207.92,14.61c-.14,0-.22-.14-.22-.27s.08-.27,.22-.27h1.55c.15,0,.22,.14,.22,.27s-.08,.27-.22,.27h-1.55Zm.6,3.46c-.41,0-.55-.16-.55-.5v-.68c0-.33,.14-.5,.55-.5h.54c.4,0,.54,.16,.54,.5v.68c0,.38-.17,.49-.54,.5h-.54Zm-.3-4.25c-.14,0-.21-.13-.21-.26s.07-.26,.21-.26h1.09c.14,0,.21,.13,.21,.26s-.07,.26-.21,.26h-1.09Zm0,1.56c-.14,0-.21-.13-.21-.26s.07-.26,.21-.26h1.09c.14,0,.21,.12,.21,.26s-.07,.26-.21,.26h-1.09Zm0,.77c-.14,0-.21-.13-.21-.26,0-.13,.07-.26,.21-.26h1.09c.14,0,.21,.13,.21,.26s-.07,.26-.21,.26h-1.09Zm.73,1.43c.09,0,.11-.03,.11-.12v-.44c0-.09-.03-.13-.11-.13h-.32c-.09,0-.11,.03-.11,.13v.44c0,.09,.03,.12,.11,.12h.32Zm1.84-.56c.11-.03,.22-.06,.33-.09,.03-.01,.05-.01,.08-.01,.15,0,.25,.13,.25,.26,0,.1-.05,.2-.17,.24-.39,.14-.83,.26-1.27,.34-.19,.03-.31-.12-.31-.28,0-.12,.07-.23,.22-.26,.1-.02,.21-.04,.31-.06v-1.25h-.22c-.13,0-.2-.12-.2-.25s.07-.24,.2-.24h1.01c.12,0,.18,.12,.18,.24s-.06,.25-.18,.25h-.22v1.11Zm1.81-2.79c.15,0,.22,.13,.22,.26s-.08,.26-.22,.26h-.79c.03,.74,.09,1.35,.17,1.77,.15,.8,.28,.93,.34,.93s.09-.05,.12-.39c0-.14,.12-.21,.24-.21,.14,0,.28,.09,.27,.26-.06,.74-.29,.96-.6,.96-.41,0-.73-.39-.93-1.46-.08-.41-.15-1.07-.19-1.86h-1.22c-.14,0-.22-.13-.22-.26,0-.13,.08-.26,.22-.26h1.2c0-.28-.01-.58-.01-.9,0-.17,.14-.25,.29-.25s.28,.08,.28,.25c0,.31,0,.61,.01,.9h.8Zm.05-.52s.04,.1,.04,.14c0,.14-.14,.24-.27,.24-.08,0-.16-.03-.21-.11-.06-.12-.14-.23-.22-.35-.03-.04-.05-.09-.05-.14,0-.12,.12-.22,.25-.22,.07,0,.14,.03,.2,.09,.09,.09,.19,.24,.26,.35Z"/><path class="n" d="M214.81,16.55c-.41-.01-.63-.09-.64-.54v-1c0-.39,.2-.54,.7-.54h1.83c.5,0,.71,.15,.71,.54v1c0,.42-.22,.52-.61,.54v.25h1.36c.13,0,.19,.11,.19,.23s-.06,.23-.19,.23h-1.36v.73c0,.14-.14,.21-.27,.21s-.28-.07-.28-.21v-.73h-.98c-.17,.48-.57,.79-1.11,.96-.03,.01-.07,.02-.1,.02-.16,0-.26-.13-.26-.26,0-.1,.06-.2,.2-.25,.32-.1,.54-.25,.67-.47h-1.24c-.13,0-.19-.11-.19-.23s.06-.23,.19-.23h1.37c0-.07,.01-.13,.01-.2v-.05Zm.61-3.01c.13,0,.2,.11,.2,.22s-.07,.22-.2,.22h-.43s.05,.09,.08,.14c.02,.04,.03,.08,.03,.11,0,.13-.13,.22-.26,.22-.09,0-.19-.05-.24-.16-.05-.1-.1-.21-.17-.32h-.26c-.1,.15-.22,.3-.33,.42-.08,.08-.16,.11-.24,.11-.14,0-.26-.11-.26-.25,0-.07,.03-.13,.09-.2,.23-.23,.45-.57,.6-.86,.06-.11,.16-.16,.26-.16,.14,0,.27,.09,.27,.23,0,.03,0,.07-.03,.11-.02,.05-.05,.1-.08,.15h.98Zm1.44,1.45c0-.11-.03-.14-.21-.14h-1.73c-.18,0-.21,.03-.21,.14v.04h2.14v-.04Zm-2.14,.61h2.14v-.21h-2.14v.21Zm1.94,.57c.18,0,.21-.03,.21-.14v-.08h-2.14v.08c0,.14,.09,.14,.21,.14h1.73Zm-1.28,.44c0,.06,0,.13,0,.19h.88v-.25h-.87v.06Zm2.67-3.07c.13,0,.2,.11,.2,.22s-.06,.22-.2,.22h-.81s.05,.08,.07,.13c.02,.04,.03,.08,.03,.11,0,.13-.13,.22-.27,.22-.09,0-.17-.04-.23-.14-.05-.1-.11-.21-.18-.32h-.33c-.08,.1-.16,.2-.24,.3-.08,.08-.16,.11-.23,.11-.14,0-.26-.11-.26-.25,0-.05,.02-.11,.08-.17,.2-.22,.39-.51,.52-.78,.05-.1,.15-.15,.25-.15,.14,0,.27,.1,.27,.24,0,.04,0,.08-.03,.12-.02,.05-.05,.1-.08,.15h1.44Z"/></g><g><path class="k" d="M32.43,85.14H168.63c1.06,0,6.02-2.4,6.02-2.4,0,0,2.7-1.31,1.88-2.42-1.98-2.7-12.61-7.31-12.61-7.31,0,0-3.38-1.62-7.59-1.62H32.43v13.75Z"/><path class="f" d="M32.43,85.14H168.63c1.06,0,6.02-2.4,6.02-2.4,0,0,2.7-1.31,1.88-2.42-1.98-2.7-12.61-7.31-12.61-7.31,0,0-3.38-1.62-7.59-1.62H32.43v13.75Z"/><rect class="o" x="127.62" y="76.06" width="4.14" height="2.9" rx=".34" ry=".34"/><rect class="o" x="120.54" y="76.06" width="4.14" height="2.9" rx=".34" ry=".34"/><rect class="o" x="134.88" y="76.06" width="4.14" height="2.9" rx=".34" ry=".34"/><rect class="o" x="113.47" y="76.06" width="4.14" height="2.9" rx=".34" ry=".34"/><rect class="o" x="106.4" y="76.06" width="4.14" height="2.9" rx=".34" ry=".34"/><rect class="o" x="90.96" y="76.06" width="4.14" height="2.9" rx=".34" ry=".34"/><rect class="o" x="152.66" y="76.06" width="1.75" height="2.9" rx=".34" ry=".34"/><path class="o" d="M171.62,76.89c-.41-.08-3.14-.16-3.58-.23-.47-.08-2.05-.3-2.52-.36-1.01-.12-3.67-1.4-4.33-1.7-1.31-.59-2.11-1.06-2.57-1.36h5.15l.14,.02c.38,.17,5.32,2.43,7.71,3.64Z"/><rect class="o" x="143.41" y="74.18" width="3.85" height="8.82" rx=".31" ry=".31"/><rect class="k" x="144.46" y="76.06" width="1.75" height="2.9" rx=".34" ry=".34"/><rect class="o" x="98.46" y="74.18" width="3.85" height="8.82" rx=".31" ry=".31"/><rect class="k" x="99.51" y="76.06" width="1.75" height="2.9" rx=".34" ry=".34"/><rect class="o" x="103.16" y="81.02" width="39.44" height="1.72"/><rect class="o" x="83.35" y="76.06" width="4.14" height="2.9" rx=".34" ry=".34"/><rect class="o" x="76.28" y="76.06" width="4.14" height="2.9" rx=".34" ry=".34"/><rect class="o" x="90.61" y="76.06" width="4.14" height="2.9" rx=".34" ry=".34"/><rect class="o" x="40" y="76.06" width="4.14" height="2.9" rx=".34" ry=".34"/><rect class="o" x="69.21" y="76.06" width="4.14" height="2.9" rx=".34" ry=".34"/><rect class="o" x="62.13" y="76.06" width="4.14" height="2.9" rx=".34" ry=".34"/><rect class="o" x="55.11" y="74.18" width="3.85" height="8.82" rx=".31" ry=".31"/><rect class="k" x="56.15" y="76.06" width="1.75" height="2.9" rx=".34" ry=".34"/><rect class="o" x="59.76" y="81.02" width="37.7" height="1.72"/><rect class="o" x="47.26" y="76.06" width="4.14" height="2.9" rx=".34" ry=".34"/><rect class="o" x="39.89" y="81.02" width="14.21" height="1.72"/><path class="o" d="M176.64,81.02h-28.65v1.72h26.66s1.7-.82,1.99-1.72Z"/></g><g class="p"><g><path class="k" d="M.5,47.58H136.71c1.06,0,6.02-2.4,6.02-2.4,0,0,2.7-1.31,1.88-2.42-1.98-2.7-12.61-7.31-12.61-7.31,0,0-3.38-1.62-7.59-1.62H.5v13.75Z"/><path class="f" d="M.5,47.58H136.71c1.06,0,6.02-2.4,6.02-2.4,0,0,2.7-1.31,1.88-2.42-1.98-2.7-12.61-7.31-12.61-7.31,0,0-3.38-1.62-7.59-1.62H.5v13.75Z"/><rect class="o" x="95.69" y="38.49" width="4.14" height="2.9" rx=".34" ry=".34"/><rect class="o" x="88.62" y="38.49" width="4.14" height="2.9" rx=".34" ry=".34"/><rect class="o" x="102.95" y="38.49" width="4.14" height="2.9" rx=".34" ry=".34"/><rect class="o" x="81.54" y="38.49" width="4.14" height="2.9" rx=".34" ry=".34"/><rect class="o" x="74.47" y="38.49" width="4.14" height="2.9" rx=".34" ry=".34"/><rect class="o" x="59.03" y="38.49" width="4.14" height="2.9" rx=".34" ry=".34"/><rect class="o" x="120.73" y="38.49" width="1.75" height="2.9" rx=".34" ry=".34"/><path class="o" d="M139.7,39.33c-.41-.08-3.14-.16-3.58-.23-.47-.08-2.05-.3-2.52-.36-1.01-.12-3.67-1.4-4.33-1.7-1.31-.59-2.11-1.06-2.57-1.36h5.15l.14,.02c.38,.17,5.32,2.43,7.71,3.64Z"/><rect class="o" x="111.48" y="36.62" width="3.85" height="8.82" rx=".31" ry=".31"/><rect class="k" x="112.53" y="38.49" width="1.75" height="2.9" rx=".34" ry=".34"/><rect class="o" x="66.53" y="36.62" width="3.85" height="8.82" rx=".31" ry=".31"/><rect class="k" x="67.58" y="38.49" width="1.75" height="2.9" rx=".34" ry=".34"/><rect class="o" x="71.23" y="43.46" width="39.44" height="1.72"/><rect class="o" x="51.43" y="38.49" width="4.14" height="2.9" rx=".34" ry=".34"/><rect class="o" x="44.35" y="38.49" width="4.14" height="2.9" rx=".34" ry=".34"/><rect class="o" x="58.69" y="38.49" width="4.14" height="2.9" rx=".34" ry=".34"/><rect class="o" x="8.07" y="38.49" width="4.14" height="2.9" rx=".34" ry=".34"/><rect class="o" x="37.28" y="38.49" width="4.14" height="2.9" rx=".34" ry=".34"/><rect class="o" x="30.21" y="38.49" width="4.14" height="2.9" rx=".34" ry=".34"/><rect class="o" x="23.18" y="36.62" width="3.85" height="8.82" rx=".31" ry=".31"/><rect class="k" x="24.23" y="38.49" width="1.75" height="2.9" rx=".34" ry=".34"/><rect class="o" x="27.83" y="43.46" width="37.7" height="1.72"/><rect class="o" x="15.33" y="38.49" width="4.14" height="2.9" rx=".34" ry=".34"/><rect class="o" x="7.97" y="43.46" width="14.21" height="1.72"/><path class="o" d="M144.72,43.46h-28.65v1.72h26.66s1.7-.82,1.99-1.72Z"/></g></g><rect class="o" x="19.93" y="60.53" width="39.12" height="34.35"/><g><path class="k" d="M34.79,69.24v.88h-5.01c-.31,.64-.8,1.51-1.5,2.3v4.24h-1.01v-3.25c-.4,.33-.66,.5-.89,.65-.23-.36-.34-.5-.65-.76,.58-.31,1.08-.66,1.54-1.11v-.56l.49,.06c.24-.28,.65-.79,1.02-1.56h-2.69v-.88h3.05c.22-.59,.31-1.09,.37-1.44l1.04,.21s.15,.04,.15,.12c0,.08,0,.09-.26,.16-.07,.23-.13,.5-.3,.95h4.64Zm-.42,2.79v.85h-2.12v2.44h2.55v.89h-6.04v-.89h2.48v-2.44h-2.08v-.85h2.08v-1.53l1.04,.08c.08,0,.18,.03,.18,.12,0,.07-.03,.08-.22,.17v1.15h2.12Z"/><path class="k" d="M40.47,76.62h-.94v-3.13c-1.11,1.44-2.31,2.4-3.29,2.94-.21-.33-.43-.53-.76-.75,2-.98,2.99-2.05,3.56-2.76h-3.42v-.88h2.2c-.07-.16-.38-1-.9-1.69l.82-.44h-1.69v-.89h3.48v-1.13l.97,.07c.08,0,.18,.04,.18,.12,0,.07-.12,.14-.21,.17v.77h3.47v.89h-1.72l.81,.36c.09,.04,.12,.06,.12,.13,0,.1-.07,.1-.23,.13-.15,.42-.57,1.21-.77,1.5h2.22v.88h-3.47c.24,.31,.83,.96,1.65,1.57,.81,.59,1.48,.93,1.87,1.12-.32,.24-.46,.4-.68,.74-1-.48-2.39-1.53-3.27-2.77v3.05Zm-.94-4.58v-2.13h-1.74c.42,.53,.72,1.14,.97,1.76-.32,.14-.42,.21-.69,.37h1.46Zm.94-2.13v2.13h1.5c-.1-.07-.47-.25-.75-.35,.35-.55,.73-1.24,.87-1.78h-1.63Z"/><path class="k" d="M48.62,69.24c.06,.03,.09,.07,.09,.13,0,.06-.06,.1-.13,.1-.04,0-.1,0-.14,0-.93,1.43-1.02,1.6-1.61,2.39,.43-.04,.56-.06,1.14-.13-.16-.48-.23-.62-.28-.75l.66-.25c.37,.69,.67,1.58,.74,1.79-.16,.05-.55,.17-.81,.32-.02-.14-.04-.21-.1-.42-.18,.04-.53,.09-.71,.12v4.09h-.93v-3.95c-.17,.03-.91,.11-1.06,.13-.02,.08-.06,.23-.16,.23-.09,0-.12-.12-.14-.21l-.16-.89c.18,0,.27,0,.8-.02,.24-.33,.39-.55,.54-.77-.07-.09-.7-.76-1.4-1.26l.53-.79c.19,.14,.27,.21,.42,.34,.55-.93,.77-1.4,.88-1.67l.83,.38c.07,.03,.13,.09,.13,.15,0,.11-.12,.11-.28,.12-.37,.66-.46,.79-.96,1.57,.12,.11,.21,.21,.37,.36,.53-.84,.76-1.27,.9-1.56l.83,.43Zm-2.31,4.08c.07,0,.17,.03,.17,.11,0,.11-.14,.13-.2,.14-.08,.72-.21,1.42-.42,2.11-.3-.1-.45-.13-.84-.21,.25-.61,.47-1.62,.5-2.27l.79,.1Zm2.07-.35c.08,.67,.2,1.17,.38,1.78-.33,.07-.42,.1-.72,.24-.14-.51-.28-1.31-.32-1.82l.66-.2Zm.51,.66v-.8h1.45l.35,.33c-.25,1.2-.87,2.31-1.74,3.17-.26-.26-.62-.44-.76-.51,.71-.56,1.21-1.31,1.49-2.18h-.79Zm4.55-4.86v3.37h-1.59v.57c.05,.11,.2,.49,.33,.73,.61-.52,.88-.83,1.03-1l.73,.44c.09,.06,.14,.09,.14,.18s-.09,.12-.16,.12c-.05,0-.1,0-.18-.02-.41,.43-1.02,.89-1.12,.97,.61,.82,1.13,1.25,1.51,1.52-.12,.07-.3,.17-.59,.68-.26-.22-1.16-1.06-1.69-2.05v1.28c0,1.09-.92,1.1-1.65,1.11,0-.18-.02-.4-.43-.98,.11,.04,.34,.09,.67,.09,.27,0,.5,0,.5-.39v-3.25h-1.61v-3.37h1.17c.2-.43,.28-.58,.38-.99l.9,.13c.09,0,.2,.03,.2,.14,0,.09-.13,.14-.25,.15-.18,.35-.22,.42-.3,.56h2Zm-3.17,1.33h2.23v-.61h-2.23v.61Zm2.23,.68h-2.23v.64h2.23v-.64Z"/><path class="k" d="M32.38,81.19v-1.82l.98,.05c.08,0,.16,.02,.16,.1,0,.07-.06,.1-.16,.17v1.5h1.12v.88h-1.12v1.67c.22-.1,.75-.34,1.16-.57-.09,.38-.1,.94-.1,1.05-.28,.14-.35,.17-1.05,.5v3.41h-.98v-2.97c-.33,.14-.82,.35-1.09,.44-.08,.19-.09,.27-.2,.27-.07,0-.09-.04-.12-.18l-.24-.99c.59-.14,1.2-.36,1.66-.54v-2.09h-.59c-.02,.09-.11,.64-.31,1.17-.3-.08-.58-.13-.9-.12,.19-.49,.52-1.37,.54-2.97l.92,.11c.09,0,.15,.05,.15,.11,0,.08-.07,.1-.23,.18-.02,.3-.03,.46-.05,.63h.46Zm2,1.89v-.85h2.06v-.92h-1.68v-.82h1.68v-1.13l.95,.04c.13,0,.22,.03,.22,.11s-.09,.11-.2,.16v.81h1.89v.82h-1.89v.92h2.2v.85h-.92c.04,.12-.06,.16-.19,.21v.79h.99v.88h-.99v2.1c0,1.04-.61,1.05-1.79,1.07-.02-.45-.22-.83-.31-1.01,.15,.03,.33,.06,.63,.06,.52,0,.53-.1,.53-.46v-1.75h-2.95v-.88h2.95v-1h-3.18Zm.94,1.95c.27,.31,.71,.85,1.07,1.48-.06,.04-.49,.33-.76,.57-.18-.33-.62-1.02-1.07-1.52l.76-.53Z"/><path class="k" d="M48.51,81.51v3.53h-7.03v-.78h6.02v-.61h-5.68v-.74h5.68v-.61h-5.96v-.19c-.27,.15-.45,.25-.61,.33-.26-.45-.52-.6-.72-.71,.54-.23,2.13-.92,3.07-2.48l.93,.18c.09,.02,.18,.07,.18,.13,0,.1-.1,.12-.25,.16-.04,.04-.19,.24-.23,.28h3.15l.39,.38c-.13,.18-.32,.42-.99,1.12h2.06Zm-5.82,4.17c.13,.07,.13,.1,.13,.12,0,.11-.14,.12-.28,.12-.3,.67-.76,1.39-1.38,2-.38-.34-.6-.43-.82-.51,.21-.19,1.09-1.02,1.5-2.14l.84,.4Zm2.55-4.17c.17-.19,.23-.26,.59-.74h-2.58c-.38,.38-.8,.7-.85,.74h2.84Zm-1.33,3.88c.08,0,.21,.05,.21,.13s-.08,.12-.21,.18v1.1c0,.28,.04,.36,.4,.36h1.62c.29,0,.48-.1,.56-.92,.13,.09,.45,.28,.89,.35-.18,1.03-.54,1.42-1.32,1.42h-2.06c-.36,0-1.09,0-1.09-.83v-1.88l.99,.08Zm1.13-.33c.38,.37,.69,.75,1,1.19-.32,.21-.42,.29-.72,.54-.4-.61-.65-.93-.98-1.26l.69-.46Zm2.75,.16c.49,.49,1.31,1.55,1.54,2.09-.38,.22-.53,.31-.8,.55-.32-.66-.84-1.47-1.53-2.17l.79-.47Z"/></g><rect class="m" x="146.09" y="26.19" width="31.69" height="34.35"/><polyline class="g" points="177.78 26.19 177.78 60.53 177.78 94.88"/><line class="g" x1="146.09" y1="26.19" x2="146.09" y2="60.53"/><g><path class="j" d="M157.23,39.67v-1h.41c.15,0,1.13-.09,1.13-.8s-.73-.68-.98-.68c-.63,0-1.07,.1-1.09,.81h-1.53c.18-1.54,1.26-2.08,2.68-2.08,1.53,0,2.41,.71,2.41,1.76,0,.99-.68,1.26-1,1.39,.38,.14,1.16,.44,1.16,1.54,0,1.46-1.3,2.13-2.77,2.13s-2.58-.66-2.7-2.34h1.54c.02,.31,.07,1.11,1.17,1.11,.16,0,1.21-.02,1.21-.92,0-.52-.37-.93-1.17-.93h-.48Z"/><path class="j" d="M166.66,39.44c0,.79-.19,3.3-2.73,3.3-1.19,0-1.83-.57-2.17-1.06-.43-.62-.57-1.75-.57-2.46,0-.79,.19-3.31,2.74-3.31,2.39,0,2.73,2.18,2.73,3.52Zm-3.95-.11c0,.27,0,2.17,1.21,2.17s1.2-1.89,1.2-2.17c0-.3,0-2.17-1.2-2.17s-1.21,1.88-1.21,2.17Z"/><path class="j" d="M169.45,39.56v-.76c-.27,.29-.43,.43-1.06,.91-.39-.63-.7-.82-.93-.95,.65-.42,1.66-1.16,2.51-2.88l1.08,.71s.08,.07,.08,.13-.11,.08-.21,.09c-.6,.93-.7,1.11-1.1,1.56h3.54c-.34-.39-.53-.71-.89-1.47h-1.04v-1.14h2.06c.06,.7,.47,1.97,2.16,2.85-.36,.32-.57,.61-.76,1.07-.2-.11-.34-.18-.88-.66-.08,3.76-.29,4.13-2.18,4.13-.11,0-.18,0-.27-.02,0-.61-.24-1.07-.34-1.28,.41,.05,.54,.07,.78,.07,.29,0,.47,0,.56-.25,.03-.08,.2-.62,.2-2.11h-1.15c-.2,2.58-2.28,3.4-2.89,3.64-.11-.28-.29-.57-.85-1.06,2.11-.62,2.43-1.66,2.53-2.58h-.94Z"/></g><g><path class="n" d="M156.58,47.77c0,.06,0,.12,0,.19h.84v1.01h-.79c.29,.75,.58,1.11,.97,1.48-.56,.48-.71,.71-.84,.89-.3-.47-.4-.61-.6-1.04-.38,1.08-.95,1.7-1.28,2.05-.43-.32-.89-.48-1.03-.53,.66-.64,1.39-1.61,1.58-2.85h-1.33v-1.01h1.41v-1.14h-.12c-.11,.33-.18,.52-.37,.9-.32-.23-.57-.36-1.05-.51,.6-1.08,.68-1.89,.75-2.53l1.11,.21c.1,.02,.18,.03,.18,.11s-.07,.13-.18,.16c-.07,.33-.08,.42-.12,.57h1.52v-.73h4.16v.98h-4v.83h-.78v.95Zm2.75,3.28c.18-.31,.5-.97,.66-1.79l1.14,.34s.1,.04,.1,.09c0,.1-.08,.12-.2,.15-.14,.48-.26,.81-.43,1.2h.97v1.08h-4.46v-1.08h1.09c-.05-.15-.24-.75-.56-1.36l1.02-.41c.33,.62,.48,1,.62,1.43-.31,.16-.35,.18-.68,.34h.75Zm1.8-4.58v2.74h-3.49v-2.74h3.49Zm-2.32,1.02v.73h1.18v-.73h-1.18Z"/><path class="n" d="M165.19,46.88v-1.35h1.68v-.72h1.14c.07,0,.2,.02,.2,.11,0,.13-.17,.15-.23,.16v.44h1.75v1.35h-1.03v-.43h-2.47v.35l.71,.22s.05,.02,.07,.02v-.04h2.4v.94h-.74c-.05,.15-.08,.25-.15,.39h1.07v3.9h-.97v-.29h-.77v.29h-.99v-3.9h.59c.06-.16,.08-.22,.14-.39h-.58v-.68s-.06,0-.11,0c-.09,.28-.16,.46-.27,.73,.08,.02,.14,.03,.14,.11,0,.1-.1,.14-.2,.17v3.95h-.93v-2.56l-.04,.04c-.17-.16-.26-.24-.46-.37,.02,.52,.07,1.04,.19,1.54-.43,.06-.7,.14-.93,.23-.06-.52-.08-1.11-.08-1.75l.72-.09c-.1-.06-.15-.09-.26-.15,.11-.11,.16-.18,.26-.29-.45,.07-.51,.09-.6,.11,0-.07-.02-.11-.02-.16-.04,0-.17,.02-.22,.02v3.48h-1.01v-2.7s-.08,.02-.12,.03c-.04,.89-.09,1.37-.24,1.89-.38-.21-.46-.25-.89-.38,.29-.7,.3-1.81,.3-1.92l.82,.15s.08,0,.12,.02v-.47c-.12,.02-.51,.06-.63,.06-.04,.08-.08,.16-.16,.16-.11,0-.11-.11-.12-.17l-.11-.84c.11,0,.39,0,.46,0,.18-.24,.39-.53,.52-.72-.08-.08-.52-.52-1.03-.93l.57-.76s.07,.06,.09,.07c.34-.59,.48-.98,.54-1.16l.93,.36c.09,.03,.16,.07,.16,.14,0,.09-.11,.1-.25,.1-.12,.22-.58,.98-.69,1.14,.07,.06,.14,.12,.2,.19,.29-.48,.39-.72,.49-.94l.84,.43s.12,.06,.12,.14c0,.11-.11,.11-.25,.12-.13,.23-.61,1.02-.74,1.22l.78-.25c.15,.34,.29,.86,.35,1.24,.3-.48,.52-.94,.7-1.64h-.79Zm-1.42,1.19c.29-.02,.4-.02,.52-.04-.06-.25-.09-.33-.15-.48-.09,.14-.25,.35-.37,.52Zm4.86,1.61v-.44h-.77v.44h.77Zm0,1.34v-.47h-.77v.47h.77Z"/></g><path class="j" d="M149.56,40.86s.09,.03,.09,.06c0,.05-.06,.08-.13,.1-.06,.46-.13,.84-.28,1.28-.19-.07-.38-.11-.58-.13,.2-.41,.31-1.1,.32-1.4l.58,.08Zm1.44-2.43s.07,.05,.07,.09c0,.06-.08,.06-.15,.06-.06,.08-.3,.43-.35,.5-.09,.13-.28,.38-.61,.78,.08,0,.44-.05,.51-.06-.07-.24-.1-.31-.13-.36l.55-.13c.51-.7,.74-1.32,.83-1.66l.63,.2s.09,.05,.09,.09c0,.05-.09,.08-.15,.09-.1,.27-.15,.37-.19,.47h1.55c.02,1.36-.04,2.75-.2,3.35-.16,.63-.47,.81-1.28,.78-.01-.12-.03-.33-.29-.75,.08,.02,.29,.07,.47,.07,.34,0,.47-.18,.57-.85,.1-.68,.09-1.67,.09-2.01h-1.21c-.16,.29-.22,.39-.4,.63-.11-.11-.28-.21-.45-.28,.12,.34,.21,.75,.27,1-.31,.08-.41,.11-.57,.18-.01-.08-.02-.14-.04-.28l-.3,.05v2.28h-.62v-2.19c-.1,0-.57,.06-.66,.08-.02,.07-.05,.13-.1,.13-.06,0-.09-.07-.1-.11l-.08-.59c.18-.02,.27-.02,.46-.04,.13-.15,.23-.27,.31-.38-.21-.21-.27-.26-.79-.71l.37-.52c.15,.11,.19,.15,.25,.2,.34-.57,.43-.79,.48-.93l.53,.26s.06,.05,.06,.08c0,.05-.05,.06-.16,.06-.19,.36-.42,.71-.54,.87,.03,.03,.07,.06,.18,.17,.39-.55,.47-.68,.57-.88l.52,.29Zm-.03,2.27c.05,.4,.13,.7,.28,1.17-.08,.02-.4,.09-.56,.2-.07-.23-.23-.77-.27-1.22l.55-.15Zm1.07-1.03c.24,.44,.4,.78,.53,1.21-.42,.18-.49,.22-.58,.26-.11-.42-.33-.9-.53-1.26l.58-.22Z"/><g class="q"><g><g><path class="k" d="M4.7,39.57v12.55H88.15s3.32-.91,.83-4.73c0,0-2.57-2.07-11.03-2.65,0,0-6.64-.83-14.6-3.73-4.98-.91-9.62-1.08-12.2-1.08s-46.44-.35-46.44-.35Z"/><g><path class="i" d="M86.77,48.66c-.29-.07-1.37-.39-1.7-.39s-1.44,.69-1.44,.69c0,0,.95,.13,2.16,.13s1.27-.36,.98-.42Z"/><path class="h" d="M89.76,47.67c-1.36-1.69-4.36-2.61-10.06-3.09-5.43-.45-7.46-1.17-9.42-1.87-.58-.21-1.17-.42-1.85-.62-.21-.06-.43-.13-.66-.2-3.01-.92-7.55-2.32-17.86-2.32H4.7v.74H49.91c7.9,0,12.37,.83,15.36,1.62-1.22,.83-1.57,1.82,2.16,2.36,2.88,.42,4.65,.34,5.73,.09,1.51,.36,3.48,.69,6.48,.94,5.4,.45,8.35,1.32,9.55,2.81,.52,.65,.71,1.42,.58,2.37,0,.01,0,.03,0,.04H4.7v3.18H83.06c.29,0,7.02-.04,7.44-3.12,.15-1.14-.09-2.13-.74-2.93Z"/></g><rect class="i" x="4.91" y="43.04" width="2.16" height="2.29" rx=".35" ry=".35"/><rect class="i" x="9.23" y="43.04" width="2.16" height="2.29" rx=".35" ry=".35"/><rect class="i" x="13.54" y="43.04" width="2.16" height="2.29" rx=".35" ry=".35"/><rect class="i" x="35.11" y="43.04" width="2.16" height="2.29" rx=".35" ry=".35"/><rect class="i" x="39.42" y="43.04" width="2.16" height="2.29" rx=".35" ry=".35"/><rect class="i" x="43.74" y="43.04" width="2.16" height="2.29" rx=".35" ry=".35"/><rect class="i" x="49.91" y="41.92" width="1.86" height="2.55" rx=".35" ry=".35"/><rect class="i" x="54.62" y="42.68" width=".82" height="2.17" rx=".35" ry=".35"/></g><rect class="i" x="26.48" y="43.04" width="2.16" height="2.29" rx=".35" ry=".35"/><rect class="i" x="30.8" y="43.04" width="2.16" height="2.29" rx=".35" ry=".35"/><rect class="i" x="17.85" y="43.04" width="2.16" height="2.29" rx=".35" ry=".35"/><rect class="i" x="22.17" y="43.04" width="2.16" height="2.29" rx=".35" ry=".35"/></g></g><rect class="h" x="19.93" y="26.19" width="39.12" height="34.35"/><g><path class="k" d="M28.37,39.82h1.51v.81h-1.44c.16,.23,.67,.89,1.26,1.31-.32,.23-.42,.35-.62,.69-.15-.16-.34-.38-.72-.99v2.38h-.91v-2.46c-.43,.95-.93,1.53-1.21,1.85-.21-.19-.4-.32-.82-.51,.8-.71,1.43-1.69,1.71-2.27h-1.41v-.81h1.73v-.87h-1.84v-.79h1.16c-.14-.43-.23-.67-.38-.99l.53-.16h-1.07v-.79h1.58v-1l.99,.08c.17,0,.22,.05,.22,.11,0,.06-.06,.09-.22,.17v.63h1.55v.79h-.46c.09,.04,.14,.08,.14,.12,0,.13-.16,.14-.27,.16-.06,.17-.14,.39-.39,.86h1.16v.79h-1.55s.04,.05,.04,.07c0,.1-.16,.15-.28,.19v.61Zm-1.14-2.81c.23,.5,.32,.85,.36,.99l-.55,.16h1.07c.22-.34,.37-.75,.52-1.15h-1.41Zm3.21-1.09l.6,.08c.48,0,1.78-.28,2.66-.66l.56,.74s.05,.08,.05,.12c0,.09-.06,.11-.12,.11-.06,0-.1,0-.24-.09-.87,.3-1.6,.46-2.54,.53v1.48h2.84v.91h-.95v4.84h-.97v-4.84h-.93c0,.88,0,3.11-1.43,4.88-.35-.2-.41-.22-.92-.44,1.31-1.4,1.38-3.21,1.38-4.34v-3.32Z"/><path class="k" d="M37.73,41.49h1.77v.8h-1.77v1.71h-.93v-1.71h-1.63v-.8h1.63v-.6h-1.4v-3.36h1.4v-.56h-1.57v-.77h1.57v-.94l.95,.06c.08,0,.19,0,.19,.11,0,.09-.11,.12-.21,.16v.6h1.64v.77h-1.64v.56h1.36v.2c1.02-.94,1.54-1.63,1.96-2.5l.96,.2c.11,.03,.21,.05,.21,.12,0,.11-.14,.12-.27,.15,.39,.55,1.13,1.4,2.29,2.1-.31,.25-.43,.39-.64,.76-.83-.62-1.72-1.55-2.15-2.22-.57,.86-1.14,1.5-1.87,2.17-.14-.16-.3-.31-.48-.45v2.81h-1.36v.6Zm-1.45-2.64h1.92v-.61h-1.92v.61Zm1.92,.68h-1.92v.67h1.92v-.67Zm1.72-.51v-.81h3.13v.81h-1.08v1.24h1.79v.9h-1.79v2.81h-.94v-2.81h-1.71v-.9h1.71v-1.24h-1.11Z"/><path class="k" d="M48.15,36.63c.06,.03,.09,.07,.09,.13,0,.06-.06,.1-.13,.1-.04,0-.1,0-.14,0-.93,1.43-1.02,1.6-1.61,2.39,.43-.04,.56-.06,1.14-.13-.16-.48-.23-.62-.28-.75l.66-.25c.37,.69,.67,1.58,.74,1.79-.16,.05-.55,.17-.81,.32-.02-.14-.04-.21-.1-.42-.18,.04-.53,.09-.71,.12v4.09h-.93v-3.95c-.17,.03-.91,.11-1.06,.13-.02,.08-.06,.23-.16,.23-.09,0-.12-.12-.14-.21l-.16-.89c.18,0,.27,0,.8-.02,.24-.33,.39-.55,.54-.77-.07-.09-.7-.76-1.4-1.26l.53-.79c.19,.14,.27,.21,.42,.34,.55-.93,.77-1.4,.88-1.66l.83,.38c.07,.03,.13,.09,.13,.15,0,.11-.12,.11-.28,.12-.37,.66-.46,.79-.96,1.57,.12,.11,.21,.21,.37,.36,.53-.84,.76-1.27,.9-1.56l.83,.43Zm-2.31,4.08c.07,0,.17,.03,.17,.11,0,.11-.14,.13-.2,.14-.08,.72-.21,1.42-.42,2.11-.3-.1-.45-.13-.84-.21,.25-.61,.47-1.62,.5-2.27l.79,.1Zm2.07-.35c.08,.67,.2,1.17,.38,1.78-.33,.07-.42,.1-.72,.24-.14-.51-.28-1.31-.32-1.82l.66-.2Zm.51,.66v-.8h1.45l.35,.33c-.25,1.2-.87,2.31-1.74,3.17-.26-.26-.62-.44-.76-.51,.71-.56,1.21-1.31,1.49-2.18h-.79Zm4.55-4.86v3.37h-1.59v.57c.05,.11,.2,.49,.33,.73,.61-.52,.88-.83,1.03-1l.73,.44c.09,.06,.14,.09,.14,.18s-.09,.12-.16,.12c-.05,0-.1,0-.18-.02-.41,.43-1.02,.89-1.12,.97,.61,.82,1.13,1.25,1.51,1.52-.12,.07-.3,.17-.59,.68-.26-.22-1.16-1.06-1.69-2.05v1.28c0,1.09-.92,1.1-1.65,1.11,0-.18-.02-.4-.43-.98,.11,.04,.34,.09,.67,.09,.27,0,.5,0,.5-.39v-3.25h-1.61v-3.37h1.17c.2-.43,.28-.58,.38-.99l.9,.13c.09,0,.2,.03,.2,.14,0,.09-.13,.14-.25,.15-.18,.35-.22,.42-.3,.56h2Zm-3.17,1.33h2.23v-.61h-2.23v.61Zm2.23,.68h-2.23v.64h2.23v-.64Z"/></g></g><g><path class="k" d="M25.13,46.45c-.25,.41-.84,1.39-.84,3.22s.59,2.81,.84,3.21l-.29,.45c-.21-.32-.96-1.5-.96-3.67s.75-3.35,.96-3.67l.29,.45Z"/><path class="k" d="M26.06,48.44c.3,.48,.5,.9,.71,1.36,.15-.57,.26-1.1,.34-1.76h-1.53v-.71h.94v-1.24l.52,.05s.1,.04,.1,.1c0,.08-.05,.1-.1,.13v.97h.88v.71h-.34c-.1,.99-.35,1.98-.49,2.46,.13,.34,.36,.97,.58,1.76-.19,.14-.31,.25-.46,.41-.15-.7-.35-1.3-.38-1.4-.14,.38-.48,1.19-.98,1.86-.14-.25-.22-.34-.4-.48,.34-.43,.72-1.03,1.1-2.09-.33-.81-.56-1.23-.84-1.69l.36-.43Zm1.93,1c.08,.18,.33,.78,.51,1.48-.09,.07-.2,.15-.44,.4-.11-.5-.31-1.13-.46-1.5l.4-.38Zm1.87-1.29v.73h-.51v3.21c0,1.07-.36,1.07-.94,1.07,0-.44-.17-.81-.21-.9,.2,.05,.41,.07,.44,.07,.21,0,.21-.15,.21-.51v-2.93h-1.08v-.73h1.08v-2.03l.49,.05c.06,0,.1,.03,.1,.09,0,.05-.04,.09-.1,.13v1.75h.51Z"/><path class="k" d="M30.86,52.74v.42h-.47v-5.25h1.37c.1-.32,.17-.56,.24-.84h-1.83v-.67h4.24v.67h-1.83c-.05,.18-.14,.51-.25,.84h1.84v5.24h-.47v-.41h-2.84Zm.61-.69v-3.49h-.61v3.49h.61Zm1.17-2.77v-.72h-.7v.72h.7Zm0,1.37v-.76h-.7v.76h.7Zm0,1.4v-.81h-.7v.81h.7Zm1.06,0v-3.49h-.59v3.49h.59Z"/><path class="k" d="M37.1,53.17h-.44v-1.77c-.45,.71-1.09,1.44-1.54,1.78-.15-.33-.25-.48-.35-.59,.81-.51,1.3-1.12,1.59-1.56h-1.36v-.61h.65v-.77h-.88v-.62h.88v-.72h-.65v-.63h1.66v-.5c-.45,.05-.98,.05-1.22,.05-.05-.39-.12-.58-.16-.68,.1,0,.23,.01,.44,.01,1,0,1.81-.19,2.36-.52l.27,.57s.03,.08,.03,.12c0,.04-.02,.07-.05,.07-.04,0-.1-.05-.13-.07-.39,.18-.84,.33-1.12,.38v.57h1.67v.63h-.67v.72h.89v.62h-.89v.77h.65v.61h-1.35c.23,.34,.76,.97,1.59,1.48-.09,.12-.19,.28-.33,.59-.23-.18-.95-.75-1.56-1.77v1.83Zm-.44-4.87h-.54v.72h.54v-.72Zm0,1.34h-.54v.77h.54v-.77Zm.98-1.34h-.54v.72h.54v-.72Zm0,1.34h-.54v.77h.54v-.77Z"/><path class="k" d="M40.8,47.52v.71h-.38v1.07c.18-.1,.27-.16,.39-.24-.03,.2-.04,.3-.03,.68-.08,.06-.17,.13-.36,.26v2.29c0,.74-.21,.87-.68,.87-.06,0-.1,0-.15,0-.04-.43-.06-.56-.14-.79,.05,.02,.19,.05,.31,.05,.2,0,.21-.08,.21-.34v-1.78c-.11,.06-.19,.11-.41,.24-.02,.12-.04,.19-.08,.19s-.05-.08-.06-.16l-.09-.74c.11-.04,.25-.09,.64-.28v-1.32h-.57v-.71h.57v-1.4l.47,.04c.05,0,.11,0,.11,.09,0,.06-.05,.1-.13,.15v1.11h.38Zm-.19,3.66v-.67h.36v-2.59h1.12c.09-.17,.21-.41,.33-.71h-.7c-.25,.44-.39,.59-.47,.7-.1-.16-.16-.24-.38-.45,.51-.48,.78-1.23,.87-1.46l.41,.18s.1,.05,.1,.11c0,.06-.05,.08-.12,.09-.03,.08-.05,.14-.1,.25h.88l.21,.26c-.17,.4-.18,.42-.47,1.02h.8v2.59h.21v.67h-1.22c.36,.86,.82,1.2,1.23,1.4-.17,.22-.26,.53-.29,.63-.57-.43-.94-.82-1.29-1.66-.36,1.11-.97,1.5-1.22,1.65-.08-.26-.14-.4-.29-.59,.22-.11,.88-.44,1.18-1.44h-1.12Zm1.74-1.09s.08,.02,.08,.09-.05,.11-.11,.14c0,.08,0,.11-.02,.19h.7v-1c-.03,.11-.09,.33-.25,.33h-.26c-.23,0-.28-.18-.28-.38v-.91h-.38l.24,.11s.06,.04,.06,.08c0,.08-.06,.09-.09,.09-.1,.46-.26,.92-.46,1.22-.06-.1-.12-.2-.18-.27v.73h.47c.02-.21,.03-.35,.03-.5l.45,.08Zm-.95-.52c.19-.31,.28-.67,.33-1.02h-.33v1.02Zm1.3-.29c.07,0,.1-.31,.11-.44,.09,.11,.12,.14,.18,.19v-.48h-.43v.61c0,.09,0,.12,.05,.12h.1Z"/><path class="k" d="M48.23,47.32v.77h-2.09c0,.39-.02,.69-.05,.97h1.52c0,.95-.05,2.86-.35,3.58-.21,.51-.49,.51-.94,.54-.04-.44-.13-.68-.22-.87,.06,.02,.22,.07,.41,.07,.17,0,.35,0,.47-.51,.05-.24,.16-.84,.16-2.05h-1.13c-.22,1.48-.87,2.66-1.69,3.35-.09-.23-.25-.51-.41-.61,1.69-1.04,1.72-3.66,1.73-4.47h-1.64v-.77h1.85v-1.18l.51,.05s.1,.03,.1,.11c0,.06-.03,.08-.1,.12v.9h1.85Z"/><path class="k" d="M51.13,46.2s.1,.02,.1,.11c0,.08-.03,.1-.12,.16,0,.26,0,.62,.04,1.17h1.03c-.2-.33-.47-.67-.71-.93l.28-.56c.19,.18,.48,.51,.75,.89-.11,.18-.19,.39-.28,.6h.58v.76h-1.6c.05,.46,.2,2,.78,3.39,.12,.3,.22,.38,.25,.38,.09,0,.13-.24,.18-.47,.02-.09,.07-.51,.08-.59,.05,.1,.21,.37,.4,.53-.13,.97-.31,1.45-.59,1.45-.48,0-1.26-1.59-1.56-4.69h-2.16v-.76h2.1c-.05-1.07-.06-1.18-.06-1.5l.51,.06Zm-1.14,5.77c.48-.15,.71-.24,.94-.35-.04,.21-.06,.49-.06,.72-.57,.27-1.17,.45-2.03,.65-.03,.11-.05,.18-.1,.18s-.06-.09-.06-.15l-.1-.76c.26-.04,.53-.09,.9-.18v-1.93h-.79v-.72h2.03v.72h-.74v1.8Z"/><path class="k" d="M53.28,52.88c.25-.41,.84-1.39,.84-3.21s-.59-2.8-.84-3.22l.29-.45c.21,.32,.96,1.5,.96,3.67s-.75,3.35-.96,3.67l-.29-.45Z"/></g></svg>