<?xml version="1.0" encoding="utf-8"?>
<!-- Generator: Adobe Illustrator 26.5.0, SVG Export Plug-In . SVG Version: 6.00 Build 0)  -->
<svg version="1.1" id="a" xmlns="http://www.w3.org/2000/svg" xmlns:xlink="http://www.w3.org/1999/xlink" x="0px" y="0px"
	 viewBox="0 0 257.5 105.5" style="enable-background:new 0 0 257.5 105.5;" xml:space="preserve">
<style type="text/css">
	.st0{fill:#FFFBC7;}
	.st1{fill:none;stroke:#C30D23;stroke-width:1.8;stroke-miterlimit:10;}
	.st2{fill:#231815;}
	.st3{fill:#FFFFFF;}
	.st4{fill:none;stroke:#77B538;stroke-miterlimit:10;}
	.st5{fill:#77B538;}
	.st6{clip-path:url(#SVGID_00000149365855924684768660000007218746263671936681_);}
	.st7{fill:#FFF100;}
	.st8{fill:none;stroke:#231815;stroke-width:0.5;stroke-miterlimit:10;}
	.st9{fill:#E60012;}
	.st10{clip-path:url(#SVGID_00000149373223628310509390000012906187006297127608_);}
	.st11{fill:#CD1D1C;}
	.st12{fill:#CD1D1C;stroke:#CD1D1C;stroke-width:0.3;stroke-miterlimit:10;}
</style>
<g>
	<path class="st0" d="M12,0.9h233.4c6.1,0,11.1,5,11.1,11.1v81.5c0,6.1-5,11.1-11.1,11.1H12c-6.1,0-11.1-5-11.1-11.1V12
		C0.9,5.9,5.9,0.9,12,0.9z"/>
	<path class="st1" d="M12,0.9h233.4c6.1,0,11.1,5,11.1,11.1v81.5c0,6.1-5,11.1-11.1,11.1H12c-6.1,0-11.1-5-11.1-11.1V12
		C0.9,5.9,5.9,0.9,12,0.9z"/>
	<g>
		<path class="st2" d="M177.5,47.4c0.1,0,0.2,0,0.2,0.1s-0.1,0.1-0.2,0.2c-0.1,0.6-0.2,1.4-0.5,2.3c-0.1-0.1-0.5-0.2-0.9-0.2
			c0.3-0.7,0.6-1.8,0.6-2.5L177.5,47.4L177.5,47.4z M180,43.1c0,0,0.1,0.1,0.1,0.2c0,0.1-0.1,0.1-0.3,0.1c-0.2,0.2-0.9,1.2-1,1.4
			c-0.4,0.5-0.5,0.7-0.8,1c0.4,0,0.5-0.1,1.2-0.2c-0.1-0.4-0.2-0.6-0.2-0.7l0.8-0.2c0,0,0,0.1,0.1,0.2c0.9-1.2,1.4-2.3,1.6-3.1
			l0.9,0.3c0.1,0,0.2,0.1,0.2,0.2s-0.1,0.1-0.1,0.1c-0.1,0-0.1,0-0.2,0c-0.1,0.2-0.3,0.7-0.4,1h2.8c0,1.5,0,5-0.5,6.2
			c-0.3,0.8-0.9,1-2.1,1c-0.1-0.4-0.2-0.8-0.4-1.1c0.1,0,0.5,0.1,0.8,0.1c0.7,0,0.9-0.3,1.1-1.8c0.1-1.1,0.1-2.6,0.1-3.5h-2.3
			c-0.3,0.5-0.5,0.8-0.7,1.2c-0.3-0.3-0.6-0.4-0.8-0.5c0.3,0.8,0.5,1.5,0.5,1.8c-0.4,0.1-0.6,0.2-0.9,0.3c0-0.2-0.1-0.3-0.1-0.6
			l-0.6,0.1v4.1h-0.9v-3.9c-0.1,0-1,0.1-1.3,0.2c0,0.1-0.1,0.2-0.2,0.2c-0.1,0-0.1-0.1-0.2-0.2l-0.1-0.9c0.2,0,0.7,0,0.8-0.1
			c0.2-0.2,0.3-0.3,0.6-0.8c-0.5-0.5-0.7-0.7-1.4-1.3l0.6-0.8c0.2,0.2,0.3,0.3,0.5,0.4c0.1-0.1,0.6-1,0.9-1.7l0.8,0.4
			c0.1,0,0.1,0.1,0.1,0.2c0,0.1-0.2,0.1-0.3,0.1c-0.4,0.7-0.8,1.3-1,1.6c0.2,0.2,0.3,0.3,0.4,0.4c0.5-0.6,0.8-1.1,1.1-1.7L180,43.1
			L180,43.1z M179.8,47.2c0.1,0.7,0.2,1.2,0.6,2.1c-0.2,0-0.6,0.2-0.8,0.3c-0.1-0.4-0.4-1.4-0.5-2.1L179.8,47.2L179.8,47.2z
			 M181.8,45.4c0.6,1.1,0.9,1.8,1,2.1c-0.4,0.2-0.5,0.2-0.9,0.4c-0.2-0.8-0.7-1.7-1-2.2L181.8,45.4z"/>
		<path class="st2" d="M190.4,49.9h-1.2v-5.2h-1.6v-0.9c0.9,0,1.6-0.2,1.9-1.4h1L190.4,49.9L190.4,49.9z"/>
		<path class="st2" d="M197,42.7V49h-0.9v-0.4h-1v0.8h-0.9v-6.8L197,42.7L197,42.7z M196.1,45.2v-1.6h-1v1.6H196.1z M195.1,46v1.8h1
			V46H195.1z M201.6,45.8c0.1,0,0.2,0,0.2,0.1s-0.1,0.1-0.2,0.1v0.6h1.1v0.9h-1.1v2c0,0.7-0.2,1.2-1.9,1.1c0-0.4-0.1-0.7-0.4-1
			c0.2,0,0.7,0.1,0.8,0.1c0.4,0,0.4-0.1,0.4-0.5v-1.7h-3.1v-0.9h3.1v-0.9h-3.2v-0.9h2.1v-0.9h-1.8V43h1.8v-1.2h1.1
			c0,0,0.2,0,0.2,0.1s-0.1,0.1-0.2,0.2V43h2v0.9h-2v0.9h2.3v0.9H201L201.6,45.8L201.6,45.8z M198.3,47.5c0.4,0.3,0.9,0.9,1.2,1.4
			c-0.3,0.2-0.4,0.3-0.8,0.7c-0.3-0.5-0.7-1-1.1-1.4L198.3,47.5L198.3,47.5z"/>
		<path class="st2" d="M207.5,42v3.1h-2.6v5.4h-1V42H207.5z M206.5,43.3v-0.5h-1.7v0.5H206.5z M204.8,43.9v0.6h1.7v-0.6H204.8z
			 M209.8,49.3h-2.9v0.4H206v-3.8h3.8L209.8,49.3L209.8,49.3z M208.9,47.2v-0.6h-2v0.6H208.9z M206.8,47.9v0.6h2v-0.6H206.8z
			 M211.9,42v7.3c0,0.9-0.3,1.1-0.6,1.2c-0.3,0.1-0.8,0.1-1.1,0.1c-0.1-0.5-0.2-0.8-0.4-1.1c0.2,0.1,0.4,0.1,0.7,0.1
			c0.5,0,0.5-0.1,0.5-0.6v-3.9h-2.6V42H211.9L211.9,42z M210.9,43.2v-0.5h-1.7v0.5H210.9z M209.2,43.9v0.6h1.7v-0.6H209.2z"/>
		<path class="st2" d="M220.9,49.9h-6.3c0.1-1.4,0.8-2.1,2.8-3.3c1.9-1.2,2.2-1.4,2.2-2.2s-0.8-1.2-1.7-1.2c-1.7,0-1.9,1.1-2,1.9
			h-1.2c0-0.4,0.1-1.2,0.5-1.7c0.7-1,2-1.2,2.7-1.2c1.8,0,2.9,0.9,2.9,2.2c0,1-0.5,1.6-2,2.5c-1.8,1-2.1,1.3-2.6,2h4.6L220.9,49.9
			L220.9,49.9z"/>
		<path class="st2" d="M227.5,43.4c0.6,1,0.7,2.2,0.7,2.8c0,0.5-0.1,1.8-0.7,2.8c-0.7,1-1.8,1.2-2.5,1.2c-1.3,0-2.1-0.6-2.5-1.2
			c-0.6-1-0.7-2.1-0.7-2.8s0.1-1.8,0.7-2.8c0.5-0.8,1.5-1.2,2.5-1.2S227,42.5,227.5,43.4z M223.1,46.1c0,0.8,0.1,3,1.9,3
			s1.9-2.2,1.9-3c0-1-0.2-3-1.9-3S223.1,45.2,223.1,46.1z"/>
		<path class="st2" d="M234.1,42.8l0.1,0.1c0,0.1-0.1,0.1-0.3,0.1c-0.8,1.3-1.4,2.2-3,3.4c-0.3-0.4-0.5-0.6-0.8-0.8
			c1.4-1,2.2-1.8,3-3.4L234.1,42.8L234.1,42.8z M232.4,46.1v-1h5.1c-0.9-0.9-1.2-1.7-1.4-2.2h-1.4V42h2.2c0.2,1.4,1.3,2.7,2.6,3.4
			c-0.4,0.4-0.4,0.5-0.6,0.9c-0.5-0.3-0.8-0.6-1.3-1.1c-0.2,4.5-0.2,5.3-2.5,5.3c-0.1,0-0.2,0-0.2,0c0-0.5-0.2-0.9-0.3-1.1
			c0.1,0,0.4,0.1,0.8,0.1c0.9,0,0.9-0.3,1.1-1.4c0-0.3,0.1-1.5,0.1-2h-1.8c-0.1,0.9-0.2,3-3.3,4.4c-0.2-0.4-0.6-0.7-0.7-0.9
			c2.3-0.9,2.9-2.2,3-3.5H232.4L232.4,46.1z"/>
	</g>
	<g>
		<path class="st2" d="M190.4,76.7h-1.2v-5.2h-1.6v-0.9c0.9-0.1,1.6-0.2,1.9-1.4h1L190.4,76.7L190.4,76.7z"/>
		<path class="st2" d="M197,69.5v6.4h-0.9v-0.4h-1v0.8h-0.9v-6.8H197L197,69.5z M196.1,72v-1.6h-1V72H196.1z M195.1,72.9v1.8h1v-1.8
			H195.1z M201.6,72.6c0.1,0,0.2,0,0.2,0.1s-0.1,0.1-0.2,0.1v0.6h1.1v0.9h-1.1v2c0,0.7-0.2,1.2-1.9,1.1c0-0.4-0.1-0.7-0.4-1.1
			c0.2,0,0.7,0.1,0.8,0.1c0.4,0,0.4-0.1,0.4-0.5v-1.7h-3.1v-0.9h3.1v-0.9h-3.2v-0.9h2.1v-0.9h-1.8v-0.9h1.8v-1.2l1.1,0.1
			c0,0,0.2,0,0.2,0.1s-0.1,0.1-0.2,0.2v0.8h2v0.9h-2v0.9h2.3v0.9H201L201.6,72.6L201.6,72.6z M198.3,74.4c0.4,0.3,0.9,0.9,1.2,1.4
			c-0.3,0.2-0.4,0.3-0.8,0.7c-0.3-0.5-0.7-1-1.1-1.4L198.3,74.4L198.3,74.4z"/>
		<path class="st2" d="M207.5,68.9V72h-2.6v5.4h-1v-8.6C203.8,68.9,207.5,68.9,207.5,68.9z M206.5,70.1v-0.5h-1.7v0.5H206.5z
			 M204.8,70.7v0.6h1.7v-0.6H204.8z M209.8,76.1h-2.9v0.4H206v-3.8h3.8L209.8,76.1L209.8,76.1z M208.9,74v-0.6h-2V74H208.9z
			 M206.8,74.7v0.6h2v-0.6H206.8z M211.9,68.9v7.3c0,0.9-0.3,1.1-0.6,1.2s-0.8,0.1-1.1,0.1c-0.1-0.5-0.2-0.8-0.4-1.1
			c0.2,0.1,0.4,0.1,0.7,0.1c0.5,0,0.5-0.1,0.5-0.6V72h-2.6v-3.1H211.9L211.9,68.9z M210.9,70.1v-0.6h-1.7v0.6H210.9z M209.2,70.7
			v0.6h1.7v-0.6H209.2z"/>
		<path class="st2" d="M220.4,70.2h-3.8l-0.4,2.1c0.6-0.5,1.3-0.6,1.8-0.6c1.9,0,2.8,1.4,2.8,2.6s-0.8,2.6-3.1,2.6
			c-0.4,0-1.4,0-2.2-0.6s-0.9-1.4-1-1.7h1.3c0.2,1.1,1.1,1.2,1.8,1.2c1.3,0,1.9-0.8,1.9-1.6c0-0.7-0.4-1.5-1.8-1.5
			c-1,0-1.4,0.4-1.6,0.6h-1.3l0.8-4.1h4.8V70.2L220.4,70.2z"/>
		<path class="st2" d="M227.5,70.2c0.6,1,0.7,2.2,0.7,2.8c0,0.5-0.1,1.8-0.7,2.8c-0.7,1-1.8,1.2-2.5,1.2c-1.3,0-2.1-0.6-2.5-1.2
			c-0.6-1-0.7-2.1-0.7-2.8c0-0.7,0.1-1.8,0.7-2.8C223,69.3,224,69,225,69S227,69.4,227.5,70.2z M223.1,73c0,0.8,0.1,3,1.9,3
			s1.9-2.2,1.9-3c0-0.9-0.2-3-1.9-3S223.1,72.1,223.1,73z"/>
		<path class="st2" d="M234.1,69.6l0.1,0.1c0,0.1-0.1,0.1-0.3,0.1c-0.8,1.3-1.4,2.2-3,3.4c-0.3-0.4-0.5-0.6-0.8-0.8
			c1.4-1,2.2-1.8,3-3.4L234.1,69.6L234.1,69.6z M232.4,73v-1h5.1c-0.9-0.9-1.2-1.7-1.4-2.2h-1.4v-0.9h2.2c0.2,1.4,1.3,2.7,2.6,3.4
			c-0.4,0.4-0.4,0.5-0.6,0.9c-0.5-0.3-0.8-0.6-1.3-1.1c-0.2,4.5-0.2,5.3-2.5,5.3c-0.1,0-0.2,0-0.2,0c0-0.5-0.2-0.9-0.3-1.1
			c0.1,0,0.4,0.1,0.8,0.1c0.9,0,0.9-0.3,1.1-1.4c0-0.3,0.1-1.5,0.1-1.9h-1.8c-0.1,0.9-0.2,3-3.3,4.4c-0.2-0.4-0.6-0.7-0.7-0.9
			c2.3-0.9,2.9-2.2,3-3.6L232.4,73L232.4,73z"/>
	</g>
	<g>
		<path class="st2" d="M189.3,80.8c-0.4,0.4-1.2,1.2-1.2,2.9s0.9,2.5,1.2,2.9l-0.4,0.4c-0.3-0.3-1.4-1.3-1.4-3.3s1.1-3,1.4-3.3
			L189.3,80.8L189.3,80.8z"/>
		<path class="st2" d="M193.4,83.9h2.7v0.7h-2.7v2.2h-0.8v-2.2h-2.8v-0.7h2.8v-2.4h-2.5v-0.7h5.7v0.7h-2.4V83.9L193.4,83.9z
			 M191.3,81.8c0.3,0.5,0.6,1.1,0.8,1.6c-0.2,0.1-0.3,0.1-0.7,0.3c-0.1-0.3-0.4-1.1-0.8-1.6L191.3,81.8L191.3,81.8z M195.4,82
			c0.1,0,0.1,0.1,0.1,0.1c0,0.1-0.1,0.1-0.2,0.1c-0.3,0.7-0.5,1.2-0.7,1.6c-0.2-0.1-0.2-0.1-0.7-0.3c0.2-0.4,0.6-1.2,0.7-1.7
			L195.4,82L195.4,82z"/>
		<path class="st2" d="M197.5,80.6l0.7,0.1c0.1,0,0.1,0,0.1,0.1s-0.1,0.1-0.2,0.1v1.2h0.8v0.6c0.5-0.8,0.7-1.5,0.8-2.2l0.7,0.1
			c0.1,0,0.1,0,0.1,0.1s-0.1,0.1-0.2,0.1c-0.1,0.3-0.1,0.5-0.2,0.7h2.6c0,1.1,0,3.8-0.4,4.6c-0.3,0.5-0.8,0.6-1.6,0.6
			c0-0.2-0.1-0.5-0.2-0.8c0.1,0,0.4,0.1,0.6,0.1c0.5,0,0.6-0.2,0.8-0.9c0.1-0.4,0.2-1.6,0.2-2.9H200c-0.3,0.7-0.6,1.2-0.8,1.3
			c-0.1-0.1-0.3-0.2-0.6-0.3c0.1-0.1,0.2-0.3,0.3-0.4h-0.7v2c0.5-0.2,0.7-0.3,0.8-0.4c0,0.1,0,0.2,0,0.3c0,0.1,0,0.2,0,0.3
			c-0.8,0.4-1.6,0.7-1.9,0.8c0,0.1,0,0.2-0.1,0.2s-0.1-0.1-0.1-0.1l-0.1-0.7c0.2,0,0.4-0.1,0.9-0.2v-2.3h-0.8v-0.6h0.8L197.5,80.6
			L197.5,80.6z M199.2,85.1c0.8-0.2,1.9-0.6,2.5-0.9c0,0.1,0,0.5,0,0.6c-0.7,0.3-1.6,0.7-2,0.8c0,0.1,0,0.2-0.1,0.2
			s-0.1-0.1-0.1-0.1L199.2,85.1L199.2,85.1z M201.5,83.7h-1.9v-0.6h1.9V83.7z"/>
		<path class="st2" d="M206.5,82.6h-0.9v-0.9h0.9V82.6z M206.5,85.6h-0.9v-0.9h0.9V85.6z"/>
		<path class="st2" d="M210,84.5c0.1,0,0.1,0,0.1,0.1s-0.1,0.1-0.2,0.1c-0.1,0.4-0.1,1-0.4,1.6c-0.1,0-0.3-0.1-0.6-0.2
			c0.2-0.5,0.4-1.3,0.4-1.8L210,84.5L210,84.5z M211.8,81.4l0.1,0.1c0,0.1-0.1,0.1-0.2,0.1c-0.1,0.2-0.6,0.9-0.7,1
			c-0.3,0.4-0.4,0.5-0.6,0.7c0.3,0,0.4,0,0.9-0.1c-0.1-0.3-0.1-0.4-0.2-0.5l0.6-0.2v0.1c0.7-0.9,1-1.6,1.1-2.2l0.6,0.2
			c0.1,0,0.1,0.1,0.1,0.1s0,0.1-0.1,0.1h-0.1c-0.1,0.2-0.2,0.5-0.3,0.7h2c0,1.1,0,3.5-0.4,4.5c-0.2,0.6-0.6,0.7-1.5,0.7
			c-0.1-0.3-0.2-0.6-0.3-0.8c0.1,0,0.4,0.1,0.6,0.1c0.5,0,0.6-0.2,0.8-1.3c0.1-0.8,0.1-1.8,0.1-2.5h-1.6c-0.2,0.4-0.3,0.6-0.5,0.8
			c-0.2-0.2-0.5-0.3-0.6-0.3c0.2,0.6,0.3,1.1,0.4,1.3c-0.3,0.1-0.4,0.1-0.6,0.2c0-0.1,0-0.2-0.1-0.4l-0.5,0.1v2.9h-0.7V84
			c-0.1,0-0.7,0.1-0.9,0.1c0,0.1-0.1,0.2-0.1,0.2c-0.1,0-0.1-0.1-0.1-0.2l-0.1-0.6c0.1,0,0.5,0,0.6,0c0.1-0.1,0.2-0.2,0.5-0.6
			c-0.3-0.4-0.5-0.5-1-0.9l0.4-0.6c0.1,0.1,0.2,0.2,0.4,0.3c0.1-0.1,0.4-0.7,0.7-1.2l0.6,0.3c0.1,0,0.1,0.1,0.1,0.1
			c0,0.1-0.1,0.1-0.2,0.1c-0.3,0.5-0.6,0.9-0.7,1.1c0.2,0.2,0.2,0.2,0.3,0.3c0.3-0.4,0.6-0.8,0.8-1.2L211.8,81.4L211.8,81.4z
			 M211.7,84.4c0.1,0.5,0.2,0.8,0.4,1.5c-0.2,0-0.4,0.1-0.6,0.2c-0.1-0.3-0.3-1-0.4-1.5L211.7,84.4z M213.1,83.1
			c0.5,0.8,0.6,1.3,0.7,1.5c-0.3,0.1-0.4,0.2-0.6,0.3c-0.2-0.5-0.5-1.2-0.7-1.6L213.1,83.1z"/>
		<path class="st2" d="M221.5,86.3H217c0.1-1,0.6-1.5,2-2.4c1.3-0.8,1.6-1,1.6-1.6s-0.6-0.8-1.2-0.8c-1.2,0-1.4,0.8-1.4,1.3h-0.9
			c0-0.3,0.1-0.8,0.4-1.2c0.5-0.7,1.4-0.8,1.9-0.8c1.3,0,2.1,0.7,2.1,1.6c0,0.7-0.3,1.2-1.4,1.8c-1.3,0.8-1.5,0.9-1.8,1.4h3.3
			L221.5,86.3L221.5,86.3z"/>
		<path class="st2" d="M225.4,81.1v4.6h-0.6v-0.3H224V86h-0.6v-4.8L225.4,81.1L225.4,81.1z M224.7,82.9v-1.2H224v1.2H224.7z
			 M224,83.5v1.2h0.7v-1.2H224z M228.6,83.3c0,0,0.1,0,0.1,0.1s-0.1,0.1-0.1,0.1V84h0.8v0.6h-0.8V86c0,0.5-0.1,0.8-1.4,0.8
			c0-0.3-0.1-0.5-0.2-0.8c0.1,0,0.5,0.1,0.6,0.1c0.2,0,0.3-0.1,0.3-0.3v-1.2h-2.2V84h2.2v-0.7h-2.3v-0.6h1.5V82h-1.3v-0.6h1.3v-0.8
			h0.8c0,0,0.1,0,0.1,0.1s-0.1,0.1-0.2,0.1v0.6h1.4V82h-1.4v0.7h1.6v0.6h-1.2L228.6,83.3L228.6,83.3z M226.3,84.6
			c0.2,0.2,0.6,0.7,0.9,1c-0.2,0.2-0.3,0.2-0.6,0.5c-0.2-0.4-0.5-0.7-0.8-1L226.3,84.6L226.3,84.6z"/>
		<path class="st2" d="M232.8,80.7v2.2h-1.9v3.9h-0.7v-6.1H232.8z M232.2,81.5v-0.4H231v0.4H232.2z M231,82v0.4h1.2V82H231z
			 M234.5,85.8h-2.1v0.3h-0.6v-2.7h2.7L234.5,85.8L234.5,85.8z M233.9,84.4V84h-1.5v0.4H233.9z M232.4,84.8v0.4h1.5v-0.4H232.4z
			 M236,80.7v5.2c0,0.7-0.2,0.8-0.4,0.9s-0.5,0.1-0.8,0.1c-0.1-0.3-0.2-0.6-0.3-0.8c0.2,0,0.3,0.1,0.5,0.1c0.3,0,0.4-0.1,0.4-0.4V83
			h-1.9v-2.2C233.4,80.7,236,80.7,236,80.7z M235.3,81.5v-0.4h-1.2v0.4H235.3z M234.1,82v0.4h1.2V82H234.1z"/>
		<path class="st2" d="M236.9,86.5c0.4-0.4,1.2-1.2,1.2-2.9s-0.9-2.5-1.2-2.9l0.4-0.4c0.3,0.3,1.4,1.3,1.4,3.3s-1.1,3-1.4,3.3
			L236.9,86.5L236.9,86.5z"/>
	</g>
	<g>
		<path class="st2" d="M22.4,16.8c0.1,0.1,0.2,0.3,0.2,0.5c0,0.1-0.1,0.3-0.2,0.4c-0.4,0.3-0.8,0.6-1.2,0.9c0.6,0.4,1.3,0.8,2.2,1
			c0.3,0.1,0.5,0.3,0.5,0.6c0,0.3-0.2,0.6-0.6,0.6c-0.1,0-0.1,0-0.2,0c-2.1-0.5-3.9-2-4.7-3.9h-1.2v2.4c0.5-0.1,1-0.2,1.4-0.4
			c0.1,0,0.1,0,0.2,0c0.3,0,0.5,0.3,0.5,0.6c0,0.2-0.1,0.4-0.4,0.5c-1.2,0.4-2.7,0.7-3.8,0.9c-0.4,0-0.6-0.3-0.6-0.6
			c0-0.2,0.1-0.5,0.5-0.5s0.7-0.1,1.1-0.2V17h-1.5c-0.3,0-0.5-0.3-0.5-0.5s0.1-0.5,0.5-0.5h1.5v-3.4c0-0.9,0.3-1.2,1.4-1.2h4.7
			c0.3,0,0.5,0.2,0.5,0.5s-0.1,0.5-0.5,0.5h-4.6c-0.3,0-0.4,0.1-0.4,0.3V13h4.4c0.3,0,0.4,0.2,0.4,0.4s-0.1,0.5-0.4,0.5h-4.4v0.6
			h4.5c0.3,0,0.4,0.2,0.4,0.4s-0.1,0.5-0.4,0.5h-4.5V16h6.5c0.3,0,0.5,0.2,0.5,0.5S24.1,17,23.7,17L22.4,16.8L22.4,16.8z M19.6,16.8
			c0.2,0.4,0.5,0.7,0.8,1.1c0.4-0.3,0.8-0.6,1.2-1l0.1-0.1H19.6z"/>
		<path class="st2" d="M26.7,11.3c0-0.3,0.2-0.4,0.5-0.4s0.5,0.1,0.5,0.4v6.8h0.2c0.1,0,0.2-0.1,0.2-0.3v-4.7c0-0.3,0.2-0.4,0.5-0.4
			s0.5,0.1,0.5,0.4V18c0,0.8-0.3,1.1-1.1,1.1h-1.6c-0.7,0-1.1-0.3-1.1-1.1v-4.9c0-0.3,0.3-0.4,0.5-0.4s0.5,0.1,0.5,0.4v4.7
			c0,0.2,0,0.3,0.2,0.3h0.2L26.7,11.3L26.7,11.3z M34.4,19.5c0,1-0.4,1.4-1.2,1.4c-0.3,0-0.6,0-0.8-0.1c-0.3-0.1-0.5-0.3-0.5-0.6
			c0-0.3,0.2-0.6,0.7-0.5c0.2,0,0.3,0,0.4,0c0.2,0,0.3-0.1,0.3-0.3v-3.2h-3.5c-0.3,0-0.4-0.3-0.4-0.5s0.2-0.5,0.4-0.5H35
			c0.3,0,0.5,0.2,0.5,0.5s-0.2,0.5-0.5,0.5h-0.5L34.4,19.5L34.4,19.5z M34.3,11.9c0.3,0,0.5,0.2,0.5,0.5s-0.2,0.5-0.5,0.5h-1.8
			c0,0.1,0,0.1-0.1,0.1c0.6,0.2,1.2,0.6,1.7,1c0.2,0.1,0.2,0.3,0.2,0.5c0,0.3-0.3,0.5-0.6,0.5c-0.1,0-0.3-0.1-0.4-0.2
			c-0.4-0.4-0.9-0.7-1.4-1c-0.3,0.5-0.8,0.8-1.3,1.1C30.5,15,30.4,15,30.3,15c-0.3,0-0.5-0.2-0.5-0.5c0-0.2,0.1-0.4,0.4-0.5
			c0.6-0.3,1-0.6,1.2-1.2h-1.2c-0.3,0-0.4-0.2-0.4-0.5s0.2-0.5,0.4-0.5h1.4c0-0.2,0-0.4,0-0.7s0.3-0.5,0.6-0.5
			c0.3,0,0.6,0.1,0.5,0.5c0,0.2,0,0.5,0,0.7C32.7,11.9,34.3,11.9,34.3,11.9z M30.8,19.4c-0.8,0-1-0.3-1-0.9v-0.8
			c0-0.6,0.3-0.9,1-0.9h0.9c0.8,0,1,0.3,1,0.9v0.8c0,0.7-0.4,0.9-1,0.9H30.8z M31.5,18.5c0.2,0,0.2,0,0.2-0.2v-0.5
			c0-0.2,0-0.2-0.2-0.2H31c-0.2,0-0.3,0-0.3,0.2v0.5c0,0.2,0.1,0.2,0.3,0.2H31.5z"/>
		<path class="st2" d="M40.5,16.2c-0.9-0.5-1.3-0.6-1.8-0.6c-0.7,0-1.1,0.2-1.8,0.9c-0.1,0.1-0.2,0.2-0.4,0.2
			c-0.3,0-0.5-0.2-0.5-0.5c0-0.1,0-0.2,0.1-0.3c0.7-0.9,1.6-1.4,2.6-1.4c0.7,0,1.2,0.1,2.3,0.7l0.5,0.2c0.8,0.4,1.3,0.6,1.8,0.6
			c0.7,0,1.3-0.3,1.8-0.9c0.1-0.1,0.2-0.2,0.3-0.2c0.2,0,0.5,0.2,0.5,0.5c0,0.1,0,0.2-0.1,0.3c-0.7,0.9-1.6,1.4-2.6,1.4
			c-0.7,0-1.2-0.1-2.3-0.7L40.5,16.2L40.5,16.2z"/>
		<path class="st2" d="M49.8,13.7c0.3,0,0.5,0.3,0.5,0.5s-0.2,0.5-0.5,0.5h-0.6v5.7c0,0.3-0.3,0.5-0.6,0.5S48,20.8,48,20.5v-5.7
			h-0.8c-0.3,0-0.4-0.3-0.4-0.5s0.2-0.5,0.4-0.5H48v-2.5c0-0.3,0.3-0.5,0.6-0.5s0.6,0.1,0.6,0.5v2.5C49.2,13.7,49.8,13.7,49.8,13.7z
			 M54.1,17.3c0-0.3,0.3-0.5,0.6-0.5s0.6,0.1,0.6,0.5v0.2h1.4c0.3,0,0.5,0.2,0.5,0.5s-0.2,0.5-0.5,0.5h-1.4v1.3
			c0,0.9-0.4,1.2-1.2,1.2c-0.2,0-0.4,0-0.6,0c-0.4,0-0.5-0.3-0.5-0.6c0-0.3,0.2-0.6,0.6-0.5c0.2,0,0.3,0,0.4,0c0.1,0,0.2,0,0.2-0.2
			v-1.1h-3.9c-0.3,0-0.4-0.2-0.4-0.5s0.2-0.5,0.4-0.5h3.9L54.1,17.3L54.1,17.3z M55.1,13.2c0.9,0,1.2,0.4,1.2,1v1.6
			c0,0.7-0.3,1-1.2,1h-3.3c-0.9,0-1.2-0.4-1.2-1v-1.6c0-0.7,0.3-1,1.2-1h1v-0.4h-2.4c-0.3,0-0.4-0.2-0.4-0.5c0-0.2,0.2-0.5,0.4-0.5
			h2.4v-0.7c0-0.3,0.3-0.4,0.6-0.4s0.6,0.1,0.6,0.4v0.7h1.2c0,0,0,0-0.1,0c-0.2-0.1-0.4-0.2-0.6-0.3c-0.2-0.1-0.2-0.2-0.2-0.4
			s0.2-0.5,0.5-0.5c0.1,0,0.1,0,0.2,0c0.2,0.1,0.5,0.2,0.7,0.4c0.2,0.1,0.2,0.2,0.2,0.4s-0.1,0.3-0.3,0.4h0.9c0.3,0,0.5,0.2,0.5,0.5
			c0,0.2-0.2,0.5-0.5,0.5H54v0.4L55.1,13.2L55.1,13.2z M52.6,19.1c0.2,0.1,0.2,0.3,0.2,0.4c0,0.3-0.3,0.6-0.6,0.6
			c-0.1,0-0.2,0-0.4-0.1c-0.2-0.2-0.4-0.4-0.7-0.6C51,19.3,51,19.1,51,19c0-0.3,0.3-0.5,0.6-0.5c0.1,0,0.2,0,0.3,0.1
			C52.1,18.7,52.4,18.9,52.6,19.1L52.6,19.1z M52.9,14.6v-0.5H52c-0.2,0-0.3,0.1-0.3,0.2v0.3H52.9z M52.9,16v-0.6h-1.1v0.3
			c0,0.2,0.1,0.2,0.3,0.2L52.9,16L52.9,16z M54,14.6h1.2v-0.3c0-0.2,0-0.2-0.3-0.2H54V14.6z M54,15.4V16h0.9c0.2,0,0.3-0.1,0.3-0.2
			v-0.3L54,15.4L54,15.4z"/>
		<path class="st2" d="M62.2,12.8c-0.8,0.8-1.8,1.4-2.8,1.9c-0.1,0-0.2,0.1-0.3,0.1c-0.3,0-0.5-0.3-0.5-0.6c0-0.2,0.1-0.4,0.3-0.5
			c1.3-0.6,2.6-1.7,3.4-2.9c0.1-0.2,0.3-0.3,0.5-0.3c0.3,0,0.6,0.2,0.6,0.5c0,0.1,0,0.2-0.1,0.3s-0.2,0.3-0.3,0.4h1.3
			c0.8,0,1.2,0.4,1.2,0.9c0,0.2-0.1,0.5-0.4,0.8c-1.6,1.9-4.1,3.1-6.5,3.6c-0.1,0-0.1,0-0.2,0c-0.3,0-0.5-0.3-0.5-0.5
			s0.1-0.4,0.4-0.5c1.1-0.3,2.2-0.7,3.2-1.2c-0.2-0.2-0.3-0.3-0.5-0.4c-0.1-0.1-0.2-0.2-0.2-0.3c0-0.3,0.3-0.5,0.6-0.5
			c0.1,0,0.2,0,0.4,0.1c0.2,0.2,0.4,0.4,0.6,0.6c0.6-0.4,1.1-0.8,1.5-1.3c0.1-0.1,0.1-0.1,0.1-0.2c0-0.1-0.1-0.1-0.2-0.1L62.2,12.8
			L62.2,12.8z M64,16.8c-1.2,0.8-2.4,1.4-3.7,1.8c-0.1,0-0.1,0-0.2,0c-0.3,0-0.6-0.3-0.6-0.6c0-0.2,0.1-0.4,0.4-0.5
			c2-0.6,3.9-1.8,5-3.1c0.1-0.1,0.3-0.2,0.5-0.2c0.3,0,0.6,0.3,0.6,0.6c0,0.1-0.1,0.3-0.2,0.4c-0.2,0.2-0.4,0.4-0.6,0.6h0.9
			c0.8,0,1.3,0.3,1.3,0.9c0,0.3-0.2,0.6-0.5,1c-1.8,1.9-4.6,3-7.5,3.4c-0.4,0-0.7-0.3-0.7-0.6c0-0.2,0.1-0.5,0.4-0.5
			c1.4-0.2,2.8-0.6,4-1.1c-0.1-0.1-0.3-0.3-0.4-0.4c-0.1-0.1-0.2-0.2-0.2-0.3c0-0.3,0.3-0.5,0.6-0.5c0.1,0,0.2,0,0.4,0.1
			c0.2,0.2,0.5,0.4,0.7,0.6c0.6-0.4,1.2-0.8,1.7-1.2C66,17.1,66,17.1,66,17s-0.1-0.1-0.2-0.1L64,16.8L64,16.8z"/>
		<path class="st2" d="M70.4,15v5.5c0,0.3-0.3,0.5-0.6,0.5s-0.6-0.1-0.6-0.5v-8.1c0-0.8,0.3-1.2,1.4-1.2h1.2c1.2,0,1.4,0.4,1.4,1.2
			v1.5c0,0.3,0,0.7-0.3,0.9c-0.3,0.2-0.7,0.2-1,0.2H70.4L70.4,15z M72.1,12.3c0-0.2-0.1-0.3-0.3-0.3h-1c-0.3,0-0.3,0.1-0.3,0.3v0.3
			h1.7C72.1,12.6,72.1,12.3,72.1,12.3z M71.8,14.1c0.3,0,0.3-0.1,0.3-0.3v-0.3h-1.7v0.6C70.4,14.1,71.8,14.1,71.8,14.1z M72.9,19.6
			c-0.9,0-1.2-0.4-1.2-1.1v-1.7c0-0.8,0.3-1.1,1.2-1.1h1.7c0.9,0,1.2,0.4,1.2,1.1v1.7c0,0.9-0.4,1.1-1.2,1.1H72.9z M74.7,16.8
			c0-0.2-0.1-0.2-0.3-0.2H73c-0.2,0-0.3,0-0.3,0.2v0.4h2L74.7,16.8L74.7,16.8z M74.4,18.6c0.2,0,0.3,0,0.3-0.2V18h-2v0.4
			c0,0.2,0.1,0.2,0.3,0.2H74.4L74.4,18.6z M75.7,14.9c-1.2,0-1.4-0.4-1.4-1.1v-1.5c0-0.8,0.3-1.2,1.4-1.2H77c1.2,0,1.4,0.4,1.4,1.2
			v7c0,1-0.5,1.4-1.4,1.4c-0.3,0-0.6,0-0.8-0.1c-0.3,0-0.5-0.3-0.5-0.6c0-0.3,0.2-0.6,0.7-0.6c0.2,0,0.3,0,0.5,0s0.3-0.1,0.3-0.4
			v-4.3L75.7,14.9L75.7,14.9z M77.2,12.3c0-0.2-0.1-0.3-0.4-0.3h-1.1c-0.3,0-0.3,0.1-0.3,0.3v0.3h1.8V12.3z M77.2,13.5h-1.8v0.3
			c0,0.2,0.1,0.3,0.3,0.3h1.4L77.2,13.5L77.2,13.5z"/>
		<path class="st2" d="M80.1,16.6c0-2.5,2.1-4.5,5.1-4.5c2.7,0,4.2,1.7,4.2,3.8c0,2-1.2,3.4-3.1,4c-0.1,0-0.2,0-0.2,0
			c-0.4,0-0.6-0.3-0.6-0.6c0-0.2,0.1-0.5,0.5-0.6c1.6-0.6,2.2-1.5,2.2-2.8c0-1.4-1-2.6-2.6-2.7c-0.1,1.8-0.6,3.5-1.2,4.6
			s-1.2,1.4-2.1,1.4C81,19.2,80.1,18.3,80.1,16.6L80.1,16.6z M81.4,16.6c0,1,0.4,1.4,0.8,1.4c0.3,0,0.6-0.2,0.9-0.7
			c0.6-1,1-2.4,1.1-4C82.6,13.6,81.4,15,81.4,16.6L81.4,16.6z"/>
		<path class="st2" d="M92.5,16.5c-0.1,1.6-0.4,2.8-0.9,3.8c-0.1,0.3-0.4,0.4-0.6,0.4c-0.3,0-0.6-0.2-0.6-0.5c0-0.1,0-0.2,0.1-0.3
			c0.6-1,0.8-2.2,0.8-4.1v-1.4c0-0.7,0.4-1,1.2-1h1.6c0.8,0,1.2,0.3,1.2,1v1.2c0,0.8-0.5,1-1.2,1L92.5,16.5L92.5,16.5z M91.2,12.5
			c-0.3,0-0.5-0.3-0.5-0.6s0.2-0.6,0.5-0.6h4.1c0.3,0,0.5,0.3,0.5,0.6s-0.2,0.6-0.5,0.6H91.2z M93.9,15.6c0.2,0,0.3-0.1,0.3-0.2
			v-0.8c0-0.1-0.1-0.2-0.3-0.2h-1.1c-0.2,0-0.3,0.1-0.3,0.3v0.9H93.9L93.9,15.6z M97.3,15.3c-0.1,2.3-0.8,3.9-2.1,5.2
			c-0.2,0.2-0.3,0.2-0.5,0.2c-0.3,0-0.6-0.2-0.6-0.6c0-0.1,0.1-0.3,0.2-0.5c1.3-1.3,1.8-2.9,1.8-5.4v-2.1c0-0.3,0.3-0.5,0.6-0.5
			c0.1,0,0.2,0,0.3,0.1c0.8-0.2,1.6-0.5,2.2-0.8c0.1,0,0.2-0.1,0.3-0.1c0.3,0,0.6,0.3,0.6,0.6c0,0.2-0.1,0.4-0.3,0.5
			c-0.7,0.3-1.6,0.6-2.5,0.8v1.4h3.1c0.3,0,0.4,0.2,0.4,0.5s-0.1,0.5-0.4,0.5h-0.9v5c0,0.3-0.3,0.5-0.6,0.5s-0.6-0.2-0.6-0.5v-5
			L97.3,15.3L97.3,15.3z"/>
		<path class="st2" d="M104,15.7c-1.1,0-1.4-0.3-1.4-1V14c0-0.8,0.3-1,1.4-1h0.9v-0.7h-2.6c-0.3,0-0.4-0.2-0.4-0.5s0.2-0.5,0.4-0.5
			h8.7c0.3,0,0.4,0.2,0.4,0.5s-0.2,0.5-0.4,0.5h-2.8V13h1c1.1,0,1.4,0.3,1.4,1v0.7c0,0.3,0,0.6-0.3,0.8s-0.7,0.2-1.1,0.2h-3
			c0.1,0.1,0.2,0.2,0.2,0.4c0,0.1,0,0.1-0.1,0.2s-0.1,0.2-0.2,0.3h4.9c0.3,0,0.4,0.2,0.4,0.5s-0.1,0.5-0.4,0.5h-1.9
			c-0.3,0.5-0.7,1-1.2,1.5c0.7,0.2,1.4,0.5,2.1,0.8c0.2,0.1,0.3,0.3,0.3,0.5c0,0.3-0.2,0.5-0.5,0.5c-0.1,0-0.2,0-0.3-0.1
			c-0.8-0.4-1.7-0.8-2.6-1.1c-1.2,0.7-2.6,1.1-4.4,1.2c-0.4,0-0.6-0.2-0.6-0.5c0-0.2,0.2-0.5,0.5-0.5c1.3-0.1,2.3-0.3,3.2-0.7
			c-0.4-0.1-0.8-0.2-1.2-0.3c0,0,0,0-0.1,0.1c-0.2,0.1-0.3,0.2-0.5,0.2c-0.3,0-0.6-0.2-0.6-0.5c0-0.1,0-0.2,0.1-0.3
			c0.3-0.3,0.5-0.6,0.7-0.9h-2.3c-0.3,0-0.4-0.2-0.4-0.5s0.1-0.5,0.4-0.5h3c0.2-0.2,0.3-0.5,0.4-0.7c0-0.1,0.1-0.1,0.2-0.2L104,15.7
			L104,15.7z M104.9,14.7v-0.9h-0.8c-0.3,0-0.3,0.1-0.3,0.2v0.4c0,0.2,0.1,0.2,0.3,0.2h0.8V14.7z M105.7,17.6
			c-0.2,0.2-0.3,0.4-0.5,0.6c0.6,0.1,1.1,0.3,1.7,0.5c0.4-0.3,0.8-0.7,1.1-1.1H105.7z M107.2,12.9v-0.7H106v0.7H107.2z M106,14.7
			h1.2v-0.9H106V14.7z M108.3,14.7h0.9c0.3,0,0.3-0.1,0.3-0.2v-0.4c0-0.2-0.1-0.2-0.3-0.2h-0.9V14.7z"/>
		<path class="st2" d="M114,19.1c-0.8,0-1.1-0.3-1.1-1.1v-5.4c0-0.8,0.3-1.1,1.1-1.1h1c0.8,0,1.1,0.3,1.1,1.1V18
			c0,0.8-0.3,1.1-1.1,1.1H114z M115,12.9c0-0.2-0.1-0.3-0.3-0.3h-0.5c-0.2,0-0.3,0.1-0.3,0.3v1.8h1v-1.8H115z M114.7,18.1
			c0.2,0,0.3-0.1,0.3-0.3v-2.1h-1v2.1c0,0.2,0,0.3,0.3,0.3H114.7z M118.8,13.2h-1.4c-0.3,0-0.5-0.3-0.5-0.5s0.2-0.5,0.5-0.5h1.4
			v-0.9c0-0.3,0.3-0.5,0.6-0.5s0.6,0.2,0.6,0.5v0.9h1.5c0.3,0,0.5,0.3,0.5,0.5s-0.1,0.5-0.5,0.5H120v0.9h2.3c0.3,0,0.5,0.3,0.5,0.5
			s-0.1,0.5-0.5,0.5h-5.4c-0.3,0-0.5-0.3-0.5-0.5s0.2-0.5,0.5-0.5h1.9V13.2L118.8,13.2z M117,17.4c-0.3,0-0.5-0.3-0.5-0.5
			s0.2-0.5,0.5-0.5h2.9v-0.5c0-0.3,0.3-0.5,0.6-0.5s0.6,0.2,0.6,0.5v0.5h1c0.3,0,0.5,0.3,0.5,0.5s-0.1,0.5-0.5,0.5h-1v2.1
			c0,0.9-0.4,1.3-1.3,1.3c-0.3,0-0.6,0-0.8-0.1c-0.3-0.1-0.4-0.3-0.4-0.6c0-0.3,0.2-0.6,0.6-0.6c0.2,0,0.3,0,0.5,0s0.3-0.1,0.3-0.3
			v-2L117,17.4L117,17.4z M118.8,18.6c0.1,0.1,0.1,0.2,0.1,0.3c0,0.3-0.3,0.6-0.6,0.6c-0.2,0-0.3-0.1-0.4-0.2
			c-0.2-0.2-0.3-0.5-0.6-0.7c-0.1-0.1-0.1-0.2-0.1-0.4c0-0.3,0.3-0.5,0.6-0.5c0.1,0,0.3,0,0.4,0.2C118.4,18.1,118.6,18.3,118.8,18.6
			L118.8,18.6z"/>
		<path class="st2" d="M125.1,15v5.5c0,0.3-0.3,0.5-0.6,0.5s-0.6-0.1-0.6-0.5v-8.1c0-0.8,0.3-1.2,1.4-1.2h1.2c1.1,0,1.4,0.4,1.4,1.2
			v1.5c0,0.3,0,0.7-0.3,0.9s-0.7,0.2-1.1,0.2L125.1,15L125.1,15z M126.8,12.3c0-0.2-0.1-0.3-0.4-0.3h-1c-0.3,0-0.4,0.1-0.4,0.3v0.3
			h1.7L126.8,12.3L126.8,12.3z M126.5,14.1c0.3,0,0.4-0.1,0.4-0.3v-0.3h-1.7v0.6H126.5z M127.6,19.6c-0.9,0-1.2-0.4-1.2-1.1v-1.7
			c0-0.8,0.4-1.1,1.2-1.1h1.7c0.9,0,1.2,0.4,1.2,1.1v1.7c0,0.9-0.4,1.1-1.2,1.1H127.6z M129.5,16.8c0-0.2-0.1-0.2-0.3-0.2h-1.4
			c-0.2,0-0.3,0-0.3,0.2v0.4h2V16.8L129.5,16.8z M129.2,18.6c0.2,0,0.3,0,0.3-0.2V18h-2v0.4c0,0.2,0.1,0.2,0.3,0.2H129.2L129.2,18.6
			z M130.4,14.9c-1.1,0-1.4-0.4-1.4-1.1v-1.5c0-0.8,0.3-1.2,1.4-1.2h1.3c1.1,0,1.4,0.4,1.4,1.2v7c0,1-0.5,1.4-1.4,1.4
			c-0.3,0-0.6,0-0.8-0.1c-0.3,0-0.5-0.3-0.5-0.6c0-0.3,0.2-0.6,0.7-0.6c0.2,0,0.3,0,0.5,0s0.4-0.1,0.4-0.4v-4.3L130.4,14.9
			L130.4,14.9z M132,12.3c0-0.2-0.1-0.3-0.4-0.3h-1.1c-0.3,0-0.4,0.1-0.4,0.3v0.3h1.8L132,12.3L132,12.3z M132,13.5h-1.8v0.3
			c0,0.2,0.1,0.3,0.4,0.3h1.4L132,13.5L132,13.5z"/>
		<path class="st2" d="M138.3,10.5c0.1-0.1,0.2-0.1,0.3-0.1c0.2,0,0.4,0.2,0.4,0.4c0,0.1-0.1,0.2-0.2,0.3c-1.6,1.4-2.2,2.9-2.2,4.7
			s0.7,3.3,2.2,4.7c0.1,0.1,0.2,0.2,0.2,0.3c0,0.2-0.2,0.4-0.4,0.4c-0.1,0-0.2,0-0.3-0.1c-1.8-1.5-2.7-3.2-2.7-5.3
			S136.4,12,138.3,10.5z"/>
		<path class="st2" d="M144.8,20.5c0,0.3-0.3,0.5-0.6,0.5s-0.6-0.1-0.6-0.5v-0.9c-1.1,0.3-2.2,0.5-3.3,0.6c-0.3,0-0.5-0.2-0.5-0.5
			c0-0.2,0.1-0.5,0.4-0.5c0.3,0,0.6-0.1,0.9-0.1v-3.5h-0.8c-0.2,0-0.4-0.2-0.4-0.5s0.1-0.5,0.4-0.5h9.3c0.2,0,0.4,0.2,0.4,0.5
			s-0.1,0.5-0.4,0.5h-4.8L144.8,20.5L144.8,20.5z M142.9,14.2c-0.9,0-1.2-0.3-1.2-1v-1.3c0-0.7,0.4-1,1.2-1h4.2c0.9,0,1.2,0.3,1.2,1
			v1.3c0,0.8-0.5,0.9-1.2,1H142.9z M142.3,15.6v0.5h1.4v-0.5H142.3z M142.3,16.9v0.6h1.4v-0.6H142.3z M142.3,18.9
			c0.5-0.1,0.9-0.2,1.4-0.3v-0.4h-1.4V18.9z M147.1,12c0-0.2-0.1-0.2-0.4-0.2h-3.6c-0.3,0-0.4,0.1-0.4,0.2v0.2h4.3L147.1,12
			L147.1,12z M146.8,13.4c0.3,0,0.4-0.1,0.4-0.2V13h-4.3v0.2c0,0.2,0.1,0.2,0.4,0.2H146.8L146.8,13.4z M148.2,16.1
			c0.7,0,1.1,0.3,1.1,0.8c0,0.2-0.1,0.4-0.2,0.6c-0.2,0.4-0.5,0.9-0.9,1.3c0.4,0.3,0.8,0.6,1.3,0.8c0.3,0.1,0.4,0.3,0.4,0.5
			c0,0.3-0.2,0.5-0.5,0.5c-0.1,0-0.2,0-0.3-0.1c-0.6-0.3-1.1-0.6-1.6-1.1c-0.5,0.4-1.1,0.8-1.8,1.1c-0.1,0-0.2,0-0.2,0
			c-0.3,0-0.5-0.2-0.5-0.5c0-0.2,0.1-0.4,0.4-0.5c0.6-0.2,1-0.6,1.4-0.9c-0.4-0.5-0.8-1.2-1.1-1.8h-0.2c-0.2,0-0.4-0.2-0.4-0.4
			s0.1-0.4,0.4-0.4L148.2,16.1L148.2,16.1z M146.8,17c0.2,0.4,0.4,0.8,0.7,1.1c0.2-0.3,0.4-0.6,0.6-0.8c0-0.1,0.1-0.1,0.1-0.1
			c0-0.1-0.1-0.1-0.2-0.1h-1.2V17z"/>
		<path class="st2" d="M153.5,18.5c0.7,0.7,1.7,0.9,4.1,0.9c1.1,0,2,0,2.9-0.1c0.4,0,0.6,0.3,0.6,0.6c0,0.3-0.2,0.6-0.5,0.6
			c-0.9,0-1.8,0.1-2.9,0.1c-2.6,0-3.8-0.3-4.6-1.2c-0.4,0.4-0.8,0.8-1.3,1.2c-0.1,0.1-0.2,0.1-0.4,0.1c-0.3,0-0.6-0.3-0.6-0.6
			c0-0.2,0.1-0.4,0.3-0.5c0.4-0.3,0.9-0.7,1.3-1.1v-1.8c0-0.2-0.1-0.3-0.3-0.3h-0.6c-0.3,0-0.5-0.3-0.5-0.5c0-0.3,0.2-0.5,0.5-0.5
			h0.9c0.9,0,1.2,0.4,1.2,1.2L153.5,18.5L153.5,18.5z M153.4,12.3c0.1,0.1,0.2,0.3,0.2,0.4c0,0.3-0.3,0.6-0.6,0.6
			c-0.2,0-0.4-0.1-0.5-0.2c-0.3-0.3-0.6-0.6-0.9-0.8c-0.1-0.1-0.2-0.3-0.2-0.4c0-0.3,0.3-0.6,0.6-0.6c0.1,0,0.3,0,0.4,0.1
			C152.8,11.7,153.1,12,153.4,12.3L153.4,12.3z M155.7,16.1c-0.9,0-1.2-0.3-1.2-1v-0.8c0-0.7,0.3-1,1.2-1h1.1v-0.6h-2.3
			c-0.2,0-0.4-0.2-0.4-0.5s0.1-0.5,0.4-0.5h2.3V11c0-0.3,0.3-0.4,0.6-0.4s0.6,0.1,0.6,0.4v0.7h2.6c0.3,0,0.4,0.2,0.4,0.5
			s-0.1,0.5-0.4,0.5H158v0.6h1.2c0.9,0,1.2,0.3,1.2,1v0.8c0,0.7-0.3,1-1.2,1H158v0.3c0.8,0.3,1.6,0.7,2.2,1.2
			c0.2,0.1,0.3,0.3,0.3,0.5c0,0.3-0.2,0.5-0.5,0.5c-0.1,0-0.2,0-0.4-0.1c-0.5-0.4-1-0.7-1.6-1v1.2c0,0.3-0.3,0.4-0.6,0.4
			s-0.6-0.1-0.6-0.4v-0.6V17c-0.5,0.5-1.1,1.1-1.8,1.5c-0.1,0.1-0.2,0.1-0.3,0.1c-0.3,0-0.5-0.2-0.5-0.5c0-0.1,0.1-0.3,0.3-0.4
			c0.7-0.4,1.3-1,1.9-1.6H155.7L155.7,16.1z M156.7,15.3v-1h-0.9c-0.2,0-0.3,0.1-0.3,0.3V15c0,0.2,0.1,0.2,0.3,0.3H156.7z
			 M158.8,15.3c0.2,0,0.3-0.1,0.3-0.3v-0.4c0-0.2-0.1-0.3-0.3-0.3h-1v1H158.8z"/>
		<path class="st2" d="M162.6,21.1c-0.1,0.1-0.2,0.1-0.3,0.1c-0.2,0-0.4-0.2-0.4-0.4c0-0.1,0.1-0.2,0.2-0.3c1.6-1.4,2.2-2.9,2.2-4.7
			s-0.7-3.3-2.2-4.7c-0.1-0.1-0.2-0.2-0.2-0.3c0-0.2,0.2-0.4,0.4-0.4c0.1,0,0.2,0,0.3,0.1c1.8,1.4,2.7,3.2,2.7,5.3
			S164.4,19.6,162.6,21.1z"/>
	</g>
	<g>
		<path class="st2" d="M173.2,17.7l-0.1,0.1l-2.1-2.1l-2.1,2.1l-0.1-0.1l2.1-2.1l-2.1-2.1l0.1-0.1l2.1,2.1l2.1-2.1l0.1,0.1l-2.1,2.1
			L173.2,17.7z M170.1,15.6c0,0.3-0.2,0.5-0.5,0.5s-0.5-0.2-0.5-0.5s0.2-0.5,0.5-0.5S170.1,15.3,170.1,15.6z M171.5,14.2
			c0,0.3-0.2,0.5-0.5,0.5s-0.5-0.2-0.5-0.5s0.2-0.5,0.5-0.5S171.5,14,171.5,14.2z M171.5,17c0,0.3-0.2,0.5-0.5,0.5s-0.5-0.2-0.5-0.5
			s0.2-0.5,0.5-0.5S171.5,16.7,171.5,17z M172.9,15.6c0,0.3-0.2,0.5-0.5,0.5s-0.5-0.2-0.5-0.5s0.2-0.5,0.5-0.5
			S172.9,15.3,172.9,15.6z"/>
		<path class="st2" d="M175.1,18c-0.6,0-0.9-0.2-0.9-0.7v-3.2c0-0.5,0.2-0.7,0.9-0.7h2.9c0.6,0,0.9,0.2,0.9,0.7v3.2
			c0,0.6-0.3,0.7-0.9,0.7H175.1z M177.9,17.4c0.3,0,0.4-0.1,0.4-0.3v-3c0-0.2-0.1-0.3-0.4-0.3h-2.7c-0.3,0-0.4,0.1-0.4,0.3v3
			c0,0.2,0.1,0.3,0.4,0.3H177.9z M176.8,15.3h0.8c0.1,0,0.2,0.1,0.2,0.2s-0.1,0.2-0.2,0.2h-0.3c0,0,0.1,0,0.1,0.1
			c0.1,0.1,0.2,0.2,0.2,0.3v0.1c0,0.1-0.1,0.2-0.2,0.2h0.3c0.1,0,0.2,0.1,0.2,0.2s-0.1,0.2-0.2,0.2h-2.5c-0.1,0-0.2-0.1-0.2-0.2
			s0.1-0.2,0.2-0.2h0.9v-0.7h-0.7c-0.1,0-0.2-0.1-0.2-0.2s0.1-0.2,0.2-0.2h0.7v-0.5h-0.9c-0.1,0-0.2-0.1-0.2-0.2s0.1-0.2,0.2-0.2
			h2.4c0.1,0,0.2,0.1,0.2,0.2s-0.1,0.2-0.2,0.2h-1L176.8,15.3L176.8,15.3z M176.8,16.5h0.6c0,0-0.1,0-0.1-0.1
			c-0.1-0.1-0.1-0.2-0.2-0.3L177,16c0-0.1,0.1-0.2,0.2-0.2h-0.4V16.5L176.8,16.5z"/>
		<path class="st2" d="M183.8,15c0.2,0,0.2,0.1,0.2,0.3s-0.1,0.3-0.2,0.3h-1.6v1.7h1.9c0.2,0,0.2,0.1,0.2,0.3s-0.1,0.3-0.2,0.3h-4.5
			c-0.1,0-0.2-0.1-0.2-0.3s0.1-0.3,0.2-0.3h1.9v-1.7H180c-0.1,0-0.2-0.1-0.2-0.3s0.1-0.3,0.2-0.3h1.5v-1.5c0-0.2,0.2-0.2,0.3-0.2
			s0.3,0.1,0.3,0.2V15H183.8L183.8,15z"/>
		<path class="st2" d="M189.7,17.4c0.2,0,0.3,0.2,0.3,0.3c0,0.1-0.1,0.3-0.3,0.3h-0.1c-0.8-0.2-1.5-0.6-2.1-1
			c-0.6,0.5-1.3,0.9-2.1,1.1h-0.1c-0.2,0-0.3-0.1-0.3-0.3c0-0.1,0.1-0.2,0.2-0.3c0.7-0.2,1.3-0.5,1.9-0.9c-0.2-0.2-0.4-0.5-0.6-0.8
			c0-0.1,0-0.1,0-0.1c0-0.1,0.1-0.3,0.3-0.3c0.1,0,0.2,0.1,0.3,0.2c0.1,0.2,0.3,0.4,0.4,0.6c0.2-0.2,0.3-0.4,0.4-0.7
			c0.1-0.1,0.2-0.2,0.3-0.2s0.3,0.1,0.3,0.3v0.1c-0.1,0.3-0.3,0.6-0.6,0.8C188.3,16.9,188.9,17.2,189.7,17.4L189.7,17.4z
			 M187.1,13.3c0-0.2,0.1-0.2,0.3-0.2s0.3,0.1,0.3,0.2v0.4h1.9c0.1,0,0.2,0.1,0.2,0.3s-0.1,0.3-0.2,0.3h-4.4c-0.1,0-0.2-0.1-0.2-0.3
			s0.1-0.3,0.2-0.3h1.9V13.3L187.1,13.3z M186.5,14.4c0.1,0,0.3,0.1,0.3,0.3c0,0.1,0,0.1-0.1,0.2c-0.3,0.4-0.7,0.7-1,1
			c-0.1,0.1-0.1,0.1-0.2,0.1c-0.2,0-0.3-0.1-0.3-0.3c0-0.1,0-0.2,0.1-0.2c0.3-0.2,0.6-0.5,0.9-0.8C186.3,14.4,186.4,14.4,186.5,14.4
			L186.5,14.4z M189.5,15.2c0.1,0.1,0.1,0.2,0.1,0.2c0,0.2-0.1,0.3-0.3,0.3c-0.1,0-0.1,0-0.2-0.1c-0.3-0.3-0.6-0.5-0.9-0.7
			c-0.1-0.1-0.1-0.1-0.1-0.2c0-0.1,0.1-0.3,0.3-0.3c0.1,0,0.1,0,0.2,0.1C188.8,14.6,189.2,14.9,189.5,15.2L189.5,15.2z"/>
		<path class="st2" d="M191.7,17c0.3,0.3,0.9,0.5,2.1,0.5c0.6,0,1,0,1.5,0c0.2,0,0.3,0.1,0.3,0.3c0,0.1-0.1,0.3-0.3,0.3
			c-0.4,0-0.9,0-1.5,0c-1.3,0-1.9-0.2-2.3-0.6c-0.2,0.2-0.4,0.4-0.6,0.6c-0.1,0-0.1,0.1-0.2,0.1c-0.1,0-0.3-0.1-0.3-0.3
			c0-0.1,0-0.2,0.2-0.3c0.2-0.1,0.4-0.3,0.6-0.5v-1c0-0.1,0-0.1-0.2-0.1h-0.3c-0.2,0-0.2-0.1-0.2-0.3s0.1-0.3,0.2-0.3h0.4
			c0.4,0,0.6,0.2,0.6,0.6V17L191.7,17z M191.6,13.9c0.1,0.1,0.1,0.1,0.1,0.2c0,0.2-0.1,0.3-0.3,0.3c-0.1,0-0.2,0-0.2-0.1
			c-0.1-0.1-0.2-0.3-0.4-0.4c-0.1-0.1-0.1-0.1-0.1-0.2c0-0.1,0.1-0.3,0.3-0.3c0.1,0,0.1,0,0.2,0.1S191.5,13.7,191.6,13.9L191.6,13.9
			z M193.9,16.3V17c0,0.1-0.1,0.2-0.3,0.2s-0.3-0.1-0.3-0.2v-0.7h-0.6V17c0,0.1-0.1,0.2-0.3,0.2s-0.3-0.1-0.3-0.2v-2.1
			c0-0.4,0.2-0.5,0.6-0.5h0.4c-0.1-0.1-0.2-0.1-0.3-0.2c-0.1-0.1-0.1-0.1-0.1-0.2c0-0.1,0.1-0.2,0.2-0.2h-0.7
			c-0.1,0-0.2-0.1-0.2-0.2c0-0.1,0.1-0.2,0.2-0.2h2c0.4,0,0.5,0.2,0.5,0.4c0,0.1-0.1,0.3-0.2,0.4c-0.2,0.1-0.4,0.2-0.6,0.4h0.5
			c0.4,0,0.6,0.1,0.6,0.5V17c0,0.3-0.2,0.5-0.6,0.5c-0.1,0-0.2,0-0.3,0s-0.2-0.1-0.2-0.2s0.1-0.3,0.2-0.2h0.1c0.1,0,0.1,0,0.1-0.1
			v-0.3L193.9,16.3L193.9,16.3z M192.9,14.8c-0.1,0-0.1,0-0.1,0.1v0.2h0.6v-0.3H192.9z M193.4,15.8v-0.3h-0.6v0.3H193.4z
			 M193.2,13.7c0,0,0.1,0,0.1,0.1c0.1,0.1,0.2,0.1,0.3,0.2c0.1-0.1,0.3-0.1,0.4-0.2c0,0,0,0,0-0.1s0,0-0.1,0H193.2L193.2,13.7z
			 M194.6,14.9c0-0.1-0.1-0.1-0.2-0.1h-0.5v0.3h0.7V14.9L194.6,14.9z M194.6,15.5h-0.7v0.3h0.7V15.5z"/>
		<path class="st2" d="M199.6,15.4c0.5,0,0.7,0.2,0.7,0.6v1.5c0,0.5-0.3,0.6-0.7,0.6h-1.8c-0.5,0-0.7-0.2-0.7-0.6V16v-0.1
			c-0.3,0.1-0.6,0.2-0.8,0.2h-0.1c-0.2,0-0.3-0.1-0.3-0.3c0-0.1,0.1-0.2,0.2-0.3c1.1-0.2,2.4-0.8,3.1-1.4c0.1-0.1,0.1-0.1,0.2-0.1
			c0.2,0,0.3,0.1,0.3,0.3c0,0.1,0,0.1-0.1,0.2c-0.4,0.3-0.9,0.6-1.4,0.8L199.6,15.4L199.6,15.4z M197.3,13.5c0.2,0,0.3,0.1,0.3,0.3
			c0,0.1,0,0.1-0.1,0.2c-0.3,0.3-0.6,0.6-1,0.8c-0.1,0-0.1,0.1-0.2,0.1c-0.2,0-0.3-0.1-0.3-0.3c0-0.1,0.1-0.2,0.2-0.3
			c0.3-0.2,0.6-0.4,0.9-0.7C197.1,13.5,197.2,13.5,197.3,13.5L197.3,13.5z M198.8,14.1c0,0.4-0.2,0.6-0.7,0.6c-0.1,0-0.2,0-0.3,0
			s-0.2-0.1-0.2-0.3c0-0.1,0.1-0.3,0.3-0.3c0.1,0,0.1,0,0.2,0c0.1,0,0.1,0,0.1-0.1v-0.7c0-0.1,0.1-0.2,0.3-0.2s0.3,0.1,0.3,0.2
			L198.8,14.1L198.8,14.1z M199.7,16c0-0.1,0-0.1-0.2-0.1h-1.7c-0.1,0-0.2,0-0.2,0.1v0.2h2.1L199.7,16L199.7,16z M197.6,16.9h2.1
			v-0.3h-2.1V16.9z M199.5,17.7c0.2,0,0.2,0,0.2-0.2v-0.2h-2.1v0.2c0,0.1,0.1,0.2,0.2,0.2H199.5z M200.7,14.2
			c0.1,0.1,0.1,0.2,0.1,0.2c0,0.2-0.1,0.3-0.3,0.3c-0.1,0-0.2,0-0.2-0.1c-0.2-0.2-0.5-0.5-0.8-0.6c-0.1-0.1-0.1-0.1-0.1-0.2
			c0-0.1,0.1-0.3,0.3-0.3c0.1,0,0.1,0,0.2,0.1C200.2,13.7,200.5,13.9,200.7,14.2L200.7,14.2z"/>
		<path class="st2" d="M201.5,14.6c-0.1,0-0.2-0.1-0.2-0.3s0.1-0.3,0.2-0.3h1.6c0.1,0,0.2,0.1,0.2,0.3s-0.1,0.3-0.2,0.3H201.5z
			 M202.1,18.1c-0.4,0-0.6-0.2-0.6-0.5v-0.7c0-0.3,0.1-0.5,0.6-0.5h0.5c0.4,0,0.5,0.2,0.5,0.5v0.7c0,0.4-0.2,0.5-0.5,0.5H202.1z
			 M201.8,13.8c-0.1,0-0.2-0.1-0.2-0.3s0.1-0.3,0.2-0.3h1.1c0.1,0,0.2,0.1,0.2,0.3s-0.1,0.3-0.2,0.3H201.8z M201.8,15.4
			c-0.1,0-0.2-0.1-0.2-0.3s0.1-0.3,0.2-0.3h1.1c0.1,0,0.2,0.1,0.2,0.3s-0.1,0.3-0.2,0.3H201.8z M201.8,16.1c-0.1,0-0.2-0.1-0.2-0.3
			s0.1-0.3,0.2-0.3h1.1c0.1,0,0.2,0.1,0.2,0.3s-0.1,0.3-0.2,0.3H201.8z M202.5,17.6c0.1,0,0.1,0,0.1-0.1V17c0-0.1,0-0.1-0.1-0.1
			h-0.3c-0.1,0-0.1,0-0.1,0.1v0.4c0,0.1,0,0.1,0.1,0.1h0.3V17.6z M204.3,17c0.1,0,0.2-0.1,0.3-0.1h0.1c0.1,0,0.2,0.1,0.2,0.3
			c0,0.1-0.1,0.2-0.2,0.2c-0.4,0.1-0.8,0.3-1.3,0.3c-0.2,0-0.3-0.1-0.3-0.3c0-0.1,0.1-0.2,0.2-0.3c0.1,0,0.2,0,0.3-0.1v-1.2h-0.2
			c-0.1,0-0.2-0.1-0.2-0.2s0.1-0.2,0.2-0.2h1c0.1,0,0.2,0.1,0.2,0.2s-0.1,0.2-0.2,0.2h-0.2L204.3,17L204.3,17z M206.2,14.2
			c0.1,0,0.2,0.1,0.2,0.3s-0.1,0.3-0.2,0.3h-0.8c0,0.7,0.1,1.3,0.2,1.8c0.1,0.8,0.3,0.9,0.3,0.9s0.1,0,0.1-0.4
			c0-0.1,0.1-0.2,0.2-0.2c0.1,0,0.3,0.1,0.3,0.3c-0.1,0.7-0.3,1-0.6,1c-0.4,0-0.7-0.4-0.9-1.5c-0.1-0.4-0.1-1.1-0.2-1.9h-1.2
			c-0.1,0-0.2-0.1-0.2-0.3s0.1-0.3,0.2-0.3h1.2c0-0.3,0-0.6,0-0.9c0-0.2,0.1-0.2,0.3-0.2s0.3,0.1,0.3,0.2c0,0.3,0,0.6,0,0.9
			L206.2,14.2L206.2,14.2z M206.2,13.7v0.1c0,0.1-0.1,0.2-0.3,0.2c-0.1,0-0.2,0-0.2-0.1c-0.1-0.1-0.1-0.2-0.2-0.4l-0.1-0.1
			c0-0.1,0.1-0.2,0.2-0.2c0.1,0,0.1,0,0.2,0.1C206,13.4,206.1,13.6,206.2,13.7L206.2,13.7z"/>
		<path class="st2" d="M208.4,16.5c-0.4,0-0.6-0.1-0.6-0.5v-1c0-0.4,0.2-0.5,0.7-0.5h1.8c0.5,0,0.7,0.1,0.7,0.5v1
			c0,0.4-0.2,0.5-0.6,0.5v0.2h1.4c0.1,0,0.2,0.1,0.2,0.2s-0.1,0.2-0.2,0.2h-1.4V18c0,0.1-0.1,0.2-0.3,0.2s-0.3-0.1-0.3-0.2v-0.7h-1
			c-0.2,0.5-0.6,0.8-1.1,1h-0.1c-0.2,0-0.3-0.1-0.3-0.3c0-0.1,0.1-0.2,0.2-0.2c0.3-0.1,0.5-0.2,0.7-0.5H207c-0.1,0-0.2-0.1-0.2-0.2
			s0.1-0.2,0.2-0.2h1.4C208.4,16.7,208.4,16.7,208.4,16.5L208.4,16.5L208.4,16.5z M209,13.5c0.1,0,0.2,0.1,0.2,0.2S209.1,14,209,14
			h-0.4l0.1,0.1v0.1c0,0.1-0.1,0.2-0.3,0.2c-0.1,0-0.2-0.1-0.2-0.2c-0.1-0.1-0.1-0.2-0.2-0.3h-0.3c-0.1,0.1-0.2,0.3-0.3,0.4
			c-0.1,0.1-0.2,0.1-0.2,0.1c-0.1,0-0.3-0.1-0.3-0.2c0-0.1,0-0.1,0.1-0.2c0.2-0.2,0.4-0.6,0.6-0.9c0.1-0.1,0.2-0.2,0.3-0.2
			s0.3,0.1,0.3,0.2v0.1c0,0.1-0.1,0.1-0.1,0.1L209,13.5L209,13.5z M210.4,15c0-0.1,0-0.1-0.2-0.1h-1.7c-0.2,0-0.2,0-0.2,0.1l0,0
			H210.4L210.4,15L210.4,15z M208.3,15.6h2.1v-0.2h-2.1V15.6z M210.2,16.2c0.2,0,0.2,0,0.2-0.1V16h-2.1l0,0c0,0.1,0.1,0.1,0.2,0.1
			h1.7V16.2z M208.9,16.6c0,0.1,0,0.1,0,0.2h0.9v-0.2H208.9L208.9,16.6L208.9,16.6z M211.6,13.5c0.1,0,0.2,0.1,0.2,0.2
			s-0.1,0.2-0.2,0.2h-0.8l0.1,0.1v0.1c0,0.1-0.1,0.2-0.3,0.2c-0.1,0-0.2,0-0.2-0.1c-0.1-0.1-0.1-0.2-0.2-0.3h-0.3
			c-0.1,0.1-0.2,0.2-0.2,0.3c-0.1,0.1-0.2,0.1-0.2,0.1c-0.1,0-0.3-0.1-0.3-0.2c0-0.1,0-0.1,0.1-0.2c0.2-0.2,0.4-0.5,0.5-0.8
			c0.1-0.1,0.1-0.1,0.2-0.1c0.1,0,0.3,0.1,0.3,0.2v0.1c0,0.1-0.1,0.1-0.1,0.1L211.6,13.5L211.6,13.5z"/>
	</g>
	<g>
		<path class="st3" d="M26,85.1h136.2c1.1,0,6-2.4,6-2.4s2.7-1.3,1.9-2.4c-2-2.7-12.6-7.3-12.6-7.3s-3.4-1.6-7.6-1.6H26V85.1z"/>
		<path class="st4" d="M26,85.1h136.2c1.1,0,6-2.4,6-2.4s2.7-1.3,1.9-2.4c-2-2.7-12.6-7.3-12.6-7.3s-3.4-1.6-7.6-1.6H26V85.1z"/>
		<path class="st5" d="M121.5,76.1h3.5c0.2,0,0.3,0.2,0.3,0.3v2.2c0,0.2-0.2,0.3-0.3,0.3h-3.5c-0.2,0-0.3-0.2-0.3-0.3v-2.2
			C121.2,76.2,121.3,76.1,121.5,76.1z"/>
		<path class="st5" d="M114.4,76.1h3.5c0.2,0,0.3,0.2,0.3,0.3v2.2c0,0.2-0.2,0.3-0.3,0.3h-3.5c-0.2,0-0.3-0.2-0.3-0.3v-2.2
			C114.1,76.2,114.2,76.1,114.4,76.1z"/>
		<path class="st5" d="M128.8,76.1h3.5c0.2,0,0.3,0.2,0.3,0.3v2.2c0,0.2-0.2,0.3-0.3,0.3h-3.5c-0.2,0-0.3-0.2-0.3-0.3v-2.2
			C128.4,76.2,128.6,76.1,128.8,76.1z"/>
		<path class="st5" d="M107.4,76.1h3.5c0.2,0,0.3,0.2,0.3,0.3v2.2c0,0.2-0.2,0.3-0.3,0.3h-3.5c-0.2,0-0.3-0.2-0.3-0.3v-2.2
			C107,76.2,107.2,76.1,107.4,76.1z"/>
		<path class="st5" d="M100.3,76.1h3.5c0.2,0,0.3,0.2,0.3,0.3v2.2c0,0.2-0.2,0.3-0.3,0.3h-3.5c-0.2,0-0.3-0.2-0.3-0.3v-2.2
			C100,76.2,100.1,76.1,100.3,76.1z"/>
		<path class="st5" d="M84.9,76.1h3.5c0.2,0,0.3,0.2,0.3,0.3v2.2c0,0.2-0.2,0.3-0.3,0.3h-3.5c-0.2,0-0.3-0.2-0.3-0.3v-2.2
			C84.5,76.2,84.7,76.1,84.9,76.1z"/>
		<path class="st5" d="M146.6,76.1h1.1c0.2,0,0.3,0.2,0.3,0.3v2.2c0,0.2-0.2,0.3-0.3,0.3h-1.1c-0.2,0-0.3-0.2-0.3-0.3v-2.2
			C146.2,76.2,146.4,76.1,146.6,76.1z"/>
		<path class="st5" d="M165.2,76.9c-0.4-0.1-3.1-0.2-3.6-0.2c-0.5-0.1-2.1-0.3-2.5-0.4c-1-0.1-3.7-1.4-4.3-1.7
			c-1.3-0.6-2.1-1.1-2.6-1.4h5.1h0.1C157.8,73.4,162.8,75.7,165.2,76.9L165.2,76.9z"/>
		<path class="st5" d="M137.3,74.2h3.2c0.2,0,0.3,0.1,0.3,0.3v8.2c0,0.2-0.1,0.3-0.3,0.3h-3.2c-0.2,0-0.3-0.1-0.3-0.3v-8.2
			C137,74.3,137.1,74.2,137.3,74.2z"/>
		<path class="st3" d="M138.4,76.1h1.1c0.2,0,0.3,0.2,0.3,0.3v2.2c0,0.2-0.2,0.3-0.3,0.3h-1.1c-0.2,0-0.3-0.2-0.3-0.3v-2.2
			C138,76.2,138.2,76.1,138.4,76.1z"/>
		<path class="st5" d="M92.3,74.2h3.2c0.2,0,0.3,0.1,0.3,0.3v8.2c0,0.2-0.1,0.3-0.3,0.3h-3.2c-0.2,0-0.3-0.1-0.3-0.3v-8.2
			C92,74.3,92.2,74.2,92.3,74.2z"/>
		<path class="st3" d="M93.4,76.1h1.1c0.2,0,0.3,0.2,0.3,0.3v2.2c0,0.2-0.2,0.3-0.3,0.3h-1.1c-0.2,0-0.3-0.2-0.3-0.3v-2.2
			C93.1,76.2,93.2,76.1,93.4,76.1z"/>
		<rect x="96.7" y="81" class="st5" width="39.4" height="1.7"/>
		<path class="st5" d="M77.2,76.1h3.5c0.2,0,0.3,0.2,0.3,0.3v2.2c0,0.2-0.2,0.3-0.3,0.3h-3.5c-0.2,0-0.3-0.2-0.3-0.3v-2.2
			C76.9,76.2,77.1,76.1,77.2,76.1z"/>
		<path class="st5" d="M70.2,76.1h3.5c0.2,0,0.3,0.2,0.3,0.3v2.2c0,0.2-0.2,0.3-0.3,0.3h-3.5c-0.2,0-0.3-0.2-0.3-0.3v-2.2
			C69.8,76.2,70,76.1,70.2,76.1z"/>
		<path class="st5" d="M84.5,76.1H88c0.2,0,0.3,0.2,0.3,0.3v2.2c0,0.2-0.2,0.3-0.3,0.3h-3.5c-0.2,0-0.3-0.2-0.3-0.3v-2.2
			C84.2,76.2,84.3,76.1,84.5,76.1z"/>
		<path class="st5" d="M33.9,76.1h3.5c0.2,0,0.3,0.2,0.3,0.3v2.2c0,0.2-0.2,0.3-0.3,0.3h-3.5c-0.2,0-0.3-0.2-0.3-0.3v-2.2
			C33.6,76.2,33.7,76.1,33.9,76.1z"/>
		<path class="st5" d="M63.1,76.1h3.5c0.2,0,0.3,0.2,0.3,0.3v2.2c0,0.2-0.2,0.3-0.3,0.3h-3.5c-0.2,0-0.3-0.2-0.3-0.3v-2.2
			C62.8,76.2,62.9,76.1,63.1,76.1z"/>
		<path class="st5" d="M56,76.1h3.5c0.2,0,0.3,0.2,0.3,0.3v2.2c0,0.2-0.2,0.3-0.3,0.3H56c-0.2,0-0.3-0.2-0.3-0.3v-2.2
			C55.7,76.2,55.8,76.1,56,76.1z"/>
		<path class="st5" d="M49,74.2h3.2c0.2,0,0.3,0.1,0.3,0.3v8.2c0,0.2-0.1,0.3-0.3,0.3H49c-0.2,0-0.3-0.1-0.3-0.3v-8.2
			C48.7,74.3,48.8,74.2,49,74.2z"/>
		<path class="st3" d="M50,76.1h1.1c0.2,0,0.3,0.2,0.3,0.3v2.2c0,0.2-0.2,0.3-0.3,0.3H50c-0.2,0-0.3-0.2-0.3-0.3v-2.2
			C49.7,76.2,49.9,76.1,50,76.1z"/>
		<rect x="53.3" y="81" class="st5" width="37.7" height="1.7"/>
		<path class="st5" d="M41.2,76.1h3.5c0.2,0,0.3,0.2,0.3,0.3v2.2c0,0.2-0.2,0.3-0.3,0.3h-3.5c-0.2,0-0.3-0.2-0.3-0.3v-2.2
			C40.8,76.2,41,76.1,41.2,76.1z"/>
		<rect x="33.4" y="81" class="st5" width="14.2" height="1.7"/>
		<path class="st5" d="M170.2,81h-28.6v1.7h26.7C168.2,82.7,169.9,81.9,170.2,81L170.2,81z"/>
	</g>
	<g>
		<g>
			<defs>
				<rect id="SVGID_1_" x="29.3" y="30.6" width="123.1" height="24"/>
			</defs>
			<clipPath id="SVGID_00000008862619159532351580000008574442950871770259_">
				<use xlink:href="#SVGID_1_"  style="overflow:visible;"/>
			</clipPath>
			<g style="clip-path:url(#SVGID_00000008862619159532351580000008574442950871770259_);">
				<g>
					<path class="st3" d="M-5.9,47.6h136.2c1.1,0,6-2.4,6-2.4s2.7-1.3,1.9-2.4c-2-2.7-12.6-7.3-12.6-7.3s-3.4-1.6-7.6-1.6H-5.9V47.6
						z"/>
					<path class="st4" d="M-5.9,47.6h136.2c1.1,0,6-2.4,6-2.4s2.7-1.3,1.9-2.4c-2-2.7-12.6-7.3-12.6-7.3s-3.4-1.6-7.6-1.6H-5.9V47.6
						z"/>
					<path class="st5" d="M89.6,38.5H93c0.2,0,0.3,0.2,0.3,0.3V41c0,0.2-0.2,0.3-0.3,0.3h-3.5c-0.2,0-0.3-0.2-0.3-0.3v-2.2
						C89.2,38.6,89.4,38.5,89.6,38.5z"/>
					<path class="st5" d="M82.5,38.5H86c0.2,0,0.3,0.2,0.3,0.3V41c0,0.2-0.2,0.3-0.3,0.3h-3.5c-0.2,0-0.3-0.2-0.3-0.3v-2.2
						C82.2,38.6,82.3,38.5,82.5,38.5z"/>
					<path class="st5" d="M96.8,38.5h3.5c0.2,0,0.3,0.2,0.3,0.3V41c0,0.2-0.2,0.3-0.3,0.3h-3.5c-0.2,0-0.3-0.2-0.3-0.3v-2.2
						C96.5,38.6,96.7,38.5,96.8,38.5z"/>
					<path class="st5" d="M75.4,38.5h3.5c0.2,0,0.3,0.2,0.3,0.3V41c0,0.2-0.2,0.3-0.3,0.3h-3.5c-0.2,0-0.3-0.2-0.3-0.3v-2.2
						C75.1,38.6,75.2,38.5,75.4,38.5z"/>
					<path class="st5" d="M68.4,38.5h3.5c0.2,0,0.3,0.2,0.3,0.3V41c0,0.2-0.2,0.3-0.3,0.3h-3.5c-0.2,0-0.3-0.2-0.3-0.3v-2.2
						C68,38.6,68.2,38.5,68.4,38.5z"/>
					<path class="st5" d="M52.9,38.5h3.5c0.2,0,0.3,0.2,0.3,0.3V41c0,0.2-0.2,0.3-0.3,0.3h-3.5c-0.2,0-0.3-0.2-0.3-0.3v-2.2
						C52.6,38.6,52.7,38.5,52.9,38.5z"/>
					<path class="st5" d="M114.6,38.5h1.1c0.2,0,0.3,0.2,0.3,0.3V41c0,0.2-0.2,0.3-0.3,0.3h-1.1c-0.2,0-0.3-0.2-0.3-0.3v-2.2
						C114.3,38.6,114.4,38.5,114.6,38.5z"/>
					<path class="st5" d="M133.3,39.3c-0.4-0.1-3.1-0.2-3.6-0.2c-0.5-0.1-2-0.3-2.5-0.4c-1-0.1-3.7-1.4-4.3-1.7
						c-1.3-0.6-2.1-1.1-2.6-1.4h5.2h0.1C125.9,35.9,130.9,38.1,133.3,39.3L133.3,39.3z"/>
					<path class="st5" d="M105.3,36.6h3.2c0.2,0,0.3,0.1,0.3,0.3v8.2c0,0.2-0.1,0.3-0.3,0.3h-3.2c-0.2,0-0.3-0.1-0.3-0.3v-8.2
						C105,36.8,105.2,36.6,105.3,36.6z"/>
					<path class="st3" d="M106.4,38.5h1.1c0.2,0,0.3,0.2,0.3,0.3V41c0,0.2-0.2,0.3-0.3,0.3h-1.1c-0.2,0-0.3-0.2-0.3-0.3v-2.2
						C106.1,38.6,106.2,38.5,106.4,38.5z"/>
					<path class="st5" d="M60.4,36.6h3.2c0.2,0,0.3,0.1,0.3,0.3v8.2c0,0.2-0.1,0.3-0.3,0.3h-3.2c-0.2,0-0.3-0.1-0.3-0.3v-8.2
						C60.1,36.8,60.2,36.6,60.4,36.6z"/>
					<path class="st3" d="M61.5,38.5h1.1c0.2,0,0.3,0.2,0.3,0.3V41c0,0.2-0.2,0.3-0.3,0.3h-1.1c-0.2,0-0.3-0.2-0.3-0.3v-2.2
						C61.1,38.6,61.3,38.5,61.5,38.5z"/>
					<rect x="64.8" y="43.5" class="st5" width="39.4" height="1.7"/>
					<path class="st5" d="M45.3,38.5h3.5c0.2,0,0.3,0.2,0.3,0.3V41c0,0.2-0.2,0.3-0.3,0.3h-3.5c-0.2,0-0.3-0.2-0.3-0.3v-2.2
						C45,38.6,45.1,38.5,45.3,38.5z"/>
					<path class="st5" d="M38.2,38.5h3.5c0.2,0,0.3,0.2,0.3,0.3V41c0,0.2-0.2,0.3-0.3,0.3h-3.5c-0.2,0-0.3-0.2-0.3-0.3v-2.2
						C37.9,38.6,38.1,38.5,38.2,38.5z"/>
					<path class="st5" d="M52.6,38.5H56c0.2,0,0.3,0.2,0.3,0.3V41c0,0.2-0.2,0.3-0.3,0.3h-3.5c-0.2,0-0.3-0.2-0.3-0.3v-2.2
						C52.2,38.6,52.4,38.5,52.6,38.5z"/>
					<path class="st5" d="M2,38.5h3.5c0.2,0,0.3,0.2,0.3,0.3V41c0,0.2-0.2,0.3-0.3,0.3H2c-0.2,0-0.3-0.2-0.3-0.3v-2.2
						C1.6,38.6,1.8,38.5,2,38.5z"/>
					<path class="st5" d="M31.2,38.5h3.5c0.2,0,0.3,0.2,0.3,0.3V41c0,0.2-0.2,0.3-0.3,0.3h-3.5c-0.2,0-0.3-0.2-0.3-0.3v-2.2
						C30.8,38.6,31,38.5,31.2,38.5z"/>
					<path class="st5" d="M24.1,38.5h3.5c0.2,0,0.3,0.2,0.3,0.3V41c0,0.2-0.2,0.3-0.3,0.3h-3.5c-0.2,0-0.3-0.2-0.3-0.3v-2.2
						C23.8,38.6,23.9,38.5,24.1,38.5z"/>
					<path class="st5" d="M17,36.6h3.2c0.2,0,0.3,0.1,0.3,0.3v8.2c0,0.2-0.1,0.3-0.3,0.3H17c-0.2,0-0.3-0.1-0.3-0.3v-8.2
						C16.7,36.8,16.9,36.6,17,36.6z"/>
					<path class="st3" d="M18.1,38.5h1.1c0.2,0,0.3,0.2,0.3,0.3V41c0,0.2-0.2,0.3-0.3,0.3h-1.1c-0.2,0-0.3-0.2-0.3-0.3v-2.2
						C17.8,38.6,17.9,38.5,18.1,38.5z"/>
					<rect x="21.4" y="43.5" class="st5" width="37.7" height="1.7"/>
					<path class="st5" d="M9.2,38.5h3.5c0.2,0,0.3,0.2,0.3,0.3V41c0,0.2-0.2,0.3-0.3,0.3H9.2c-0.2,0-0.3-0.2-0.3-0.3v-2.2
						C8.9,38.6,9,38.5,9.2,38.5z"/>
					<rect x="1.5" y="43.5" class="st5" width="14.2" height="1.7"/>
					<path class="st5" d="M138.3,43.5h-28.6v1.7h26.7C136.3,45.2,138,44.4,138.3,43.5z"/>
				</g>
			</g>
		</g>
	</g>
	<rect x="13.5" y="60.5" class="st5" width="39.1" height="34.3"/>
	<g>
		<path class="st3" d="M28.3,69.2v0.9h-5c-0.3,0.6-0.8,1.5-1.5,2.3v4.2h-1v-3.2c-0.4,0.3-0.7,0.5-0.9,0.7c-0.2-0.4-0.3-0.5-0.6-0.8
			c0.6-0.3,1.1-0.7,1.5-1.1v-0.6l0.5,0.1c0.2-0.3,0.6-0.8,1-1.6h-2.7v-0.9h3c0.2-0.6,0.3-1.1,0.4-1.4l1,0.2c0,0,0.1,0,0.1,0.1
			s0,0.1-0.3,0.2c-0.1,0.2-0.1,0.5-0.3,0.9L28.3,69.2L28.3,69.2z M27.9,72v0.8h-2.1v2.4h2.5v0.9h-6v-0.9h2.5v-2.4h-2.1V72h2.1v-1.5
			l1,0.1c0.1,0,0.2,0,0.2,0.1s0,0.1-0.2,0.2V72H27.9L27.9,72z"/>
		<path class="st3" d="M34,76.6h-0.9v-3.1c-1.1,1.4-2.3,2.4-3.3,2.9c-0.2-0.3-0.4-0.5-0.8-0.8c2-1,3-2.1,3.6-2.8h-3.4V72h2.2
			c-0.1-0.2-0.4-1-0.9-1.7l0.8-0.4h-1.7V69h3.5v-1.1l1,0.1c0.1,0,0.2,0,0.2,0.1s-0.1,0.1-0.2,0.2V69h3.5v0.9h-1.7l0.8,0.4
			c0.1,0,0.1,0.1,0.1,0.1c0,0.1-0.1,0.1-0.2,0.1c-0.2,0.4-0.6,1.2-0.8,1.5H38v0.9h-3.5c0.2,0.3,0.8,1,1.7,1.6
			c0.8,0.6,1.5,0.9,1.9,1.1c-0.3,0.2-0.5,0.4-0.7,0.7c-1-0.5-2.4-1.5-3.3-2.8C34,73.6,34,76.6,34,76.6z M33.1,72v-2.1h-1.7
			c0.4,0.5,0.7,1.1,1,1.8c-0.3,0.1-0.4,0.2-0.7,0.4C31.6,72,33.1,72,33.1,72z M34,69.9V72h1.5c-0.1-0.1-0.5-0.2-0.8-0.3
			c0.3-0.6,0.7-1.2,0.9-1.8L34,69.9L34,69.9z"/>
		<path class="st3" d="M42.2,69.2C42.3,69.2,42.3,69.3,42.2,69.2v0.2h-0.1c-0.9,1.4-1,1.6-1.6,2.4c0.4,0,0.6-0.1,1.1-0.1
			c-0.2-0.5-0.2-0.6-0.3-0.8l0.7-0.2c0.4,0.7,0.7,1.6,0.7,1.8c-0.2,0.1-0.5,0.2-0.8,0.3c0-0.1,0-0.2-0.1-0.4c-0.2,0-0.5,0.1-0.7,0.1
			v4.1h-0.9v-3.9c-0.2,0-0.9,0.1-1.1,0.1c0,0.1-0.1,0.2-0.2,0.2c-0.1,0-0.1-0.1-0.1-0.2l-0.2-0.9c0.2,0,0.3,0,0.8,0
			c0.2-0.3,0.4-0.6,0.5-0.8c-0.1-0.1-0.7-0.8-1.4-1.3L39,69c0.2,0.1,0.3,0.2,0.4,0.3c0.5-0.9,0.8-1.4,0.9-1.7l0.8,0.4
			c0.1,0,0.1,0.1,0.1,0.2s-0.1,0.1-0.3,0.1c-0.4,0.7-0.5,0.8-1,1.6c0.1,0.1,0.2,0.2,0.4,0.4c0.5-0.8,0.8-1.3,0.9-1.6L42.2,69.2
			L42.2,69.2z M39.9,73.3c0.1,0,0.2,0,0.2,0.1s-0.1,0.1-0.2,0.1c-0.1,0.7-0.2,1.4-0.4,2.1c-0.3-0.1-0.5-0.1-0.8-0.2
			c0.2-0.6,0.5-1.6,0.5-2.3L39.9,73.3L39.9,73.3z M41.9,73c0.1,0.7,0.2,1.2,0.4,1.8c-0.3,0.1-0.4,0.1-0.7,0.2
			c-0.1-0.5-0.3-1.3-0.3-1.8L41.9,73z M42.4,73.6v-0.8h1.5l0.3,0.3c-0.2,1.2-0.9,2.3-1.7,3.2c-0.3-0.3-0.6-0.4-0.8-0.5
			c0.7-0.6,1.2-1.3,1.5-2.2H42.4L42.4,73.6z M47,68.8v3.4h-1.6v0.6c0,0.1,0.2,0.5,0.3,0.7c0.6-0.5,0.9-0.8,1-1l0.7,0.4
			c0.1,0.1,0.1,0.1,0.1,0.2s-0.1,0.1-0.2,0.1c0,0-0.1,0-0.2,0c-0.4,0.4-1,0.9-1.1,1c0.6,0.8,1.1,1.2,1.5,1.5
			c-0.1,0.1-0.3,0.2-0.6,0.7c-0.3-0.2-1.2-1.1-1.7-2.1v1.3c0,1.1-0.9,1.1-1.7,1.1c0-0.2,0-0.4-0.4-1c0.1,0,0.3,0.1,0.7,0.1
			c0.3,0,0.5,0,0.5-0.4v-3.2h-1.6v-3.4h1.2c0.2-0.4,0.3-0.6,0.4-1l0.9,0.1c0.1,0,0.2,0,0.2,0.1s-0.1,0.1-0.2,0.2
			c-0.2,0.3-0.2,0.4-0.3,0.6L47,68.8L47,68.8z M43.8,70.1H46v-0.6h-2.2V70.1z M46.1,70.8h-2.2v0.6h2.2V70.8z"/>
		<path class="st3" d="M25.9,81.2v-1.8l1,0.1c0.1,0,0.2,0,0.2,0.1s-0.1,0.1-0.2,0.2v1.5H28v0.9h-1.1v1.7c0.2-0.1,0.8-0.3,1.2-0.6
			C28,83.5,28,84.1,28,84.2c-0.3,0.1-0.3,0.2-1,0.5v3.4h-1v-3c-0.3,0.1-0.8,0.3-1.1,0.4c-0.1,0.2-0.1,0.3-0.2,0.3s-0.1,0-0.1-0.2
			l-0.2-1c0.6-0.1,1.2-0.4,1.7-0.5V82h-0.6c0,0.1-0.1,0.6-0.3,1.2c-0.3-0.1-0.6-0.1-0.9-0.1c0.2-0.5,0.5-1.4,0.5-3l0.9,0.1
			c0.1,0,0.2,0.1,0.2,0.1c0,0.1-0.1,0.1-0.2,0.2c0,0.3,0,0.5,0,0.6L25.9,81.2L25.9,81.2z M27.9,83.1v-0.8H30v-0.9h-1.7v-0.8H30v-1.1
			h1c0.1,0,0.2,0,0.2,0.1s-0.1,0.1-0.2,0.2v0.8h1.9v0.8H31v0.9h2.2v0.8h-0.9c0,0.1-0.1,0.2-0.2,0.2v0.8h1V85h-1v2
			c0,1-0.6,1.1-1.8,1.1c0-0.4-0.2-0.8-0.3-1c0.2,0,0.3,0.1,0.6,0.1c0.5,0,0.5-0.1,0.5-0.5V85h-3v-0.9h3v-1H27.9z M28.9,85
			c0.3,0.3,0.7,0.8,1.1,1.5c-0.1,0-0.5,0.3-0.8,0.6c-0.2-0.3-0.6-1-1.1-1.5L28.9,85z"/>
		<path class="st3" d="M42.1,81.5V85h-7v-0.8h6v-0.6h-5.7v-0.7h5.7v-0.6h-6v-0.2c-0.3,0.2-0.5,0.2-0.6,0.3c-0.3-0.4-0.5-0.6-0.7-0.7
			c0.5-0.2,2.1-0.9,3.1-2.5l0.9,0.2c0.1,0,0.2,0.1,0.2,0.1c0,0.1-0.1,0.1-0.2,0.2c0,0-0.2,0.2-0.2,0.3h3.2l0.4,0.4
			c-0.1,0.2-0.3,0.4-1,1.1L42.1,81.5L42.1,81.5z M36.2,85.7C36.3,85.8,36.3,85.8,36.2,85.7c0.1,0.2,0,0.2-0.2,0.2
			c-0.3,0.7-0.8,1.4-1.4,2c-0.4-0.3-0.6-0.4-0.8-0.5c0.2-0.2,1.1-1,1.5-2.1L36.2,85.7L36.2,85.7z M38.8,81.5
			c0.2-0.2,0.2-0.3,0.6-0.7h-2.6c-0.4,0.4-0.8,0.7-0.8,0.7H38.8z M37.5,85.4c0.1,0,0.2,0.1,0.2,0.1s-0.1,0.1-0.2,0.2v1.1
			c0,0.3,0,0.4,0.4,0.4h1.6c0.3,0,0.5-0.1,0.6-0.9c0.1,0.1,0.5,0.3,0.9,0.3c-0.2,1-0.5,1.4-1.3,1.4h-2.1c-0.4,0-1.1,0-1.1-0.8v-1.9
			L37.5,85.4L37.5,85.4z M38.6,85.1c0.4,0.4,0.7,0.8,1,1.2c-0.3,0.2-0.4,0.3-0.7,0.5c-0.4-0.6-0.7-0.9-1-1.3L38.6,85.1L38.6,85.1z
			 M41.3,85.2c0.5,0.5,1.3,1.6,1.5,2.1c-0.4,0.2-0.5,0.3-0.8,0.6c-0.3-0.7-0.8-1.5-1.5-2.2C40.6,85.7,41.3,85.2,41.3,85.2z"/>
	</g>
	<rect x="139.6" y="26.2" class="st7" width="31.7" height="34.3"/>
	<polyline class="st8" points="171.3,26.2 171.3,60.5 171.3,94.9 	"/>
	<line class="st8" x1="139.6" y1="26.2" x2="139.6" y2="60.5"/>
	<g>
		<path class="st9" d="M150.8,39.7v-1h0.4c0.1,0,1.1-0.1,1.1-0.8s-0.7-0.7-1-0.7c-0.6,0-1.1,0.1-1.1,0.8h-1.5
			c0.2-1.5,1.3-2.1,2.7-2.1c1.5,0,2.4,0.7,2.4,1.8c0,1-0.7,1.3-1,1.4c0.4,0.1,1.2,0.4,1.2,1.5c0,1.5-1.3,2.1-2.8,2.1
			s-2.6-0.7-2.7-2.3h1.5c0,0.3,0.1,1.1,1.2,1.1c0.2,0,1.2,0,1.2-0.9c0-0.5-0.4-0.9-1.2-0.9L150.8,39.7L150.8,39.7z"/>
		<path class="st9" d="M160.2,39.4c0,0.8-0.2,3.3-2.7,3.3c-1.2,0-1.8-0.6-2.2-1.1c-0.4-0.6-0.6-1.8-0.6-2.5c0-0.8,0.2-3.3,2.7-3.3
			C159.9,35.9,160.2,38.1,160.2,39.4L160.2,39.4z M156.3,39.3c0,0.3,0,2.2,1.2,2.2s1.2-1.9,1.2-2.2s0-2.2-1.2-2.2
			S156.3,39,156.3,39.3z"/>
		<path class="st9" d="M163,39.6v-0.8c-0.3,0.3-0.4,0.4-1.1,0.9c-0.4-0.6-0.7-0.8-0.9-1c0.6-0.4,1.7-1.2,2.5-2.9l1.1,0.7l0.1,0.1
			c0,0-0.1,0.1-0.2,0.1c-0.6,0.9-0.7,1.1-1.1,1.6h3.5c-0.3-0.4-0.5-0.7-0.9-1.5h-1v-1.1h2.1c0.1,0.7,0.5,2,2.2,2.8
			c-0.4,0.3-0.6,0.6-0.8,1.1c-0.2-0.1-0.3-0.2-0.9-0.7c-0.1,3.8-0.3,4.1-2.2,4.1c-0.1,0-0.2,0-0.3,0c0-0.6-0.2-1.1-0.3-1.3
			c0.4,0,0.5,0.1,0.8,0.1s0.5,0,0.6-0.2c0-0.1,0.2-0.6,0.2-2.1h-1.1c-0.2,2.6-2.3,3.4-2.9,3.6c-0.1-0.3-0.3-0.6-0.9-1.1
			c2.1-0.6,2.4-1.7,2.5-2.6L163,39.6L163,39.6z"/>
	</g>
	<g>
		<path class="st2" d="M150.1,47.8c0,0.1,0,0.1,0,0.2h0.8v1h-0.8c0.3,0.8,0.6,1.1,1,1.5c-0.6,0.5-0.7,0.7-0.8,0.9
			c-0.3-0.5-0.4-0.6-0.6-1c-0.4,1.1-0.9,1.7-1.3,2c-0.4-0.3-0.9-0.5-1-0.5c0.7-0.6,1.4-1.6,1.6-2.8h-1.3v-1h1.4V47H149
			c-0.1,0.3-0.2,0.5-0.4,0.9c-0.3-0.2-0.6-0.4-1.1-0.5c0.6-1.1,0.7-1.9,0.8-2.5l1.1,0.2c0.1,0,0.2,0,0.2,0.1s-0.1,0.1-0.2,0.2
			c-0.1,0.3-0.1,0.4-0.1,0.6h1.5v-1h4.2v1h-4v0.8h-0.8L150.1,47.8L150.1,47.8z M152.9,51c0.2-0.3,0.5-1,0.7-1.8l1.1,0.3
			c0,0,0.1,0,0.1,0.1s-0.1,0.1-0.2,0.2c-0.1,0.5-0.3,0.8-0.4,1.2h1v1.1h-4.5V51h1.1c-0.1-0.2-0.2-0.8-0.6-1.4l1-0.4
			c0.3,0.6,0.5,1,0.6,1.4c-0.3,0.2-0.4,0.2-0.7,0.3L152.9,51L152.9,51z M154.7,46.5v2.7h-3.5v-2.7H154.7z M152.4,47.5v0.7h1.2v-0.7
			H152.4z"/>
		<path class="st2" d="M158.7,46.9v-1.3h1.7v-0.7h1.1c0.1,0,0.2,0,0.2,0.1s-0.2,0.2-0.2,0.2v0.4h1.8v1.3h-1v-0.4h-2.5v0.3l0.7,0.2
			h0.1l0,0h2.4v0.9h-0.7c-0.1,0.2-0.1,0.2-0.1,0.4h1.1v3.9h-1v-0.3h-0.8v0.3h-1v-3.9h0.6c0.1-0.2,0.1-0.2,0.1-0.4h-0.6v-0.7h-0.1
			c-0.1,0.3-0.2,0.5-0.3,0.7c0.1,0,0.1,0,0.1,0.1s-0.1,0.1-0.2,0.2v4h-0.9v-2.6l0,0c-0.2-0.2-0.3-0.2-0.5-0.4c0,0.5,0.1,1,0.2,1.5
			c-0.4,0.1-0.7,0.1-0.9,0.2c-0.1-0.5-0.1-1.1-0.1-1.8l0.7-0.1c-0.1-0.1-0.1-0.1-0.3-0.2c0.1-0.1,0.2-0.2,0.3-0.3
			c-0.4,0.1-0.5,0.1-0.6,0.1c0-0.1,0-0.1,0-0.2h-0.2v3.5h-1v-2.7h-0.1c0,0.9-0.1,1.4-0.2,1.9c-0.4-0.2-0.5-0.2-0.9-0.4
			c0.3-0.7,0.3-1.8,0.3-1.9l0.8,0.2h0.1v-0.5c-0.1,0-0.5,0.1-0.6,0.1c0,0.1-0.1,0.2-0.2,0.2c-0.1,0-0.1-0.1-0.1-0.2l-0.1-0.8
			c0.1,0,0.4,0,0.5,0c0.2-0.2,0.4-0.5,0.5-0.7c-0.1-0.1-0.5-0.5-1-0.9l0.6-0.8l0.1,0.1c0.3-0.6,0.5-1,0.5-1.2l0.9,0.4
			c0.1,0,0.2,0.1,0.2,0.1c0,0.1-0.1,0.1-0.2,0.1c-0.1,0.2-0.6,1-0.7,1.1c0.1,0.1,0.1,0.1,0.2,0.2c0.3-0.5,0.4-0.7,0.5-0.9l0.8,0.4
			l0.1,0.1c0,0.1-0.1,0.1-0.2,0.1c-0.1,0.2-0.6,1-0.7,1.2L158.7,46.9c0.1,0.3,0.3,0.9,0.4,1.2c0.3-0.5,0.5-0.9,0.7-1.6L158.7,46.9
			L158.7,46.9z M157.3,48.1c0.3,0,0.4,0,0.5,0c-0.1-0.2-0.1-0.3-0.1-0.5C157.6,47.7,157.4,47.9,157.3,48.1L157.3,48.1z M162.2,49.7
			v-0.4h-0.8v0.4H162.2z M162.2,51v-0.5h-0.8V51H162.2z"/>
	</g>
	<path class="st9" d="M143.1,40.9C143.1,40.9,143.2,40.9,143.1,40.9c0.1,0.1,0,0.1,0,0.2c-0.1,0.5-0.1,0.8-0.3,1.3
		c-0.2-0.1-0.4-0.1-0.6-0.1c0.2-0.4,0.3-1.1,0.3-1.4H143.1L143.1,40.9z M144.6,38.4C144.6,38.4,144.6,38.5,144.6,38.4
		c0.1,0.2,0,0.2-0.1,0.2c-0.1,0.1-0.3,0.4-0.4,0.5c-0.1,0.1-0.3,0.4-0.6,0.8c0.1,0,0.4,0,0.5-0.1c-0.1-0.2-0.1-0.3-0.1-0.4l0.6-0.1
		c0.5-0.7,0.7-1.3,0.8-1.7l0.6,0.2c0,0,0.1,0,0.1,0.1l-0.1,0.1c-0.1,0.3-0.1,0.4-0.2,0.5h1.6c0,1.4,0,2.8-0.2,3.3
		c-0.2,0.6-0.5,0.8-1.3,0.8c0-0.1,0-0.3-0.3-0.8c0.1,0,0.3,0.1,0.5,0.1c0.3,0,0.5-0.2,0.6-0.8c0.1-0.7,0.1-1.7,0.1-2h-1.2
		c-0.2,0.3-0.2,0.4-0.4,0.6c-0.1-0.1-0.3-0.2-0.4-0.3c0.1,0.3,0.2,0.8,0.3,1c-0.3,0.1-0.4,0.1-0.6,0.2c0-0.1,0-0.1,0-0.3h-0.3v2.3
		h-0.6v-2.2c-0.1,0-0.6,0.1-0.7,0.1c0,0.1-0.1,0.1-0.1,0.1c-0.1,0-0.1-0.1-0.1-0.1l-0.1-0.6c0.2,0,0.3,0,0.5,0
		c0.1-0.2,0.2-0.3,0.3-0.4c-0.2-0.2-0.3-0.3-0.8-0.7l0.4-0.5c0.1,0.1,0.2,0.2,0.2,0.2c0.3-0.6,0.4-0.8,0.5-0.9l0.5,0.3
		c0,0,0.1,0,0.1,0.1c0,0-0.1,0.1-0.2,0.1c-0.2,0.4-0.4,0.7-0.5,0.9c0,0,0.1,0.1,0.2,0.2c0.4-0.5,0.5-0.7,0.6-0.9L144.6,38.4
		L144.6,38.4z M144.5,40.7c0.1,0.4,0.1,0.7,0.3,1.2c-0.1,0-0.4,0.1-0.6,0.2c-0.1-0.2-0.2-0.8-0.3-1.2
		C144,40.8,144.5,40.7,144.5,40.7z M145.6,39.7c0.2,0.4,0.4,0.8,0.5,1.2c-0.4,0.2-0.5,0.2-0.6,0.3c-0.1-0.4-0.3-0.9-0.5-1.3
		L145.6,39.7L145.6,39.7z"/>
	<g>
		<g>
			<defs>
				<rect id="SVGID_00000051361204570480654120000017342062026033592767_" x="32.6" y="38.3" width="58.8" height="16.7"/>
			</defs>
			<clipPath id="SVGID_00000055678760147337881280000000184201525949620126_">
				<use xlink:href="#SVGID_00000051361204570480654120000017342062026033592767_"  style="overflow:visible;"/>
			</clipPath>
			<g style="clip-path:url(#SVGID_00000055678760147337881280000000184201525949620126_);">
				<g>
					<g>
						<path class="st3" d="M-1.7,39.6v12.5h83.5c0,0,3.3-0.9,0.8-4.7c0,0-2.6-2.1-11-2.7c0,0-6.6-0.8-14.6-3.7
							c-5-0.9-9.6-1.1-12.2-1.1S-1.7,39.6-1.7,39.6L-1.7,39.6z"/>
						<g>
							<path class="st11" d="M80.3,48.7c-0.3-0.1-1.4-0.4-1.7-0.4S77.2,49,77.2,49s0.9,0.1,2.2,0.1S80.6,48.7,80.3,48.7L80.3,48.7z"
								/>
							<path class="st12" d="M83.3,47.7c-1.3-1.7-4.3-2.6-10-3.1c-5.4-0.5-7.5-1.2-9.4-1.9c-0.6-0.2-1.2-0.4-1.8-0.6
								c-0.2-0.1-0.4-0.1-0.7-0.2c-3-0.9-7.5-2.3-17.9-2.3H-1.7v0.7h45.2c7.9,0,12.4,0.8,15.4,1.6c-1.2,0.8-1.6,1.8,2.2,2.4
								c2.9,0.4,4.7,0.3,5.7,0.1c1.5,0.4,3.5,0.7,6.5,0.9c5.4,0.5,8.3,1.3,9.6,2.8c0.5,0.7,0.7,1.4,0.6,2.4l0,0H-1.7v3.2h78.4
								c0.3,0,7,0,7.4-3.1C84.2,49.5,84,48.5,83.3,47.7z"/>
						</g>
						<path class="st11" d="M-1.2,43h1.5c0.2,0,0.3,0.2,0.3,0.3V45c0,0.2-0.2,0.3-0.3,0.3h-1.5c-0.2,0-0.3-0.2-0.3-0.3v-1.6
							C-1.5,43.2-1.4,43-1.2,43z"/>
						<path class="st11" d="M3.1,43h1.5C4.8,43,5,43.2,5,43.3V45c0,0.2-0.2,0.3-0.4,0.3H3.1c-0.2,0-0.4-0.2-0.4-0.3v-1.6
							C2.8,43.2,2.9,43,3.1,43z"/>
						<path class="st11" d="M7.4,43h1.5c0.2,0,0.4,0.2,0.4,0.3V45c0,0.2-0.2,0.3-0.4,0.3H7.4C7.2,45.3,7,45.1,7,45v-1.6
							C7.1,43.2,7.3,43,7.4,43z"/>
						<path class="st11" d="M29,43h1.5c0.2,0,0.3,0.2,0.3,0.3V45c0,0.2-0.2,0.3-0.3,0.3H29c-0.2,0-0.3-0.2-0.3-0.3v-1.6
							C28.7,43.2,28.8,43,29,43z"/>
						<path class="st11" d="M33.3,43h1.5c0.2,0,0.3,0.2,0.3,0.3V45c0,0.2-0.2,0.3-0.3,0.3h-1.5c-0.2,0-0.3-0.2-0.3-0.3v-1.6
							C33,43.2,33.1,43,33.3,43z"/>
						<path class="st11" d="M37.6,43h1.5c0.2,0,0.3,0.2,0.3,0.3V45c0,0.2-0.2,0.3-0.3,0.3h-1.5c-0.2,0-0.3-0.2-0.3-0.3v-1.6
							C37.3,43.2,37.5,43,37.6,43z"/>
						<path class="st11" d="M43.8,41.9H45c0.2,0,0.3,0.2,0.3,0.3v1.9c0,0.2-0.2,0.3-0.3,0.3h-1.2c-0.2,0-0.3-0.2-0.3-0.3v-1.9
							C43.5,42.1,43.6,41.9,43.8,41.9z"/>
						<path class="st11" d="M48.5,42.7L48.5,42.7c0.3,0,0.4,0.2,0.4,0.3v1.5c0,0.2-0.2,0.3-0.3,0.3h-0.1c-0.2,0-0.3-0.2-0.3-0.3V43
							C48.2,42.8,48.3,42.7,48.5,42.7z"/>
					</g>
					<path class="st11" d="M20.4,43h1.5c0.2,0,0.4,0.2,0.4,0.3V45c0,0.2-0.2,0.3-0.4,0.3h-1.5c-0.2,0-0.4-0.2-0.4-0.3v-1.6
						C20,43.2,20.2,43,20.4,43z"/>
					<path class="st11" d="M24.7,43h1.5c0.2,0,0.3,0.2,0.3,0.3V45c0,0.2-0.2,0.3-0.3,0.3h-1.5c-0.2,0-0.4-0.2-0.4-0.3v-1.6
						C24.4,43.2,24.5,43,24.7,43z"/>
					<path class="st11" d="M11.8,43h1.5c0.2,0,0.4,0.2,0.4,0.3V45c0,0.2-0.2,0.3-0.4,0.3h-1.5c-0.2,0-0.4-0.2-0.4-0.3v-1.6
						C11.4,43.2,11.6,43,11.8,43z"/>
					<path class="st11" d="M16.1,43h1.5c0.2,0,0.4,0.2,0.4,0.3V45c0,0.2-0.2,0.3-0.4,0.3h-1.5c-0.2,0-0.3-0.2-0.3-0.3v-1.6
						C15.7,43.2,15.9,43,16.1,43z"/>
				</g>
			</g>
		</g>
	</g>
	<rect x="13.5" y="26.2" class="st12" width="39.1" height="34.3"/>
	<g>
		<path class="st3" d="M21.9,39.8h1.5v0.8H22c0.2,0.2,0.7,0.9,1.3,1.3c-0.3,0.2-0.4,0.3-0.6,0.7c-0.1-0.2-0.3-0.4-0.7-1V44h-1v-2.5
			c-0.4,1-0.9,1.5-1.2,1.8c-0.2-0.2-0.4-0.3-0.8-0.5c0.8-0.7,1.4-1.7,1.7-2.3h-1.4v-0.8H21v-0.9h-1.8V38h1.2c-0.1-0.4-0.2-0.7-0.4-1
			l0.5-0.2h-1.1V36H21v-1l1,0.1c0.2,0,0.2,0,0.2,0.1s-0.1,0.1-0.2,0.2V36h1.5v1H23c0.1,0,0.1,0.1,0.1,0.1c0,0.1-0.2,0.1-0.3,0.2
			c-0.1,0.2-0.1,0.4-0.4,0.9h1.2V39h-1.5c0,0,0,0,0,0.1s-0.2,0.2-0.3,0.2L21.9,39.8L21.9,39.8z M20.8,37c0.2,0.5,0.3,0.8,0.4,1
			l-0.5,0.2h1.1c0.2-0.3,0.4-0.8,0.5-1.2H20.8L20.8,37z M24,35.9l0.6,0.1c0.5,0,1.8-0.3,2.7-0.7l0.6,0.7v0.1c0,0.1-0.1,0.1-0.1,0.1
			c-0.1,0-0.1,0-0.2-0.1c-0.9,0.3-1.6,0.5-2.5,0.5v1.5h2.8V39h-1v5h-1v-4.8H25c0,0.9,0,3.1-1.4,4.9c-0.4-0.2-0.4-0.2-0.9-0.4
			c1.3-1.4,1.4-3.2,1.4-4.3L24,35.9L24,35.9z"/>
		<path class="st3" d="M31.3,41.5h1.8v0.8h-1.8V44h-0.9v-1.7h-1.6v-0.8h1.6v-0.6H29v-3.4h1.4V37h-1.6v-0.8h1.6v-0.9l1,0.1
			c0.1,0,0.2,0,0.2,0.1s-0.1,0.1-0.2,0.2v0.6H33V37h-1.6v0.6h1.4v0.2c1-0.9,1.5-1.6,2-2.5l1,0.2c0.1,0,0.2,0,0.2,0.1
			s-0.1,0.1-0.3,0.2c0.4,0.5,1.1,1.4,2.3,2.1c-0.3,0.2-0.4,0.4-0.6,0.8c-0.8-0.6-1.7-1.5-2.2-2.2c-0.6,0.9-1.1,1.5-1.9,2.2
			c-0.1-0.2-0.3-0.3-0.5-0.5V41h-1.4L31.3,41.5L31.3,41.5z M29.8,38.8h1.9v-0.6h-1.9V38.8z M31.8,39.5h-1.9v0.7h1.9V39.5z M33.5,39
			v-0.8h3.1V39h-1.1v1.2h1.8v0.9h-1.8V44h-0.9v-2.8h-1.7v-0.9h1.7V39H33.5z"/>
		<path class="st3" d="M41.7,36.6C41.8,36.6,41.8,36.7,41.7,36.6v0.2h-0.1c-0.9,1.4-1,1.6-1.6,2.4c0.4,0,0.6-0.1,1.1-0.1
			c-0.2-0.5-0.2-0.6-0.3-0.8l0.7-0.2c0.4,0.7,0.7,1.6,0.7,1.8c-0.2,0-0.5,0.2-0.8,0.3c0-0.1,0-0.2-0.1-0.4c-0.2,0-0.5,0.1-0.7,0.1
			V44h-0.9v-4c-0.2,0-0.9,0.1-1.1,0.1c0,0.1-0.1,0.2-0.2,0.2c-0.1,0-0.1-0.1-0.1-0.2l-0.2-0.9c0.2,0,0.3,0,0.8,0
			c0.2-0.3,0.4-0.5,0.5-0.8c-0.1-0.1-0.7-0.8-1.4-1.3l0.5-0.8c0.2,0.1,0.3,0.2,0.4,0.3c0.5-0.9,0.8-1.4,0.9-1.7l0.8,0.4
			c0.1,0,0.1,0.1,0.1,0.2c0,0.1-0.1,0.1-0.3,0.1c-0.4,0.7-0.5,0.8-1,1.6c0.1,0.1,0.2,0.2,0.4,0.4c0.5-0.8,0.8-1.3,0.9-1.6L41.7,36.6
			L41.7,36.6z M39.4,40.7c0.1,0,0.2,0,0.2,0.1s-0.1,0.1-0.2,0.1c-0.1,0.7-0.2,1.4-0.4,2.1c-0.3-0.1-0.5-0.1-0.8-0.2
			c0.2-0.6,0.5-1.6,0.5-2.3L39.4,40.7L39.4,40.7z M41.5,40.4c0.1,0.7,0.2,1.2,0.4,1.8c-0.3,0.1-0.4,0.1-0.7,0.2
			c-0.1-0.5-0.3-1.3-0.3-1.8L41.5,40.4z M42,41v-0.8h1.5l0.3,0.3c-0.2,1.2-0.9,2.3-1.7,3.2c-0.3-0.3-0.6-0.4-0.8-0.5
			c0.7-0.6,1.2-1.3,1.5-2.2H42L42,41z M46.5,36.2v3.4h-1.6v0.6c0,0.1,0.2,0.5,0.3,0.7c0.6-0.5,0.9-0.8,1-1l0.7,0.4
			c0.1,0.1,0.1,0.1,0.1,0.2s-0.1,0.1-0.2,0.1c0,0-0.1,0-0.2,0c-0.4,0.4-1,0.9-1.1,1c0.6,0.8,1.1,1.2,1.5,1.5
			c-0.1,0.1-0.3,0.2-0.6,0.7c-0.3-0.2-1.2-1.1-1.7-2v1.3c0,1.1-0.9,1.1-1.7,1.1c0-0.2,0-0.4-0.4-1c0.1,0,0.3,0.1,0.7,0.1
			c0.3,0,0.5,0,0.5-0.4v-3.2h-1.6v-3.4h1.2c0.2-0.4,0.3-0.6,0.4-1l0.9,0.1c0.1,0,0.2,0,0.2,0.1s-0.1,0.1-0.2,0.2
			c-0.2,0.3-0.2,0.4-0.3,0.6L46.5,36.2L46.5,36.2z M43.4,37.5h2.2v-0.6h-2.2V37.5z M45.6,38.2h-2.2v0.6h2.2V38.2z"/>
	</g>
</g>
<g>
	<path class="st3" d="M18.7,46.4c-0.2,0.4-0.8,1.4-0.8,3.2s0.6,2.8,0.8,3.2l-0.3,0.5c-0.2-0.3-1-1.5-1-3.7s0.8-3.3,1-3.7L18.7,46.4
		L18.7,46.4z"/>
	<path class="st3" d="M19.6,48.4c0.3,0.5,0.5,0.9,0.7,1.4c0.1-0.6,0.3-1.1,0.3-1.8h-1.5v-0.7H20v-1.2h0.5c0,0,0.1,0,0.1,0.1
		s0,0.1-0.1,0.1v1h0.9V48h-0.3c-0.1,1-0.4,2-0.5,2.5c0.1,0.3,0.4,1,0.6,1.8c-0.2,0.1-0.3,0.2-0.5,0.4c-0.1-0.7-0.4-1.3-0.4-1.4
		c-0.1,0.4-0.5,1.2-1,1.9c-0.1-0.2-0.2-0.3-0.4-0.5c0.3-0.4,0.7-1,1.1-2.1c-0.3-0.8-0.6-1.2-0.8-1.7L19.6,48.4L19.6,48.4z
		 M21.5,49.4c0.1,0.2,0.3,0.8,0.5,1.5c-0.1,0.1-0.2,0.2-0.4,0.4c-0.1-0.5-0.3-1.1-0.5-1.5L21.5,49.4L21.5,49.4z M23.4,48.1v0.7h-0.5
		V52c0,1.1-0.4,1.1-0.9,1.1c0-0.4-0.2-0.8-0.2-0.9c0.2,0,0.4,0.1,0.4,0.1c0.2,0,0.2-0.2,0.2-0.5v-2.9h-1.1v-0.7h1.1v-2h0.5
		c0.1,0,0.1,0,0.1,0.1c0,0,0,0.1-0.1,0.1v1.8L23.4,48.1L23.4,48.1z"/>
	<path class="st3" d="M24.4,52.7v0.4h-0.5v-5.2h1.4c0.1-0.3,0.2-0.6,0.2-0.8h-1.8v-0.7H28v0.7h-1.8c0,0.2-0.1,0.5-0.2,0.8h1.8v5.2
		h-0.5v-0.4H24.4z M25,52v-3.5h-0.6V52H25z M26.2,49.3v-0.7h-0.7v0.7H26.2z M26.2,50.6v-0.8h-0.7v0.8H26.2z M26.2,52v-0.8h-0.7V52
		H26.2z M27.3,52v-3.5h-0.6V52H27.3z"/>
	<path class="st3" d="M30.7,53.2h-0.4v-1.8c-0.5,0.7-1.1,1.4-1.5,1.8c-0.2-0.3-0.2-0.5-0.3-0.6c0.8-0.5,1.3-1.1,1.6-1.6h-1.4v-0.6
		h0.7v-0.8h-0.9V49h0.9v-0.7h-0.7v-0.6h1.7v-0.5c-0.5,0-1,0-1.2,0c0-0.4-0.1-0.6-0.2-0.7c0.1,0,0.2,0,0.4,0c1,0,1.8-0.2,2.4-0.5
		l0.3,0.6v0.1v0.1c0,0-0.1,0-0.1-0.1c-0.4,0.2-0.8,0.3-1.1,0.4v0.6h1.7v0.6h-0.7V49h0.9v0.6h-0.9v0.8h0.7V51h-1.3
		c0.2,0.3,0.8,1,1.6,1.5c-0.1,0.1-0.2,0.3-0.3,0.6c-0.2-0.2-1-0.8-1.6-1.8L30.7,53.2L30.7,53.2z M30.2,48.3h-0.5V49h0.5V48.3z
		 M30.2,49.6h-0.5v0.8h0.5V49.6z M31.2,48.3h-0.5V49h0.5V48.3z M31.2,49.6h-0.5v0.8h0.5V49.6z"/>
	<path class="st3" d="M34.4,47.5v0.7H34v1.1c0.2-0.1,0.3-0.2,0.4-0.2c0,0.2,0,0.3,0,0.7c-0.1,0.1-0.2,0.1-0.4,0.3v2.3
		c0,0.7-0.2,0.9-0.7,0.9c-0.1,0-0.1,0-0.2,0c0-0.4-0.1-0.6-0.1-0.8c0,0,0.2,0,0.3,0c0.2,0,0.2-0.1,0.2-0.3v-1.8
		c-0.1,0.1-0.2,0.1-0.4,0.2c0,0.1,0,0.2-0.1,0.2s0-0.1-0.1-0.2l-0.1-0.7c0.1,0,0.2-0.1,0.6-0.3v-1.3H33v-0.7h0.6v-1.4h0.5
		c0,0,0.1,0,0.1,0.1s0,0.1-0.1,0.2v1.1L34.4,47.5L34.4,47.5z M34.2,51.2v-0.7h0.4v-2.6h1.1c0.1-0.2,0.2-0.4,0.3-0.7h-0.7
		c-0.2,0.4-0.4,0.6-0.5,0.7c-0.1-0.2-0.2-0.2-0.4-0.5c0.5-0.5,0.8-1.2,0.9-1.5l0.4,0.2c0,0,0.1,0,0.1,0.1s0,0.1-0.1,0.1
		c0,0.1,0,0.1-0.1,0.2h0.9l0.2,0.3c-0.2,0.4-0.2,0.4-0.5,1H37v2.6h0.2v0.7H36c0.4,0.9,0.8,1.2,1.2,1.4c-0.2,0.2-0.3,0.5-0.3,0.6
		c-0.6-0.4-0.9-0.8-1.3-1.7c-0.4,1.1-1,1.5-1.2,1.7c-0.1-0.3-0.1-0.4-0.3-0.6c0.2-0.1,0.9-0.4,1.2-1.4L34.2,51.2L34.2,51.2z
		 M35.9,50.1C35.9,50.1,36,50.1,35.9,50.1c0.1,0.2,0,0.2,0,0.2c0,0.1,0,0.1,0,0.2h0.7v-1c0,0.1-0.1,0.3-0.2,0.3H36
		c-0.2,0-0.3-0.2-0.3-0.4v-0.9h-0.4l0.2,0.1c0,0,0.1,0,0.1,0.1s-0.1,0.1-0.1,0.1c-0.1,0.5-0.3,0.9-0.5,1.2c-0.1-0.1-0.1-0.2-0.2-0.3
		v0.7h0.5c0-0.2,0-0.3,0-0.5C35.5,50,35.9,50.1,35.9,50.1z M35,49.6c0.2-0.3,0.3-0.7,0.3-1H35V49.6z M36.3,49.3
		c0.1,0,0.1-0.3,0.1-0.4c0.1,0.1,0.1,0.1,0.2,0.2v-0.5h-0.4v0.6C36.1,49.2,36.1,49.3,36.3,49.3L36.3,49.3L36.3,49.3z"/>
	<path class="st3" d="M41.8,47.3v0.8h-2.1c0,0.4,0,0.7,0,1h1.5c0,1,0,2.9-0.3,3.6c-0.2,0.5-0.5,0.5-0.9,0.5c0-0.4-0.1-0.7-0.2-0.9
		c0.1,0,0.2,0.1,0.4,0.1s0.3,0,0.5-0.5c0-0.2,0.2-0.8,0.2-2h-1.1c-0.2,1.5-0.9,2.7-1.7,3.3c-0.1-0.2-0.2-0.5-0.4-0.6
		c1.7-1,1.7-3.7,1.7-4.5h-1.6v-0.8h1.8v-1.2h0.5c0,0,0.1,0,0.1,0.1s0,0.1-0.1,0.1v0.9h1.7V47.3z"/>
	<path class="st3" d="M44.7,46.2C44.7,46.2,44.8,46.2,44.7,46.2c0.1,0.2,0.1,0.2,0,0.3c0,0.3,0,0.6,0,1.2h1
		c-0.2-0.3-0.5-0.7-0.7-0.9l0.3-0.6c0.2,0.2,0.5,0.5,0.8,0.9c-0.1,0.2-0.2,0.4-0.3,0.6h0.6v0.8h-1.6c0,0.5,0.2,2,0.8,3.4
		c0.1,0.3,0.2,0.4,0.2,0.4c0.1,0,0.1-0.2,0.2-0.5c0-0.1,0.1-0.5,0.1-0.6c0,0.1,0.2,0.4,0.4,0.5c-0.1,1-0.3,1.5-0.6,1.5
		c-0.5,0-1.3-1.6-1.6-4.7h-2.2v-0.8h2.1c0-1.1-0.1-1.2-0.1-1.5C44.2,46.1,44.7,46.2,44.7,46.2z M43.5,52c0.5-0.2,0.7-0.2,0.9-0.3
		c0,0.2-0.1,0.5-0.1,0.7c-0.6,0.3-1.2,0.5-2,0.7c0,0.1,0,0.2-0.1,0.2s-0.1-0.1-0.1-0.2L42,52.3c0.3,0,0.5-0.1,0.9-0.2v-1.9h-0.8
		v-0.7h2v0.7h-0.7L43.5,52L43.5,52z"/>
	<path class="st3" d="M46.8,52.9c0.2-0.4,0.8-1.4,0.8-3.2s-0.6-2.8-0.8-3.2l0.3-0.5c0.2,0.3,1,1.5,1,3.7s-0.8,3.3-1,3.7L46.8,52.9
		L46.8,52.9z"/>
</g>
</svg>
