<?xml version="1.0" encoding="UTF-8"?><svg id="a" xmlns="http://www.w3.org/2000/svg" viewBox="0 0 362.8 364.77"><defs><style>.at{fill:#b81c25;}</style></defs><g><path id="b" class="at" d="M51.44,355.87c-.53-.53-1.12-1.01-1.76-1.42v-.11s1.23-.96,1.23-.96h.12c.75,.41,1.44,.92,2.05,1.51v.11l-1.05,.87h3.19l1.66-.04,.07,.06v1.48l-.07,.06-1.66-.04h-2.54v1.98h1.74l1.63-.04,.08,.06v1.47l-.08,.06-1.63-.04h-1.74v2.43h2.95l1.78-.03,.08,.06v1.49l-.08,.07-1.78-.04h-7.76l-1.73,.04-.08-.08v-1.47l.07-.07,1.75,.03h2.94v-2.44h-1.78l-1.62,.04-.09-.07v-1.45l.08-.07,1.63,.04h1.78v-1.98h-2.6l-1.61,.04-.09-.07v-1.46l.08-.07,1.62,.04h3.23Z"/><path id="c" class="at" d="M62.21,359.86c.82-.83,1.52-1.78,2.06-2.81l-1.06,.03-.09-.09,.04-1.14v-1.61l.12-.12h1.31l.16,.11v1.46h1.19v-2.01l.1-.09h1.45l.09,.09v2.01h1.27v-1.51l.09-.1h1.5l.1,.08v1.64l.04,1.19-.09,.09-1.35-.04h-1.73l1.29,.35,.09,.15c-.16,.26-.31,.47-.45,.68h.95l1.56-.05,.1,.07v1.14l-.1,.07-1.56-.02h-1.09v.57h.68l1.49-.04,.09,.07v1.09l-.09,.08-1.49-.04h-.68v.59h.68l1.49-.04,.09,.09v1.07l-.09,.07-1.49-.03h-.68v.65h1.29l1.61-.05,.08,.07v1.19l-.08,.07-1.61-.04h-4.46v.58h-1.71l.08-3.3v-1.22l-.31,.31c-.05,.05-.11,.09-.18,.1-.07,0-.13-.05-.21-.15l-.48-.56v4.81h-1.71l.07-3.82v-1.27c-.11,.27-.26,.54-.43,.78-.07,.09-.13,.13-.18,.13s-.1-.05-.12-.14l-.42-1.69c.92-1.82,1.53-3.77,1.81-5.78l.11-.06,1.47,.34,.06,.11c-.21,.95-.42,1.79-.65,2.56v3.35Zm2.54-2.82l1.01,.4,.02,.14c-.11,.21-.25,.43-.38,.64h1.24c.18-.35,.36-.69,.56-1.12l.06-.05h-2.51Zm.27,2.96h1.57v-.57h-1.57v.57Zm0,1.74h1.57v-.59h-1.57v.59Zm0,1.81h1.57v-.66h-1.57v.66Z"/><path id="d" class="at" d="M80.24,357.15c-.02,.69-.57,1.24-1.25,1.26-.69,0-1.25-.56-1.24-1.25,0-.69,.56-1.25,1.25-1.24,.68,0,1.24,.55,1.24,1.24m0,4.65c-.02,.69-.57,1.24-1.25,1.26-.69,0-1.25-.56-1.25-1.25,0-.69,.56-1.25,1.25-1.25,.68,0,1.24,.55,1.25,1.24"/><path id="e" class="at" d="M86.76,357.14l-.08-.07v-1.3l.08-.08,1.43,.04h1.48l1.47-.04,.07,.06v1.32l-.07,.06-1.47-.04h-1.48l-1.42,.04Zm7.16-.98h-.85l-1.76,.04-.07-.09v-1.35l.1-.06,1.73,.04h.85v-1.1l.06-.08h1.47l.06,.08v1.1h.99l1.88-.04,.07,.09v1.32l-.07,.09-1.88-.04h-.99v.56h.99l1.51-.04,.08,.1-.04,1.39v1.35l.04,1.8-.1,.08-1.39-.03h-.47c.73,.83,1.57,1.55,2.5,2.16l-.98,1.33c-.03,.06-.09,.11-.16,.11-.06,0-.12-.04-.16-.09-.71-.67-1.34-1.42-1.86-2.24l.08,2.75h-1.69l.09-2.6c-.58,.83-1.28,1.57-2.07,2.21-.04,.04-.1,.06-.16,.06-.07,0-.13-.03-.18-.09l-.64-.86,.03,1h-1.58v-.54h-.74v.68h-1.55l.07-2.22v-.62l-.04-1.24,.08-.08,1.42,.03h.72l1.53-.03,.09,.08-.04,1.24v1.16c.44-.3,.85-.63,1.24-.98,.41-.37,.79-.78,1.12-1.22h-.2l-1.52,.03-.09-.08,.04-1.73v-1.49l-.04-1.35,.09-.07,1.57,.04h.82v-.55Zm-6.57-.86l-.09-.08v-1.21l.08-.07,1.28,.04h.8l1.28-.04,.08,.06v1.24l-.08,.06-1.28-.04h-.8l-1.27,.04Zm0,3.6l-.09-.08v-1.21l.08-.08,1.28,.04h.8l1.28-.04,.08,.07v1.24l-.08,.07-1.28-.04h-.8l-1.27,.04Zm0,1.75l-.09-.07v-1.22l.08-.07,1.28,.04h.8l1.28-.04,.08,.06v1.24l-.08,.06-1.28-.03h-.8l-1.27,.03Zm2,1.72h-.74v.93h.74v-.93Zm4.64-4.43h-1.09v2.19h1.09v-2.19Zm-.6,1.96l-.07-.04c-.08-.47-.2-.93-.35-1.38l.04-.08,.48-.19,.09,.03c.18,.44,.32,.89,.41,1.36l-.04,.08-.56,.22Zm3.19-1.96h-1.12v2.19h1.12v-2.19Zm-.1,.5c-.07,.47-.19,.92-.34,1.37,0,.05-.05,.09-.1,.09,0,0,0,0,0,0-.05,0-.09-.01-.14-.04l-.4-.15c.15-.47,.26-.95,.34-1.44l.09-.02,.52,.12,.04,.07Z"/><path id="f" class="at" d="M110.36,353.92l.1,.1-.04,1.51v2.29l.04,1.91-.11,.09-1.69-.04h-1.57v1.16h2.92l1.99-.03,.08,.08v1.44l-.08,.09-1.99-.04h-2.9l.05,2.87h-1.96l.05-2.87h-2.86l-1.98,.04-.09-.1v-1.44l.1-.07,1.97,.03h2.88v-1.16h-1.34l-1.85,.04-.09-.09,.04-1.86v-2.4l-.04-1.47,.09-.08,1.91,.04h4.55l1.83-.04Zm-6.61,2.25h4.87v-.73h-4.87v.73Zm0,2.13h4.87v-.74h-4.87v.74Z"/><path id="g" class="at" d="M118.76,353.62l.09-.1h1.73l.09,.09v1.55h2.98l1.87-.03,.08,.08v1.44l-.08,.09-1.87-.04h-7.69l-1.86,.04-.09-.1v-1.44l.1-.07,1.84,.03h2.8v-1.54Zm1.88,8.69l.07,3.04h-1.98l.06-3.04v-2.72h-1.67v4.41h-1.87l.06-2.67v-1.79l-.03-1.41,.08-.09,1.99,.04h1.44v-.99l.09-.09h1.69l.07,.1v.97h1.65l1.99-.04,.08,.09-.03,1.57v.98l.04,1.89c0,1.12-.51,1.59-2.44,1.59-.21,0-.26-.02-.31-.17l-.53-1.53c.36,.01,.73,0,1.05-.01,.26-.01,.32-.08,.32-.34v-2.52h-1.83v2.72Z"/><path id="h" class="at" d="M131.67,362.07l.47-.46,.12-.03c.46,.31,.88,.66,1.27,1.05v.12s-.85,.94-.85,.94h-.13c-.27-.34-.57-.65-.88-.95l.08,2.57h-1.76l.13-2.41c-.41,.59-.89,1.13-1.44,1.61-.05,.05-.12,.09-.2,.1-.07,0-.11-.04-.19-.12l-.84-1.03c.84-.61,1.58-1.33,2.2-2.16h-.26l-1.39,.04-.09-.07v-1.27l.08-.07,1.4,.04h.67v-.69l.06-.06h1.47l.07,.06v.69h.53l1.44-.04,.08,.06v1.29l-.08,.06-1.44-.04h-.53v.77Zm2.04-4.48l.08,.09v1.25l-.08,.08-1.43-.04h-3.08l-1.39,.04-.08-.08v-1.25l.08-.09,1.25,.04c-.08-.35-.17-.71-.26-.99l.08-.11,1.24-.26,.11,.1c.15,.41,.26,.83,.35,1.26h.6c.13-.43,.22-.86,.31-1.29l.11-.06,1.31,.3,.09,.1c-.1,.3-.2,.64-.31,.95l1.02-.03Zm-1.73-2.75l1.56-.04,.09,.07v1.21l-.09,.09-1.56-.04h-2.35l-1.51,.04-.08-.09v-1.2l.08-.09,1.51,.04h.39v-1.19l.09-.09h1.49l.07,.1v1.18h.3Zm3.69,4.47c0,3.14-.43,4.51-1.62,5.9-.08,.07-.12,.12-.18,.12-.06,0-.13-.03-.18-.07l-1.14-.79c1.2-1.35,1.5-2.41,1.5-4.8v-3.08l-.04-2.05,.08-.09,1.2,.21c.91-.15,1.8-.41,2.64-.78h.11c.41,.33,.79,.7,1.12,1.1v.12c-1.14,.42-2.31,.72-3.51,.9v1.57h2.22l1.28-.03,.07,.08v1.3l-.07,.08-.97-.02v3.37l.07,2.97h-1.77l.06-2.97v-3.39h-.89v.33Z"/><path id="i" class="at" d="M150.47,360.8h.98l1.35-.04,.08,.07v1.35l-.08,.06-1.35-.03h-.98v.15l.06,3h-1.82l.06-3v-.15h-.7l-1.19,.03v1.04l-.09,.09-1.54-.04h-.46l.04,2.02h-1.69l.04-2.02h-.5l-1.47,.04-.1-.09v-1.28l.09-.08,1.48,.04h.51v-.57h-.05l-1.51,.04-.07-.09,.06-1.33v-2.04l-.03-1.21,.08-.09,1.41,.05h.11v-.66h-.45l-1.41,.04-.1-.08v-1.27l.08-.08,1.42,.04h.45v-1.1l.09-.1h1.44l.07,.11v1.09h.59l1.42-.04,.09,.09v1.26l-.09,.08-1.42-.04h-.6v.66h.21l1.41-.05,.09,.09-.03,.72c1.15-1.07,2.03-2.41,2.55-3.9l.11-.04,1.43,.43,.03,.11c-.05,.14-.1,.26-.15,.4,.72,1.14,1.66,2.12,2.76,2.9l-.78,1.22c-.1,.16-.16,.23-.25,.23-.08-.01-.14-.05-.2-.11v.67l-.08,.06-1.1-.04h-.32v1.37Zm-5.57-2.89h-1.76v.59h1.76v-.59Zm-1.77,2.29h1.76v-.62h-1.76v.62Zm5.33-.78l-1.09,.04-.08-.07v-.52s-.09,.05-.15,.06c-.07,0-.11-.03-.18-.11l-.51-.55v1.74l.04,1.32-.09,.1-1.49-.04h-.13v.57h.47l1.4-.04v-1.09l.07-.08,1.35,.04h.7v-1.37h-.31Zm0-1.35h2.79c-.61-.62-1.13-1.31-1.53-2.08-.43,.75-.95,1.45-1.56,2.07h.3Z"/><path id="j" class="at" d="M163.76,363.81c0,1.2-.47,1.52-1.86,1.52-.21,0-.26-.02-.32-.15l-.63-1.41c-.36,.41-.78,.76-1.25,1.05-.06,.04-.13,.07-.21,.08-.07,0-.14-.04-.18-.1l-.91-1.04c1-.45,1.78-1.28,2.17-2.31h-.14l-.96,.02-.08-.1v-.95l-.65,.26-.1-.06c-.03-.17-.06-.35-.1-.52-.19,.02-.38,.07-.56,.1v2.11l.06,3.05h-1.57l.06-3.05v-1.89c-.45,.07-.92,.14-1.42,.2l-.11-.06-.29-1.32,.09-.09c.3,0,.59-.01,.88-.02,.25-.34,.48-.71,.7-1.06-.52-.53-1.1-1-1.72-1.41v-.1l.67-1h.1c.1,.07,.2,.12,.3,.2,.35-.71,.66-1.44,.92-2.19l.11-.05,1.31,.49,.04,.11c-.48,1.01-.89,1.73-1.31,2.44,.11,.09,.21,.19,.31,.29,.31-.55,.6-1.1,.91-1.72l.11-.05,1.2,.64,.03,.11c-.59,1.12-1.27,2.18-2.02,3.19,.3-.03,.59-.05,.89-.09-.06-.2-.13-.4-.21-.59l.08-.1,.93-.35,.1,.03c.31,.7,.54,1.43,.69,2.18l.62,.02h.47l.61-.04,.62,.58v-1.29h-.65l-1.49,.04-.09-.1,.06-1.12v-2.29l-.03-1.01,.08-.09,1.4,.04h.23c.15-.42,.27-.86,.36-1.29l.1-.08,1.61,.32,.05,.11c-.11,.32-.25,.64-.4,.94h1.07l1.4-.04,.08,.09-.04,1.01v2.32l.04,1.07-.1,.11-1.47-.04h-.59c.15,.44,.34,.87,.56,1.28,.37-.35,.72-.74,1.03-1.15h.11s1.14,.96,1.14,.96v.13c-.47,.44-.97,.84-1.5,1.2,.5,.55,1.07,1.03,1.69,1.44l-.88,1.41c-.02,.05-.08,.08-.13,.08-.05,0-.09-.02-.12-.05-.81-.69-1.47-1.55-1.94-2.51l.06,1.62Zm-7.42-2.72l.07,.09c-.04,1.09-.18,2.17-.41,3.24-.04,.14-.07,.18-.15,.18-.05,0-.09-.01-.13-.04l-1.03-.47c.26-1.03,.4-2.09,.42-3.16l.08-.06,1.15,.21Zm2.66-.27l.1,.05c.23,.58,.4,1.18,.52,1.8l-.05,.11-1,.41-.09-.07c-.07-.65-.21-1.29-.39-1.91l.07-.09,.85-.31Zm3.14,.67c-.21,.78-.57,1.51-1.07,2.15,.25,0,.5,0,.74-.04,.26-.02,.34-.1,.34-.4v-1.71Zm-.57-4.96h2.63v-.5h-2.63v.5Zm2.63,1.1h-2.63v.53h2.63v-.53Z"/><path id="k" class="at" d="M172.37,353.92l1.31-.04,.09,.09-.04,1.31v1.57l.04,1.38-.1,.11-1.31-.04h-1.93v7.03h-1.58l.06-4.2v-5.52l-.04-1.65,.08-.09,1.32,.04h2.1Zm-.15,1.18h-1.79v.51h1.79v-.51Zm-1.79,2.02h1.79v-.52h-1.79v.52Zm1.48,5.12l-1.08,.03-.1-.08v-1.15l.09-.07,1.09,.04h.37c.01-.32,0-.63,0-.95h-.11l-1.01,.03-.1-.08v-1.12l.08-.07,1.03,.04h4.16l1.03-.04,.09,.09v1.11l-.09,.08-1.03-.03h-.13v.95h.46l1.02-.04,.08,.09v1.14l-.08,.08-1.02-.03h-.46l.06,2.52h-1.65l.07-2.52h-1.01c-.05,.34-.15,.66-.29,.97-.34,.75-.95,1.34-1.7,1.67-.04,.02-.09,.04-.14,.04-.07,0-.14-.04-.18-.1l-.89-1.02c.62-.17,1.16-.56,1.52-1.1,.08-.15,.14-.31,.17-.47h-.25Zm1.89-2.19c0,.32,0,.63-.01,.95h.89v-.95h-.88Zm2.19-1.74l-1.31,.04-.1-.11,.04-1.38v-1.57l-.04-1.31,.09-.09,1.31,.04h2.29l1.32-.04,.08,.09-.04,1.65v4.67l.06,3.53c0,1.1-.79,1.44-2.09,1.44-.25,0-.3-.07-.34-.18l-.54-1.45c.38,0,.76-.01,1.14-.05,.15-.03,.17-.08,.17-.37v-4.89h-2.04Zm2.04-3.2h-1.88v.51h1.88v-.51Zm-1.88,2.02h1.88v-.52h-1.88v.52Z"/><path id="l" class="at" d="M188.73,359.34h1.25l2.05-.04,.09,.09v1.15l-.09,.09-2.05-.04h-1.25v.5h2.72l2.05-.04,.09,.09v1.19l-.09,.09-2.05-.04h-1.84c1.38,.64,2.84,1.09,4.34,1.35l-.94,1.32c-.03,.06-.09,.09-.15,.09-.05,0-.11,0-.16-.02-1.42-.36-2.77-.96-3.99-1.77l.09,2.02h-1.84l.08-1.95c-1.21,.78-2.53,1.4-3.91,1.83-.05,.02-.1,.03-.16,.04-.08,0-.15-.04-.19-.11l-.94-1.21c1.49-.34,2.92-.87,4.27-1.58h-1.78l-1.99,.04-.08-.09v-1.19l.08-.09,1.99,.04h2.67v-.5h-1.17l-2.05,.04-.09-.09v-1.15l.09-.09,2.05,.04h1.17v-.48h-1.87l-2.05,.04-.08-.09v-1.19l.08-.09,2.05,.04h.3c-.06-.28-.14-.56-.24-.83h-.95l-1.99,.04-.09-.09v-1.21l.09-.09,1.54,.02c-.13-.34-.29-.68-.47-1.01l.06-.1,1.3-.43,.1,.04c.27,.49,.52,.99,.73,1.51h.39v-1.81l.09-.1h1.45l.1,.09v1.82h.6v-1.81l.09-.1h1.49l.1,.09v1.82h.37c.26-.5,.46-1.02,.62-1.56l.12-.05,1.52,.5,.04,.13c-.14,.27-.34,.63-.55,.98l1.53-.02,.09,.09v1.21l-.09,.09-1.99-.04h-.72c-.08,.29-.21,.56-.32,.83h.2l2.05-.04,.09,.09v1.19l-.09,.09-2.05-.04h-1.94v.49Zm-1.84-2.6c.11,.28,.2,.54,.29,.83h1.58c.07-.27,.14-.54,.2-.83h-2.07Z"/><path id="m" class="at" d="M195.66,357.13l-.09-.08v-1.3l.08-.07,1.43,.04h2.35l1.47-.04,.07,.06v1.32l-.07,.06-1.47-.04h-2.35l-1.42,.04Zm2.05,7.42v.64h-1.58l.06-2.22v-.58l-.04-1.24,.07-.08,1.42,.03h1.26l1.53-.03,.08,.08-.03,1.24v.66l.06,2.04h-1.63v-.53h-1.22Zm-1.29-9.26l-.09-.08v-1.21l.08-.08,1.28,.04h1.3l1.28-.04,.08,.07v1.24l-.08,.07-1.28-.04h-1.3l-1.27,.04Zm0,3.6l-.09-.07v-1.21l.08-.08,1.28,.04h1.3l1.28-.04,.08,.06v1.24l-.08,.06-1.28-.04h-1.3l-1.27,.04Zm0,1.75l-.09-.07v-1.21l.08-.08,1.28,.04h1.3l1.28-.04,.08,.07v1.24l-.08,.06-1.29-.05h-1.3l-1.27,.05Zm2.51,1.74h-1.21v.88h1.22v-.88Zm4.22-2.88v3.54c0,.48,.09,.51,1.17,.51,1.27,0,1.44-.14,1.5-1.57l1.57,.52c.12,.04,.12,.09,.12,.21-.05,1.11-.22,1.64-.56,1.95-.36,.34-.72,.53-2.78,.53-2.42,0-2.76-.21-2.76-1.58v-2.24s0-1.88,0-1.88l-.02-1.43,.07-.09,1.35,.04h2.08v-2.47h-2.2l-1.44,.02-.09-.1v-1.37l.1-.08,1.5,.04h2.22l1.59-.04,.1,.1-.03,1.52v2.01l.03,1.79-.11,.09-1.46-.04-1.97,.02Z"/><path id="n" class="at" d="M216.29,354.01c-.05,.05-.09,.11-.14,.16,1.47,1.23,3.2,2.14,5.05,2.65l-1.02,1.36c-.11,.16-.2,.26-.32,.26-.06,0-.12-.02-.17-.05-.87-.39-1.7-.86-2.48-1.41v.6l-.07,.07-1.26-.04h-1.57l-1.25,.04-.08-.08v-.49c-.6,.43-1.24,.8-1.91,1.11l1.7,.04h4.56l.86-.06,.63,.62c.08,.06,.13,.15,.13,.25,0,.08-.03,.17-.06,.25-.34,.85-.72,1.67-1.15,2.47l-1.59-.73c.27-.45,.51-.93,.69-1.42h-4.09l-1.86,.04-.09-.08v-1.26c-.06,.02-.14,.06-.2,.09-.08,.04-.16,.06-.25,.06-.08,0-.15-.04-.2-.1l-1.09-1.27c2.08-.66,3.93-1.91,5.31-3.6l.14-.03,1.73,.42,.04,.14Zm-4.29,8.04l.05,.13c-.28,.95-.66,1.86-1.15,2.72l-.13,.04-1.48-.67-.02-.12c.48-.8,.87-1.65,1.16-2.54l.11-.06,1.46,.5Zm2.13,1.22c0,.3,.01,.32,.72,.32,1.06,0,1.37-.04,1.62-.24,.22-.19,.27-.31,.34-.92l1.52,.67c.13,.06,.16,.1,.13,.25-.02,.48-.23,.93-.58,1.25-.42,.37-.9,.53-3.21,.53-1.98,0-2.34-.21-2.34-1.11l.02-1.02v-1.37l.09-.1h1.59l.1,.11v1.62Zm.86-2.98h.13c.6,.4,1.13,.89,1.58,1.45l-.04,.13-1.26,.95-.13-.04c-.39-.6-.87-1.14-1.42-1.59l.03-.12,1.11-.77Zm1.33-3.96c-.42-.34-.81-.69-1.2-1.05-.38,.36-.76,.72-1.16,1.05h.34s1.57,0,1.57,0h.45Zm2.78,5.05h.13c.68,.59,1.28,1.27,1.76,2.02l-.03,.12-1.35,.98-.12-.03c-.42-.81-.97-1.55-1.61-2.2l.03-.12,1.19-.77Z"/><path id="o" class="at" d="M229.62,363.48c0,1.41-.41,1.87-2.47,1.87-.25,0-.27-.02-.32-.15l-.62-1.45c.58,0,1.11-.02,1.32-.05,.26-.03,.34-.1,.34-.4v-.14h-2.1l-1.67,.03-.1-.1v-1.05l.1-.08,1.67,.04h2.1v-.38h-3.34l-1.63,.03-.1-.1v-1.05l.1-.08,1.63,.04h3.34v-.35h-2.09l-1.63,.02-.1-.1v-1.05l.1-.08,1.63,.04h2.09v-.39h-1.72l-1.62,.04-.08-.1,.06-1.05v-.46l-.04-1,.09-.09,1.58,.04h1.72v-.42h-3.09l-1.75,.02-.1-.1v-1.14l.1-.07,1.75,.03h3.09v-.67l.11-.1h1.48l.11,.1v.67h2.97l1.89-.03,.09,.08v1.14l-.09,.09-1.89-.02h-2.98v.42h1.77l1.61-.04,.08,.09-.03,1v.46l.03,1.04-.08,.11-1.61-.04h-1.77v.39h1.78l1.84-.04,.09,.08-.04,1.28v.14l1.39-.03,.08,.09v1.12l-.08,.08h-1.39s.06,1.95,.06,1.95h-1.73v-.48h-1.97l.02,.32Zm-3.49-5.97h1.73v-.51h-1.73v.51Zm3.44,0h1.75v-.51h-1.75v.51Zm2,2.62h-2v.35h2v-.35Zm0,1.88v-.38h-1.99v.38h1.99Z"/><path id="p" class="at" d="M243.18,359.34h1.25l2.05-.04,.09,.09v1.15l-.09,.09-2.05-.04h-1.25v.5h2.71l2.05-.04,.09,.09v1.19l-.09,.09-2.05-.04h-1.84c1.38,.64,2.84,1.09,4.34,1.35l-.94,1.32c-.03,.06-.09,.09-.15,.09-.05,0-.11,0-.16-.02-1.42-.36-2.77-.96-3.99-1.77l.09,2.02h-1.84l.08-1.95c-1.21,.78-2.53,1.4-3.91,1.83-.05,.02-.1,.03-.16,.04-.08,0-.15-.04-.19-.11l-.94-1.21c1.49-.34,2.92-.87,4.27-1.58h-1.78l-1.99,.04-.08-.09v-1.19l.08-.09,1.99,.04h2.68v-.5h-1.17l-2.05,.04-.09-.09v-1.15l.09-.09,2.05,.04h1.17v-.48h-1.87l-2.05,.04-.08-.09v-1.19l.08-.09,2.05,.04h.3c-.06-.28-.14-.56-.24-.83h-.96l-1.99,.04-.09-.09v-1.21l.09-.09,1.54,.02c-.13-.34-.29-.68-.47-1.01l.06-.1,1.3-.43,.1,.04c.27,.49,.52,.99,.73,1.51h.39v-1.81l.09-.1h1.45l.1,.09v1.82h.6v-1.81l.09-.1h1.49l.1,.09v1.82h.37c.26-.5,.46-1.02,.62-1.56l.12-.05,1.52,.5,.04,.13c-.14,.27-.34,.63-.55,.98l1.53-.02,.09,.09v1.21l-.09,.09-1.99-.04h-.72c-.08,.29-.21,.56-.32,.83h.2l2.05-.04,.09,.09v1.19l-.09,.09-2.05-.04h-1.94v.49Zm-1.84-2.6c.11,.28,.2,.54,.29,.83h1.58c.07-.27,.14-.54,.2-.83h-2.07Z"/><path id="q" class="at" d="M253.48,358.24l-1.73,.04-.09-.08v-.64h-1.22l.06-1.56v-.22l-.04-1.04,.09-.09,2.05,.04h2.34v-1.09l.08-.08h1.66l.09,.08v1.09h2.55l2.04-.04,.1,.09-.04,.93v.34l.06,1.56h-1.27v.64l-.09,.08-1.74-.04h-1.58c0,.21-.01,.41-.01,.62h1.26l1.93-.04,.09,.09v1.25l-.09,.09-1.93-.04h-1.35c-.02,.21-.05,.43-.09,.64h3.01l1.93-.04,.09,.09v1.27l-.09,.09-1.93-.04h-2.29c1.33,.93,2.9,1.46,4.52,1.51l-.9,1.39c-.07,.13-.22,.18-.36,.13-1.79-.19-3.44-1.03-4.65-2.36-.79,1.25-2.3,2.09-4.61,2.42-.18,.02-.26,.02-.35-.11l-.87-1.32c2.19-.27,3.54-.71,4.23-1.66h-2.02l-1.93,.04-.08-.09v-1.27l.08-.09,1.93,.04h2.55c.04-.21,.07-.43,.1-.64h-1.19l-1.93,.04-.09-.09v-1.25l.09-.09,1.93,.04h1.27c0-.21,.01-.4,.01-.62h-1.58Zm4.9-1.3l1.32-.02v-.87h-7.53v.87l1.31,.02h1.57v-.56l.08-.09h1.6l.08,.09v.56h1.56Z"/><path id="r" class="at" d="M266.91,365.36h-1.75l.06-3.19v-1.58c-.19,.27-.41,.51-.65,.73-.05,.04-.1,.06-.16,.07-.07,0-.12-.05-.16-.13l-.58-1.51c1.11-.93,2.03-2.07,2.7-3.35h.12s1.32,.71,1.32,.71l.04,.11c-.28,.53-.59,1.04-.93,1.53v6.62Zm-.54-11.86l1.32,.78,.04,.11c-.75,1.07-1.69,2-2.76,2.74-.04,.04-.09,.07-.15,.08-.06,0-.1-.05-.17-.14l-.92-1.25c1-.58,1.86-1.37,2.52-2.31h.12Zm3.5,5.53l-1.84,.04-.09-.08v-1.44l.09-.09,1.84,.04h3.61l1.84-.04,.09,.09v1.44l-.09,.08-1.84-.04h-.19v1.77l.05,2.7c0,1.46-.51,1.87-2.74,1.87-.25,0-.27-.03-.32-.15l-.69-1.59c.58,0,1.38-.02,1.59-.05,.26-.02,.34-.1,.34-.39v-4.14h-1.65Zm-1.09-3.25l-.09-.08v-1.44l.09-.08,1.84,.03h2.3l1.84-.03,.09,.08v1.44l-.09,.08-1.84-.04h-2.3l-1.84,.04Z"/><path id="s" class="at" d="M282.27,358.19c-1.17,.82-2.45,1.46-3.8,1.91-.05,.02-.1,.04-.16,.04-.07,0-.13-.04-.16-.1l-1.04-1.23c1.36-.35,2.68-.86,3.92-1.51h-1.3l-2.05,.04-.09-.08v-1.29l.11-.06,2.02,.04h2.51v-.53c-1.01,.05-1.96,.09-2.76,.09-.16,0-.25-.04-.28-.1l-.79-1.26c2.62,.09,5.24-.08,7.82-.51h.12c.5,.36,.97,.76,1.4,1.19l-.04,.13c-1.05,.12-2.36,.26-3.7,.36v.64h2.67l2.05-.04,.09,.09v1.26l-.09,.08-2.05-.04h-1.53c1.32,.59,2.69,1.05,4.1,1.37l-1.12,1.37c-.03,.07-.1,.11-.17,.1-.05,0-.1-.01-.15-.04-1.36-.5-2.65-1.17-3.85-1.99l.09,1.36h-1.6l.85,.25,.05,.09c-.1,.18-.21,.37-.31,.54h3.82l2.05-.04,.09,.09v1.27l-.09,.09-2.05-.04h-.47c-.08,.21-.15,.42-.24,.62-.11,.23-.25,.46-.41,.66,.99,.28,1.91,.58,2.8,.9l.03,.12-1.06,1.25-.15,.04c-1-.41-1.97-.79-2.98-1.12-1.73,.81-3.64,1.18-5.55,1.07-.16,.02-.32-.07-.39-.21l-.81-1.16c1.49,.03,2.98-.11,4.45-.4-.34-.1-.69-.19-1.04-.27-.06,.09-.13,.18-.21,.26l-.12,.05-1.56-.43-.05-.13c.34-.42,.67-.83,.97-1.25h-.57l-2.05,.04-.09-.09v-1.29l.11-.07,2.02,.04h1.51c.21-.34,.4-.66,.6-1.02l.11-.07,.46,.14,.07-1.2Zm-.1,3.54c-.08,.11-.16,.22-.24,.35,.67,.14,1.33,.29,1.99,.45,.22-.23,.39-.5,.51-.79h-2.26Z"/><path id="t" class="at" d="M299.9,363.45c.94,.16,1.87,.36,2.8,.62l.02,.13-.91,1.15-.15,.04c-1.34-.5-2.73-.86-4.15-1.08l-.03-.1,.76-.77h-3.06l.87,.64v.13c-1.32,.6-2.74,.97-4.19,1.1-.21,.02-.24,0-.3-.1l-.73-1.2c1.14-.07,2.27-.26,3.37-.58l-1.85,.04-.09-.09,.04-2.05v-2.08l-.04-1.59,.09-.09,1.84,.04h5.18l1.84-.04,.09,.09-.04,1.59v2.08l.04,2.05-.09,.09-1.32-.02Zm-6.82-6.28l-.08-.09,.03-1.26v-.77l-.03-1.04,.08-.09,1.84,.04h3.73l1.84-.04,.09,.09-.04,1.03v.71l.04,1.32-.09,.09-1.84-.04h-3.73l-1.84,.04Zm6.42,1.63h-5.47v.48h5.47v-.48Zm0,1.49h-5.47v.47h5.47v-.47Zm-5.47,1.95h5.47v-.47h-5.47v.47Zm4.81-7.05h-4.15v.69h4.15v-.69Z"/><path id="u" class="at" d="M313.33,359.01l-.08,.06-1.39-.04h-2.9l-1.37,.04-.09-.07v-.74c-.45,.34-.93,.64-1.43,.95-.09,.06-.19,.1-.3,.11-.08,0-.15-.03-.2-.08l-1.21-1.2c2.1-1.03,3.88-2.61,5.15-4.57l.14-.04,1.76,.45,.04,.12c-.07,.11-.15,.21-.21,.32,1.49,1.48,3.29,2.62,5.26,3.35l-1.16,1.32c-.14,.16-.25,.22-.34,.22-.08,0-.16-.03-.22-.08-.51-.28-.99-.58-1.44-.89v.76Zm-3.17,2.41c-.32,.69-.69,1.36-1.1,2,1.1-.04,2.2-.12,3.3-.21-.34-.32-.67-.62-1.02-.9l.02-.11,1.22-.71h.11c1.06,.78,2.04,1.69,2.91,2.69v.1s-1.28,1.05-1.28,1.05h-.12c-.21-.3-.42-.58-.64-.83-2.7,.31-4.85,.48-7.76,.67l-.11-.06-.5-1.46,.09-.11c.69-.01,1.31-.03,1.9-.04,.39-.67,.74-1.36,1.04-2.08h-1.15l-1.99,.04-.09-.08v-1.43l.08-.08,2,.04h6.74l2-.04,.07,.07v1.45l-.07,.07-2-.04h-3.63Zm2.2-3.9c-.73-.6-1.42-1.25-2.05-1.95-.56,.71-1.2,1.37-1.89,1.95h.55s2.9,.01,2.9,.01h.5Z"/></g><path id="v" class="at" d="M293.12,6.47l8.65-.24,.57,.57-.25,8.65v10.36l.25,9.14-.65,.73-8.65-.25h-12.72v46.41h-10.44l.41-27.73V17.64l-.25-10.85,.49-.57,8.73,.24h13.87Zm-.98,7.83h-11.83v3.34h11.83v-3.34Zm-11.83,13.3h11.83v-3.43h-11.83v3.43Zm9.79,33.77l-7.1,.16-.65-.49v-7.59l.57-.49,7.18,.25h2.45c.08-2.12,0-4.16,0-6.28h-.73l-6.69,.16-.65-.49v-7.42l.57-.49,6.77,.25h27.49l6.77-.25,.57,.57v7.34l-.57,.49-6.77-.16h-.9v6.28h3.01l6.77-.25,.57,.57v7.5l-.57,.49-6.77-.16h-3.01l.4,16.64h-10.83l.4-16.64h-6.69c-.32,2.22-.95,4.39-1.88,6.44-2.21,4.73-5.63,8.24-11.26,11.01-.28,.15-.59,.23-.9,.25-.49-.01-.94-.26-1.22-.65l-5.87-6.69c5.06-2.04,8.32-4.08,10.03-7.26,.53-.97,.91-2.02,1.14-3.1h-1.63Zm12.48-14.44c0,2.12,0,4.16-.08,6.28h5.87v-6.28h-5.79Zm14.44-11.5l-8.65,.25-.65-.73,.25-9.14V15.44l-.25-8.65,.57-.57,8.65,.24h15.09l8.73-.24,.49,.57-.25,10.85v30.83l.41,23.33c0,7.26-5.22,9.46-13.79,9.46-1.63,0-1.96-.41-2.28-1.22l-3.51-9.55c2.5,.03,5.01-.08,7.5-.33,.98-.16,1.14-.49,1.14-2.45V35.43h-13.46Zm13.46-21.12h-12.4v3.34h12.4v-3.34Zm-12.4,13.3h12.4v-3.43h-12.4v3.43Z"/><path id="w" class="at" d="M341.08,171.71c-.33,.82-.57,.82-1.47,.82-6.77,.25-13.62,.41-19.9,.41-7.18,0-13.79-.16-18.92-.57-7.1-.49-13.7-2.12-18.52-8.16-3.1,2.53-6.28,5.55-9.79,8.65l-.73-.33-5.79-9.54,.25-.73c4.16-2.61,7.34-4.49,11.09-6.53v-17.37h-1.88l-7.42,.25-.57-.49v-9.3l.49-.49,7.5,.25h1.96l10.52-.25,.57,.57-.25,12.24v15.58c2.86,4.32,8.81,5.47,16.48,5.79,10.11,.4,26.92-.33,40.95-1.39l-4.56,10.6Zm-60.12-55.3h-1.06c-3.25-4.33-7.12-8.15-11.5-11.33l.08-.65,7.18-5.79,.98,.16c4.39,2.91,8.39,6.36,11.9,10.27l-.08,.9-7.5,6.44Zm29.61,.16c-3.34-1.38-6.77-2.69-10.44-3.83l-.16-.65,4.73-4.65h-1.39l-12.32,.25-.57-.49v-7.99l.65-.57,12.24,.25h23.49l5.71-.41,4.16,4.08c.52,.39,.85,.98,.9,1.63-.07,.79-.49,1.51-1.14,1.96-3.67,3.26-7.1,6.12-10.6,8.73,.4,.24,.81,.41,1.14,.65l.16,.81-.33,.25h4.4l8.81-.25,.57,.57-.25,7.25v12.89l.33,14.36c0,7.59-3.1,9.3-12.89,9.3-1.31,0-1.47-.16-1.79-.9l-3.35-8.15c2.61,.08,3.83,0,5.55-.08,.9-.16,1.38-.16,1.38-1.63v-2.69h-7.91l.25,12.81h-11.34l.25-12.81h-7.01v12.89h-10.85l.41-21.62v-14.36l-.25-7.26,.57-.57,8.81,.25h8.07Zm-6.77,11.99h7.18v-4.08h-7.18v4.08Zm7.18,7.18h-7.18v4.32h7.18v-4.32Zm-1.96-28.3c2.69,.98,5.47,2.04,8.08,3.26,1.31-1.22,2.37-2.2,3.51-3.26h-11.59Zm12.48,21.12h8.08v-4.08h-8.08v4.08Zm8.07,7.18h-8.07v4.32h8.08v-4.32Z"/><path id="x" class="at" d="M44.67,6.47l8.58-.24,.57,.57-.24,8.58v10.28l.24,9.07-.65,.73-8.58-.24h-12.63v46.06h-10.36l.4-27.52V17.56l-.24-10.77,.48-.57,8.66,.24h13.77Zm-.97,7.77h-11.74v3.32h11.74v-3.32Zm-11.74,13.2h11.74v-3.4h-11.74v3.4Zm9.71,33.51l-7.04,.16-.65-.49v-7.53l.56-.49,7.12,.24h2.43c.08-2.1,0-4.13,0-6.23h-.73l-6.64,.16-.65-.49v-7.37l.57-.49,6.72,.24h27.28l6.72-.24,.57,.57v7.29l-.57,.49-6.72-.16h-.89v6.23h3l6.72-.24,.57,.57v7.45l-.57,.49-6.72-.16h-3l.4,16.51h-10.76l.4-16.51h-6.63c-.32,2.21-.94,4.36-1.86,6.39-2.19,4.69-5.58,8.18-11.17,10.93-.28,.15-.58,.23-.89,.24-.48-.01-.93-.25-1.21-.65l-5.83-6.63c5.02-2.02,8.26-4.05,9.96-7.2,.52-.97,.9-2,1.13-3.08h-1.62Zm12.39-14.34c0,2.1,0,4.13-.08,6.23h5.83v-6.23h-5.74Zm14.33-11.41l-8.58,.24-.65-.73,.24-9.07V15.37l-.24-8.58,.57-.57,8.58,.24h14.97l8.66-.24,.49,.57-.24,10.77v30.6l.4,23.15c0,7.21-5.18,9.39-13.68,9.39-1.62,0-1.94-.4-2.27-1.21l-3.48-9.48c2.49,.03,4.97-.08,7.45-.32,.97-.16,1.13-.48,1.13-2.43V35.21h-13.35Zm13.36-20.97h-12.3v3.32h12.3v-3.32Zm-12.3,13.2h12.3v-3.4h-12.3v3.4Z"/><path id="y" class="at" d="M92.27,170.87c-.32,.81-.57,.81-1.46,.81-6.72,.24-13.52,.4-19.75,.4-7.12,0-13.68-.16-18.78-.57-6.96-.49-13.6-2.02-18.38-8.1-3.07,2.59-6.39,5.5-9.71,8.58l-.73-.32-5.75-9.48,.24-.73c3.88-2.43,6.88-4.21,10.28-6.15v-17.56h-1.46l-7.04,.24-.57-.49v-9.23l.49-.49,7.12,.24h1.46l10.44-.24,.56,.57-.24,12.14v14.16c2.43,5.59,8.74,6.88,17.16,7.29,10.04,.4,26.71-.32,40.64-1.38l-4.53,10.29Zm-59.66-54.8h-1.05c-3.22-4.3-7.07-8.1-11.41-11.26l.08-.65,7.12-5.75,.97,.16c4.35,2.89,8.32,6.32,11.82,10.2l-.08,.89-7.45,6.4Zm39.34,3.4h6.88l10.44-.24,.57,.57-.24,7.69v8.74l.24,8.34-.57,.73-10.44-.24h-6.88v2.67h11.01l11.09-.24,.49,.4v7.53l-.49,.41-11.09-.24h-10.76l.16,4.94h-10.84l.16-4.94h-9.15l-11.01,.24-.56-.49v-7.37l.48-.49,11.09,.24h9.39v-2.67h-5.99l-10.6,.24-.49-.65,.4-8.42v-8.74l-.24-7.69,.57-.57,10.36,.24h5.99v-2.67h-2.18l-8.58,.24-.57-.49v-1.86h-9.63l.4-7.37v-1.95l-.24-5.99,.65-.57,10.28,.24h31.9l10.36-.24,.57,.57-.24,5.91v2.02l.4,7.37h-10.03v1.94l-.49,.41-8.66-.24h-3.89v2.68Zm-10.04-12.88h-10.28v2.59l8.1,.24h2.19v-2.83Zm.24,19.59h-7.37v2.83h7.37v-2.83Zm-7.37,12.14h7.37v-2.91h-7.37v2.91Zm24.77-12.14h-7.85v2.83h7.85v-2.83Zm-7.85,12.14h7.85v-2.91h-7.85v2.91Zm4.13-28.9l8.18-.24v-2.59h-12.06v2.83h3.88Z"/><rect class="at" x="-.18" y="329.22" width="362.92" height="3"/><g><path id="z" class="at" d="M175.97,114.48c-1.68,.24-3.35,.4-5.11,.48l-.19-.16-.16-3.22,.19-.19c1.84-.08,3.6-.21,5.27-.45l.03-4.66,.21-.19h3.46l.19,.16-.05,4.07c1.12-.24,2.1-.51,3.14-.8l.21,.13,.35,3.22-.19,.21c-1.2,.26-2.4,.56-3.57,.77l-.03,2.58c1.78-.7,3.68-1.1,5.59-1.17,4.37,0,6.63,2.74,6.63,5.75,0,4.07-2.77,6.26-6.71,6.26-1.33,.08-2.66-.24-3.81-.91-.14-.11-.2-.31-.13-.48l.82-3.22c.9,.46,1.89,.71,2.9,.74,1.54-.05,2.72-.88,2.72-2.43,0-1.36-1.04-2.32-2.88-2.32-1.79,.07-3.53,.56-5.09,1.44v5.96c0,1.46-.82,2.48-2.85,2.48-1.73,0-6.66-2.32-6.66-4.95,0-1.63,2.66-4.37,5.67-5.86l.02-3.28Zm.05,7.14c-1.17,.69-1.95,1.44-1.95,1.81,0,.51,1.2,1.15,1.63,1.15,.24,0,.32-.13,.32-.51v-2.45Zm9.67-10.36l1.89-2.8,.29-.05c2.33,.69,4.45,1.94,6.18,3.65l.03,.29-2,2.82-.29,.08c-1.66-1.74-3.73-3.04-6.02-3.78l-.08-.21Z"/><path id="aa" class="at" d="M179.38,170.62c2.79-.93,5.04-3.03,6.15-5.75-1.72-.83-3.58-1.34-5.48-1.52-.7,1.92-1.55,3.78-2.56,5.57-.86,1.44-2.45,2.28-4.13,2.18-2.16-.06-3.87-1.86-3.81-4.02,0-.05,0-.1,0-.16,0-3.89,2.53-6.47,7.8-7.14,.83-2.1,1.25-3.36,1.97-5.51-1.2,.24-2.66,.53-4.34,.85l-.24-.19-.74-3.33,.13-.24c2.93-.53,5.33-.93,6.95-1.2,.3-.05,.6-.08,.91-.08,1.49,0,2.35,.83,2.35,2-.02,.33-.08,.65-.19,.96-.72,2.08-1.62,4.18-2.74,6.92,1.71,.21,3.4,.6,5.03,1.17,.09-1.06,.1-2.13,.03-3.2l.16-.19,3.57,.51,.13,.24c.08,1.42,.04,2.85-.13,4.26,1.11,.57,2.18,1.22,3.2,1.94l.05,.29-1.86,3.22-.27,.11c-.82-.64-1.62-1.14-2.32-1.6-1.24,2.66-3.31,4.84-5.91,6.21-.25,.03-.51-.03-.72-.18l-2.99-2.13Zm-6.39-4.05c0,.56,.16,.83,.48,.83,.35,0,.67-.24,.99-.83,.4-.8,.74-1.54,1.41-3.17-1.6,.21-2.82,1.55-2.88,3.17"/><path id="ab" class="at" d="M187.26,217.04c-4.11-3.13-8.49-5.88-13.1-8.2-1.07-.43-1.77-1.46-1.78-2.61,.08-1.1,.62-2.12,1.49-2.79,3.55-3.31,7.26-6.43,11.13-9.35h.29l2.77,3.06v.27c-3.59,2.37-7.05,4.93-10.36,7.67-.23,.16-.38,.41-.4,.69,.07,.22,.23,.4,.45,.48,4.31,2.06,8.44,4.46,12.36,7.19l.03,.26-2.64,3.3-.24,.03Z"/><path id="ac" class="at" d="M174.24,238.09l3.76,.03,.21,.19c-.13,3.3-.27,5.57-.4,8.31-.11,2.32-.26,5.3-.26,7.38,0,1.92,.9,2.77,2.5,2.77,3.06,0,6.53-2.4,8.79-6.53l2.32,3.09c.25,.22,.29,.59,.08,.85-2.64,4.18-6.82,6.63-10.89,6.63s-6.76-1.89-6.76-6.39c0-3.7,.19-6.18,.27-8.6,.08-2.08,.21-4.42,.21-7.54l.19-.19Zm9.9,3.51l1.39-.99,.27-.03c1.01,.83,1.92,1.78,2.71,2.82l-.03,.27-1.46,1.04h-.27c-.76-1.06-1.65-2.02-2.64-2.88l.03-.24Zm2.51-1.68l1.36-.99,.27-.03c.98,.81,1.87,1.73,2.64,2.74l-.03,.26-1.38,1.01h-.26c-.76-1.02-1.63-1.95-2.61-2.77l.03-.24Z"/><path id="ad" class="at" d="M136.76,22.35l-.11-.09v-1.65l.09-.09,1.82,.05h1.88l1.87-.05,.1,.08v1.68l-.1,.08-1.87-.05h-1.88l-1.81,.05Zm9.1-1.24h-1.09l-2.23,.05-.09-.11v-1.71l.12-.08,2.2,.05h1.08v-1.4l.08-.09h1.87l.08,.09v1.4h1.25l2.39-.05,.08,.11v1.68l-.08,.11-2.39-.05h-1.25v.71h1.25l1.92-.05,.11,.13-.05,1.76v1.72l.05,2.28-.13,.11-1.76-.05h-.6c.93,1.05,2,1.98,3.17,2.75l-1.24,1.68c-.04,.08-.12,.13-.21,.14-.08-.01-.15-.05-.2-.11-.9-.85-1.7-1.8-2.37-2.84l.11,3.49h-2.15l.11-3.3c-.74,1.05-1.62,1.99-2.62,2.8-.06,.05-.13,.08-.2,.08-.09,0-.17-.04-.22-.11l-.82-1.1,.03,1.27h-2.01v-.68h-.94v.86h-1.97l.08-2.83v-.78l-.04-1.57,.09-.11,1.81,.05h.91l1.95-.05,.11,.11-.04,1.57v1.47c.56-.38,1.08-.8,1.57-1.24,.52-.48,1-1,1.43-1.56h-.25l-1.93,.05-.11-.11,.04-2.2v-1.87l-.04-1.71,.11-.09,2,.05h1.04v-.71Zm-8.35-1.1l-.11-.09v-1.55l.09-.09,1.64,.05h1.02l1.63-.05,.1,.08v1.57l-.1,.08-1.63-.05h-1.02l-1.62,.05Zm0,4.57l-.11-.09v-1.54l.09-.09,1.64,.04h1.02l1.63-.04,.1,.08v1.57l-.1,.08-1.63-.04h-1.02l-1.62,.04Zm0,2.23l-.11-.09v-1.54l.09-.09,1.64,.05h1.02l1.63-.05,.1,.08v1.57l-.1,.08-1.63-.05h-1.02l-1.62,.05Zm2.55,2.18h-.94v1.18h.94v-1.18Zm5.89-5.63h-1.38v2.78h1.38v-2.78Zm-.77,2.5l-.09-.05c-.1-.6-.25-1.19-.44-1.76l.05-.09,.61-.24,.11,.03c.23,.56,.4,1.14,.52,1.73l-.05,.09-.71,.28Zm4.05-2.5h-1.43v2.78h1.43v-2.78Zm-.13,.63c-.09,.59-.24,1.17-.42,1.74,0,.07-.07,.12-.14,.11,0,0,0,0,0,0-.06,0-.12-.02-.17-.04l-.5-.19c.19-.6,.33-1.2,.42-1.82l.11-.03,.66,.16,.04,.08Z"/><path id="ae" class="at" d="M168.31,18.26l.12,.12-.04,1.92v2.9l.04,2.43-.14,.11-2.15-.04h-2v1.47h3.71l2.53-.04,.11,.11v1.82l-.11,.11-2.53-.05h-3.69l.06,3.65h-2.48l.06-3.65h-3.65l-2.51,.05-.11-.13v-1.82l.13-.09,2.5,.04h3.66v-1.47h-1.7l-2.36,.04-.11-.11,.05-2.36v-3.06l-.05-1.87,.11-.09,2.43,.04h5.78l2.33-.04Zm-8.41,2.86h6.19v-.93h-6.19v.93Zm0,2.7h6.19v-.94h-6.19v.94Z"/><path id="af" class="at" d="M180.57,17.87l.11-.12h2.2l.11,.11v1.98h3.79l2.37-.05,.11,.11v1.82l-.11,.11-2.37-.05h-9.77l-2.36,.05-.11-.13v-1.82l.13-.09,2.34,.05h3.57v-1.96Zm2.39,11.05l.08,3.86h-2.51l.08-3.86v-3.46h-2.12v5.61h-2.37l.08-3.39v-2.28l-.04-1.79,.11-.11,2.53,.04h1.82v-1.26l.11-.11h2.15l.09,.12v1.24h2.09l2.53-.04,.11,.11-.05,2v1.24l.06,2.4c0,1.43-.64,2.03-3.1,2.03-.27,0-.33-.03-.39-.22l-.68-1.95c.46,.02,.93,0,1.33-.01,.33-.02,.41-.11,.41-.43v-3.2h-2.33v3.45Z"/><path id="ag" class="at" d="M196.06,26.54l.11,6.16h-2.26l.11-6.16v-5.83l-.04-2.36,.11-.11,2.03,.05h1.54l.96-.05,.74,.8c.08,.08,.11,.24,.06,.5-.28,1.35-.65,2.68-1.1,3.98,.78,1.05,1.2,2.32,1.19,3.63,.15,1.27-.76,2.43-2.04,2.58-.12,.01-.25,.02-.37,.01-.24,0-.3-.05-.37-.24l-.57-1.77c1.07,.02,1.29-.16,1.29-.99-.06-1.07-.43-2.09-1.07-2.95-.03-.06-.05-.12-.05-.19,0-.06,.01-.13,.03-.19,.32-1.04,.58-2.1,.77-3.17h-1.07v6.3Zm8.09,4.32c0,.28-.06,.38-.33,.47-1.67,.57-3.38,1.04-5.11,1.4l-.14-.08-.63-1.8,.08-.14c.6-.09,1.18-.19,1.76-.3v-9.72l-.04-2.03,.11-.09,2.04,.05h3.27l2.01-.05,.13,.13-.05,1.92v2.75l.05,2.25-.14,.11-1.84-.05h-.55c.14,.58,.33,1.15,.57,1.7,.5-.46,.96-.95,1.38-1.48h.16l1.43,1.32v.16c-.66,.57-1.35,1.09-2.07,1.56,.65,.78,1.45,1.44,2.34,1.93l-1.37,1.51c-.13,.14-.21,.2-.28,.2-.11-.01-.21-.06-.28-.14-1.02-.76-1.87-1.74-2.48-2.86v1.3Zm.99-10.56h-3.28v.96h3.28v-.96Zm-3.28,3.65h3.28v-1.02h-3.28v1.02Zm2.04,5.12c-.52-1.09-.9-2.23-1.14-3.41h-.9v4.3c.74-.16,1.47-.37,2.18-.61l-.14-.28Z"/><path id="ah" class="at" d="M218.67,24.17h-1.13l-2.06,.05-.11-.08v-1.77l.09-.11,2.07,.04h4.23l2.03-.04,.12,.09v1.77l-.08,.09-2.07-.05h-.83v1.71h1.63l2.03-.05,.12,.09v1.84l-.08,.09-2.07-.05h-1.63v2.35c.46,.02,.97,.03,1.54,.03,1.16,0,2.59-.03,4.57-.19l-.88,2.1c-.06,.14-.11,.14-.28,.16-1.3,.06-2.77,.06-3.99,.05-1.03-.02-2.06-.14-3.06-.36-1.05-.24-2.01-.77-2.76-1.54-.46,.82-1.07,1.54-1.79,2.14-.07,.07-.17,.12-.27,.13-.1,0-.19-.04-.27-.11l-1.54-1.21c1.91-1.41,3.04-3.65,3.03-6.03l.14-.09,1.95,.36,.12,.13c-.08,.98-.27,1.94-.58,2.87,.5,.53,1.12,.94,1.81,1.19v-5.62Zm-.24-6.32l.11-.11h2.11l.11,.11v1.57h3.49l2.18-.05,.13,.11-.05,1.19v.45l.08,2.2h-2.28v-2.02h-9.32v2.02h-2.28l.08-2.04v-.47l-.05-1.34,.14-.11,2.56,.05h2.98v-1.57Z"/><rect id="ai" class="at" x="142.11" y="39.64" width="1.53" height="6.46"/><path id="aj" class="at" d="M147.74,43.96c.11,.73,.44,1.12,1.12,1.12,.33,.04,.63-.18,.68-.51,0-.03,0-.07,0-.1,0-.46-.28-.65-1.3-1-1.18-.42-1.78-.99-1.78-1.97-.02-1.06,.82-1.94,1.88-1.96,.1,0,.19,0,.29,.02,1.15-.13,2.19,.71,2.31,1.86,0,.01,0,.03,0,.04l-1.47,.3c-.06-.78-.36-1.18-.91-1.18-.33-.03-.63,.22-.66,.56,0,.04,0,.07,0,.11,0,.44,.31,.67,1.24,.97,1.37,.44,1.95,.95,1.95,2.01,0,1.2-.87,1.97-2.33,1.97-1.22,.18-2.35-.65-2.54-1.87,0-.05-.01-.11-.02-.16l1.52-.19Z"/><path id="ak" class="at" d="M158.75,46.09h-1.53l-.37-1.52h-1.98l-.36,1.52h-1.42l1.65-6.46h2.36l1.66,6.46Zm-2.68-4.72c-.08-.29-.14-.59-.18-.88h-.04c-.05,.3-.12,.6-.19,.88l-.5,2.04h1.42l-.5-2.04Z"/><path id="al" class="at" d="M166.38,39.64v6.46h-1.53v-2.69h-2.15v2.69h-1.53v-6.46h1.53v2.57h2.15v-2.57h1.53Z"/><path id="am" class="at" d="M174.45,46.09h-1.53l-.37-1.52h-1.98l-.36,1.52h-1.42l1.65-6.46h2.36l1.66,6.46Zm-2.68-4.72c-.08-.29-.14-.59-.18-.88h-.04c-.05,.3-.12,.6-.19,.88l-.5,2.04h1.42l-.51-2.04Z"/><path id="an" class="at" d="M179.92,44v2.09h-1.54v-2.09l-2.1-4.36h1.65l1.01,2.19c.11,.23,.2,.47,.29,.71,.08-.25,.17-.46,.28-.71l.93-2.19h1.57l-2.1,4.36Z"/><path id="ao" class="at" d="M189.51,46.09h-1.53l-.37-1.52h-1.98l-.36,1.52h-1.42l1.65-6.46h2.36l1.66,6.46Zm-2.68-4.72c-.08-.29-.14-.59-.18-.88h-.04c-.05,.3-.12,.6-.19,.88l-.5,2.04h1.42l-.5-2.04Z"/><path id="ap" class="at" d="M200.63,42.86c0,2.32-1.13,3.31-2.75,3.31s-2.75-.99-2.75-3.31,1.13-3.31,2.75-3.31,2.75,.99,2.75,3.31m-1.61,0c0-1.64-.41-2.23-1.13-2.23s-1.14,.59-1.14,2.23,.41,2.24,1.14,2.24,1.13-.6,1.13-2.24"/><path id="aq" class="at" d="M208.45,39.64v6.46h-2.15l-1.37-3.85c-.15-.43-.28-.87-.37-1.32h-.07c.11,1.06,.15,2.55,.15,3.45v1.72h-1.34v-6.46h2.15l1.37,3.85c.16,.43,.28,.87,.38,1.32h.07c-.11-1.07-.16-2.2-.16-3.27v-1.9h1.34Z"/><path id="ar" class="at" d="M215.44,44.93v1.16h-4v-6.46h1.53v5.3h2.47Z"/><path id="as" class="at" d="M220.99,44v2.09h-1.54v-2.09l-2.1-4.36h1.65l1.02,2.19c.11,.23,.2,.47,.29,.71,.08-.25,.17-.46,.28-.71l.93-2.19h1.57l-2.11,4.36Z"/><g><path class="at" d="M158.17,78.73l-1.5,1.5v213.95l1.5,1.5h47.04l1.5-1.5V80.23l-1.5-1.5h-47.04Zm45.54,213.95h-44.04V81.73h44.04v210.95Z"/><path class="at" d="M214.18,303.83l1.5-1.5V72.07l-1.5-1.5h-64.97l-1.5,1.5v230.26l1.5,1.5h64.97Zm-63.47-230.26h61.97v227.26h-61.97V73.57Z"/><path class="at" d="M255.98,29.2l-.52-1.13L223.68,.37l-.98-.37h-80.7l-.96,.35-34.47,28.66h0s-.2,.09-.2,.09v246.56l.41,1.03,32.72,33.99v.04l1.5,1.5h81.37l1.2-1.2h.01s32.22-33.91,32.22-33.91l.38-1-.21-246.91ZM142.53,3h79.6l30.78,26.82-31.38,32.36h-80.16l-30.9-32.52L142.53,3Zm-33.16,272.05V32.85l30.14,31.72v241.78l-30.14-31.29Zm111.51,34.16h-78.37V65.18h78.37v244.04Zm3-2.85V64.07l29.11-30.01,.21,241.47-29.32,30.84Z"/></g><g><path class="at" d="M122.4,74.56c.09-.51,.19-1.05,.26-1.64l.08-.08,1.49,.2,.08,.08c-.08,.51-.15,.99-.24,1.44h3.52l1.81-.03,.08,.08v1.3l-.08,.08-1.81-.03h-3.81c-.14,.57-.3,1.15-.48,1.72l1.32,.03h2.43l1.44-.03,.08,.08v1.27l-.08,.08-1.44-.03h-.62v2.33h1.58l1.44-.03,.08,.08v1.28l-.08,.08-1.44-.03h-4.92l-1.44,.03-.08-.08v-1.28l.08-.08,1.44,.03h1.77v-2.33h-.25l-1.44,.03-.08-.08v-.76c-.06,.14-.1,.27-.15,.41-.41,1.03-1.09,2.38-2.46,4.11-.04,.06-.08,.08-.12,.08s-.1-.03-.15-.09l-1.13-1c1.23-1.42,1.9-2.61,2.31-3.56,.22-.53,.47-1.28,.71-2.24h-.89l-1.83,.03-.08-.08v-1.3l.08-.08,1.83,.03h1.2Z"/><path class="at" d="M122.9,86.2c.14-.54,.26-1.12,.35-1.76l.08-.08,1.56,.24,.08,.08c-.1,.55-.21,1.04-.33,1.52h3.11l1.83-.03,.08,.08v1.31l-.08,.08-1.83-.03h-3.56c-.26,.67-.57,1.31-.96,1.9h.32s3.29,.01,3.29,.01l1.64-.03,.08,.08-.03,1.21v1.51l.05,2.55h-1.68v-.68h-3.45v.76h-1.63l.05-2.68v-1.03c-.47,.48-.99,.92-1.54,1.38-.04,.03-.07,.04-.1,.04-.04,0-.09-.04-.17-.13l-.98-1.07c1.53-1,2.62-2.15,3.33-3.81h-1.25l-1.83,.03-.08-.08v-1.31l.08-.08,1.83,.03h1.74Zm3.99,4.66h-3.45v1.91h3.45v-1.91Z"/><path class="at" d="M127.96,105.42c-1.01,.08-2.08,.12-3.47,.12-2.64,0-3.91-.8-3.91-2.53,0-1,.83-1.96,1.99-2.78-.54-.77-1.12-1.74-1.61-2.62l.02-.11,1.33-.69,.11,.03c.48,.88,1.03,1.8,1.56,2.56,1-.51,2.12-.98,3.22-1.39l.11,.04,.65,1.44-.04,.09c-.96,.32-1.94,.69-2.57,.97-.18,.14-.27,.29-.3,.55-.03,.44-.45,.71-.79,.71-.3,0-.54-.11-.76-.3-.86,.5-1.24,.96-1.24,1.47,0,.74,.94,.9,2.23,.9,.97,0,2.05-.08,3.39-.22l.09,.07,.04,1.57-.07,.1Zm-.98-8.54l.57-.41h.11c.41,.33,.79,.72,1.12,1.16v.11s-.62,.43-.62,.43h-.11c-.34-.45-.65-.81-1.09-1.19v-.1Zm1.04-.69l.56-.41h.11c.41,.33,.76,.68,1.09,1.12v.11s-.58,.42-.58,.42h-.11c-.34-.45-.64-.77-1.08-1.14v-.1Z"/><path class="at" d="M120.27,109.78c.75,0,1.47-.02,2.2-.08,.11-.59,.19-1.21,.27-1.86l.08-.07,1.55,.11,.06,.08c-.09,.55-.17,1.07-.26,1.55,.81-.13,1.62-.29,2.42-.51l.08,.06,.15,1.42-.05,.1c-.94,.21-1.93,.37-2.95,.5-.15,.63-.34,1.22-.56,1.8,.7-.42,1.6-.64,2.56-.64,1.35,0,2.82,.75,2.82,2.41s-1.36,2.86-4.83,3.07c-.14,.01-.22-.03-.3-.18l-.78-1.34c2.94-.01,4.08-.77,4.08-1.68,0-.63-.58-.91-1.38-.92-1.18-.01-2.38,.57-3.17,2.05l-.11,.03-1.34-.66-.02-.1c.64-1.27,1.07-2.4,1.36-3.67-.59,.04-1.2,.08-1.8,.09l-.07-.08-.09-1.39,.08-.09Z"/><path class="at" d="M121.52,122.05l1.38,.26,.07,.1c-.22,.8-.34,1.52-.44,2.34,.84-.87,1.95-1.34,3.15-1.34,1.84,0,2.84,1.14,2.84,2.53,0,2.15-2.08,3.07-5.15,3.23-.2,0-.26-.01-.35-.14l-.91-1.34c2.95-.09,4.59-.67,4.59-1.73,0-.66-.23-1.14-1.14-1.14-.99,0-2.21,.55-3.1,2.11l-.11,.05-1.34-.12-.08-.1c-.02-1.52,.18-3.1,.51-4.68l.11-.04Zm.83-1.42l.68-1.2,.11-.05c.86,.23,1.67,.51,2.66,1.02l.02,.11-.75,1.29-.11,.02c-.89-.5-1.63-.83-2.59-1.1l-.03-.09Z"/><path class="at" d="M119.78,140.17c.59-1.91,1.14-3.59,1.71-5.27-.51,.08-1.1,.15-1.65,.22l-.09-.07-.24-1.33,.07-.08c.87-.07,1.68-.17,2.44-.27,.26-.76,.52-1.54,.8-2.39l.11-.05,1.49,.36,.03,.12c-.23,.63-.44,1.21-.63,1.75,.22-.01,.43-.02,.64-.02,.91,0,1.77,.56,1.76,2.17-.01,1.45-.21,2.9-.51,3.76-.4,1.24-1.12,1.51-1.71,1.51-.41,0-.87-.07-1.35-.2-.08-.02-.11-.04-.12-.2l-.13-1.56c.35,.13,.84,.24,1.1,.24,.35,0,.51-.07,.67-.58,.18-.56,.4-1.91,.4-2.87,0-.66-.08-.79-.56-.79-.2,0-.45,.02-.73,.04-.74,2.09-1.29,3.8-1.89,5.93l-.12,.03-1.45-.36-.03-.09Zm6.56-6.61l1.17-.74h.11c.94,1.02,1.64,2.22,2.11,3.47l-.04,.11-1.38,.79-.1-.02c-.43-1.27-1.06-2.56-1.89-3.5l.02-.11Z"/><path class="at" d="M124.09,150.78c2.37-.4,3.43-1.53,3.43-2.85,0-1.67-.92-2.73-2.05-2.96-.22,2.08-.94,4.02-1.69,5.13-.59,.87-1.21,1.19-2.07,1.19-.66,0-1.13-.32-1.55-.98-.32-.5-.54-1.1-.54-1.99,0-2.66,1.99-4.82,5.02-4.82s4.61,2.01,4.61,4.46c0,2-1.41,3.52-3.74,4.07-.15,.01-.23,.01-.35-.11l-1.07-1.13Zm-2.95-2.46c0,.36,.07,.63,.19,.84,.12,.22,.28,.36,.45,.36,.25,0,.57-.25,.87-.85,.62-1.23,.92-2.4,1.09-3.74-1.61,.27-2.6,1.69-2.6,3.39Z"/><path class="at" d="M119.61,161.22c.68-.7,1.23-1.5,1.61-2.3l.11-.04,1.38,.67,.03,.12c-.45,.89-1.03,1.76-1.69,2.46h-.12l-1.3-.81v-.1Zm3.92-6.45l.09-.08h1.57l.09,.09v1.85h1.85l1.46-.03,.09,.08v1.39l-.08,.09-1.44-.03h-1.88v2.18l.03,1.46c.03,1.32-.51,1.68-2.24,1.77-.22,0-.24-.01-.34-.2l-.75-1.44c1.47,0,1.55-.03,1.55-.7v-3.07h-1.77l-1.57,.03-.08-.09v-1.4l.1-.07,1.5,.03h1.83v-1.86Zm5.6,6.37l-1.29,.97h-.11c-.58-.97-1.21-1.74-1.87-2.32v-.1l1.2-.87h.11c.81,.69,1.54,1.47,1.98,2.21l-.02,.11Zm-2.65-6.14l.57-.41h.11c.41,.33,.79,.72,1.12,1.16v.11s-.62,.43-.62,.43h-.11c-.34-.45-.65-.81-1.09-1.19v-.1Zm1.04-.69l.56-.41h.11c.41,.33,.76,.68,1.09,1.12v.11s-.58,.42-.58,.42h-.11c-.34-.45-.64-.77-1.08-1.14v-.1Z"/><path class="at" d="M128.29,167.9c.08,.09,.12,.13,.12,.2,0,.04-.01,.1-.05,.19-.52,1.12-1.1,2.12-1.74,2.99,.35,.3,.7,.62,1.04,.97v.12l-1.07,1.19h-.1c-.32-.34-.64-.66-.97-.98-1,1.02-2.2,1.87-3.71,2.63-.1,.06-.17,.08-.21,.08-.08,0-.14-.03-.25-.11l-1.29-.88c1.77-.76,3.18-1.71,4.24-2.77-.37-.29-.78-.57-1.23-.85v-.11l.94-1.02h.12c.41,.23,.8,.47,1.18,.73,.38-.54,.73-1.13,.98-1.73h-2.13c-.72,1-1.47,1.85-2.24,2.55-.21,.15-.26,.14-.46,.01l-1.2-.77c1.46-1.13,2.78-2.73,3.56-4.51l.11-.03,1.5,.54,.02,.12c-.12,.24-.25,.47-.39,.7l1.51-.02,.9-.07,.83,.84Z"/><path class="at" d="M120.48,179.79l1.07-1.2,.11-.02c.66,.33,1.54,.91,2.23,1.52v.11l-1.14,1.33h-.1c-.66-.63-1.4-1.17-2.16-1.64v-.1Zm8.52,.91c.03,.09,.04,.15,.04,.21,0,.08-.03,.12-.11,.2-1.96,2.16-4.35,3.76-7.25,5.08l-.11-.02-.99-1.49,.02-.11c2.73-1.05,5.54-2.98,7.79-5.6l.6,1.73Z"/><path class="at" d="M119.62,194.46c1.23-1,2.1-1.85,2.74-2.81-.53,.04-1.08,.05-1.6,.05l-.07-.07-.04-1.35,.08-.07c.82,0,1.64-.02,2.45-.08,.2-.45,.36-.93,.52-1.47l.09-.05,1.51,.22,.07,.08c-.13,.38-.26,.71-.38,1.03,.55-.09,1.1-.19,1.65-.32l.1,.05,.11,1.3-.07,.1c-.8,.17-1.71,.31-2.62,.42-.18,.26-.42,.61-.64,.87,.33-.1,.59-.14,1.03-.14,.68,0,1.18,.43,1.34,1.06,.69-.26,1.47-.54,2.33-.83l.11,.04,.68,1.35-.06,.1c-1.11,.29-2.06,.57-2.87,.87,.02,.43,.03,.97,.04,1.5l-.08,.07-1.45,.05-.09-.07v-.9c-.67,.32-1.04,.63-1.04,1s.44,.47,1.42,.48c.8,.01,1.9-.09,2.87-.23l.11,.07,.1,1.46-.07,.09c-1.05,.09-1.97,.14-3.26,.14-2.22,0-2.81-.94-2.81-1.88,0-1.06,.89-1.79,1.91-2.38,.2-.11,.42-.22,.66-.33-.06-.28-.22-.42-.55-.42-.44,0-.87,.11-1.25,.38-.48,.35-1.23,1.06-1.91,1.78h-.11s-.97-1.07-.97-1.07v-.12Z"/><path class="at" d="M119.36,203.36l-.08-.07v-1.2l.07-.07,1.13,.03v-2.1l.09-.09h1.25l.1,.08v2.1l.92-.02,.07,.06v1.22l-.07,.06-.92-.02v1.3c.34-.11,.68-.23,1.02-.36v1.1c0,.2-.04,.25-.23,.34-.24,.11-.51,.22-.79,.33v.32l.06,2.45c0,1.28-.48,1.61-1.86,1.61-.13,0-.17-.02-.21-.13l-.62-1.38c.41,0,.69-.02,.89-.04,.23-.02,.3-.09,.3-.35v-1.94c-.25,.09-.53,.17-.8,.25l-.1-.06-.44-1.29,.05-.1c.44-.1,.87-.2,1.29-.32v-1.75l-1.12,.03Zm7.6,7.05h-1.62l.06-3.53h-.83v.67h-1.46l.06-3.3v-2.1l-.03-1.64,.07-.09,1.65,.03h2.71l1.64-.03,.08,.08-.03,1.65v1.94l.06,3.36h-1.52v-.56h-.87l.05,3.53Zm-1.54-8.68h-.85v1.24h.85v-1.24Zm0,2.49h-.85v1.39h.85v-1.39Zm2.35-1.24v-1.24h-.89v1.24h.89Zm0,2.63v-1.39h-.89v1.39h.89Z"/><path class="at" d="M121.49,212.11h1.55s.09,.09,.09,.09c-.05,1.36-.11,2.3-.17,3.43-.04,.96-.11,2.19-.11,3.05,0,.79,.37,1.14,1.03,1.14,1.27,0,2.7-.99,3.63-2.7l.96,1.28c.1,.12,.12,.21,.03,.35-1.09,1.73-2.82,2.74-4.5,2.74s-2.79-.78-2.79-2.64c0-1.53,.08-2.55,.11-3.55,.03-.86,.09-1.83,.09-3.11l.08-.08Z"/><path class="at" d="M123.79,223.51l1.46,.62,.03,.12c-.7,1.29-1.29,2.27-1.87,3.34,.32-.18,.55-.24,.86-.24,1.08,0,1.66,.67,1.67,1.56,.01,.68-.01,1.33-.02,1.65-.01,.32,.03,.53,.31,.53,.68,0,1.46-.77,2.27-2.49l.98,1.31c.11,.15,.12,.21,.02,.41-.91,1.72-2.08,2.52-3.34,2.52s-1.89-.58-1.89-1.67c0-.48,.06-1.2,.06-1.78s-.12-.71-.48-.71c-.55,0-.98,.48-1.34,1.13-.44,.78-.87,1.74-1.34,2.93l-.11,.04-1.47-.54-.03-.12c1.35-3.04,2.74-5.8,4.15-8.57l.11-.03Z"/><path class="at" d="M121.49,235.21h1.55s.09,.09,.09,.09c-.05,1.36-.11,2.3-.17,3.43-.04,.96-.11,2.19-.11,3.05,0,.79,.37,1.14,1.03,1.14,1.27,0,2.7-.99,3.63-2.7l.96,1.28c.1,.12,.12,.21,.03,.35-1.09,1.73-2.82,2.74-4.5,2.74s-2.79-.78-2.79-2.64c0-1.53,.08-2.55,.11-3.55,.03-.86,.09-1.83,.09-3.11l.08-.08Z"/><path class="at" d="M126.36,251.62c1.02,0,1.61-.31,1.61-.87,0-.33-.3-.57-.67-.57-.29,0-.69,.13-1.29,.41-.51,.22-.74,.35-.98,.47,.65,1.24,1.07,2.13,1.67,3.67l-.04,.11-1.18,.46-.12-.03c-.48-1.33-.95-2.42-1.57-3.59l-1.34,.76-.12-.02-.58-1.02,.02-.1,1.42-.74c-.3-.5-.52-.84-.87-1.34l.02-.1,1.07-.58h.12c.31,.43,.58,.87,.91,1.42,.46-.23,.8-.38,1.14-.54-.33-.33-.7-.59-1.23-.9v-.11s.78-.81,.78-.81h.12c.5,.26,1.01,.56,1.42,.9v.11s-.54,.58-.54,.58c.55-.22,.86-.29,1.29-.3,1.15-.04,2.06,.79,2.06,1.87,0,.96-.47,1.61-1.56,1.95-.34,.11-.73,.15-1.16,.15-.19,0-.24-.03-.34-.19l-.66-1.06h.61Z"/><path class="at" d="M120.25,259.18l1.55,.05,.08,.08c-.1,1.22-.13,2.31-.13,2.95,0,.97,.1,1.62,.25,2.18,.12,.43,.26,.75,.51,.75,.3,0,.67-.59,.92-1.61l1.1,1.39c.08,.1,.08,.15,.03,.27-.44,1.14-1.15,1.97-2.05,1.97-.72,0-1.34-.51-1.78-1.4-.34-.69-.64-1.92-.64-3.42,0-.89,.02-1.95,.08-3.15l.08-.07Zm5.21,1.91l1.06-.85,.12-.02c1.23,.84,2.28,2.08,2.92,3.55l-.03,.1-1.4,.87-.11-.03c-.59-1.52-1.43-2.72-2.57-3.52l.02-.1Z"/></g><g><path class="at" d="M236.5,74.56c.09-.51,.19-1.05,.26-1.64l.08-.08,1.49,.2,.08,.08c-.08,.51-.15,.99-.24,1.44h3.52l1.81-.03,.08,.08v1.3l-.08,.08-1.81-.03h-3.81c-.14,.57-.3,1.15-.48,1.72l1.32,.03h2.43l1.44-.03,.08,.08v1.27l-.08,.08-1.44-.03h-.62v2.33h1.58l1.44-.03,.08,.08v1.28l-.08,.08-1.44-.03h-4.92l-1.44,.03-.08-.08v-1.28l.08-.08,1.44,.03h1.77v-2.33h-.25l-1.44,.03-.08-.08v-.76c-.05,.14-.1,.27-.15,.41-.41,1.03-1.09,2.38-2.46,4.11-.04,.06-.08,.08-.12,.08s-.1-.03-.15-.09l-1.13-1c1.23-1.42,1.9-2.61,2.31-3.56,.22-.53,.47-1.28,.71-2.24h-.89l-1.83,.03-.08-.08v-1.3l.08-.08,1.83,.03h1.2Z"/><path class="at" d="M236.99,86.2c.14-.54,.26-1.12,.35-1.76l.08-.08,1.56,.24,.08,.08c-.1,.55-.21,1.04-.33,1.52h3.11l1.83-.03,.08,.08v1.31l-.08,.08-1.83-.03h-3.57c-.26,.67-.57,1.31-.96,1.9h.32s3.29,.01,3.29,.01l1.64-.03,.08,.08-.03,1.21v1.51l.05,2.55h-1.68v-.68h-3.46v.76h-1.63l.05-2.68v-1.03c-.47,.48-.99,.92-1.54,1.38-.04,.03-.07,.04-.1,.04-.04,0-.09-.04-.17-.13l-.98-1.07c1.53-1,2.62-2.15,3.33-3.81h-1.25l-1.83,.03-.08-.08v-1.31l.08-.08,1.83,.03h1.74Zm3.99,4.66h-3.46v1.91h3.46v-1.91Z"/><path class="at" d="M242.05,105.42c-1.01,.08-2.08,.12-3.47,.12-2.64,0-3.91-.8-3.91-2.53,0-1,.83-1.96,1.99-2.78-.54-.77-1.12-1.74-1.61-2.62l.02-.11,1.33-.69,.11,.03c.48,.88,1.03,1.8,1.56,2.56,1-.51,2.12-.98,3.22-1.39l.11,.04,.65,1.44-.04,.09c-.96,.32-1.94,.69-2.57,.97-.18,.14-.28,.29-.3,.55-.03,.44-.45,.71-.79,.71-.3,0-.54-.11-.76-.3-.86,.5-1.24,.96-1.24,1.47,0,.74,.94,.9,2.23,.9,.97,0,2.05-.08,3.39-.22l.09,.07,.04,1.57-.07,.1Zm-.98-8.54l.57-.41h.11c.41,.33,.79,.72,1.12,1.16v.11s-.62,.43-.62,.43h-.11c-.34-.45-.65-.81-1.09-1.19v-.1Zm1.04-.69l.56-.41h.11c.41,.33,.76,.68,1.09,1.12v.11s-.58,.42-.58,.42h-.11c-.34-.45-.64-.77-1.08-1.14v-.1Z"/><path class="at" d="M234.36,109.78c.75,0,1.47-.02,2.2-.08,.11-.59,.19-1.21,.28-1.86l.08-.07,1.55,.11,.05,.08c-.09,.55-.17,1.07-.26,1.55,.81-.13,1.62-.29,2.42-.51l.08,.06,.15,1.42-.05,.1c-.94,.21-1.93,.37-2.95,.5-.15,.63-.34,1.22-.56,1.8,.7-.42,1.59-.64,2.56-.64,1.35,0,2.82,.75,2.82,2.41s-1.36,2.86-4.83,3.07c-.14,.01-.22-.03-.3-.18l-.78-1.34c2.94-.01,4.08-.77,4.08-1.68,0-.63-.58-.91-1.38-.92-1.18-.01-2.38,.57-3.17,2.05l-.11,.03-1.34-.66-.02-.1c.64-1.27,1.07-2.4,1.36-3.67-.59,.04-1.2,.08-1.8,.09l-.07-.08-.09-1.39,.08-.09Z"/><path class="at" d="M235.62,122.05l1.38,.26,.07,.1c-.22,.8-.34,1.52-.44,2.34,.84-.87,1.95-1.34,3.15-1.34,1.84,0,2.84,1.14,2.84,2.53,0,2.15-2.08,3.07-5.15,3.23-.2,0-.26-.01-.35-.14l-.91-1.34c2.95-.09,4.59-.67,4.59-1.73,0-.66-.23-1.14-1.14-1.14-.99,0-2.21,.55-3.1,2.11l-.11,.05-1.34-.12-.08-.1c-.02-1.52,.18-3.1,.51-4.68l.11-.04Zm.83-1.42l.68-1.2,.11-.05c.86,.23,1.67,.51,2.66,1.02l.02,.11-.75,1.29-.11,.02c-.89-.5-1.63-.83-2.58-1.1l-.03-.09Z"/><path class="at" d="M233.88,140.17c.59-1.91,1.14-3.59,1.71-5.27-.51,.08-1.1,.15-1.65,.22l-.09-.07-.24-1.33,.07-.08c.87-.07,1.68-.17,2.44-.27,.26-.76,.52-1.54,.8-2.39l.11-.05,1.49,.36,.03,.12c-.23,.63-.44,1.21-.63,1.75,.22-.01,.43-.02,.64-.02,.91,0,1.77,.56,1.76,2.17-.01,1.45-.21,2.9-.51,3.76-.4,1.24-1.12,1.51-1.71,1.51-.41,0-.87-.07-1.35-.2-.08-.02-.11-.04-.12-.2l-.13-1.56c.35,.13,.84,.24,1.1,.24,.35,0,.51-.07,.67-.58,.18-.56,.4-1.91,.4-2.87,0-.66-.08-.79-.56-.79-.2,0-.45,.02-.73,.04-.74,2.09-1.29,3.8-1.89,5.93l-.12,.03-1.45-.36-.03-.09Zm6.56-6.61l1.17-.74h.11c.94,1.02,1.64,2.22,2.11,3.47l-.04,.11-1.38,.79-.1-.02c-.43-1.27-1.06-2.56-1.89-3.5l.02-.11Z"/><path class="at" d="M238.18,150.78c2.37-.4,3.43-1.53,3.43-2.85,0-1.67-.92-2.73-2.05-2.96-.22,2.08-.94,4.02-1.69,5.13-.59,.87-1.21,1.19-2.07,1.19-.66,0-1.13-.32-1.55-.98-.32-.5-.54-1.1-.54-1.99,0-2.66,1.99-4.82,5.02-4.82s4.61,2.01,4.61,4.46c0,2-1.41,3.52-3.74,4.07-.15,.01-.23,.01-.35-.11l-1.07-1.13Zm-2.95-2.46c0,.36,.07,.63,.19,.84,.12,.22,.28,.36,.45,.36,.25,0,.57-.25,.87-.85,.62-1.23,.92-2.4,1.09-3.74-1.61,.27-2.6,1.69-2.6,3.39Z"/><path class="at" d="M233.7,161.22c.68-.7,1.23-1.5,1.61-2.3l.11-.04,1.38,.67,.03,.12c-.45,.89-1.03,1.76-1.69,2.46h-.12l-1.3-.81v-.1Zm3.92-6.45l.09-.08h1.57l.09,.09v1.85h1.85l1.46-.03,.09,.08v1.39l-.08,.09-1.44-.03h-1.88v2.18l.03,1.46c.03,1.32-.51,1.68-2.24,1.77-.22,0-.24-.01-.34-.2l-.75-1.44c1.47,0,1.55-.03,1.55-.7v-3.07h-1.77l-1.57,.03-.08-.09v-1.4l.1-.07,1.5,.03h1.83v-1.86Zm5.6,6.37l-1.29,.97h-.11c-.58-.97-1.21-1.74-1.87-2.32v-.1l1.2-.87h.11c.81,.69,1.54,1.47,1.98,2.21l-.02,.11Zm-2.65-6.14l.57-.41h.11c.41,.33,.79,.72,1.12,1.16v.11s-.62,.43-.62,.43h-.11c-.34-.45-.65-.81-1.09-1.19v-.1Zm1.04-.69l.56-.41h.11c.41,.33,.76,.68,1.09,1.12v.11s-.58,.42-.58,.42h-.11c-.34-.45-.64-.77-1.08-1.14v-.1Z"/><path class="at" d="M242.39,167.9c.08,.09,.12,.13,.12,.2,0,.04-.01,.1-.05,.19-.52,1.12-1.1,2.12-1.74,2.99,.35,.3,.7,.62,1.04,.97v.12l-1.07,1.19h-.1c-.32-.34-.64-.66-.97-.98-1,1.02-2.2,1.87-3.71,2.63-.1,.06-.17,.08-.21,.08-.08,0-.14-.03-.25-.11l-1.29-.88c1.77-.76,3.18-1.71,4.24-2.77-.37-.29-.78-.57-1.23-.85v-.11l.93-1.02h.12c.41,.23,.8,.47,1.18,.73,.38-.54,.73-1.13,.98-1.73h-2.13c-.72,1-1.47,1.85-2.25,2.55-.21,.15-.26,.14-.46,.01l-1.2-.77c1.46-1.13,2.78-2.73,3.56-4.51l.11-.03,1.5,.54,.02,.12c-.12,.24-.25,.47-.39,.7l1.51-.02,.9-.07,.83,.84Z"/><path class="at" d="M234.57,179.79l1.07-1.2,.11-.02c.66,.33,1.54,.91,2.23,1.52v.11l-1.14,1.33h-.1c-.66-.63-1.4-1.17-2.16-1.64v-.1Zm8.52,.91c.03,.09,.04,.15,.04,.21,0,.08-.03,.12-.11,.2-1.96,2.16-4.35,3.76-7.25,5.08l-.11-.02-.99-1.49,.02-.11c2.73-1.05,5.54-2.98,7.79-5.6l.61,1.73Z"/><path class="at" d="M233.72,194.46c1.23-1,2.1-1.85,2.74-2.81-.53,.04-1.08,.05-1.59,.05l-.07-.07-.04-1.35,.08-.07c.83,0,1.64-.02,2.45-.08,.2-.45,.36-.93,.52-1.47l.09-.05,1.51,.22,.07,.08c-.13,.38-.26,.71-.38,1.03,.55-.09,1.1-.19,1.65-.32l.1,.05,.11,1.3-.07,.1c-.8,.17-1.71,.31-2.62,.42-.18,.26-.42,.61-.64,.87,.33-.1,.59-.14,1.03-.14,.68,0,1.18,.43,1.34,1.06,.69-.26,1.47-.54,2.33-.83l.11,.04,.68,1.35-.05,.1c-1.11,.29-2.06,.57-2.87,.87,.02,.43,.03,.97,.04,1.5l-.08,.07-1.45,.05-.09-.07v-.9c-.67,.32-1.04,.63-1.04,1s.44,.47,1.42,.48c.8,.01,1.9-.09,2.87-.23l.11,.07,.1,1.46-.07,.09c-1.04,.09-1.97,.14-3.26,.14-2.22,0-2.81-.94-2.81-1.88,0-1.06,.89-1.79,1.91-2.38,.2-.11,.42-.22,.66-.33-.05-.28-.22-.42-.55-.42-.44,0-.87,.11-1.25,.38-.48,.35-1.23,1.06-1.91,1.78h-.11s-.97-1.07-.97-1.07v-.12Z"/><path class="at" d="M233.45,203.36l-.08-.07v-1.2l.07-.07,1.13,.03v-2.1l.09-.09h1.25l.1,.08v2.1l.92-.02,.07,.06v1.22l-.07,.06-.92-.02v1.3c.34-.11,.68-.23,1.02-.36v1.1c0,.2-.04,.25-.23,.34-.24,.11-.51,.22-.79,.33v.32l.05,2.45c0,1.28-.48,1.61-1.86,1.61-.13,0-.17-.02-.21-.13l-.62-1.38c.41,0,.69-.02,.89-.04,.23-.02,.3-.09,.3-.35v-1.94c-.25,.09-.53,.17-.8,.25l-.1-.06-.44-1.29,.05-.1c.44-.1,.87-.2,1.29-.32v-1.75l-1.12,.03Zm7.6,7.05h-1.62l.06-3.53h-.83v.67h-1.46l.06-3.3v-2.1l-.03-1.64,.07-.09,1.65,.03h2.71l1.64-.03,.08,.08-.03,1.65v1.94l.06,3.36h-1.52v-.56h-.87l.05,3.53Zm-1.54-8.68h-.85v1.24h.85v-1.24Zm0,2.49h-.85v1.39h.85v-1.39Zm2.35-1.24v-1.24h-.89v1.24h.89Zm0,2.63v-1.39h-.89v1.39h.89Z"/><path class="at" d="M235.59,212.11h1.55s.09,.09,.09,.09c-.05,1.36-.11,2.3-.17,3.43-.04,.96-.11,2.19-.11,3.05,0,.79,.37,1.14,1.03,1.14,1.27,0,2.7-.99,3.63-2.7l.96,1.28c.1,.12,.12,.21,.03,.35-1.09,1.73-2.82,2.74-4.5,2.74s-2.79-.78-2.79-2.64c0-1.53,.08-2.55,.11-3.55,.03-.86,.09-1.83,.09-3.11l.08-.08Z"/><path class="at" d="M237.89,223.51l1.46,.62,.03,.12c-.7,1.29-1.29,2.27-1.87,3.34,.32-.18,.55-.24,.86-.24,1.08,0,1.66,.67,1.67,1.56,.01,.68-.01,1.33-.02,1.65-.01,.32,.03,.53,.31,.53,.68,0,1.46-.77,2.27-2.49l.98,1.31c.11,.15,.12,.21,.02,.41-.91,1.72-2.08,2.52-3.34,2.52s-1.89-.58-1.89-1.67c0-.48,.06-1.2,.06-1.78s-.12-.71-.48-.71c-.55,0-.98,.48-1.34,1.13-.44,.78-.87,1.74-1.34,2.93l-.11,.04-1.47-.54-.03-.12c1.35-3.04,2.74-5.8,4.15-8.57l.11-.03Z"/><path class="at" d="M235.59,235.21h1.55s.09,.09,.09,.09c-.05,1.36-.11,2.3-.17,3.43-.04,.96-.11,2.19-.11,3.05,0,.79,.37,1.14,1.03,1.14,1.27,0,2.7-.99,3.63-2.7l.96,1.28c.1,.12,.12,.21,.03,.35-1.09,1.73-2.82,2.74-4.5,2.74s-2.79-.78-2.79-2.64c0-1.53,.08-2.55,.11-3.55,.03-.86,.09-1.83,.09-3.11l.08-.08Z"/><path class="at" d="M240.46,251.62c1.02,0,1.61-.31,1.61-.87,0-.33-.3-.57-.67-.57-.29,0-.69,.13-1.29,.41-.51,.22-.74,.35-.98,.47,.65,1.24,1.07,2.13,1.67,3.67l-.04,.11-1.18,.46-.12-.03c-.48-1.33-.95-2.42-1.57-3.59l-1.34,.76-.12-.02-.58-1.02,.02-.1,1.42-.74c-.3-.5-.52-.84-.87-1.34l.02-.1,1.07-.58h.12c.31,.43,.58,.87,.91,1.42,.46-.23,.8-.38,1.14-.54-.33-.33-.7-.59-1.23-.9v-.11s.78-.81,.78-.81h.12c.5,.26,1.01,.56,1.42,.9v.11s-.54,.58-.54,.58c.55-.22,.86-.29,1.29-.3,1.15-.04,2.06,.79,2.06,1.87,0,.96-.47,1.61-1.56,1.95-.34,.11-.73,.15-1.16,.15-.19,0-.24-.03-.34-.19l-.66-1.06h.61Z"/><path class="at" d="M234.34,259.18l1.55,.05,.08,.08c-.1,1.22-.13,2.31-.13,2.95,0,.97,.1,1.62,.25,2.18,.12,.43,.26,.75,.51,.75,.3,0,.67-.59,.92-1.61l1.1,1.39c.08,.1,.08,.15,.03,.27-.44,1.14-1.15,1.97-2.05,1.97-.71,0-1.34-.51-1.78-1.4-.34-.69-.64-1.92-.64-3.42,0-.89,.02-1.95,.08-3.15l.08-.07Zm5.21,1.91l1.06-.85,.12-.02c1.23,.84,2.28,2.08,2.92,3.55l-.03,.1-1.4,.87-.11-.03c-.59-1.52-1.43-2.72-2.57-3.52l.02-.1Z"/></g></g><rect class="at" x="0" y="192.81" width="106.48" height="3"/><rect class="at" x="253.32" y="192.81" width="109.48" height="3"/><g><path class="at" d="M.85,172.54H9.43v2.86l-5.12,1.83c-.57,.21-1.17,.36-1.76,.5v.1c1.41-.14,3.39-.21,4.59-.21h2.29v1.78H.85v-2.86l5.12-1.83c.57-.21,1.17-.37,1.76-.51v-.1c-1.42,.14-2.93,.22-4.36,.22H.85v-1.78Z"/><path class="at" d="M9.43,167.87v2.04H.85v-2.04H9.43Z"/><path class="at" d="M6.59,163.75c.97-.14,1.5-.58,1.5-1.5,0-.52-.26-.9-.81-.9-.62,0-.86,.37-1.33,1.73-.55,1.56-1.31,2.37-2.62,2.37-1.62,0-2.59-1.14-2.59-2.88s.88-2.84,2.52-3.08l.41,1.96c-1.03,.08-1.57,.48-1.57,1.21,0,.56,.35,.87,.88,.87,.58,0,.89-.41,1.29-1.64,.58-1.83,1.27-2.6,2.67-2.6,1.59,0,2.62,1.15,2.62,3.09s-.91,3.17-2.71,3.4l-.25-2.02Z"/><path class="at" d="M.85,150.27H9.43v2.04h-3.58v2.86h3.58v2.04H.85v-2.04h3.41v-2.86H.85v-2.04Z"/><path class="at" d="M9.43,145.59v2.04H.85v-2.04H9.43Z"/><path class="at" d="M3.16,137.56c.48,0,.91,.03,1.4,.08v-.04c-.47-.27-.97-.59-1.4-.92l-2.31-1.83v-2.48l3.56,3.22,5.02-3.23v2.45l-3.56,2.11,.7,.64h2.86v2H.85v-2H3.16Z"/><path class="at" d="M6.65,126.42h2.78v2.05h-2.78l-5.8,2.79v-2.2l2.92-1.35c.31-.14,.63-.26,.95-.39-.33-.11-.62-.23-.95-.37l-2.92-1.23v-2.09l5.8,2.79Z"/><path class="at" d="M.85,114.83H6.35c2.21,0,3.19,1.43,3.19,3.47s-.98,3.47-3.19,3.47H.85v-2.04H6.26c1.3,0,1.84-.59,1.84-1.43s-.54-1.43-1.84-1.43H.85v-2.04Z"/><path class="at" d="M6.59,110.71c.97-.14,1.5-.58,1.5-1.5,0-.52-.26-.9-.81-.9-.62,0-.86,.37-1.33,1.73-.55,1.56-1.31,2.37-2.62,2.37-1.62,0-2.59-1.14-2.59-2.88s.88-2.84,2.52-3.08l.41,1.96c-1.03,.08-1.57,.48-1.57,1.21,0,.56,.35,.87,.88,.87,.58,0,.89-.41,1.29-1.64,.58-1.83,1.27-2.6,2.67-2.6,1.59,0,2.62,1.15,2.62,3.09s-.91,3.17-2.71,3.4l-.25-2.02Z"/><path class="at" d="M.85,97.23H9.43v2.04h-3.58v2.86h3.58v2.04H.85v-2.04h3.41v-2.86H.85v-2.04Z"/><path class="at" d="M.85,87.66H6.35c2.21,0,3.19,1.43,3.19,3.47s-.98,3.47-3.19,3.47H.85v-2.04H6.26c1.3,0,1.84-.59,1.84-1.43s-.54-1.43-1.84-1.43H.85v-2.04Z"/><path class="at" d="M6.59,80.16c.97-.14,1.5-.58,1.5-1.5,0-.52-.26-.9-.81-.9-.62,0-.86,.37-1.33,1.73-.55,1.56-1.31,2.37-2.62,2.37-1.62,0-2.59-1.14-2.59-2.88s.88-2.84,2.52-3.08l.41,1.96c-1.03,.08-1.57,.48-1.57,1.21,0,.56,.35,.87,.88,.87,.58,0,.89-.41,1.29-1.64,.58-1.83,1.27-2.6,2.67-2.6,1.59,0,2.62,1.15,2.62,3.09s-.91,3.17-2.71,3.4l-.25-2.02Z"/><path class="at" d="M.85,66.67H9.43v2.04h-3.58v2.86h3.58v2.04H.85v-2.04h3.41v-2.86H.85v-2.04Z"/><path class="at" d="M9.43,61.99v2.04H.85v-2.04H9.43Z"/><path class="at" d="M.85,52.5H9.43v2.86l-5.12,1.83c-.57,.21-1.17,.36-1.76,.5v.1c1.41-.14,3.39-.21,4.59-.21h2.29v1.78H.85v-2.86l5.12-1.83c.57-.21,1.17-.37,1.76-.51v-.1c-1.42,.14-2.93,.22-4.36,.22H.85v-1.78Z"/><path class="at" d="M3.16,47.86c.48,0,.91,.03,1.4,.08v-.04c-.47-.27-.97-.59-1.4-.92l-2.31-1.83v-2.48l3.56,3.22,5.02-3.23v2.45l-3.56,2.11,.7,.64h2.86v2H.85v-2H3.16Z"/><path class="at" d="M9.43,34.03v2.04l-2.01,.49v2.63l2.01,.48v1.88L.85,39.37v-3.14l8.58-2.2Zm-6.27,3.56c-.39,.1-.78,.19-1.18,.24v.06c.4,.07,.79,.15,1.18,.25l2.72,.67v-1.88l-2.72,.66Z"/><path class="at" d="M.85,25.31H9.43v2.86l-5.12,1.83c-.57,.21-1.17,.36-1.76,.5v.1c1.41-.14,3.39-.21,4.59-.21h2.29v1.78H.85v-2.86l5.12-1.83c.57-.21,1.17-.37,1.76-.51v-.1c-1.42,.14-2.93,.22-4.36,.22H.85v-1.78Z"/><path class="at" d="M6.59,21.2c.97-.14,1.5-.58,1.5-1.5,0-.52-.26-.9-.81-.9-.62,0-.86,.37-1.33,1.73-.55,1.56-1.31,2.37-2.62,2.37-1.62,0-2.59-1.14-2.59-2.88s.88-2.84,2.52-3.08l.41,1.96c-1.03,.08-1.57,.48-1.57,1.21,0,.56,.35,.87,.88,.87,.58,0,.89-.41,1.29-1.64,.58-1.83,1.27-2.6,2.67-2.6,1.59,0,2.62,1.16,2.62,3.09s-.91,3.17-2.71,3.4l-.25-2.02Z"/><path class="at" d="M7.94,9.38h1.49v5.26H.85v-5.16h1.49v3.18h2.04v-2.86h1.43v2.86h2.15v-3.28Z"/><path class="at" d="M.85,.44H9.43V3.3l-5.12,1.83c-.57,.21-1.17,.36-1.76,.5v.1c1.41-.14,3.39-.21,4.59-.21h2.29v1.78H.85v-2.86l5.12-1.83c.57-.21,1.17-.37,1.76-.51v-.1c-1.42,.14-2.93,.22-4.36,.22H.85V.44Z"/></g><g><path class="at" d="M361.52,7.41h-8.58v-2.86l5.12-1.83c.57-.21,1.17-.36,1.76-.5v-.1c-1.41,.14-3.39,.21-4.59,.21h-2.29V.56h8.58V3.42l-5.12,1.83c-.57,.21-1.17,.37-1.76,.51v.1c1.42-.14,2.93-.22,4.36-.22h2.52v1.78Z"/><path class="at" d="M352.94,12.09v-2.04h8.58v2.04h-8.58Z"/><path class="at" d="M355.78,16.2c-.97,.14-1.5,.58-1.5,1.5,0,.52,.26,.9,.81,.9,.62,0,.86-.37,1.33-1.73,.55-1.56,1.31-2.37,2.62-2.37,1.62,0,2.59,1.14,2.59,2.88s-.88,2.84-2.52,3.08l-.41-1.96c1.03-.08,1.57-.48,1.57-1.21,0-.56-.35-.87-.88-.87-.58,0-.89,.41-1.29,1.64-.58,1.83-1.27,2.6-2.67,2.6-1.59,0-2.62-1.15-2.62-3.09s.91-3.17,2.71-3.4l.25,2.02Z"/><path class="at" d="M361.52,29.69h-8.58v-2.04h3.58v-2.86h-3.58v-2.04h8.58v2.04h-3.41v2.86h3.41v2.04Z"/><path class="at" d="M352.94,34.36v-2.04h8.58v2.04h-8.58Z"/><path class="at" d="M359.21,42.39c-.48,0-.91-.03-1.4-.08v.04c.47,.27,.97,.59,1.4,.92l2.31,1.83v2.48l-3.56-3.22-5.02,3.23v-2.45l3.56-2.11-.7-.64h-2.86v-2h8.58v2h-2.31Z"/><path class="at" d="M355.73,53.54h-2.78v-2.05h2.78l5.8-2.79v2.2l-2.92,1.35c-.31,.14-.63,.26-.95,.39,.33,.11,.62,.23,.95,.37l2.92,1.23v2.09l-5.8-2.79Z"/><path class="at" d="M361.52,65.13h-5.5c-2.21,0-3.19-1.43-3.19-3.47s.98-3.47,3.19-3.47h5.5v2.04h-5.41c-1.3,0-1.84,.59-1.84,1.43s.54,1.43,1.84,1.43h5.41v2.04Z"/><path class="at" d="M355.78,69.24c-.97,.14-1.5,.58-1.5,1.5,0,.52,.26,.9,.81,.9,.62,0,.86-.37,1.33-1.73,.55-1.56,1.31-2.37,2.62-2.37,1.62,0,2.59,1.14,2.59,2.88s-.88,2.84-2.52,3.08l-.41-1.96c1.03-.08,1.57-.48,1.57-1.21,0-.56-.35-.87-.88-.87-.58,0-.89,.41-1.29,1.64-.58,1.83-1.27,2.6-2.67,2.6-1.59,0-2.62-1.15-2.62-3.09s.91-3.17,2.71-3.4l.25,2.02Z"/><path class="at" d="M361.52,82.73h-8.58v-2.04h3.58v-2.86h-3.58v-2.04h8.58v2.04h-3.41v2.86h3.41v2.04Z"/><path class="at" d="M361.52,92.3h-5.5c-2.21,0-3.19-1.43-3.19-3.47s.98-3.47,3.19-3.47h5.5v2.04h-5.41c-1.3,0-1.84,.59-1.84,1.43s.54,1.43,1.84,1.43h5.41v2.04Z"/><path class="at" d="M355.78,99.8c-.97,.14-1.5,.58-1.5,1.5,0,.52,.26,.9,.81,.9,.62,0,.86-.37,1.33-1.73,.55-1.56,1.31-2.37,2.62-2.37,1.62,0,2.59,1.14,2.59,2.88s-.88,2.84-2.52,3.08l-.41-1.96c1.03-.08,1.57-.48,1.57-1.21,0-.56-.35-.87-.88-.87-.58,0-.89,.41-1.29,1.64-.58,1.83-1.27,2.6-2.67,2.6-1.59,0-2.62-1.15-2.62-3.09s.91-3.17,2.71-3.4l.25,2.02Z"/><path class="at" d="M361.52,113.29h-8.58v-2.04h3.58v-2.86h-3.58v-2.04h8.58v2.04h-3.41v2.86h3.41v2.04Z"/><path class="at" d="M352.94,117.96v-2.04h8.58v2.04h-8.58Z"/><path class="at" d="M361.52,127.46h-8.58v-2.86l5.12-1.83c.57-.21,1.17-.36,1.76-.5v-.1c-1.41,.14-3.39,.21-4.59,.21h-2.29v-1.78h8.58v2.86l-5.12,1.83c-.57,.21-1.17,.37-1.76,.51v.1c1.42-.14,2.93-.22,4.36-.22h2.52v1.78Z"/><path class="at" d="M359.21,132.1c-.48,0-.91-.03-1.4-.08v.04c.47,.27,.97,.59,1.4,.92l2.31,1.83v2.48l-3.56-3.22-5.02,3.23v-2.45l3.56-2.11-.7-.64h-2.86v-2h8.58v2h-2.31Z"/><path class="at" d="M352.94,145.92v-2.04l2.01-.49v-2.63l-2.01-.48v-1.88l8.58,2.19v3.14l-8.58,2.2Zm6.27-3.56c.39-.1,.78-.19,1.18-.24v-.06c-.4-.07-.79-.15-1.18-.25l-2.72-.67v1.88l2.72-.66Z"/><path class="at" d="M361.52,154.65h-8.58v-2.86l5.12-1.83c.57-.21,1.17-.36,1.76-.5v-.1c-1.41,.14-3.39,.21-4.59,.21h-2.29v-1.78h8.58v2.86l-5.12,1.83c-.57,.21-1.17,.37-1.76,.51v.1c1.42-.14,2.93-.22,4.36-.22h2.52v1.78Z"/><path class="at" d="M355.78,158.76c-.97,.14-1.5,.58-1.5,1.5,0,.52,.26,.9,.81,.9,.62,0,.86-.37,1.33-1.73,.55-1.56,1.31-2.37,2.62-2.37,1.62,0,2.59,1.14,2.59,2.88s-.88,2.84-2.52,3.08l-.41-1.96c1.03-.08,1.57-.48,1.57-1.21,0-.56-.35-.87-.88-.87-.58,0-.89,.41-1.29,1.64-.58,1.83-1.27,2.6-2.67,2.6-1.59,0-2.62-1.16-2.62-3.09s.91-3.17,2.71-3.4l.25,2.02Z"/><path class="at" d="M354.43,170.58h-1.49v-5.26h8.58v5.16h-1.49v-3.18h-2.04v2.86h-1.43v-2.86h-2.15v3.28Z"/><path class="at" d="M361.52,179.52h-8.58v-2.86l5.12-1.83c.57-.21,1.17-.36,1.76-.5v-.1c-1.41,.14-3.39,.21-4.59,.21h-2.29v-1.78h8.58v2.86l-5.12,1.83c-.57,.21-1.17,.37-1.76,.51v.1c1.42-.14,2.93-.22,4.36-.22h2.52v1.78Z"/></g></svg>