<?xml version="1.0" encoding="UTF-8"?><svg id="a" xmlns="http://www.w3.org/2000/svg" viewBox="0 0 363 332.2"><defs><style>.v{fill:#b81c25;}</style></defs><path id="b" class="v" d="M293.3,6.5l8.6-.2,.6,.6-.2,8.6v10.4l.2,9.1-.6,.7-8.6-.2h-12.7v46.4h-10.4l.4-27.7V17.6l-.4-10.8,.5-.6,8.7,.2,13.9,.1h0Zm-1,7.8h-11.8v3.3h11.8v-3.3Zm-11.8,13.3h11.8v-3.4h-11.8v3.4Zm9.8,33.8l-7.1,.2-.6-.5v-7.6l.6-.5,7.2,.2h2.5c.1-2.1,0-4.2,0-6.3h-.7l-6.7,.2-.6-.5v-7.4l.6-.5,6.8,.2h27.5l6.8-.2,.6,.6v7.3l-.6,.5-6.8-.2h-.9v6.3h3l6.8-.2,.6,.6v7.4l-.6,.5-6.8-.2h-3l.4,16.6h-11.1l.4-16.6h-6.7c-.3,2.2-1,4.4-1.9,6.4-2.2,4.7-5.6,8.2-11.3,11-.3,.2-.6,.2-.9,.2-.5,0-.9-.3-1.2-.7l-5.9-6.7c5.1-2,8.3-4.1,10-7.3,.5-1,.9-2,1.1-3.1l-1.5,.3h0Zm12.5-14.5c0,2.1,0,4.2-.1,6.3h5.9v-6.3h-5.8Zm14.4-11.5l-8.6,.2-.6-.7,.2-9.1V15.4l-.2-8.6,.6-.6,8.6,.2h15l8.7-.2,.5,.6-.2,10.8v30.8l.4,23.3c0,7.3-5.2,9.5-13.8,9.5-1.6,0-2-.4-2.3-1.2l-3.5-9.6c2.5,0,5-.1,7.5-.3,1-.2,1.1-.5,1.1-2.4V35.4h-13.4Zm13.5-21.1h-12.4v3.3h12.4v-3.3Zm-12.4,13.3h12.4v-3.4h-12.4v3.4Z"/><path id="c" class="v" d="M341.3,171.7c-.3,.8-.6,.8-1.5,.8-6.8,.2-13.6,.4-19.9,.4-7.2,0-13.8-.2-18.9-.6-7.1-.5-13.7-2.1-18.5-8.2-3.1,2.5-6.3,5.6-9.8,8.6l-.7-.3-5.8-9.4,.2-.7c4.2-2.6,7.3-4.5,11.1-6.5v-17.4h-1.9l-7.4,.2-.6-.5v-9.3l.5-.5,7.5,.2h2l10.5-.2,.6,.6-.2,12.2v15.6c2.9,4.3,8.8,5.5,16.5,5.8,10.1,.4,26.9-.3,41-1.4l-4.7,10.6h0Zm-60.1-55.3h-1.1c-3.2-4.3-7.1-8.2-11.5-11.3l.1-.7,7.2-5.8,1,.2c4.4,2.9,8.4,6.4,11.9,10.3l-.1,.9-7.5,6.4Zm29.6,.2c-3.3-1.4-6.8-2.7-10.4-3.8l-.2-.7,4.7-4.7h-1.4l-12.3,.2-.6-.5v-8l.6-.6,12.2,.2h23.5l5.7-.4,4.2,4.1c.5,.4,.9,1,.9,1.6-.1,.8-.5,1.5-1.1,2-3.7,3.3-7.1,6.1-10.6,8.7,.4,.2,.8,.4,1.1,.7l.2,.8-.3,.2h4.4l8.8-.2,.6,.6-.2,7.2v13l.3,14.4c0,7.6-3.1,9.3-12.9,9.3-1.3,0-1.5-.2-1.8-.9l-3.4-8.1c2.6,.1,3.8,0,5.5-.1,.9-.2,1.4-.2,1.4-1.6v-2.7h-7.9l.2,12.8h-11.3l.2-12.8h-7v12.9h-10.9l.4-21.6v-14.4l-.2-7.3,.6-.6,8.8,.2,8.2,.1h0Zm-6.8,12h7.2v-4.1h-7.2v4.1Zm7.2,7.1h-7.2v4.3h7.2v-4.3Zm-2-28.3c2.7,1,5.5,2,8.1,3.3,1.3-1.2,2.4-2.2,3.5-3.3h-11.6Zm12.5,21.2h8.1v-4.1h-8.1v4.1Zm8.1,7.1h-8.1v4.3h8.1v-4.3h0Z"/><path id="d" class="v" d="M44.9,6.5l8.6-.2,.6,.6-.2,8.6v10.3l.2,9.1-.7,.7-8.6-.2h-12.6v46.1h-10.4l.4-27.7V17.6l-.2-10.8,.5-.6,8.7,.2,13.7,.1h0Zm-1,7.7h-11.7v3.3h11.7v-3.3Zm-11.7,13.2h11.7v-3.4h-11.7v3.4Zm9.7,33.5l-7,.2-.7-.5v-7.5l.6-.5,7.1,.2h2.4c.1-2.1,0-4.1,0-6.2h-.7l-6.6,.2-.7-.5v-7.4l.6-.5,6.7,.2h27.3l6.7-.2,.6,.6v7.3l-.6,.5-6.7-.2h-.9v6.2h3l6.7-.2,.6,.6v7.5l-.6,.5-6.7-.2h-3l.4,16.5h-10.8l.4-16.5h-6.6c-.3,2.2-.9,4.4-1.9,6.4-2.2,4.7-5.6,8.2-11.2,10.9-.3,.2-.6,.2-.9,.2-.5,0-.9-.2-1.2-.7l-5.8-6.6c5-2,8.3-4.1,10-7.2,.5-1,.9-2,1.1-3.1,0,0-1.6,0-1.6,0Zm12.4-14.3c0,2.1,0,4.1-.1,6.2h5.8v-6.2h-5.7Zm14.3-11.4l-8.6,.2-.7-.7,.2-9.1V15.4l-.2-8.6,.6-.6,8.6,.2h15l8.7-.2,.5,.6-.2,10.8v30.6l.4,23.2c0,7.2-5.2,9.4-13.7,9.4-1.6,0-1.9-.4-2.3-1.2l-3.5-9.6c2.5,0,5-.1,7.4-.3,1-.2,1.1-.5,1.1-2.4V35.2h-13.3Zm13.4-21h-12.4v3.3h12.3v-3.3h.1Zm-12.4,13.2h12.3v-3.4h-12.3v3.4Z"/><path id="e" class="v" d="M92.5,170.9c-.3,.8-.6,.8-1.5,.8-6.7,.2-13.5,.4-19.8,.4-7.1,0-13.7-.2-18.8-.6-7-.5-13.6-2-18.4-8.1-3.1,2.6-6.4,5.5-9.7,8.6l-.7-.3-5.8-9.5,.2-.7c3.9-2.4,6.9-4.2,10.3-6.1v-17.6h-1.5l-7,.2-.6-.5v-9.2l.5-.5,7.1,.2h1.5l10.4-.2,.6,.6-.1,12.1v14.2c2.4,5.6,8.7,6.9,17.2,7.3,10,.4,26.7-.3,40.6-1.4l-4.5,10.3h0Zm-59.7-54.8h-1c-3.2-4.3-7.1-8.1-11.4-11.3l.1-.7,7.1-5.8,1,.2c4.4,2.9,8.3,6.3,11.8,10.2l-.1,.9-7.5,6.5h0Zm39.3,3.4h6.9l10.4-.2,.6,.6-.2,7.7v8.7l.2,8.3-.6,.7-10.4-.2h-6.9v2.7h11l11.1-.2,.5,.4v7.5l-.5,.4-11-.3h-10.8l.2,4.9h-10.9l.2-4.9h-9.2l-11,.2-.6-.5v-7.3l.5-.5,11.1,.2h9.4v-2.7h-6l-10.6,.2-.5-.6,.4-8.4v-8.7l-.2-7.7,.6-.6,10.4,.2h6v-2.7h-2.2l-8.6,.2-.6-.5v-1.9h-9.6l.4-7.4v-1.9l-.2-6,.7-.6,10.1,.4h31.9l10.4-.2,.6,.6-.2,5.9v2l.4,7.4h-10.1v1.9l-.5,.4-8.7-.2h-3.8l-.1,2.7h0Zm-10-12.9h-10.3v2.6l8.1,.2h2.2v-2.8h0Zm.2,19.6h-7.4v2.8h7.4v-2.8Zm-7.3,12.1h7.4v-2.9h-7.4v2.9Zm24.8-12.1h-7.8v2.8h7.8v-2.8Zm-7.9,12.1h7.8v-2.9h-7.8v2.9Zm4.1-28.9l8.2-.2v-2.6h-12v2.8s3.8,0,3.8,0Z"/><rect class="v" y="329.2" width="362.9" height="3"/><path id="f" class="v" d="M137,22.3l-.1-.1v-1.6l.1-.1h5.6l.1,.1v1.7l-.1,.1h-3.8l-1.8-.1h0Zm9.1-1.2h-3.3l-.1-.1v-1.7l.1-.1h3.3v-1.4l.1-.1h1.9l.1,.1v1.4h3.6l.1,.1v1.7l-.1,.1h-3.6v.7h3.1l.1,.1-.1,1.8v1.7l.1,2.3-.1,.1h-2.4c.9,1,2,2,3.2,2.8l-1.2,1.7c0,.1-.1,.1-.2,.1s-.1,0-.2-.1c-.9-.9-1.7-1.8-2.4-2.8l.1,3.5h-2.1l.1-3.3c-.7,1-1.6,2-2.6,2.8-.1,0-.1,.1-.2,.1s-.2,0-.2-.1l-.8-1.1v1.3h-2v-.7h-.9v.9h-2l.1-2.8v-2.7l.1-.1h4.6l.1,.1v3.1c.6-.4,1.1-.8,1.6-1.2,.5-.5,1-1,1.4-1.6h-2.1l-.1-.1v-5.8l.1-.1h3l-.2-.6h0Zm-8.4-1.1l-.1-.1v-1.5l.1-.1h4.2l.1,.1v1.6l-.1,.1h-2.6l-1.6-.1Zm0,4.6l-.1-.1v-1.5l.1-.1h4.2l.1,.1v1.6l-.1,.1h-2.6l-1.6-.1h0Zm0,2.2l-.1-.1v-1.5l.1-.1h4.2l.1,.1v1.6l-.1,.1h-2.6l-1.6-.1h0Zm2.6,2.2h-.9v1.2h.9v-1.2Zm5.8-5.6h-1.4v2.8h1.4v-2.8Zm-.7,2.5h0c-.2-.6-.3-1.2-.5-1.8l.1-.1,.6-.2h.1c.2,.6,.4,1.1,.5,1.7l-.1,.1-.7,.3h0Zm4-2.5h-1.4v2.8h1.4v-2.8Zm-.1,.6c-.1,.6-.2,1.2-.4,1.7,0,.1-.1,.1-.1,.1h-.2l-.5-.2c.2-.6,.3-1.2,.4-1.8h.1l.7,.2h0Z"/><path id="g" class="v" d="M168.5,18.3l.1,.1v7.2l-.1,.1h-4.1v1.5h6.2l.1,.1v1.8l-.1,.1h-6.2l.1,3.6h-2.5l.1-3.6h-6.1l-.1-.1v-1.8l.1-.1h6.2v-1.5h-4.1l-.1-.1,.1-2.4v-3.1l-.1-1.9,.1-.1h8.2l2.2,.2h0Zm-8.4,2.8h6.2v-.9h-6.2v.9Zm0,2.7h6.2v-.9h-6.2v.9Z"/><path id="h" class="v" d="M180.8,17.9l.1-.1h2.2l.1,.1v2h6.2l.1,.1v1.8l-.1,.1h-14.6l-.1-.1v-1.8l.1-.1h5.9l.1-2h0Zm2.4,11l.1,3.9h-2.5l.1-3.9v-3.5h-2.1v5.6h-2.4l.1-3.4v-4.1l.1-.1h4.3v-1.3l.1-.1h2.1l.1,.1v1.2h4.6l.1,.1-.1,2v1.2l.1,2.4c0,1.4-.6,2-3.1,2q-.3,0-.4-.2l-.7-2h1.3c.3,0,.4-.1,.4-.4v-3.2h-2.2v3.7h0Z"/><path id="i" class="v" d="M196.3,26.5l.1,6.2h-2.3l.1-6.2v-8.2l.1-.1h4.5l.7,.8c.1,.1,.1,.2,.1,.5-.3,1.4-.6,2.7-1.1,4,.8,1,1.2,2.3,1.2,3.6,.1,1.3-.8,2.4-2,2.6h-.4c-.2,0-.3,0-.4-.2l-.6-1.8c1.1,0,1.3-.2,1.3-1-.1-1.1-.4-2.1-1.1-3,0-.1-.1-.1-.1-.2v-.2c.3-1,.6-2.1,.8-3.2h-1.1c.2,.1,.2,6.4,.2,6.4Zm8,4.4c0,.3-.1,.4-.3,.5-1.7,.6-3.4,1-5.1,1.4l-.1-.1-.6-1.8,.1-.1c.6-.1,1.2-.2,1.8-.3v-11.7l.1-.1h7.3l.1,.1-.1,1.9v2.8l.1,2.2-.1,.1h-2.4c.1,.6,.3,1.1,.6,1.7,.5-.5,1-1,1.4-1.5h.2l1.4,1.3v.2c-.7,.6-1.4,1.1-2.1,1.6,.6,.8,1.4,1.4,2.3,1.9l-1.4,1.5c-.1,.1-.2,.2-.3,.2s-.2-.1-.3-.1c-1-.8-1.9-1.7-2.5-2.9l-.1,1.2h0Zm1-10.6h-3.3v1h3.3v-1Zm-3.2,3.6h3.3v-1h-3.3v1Zm2,5.2c-.5-1.1-.9-2.2-1.1-3.4h-.9v4.3c.7-.2,1.5-.4,2.2-.6-.1-.1-.2-.3-.2-.3Z"/><path id="j" class="v" d="M218.9,24.2h-3.2l-.1-.1v-1.8l.1-.1h8.3l.1,.1v1.8l-.1,.1h-2.9v1.7h3.6l.1,.1v1.8l-.1,.1h-3.7v2.4h1.5c1.2,0,2.6,0,4.6-.2l-.9,2.1q-.1,.1-.3,.2c-1.3,.1-2.8,.1-4,0-1,0-2.1-.1-3.1-.4-1.1-.2-2-.8-2.8-1.5-.5,.8-1.1,1.5-1.8,2.1-.1,.1-.2,.1-.3,.1s-.2,0-.3-.1l-1.5-1.2c1.9-1.4,3-3.6,3-6l.1-.1,1.9,.4,.1,.1c-.1,1-.3,1.9-.6,2.9,.5,.5,1.1,.9,1.8,1.2l.5-5.7h0Zm-.3-6.4l.1-.1h2.1l.1,.1v1.6h5.7l.1,.1-.1,1.2v.5l.1,2.2h-2.3v-2h-9.2v2h-2.3l.1-2v-.5l-.1-1.3,.1-.1h5.6v-1.7h0Z"/><rect id="k" class="v" x="142.3" y="39.6" width="1.5" height="6.5"/><path id="l" class="v" d="M147.9,44c.1,.7,.4,1.1,1.1,1.1,.3,0,.6-.2,.7-.5v-.1c0-.5-.3-.7-1.3-1-1.2-.4-1.8-1-1.8-2,0-1.1,.8-1.9,1.9-2h.3c1.1-.1,2.2,.7,2.3,1.9h0l-1.5,.3c-.1-.8-.4-1.2-.9-1.2-.3,0-.6,.2-.7,.6v.1c0,.4,.3,.7,1.2,1,1.4,.4,1.9,1,1.9,2,0,1.2-.9,2-2.3,2-1.2,.2-2.4-.7-2.5-1.9v-.2l1.6-.1h0Z"/><path id="m" class="v" d="M159,46.1h-1.5l-.4-1.5h-2l-.4,1.5h-1.4l1.6-6.5h2.4l1.7,6.5h0Zm-2.7-4.7c-.1-.3-.1-.6-.2-.9h0c-.1,.3-.1,.6-.2,.9l-.5,2h1.4l-.5-2h0Z"/><path id="n" class="v" d="M166.6,39.6v6.5h-1.5v-2.7h-2.1v2.7h-1.5v-6.5h1.5v2.6h2.1v-2.6h1.5Z"/><path id="o" class="v" d="M174.6,46.1h-1.5l-.4-1.5h-2l-.4,1.5h-1.4l1.6-6.5h2.4l1.7,6.5h0Zm-2.6-4.7c-.1-.3-.1-.6-.2-.9h0c-.1,.3-.1,.6-.2,.9l-.5,2h1.4l-.5-2h0Z"/><path id="p" class="v" d="M180.1,44v2.1h-1.5v-2.1l-2.1-4.4h1.6l1,2.2c.1,.2,.2,.5,.3,.7,.1-.2,.2-.5,.3-.7l.9-2.2h1.6l-2.1,4.4h0Z"/><path id="q" class="v" d="M189.7,46.1h-1.5l-.4-1.5h-2l-.4,1.5h-1.4l1.6-6.5h2.4l1.7,6.5h0Zm-2.7-4.7c-.1-.3-.1-.6-.2-.9h0c-.1,.3-.1,.6-.2,.9l-.5,2h1.4l-.5-2h0Z"/><path id="r" class="v" d="M200.8,42.9c0,2.3-1.1,3.3-2.8,3.3s-2.8-1-2.8-3.3,1.1-3.3,2.8-3.3,2.8,.9,2.8,3.3m-1.6,0c0-1.6-.4-2.2-1.1-2.2s-1.1,.6-1.1,2.2,.4,2.2,1.1,2.2,1.1-.6,1.1-2.2"/><path id="s" class="v" d="M208.6,39.6v6.5h-2.1l-1.4-3.8c-.1-.4-.3-.9-.4-1.3h-.1c.1,1.1,.1,2.5,.1,3.5v1.7h-1.3v-6.5h2.1l1.4,3.8c.2,.4,.3,.9,.4,1.3h.1c-.1-1.1-.2-2.2-.2-3.3v-1.9h1.4Z"/><path id="t" class="v" d="M215.6,44.9v1.2h-4v-6.5h1.5v5.3h2.5Z"/><path id="u" class="v" d="M221.2,44v2.1h-1.5v-2.1l-2.1-4.4h1.6l1,2.2c.1,.2,.2,.5,.3,.7,.1-.2,.2-.5,.3-.7l.9-2.2h1.6l-2.1,4.4h0Z"/><g><path class="v" d="M158.4,78.7l-1.5,1.5v214l1.5,1.5h47l1.5-1.5V80.2l-1.5-1.5h-47Zm45.5,214h-44V81.7h44v211Z"/><path class="v" d="M214.4,303.8l1.5-1.5V72.1l-1.5-1.5h-65l-1.5,1.5v230.3l1.5,1.5h65v-.1Zm-63.5-230.2h62v227.3h-62V73.6Z"/><path class="v" d="M256.2,29.2l-.5-1.1L223.9,.4l-1-.4h-80.7l-1,.3-34.4,28.7h0l-.2,.1v246.6l.4,1,32.7,34h0l1.5,1.5h81.4l1.2-1.2h0l32.2-33.9,.4-1-.2-246.9h0ZM142.7,3h79.6l30.8,26.8-31.4,32.4h-80.2l-30.9-32.5L142.7,3Zm-33.1,272V32.8l30.1,31.7v241.8l-30.1-31.3h0Zm111.5,34.2h-78.4V65.2h78.4v244h0Zm3-2.8V64.1l29.1-30,.2,241.5-29.3,30.8h0Z"/></g><rect class="v" x=".2" y="192.8" width="106.5" height="3"/><rect class="v" x="253.5" y="192.8" width="109.5" height="3"/><g><path class="v" d="M1.1,172.5H9.7v2.9l-5.1,1.8c-.6,.2-1.2,.4-1.8,.5v.1c1.4-.1,3.4-.2,4.6-.2h2.3v1.8H1.1v-2.9l5.1-1.8c.6-.2,1.2-.4,1.8-.5v-.1c-1.4,.1-2.9,.2-4.4,.2H1.1v-1.8Z"/><path class="v" d="M9.6,167.9v2H1.1v-2H9.6Z"/><path class="v" d="M6.8,163.7c1-.1,1.5-.6,1.5-1.5,0-.5-.3-.9-.8-.9-.6,0-.9,.4-1.3,1.7-.6,1.6-1.3,2.4-2.6,2.4-1.6,0-2.6-1.1-2.6-2.9s.9-2.8,2.5-3.1l.4,2c-1,.1-1.6,.5-1.6,1.2,0,.6,.3,.9,.9,.9s.9-.4,1.3-1.6c.6-1.8,1.3-2.6,2.7-2.6,1.6,0,2.6,1.1,2.6,3.1s-.9,3.2-2.7,3.4l-.3-2.1h0Z"/><path class="v" d="M1.1,150.3H9.7v2h-3.6v2.9h3.6v2H1.1v-2h3.4v-2.9H1.1v-2Z"/><path class="v" d="M9.6,145.6v2H1.1v-2H9.6Z"/><path class="v" d="M3.4,137.6c.5,0,.9,0,1.4,.1h0c-.5-.3-1-.6-1.4-.9l-2.3-1.8v-2.5l3.6,3.2,5-3.2v2.4l-3.6,2.1,.7,.6h2.9v2H1.1v-2H3.4Z"/><path class="v" d="M6.9,126.4h2.8v2.1h-2.8l-5.8,2.8v-2.2l2.9-1.3c.3-.1,.6-.3,.9-.4-.3-.1-.6-.2-1-.4l-2.9-1.2v-2.1c.1-.1,5.9,2.7,5.9,2.7Z"/><path class="v" d="M1.1,114.8H6.6c2.2,0,3.2,1.4,3.2,3.5s-1,3.5-3.2,3.5H1.1v-2H6.5c1.3,0,1.8-.6,1.8-1.4s-.5-1.4-1.8-1.4H1.1v-2.2Z"/><path class="v" d="M6.8,110.7c1-.1,1.5-.6,1.5-1.5,0-.5-.3-.9-.8-.9-.6,0-.9,.4-1.3,1.7-.6,1.6-1.3,2.4-2.6,2.4-1.6,0-2.6-1.1-2.6-2.9s.9-2.8,2.5-3.1l.4,2c-1,.1-1.6,.5-1.6,1.2,0,.6,.3,.9,.9,.9s.9-.4,1.3-1.6c.6-1.8,1.3-2.6,2.7-2.6,1.6,0,2.6,1.2,2.6,3.1s-.9,3.2-2.7,3.4l-.3-2.1h0Z"/><path class="v" d="M1.1,97.2H9.7v2h-3.6v2.9h3.6v2H1.1v-2h3.4v-2.9H1.1v-2Z"/><path class="v" d="M1.1,87.7H6.6c2.2,0,3.2,1.4,3.2,3.5s-1,3.5-3.2,3.5H1.1v-2H6.5c1.3,0,1.8-.6,1.8-1.4s-.5-1.4-1.8-1.4H1.1v-2.2Z"/><path class="v" d="M6.8,80.2c1-.1,1.5-.6,1.5-1.5,0-.5-.3-.9-.8-.9-.6,0-.9,.4-1.3,1.7-.6,1.6-1.3,2.4-2.6,2.4-1.6,0-2.6-1.1-2.6-2.9s.9-2.8,2.5-3.1l.4,2c-1,.1-1.6,.5-1.6,1.2,0,.6,.3,.9,.9,.9s.9-.4,1.3-1.6c.6-1.8,1.3-2.6,2.7-2.6,1.6,0,2.6,1.2,2.6,3.1s-.9,3.1-2.7,3.3l-.3-2h0Z"/><path class="v" d="M1.1,66.7H9.7v2h-3.6v2.9h3.6v2H1.1v-2h3.4v-2.9H1.1v-2Z"/><path class="v" d="M9.6,62v2H1.1v-2H9.6Z"/><path class="v" d="M1.1,52.5H9.7v2.9l-5.1,1.8c-.6,.2-1.2,.4-1.8,.5v.1c1.4-.1,3.4-.2,4.6-.2h2.3v1.8H1.1v-2.9l5.1-1.8c.6-.2,1.2-.4,1.8-.5v-.1c-1.4,.1-2.9,.2-4.4,.2H1.1v-1.8Z"/><path class="v" d="M3.4,47.9c.5,0,.9,0,1.4,.1h0c-.5-.3-1-.6-1.4-.9l-2.3-1.8v-2.5l3.6,3.2,5-3.2v2.5l-3.6,2.1,.7,.6h2.9v2H1.1v-2c0-.1,2.3-.1,2.3-.1Z"/><path class="v" d="M9.6,34v2l-2,.5v2.6l2,.5v1.9L1,39.3v-3.1l8.6-2.2Zm-6.2,3.6c-.4,.1-.8,.2-1.2,.2v.1c.4,.1,.8,.1,1.2,.2l2.7,.7v-1.9s-2.7,.7-2.7,.7Z"/><path class="v" d="M1.1,25.3H9.7v2.9l-5.2,1.8c-.6,.2-1.2,.4-1.8,.5v.1c1.4-.1,3.4-.2,4.6-.2h2.3v1.8H1.1v-2.9l5.1-1.8c.6-.2,1.2-.4,1.8-.5v-.1c-1.4,.1-2.9,.2-4.4,.2H1.1v-1.8Z"/><path class="v" d="M6.8,21.2c1-.1,1.5-.6,1.5-1.5,0-.5-.3-.9-.8-.9-.6,0-.9,.4-1.3,1.7-.6,1.6-1.3,2.4-2.6,2.4-1.6,0-2.6-1.1-2.6-2.9s.9-2.8,2.5-3.1l.4,2c-1,.1-1.6,.5-1.6,1.2,0,.6,.4,.9,.9,.9,.6,0,.9-.4,1.3-1.6,.6-1.8,1.3-2.6,2.7-2.6,1.6,0,2.6,1.2,2.6,3.1s-.9,3.1-2.7,3.3l-.3-2h0Z"/><path class="v" d="M8.1,9.4h1.5v5.3H1.1v-5.2h1.5v3.2h2v-2.9h1.4v2.9h2.2l-.1-3.3h0Z"/><path class="v" d="M1.1,.4H9.7V3.3l-5.2,1.8c-.6,.2-1.2,.4-1.7,.5v.1c1.4-.1,3.3-.2,4.5-.2h2.3v1.8H1.1v-2.9l5.1-1.8c.6-.2,1.2-.4,1.8-.5v-.1c-1.5,.1-3,.2-4.4,.2H1.1V.4Z"/></g><g><path class="v" d="M361.7,7.4h-8.6v-2.9l5.1-1.8c.6-.2,1.2-.4,1.8-.5v-.1c-1.4,.1-3.4,.2-4.6,.2h-2.3V.6h8.6V3.5l-5.1,1.8c-.6,.2-1.2,.4-1.8,.5v.1c1.4-.1,2.9-.2,4.4-.2h2.5v1.7h0Z"/><path class="v" d="M353.1,12.1v-2h8.6v2h-8.6Z"/><path class="v" d="M356,16.2c-1,.1-1.5,.6-1.5,1.5,0,.5,.3,.9,.8,.9,.6,0,.9-.4,1.3-1.7,.5-1.6,1.3-2.4,2.6-2.4,1.6,0,2.6,1.1,2.6,2.9s-.9,2.8-2.5,3.1l-.4-2c1-.1,1.6-.5,1.6-1.2,0-.6-.4-.9-.9-.9-.6,0-.9,.4-1.3,1.6-.6,1.8-1.3,2.6-2.7,2.6-1.6,0-2.6-1.1-2.6-3.1s.9-3.2,2.7-3.4l.3,2.1h0Z"/><path class="v" d="M361.7,29.7h-8.6v-2h3.6v-2.9h-3.6v-2h8.6v2h-3.4v2.9h3.4c0-.1,0,2,0,2Z"/><path class="v" d="M353.1,34.4v-2h8.6v2h-8.6Z"/><path class="v" d="M359.4,42.4c-.5,0-.9,0-1.4-.1h0c.5,.3,1,.6,1.4,.9l2.3,1.8v2.5l-3.6-3.2-5,3.2v-2.5l3.6-2.1-.7-.6h-2.9v-2h8.6v2c0,.1-2.3,.1-2.3,.1Z"/><path class="v" d="M355.9,53.5h-2.7v-2h2.8l5.8-2.8v2.2l-2.9,1.3c-.3,.1-.6,.3-1,.4,.3,.1,.6,.2,1,.4l2.9,1.2v2.1c-.1,0-5.9-2.8-5.9-2.8Z"/><path class="v" d="M361.7,65.1h-5.5c-2.2,0-3.2-1.4-3.2-3.5s1-3.5,3.2-3.5h5.5v2h-5.4c-1.3,0-1.8,.6-1.8,1.4s.5,1.4,1.8,1.4h5.4v2.2Z"/><path class="v" d="M356,69.2c-1,.1-1.5,.6-1.5,1.5,0,.5,.3,.9,.8,.9,.6,0,.9-.4,1.3-1.7,.5-1.6,1.3-2.4,2.6-2.4,1.6,0,2.6,1.1,2.6,2.9s-.9,2.8-2.5,3.1l-.4-2c1-.1,1.6-.5,1.6-1.2,0-.6-.4-.9-.9-.9-.6,0-.9,.4-1.3,1.6-.6,1.8-1.3,2.6-2.7,2.6-1.6,0-2.6-1.2-2.6-3.1s.9-3.2,2.7-3.4l.3,2.1h0Z"/><path class="v" d="M361.7,82.7h-8.6v-2h3.6v-2.9h-3.6v-2h8.6v2h-3.4v2.9h3.4v2Z"/><path class="v" d="M361.7,92.3h-5.5c-2.2,0-3.2-1.4-3.2-3.5s1-3.5,3.2-3.5h5.5v2h-5.4c-1.3,0-1.8,.6-1.8,1.4s.5,1.4,1.8,1.4h5.4v2.2Z"/><path class="v" d="M356,99.8c-1,.1-1.5,.6-1.5,1.5,0,.5,.3,.9,.8,.9,.6,0,.9-.4,1.3-1.7,.5-1.6,1.3-2.4,2.6-2.4,1.6,0,2.6,1.1,2.6,2.9s-.9,2.8-2.5,3.1l-.4-2c1-.1,1.6-.5,1.6-1.2,0-.6-.4-.9-.9-.9-.6,0-.9,.4-1.3,1.6-.6,1.8-1.3,2.6-2.7,2.6-1.6,0-2.6-1.2-2.6-3.1s.9-3.2,2.7-3.4l.3,2.1h0Z"/><path class="v" d="M361.7,113.3h-8.6v-2h3.6v-2.9h-3.6v-2h8.6v2h-3.4v2.9h3.4v2Z"/><path class="v" d="M353.1,118v-2h8.6v2h-8.6Z"/><path class="v" d="M361.7,127.5h-8.6v-2.9l5.1-1.8c.6-.2,1.2-.4,1.8-.5v-.1c-1.4,.1-3.4,.2-4.6,.2h-2.3v-1.8h8.6v2.9l-5.1,1.8c-.6,.2-1.2,.4-1.8,.5v.1c1.4-.1,2.9-.2,4.4-.2h2.5v1.8h0Z"/><path class="v" d="M359.4,132.1c-.5,0-.9,0-1.4-.1h0c.5,.3,1,.6,1.4,.9l2.3,1.8v2.5l-3.6-3.2-5,3.2v-2.4l3.6-2.1-.7-.6h-2.9v-2h8.6v2h-2.3Z"/><path class="v" d="M353.1,145.9v-2l2-.5v-2.6l-2-.5v-1.9l8.6,2.2v3.1l-8.6,2.2h0Zm6.3-3.5c.4-.1,.8-.2,1.2-.2v-.1c-.4-.1-.8-.1-1.2-.2l-2.7-.7v1.9l2.7-.7Z"/><path class="v" d="M361.7,154.6h-8.6v-2.9l5.1-1.8c.6-.2,1.2-.4,1.8-.5v-.1c-1.4,.1-3.4,.2-4.6,.2h-2.3v-1.8h8.6v2.9l-5.1,1.8c-.6,.2-1.2,.4-1.8,.5v.1c1.4-.1,2.9-.2,4.4-.2h2.5v1.8h0Z"/><path class="v" d="M356,158.8c-1,.1-1.5,.6-1.5,1.5,0,.5,.3,.9,.8,.9,.6,0,.9-.4,1.3-1.7,.5-1.6,1.3-2.4,2.6-2.4,1.6,0,2.6,1.1,2.6,2.9s-.9,2.8-2.5,3.1l-.4-2c1-.1,1.6-.5,1.6-1.2,0-.6-.4-.9-.9-.9-.6,0-.9,.4-1.3,1.6-.6,1.8-1.3,2.6-2.7,2.6-1.6,0-2.6-1.2-2.6-3.1s.9-3.2,2.7-3.4l.3,2.1h0Z"/><path class="v" d="M354.6,170.6h-1.5v-5.3h8.6v5.2h-1.5v-3.2h-2v2.9h-1.4v-2.9h-2.1l-.1,3.3h0Z"/><path class="v" d="M361.7,179.5h-8.6v-2.9l5.1-1.8c.6-.2,1.2-.4,1.8-.5v-.1c-1.4,.1-3.4,.2-4.6,.2h-2.3v-1.8h8.6v2.9l-5.1,1.8c-.6,.2-1.2,.4-1.8,.5v.1c1.4-.1,2.9-.2,4.4-.2h2.5v1.8h0Z"/></g><g><path class="v" d="M238.55,83.1c-.12,.49-.18,.84-.23,1.18-.02,.14-.06,.4-.11,.72,.8-.01,1.54-.08,2-.16l-.06,1.69c-.64,.07-1.24,.12-2.18,.12-.05,.42-.11,.86-.16,1.3,.67,0,1.58-.05,2.31-.13l-.05,1.68c-.58,.06-1.25,.11-1.95,.11h-.48c-.02,.28-.04,.52-.04,.68,0,.88,.56,1.3,1.61,1.3,1.56,0,2.33-.73,2.33-1.56s-.44-1.5-1.16-2.21l2-.43c.76,1.04,1.1,1.87,1.1,2.88,0,1.79-1.61,3.18-4.33,3.18-2,0-3.31-.85-3.31-2.85,0-.26,.02-.64,.07-1.09-.83-.08-1.55-.22-2.13-.37l.1-1.72c.74,.25,1.5,.4,2.22,.47,.06-.43,.12-.89,.17-1.32-.79-.08-1.57-.24-2.23-.43l.08-1.63c.66,.23,1.49,.37,2.34,.44,.04-.29,.06-.55,.07-.78,.04-.62,.04-.88,.01-1.16l2,.11Z"/><path class="v" d="M239.14,101.84c-1.26,0-2.43,.4-2.97,.56-.32,.1-.86,.31-1.22,.44l-.53-2.01c.43-.04,1-.13,1.4-.22,.88-.2,2.18-.52,3.59-.52,1.96,0,3.3,1.13,3.3,3.06,0,2.51-2.36,4.14-5.76,4.58l-1.02-1.79c2.95-.31,4.75-1.18,4.75-2.87,0-.66-.49-1.25-1.54-1.25Zm2.54-4.08l-.29,1.75c-1.4-.1-4.07-.32-5.43-.56l.28-1.7c1.42,.29,4.15,.52,5.45,.52Z"/><path class="v" d="M240.67,111.13c-.04,.22-.08,.95-.1,1.16v.13c1.1,0,2.67-.02,3.29-.01l-.02,1.68c-.7-.04-1.8-.06-3.29-.07,.01,.56,.01,1.16,.01,1.65,.3,.47,.46,1.04,.46,1.68,0,1.51-.97,3.56-3.91,4.35l-1.52-1.51c1.03-.22,2-.49,2.7-1.04-.07,.01-.14,.01-.22,.01-.85,0-2.08-.73-2.08-2.25,0-1.42,1.14-2.29,2.51-2.29,.1,0,.19,0,.29,.01,0-.2,0-.4-.01-.6-1.76,.02-3.5,.1-4.94,.17l-.05-1.7c1.36,.01,3.44-.04,4.97-.06-.01-.05-.01-.1-.01-.13-.05-.56-.1-1-.13-1.18h2.06Zm-2.22,6.46c.37,0,.77-.26,.64-1.16-.14-.2-.37-.31-.64-.31-.37,0-.76,.22-.76,.76,0,.43,.37,.72,.76,.72Z"/><path class="v" d="M240.34,126.85c-.73,.55-2.22,1.68-2.95,2.33-.59,.49-.56,.6,.01,1.1,.78,.67,3.08,2.47,4.26,3.59l-1.66,1.55c-.37-.42-.78-.84-1.15-1.22-.65-.68-2.34-2.13-3.41-3.05-1.2-1.03-1.13-1.74,.11-2.76,.95-.77,2.45-2.01,3.25-2.77,.38-.38,.83-.79,1.03-1.12l1.67,1.48c-.44,.31-.84,.62-1.16,.88Zm1.31,2.37l-1.15,.48c-.24-.49-.62-1.32-.94-1.8l1.12-.44c.31,.44,.77,1.34,.97,1.76Zm1.45-.58l-1.13,.48c-.26-.49-.66-1.31-1-1.77l1.15-.47c.3,.46,.76,1.35,.97,1.76Z"/><path class="v" d="M233.17,142.57c.53-.12,1.09-.32,1.28-.41l.86-.36c-.13-.29-.28-.56-.43-.84-.19-.31-.5-.8-.77-1.13l1.85-.72c.11,.24,.37,.78,.5,1.01,.16,.31,.32,.64,.48,.97,.61-.26,1.21-.52,1.79-.71-.43-.44-1.13-1.14-1.54-1.44l1.32-.91c.43,.34,1.31,1.1,1.69,1.51l-.91,.66c.55-.16,1.09-.25,1.59-.25,1.92,0,3.08,1.21,3.08,2.61,0,1.81-1.28,2.87-3.06,2.87-.64,0-1.4-.17-1.85-.34l.05-1.79c.56,.24,1.15,.41,1.59,.41,.66,0,1.37-.36,1.37-1.2,0-.55-.5-.95-1.24-.95-.85,0-2.05,.44-3.24,1,.08,.2,.17,.4,.25,.59,.5,1.19,1.51,3.87,1.89,5.22l-1.97,.49c-.36-1.52-1-3.57-1.56-4.92-.08-.19-.16-.4-.24-.59-.8,.41-1.51,.79-1.99,1.01l-.83-1.8Z"/><path class="v" d="M236.34,152.84c-.12,.34-.26,.82-.31,1.08-.25,1.08-.67,3.49-.44,4.68,.16-.29,.36-.78,.53-1.12l.88,.56c-.38,1.12-.67,2.29-.83,3.01-.05,.18-.08,.47-.08,.6,0,.12,.01,.35,.02,.54l-1.6,.16c-.26-.71-.71-2.41-.71-3.86,0-1.94,.2-3.75,.36-4.7,.06-.36,.07-.8,.08-1.14l2.1,.19Zm5.79-.2c-.05,.29-.06,.6-.07,.86v1.35c.64-.05,1.22-.11,1.67-.18v1.85c-.46,.04-1.03,.07-1.67,.11v.54c0,2.81-.33,4.4-2.59,5.9l-1.64-1.29c.5-.22,1.15-.64,1.5-1.06,.7-.84,.96-1.74,.96-3.56v-.46c-.41,.01-.83,.01-1.22,.01-.48,0-1.14-.04-1.76-.06v-1.8c.61,.08,1.1,.12,1.73,.12,.4,0,.82-.01,1.25-.02-.01-.59-.02-1.13-.05-1.45-.02-.29-.1-.68-.14-.86h2.05Z"/><path class="v" d="M239.48,167.86c-.61,.86-1.29,2.11-1.86,3.09,.36-.11,.74-.16,1.12-.16,.95,0,1.45,.59,1.51,1.61,.02,.42-.01,1.38,.06,1.83,.04,.38,.32,.53,.64,.53,.86,0,1.42-1.15,1.78-2.73l1.55,1.26c-.61,2.1-1.75,3.45-3.62,3.45-1.33,0-2.05-.78-2.11-1.73-.04-.6-.04-1.58-.07-1.97-.04-.36-.23-.56-.59-.56-.72,0-1.26,.73-1.67,1.7-.28,.68-.64,1.96-.82,2.59l-2.03-.67c.88-2.35,3.19-7.14,3.81-8.25,.14-.32,.41-.77,.66-1.34l2.02,.8c-.13,.17-.24,.37-.37,.54Z"/><path class="v" d="M243.06,185.32v.73h1.29v1.57h-1.29v2.15c0,.82-.16,1.24-.7,1.49-.54,.25-1.24,.28-2.13,.28-.07-.48-.3-1.18-.52-1.63,.5,.04,1.17,.04,1.35,.02,.18,0,.24-.04,.24-.19v-2.11h-2.49c.5,.6,1.07,1.39,1.31,1.96l-1.54,.83c-.2-.58-.78-1.48-1.28-2.12l1.27-.66h-1.8v-1.57h4.53v-.73h-4.64v-.97l-.4,.54v6.63h-1.67v-4.75c-.31,.3-.62,.58-.92,.82-.12-.4-.54-1.39-.78-1.82,1.02-.72,2.19-1.87,2.88-3l1.5,.65c-.06,.11-.13,.22-.2,.32h2.61v-.78h-2.36v-1.57h2.36v-1.21h1.74v1.21h2.51v1.57h-2.51v.78h3.03v1.58h-1.4Zm-6.01-4.51c-.83,1.15-2.07,2.36-3.23,3.11-.17-.4-.58-1.12-.83-1.49,.9-.55,1.94-1.52,2.43-2.29l1.62,.67Z"/><path class="v" d="M238.49,194.33c-.13,.48-.2,.9-.31,1.32l-.04,.18c1.29-.07,2.82-.25,4.22-.54l.04,1.69c-1.14,.18-3.01,.42-4.62,.49-.13,.56-.28,1.13-.42,1.63,.92-.41,1.75-.58,2.71-.58,1.92,0,3.27,1.04,3.27,2.63,0,2.75-2.57,3.73-6.51,3.31l-.5-1.85c2.51,.43,5.09,.2,5.09-1.42,0-.6-.55-1.14-1.57-1.14-1.33,0-2.47,.49-3.13,1.37-.11,.14-.19,.29-.3,.49l-1.68-.59c.54-1.06,1-2.55,1.31-3.83-.7-.02-1.36-.05-1.9-.11v-1.76c.72,.12,1.55,.22,2.23,.24,.02-.12,.04-.23,.05-.32,.07-.56,.08-.88,.06-1.29l2,.07Z"/><path class="v" d="M239.48,209.78c-.61,.86-1.29,2.11-1.86,3.09,.36-.11,.74-.16,1.12-.16,.95,0,1.45,.59,1.51,1.61,.02,.42-.01,1.38,.06,1.83,.04,.38,.32,.53,.64,.53,.86,0,1.42-1.15,1.78-2.73l1.55,1.26c-.61,2.1-1.75,3.45-3.62,3.45-1.33,0-2.05-.78-2.11-1.73-.04-.6-.04-1.58-.07-1.97-.04-.36-.23-.56-.59-.56-.72,0-1.26,.73-1.67,1.7-.28,.68-.64,1.96-.82,2.59l-2.03-.67c.88-2.35,3.19-7.14,3.81-8.25,.14-.32,.41-.77,.66-1.34l2.02,.8c-.13,.17-.24,.37-.37,.54Z"/><path class="v" d="M237.27,223.92c-.06,1.24-.14,3.77-.14,5.06,0,1.13,.65,1.49,1.44,1.49,1.82,0,3.06-1.08,3.92-2.39l1.29,1.58c-.73,1.13-2.48,2.75-5.22,2.75-2.06,0-3.35-.92-3.35-2.99,0-1.48,.11-4.63,.11-5.5,0-.64-.06-1.28-.18-1.81l2.29,.02c-.07,.55-.14,1.26-.17,1.79Z"/><path class="v" d="M236.72,238.7c.16-.06,.32-.13,.48-.19-.11-.2-.2-.4-.3-.56-.14-.25-.36-.61-.61-.9l1.75-.66c.13,.23,.31,.58,.4,.74,.1,.19,.22,.44,.33,.71,.38-.17,.76-.31,1.12-.44-.32-.36-.74-.78-1.14-1.03l1.25-.9c.35,.23,1.03,.8,1.26,1.13l-.9,.65c.5-.16,.96-.25,1.39-.25,1.78,0,2.63,1.15,2.63,2.12,0,1.44-.83,2.45-2.52,2.45-.49,0-1.13-.16-1.48-.29l.04-1.62c.44,.2,.97,.31,1.29,.31,.5,0,.91-.31,.91-.84,0-.38-.41-.61-.95-.61-.59,0-1.44,.3-2.3,.68,.08,.2,.17,.4,.24,.56,.4,.94,1.08,2.95,1.39,3.99l-1.76,.42c-.28-1.2-.8-2.72-1.21-3.73-.06-.16-.13-.32-.19-.48-.66,.34-1.21,.65-1.49,.77l-.78-1.68c.5-.13,1.01-.29,1.15-.35Z"/><path class="v" d="M236,249.45c0,.77,0,1.54,.07,2.33,.14,1.54,.37,2.61,1.06,2.61,.54,0,.96-1.46,1.13-2.27l1.44,1.76c-.83,2.09-1.57,2.79-2.6,2.79-1.39,0-2.53-1.16-2.85-4.38-.12-1.12-.13-2.47-.13-3.21,0-.35-.02-.85-.11-1.27l2.17,.02c-.1,.5-.17,1.26-.17,1.61Zm8.08,4.86l-1.87,.72c-.17-1.77-.74-4.87-2.12-6.37l1.8-.59c1.15,1.36,2.09,4.53,2.19,6.24Z"/></g><g><path class="v" d="M124.45,83.1c-.12,.49-.18,.84-.23,1.18-.02,.14-.06,.4-.11,.72,.8-.01,1.54-.08,2-.16l-.06,1.69c-.64,.07-1.24,.12-2.18,.12-.05,.42-.11,.86-.16,1.3,.67,0,1.58-.05,2.31-.13l-.05,1.68c-.58,.06-1.25,.11-1.95,.11h-.48c-.02,.28-.04,.52-.04,.68,0,.88,.56,1.3,1.61,1.3,1.56,0,2.33-.73,2.33-1.56s-.44-1.5-1.16-2.21l2-.43c.76,1.04,1.1,1.87,1.1,2.88,0,1.79-1.61,3.18-4.33,3.18-2,0-3.31-.85-3.31-2.85,0-.26,.02-.64,.07-1.09-.83-.08-1.55-.22-2.13-.37l.1-1.72c.74,.25,1.5,.4,2.22,.47,.06-.43,.12-.89,.17-1.32-.79-.08-1.57-.24-2.23-.43l.08-1.63c.66,.23,1.49,.37,2.34,.44,.04-.29,.06-.55,.07-.78,.04-.62,.04-.88,.01-1.16l2,.11Z"/><path class="v" d="M125.04,101.84c-1.26,0-2.43,.4-2.97,.56-.32,.1-.86,.31-1.22,.44l-.53-2.01c.43-.04,1-.13,1.4-.22,.88-.2,2.18-.52,3.59-.52,1.96,0,3.3,1.13,3.3,3.06,0,2.51-2.36,4.14-5.76,4.58l-1.02-1.79c2.95-.31,4.75-1.18,4.75-2.87,0-.66-.49-1.25-1.54-1.25Zm2.54-4.08l-.29,1.75c-1.4-.1-4.07-.32-5.43-.56l.28-1.7c1.42,.29,4.15,.52,5.44,.52Z"/><path class="v" d="M126.57,111.13c-.04,.22-.08,.95-.1,1.16v.13c1.1,0,2.67-.02,3.29-.01l-.02,1.68c-.7-.04-1.8-.06-3.29-.07,.01,.56,.01,1.16,.01,1.65,.3,.47,.46,1.04,.46,1.68,0,1.51-.97,3.56-3.91,4.35l-1.52-1.51c1.03-.22,2-.49,2.7-1.04-.07,.01-.14,.01-.22,.01-.85,0-2.07-.73-2.07-2.25,0-1.42,1.14-2.29,2.51-2.29,.1,0,.19,0,.29,.01,0-.2,0-.4-.01-.6-1.76,.02-3.5,.1-4.94,.17l-.05-1.7c1.36,.01,3.44-.04,4.97-.06-.01-.05-.01-.1-.01-.13-.05-.56-.1-1-.13-1.18h2.06Zm-2.22,6.46c.37,0,.77-.26,.64-1.16-.14-.2-.37-.31-.64-.31-.37,0-.76,.22-.76,.76,0,.43,.37,.72,.76,.72Z"/><path class="v" d="M126.24,126.85c-.73,.55-2.22,1.68-2.95,2.33-.59,.49-.56,.6,.01,1.1,.78,.67,3.08,2.47,4.26,3.59l-1.66,1.55c-.37-.42-.78-.84-1.15-1.22-.65-.68-2.34-2.13-3.41-3.05-1.2-1.03-1.13-1.74,.11-2.76,.95-.77,2.45-2.01,3.25-2.77,.38-.38,.83-.79,1.03-1.12l1.67,1.48c-.44,.31-.84,.62-1.16,.88Zm1.31,2.37l-1.15,.48c-.24-.49-.62-1.32-.94-1.8l1.12-.44c.31,.44,.77,1.34,.97,1.76Zm1.45-.58l-1.13,.48c-.26-.49-.66-1.31-1-1.77l1.15-.47c.3,.46,.76,1.35,.97,1.76Z"/><path class="v" d="M119.07,142.57c.53-.12,1.09-.32,1.28-.41l.86-.36c-.13-.29-.28-.56-.43-.84-.19-.31-.5-.8-.77-1.13l1.85-.72c.11,.24,.37,.78,.5,1.01,.16,.31,.32,.64,.48,.97,.61-.26,1.21-.52,1.79-.71-.43-.44-1.13-1.14-1.54-1.44l1.32-.91c.43,.34,1.31,1.1,1.69,1.51l-.91,.66c.55-.16,1.09-.25,1.6-.25,1.92,0,3.08,1.21,3.08,2.61,0,1.81-1.28,2.87-3.06,2.87-.64,0-1.4-.17-1.85-.34l.05-1.79c.56,.24,1.15,.41,1.6,.41,.66,0,1.37-.36,1.37-1.2,0-.55-.5-.95-1.24-.95-.85,0-2.05,.44-3.24,1,.08,.2,.17,.4,.25,.59,.5,1.19,1.51,3.87,1.89,5.22l-1.97,.49c-.36-1.52-1-3.57-1.56-4.92-.08-.19-.16-.4-.24-.59-.8,.41-1.51,.79-1.99,1.01l-.83-1.8Z"/><path class="v" d="M122.24,152.84c-.12,.34-.26,.82-.31,1.08-.25,1.08-.67,3.49-.44,4.68,.16-.29,.36-.78,.53-1.12l.88,.56c-.38,1.12-.67,2.29-.83,3.01-.05,.18-.08,.47-.08,.6,0,.12,.01,.35,.02,.54l-1.6,.16c-.26-.71-.71-2.41-.71-3.86,0-1.94,.2-3.75,.36-4.7,.06-.36,.07-.8,.08-1.14l2.1,.19Zm5.79-.2c-.05,.29-.06,.6-.07,.86v1.35c.64-.05,1.22-.11,1.67-.18v1.85c-.46,.04-1.03,.07-1.67,.11v.54c0,2.81-.34,4.4-2.59,5.9l-1.64-1.29c.5-.22,1.15-.64,1.5-1.06,.7-.84,.96-1.74,.96-3.56v-.46c-.41,.01-.83,.01-1.22,.01-.48,0-1.14-.04-1.76-.06v-1.8c.61,.08,1.1,.12,1.73,.12,.4,0,.82-.01,1.25-.02-.01-.59-.02-1.13-.05-1.45-.02-.29-.1-.68-.14-.86h2.05Z"/><path class="v" d="M125.38,167.86c-.61,.86-1.3,2.11-1.86,3.09,.36-.11,.74-.16,1.12-.16,.95,0,1.45,.59,1.51,1.61,.02,.42-.01,1.38,.06,1.83,.04,.38,.32,.53,.64,.53,.86,0,1.42-1.15,1.77-2.73l1.55,1.26c-.61,2.1-1.75,3.45-3.62,3.45-1.33,0-2.05-.78-2.11-1.73-.04-.6-.04-1.58-.07-1.97-.04-.36-.23-.56-.59-.56-.72,0-1.26,.73-1.67,1.7-.28,.68-.64,1.96-.82,2.59l-2.03-.67c.88-2.35,3.19-7.14,3.81-8.25,.14-.32,.41-.77,.66-1.34l2.02,.8c-.13,.17-.24,.37-.37,.54Z"/><path class="v" d="M128.96,185.32v.73h1.29v1.57h-1.29v2.15c0,.82-.16,1.24-.7,1.49-.54,.25-1.24,.28-2.13,.28-.07-.48-.3-1.18-.52-1.63,.5,.04,1.18,.04,1.35,.02,.18,0,.24-.04,.24-.19v-2.11h-2.49c.5,.6,1.07,1.39,1.31,1.96l-1.54,.83c-.2-.58-.78-1.48-1.28-2.12l1.27-.66h-1.8v-1.57h4.53v-.73h-4.64v-.97l-.4,.54v6.63h-1.67v-4.75c-.31,.3-.62,.58-.92,.82-.12-.4-.54-1.39-.78-1.82,1.02-.72,2.19-1.87,2.88-3l1.5,.65c-.06,.11-.13,.22-.2,.32h2.61v-.78h-2.36v-1.57h2.36v-1.21h1.74v1.21h2.51v1.57h-2.51v.78h3.03v1.58h-1.4Zm-6.01-4.51c-.83,1.15-2.07,2.36-3.23,3.11-.17-.4-.58-1.12-.83-1.49,.9-.55,1.94-1.52,2.43-2.29l1.62,.67Z"/><path class="v" d="M124.39,194.33c-.13,.48-.2,.9-.31,1.32l-.04,.18c1.3-.07,2.82-.25,4.22-.54l.04,1.69c-1.14,.18-3.01,.42-4.62,.49-.13,.56-.28,1.13-.42,1.63,.92-.41,1.75-.58,2.71-.58,1.92,0,3.27,1.04,3.27,2.63,0,2.75-2.57,3.73-6.51,3.31l-.5-1.85c2.51,.43,5.09,.2,5.09-1.42,0-.6-.55-1.14-1.57-1.14-1.33,0-2.47,.49-3.13,1.37-.11,.14-.19,.29-.3,.49l-1.68-.59c.54-1.06,1-2.55,1.31-3.83-.7-.02-1.36-.05-1.9-.11v-1.76c.72,.12,1.55,.22,2.23,.24,.02-.12,.04-.23,.05-.32,.07-.56,.08-.88,.06-1.29l2,.07Z"/><path class="v" d="M125.38,209.78c-.61,.86-1.3,2.11-1.86,3.09,.36-.11,.74-.16,1.12-.16,.95,0,1.45,.59,1.51,1.61,.02,.42-.01,1.38,.06,1.83,.04,.38,.32,.53,.64,.53,.86,0,1.42-1.15,1.77-2.73l1.55,1.26c-.61,2.1-1.75,3.45-3.62,3.45-1.33,0-2.05-.78-2.11-1.73-.04-.6-.04-1.58-.07-1.97-.04-.36-.23-.56-.59-.56-.72,0-1.26,.73-1.67,1.7-.28,.68-.64,1.96-.82,2.59l-2.03-.67c.88-2.35,3.19-7.14,3.81-8.25,.14-.32,.41-.77,.66-1.34l2.02,.8c-.13,.17-.24,.37-.37,.54Z"/><path class="v" d="M123.17,223.92c-.06,1.24-.14,3.77-.14,5.06,0,1.13,.65,1.49,1.44,1.49,1.82,0,3.06-1.08,3.92-2.39l1.3,1.58c-.73,1.13-2.48,2.75-5.22,2.75-2.06,0-3.35-.92-3.35-2.99,0-1.48,.11-4.63,.11-5.5,0-.64-.06-1.28-.18-1.81l2.29,.02c-.07,.55-.14,1.26-.17,1.79Z"/><path class="v" d="M122.62,238.7c.16-.06,.32-.13,.48-.19-.11-.2-.2-.4-.3-.56-.14-.25-.36-.61-.61-.9l1.75-.66c.13,.23,.31,.58,.4,.74,.1,.19,.22,.44,.34,.71,.38-.17,.76-.31,1.12-.44-.32-.36-.74-.78-1.14-1.03l1.25-.9c.35,.23,1.03,.8,1.26,1.13l-.9,.65c.5-.16,.96-.25,1.39-.25,1.77,0,2.63,1.15,2.63,2.12,0,1.44-.83,2.45-2.52,2.45-.49,0-1.13-.16-1.48-.29l.04-1.62c.44,.2,.97,.31,1.3,.31,.5,0,.91-.31,.91-.84,0-.38-.41-.61-.95-.61-.59,0-1.44,.3-2.3,.68,.08,.2,.17,.4,.24,.56,.4,.94,1.08,2.95,1.39,3.99l-1.76,.42c-.28-1.2-.8-2.72-1.21-3.73-.06-.16-.13-.32-.19-.48-.66,.34-1.21,.65-1.49,.77l-.78-1.68c.5-.13,1.01-.29,1.15-.35Z"/><path class="v" d="M121.9,249.45c0,.77,0,1.54,.07,2.33,.14,1.54,.37,2.61,1.06,2.61,.54,0,.96-1.46,1.13-2.27l1.44,1.76c-.83,2.09-1.57,2.79-2.6,2.79-1.39,0-2.53-1.16-2.85-4.38-.12-1.12-.13-2.47-.13-3.21,0-.35-.02-.85-.11-1.27l2.17,.02c-.1,.5-.17,1.26-.17,1.61Zm8.08,4.86l-1.87,.72c-.17-1.77-.74-4.87-2.12-6.37l1.8-.59c1.15,1.36,2.09,4.53,2.19,6.24Z"/></g><g><path class="v" d="M180.84,108.91c-.1-.43-.23-.59-.5-.76-.26-.2-.4-.53-.4-.79,0-.66,.76-1.19,2.81-1.19,.36,0,.76,.07,1.09,.13,.5,.1,.86,.3,1.22,.99,.63,1.19,2.38,3.14,3.79,4.19,.53,.4,1.06,.66,1.82,.83,.92,.17,1.52,.83,1.52,1.45,0,.86-.56,1.91-1.85,3.04-.99,.86-2.48,1.85-4.55,2.94,.13,1.52,.17,2.77,.17,3.96,0,.36,0,.66-.03,1.19,4.46,.89,7,3.04,7,5.12,0,.86-.2,1.52-.56,1.95-.46,.53-1.35,.99-2.15,1.15-1.58,.3-3,.46-4.65,.46-.26,0-.33-.46-.1-.56,1.75-.76,2.67-1.88,2.67-2.87,0-.89-.73-1.72-2.48-2.41-.23,1.91-.99,3.43-2.15,4.49-1.12,1.02-2.47,1.52-4.55,1.52s-3.89-.53-5.68-1.62c-1.62-.99-2.34-2.11-2.34-3.66,0-1.22,.96-2.31,2.9-3.07,1.98-.76,4.09-1.15,6.54-1.15,.89,0,1.42,.03,2.21,.07,0-1.16-.03-2.21-.13-3.37-2.41,.69-4.16,.96-6.04,.96-1.52,0-2.67-.33-3.56-1.02-.83-.63-1.32-1.55-1.32-2.54,0-1.19,.73-2.67,2.24-4.13,.13-.13,.17-.17,.17-.23s-.03-.1-.2-.17c-1.91-.83-3.47-2.41-3.47-4.13,0-.83,.43-1.42,.86-1.42,.17,0,.23,.13,.3,.43,.26,1.55,1.35,2.18,3.43,2.18,.53,0,.92-.1,1.32-.3,.53-.26,.79-.33,1.06-.33,1.29,0,2.61,.73,3.3,1.78,.3,.46,.43,.76,.43,1.06,0,.73-.66,1.19-2.61,1.42-.49,.07-1.15,.26-1.58,.5-1.88,1.09-2.51,1.85-2.51,2.64,0,.69,.69,1.16,2.01,1.16,2.01,0,3.73-.4,5.91-1.39-.4-3.27-.83-6.01-1.35-8.48Zm-1.09,17.66c-.96,0-2.11,.17-3.33,.5-1.12,.3-1.78,.86-1.78,1.52s.4,1.16,1.19,1.55c.66,.36,1.95,.66,2.97,.66,1.19,0,2.05-.3,2.67-.96,.59-.66,.92-1.62,.99-3.04-.96-.2-1.75-.23-2.71-.23Zm7.52-12.38c.26-.3,.4-.59,.4-1.06,0-.33-.17-.76-.5-1.25-.69-1.02-1.45-1.78-2.21-2.34-.3-.23-.4-.3-.5-.3s-.17,.07-.17,.17c0,.13,.07,.46,.17,1.02,.26,1.49,.59,3.53,.86,5.45,.86-.59,1.42-1.09,1.95-1.68Z"/><path class="v" d="M175.5,170.56c-1.22,0-2.67-.3-3.5-.63-.99-.43-1.52-.96-2.05-2.11-.36-.79-.53-1.39-.53-1.85s.17-.92,.49-1.35c1.06-1.45,2.48-3.23,3.99-4.92,.26-.33,.36-.56,.36-.92,0-.26-.1-.46-.33-.73-.46-.59-1.09-1.06-1.65-1.25-.36-.13-.83-.23-1.22-.23-.3,0-.5,.03-.76,.03-.5,0-.69-.1-.69-.4s.26-.63,1.52-1.19c.69-.3,1.39-.46,2.05-.46,1.62,0,3.07,.56,5.18,2.48,.26,.23,.53,.63,.69,1.19,.56-2.21,.99-3.8,1.35-4.95,.23-.76,.33-1.29,.33-1.65,0-.73-.66-1.49-1.68-1.85-.43-.17-.56-.3-.56-.53s.17-.36,.46-.4c.56-.03,1.25-.07,2.05-.07,3.1,0,4.75,1.35,4.75,3.2,0,.73-.36,1.68-1.25,3.04-.92,1.42-1.72,2.87-2.44,4.39,1.25,.3,2.44,.63,3.53,1.02,3.14,1.06,4.46,2.01,5.97,4.03,1.02,1.35,1.45,2.64,1.45,4.55,0,2.38-1.02,4.88-2.81,6.6-1.85,1.78-4.39,2.8-6.83,2.8-2.21,0-3.83-.56-5.12-1.68-1.16-.99-1.75-2.58-1.75-4.92,0-.46,0-.89,.03-1.39-.36,.1-.66,.13-1.06,.13Zm1.58-9.87c-1.02,0-1.88,.23-2.44,.59-.96,.63-1.95,1.62-2.71,2.81-.4,.59-.53,.96-.53,1.29,0,.69,.63,1.06,3.14,1.06,.26,0,.56-.07,.79-.07,.2,0,.56,.1,.83,.26,.26,.17,.5,.43,.76,.89,.53-3.04,1.12-5.87,1.52-7.26-.43,.33-.83,.43-1.35,.43Zm5.71,13.7c3.46,0,6.24-2.74,6.24-5.94,0-2.05-.63-3.53-2.05-5.21-1.12-1.32-3-2.61-5.15-3.33-1.65,3.76-2.61,7.66-2.61,10.4,0,3,.79,4.09,3.56,4.09Z"/><path class="v" d="M175.99,196.63c0-.92-.46-1.25-1.75-1.58-.23-.07-.4-.2-.4-.4,0-.17,.1-.33,.43-.46,.56-.23,1.19-.43,1.68-.56,.36-.1,.76-.17,1.02-.17,.59,0,1.39,.2,2.34,.66,.69,.33,.92,.76,.92,1.35,0,.46-.13,1.16-.3,1.58-.2,.53-.43,1.29-.66,2.05,.83-.3,1.75-.76,2.54-1.39,.23-.17,.36-.23,.5-.23,.2,0,.36,.13,.36,.36,0,.43-.17,.99-.53,1.78-.36,.79-.79,1.35-1.35,1.85-.73,.59-1.81,1.25-2.87,1.68-.59,1.48-1.22,3.13-1.98,5.15-.1,.26-.13,.36-.13,.43s.03,.1,.1,.1,.17-.07,.49-.46c1.45-1.72,2.81-3.27,4.39-5.05,1.58-1.82,2.97-3.33,3.99-4.36,1.32-1.25,2.54-1.78,3.89-1.78,1.09,0,1.95,.3,2.81,1.02,.89,.76,1.32,1.52,1.32,2.44,0,.86-.26,1.49-.96,2.28-1.32,1.45-2.81,2.84-5.18,4.62,2.64,1.78,3.79,3.6,3.79,5.78,.63,.4,1.12,.73,1.88,1.25,1.58,1.12,2.38,2.64,2.38,4.09,0,1.85-.63,2.64-1.95,2.64-.79,0-1.19-.26-1.75-1.19-.59-1.02-1.22-1.95-1.78-2.67-1.32,2.01-3.5,3.07-6.07,3.07-1.65,0-2.77-.33-3.63-.96-.92-.69-1.32-1.62-1.32-2.77,0-2.64,2.81-4.98,6.4-4.98,.69,0,1.42,.1,2.15,.26-.43-.92-1.16-1.72-1.62-2.05-.36-.26-.76-.5-1.12-.66-.46-.23-.76-.66-.76-1.15,0-.56,.17-.96,.59-1.35,1.58-1.42,2.71-2.64,3.37-3.63,.53-.76,.73-1.39,.73-1.88,0-.69-.59-1.25-1.45-1.25-.46,0-1.06,.23-1.75,.76-1.12,.83-2.28,1.95-3.23,3.07-1.48,1.68-3.07,3.76-5.08,6.83-1.22,1.88-2.15,3.6-2.61,4.85-.83,2.28-1.55,3.17-2.38,3.17-.69,0-1.22-.36-1.88-1.82-.33-.76-.5-1.49-.5-2.31,0-.66,.3-1.35,1.25-2.51,.46-.56,1.02-1.49,1.39-2.21,.99-1.88,1.91-3.99,2.71-6.21-3.37-.33-4.95-1.72-4.95-3.5,0-1.02,.59-2.15,1.58-3.07,.23-.2,.43-.33,.59-.33,.2,0,.3,.13,.3,.33,0,.13-.1,.76-.1,.99,0,1.16,.96,1.82,2.94,1.82,.26,0,.4,0,.69-.03,.23-1.22,.5-2.74,.5-3.3Zm7.99,17.53c-1.52,0-2.87,.96-2.87,2.05,0,.5,.2,.89,.56,1.16,.3,.23,.83,.4,1.42,.4,1.75,0,3.2-.96,3.66-2.81-.73-.53-1.55-.79-2.77-.79Z"/><path class="v" d="M186.29,237.61c1.22,1.09,1.65,2.01,1.65,2.94,0,.66-.69,1.42-2.24,2.21-3.73,1.85-7.59,4.88-9.27,6.96-.66,.83-.76,1.02-.76,1.58,0,.53,.53,.99,1.25,1.25,1.39,.5,3.17,1.12,4.75,1.72,2.01,.76,4.46,2.38,5.48,3.63,.79,.96,1.25,2.24,1.25,3.27,0,1.35-.69,2.11-1.75,2.11-.66,0-1.02-.13-1.85-.63-1.19-.69-1.81-.86-2.77-.86-.4,0-1.19,.1-1.88,.23-.2,.03-.3-.26-.1-.36,.89-.46,1.81-1.09,2.38-1.58,.17-.13,.23-.23,.23-.36s-.1-.26-.2-.36c-.89-.73-2.11-1.55-3.5-2.28-1.25-.63-2.97-1.39-4.65-2.08-2.08-.86-2.67-1.58-2.67-2.74s.83-2.81,2.74-4.95c2.31-2.64,4.72-4.98,7.29-7.23,.83-.69,1.12-1.12,1.12-1.45,0-.46-.66-.99-1.91-1.25-.3-.07-.36-.2-.36-.36,0-.4,1.02-.92,2.28-.92,1.32,0,2.21,.4,3.5,1.52Z"/></g></svg>