<?xml version="1.0" encoding="utf-8"?>
<!-- Generator: Adobe Illustrator 26.5.0, SVG Export Plug-In . SVG Version: 6.00 Build 0)  -->
<svg version="1.1" id="a" xmlns="http://www.w3.org/2000/svg" xmlns:xlink="http://www.w3.org/1999/xlink" x="0px" y="0px"
	 viewBox="0 0 362.8 332.2" style="enable-background:new 0 0 362.8 332.2;" xml:space="preserve">
<style type="text/css">
	.st0{fill:#B81C25;}
</style>
<path id="v" class="st0" d="M293.1,6.5l8.6-0.2l0.6,0.6l-0.2,8.6v10.4l0.2,9.1l-0.6,0.7l-8.6-0.2h-12.7v46.4h-10.4l0.4-27.7V17.6
	L270,6.8l0.5-0.6l8.7,0.2L293.1,6.5L293.1,6.5z M292.1,14.3h-11.8v3.3h11.8V14.3z M280.3,27.6h11.8v-3.4h-11.8V27.6z M290.1,61.4
	l-7.1,0.2l-0.6-0.5v-7.6l0.6-0.5l7.2,0.2h2.5c0.1-2.1,0-4.2,0-6.3h-0.7l-6.7,0.2l-0.6-0.5v-7.4l0.6-0.5l6.8,0.2h27.5l6.8-0.2
	l0.6,0.6v7.3l-0.6,0.5l-6.8-0.2h-0.9v6.3h3l6.8-0.2l0.6,0.6V61l-0.6,0.5l-6.8-0.2h-3l0.4,16.6H308l0.4-16.6h-6.7
	c-0.3,2.2-1,4.4-1.9,6.4c-2.2,4.7-5.6,8.2-11.3,11c-0.3,0.2-0.6,0.2-0.9,0.2c-0.5,0-0.9-0.3-1.2-0.7l-5.9-6.7c5.1-2,8.3-4.1,10-7.3
	c0.5-1,0.9-2,1.1-3.1L290.1,61.4L290.1,61.4z M302.6,46.9c0,2.1,0,4.2-0.1,6.3h5.9v-6.3H302.6z M317,35.4l-8.6,0.2l-0.6-0.7l0.2-9.1
	V15.4l-0.2-8.6l0.6-0.6l8.6,0.2H332l8.7-0.2l0.5,0.6L341,17.6v30.8l0.4,23.3c0,7.3-5.2,9.5-13.8,9.5c-1.6,0-2-0.4-2.3-1.2l-3.5-9.6
	c2.5,0,5-0.1,7.5-0.3c1-0.2,1.1-0.5,1.1-2.4V35.4H317L317,35.4z M330.5,14.3h-12.4v3.3h12.4V14.3z M318.1,27.6h12.4v-3.4h-12.4V27.6
	z"/>
<path id="w" class="st0" d="M341.1,171.7c-0.3,0.8-0.6,0.8-1.5,0.8c-6.8,0.2-13.6,0.4-19.9,0.4c-7.2,0-13.8-0.2-18.9-0.6
	c-7.1-0.5-13.7-2.1-18.5-8.2c-3.1,2.5-6.3,5.6-9.8,8.6l-0.7-0.3L266,163l0.2-0.7c4.2-2.6,7.3-4.5,11.1-6.5v-17.4h-1.9l-7.4,0.2
	l-0.6-0.5v-9.3l0.5-0.5l7.5,0.2h2l10.5-0.2l0.6,0.6l-0.2,12.2v15.6c2.9,4.3,8.8,5.5,16.5,5.8c10.1,0.4,26.9-0.3,41-1.4L341.1,171.7
	L341.1,171.7z M281,116.4h-1.1c-3.2-4.3-7.1-8.2-11.5-11.3l0.1-0.7l7.2-5.8l1,0.2c4.4,2.9,8.4,6.4,11.9,10.3l-0.1,0.9
	C288.5,110,281,116.4,281,116.4z M310.6,116.6c-3.3-1.4-6.8-2.7-10.4-3.8l-0.2-0.7l4.7-4.7h-1.4l-12.3,0.2l-0.6-0.5v-8l0.6-0.6
	l12.2,0.2h23.5l5.7-0.4l4.2,4.1c0.5,0.4,0.9,1,0.9,1.6c-0.1,0.8-0.5,1.5-1.1,2c-3.7,3.3-7.1,6.1-10.6,8.7c0.4,0.2,0.8,0.4,1.1,0.7
	l0.2,0.8l-0.3,0.2h4.4l8.8-0.2l0.6,0.6l-0.2,7.2V137l0.3,14.4c0,7.6-3.1,9.3-12.9,9.3c-1.3,0-1.5-0.2-1.8-0.9l-3.4-8.1
	c2.6,0.1,3.8,0,5.5-0.1c0.9-0.2,1.4-0.2,1.4-1.6v-2.7h-7.9l0.2,12.8h-11.3l0.2-12.8h-7v12.9h-10.9l0.4-21.6v-14.4l-0.2-7.3l0.6-0.6
	l8.8,0.2L310.6,116.6L310.6,116.6z M303.8,128.6h7.2v-4.1h-7.2V128.6z M311,135.7h-7.2v4.3h7.2V135.7z M309,107.4
	c2.7,1,5.5,2,8.1,3.3c1.3-1.2,2.4-2.2,3.5-3.3H309z M321.5,128.6h8.1v-4.1h-8.1V128.6z M329.6,135.7h-8.1v4.3h8.1L329.6,135.7
	L329.6,135.7z"/>
<path id="x" class="st0" d="M44.7,6.5l8.6-0.2l0.6,0.6l-0.2,8.6v10.3l0.2,9.1l-0.7,0.7l-8.6-0.2H32v46.1H21.6L22,53.8V17.6L21.8,6.8
	l0.5-0.6l8.7,0.2L44.7,6.5L44.7,6.5z M43.7,14.2H32v3.3h11.7V14.2z M32,27.4h11.7V24H32V27.4z M41.7,60.9l-7,0.2L34,60.6v-7.5
	l0.6-0.5l7.1,0.2h2.4c0.1-2.1,0-4.1,0-6.2h-0.7l-6.6,0.2l-0.7-0.5v-7.4l0.6-0.5l6.7,0.2h27.3l6.7-0.2l0.6,0.6v7.3l-0.6,0.5l-6.7-0.2
	h-0.9v6.2h3l6.7-0.2l0.6,0.6v7.5l-0.6,0.5l-6.7-0.2h-3l0.4,16.5H59.4l0.4-16.5h-6.6c-0.3,2.2-0.9,4.4-1.9,6.4
	c-2.2,4.7-5.6,8.2-11.2,10.9c-0.3,0.2-0.6,0.2-0.9,0.2c-0.5,0-0.9-0.2-1.2-0.7l-5.8-6.6c5-2,8.3-4.1,10-7.2c0.5-1,0.9-2,1.1-3.1
	H41.7z M54.1,46.6c0,2.1,0,4.1-0.1,6.2h5.8v-6.2H54.1L54.1,46.6z M68.4,35.2l-8.6,0.2l-0.7-0.7l0.2-9.1V15.4l-0.2-8.6l0.6-0.6
	l8.6,0.2h15l8.7-0.2l0.5,0.6l-0.2,10.8v30.6l0.4,23.2c0,7.2-5.2,9.4-13.7,9.4c-1.6,0-1.9-0.4-2.3-1.2L73.2,70c2.5,0,5-0.1,7.4-0.3
	c1-0.2,1.1-0.5,1.1-2.4V35.2L68.4,35.2L68.4,35.2z M81.8,14.2H69.4v3.3h12.3V14.2z M69.4,27.4h12.3V24H69.4V27.4z"/>
<path id="y" class="st0" d="M92.3,170.9c-0.3,0.8-0.6,0.8-1.5,0.8c-6.7,0.2-13.5,0.4-19.8,0.4c-7.1,0-13.7-0.2-18.8-0.6
	c-7-0.5-13.6-2-18.4-8.1c-3.1,2.6-6.4,5.5-9.7,8.6l-0.7-0.3l-5.8-9.5l0.2-0.7c3.9-2.4,6.9-4.2,10.3-6.1v-17.6h-1.5l-7,0.2l-0.6-0.5
	v-9.2l0.5-0.5l7.1,0.2h1.5l10.4-0.2l0.6,0.6L39,140.5v14.2c2.4,5.6,8.7,6.9,17.2,7.3c10,0.4,26.7-0.3,40.6-1.4L92.3,170.9
	L92.3,170.9z M32.6,116.1h-1c-3.2-4.3-7.1-8.1-11.4-11.3l0.1-0.7l7.1-5.8l1,0.2c4.4,2.9,8.3,6.3,11.8,10.2l-0.1,0.9L32.6,116.1
	L32.6,116.1z M71.9,119.5h6.9l10.4-0.2l0.6,0.6l-0.2,7.7v8.7l0.2,8.3l-0.6,0.7l-10.4-0.2h-6.9v2.7h11l11.1-0.2l0.5,0.4v7.5l-0.5,0.4
	L83,155.6H72.2l0.2,4.9H61.5l0.2-4.9h-9.2l-11,0.2l-0.6-0.5V148l0.5-0.5l11.1,0.2h9.4V145h-6l-10.6,0.2l-0.5-0.6l0.4-8.4v-8.7
	l-0.2-7.7l0.6-0.6l10.4,0.2h6v-2.7h-2.2l-8.6,0.2l-0.6-0.5v-1.9H41l0.4-7.4v-1.9l-0.2-6l0.7-0.6L52,99h31.9l10.4-0.2l0.6,0.6
	l-0.2,5.9v2l0.4,7.4H85v1.9l-0.5,0.4l-8.7-0.2H72L71.9,119.5L71.9,119.5z M61.9,106.6H51.6v2.6l8.1,0.2h2.2L61.9,106.6L61.9,106.6z
	 M62.1,126.2h-7.4v2.8h7.4V126.2z M54.8,138.3h7.4v-2.9h-7.4V138.3z M79.6,126.2h-7.8v2.8h7.8V126.2z M71.7,138.3h7.8v-2.9h-7.8
	V138.3z M75.8,109.4l8.2-0.2v-2.6H72v2.8C72,109.4,75.8,109.4,75.8,109.4z"/>
<rect x="-0.2" y="329.2" class="st0" width="362.9" height="3"/>
<path id="ad" class="st0" d="M136.8,22.3l-0.1-0.1v-1.6l0.1-0.1l1.8,0h1.9l1.9,0l0.1,0.1v1.7l-0.1,0.1l-1.9,0h-1.9L136.8,22.3
	L136.8,22.3z M145.9,21.1h-1.1l-2.2,0l-0.1-0.1v-1.7l0.1-0.1l2.2,0h1.1v-1.4l0.1-0.1h1.9l0.1,0.1v1.4h1.2l2.4,0l0.1,0.1V21l-0.1,0.1
	l-2.4,0h-1.2v0.7h1.2l1.9,0l0.1,0.1l-0.1,1.8v1.7l0.1,2.3l-0.1,0.1l-1.8,0h-0.6c0.9,1,2,2,3.2,2.8l-1.2,1.7c0,0.1-0.1,0.1-0.2,0.1
	c-0.1,0-0.1,0-0.2-0.1c-0.9-0.9-1.7-1.8-2.4-2.8l0.1,3.5h-2.1l0.1-3.3c-0.7,1-1.6,2-2.6,2.8c-0.1,0-0.1,0.1-0.2,0.1
	c-0.1,0-0.2,0-0.2-0.1l-0.8-1.1l0,1.3h-2v-0.7h-0.9v0.9h-2l0.1-2.8V29l0-1.6l0.1-0.1l1.8,0h0.9l1.9,0l0.1,0.1l0,1.6v1.5
	c0.6-0.4,1.1-0.8,1.6-1.2c0.5-0.5,1-1,1.4-1.6h-0.2l-1.9,0l-0.1-0.1l0-2.2v-1.9l0-1.7l0.1-0.1l2,0h1L145.9,21.1L145.9,21.1z
	 M137.5,20l-0.1-0.1v-1.5l0.1-0.1l1.6,0h1l1.6,0l0.1,0.1v1.6l-0.1,0.1l-1.6,0h-1L137.5,20z M137.5,24.6l-0.1-0.1v-1.5l0.1-0.1l1.6,0
	h1l1.6,0l0.1,0.1v1.6l-0.1,0.1l-1.6,0h-1L137.5,24.6L137.5,24.6z M137.5,26.8l-0.1-0.1v-1.5l0.1-0.1l1.6,0h1l1.6,0l0.1,0.1v1.6
	l-0.1,0.1l-1.6,0h-1L137.5,26.8L137.5,26.8z M140.1,29h-0.9v1.2h0.9V29z M145.9,23.4h-1.4v2.8h1.4V23.4z M145.2,25.9L145.2,25.9
	c-0.2-0.6-0.3-1.2-0.5-1.8l0.1-0.1l0.6-0.2l0.1,0c0.2,0.6,0.4,1.1,0.5,1.7l-0.1,0.1L145.2,25.9L145.2,25.9z M149.2,23.4h-1.4v2.8
	h1.4V23.4z M149.1,24c-0.1,0.6-0.2,1.2-0.4,1.7c0,0.1-0.1,0.1-0.1,0.1l0,0c-0.1,0-0.1,0-0.2,0l-0.5-0.2c0.2-0.6,0.3-1.2,0.4-1.8
	l0.1,0L149.1,24L149.1,24L149.1,24z"/>
<path id="ae" class="st0" d="M168.3,18.3l0.1,0.1l0,1.9v2.9l0,2.4l-0.1,0.1l-2.1,0h-2v1.5h3.7l2.5,0l0.1,0.1v1.8l-0.1,0.1l-2.5,0
	h-3.7l0.1,3.6h-2.5l0.1-3.6h-3.6l-2.5,0l-0.1-0.1v-1.8l0.1-0.1l2.5,0h3.7v-1.5h-1.7l-2.4,0l-0.1-0.1l0.1-2.4v-3.1l-0.1-1.9l0.1-0.1
	l2.4,0h5.8L168.3,18.3L168.3,18.3z M159.9,21.1h6.2v-0.9h-6.2V21.1z M159.9,23.8h6.2v-0.9h-6.2V23.8z"/>
<path id="af" class="st0" d="M180.6,17.9l0.1-0.1h2.2l0.1,0.1v2h3.8l2.4,0l0.1,0.1v1.8l-0.1,0.1l-2.4,0H177l-2.4,0l-0.1-0.1v-1.8
	l0.1-0.1l2.3,0h3.6L180.6,17.9L180.6,17.9z M183,28.9l0.1,3.9h-2.5l0.1-3.9v-3.5h-2.1v5.6h-2.4l0.1-3.4v-2.3l0-1.8l0.1-0.1l2.5,0
	h1.8v-1.3l0.1-0.1h2.1l0.1,0.1v1.2h2.1l2.5,0l0.1,0.1l-0.1,2v1.2l0.1,2.4c0,1.4-0.6,2-3.1,2c-0.3,0-0.3,0-0.4-0.2l-0.7-2
	c0.5,0,0.9,0,1.3,0c0.3,0,0.4-0.1,0.4-0.4v-3.2H183L183,28.9L183,28.9z"/>
<path id="ag" class="st0" d="M196.1,26.5l0.1,6.2h-2.3l0.1-6.2v-5.8l0-2.4l0.1-0.1l2,0h1.5l1,0l0.7,0.8c0.1,0.1,0.1,0.2,0.1,0.5
	c-0.3,1.4-0.6,2.7-1.1,4c0.8,1,1.2,2.3,1.2,3.6c0.1,1.3-0.8,2.4-2,2.6c-0.1,0-0.2,0-0.4,0c-0.2,0-0.3,0-0.4-0.2l-0.6-1.8
	c1.1,0,1.3-0.2,1.3-1c-0.1-1.1-0.4-2.1-1.1-3c0-0.1-0.1-0.1-0.1-0.2c0-0.1,0-0.1,0-0.2c0.3-1,0.6-2.1,0.8-3.2h-1.1
	C196.1,20.2,196.1,26.5,196.1,26.5z M204.1,30.9c0,0.3-0.1,0.4-0.3,0.5c-1.7,0.6-3.4,1-5.1,1.4l-0.1-0.1l-0.6-1.8l0.1-0.1
	c0.6-0.1,1.2-0.2,1.8-0.3v-9.7l0-2l0.1-0.1l2,0h3.3l2,0l0.1,0.1l-0.1,1.9v2.8l0.1,2.2l-0.1,0.1l-1.8,0h-0.6c0.1,0.6,0.3,1.1,0.6,1.7
	c0.5-0.5,1-1,1.4-1.5h0.2l1.4,1.3v0.2c-0.7,0.6-1.4,1.1-2.1,1.6c0.6,0.8,1.4,1.4,2.3,1.9l-1.4,1.5c-0.1,0.1-0.2,0.2-0.3,0.2
	c-0.1,0-0.2-0.1-0.3-0.1c-1-0.8-1.9-1.7-2.5-2.9L204.1,30.9L204.1,30.9z M205.1,20.3h-3.3v1h3.3V20.3z M201.9,23.9h3.3v-1h-3.3V23.9
	z M203.9,29.1c-0.5-1.1-0.9-2.2-1.1-3.4h-0.9V30c0.7-0.2,1.5-0.4,2.2-0.6C204,29.3,203.9,29.1,203.9,29.1z"/>
<path id="ah" class="st0" d="M218.7,24.2h-1.1l-2.1,0l-0.1-0.1v-1.8l0.1-0.1l2.1,0h4.2l2,0l0.1,0.1v1.8l-0.1,0.1l-2.1,0h-0.8v1.7
	h1.6l2,0l0.1,0.1v1.8l-0.1,0.1l-2.1,0h-1.6v2.4c0.5,0,1,0,1.5,0c1.2,0,2.6,0,4.6-0.2l-0.9,2.1c-0.1,0.1-0.1,0.1-0.3,0.2
	c-1.3,0.1-2.8,0.1-4,0c-1,0-2.1-0.1-3.1-0.4c-1.1-0.2-2-0.8-2.8-1.5c-0.5,0.8-1.1,1.5-1.8,2.1c-0.1,0.1-0.2,0.1-0.3,0.1
	c-0.1,0-0.2,0-0.3-0.1l-1.5-1.2c1.9-1.4,3-3.6,3-6l0.1-0.1l1.9,0.4l0.1,0.1c-0.1,1-0.3,1.9-0.6,2.9c0.5,0.5,1.1,0.9,1.8,1.2
	L218.7,24.2L218.7,24.2z M218.4,17.8l0.1-0.1h2.1l0.1,0.1v1.6h3.5l2.2,0l0.1,0.1l-0.1,1.2v0.5l0.1,2.2h-2.3v-2H215v2h-2.3l0.1-2
	v-0.5l-0.1-1.3l0.1-0.1l2.6,0h3L218.4,17.8L218.4,17.8z"/>
<rect id="ai" x="142.1" y="39.6" class="st0" width="1.5" height="6.5"/>
<path id="aj" class="st0" d="M147.7,44c0.1,0.7,0.4,1.1,1.1,1.1c0.3,0,0.6-0.2,0.7-0.5c0,0,0-0.1,0-0.1c0-0.5-0.3-0.7-1.3-1
	c-1.2-0.4-1.8-1-1.8-2c0-1.1,0.8-1.9,1.9-2c0.1,0,0.2,0,0.3,0c1.1-0.1,2.2,0.7,2.3,1.9c0,0,0,0,0,0l-1.5,0.3
	c-0.1-0.8-0.4-1.2-0.9-1.2c-0.3,0-0.6,0.2-0.7,0.6c0,0,0,0.1,0,0.1c0,0.4,0.3,0.7,1.2,1c1.4,0.4,1.9,1,1.9,2c0,1.2-0.9,2-2.3,2
	c-1.2,0.2-2.4-0.7-2.5-1.9c0,0,0-0.1,0-0.2L147.7,44L147.7,44z"/>
<path id="ak" class="st0" d="M158.8,46.1h-1.5l-0.4-1.5h-2l-0.4,1.5h-1.4l1.6-6.5h2.4L158.8,46.1L158.8,46.1z M156.1,41.4
	c-0.1-0.3-0.1-0.6-0.2-0.9h0c-0.1,0.3-0.1,0.6-0.2,0.9l-0.5,2h1.4L156.1,41.4L156.1,41.4z"/>
<path id="al" class="st0" d="M166.4,39.6v6.5h-1.5v-2.7h-2.1v2.7h-1.5v-6.5h1.5v2.6h2.1v-2.6H166.4z"/>
<path id="am" class="st0" d="M174.4,46.1h-1.5l-0.4-1.5h-2l-0.4,1.5h-1.4l1.6-6.5h2.4L174.4,46.1L174.4,46.1z M171.8,41.4
	c-0.1-0.3-0.1-0.6-0.2-0.9h0c-0.1,0.3-0.1,0.6-0.2,0.9l-0.5,2h1.4L171.8,41.4L171.8,41.4z"/>
<path id="an" class="st0" d="M179.9,44v2.1h-1.5V44l-2.1-4.4h1.6l1,2.2c0.1,0.2,0.2,0.5,0.3,0.7c0.1-0.2,0.2-0.5,0.3-0.7l0.9-2.2
	h1.6L179.9,44L179.9,44z"/>
<path id="ao" class="st0" d="M189.5,46.1H188l-0.4-1.5h-2l-0.4,1.5h-1.4l1.6-6.5h2.4L189.5,46.1L189.5,46.1z M186.8,41.4
	c-0.1-0.3-0.1-0.6-0.2-0.9h0c-0.1,0.3-0.1,0.6-0.2,0.9l-0.5,2h1.4L186.8,41.4L186.8,41.4z"/>
<path id="ap" class="st0" d="M200.6,42.9c0,2.3-1.1,3.3-2.8,3.3s-2.8-1-2.8-3.3s1.1-3.3,2.8-3.3S200.6,40.5,200.6,42.9 M199,42.9
	c0-1.6-0.4-2.2-1.1-2.2s-1.1,0.6-1.1,2.2s0.4,2.2,1.1,2.2S199,44.5,199,42.9"/>
<path id="aq" class="st0" d="M208.4,39.6v6.5h-2.1l-1.4-3.8c-0.1-0.4-0.3-0.9-0.4-1.3h-0.1c0.1,1.1,0.1,2.5,0.1,3.5v1.7h-1.3v-6.5
	h2.1l1.4,3.8c0.2,0.4,0.3,0.9,0.4,1.3h0.1c-0.1-1.1-0.2-2.2-0.2-3.3v-1.9H208.4z"/>
<path id="ar" class="st0" d="M215.4,44.9v1.2h-4v-6.5h1.5v5.3H215.4z"/>
<path id="as" class="st0" d="M221,44v2.1h-1.5V44l-2.1-4.4h1.6l1,2.2c0.1,0.2,0.2,0.5,0.3,0.7c0.1-0.2,0.2-0.5,0.3-0.7l0.9-2.2h1.6
	L221,44L221,44z"/>
<g>
	<path class="st0" d="M158.2,78.7l-1.5,1.5v214l1.5,1.5h47l1.5-1.5v-214l-1.5-1.5H158.2L158.2,78.7z M203.7,292.7h-44v-211h44V292.7
		z"/>
	<path class="st0" d="M214.2,303.8l1.5-1.5V72.1l-1.5-1.5h-65l-1.5,1.5v230.3l1.5,1.5H214.2z M150.7,73.6h62v227.3h-62
		C150.7,300.8,150.7,73.6,150.7,73.6z"/>
	<path class="st0" d="M256,29.2l-0.5-1.1L223.7,0.4l-1-0.4H142l-1,0.3L106.6,29l0,0l-0.2,0.1v246.6l0.4,1l32.7,34v0l1.5,1.5h81.4
		l1.2-1.2h0l32.2-33.9l0.4-1L256,29.2L256,29.2z M142.5,3h79.6l30.8,26.8l-31.4,32.4h-80.2l-30.9-32.5L142.5,3z M109.4,275V32.8
		l30.1,31.7v241.8L109.4,275L109.4,275z M220.9,309.2h-78.4v-244h78.4V309.2L220.9,309.2z M223.9,306.4V64.1l29.1-30l0.2,241.5
		L223.9,306.4L223.9,306.4z"/>
</g>
<path class="st0" d="M242.1,91.4c-1,0.1-2.1,0.1-3.5,0.1c-2.6,0-3.9-0.8-3.9-2.5c0-1,0.8-2,2-2.8c-0.5-0.8-1.1-1.7-1.6-2.6l0-0.1
	l1.3-0.7l0.1,0c0.5,0.9,1,1.8,1.6,2.6c1-0.5,2.1-1,3.2-1.4l0.1,0l0.6,1.4l0,0.1c-1,0.3-1.9,0.7-2.6,1c-0.2,0.1-0.3,0.3-0.3,0.6
	c0,0.4-0.4,0.7-0.8,0.7c-0.3,0-0.5-0.1-0.8-0.3c-0.9,0.5-1.2,1-1.2,1.5c0,0.7,0.9,0.9,2.2,0.9c1,0,2.1-0.1,3.4-0.2l0.1,0.1l0,1.6
	L242.1,91.4L242.1,91.4z M241.1,82.9l0.6-0.4h0.1c0.4,0.3,0.8,0.7,1.1,1.2v0.1l-0.6,0.4h-0.1C241.8,83.7,241.5,83.4,241.1,82.9
	L241.1,82.9L241.1,82.9z M242.1,82.2l0.6-0.4h0.1c0.4,0.3,0.8,0.7,1.1,1.1V83l-0.6,0.4h-0.1C242.8,83,242.5,82.7,242.1,82.2
	L242.1,82.2L242.1,82.2z"/>
<path class="st0" d="M234.4,96.2c0.8,0,1.5,0,2.2-0.1c0.1-0.6,0.2-1.2,0.3-1.9l0.1-0.1l1.6,0.1l0.1,0.1c-0.1,0.6-0.2,1.1-0.3,1.6
	c0.8-0.1,1.6-0.3,2.4-0.5l0.1,0.1l0.1,1.4l-0.1,0.1c-0.9,0.2-1.9,0.4-2.9,0.5c-0.1,0.6-0.3,1.2-0.6,1.8c0.7-0.4,1.6-0.6,2.6-0.6
	c1.4,0,2.8,0.8,2.8,2.4s-1.4,2.9-4.8,3.1c-0.1,0-0.2,0-0.3-0.2l-0.8-1.3c2.9,0,4.1-0.8,4.1-1.7c0-0.6-0.6-0.9-1.4-0.9
	c-1.2,0-2.4,0.6-3.2,2.1l-0.1,0l-1.3-0.7l0-0.1c0.6-1.3,1.1-2.4,1.4-3.7c-0.6,0-1.2,0.1-1.8,0.1l-0.1-0.1L234.4,96.2
	C234.3,96.3,234.4,96.2,234.4,96.2z"/>
<path class="st0" d="M235.6,109.4l1.4,0.3l0.1,0.1c-0.2,0.8-0.3,1.5-0.4,2.3c0.8-0.9,1.9-1.3,3.1-1.3c1.8,0,2.8,1.1,2.8,2.5
	c0,2.1-2.1,3.1-5.1,3.2c-0.2,0-0.3,0-0.4-0.1l-0.9-1.3c2.9-0.1,4.6-0.7,4.6-1.7c0-0.7-0.2-1.1-1.1-1.1c-1,0-2.2,0.6-3.1,2.1
	l-0.1,0.1l-1.3-0.1l-0.1-0.1C235,112.6,235.2,111,235.6,109.4L235.6,109.4L235.6,109.4z M236.4,108l0.7-1.2l0.1-0.1
	c0.9,0.2,1.7,0.5,2.7,1l0,0.1l-0.8,1.3l-0.1,0C238.2,108.7,237.4,108.3,236.4,108L236.4,108z"/>
<path class="st0" d="M233.9,128.4c0.6-1.9,1.1-3.6,1.7-5.3c-0.5,0.1-1.1,0.1-1.6,0.2l-0.1-0.1l-0.2-1.3l0.1-0.1
	c0.9-0.1,1.7-0.2,2.4-0.3c0.3-0.8,0.5-1.5,0.8-2.4l0.1-0.1l1.5,0.4l0,0.1c-0.2,0.6-0.4,1.2-0.6,1.8c0.2,0,0.4,0,0.6,0
	c0.9,0,1.8,0.6,1.8,2.2c0,1.4-0.2,2.9-0.5,3.8c-0.4,1.2-1.1,1.5-1.7,1.5c-0.4,0-0.9-0.1-1.4-0.2c-0.1,0-0.1,0-0.1-0.2l-0.1-1.6
	c0.4,0.1,0.8,0.2,1.1,0.2c0.4,0,0.5-0.1,0.7-0.6c0.2-0.6,0.4-1.9,0.4-2.9c0-0.7-0.1-0.8-0.6-0.8c-0.2,0-0.4,0-0.7,0
	c-0.7,2.1-1.3,3.8-1.9,5.9l-0.1,0L233.9,128.4L233.9,128.4L233.9,128.4z M240.4,121.8l1.2-0.7h0.1c0.9,1,1.6,2.2,2.1,3.5l0,0.1
	l-1.4,0.8l-0.1,0c-0.4-1.3-1.1-2.6-1.9-3.5L240.4,121.8L240.4,121.8z"/>
<path class="st0" d="M238.2,138.7c2.4-0.4,3.4-1.5,3.4-2.9c0-1.7-0.9-2.7-2.1-3c-0.2,2.1-0.9,4-1.7,5.1c-0.6,0.9-1.2,1.2-2.1,1.2
	c-0.7,0-1.1-0.3-1.6-1c-0.3-0.5-0.5-1.1-0.5-2c0-2.7,2-4.8,5-4.8s4.6,2,4.6,4.5c0,2-1.4,3.5-3.7,4.1c-0.1,0-0.2,0-0.4-0.1
	L238.2,138.7L238.2,138.7z M235.2,136.3c0,0.4,0.1,0.6,0.2,0.8c0.1,0.2,0.3,0.4,0.4,0.4c0.2,0,0.6-0.2,0.9-0.9
	c0.6-1.2,0.9-2.4,1.1-3.7C236.2,133.2,235.2,134.6,235.2,136.3L235.2,136.3z"/>
<path class="st0" d="M233.7,149.9c0.7-0.7,1.2-1.5,1.6-2.3l0.1,0l1.4,0.7l0,0.1c-0.4,0.9-1,1.8-1.7,2.5H235l-1.3-0.8L233.7,149.9
	L233.7,149.9z M237.6,143.5L237.6,143.5l1.7-0.1l0.1,0.1v1.9h1.9l1.5,0l0.1,0.1v1.4l-0.1,0.1l-1.4,0h-1.9v2.2l0,1.5
	c0,1.3-0.5,1.7-2.2,1.8c-0.2,0-0.2,0-0.3-0.2l-0.8-1.4c1.5,0,1.6,0,1.6-0.7v-3.1h-1.8l-1.6,0l-0.1-0.1v-1.4l0.1-0.1l1.5,0h1.8
	L237.6,143.5L237.6,143.5z M243.2,149.9l-1.3,1h-0.1c-0.6-1-1.2-1.7-1.9-2.3v-0.1l1.2-0.9h0.1c0.8,0.7,1.5,1.5,2,2.2L243.2,149.9z
	 M240.6,143.7l0.6-0.4h0.1c0.4,0.3,0.8,0.7,1.1,1.2v0.1l-0.6,0.4h-0.1C241.3,144.6,241,144.2,240.6,143.7L240.6,143.7L240.6,143.7z
	 M241.6,143l0.6-0.4h0.1c0.4,0.3,0.8,0.7,1.1,1.1v0.1l-0.6,0.4h-0.1C242.3,143.8,242,143.5,241.6,143L241.6,143L241.6,143z"/>
<path class="st0" d="M242.4,157c0.1,0.1,0.1,0.1,0.1,0.2c0,0,0,0.1-0.1,0.2c-0.5,1.1-1.1,2.1-1.7,3c0.4,0.3,0.7,0.6,1,1v0.1
	l-1.1,1.2h-0.1c-0.3-0.3-0.6-0.7-1-1c-1,1-2.2,1.9-3.7,2.6c-0.1,0.1-0.2,0.1-0.2,0.1c-0.1,0-0.1,0-0.2-0.1l-1.3-0.9
	c1.8-0.8,3.2-1.7,4.2-2.8c-0.4-0.3-0.8-0.6-1.2-0.9v-0.1l0.9-1h0.1c0.4,0.2,0.8,0.5,1.2,0.7c0.4-0.5,0.7-1.1,1-1.7h-2.1
	c-0.7,1-1.5,1.9-2.2,2.6c-0.2,0.1-0.3,0.1-0.5,0l-1.2-0.8c1.5-1.1,2.8-2.7,3.6-4.5l0.1,0l1.5,0.5l0,0.1c-0.1,0.2-0.2,0.5-0.4,0.7
	l1.5,0l0.9-0.1L242.4,157L242.4,157z"/>
<path class="st0" d="M234.6,168.2l1.1-1.2l0.1,0c0.7,0.3,1.5,0.9,2.2,1.5v0.1l-1.1,1.3h-0.1c-0.7-0.6-1.4-1.2-2.2-1.6L234.6,168.2
	L234.6,168.2z M243.1,169.1c0,0.1,0,0.1,0,0.2c0,0.1,0,0.1-0.1,0.2c-2,2.2-4.4,3.8-7.2,5.1l-0.1,0l-1-1.5l0-0.1
	c2.7-1.1,5.5-3,7.8-5.6L243.1,169.1L243.1,169.1z"/>
<path class="st0" d="M233.7,183.1c1.2-1,2.1-1.9,2.7-2.8c-0.5,0-1.1,0.1-1.6,0.1l-0.1-0.1l0-1.4l0.1-0.1c0.8,0,1.6,0,2.4-0.1
	c0.2-0.4,0.4-0.9,0.5-1.5l0.1-0.1l1.5,0.2l0.1,0.1c-0.1,0.4-0.3,0.7-0.4,1c0.6-0.1,1.1-0.2,1.6-0.3l0.1,0.1l0.1,1.3l-0.1,0.1
	c-0.8,0.2-1.7,0.3-2.6,0.4c-0.2,0.3-0.4,0.6-0.6,0.9c0.3-0.1,0.6-0.1,1-0.1c0.7,0,1.2,0.4,1.3,1.1c0.7-0.3,1.5-0.5,2.3-0.8l0.1,0
	l0.7,1.4l-0.1,0.1c-1.1,0.3-2.1,0.6-2.9,0.9c0,0.4,0,1,0,1.5l-0.1,0.1l-1.4,0.1l-0.1-0.1v-0.9c-0.7,0.3-1,0.6-1,1s0.4,0.5,1.4,0.5
	c0.8,0,1.9-0.1,2.9-0.2l0.1,0.1l0.1,1.5l-0.1,0.1c-1,0.1-2,0.1-3.3,0.1c-2.2,0-2.8-0.9-2.8-1.9c0-1.1,0.9-1.8,1.9-2.4
	c0.2-0.1,0.4-0.2,0.7-0.3c-0.1-0.3-0.2-0.4-0.6-0.4c-0.4,0-0.9,0.1-1.2,0.4c-0.5,0.4-1.2,1.1-1.9,1.8h-0.1L233.7,183.1L233.7,183.1
	L233.7,183.1z"/>
<path class="st0" d="M233.4,193.2L233.4,193.2l-0.1-1.3l0.1-0.1l1.1,0v-2.1l0.1-0.1h1.2l0.1,0.1v2.1l0.9,0l0.1,0.1v1.2l-0.1,0.1
	l-0.9,0v1.3c0.3-0.1,0.7-0.2,1-0.4v1.1c0,0.2,0,0.2-0.2,0.3c-0.2,0.1-0.5,0.2-0.8,0.3v0.3l0.1,2.4c0,1.3-0.5,1.6-1.9,1.6
	c-0.1,0-0.2,0-0.2-0.1l-0.6-1.4c0.4,0,0.7,0,0.9,0c0.2,0,0.3-0.1,0.3-0.4v-1.9c-0.2,0.1-0.5,0.2-0.8,0.2l-0.1-0.1l-0.4-1.3l0.1-0.1
	c0.4-0.1,0.9-0.2,1.3-0.3v-1.8L233.4,193.2L233.4,193.2z M241.1,200.3h-1.6l0.1-3.5h-0.8v0.7h-1.5l0.1-3.3V192l0-1.6l0.1-0.1l1.6,0
	h2.7l1.6,0l0.1,0.1l0,1.6v1.9l0.1,3.4h-1.5v-0.6H241L241.1,200.3L241.1,200.3z M239.5,191.6h-0.9v1.2h0.9V191.6z M239.5,194.1h-0.9
	v1.4h0.9V194.1z M241.9,192.8v-1.2H241v1.2H241.9z M241.9,195.5v-1.4H241v1.4H241.9z"/>
<path class="st0" d="M235.6,202.9h1.6l0.1,0.1c-0.1,1.4-0.1,2.3-0.2,3.4c0,1-0.1,2.2-0.1,3.1c0,0.8,0.4,1.1,1,1.1
	c1.3,0,2.7-1,3.6-2.7l1,1.3c0.1,0.1,0.1,0.2,0,0.4c-1.1,1.7-2.8,2.7-4.5,2.7s-2.8-0.8-2.8-2.6c0-1.5,0.1-2.6,0.1-3.6
	C235.5,205.2,235.5,204.3,235.6,202.9L235.6,202.9L235.6,202.9z"/>
<path class="st0" d="M237.9,214.9l1.5,0.6l0,0.1c-0.7,1.3-1.3,2.3-1.9,3.3c0.3-0.2,0.6-0.2,0.9-0.2c1.1,0,1.7,0.7,1.7,1.6
	c0,0.7,0,1.3,0,1.6c0,0.3,0,0.5,0.3,0.5c0.7,0,1.5-0.8,2.3-2.5l1,1.3c0.1,0.1,0.1,0.2,0,0.4c-0.9,1.7-2.1,2.5-3.3,2.5
	s-1.9-0.6-1.9-1.7c0-0.5,0.1-1.2,0.1-1.8s-0.1-0.7-0.5-0.7c-0.6,0-1,0.5-1.3,1.1c-0.4,0.8-0.9,1.7-1.3,2.9l-0.1,0l-1.5-0.5l0-0.1
	C235,220.5,236.4,217.7,237.9,214.9L237.9,214.9L237.9,214.9z"/>
<path class="st0" d="M235.6,226.8h1.6l0.1,0.1c-0.1,1.4-0.1,2.3-0.2,3.4c0,1-0.1,2.2-0.1,3.1c0,0.8,0.4,1.1,1,1.1
	c1.3,0,2.7-1,3.6-2.7l1,1.3c0.1,0.1,0.1,0.2,0,0.4c-1.1,1.7-2.8,2.7-4.5,2.7s-2.8-0.8-2.8-2.6c0-1.5,0.1-2.6,0.1-3.6
	C235.5,229.2,235.5,228.2,235.6,226.8L235.6,226.8L235.6,226.8z"/>
<path class="st0" d="M240.5,242.9c1,0,1.6-0.3,1.6-0.9c0-0.3-0.3-0.6-0.7-0.6c-0.3,0-0.7,0.1-1.3,0.4c-0.5,0.2-0.7,0.4-1,0.5
	c0.6,1.2,1.1,2.1,1.7,3.7l0,0.1l-1.2,0.5l-0.1,0c-0.5-1.3-0.9-2.4-1.6-3.6l-1.3,0.8l-0.1,0l-0.6-1l0-0.1l1.4-0.7
	c-0.3-0.5-0.5-0.8-0.9-1.3l0-0.1l1.1-0.6h0.1c0.3,0.4,0.6,0.9,0.9,1.4c0.5-0.2,0.8-0.4,1.1-0.5c-0.3-0.3-0.7-0.6-1.2-0.9v-0.1
	l0.8-0.8h0.1c0.5,0.3,1,0.6,1.4,0.9v0.1l-0.5,0.6c0.6-0.2,0.9-0.3,1.3-0.3c1.1,0,2.1,0.8,2.1,1.9c0,1-0.5,1.6-1.6,1.9
	c-0.3,0.1-0.7,0.1-1.2,0.1c-0.2,0-0.2,0-0.3-0.2l-0.7-1.1L240.5,242.9L240.5,242.9z"/>
<path class="st0" d="M234.3,249.2l1.6,0l0.1,0.1c-0.1,1.2-0.1,2.3-0.1,3c0,1,0.1,1.6,0.2,2.2c0.1,0.4,0.3,0.8,0.5,0.8
	c0.3,0,0.7-0.6,0.9-1.6l1.1,1.4c0.1,0.1,0.1,0.1,0,0.3c-0.4,1.1-1.1,2-2.1,2c-0.7,0-1.3-0.5-1.8-1.4c-0.3-0.7-0.6-1.9-0.6-3.4
	C234.2,251.5,234.2,250.4,234.3,249.2L234.3,249.2L234.3,249.2z M239.6,251.1l1.1-0.9l0.1,0c1.2,0.8,2.3,2.1,2.9,3.5l0,0.1l-1.4,0.9
	l-0.1,0c-0.6-1.5-1.4-2.7-2.6-3.5L239.6,251.1L239.6,251.1z"/>
<path class="st0" d="M127.9,91.4c-1,0.1-2.1,0.1-3.5,0.1c-2.6,0-3.9-0.8-3.9-2.5c0-1,0.8-2,2-2.8c-0.5-0.8-1.1-1.7-1.6-2.6l0-0.1
	l1.3-0.7l0.1,0c0.5,0.9,1,1.8,1.6,2.6c1-0.5,2.1-1,3.2-1.4l0.1,0l0.6,1.4l0,0.1c-1,0.3-1.9,0.7-2.6,1c-0.2,0.1-0.3,0.3-0.3,0.6
	c0,0.4-0.4,0.7-0.8,0.7c-0.3,0-0.5-0.1-0.8-0.3c-0.9,0.5-1.2,1-1.2,1.5c0,0.7,0.9,0.9,2.2,0.9c1,0,2.1-0.1,3.4-0.2l0.1,0.1l0,1.6
	L127.9,91.4L127.9,91.4z M126.9,82.9l0.6-0.4h0.1c0.4,0.3,0.8,0.7,1.1,1.2v0.1l-0.6,0.4H128C127.6,83.7,127.3,83.4,126.9,82.9
	L126.9,82.9L126.9,82.9z M127.9,82.2l0.6-0.4h0.1c0.4,0.3,0.8,0.7,1.1,1.1V83l-0.6,0.4H129C128.7,83,128.4,82.7,127.9,82.2
	L127.9,82.2L127.9,82.2z"/>
<path class="st0" d="M120.2,96.2c0.8,0,1.5,0,2.2-0.1c0.1-0.6,0.2-1.2,0.3-1.9l0.1-0.1l1.6,0.1l0.1,0.1c-0.1,0.6-0.2,1.1-0.3,1.6
	c0.8-0.1,1.6-0.3,2.4-0.5l0.1,0.1l0.1,1.4l-0.1,0.1c-0.9,0.2-1.9,0.4-2.9,0.5c-0.1,0.6-0.3,1.2-0.6,1.8c0.7-0.4,1.6-0.6,2.6-0.6
	c1.4,0,2.8,0.8,2.8,2.4s-1.4,2.9-4.8,3.1c-0.1,0-0.2,0-0.3-0.2l-0.8-1.3c2.9,0,4.1-0.8,4.1-1.7c0-0.6-0.6-0.9-1.4-0.9
	c-1.2,0-2.4,0.6-3.2,2.1l-0.1,0l-1.3-0.7l0-0.1c0.6-1.3,1.1-2.4,1.4-3.7c-0.6,0-1.2,0.1-1.8,0.1l-0.1-0.1L120.2,96.2
	C120.1,96.3,120.2,96.2,120.2,96.2z"/>
<path class="st0" d="M121.4,109.4l1.4,0.3l0.1,0.1c-0.2,0.8-0.3,1.5-0.4,2.3c0.8-0.9,1.9-1.3,3.1-1.3c1.8,0,2.8,1.1,2.8,2.5
	c0,2.1-2.1,3.1-5.1,3.2c-0.2,0-0.3,0-0.4-0.1L122,115c2.9-0.1,4.6-0.7,4.6-1.7c0-0.7-0.2-1.1-1.1-1.1c-1,0-2.2,0.6-3.1,2.1l-0.1,0.1
	l-1.3-0.1l-0.1-0.1C120.8,112.6,121,111,121.4,109.4L121.4,109.4L121.4,109.4z M122.3,108l0.7-1.2l0.1-0.1c0.9,0.2,1.7,0.5,2.7,1
	l0,0.1l-0.8,1.3l-0.1,0C124,108.7,123.3,108.3,122.3,108L122.3,108z"/>
<path class="st0" d="M119.7,128.4c0.6-1.9,1.1-3.6,1.7-5.3c-0.5,0.1-1.1,0.1-1.6,0.2l-0.1-0.1l-0.2-1.3l0.1-0.1
	c0.9-0.1,1.7-0.2,2.4-0.3c0.3-0.8,0.5-1.5,0.8-2.4l0.1-0.1l1.5,0.4l0,0.1c-0.2,0.6-0.4,1.2-0.6,1.8c0.2,0,0.4,0,0.6,0
	c0.9,0,1.8,0.6,1.8,2.2c0,1.4-0.2,2.9-0.5,3.8c-0.4,1.2-1.1,1.5-1.7,1.5c-0.4,0-0.9-0.1-1.4-0.2c-0.1,0-0.1,0-0.1-0.2l-0.1-1.6
	c0.4,0.1,0.8,0.2,1.1,0.2c0.4,0,0.5-0.1,0.7-0.6c0.2-0.6,0.4-1.9,0.4-2.9c0-0.7-0.1-0.8-0.6-0.8c-0.2,0-0.4,0-0.7,0
	c-0.7,2.1-1.3,3.8-1.9,5.9l-0.1,0L119.7,128.4L119.7,128.4L119.7,128.4z M126.3,121.8l1.2-0.7h0.1c0.9,1,1.6,2.2,2.1,3.5l0,0.1
	l-1.4,0.8l-0.1,0c-0.4-1.3-1.1-2.6-1.9-3.5L126.3,121.8L126.3,121.8z"/>
<path class="st0" d="M124,138.7c2.4-0.4,3.4-1.5,3.4-2.9c0-1.7-0.9-2.7-2.1-3c-0.2,2.1-0.9,4-1.7,5.1c-0.6,0.9-1.2,1.2-2.1,1.2
	c-0.7,0-1.1-0.3-1.6-1c-0.3-0.5-0.5-1.1-0.5-2c0-2.7,2-4.8,5-4.8s4.6,2,4.6,4.5c0,2-1.4,3.5-3.7,4.1c-0.1,0-0.2,0-0.4-0.1L124,138.7
	L124,138.7z M121.1,136.3c0,0.4,0.1,0.6,0.2,0.8c0.1,0.2,0.3,0.4,0.4,0.4c0.2,0,0.6-0.2,0.9-0.9c0.6-1.2,0.9-2.4,1.1-3.7
	C122,133.2,121.1,134.6,121.1,136.3L121.1,136.3z"/>
<path class="st0" d="M119.5,149.9c0.7-0.7,1.2-1.5,1.6-2.3l0.1,0l1.4,0.7l0,0.1c-0.4,0.9-1,1.8-1.7,2.5h-0.1l-1.3-0.8L119.5,149.9
	L119.5,149.9z M123.4,143.5L123.4,143.5l1.7-0.1l0.1,0.1v1.9h1.9l1.5,0l0.1,0.1v1.4l-0.1,0.1l-1.4,0h-1.9v2.2l0,1.5
	c0,1.3-0.5,1.7-2.2,1.8c-0.2,0-0.2,0-0.3-0.2l-0.8-1.4c1.5,0,1.6,0,1.6-0.7v-3.1h-1.8l-1.6,0l-0.1-0.1v-1.4l0.1-0.1l1.5,0h1.8
	L123.4,143.5L123.4,143.5z M129,149.9l-1.3,1h-0.1c-0.6-1-1.2-1.7-1.9-2.3v-0.1l1.2-0.9h0.1c0.8,0.7,1.5,1.5,2,2.2L129,149.9z
	 M126.4,143.7l0.6-0.4h0.1c0.4,0.3,0.8,0.7,1.1,1.2v0.1l-0.6,0.4h-0.1C127.1,144.6,126.8,144.2,126.4,143.7L126.4,143.7L126.4,143.7
	z M127.4,143l0.6-0.4h0.1c0.4,0.3,0.8,0.7,1.1,1.1v0.1l-0.6,0.4h-0.1C128.2,143.8,127.9,143.5,127.4,143L127.4,143L127.4,143z"/>
<path class="st0" d="M128.2,157c0.1,0.1,0.1,0.1,0.1,0.2c0,0,0,0.1-0.1,0.2c-0.5,1.1-1.1,2.1-1.7,3c0.4,0.3,0.7,0.6,1,1v0.1
	l-1.1,1.2h-0.1c-0.3-0.3-0.6-0.7-1-1c-1,1-2.2,1.9-3.7,2.6c-0.1,0.1-0.2,0.1-0.2,0.1c-0.1,0-0.1,0-0.2-0.1l-1.3-0.9
	c1.8-0.8,3.2-1.7,4.2-2.8c-0.4-0.3-0.8-0.6-1.2-0.9v-0.1l0.9-1h0.1c0.4,0.2,0.8,0.5,1.2,0.7c0.4-0.5,0.7-1.1,1-1.7h-2.1
	c-0.7,1-1.5,1.9-2.2,2.6c-0.2,0.1-0.3,0.1-0.5,0l-1.2-0.8c1.5-1.1,2.8-2.7,3.6-4.5l0.1,0l1.5,0.5l0,0.1c-0.1,0.2-0.2,0.5-0.4,0.7
	l1.5,0l0.9-0.1L128.2,157L128.2,157z"/>
<path class="st0" d="M120.4,168.2l1.1-1.2l0.1,0c0.7,0.3,1.5,0.9,2.2,1.5v0.1l-1.1,1.3h-0.1c-0.7-0.6-1.4-1.2-2.2-1.6L120.4,168.2
	L120.4,168.2z M128.9,169.1c0,0.1,0,0.1,0,0.2c0,0.1,0,0.1-0.1,0.2c-2,2.2-4.4,3.8-7.3,5.1l-0.1,0l-1-1.5l0-0.1
	c2.7-1.1,5.5-3,7.8-5.6L128.9,169.1L128.9,169.1z"/>
<path class="st0" d="M119.5,183.1c1.2-1,2.1-1.9,2.7-2.8c-0.5,0-1.1,0.1-1.6,0.1l-0.1-0.1l0-1.4l0.1-0.1c0.8,0,1.6,0,2.4-0.1
	c0.2-0.4,0.4-0.9,0.5-1.5l0.1-0.1l1.5,0.2l0.1,0.1c-0.1,0.4-0.3,0.7-0.4,1c0.6-0.1,1.1-0.2,1.6-0.3l0.1,0.1l0.1,1.3l-0.1,0.1
	c-0.8,0.2-1.7,0.3-2.6,0.4c-0.2,0.3-0.4,0.6-0.6,0.9c0.3-0.1,0.6-0.1,1-0.1c0.7,0,1.2,0.4,1.3,1.1c0.7-0.3,1.5-0.5,2.3-0.8l0.1,0
	l0.7,1.4l0,0.1c-1.1,0.3-2.1,0.6-2.9,0.9c0,0.4,0,1,0,1.5L126,185l-1.4,0.1l-0.1-0.1v-0.9c-0.7,0.3-1,0.6-1,1s0.4,0.5,1.4,0.5
	c0.8,0,1.9-0.1,2.9-0.2l0.1,0.1l0.1,1.5l-0.1,0.1c-1,0.1-2,0.1-3.3,0.1c-2.2,0-2.8-0.9-2.8-1.9c0-1.1,0.9-1.8,1.9-2.4
	c0.2-0.1,0.4-0.2,0.7-0.3c-0.1-0.3-0.2-0.4-0.6-0.4c-0.4,0-0.9,0.1-1.2,0.4c-0.5,0.4-1.2,1.1-1.9,1.8h-0.1L119.5,183.1L119.5,183.1
	L119.5,183.1z"/>
<path class="st0" d="M119.3,193.2L119.3,193.2l-0.1-1.3l0.1-0.1l1.1,0v-2.1l0.1-0.1h1.2l0.1,0.1v2.1l0.9,0l0.1,0.1v1.2l-0.1,0.1
	l-0.9,0v1.3c0.3-0.1,0.7-0.2,1-0.4v1.1c0,0.2,0,0.2-0.2,0.3c-0.2,0.1-0.5,0.2-0.8,0.3v0.3l0.1,2.4c0,1.3-0.5,1.6-1.9,1.6
	c-0.1,0-0.2,0-0.2-0.1l-0.6-1.4c0.4,0,0.7,0,0.9,0c0.2,0,0.3-0.1,0.3-0.4v-1.9c-0.2,0.1-0.5,0.2-0.8,0.2l-0.1-0.1l-0.4-1.3l0.1-0.1
	c0.4-0.1,0.9-0.2,1.3-0.3v-1.8L119.3,193.2L119.3,193.2z M126.9,200.3h-1.6l0.1-3.5h-0.8v0.7H123l0.1-3.3V192l0-1.6l0.1-0.1l1.6,0
	h2.7l1.6,0l0.1,0.1l0,1.6v1.9l0.1,3.4h-1.5v-0.6h-0.9L126.9,200.3L126.9,200.3z M125.3,191.6h-0.9v1.2h0.9V191.6z M125.3,194.1h-0.9
	v1.4h0.9V194.1z M127.7,192.8v-1.2h-0.9v1.2H127.7z M127.7,195.5v-1.4h-0.9v1.4H127.7z"/>
<path class="st0" d="M121.4,202.9h1.6l0.1,0.1c-0.1,1.4-0.1,2.3-0.2,3.4c0,1-0.1,2.2-0.1,3.1c0,0.8,0.4,1.1,1,1.1
	c1.3,0,2.7-1,3.6-2.7l1,1.3c0.1,0.1,0.1,0.2,0,0.4c-1.1,1.7-2.8,2.7-4.5,2.7s-2.8-0.8-2.8-2.6c0-1.5,0.1-2.6,0.1-3.6
	C121.3,205.2,121.3,204.3,121.4,202.9L121.4,202.9L121.4,202.9z"/>
<path class="st0" d="M123.7,214.9l1.5,0.6l0,0.1c-0.7,1.3-1.3,2.3-1.9,3.3c0.3-0.2,0.6-0.2,0.9-0.2c1.1,0,1.7,0.7,1.7,1.6
	c0,0.7,0,1.3,0,1.6c0,0.3,0,0.5,0.3,0.5c0.7,0,1.5-0.8,2.3-2.5l1,1.3c0.1,0.1,0.1,0.2,0,0.4c-0.9,1.7-2.1,2.5-3.3,2.5
	s-1.9-0.6-1.9-1.7c0-0.5,0.1-1.2,0.1-1.8s-0.1-0.7-0.5-0.7c-0.6,0-1,0.5-1.3,1.1c-0.4,0.8-0.9,1.7-1.3,2.9l-0.1,0l-1.5-0.5l0-0.1
	C120.8,220.5,122.2,217.7,123.7,214.9L123.7,214.9L123.7,214.9z"/>
<path class="st0" d="M121.4,226.8h1.6l0.1,0.1c-0.1,1.4-0.1,2.3-0.2,3.4c0,1-0.1,2.2-0.1,3.1c0,0.8,0.4,1.1,1,1.1
	c1.3,0,2.7-1,3.6-2.7l1,1.3c0.1,0.1,0.1,0.2,0,0.4c-1.1,1.7-2.8,2.7-4.5,2.7s-2.8-0.8-2.8-2.6c0-1.5,0.1-2.6,0.1-3.6
	C121.3,229.2,121.3,228.2,121.4,226.8L121.4,226.8L121.4,226.8z"/>
<path class="st0" d="M126.3,242.9c1,0,1.6-0.3,1.6-0.9c0-0.3-0.3-0.6-0.7-0.6c-0.3,0-0.7,0.1-1.3,0.4c-0.5,0.2-0.7,0.4-1,0.5
	c0.6,1.2,1.1,2.1,1.7,3.7l0,0.1l-1.2,0.5l-0.1,0c-0.5-1.3-0.9-2.4-1.6-3.6l-1.3,0.8l-0.1,0l-0.6-1l0-0.1l1.4-0.7
	c-0.3-0.5-0.5-0.8-0.9-1.3l0-0.1l1.1-0.6h0.1c0.3,0.4,0.6,0.9,0.9,1.4c0.5-0.2,0.8-0.4,1.1-0.5c-0.3-0.3-0.7-0.6-1.2-0.9v-0.1
	l0.8-0.8h0.1c0.5,0.3,1,0.6,1.4,0.9v0.1l-0.5,0.6c0.6-0.2,0.9-0.3,1.3-0.3c1.1,0,2.1,0.8,2.1,1.9c0,1-0.5,1.6-1.6,1.9
	c-0.3,0.1-0.7,0.1-1.2,0.1c-0.2,0-0.2,0-0.3-0.2l-0.7-1.1L126.3,242.9L126.3,242.9z"/>
<path class="st0" d="M120.2,249.2l1.6,0l0.1,0.1c-0.1,1.2-0.1,2.3-0.1,3c0,1,0.1,1.6,0.2,2.2c0.1,0.4,0.3,0.8,0.5,0.8
	c0.3,0,0.7-0.6,0.9-1.6l1.1,1.4c0.1,0.1,0.1,0.1,0,0.3c-0.4,1.1-1.1,2-2.1,2c-0.7,0-1.3-0.5-1.8-1.4c-0.3-0.7-0.6-1.9-0.6-3.4
	C120,251.5,120,250.4,120.2,249.2L120.2,249.2L120.2,249.2z M125.4,251.1l1.1-0.9l0.1,0c1.2,0.8,2.3,2.1,2.9,3.5l0,0.1l-1.4,0.9
	l-0.1,0c-0.6-1.5-1.4-2.7-2.6-3.5L125.4,251.1L125.4,251.1z"/>
<rect y="192.8" class="st0" width="106.5" height="3"/>
<rect x="253.3" y="192.8" class="st0" width="109.5" height="3"/>
<g>
	<path class="st0" d="M0.9,172.5h8.6v2.9l-5.1,1.8c-0.6,0.2-1.2,0.4-1.8,0.5v0.1c1.4-0.1,3.4-0.2,4.6-0.2h2.3v1.8H0.9v-2.9l5.1-1.8
		c0.6-0.2,1.2-0.4,1.8-0.5v-0.1c-1.4,0.1-2.9,0.2-4.4,0.2H0.9V172.5z"/>
	<path class="st0" d="M9.4,167.9v2H0.9v-2H9.4z"/>
	<path class="st0" d="M6.6,163.7c1-0.1,1.5-0.6,1.5-1.5c0-0.5-0.3-0.9-0.8-0.9c-0.6,0-0.9,0.4-1.3,1.7c-0.6,1.6-1.3,2.4-2.6,2.4
		c-1.6,0-2.6-1.1-2.6-2.9s0.9-2.8,2.5-3.1l0.4,2c-1,0.1-1.6,0.5-1.6,1.2c0,0.6,0.3,0.9,0.9,0.9c0.6,0,0.9-0.4,1.3-1.6
		c0.6-1.8,1.3-2.6,2.7-2.6c1.6,0,2.6,1.1,2.6,3.1s-0.9,3.2-2.7,3.4L6.6,163.7L6.6,163.7z"/>
	<path class="st0" d="M0.9,150.3h8.6v2H5.9v2.9h3.6v2H0.9v-2h3.4v-2.9H0.9V150.3z"/>
	<path class="st0" d="M9.4,145.6v2H0.9v-2H9.4z"/>
	<path class="st0" d="M3.2,137.6c0.5,0,0.9,0,1.4,0.1v0c-0.5-0.3-1-0.6-1.4-0.9l-2.3-1.8v-2.5l3.6,3.2l5-3.2v2.4l-3.6,2.1l0.7,0.6
		h2.9v2H0.9v-2L3.2,137.6L3.2,137.6z"/>
	<path class="st0" d="M6.7,126.4h2.8v2.1H6.7l-5.8,2.8v-2.2l2.9-1.3c0.3-0.1,0.6-0.3,0.9-0.4c-0.3-0.1-0.6-0.2-1-0.4l-2.9-1.2v-2.1
		C0.9,123.6,6.7,126.4,6.7,126.4z"/>
	<path class="st0" d="M0.9,114.8h5.5c2.2,0,3.2,1.4,3.2,3.5s-1,3.5-3.2,3.5H0.9v-2h5.4c1.3,0,1.8-0.6,1.8-1.4s-0.5-1.4-1.8-1.4H0.9
		V114.8z"/>
	<path class="st0" d="M6.6,110.7c1-0.1,1.5-0.6,1.5-1.5c0-0.5-0.3-0.9-0.8-0.9c-0.6,0-0.9,0.4-1.3,1.7c-0.6,1.6-1.3,2.4-2.6,2.4
		c-1.6,0-2.6-1.1-2.6-2.9s0.9-2.8,2.5-3.1l0.4,2c-1,0.1-1.6,0.5-1.6,1.2c0,0.6,0.3,0.9,0.9,0.9c0.6,0,0.9-0.4,1.3-1.6
		c0.6-1.8,1.3-2.6,2.7-2.6c1.6,0,2.6,1.2,2.6,3.1s-0.9,3.2-2.7,3.4L6.6,110.7L6.6,110.7z"/>
	<path class="st0" d="M0.9,97.2h8.6v2H5.9v2.9h3.6v2H0.9v-2h3.4v-2.9H0.9V97.2z"/>
	<path class="st0" d="M0.9,87.7h5.5c2.2,0,3.2,1.4,3.2,3.5s-1,3.5-3.2,3.5H0.9v-2h5.4c1.3,0,1.8-0.6,1.8-1.4s-0.5-1.4-1.8-1.4H0.9
		V87.7z"/>
	<path class="st0" d="M6.6,80.2c1-0.1,1.5-0.6,1.5-1.5c0-0.5-0.3-0.9-0.8-0.9c-0.6,0-0.9,0.4-1.3,1.7c-0.6,1.6-1.3,2.4-2.6,2.4
		c-1.6,0-2.6-1.1-2.6-2.9s0.9-2.8,2.5-3.1l0.4,2c-1,0.1-1.6,0.5-1.6,1.2c0,0.6,0.3,0.9,0.9,0.9c0.6,0,0.9-0.4,1.3-1.6
		c0.6-1.8,1.3-2.6,2.7-2.6c1.6,0,2.6,1.2,2.6,3.1S8.7,82,6.9,82.2L6.6,80.2L6.6,80.2z"/>
	<path class="st0" d="M0.9,66.7h8.6v2H5.9v2.9h3.6v2H0.9v-2h3.4v-2.9H0.9V66.7z"/>
	<path class="st0" d="M9.4,62v2H0.9v-2C0.9,62,9.4,62,9.4,62z"/>
	<path class="st0" d="M0.9,52.5h8.6v2.9l-5.1,1.8c-0.6,0.2-1.2,0.4-1.8,0.5v0.1c1.4-0.1,3.4-0.2,4.6-0.2h2.3v1.8H0.9v-2.9L6,54.7
		c0.6-0.2,1.2-0.4,1.8-0.5v-0.1c-1.4,0.1-2.9,0.2-4.4,0.2H0.9C0.9,54.3,0.9,52.5,0.9,52.5z"/>
	<path class="st0" d="M3.2,47.9c0.5,0,0.9,0,1.4,0.1v0c-0.5-0.3-1-0.6-1.4-0.9l-2.3-1.8v-2.5l3.6,3.2l5-3.2v2.5l-3.6,2.1l0.7,0.6
		h2.9v2H0.9v-2C0.9,47.9,3.2,47.9,3.2,47.9z"/>
	<path class="st0" d="M9.4,34v2l-2,0.5v2.6l2,0.5v1.9l-8.6-2.2v-3.1L9.4,34z M3.2,37.6c-0.4,0.1-0.8,0.2-1.2,0.2v0.1
		C2.4,38,2.8,38,3.2,38.1l2.7,0.7v-1.9C5.9,36.9,3.2,37.6,3.2,37.6z"/>
	<path class="st0" d="M0.9,25.3h8.6v2.9L4.3,30c-0.6,0.2-1.2,0.4-1.8,0.5v0.1c1.4-0.1,3.4-0.2,4.6-0.2h2.3v1.8H0.9v-2.9L6,27.5
		c0.6-0.2,1.2-0.4,1.8-0.5v-0.1c-1.4,0.1-2.9,0.2-4.4,0.2H0.9V25.3z"/>
	<path class="st0" d="M6.6,21.2c1-0.1,1.5-0.6,1.5-1.5c0-0.5-0.3-0.9-0.8-0.9c-0.6,0-0.9,0.4-1.3,1.7c-0.6,1.6-1.3,2.4-2.6,2.4
		c-1.6,0-2.6-1.1-2.6-2.9s0.9-2.8,2.5-3.1l0.4,2c-1,0.1-1.6,0.5-1.6,1.2C2.1,20.7,2.5,21,3,21c0.6,0,0.9-0.4,1.3-1.6
		c0.6-1.8,1.3-2.6,2.7-2.6c1.6,0,2.6,1.2,2.6,3.1S8.7,23,6.9,23.2L6.6,21.2L6.6,21.2z"/>
	<path class="st0" d="M7.9,9.4h1.5v5.3H0.9V9.5h1.5v3.2h2V9.8h1.4v2.9H8L7.9,9.4L7.9,9.4z"/>
	<path class="st0" d="M0.9,0.4h8.6v2.9L4.3,5.1C3.7,5.3,3.1,5.5,2.6,5.6v0.1C4,5.6,5.9,5.5,7.1,5.5h2.3v1.8H0.9V4.4L6,2.6
		c0.6-0.2,1.2-0.4,1.8-0.5V2C6.3,2.1,4.8,2.2,3.4,2.2H0.9V0.4z"/>
</g>
<g>
	<path class="st0" d="M361.5,7.4h-8.6V4.5l5.1-1.8c0.6-0.2,1.2-0.4,1.8-0.5V2.1c-1.4,0.1-3.4,0.2-4.6,0.2h-2.3V0.6h8.6v2.9l-5.1,1.8
		c-0.6,0.2-1.2,0.4-1.8,0.5v0.1c1.4-0.1,2.9-0.2,4.4-0.2h2.5L361.5,7.4L361.5,7.4z"/>
	<path class="st0" d="M352.9,12.1v-2h8.6v2H352.9z"/>
	<path class="st0" d="M355.8,16.2c-1,0.1-1.5,0.6-1.5,1.5c0,0.5,0.3,0.9,0.8,0.9c0.6,0,0.9-0.4,1.3-1.7c0.5-1.6,1.3-2.4,2.6-2.4
		c1.6,0,2.6,1.1,2.6,2.9s-0.9,2.8-2.5,3.1l-0.4-2c1-0.1,1.6-0.5,1.6-1.2c0-0.6-0.4-0.9-0.9-0.9c-0.6,0-0.9,0.4-1.3,1.6
		c-0.6,1.8-1.3,2.6-2.7,2.6c-1.6,0-2.6-1.1-2.6-3.1s0.9-3.2,2.7-3.4L355.8,16.2L355.8,16.2z"/>
	<path class="st0" d="M361.5,29.7h-8.6v-2h3.6v-2.9h-3.6v-2h8.6v2h-3.4v2.9h3.4C361.5,27.6,361.5,29.7,361.5,29.7z"/>
	<path class="st0" d="M352.9,34.4v-2h8.6v2H352.9z"/>
	<path class="st0" d="M359.2,42.4c-0.5,0-0.9,0-1.4-0.1v0c0.5,0.3,1,0.6,1.4,0.9l2.3,1.8v2.5l-3.6-3.2l-5,3.2v-2.5l3.6-2.1l-0.7-0.6
		h-2.9v-2h8.6v2C361.5,42.4,359.2,42.4,359.2,42.4z"/>
	<path class="st0" d="M355.7,53.5H353v-2h2.8l5.8-2.8v2.2l-2.9,1.3c-0.3,0.1-0.6,0.3-1,0.4c0.3,0.1,0.6,0.2,1,0.4l2.9,1.2v2.1
		C361.5,56.3,355.7,53.5,355.7,53.5z"/>
	<path class="st0" d="M361.5,65.1H356c-2.2,0-3.2-1.4-3.2-3.5s1-3.5,3.2-3.5h5.5v2h-5.4c-1.3,0-1.8,0.6-1.8,1.4s0.5,1.4,1.8,1.4h5.4
		V65.1z"/>
	<path class="st0" d="M355.8,69.2c-1,0.1-1.5,0.6-1.5,1.5c0,0.5,0.3,0.9,0.8,0.9c0.6,0,0.9-0.4,1.3-1.7c0.5-1.6,1.3-2.4,2.6-2.4
		c1.6,0,2.6,1.1,2.6,2.9s-0.9,2.8-2.5,3.1l-0.4-2c1-0.1,1.6-0.5,1.6-1.2c0-0.6-0.4-0.9-0.9-0.9c-0.6,0-0.9,0.4-1.3,1.6
		c-0.6,1.8-1.3,2.6-2.7,2.6c-1.6,0-2.6-1.2-2.6-3.1s0.9-3.2,2.7-3.4L355.8,69.2L355.8,69.2z"/>
	<path class="st0" d="M361.5,82.7h-8.6v-2h3.6v-2.9h-3.6v-2h8.6v2h-3.4v2.9h3.4V82.7z"/>
	<path class="st0" d="M361.5,92.3H356c-2.2,0-3.2-1.4-3.2-3.5s1-3.5,3.2-3.5h5.5v2h-5.4c-1.3,0-1.8,0.6-1.8,1.4s0.5,1.4,1.8,1.4h5.4
		V92.3z"/>
	<path class="st0" d="M355.8,99.8c-1,0.1-1.5,0.6-1.5,1.5c0,0.5,0.3,0.9,0.8,0.9c0.6,0,0.9-0.4,1.3-1.7c0.5-1.6,1.3-2.4,2.6-2.4
		c1.6,0,2.6,1.1,2.6,2.9s-0.9,2.8-2.5,3.1l-0.4-2c1-0.1,1.6-0.5,1.6-1.2c0-0.6-0.4-0.9-0.9-0.9c-0.6,0-0.9,0.4-1.3,1.6
		c-0.6,1.8-1.3,2.6-2.7,2.6c-1.6,0-2.6-1.2-2.6-3.1s0.9-3.2,2.7-3.4L355.8,99.8L355.8,99.8z"/>
	<path class="st0" d="M361.5,113.3h-8.6v-2h3.6v-2.9h-3.6v-2h8.6v2h-3.4v2.9h3.4V113.3z"/>
	<path class="st0" d="M352.9,118v-2h8.6v2H352.9z"/>
	<path class="st0" d="M361.5,127.5h-8.6v-2.9l5.1-1.8c0.6-0.2,1.2-0.4,1.8-0.5v-0.1c-1.4,0.1-3.4,0.2-4.6,0.2h-2.3v-1.8h8.6v2.9
		l-5.1,1.8c-0.6,0.2-1.2,0.4-1.8,0.5v0.1c1.4-0.1,2.9-0.2,4.4-0.2h2.5L361.5,127.5L361.5,127.5z"/>
	<path class="st0" d="M359.2,132.1c-0.5,0-0.9,0-1.4-0.1v0c0.5,0.3,1,0.6,1.4,0.9l2.3,1.8v2.5l-3.6-3.2l-5,3.2v-2.4l3.6-2.1
		l-0.7-0.6h-2.9v-2h8.6v2L359.2,132.1L359.2,132.1z"/>
	<path class="st0" d="M352.9,145.9v-2l2-0.5v-2.6l-2-0.5v-1.9l8.6,2.2v3.1L352.9,145.9L352.9,145.9z M359.2,142.4
		c0.4-0.1,0.8-0.2,1.2-0.2v-0.1c-0.4-0.1-0.8-0.1-1.2-0.2l-2.7-0.7v1.9L359.2,142.4z"/>
	<path class="st0" d="M361.5,154.6h-8.6v-2.9l5.1-1.8c0.6-0.2,1.2-0.4,1.8-0.5v-0.1c-1.4,0.1-3.4,0.2-4.6,0.2h-2.3v-1.8h8.6v2.9
		l-5.1,1.8c-0.6,0.2-1.2,0.4-1.8,0.5v0.1c1.4-0.1,2.9-0.2,4.4-0.2h2.5L361.5,154.6L361.5,154.6z"/>
	<path class="st0" d="M355.8,158.8c-1,0.1-1.5,0.6-1.5,1.5c0,0.5,0.3,0.9,0.8,0.9c0.6,0,0.9-0.4,1.3-1.7c0.5-1.6,1.3-2.4,2.6-2.4
		c1.6,0,2.6,1.1,2.6,2.9s-0.9,2.8-2.5,3.1l-0.4-2c1-0.1,1.6-0.5,1.6-1.2c0-0.6-0.4-0.9-0.9-0.9c-0.6,0-0.9,0.4-1.3,1.6
		c-0.6,1.8-1.3,2.6-2.7,2.6c-1.6,0-2.6-1.2-2.6-3.1s0.9-3.2,2.7-3.4L355.8,158.8L355.8,158.8z"/>
	<path class="st0" d="M354.4,170.6h-1.5v-5.3h8.6v5.2H360v-3.2h-2v2.9h-1.4v-2.9h-2.1L354.4,170.6L354.4,170.6z"/>
	<path class="st0" d="M361.5,179.5h-8.6v-2.9l5.1-1.8c0.6-0.2,1.2-0.4,1.8-0.5v-0.1c-1.4,0.1-3.4,0.2-4.6,0.2h-2.3v-1.8h8.6v2.9
		l-5.1,1.8c-0.6,0.2-1.2,0.4-1.8,0.5v0.1c1.4-0.1,2.9-0.2,4.4-0.2h2.5L361.5,179.5L361.5,179.5z"/>
</g>
<g>
	<path class="st0" d="M175.7,111.2c-0.2-1.5-0.8-2.2-1.6-2.2c-0.5,0-1.1,0.3-1.4,0.7c-0.2,0.3-0.7-0.1-0.5-0.4c0.7-1,1.3-1.6,2-2.1
		c0.6-0.5,1.3-0.6,2.1-0.6c1.9,0,3.6,1.5,3.6,2.6c0,0.3,0,0.5-0.2,1c-0.2,0.6-0.5,1.7-0.5,2.7c0.9-0.6,1.9-1.4,2.7-2.3
		c0.3-0.3,0.5-0.5,0.7-0.5c0.3,0,0.5,0.5,0.5,1.5c0,2.3-1.3,4.3-4.1,6.1c0,1.4,0,2.9,0,4.7c2.9-0.9,5-1.2,7-1.2c2.6,0,4.4,0.6,6,2
		c1.8,1.4,2.8,3.5,2.8,5.5c0,1.8-0.7,3.2-2,4.4c-1.6,1.5-3.5,2.1-5.5,2.1c-2.1,0-3.4-0.7-4.4-2.2c-1.1-1.5-1.5-3.5-1.5-5.5
		c0-0.7,0.2-2.3,0.3-3.4c-1,0.3-1.8,0.5-2.6,0.8c0,1.1,0,2.2,0,3.3c0.1,1.3,0.1,2.4,0.1,2.8c0,3.3-0.9,4.4-3.6,4.4
		c-1,0-1.4-0.2-1.8-1c-0.7-1.5-2-2.5-3.6-2.5c-1,0-1.4-0.2-1.7-0.9c-0.2-0.4-0.3-0.9-0.3-1.4c0-1,0.9-2.3,3-3.7
		c1.3-0.9,2.8-1.7,5-2.6c0-1.6,0-3.1,0-4.7c-0.5,0.2-1.5,0.4-2.1,0.4c-1.5,0-2.8-0.5-4.1-1.6c-0.9-0.8-1.5-2.2-1.5-3.1
		c0-0.4,0.2-0.6,0.4-0.6c0.2,0,0.5,0.2,0.8,0.5c0.8,0.7,1.9,1.1,3.1,1.1c0.9,0,2.3-0.4,3.1-0.8C175.8,113.2,175.8,112.2,175.7,111.2
		z M172.2,129c-0.2,0.3-0.3,0.6-0.3,0.8s0.1,0.4,0.3,0.6c0.7,0.6,1.9,1,2.4,1c0.9,0,1.2-0.3,1.3-1.4c0.1-1.1,0.1-2.5,0.1-3.8
		C174,127.3,172.8,128.2,172.2,129z M182.4,123.8c0,0.5-0.1,1-0.1,1.3c0,1.9,0.3,3.1,1.2,4.4c0.8,1.1,1.7,1.6,3.4,1.6
		c1.4,0,2.2-0.3,3-1.2c0.5-0.5,0.8-1.4,0.8-2.4c0-0.8-0.3-1.7-0.9-2.4c-0.8-1-2.5-1.6-4.5-1.6C184.5,123.5,183.4,123.6,182.4,123.8z
		 M192.1,113.7c0.5,0.3,1.1,0.9,1.5,1.5c0.6,1.1,1.4,2.7,1.7,3.7c0.1,0.2,0.1,0.5,0.1,0.8c0,0.6-0.8,1.5-2.3,1.5
		c-1,0-1.6-0.5-1.9-1.4c-0.6-2.1-1.4-3.4-2.3-4.4c-0.5-0.4-0.7-0.5-1.1-0.5c-0.3,0-0.6,0.1-1,0.3c-1.1,0.7-2.1,1.7-2.8,2.8
		c-0.1,0.2-0.5,0-0.4-0.2c0.5-1.2,1.4-2.4,2.7-3.6c0.7-0.6,1.3-0.8,2.2-1c0.5-0.1,1-0.1,1.6-0.1
		C190.8,113.2,191.7,113.5,192.1,113.7z"/>
	<path class="st0" d="M188.6,163.3c0-0.8,0.2-1.5,0.5-1.9c0.5-0.6,1.3-1.1,2.2-1.1c1.3,0,2.3,0.9,2.3,2.5c0,0.5-0.1,1.2-0.2,1.8
		c-0.1,0.8-0.2,1.6-0.2,2.3c0,1.2,0.2,2.8,0.5,4c0.2,0.9,0.6,1.6,1.6,2.9c0.4,0.5,0.7,1.1,0.7,1.9c0,1.2-1.1,2.4-2.7,2.4
		c-1.4,0-2.9-0.9-5.2-3.5c-1.4,1.7-2.8,2.9-5.2,4c-2.6,1.3-5.5,1.9-8.6,1.9c-0.7,0-1.4,0-2.1-0.1c-0.4,0-0.4-0.5,0-0.5
		c3.1-0.1,7.1-1.3,9.8-3.2c1.6-1.1,3.1-2.7,4.1-4.4c-1.3-1.7-2.7-3.1-4.3-4.1c-1.5,2.6-3.2,4.4-4.8,5.6c-1.4,1-2.9,1.5-4.2,1.5
		c-2.9,0-4.7-1.4-4.7-3.9c0-3.4,3.9-6.9,10-6.9c0.6,0,1.2,0,1.7,0c0.5-1.7,1-4.4,1-6c0-0.6-0.1-0.7-0.3-0.7c-0.2,0-0.4,0.1-0.7,0.2
		c-0.8,0.4-2.1,1.2-2.9,1.8c-0.8,0.5-1.3,0.7-2.1,0.7c-1.1,0-1.9-0.3-2.4-0.7c-0.6-0.5-0.9-1.2-0.9-2c0-1.7,1.6-3.6,4.7-4.5
		c0.3-0.1,0.5-0.1,0.7-0.1c0.1,0,0.3,0.1,0.3,0.2c0,0.2-0.1,0.3-0.4,0.4c-0.9,0.6-1.5,1.4-1.5,1.9c0,0.5,0.3,0.7,0.9,0.7
		c0.6,0,1.9-0.5,3.1-1.4c0.5-0.3,0.9-0.6,1.3-1c0.4-0.4,0.8-0.6,1-0.6c0.7,0,1.5,0.2,2.5,0.8c1.3,0.7,1.9,1.5,1.9,2.1
		c0,0.3-0.1,0.5-0.4,0.7c-0.3,0.3-0.4,0.5-0.5,1c-0.4,2.2-1.2,4.8-2.1,7.4c1.6,0.7,3.3,1.8,4.8,3.2
		C188.3,167,188.6,165.2,188.6,163.3z M171.5,170.4c0,0.8,0.6,1.4,1.9,1.4c0.8,0,1.7-0.4,2.6-1.2c1-0.8,1.9-1.9,2.6-3.4
		c-0.5-0.2-1.1-0.3-1.9-0.3C174.1,167,171.5,168.5,171.5,170.4z M191.4,172.3c0.3,0.2,0.5,0.3,0.7,0.3c0.3,0,0.4-0.2,0.4-0.7
		c0-1.3-0.2-3.3-0.4-4.8c0-0.1-0.1-0.2-0.1-0.2c-0.1,0-0.1,0-0.2,0.3c-0.4,1.2-1.1,2.8-1.7,4C190.5,171.6,191,172,191.4,172.3z"/>
	<path class="st0" d="M186.5,198.4c1.2,1.1,1.6,2,1.6,2.9c0,0.6-0.7,1.4-2.2,2.2c-3.6,1.8-7.4,4.8-9,6.8c-0.6,0.8-0.7,1-0.7,1.5
		c0,0.5,0.5,1,1.2,1.2c1.4,0.5,3.1,1.1,4.6,1.7c2,0.7,4.3,2.3,5.3,3.5c0.8,0.9,1.2,2.2,1.2,3.2c0,1.3-0.7,2.1-1.7,2.1
		c-0.6,0-1-0.1-1.8-0.6c-1.2-0.7-1.8-0.8-2.7-0.8c-0.4,0-1.2,0.1-1.8,0.2c-0.2,0-0.3-0.3-0.1-0.4c0.9-0.5,1.8-1.1,2.3-1.5
		c0.2-0.1,0.2-0.2,0.2-0.4c0-0.1-0.1-0.3-0.2-0.4c-0.9-0.7-2.1-1.5-3.4-2.2c-1.2-0.6-2.9-1.4-4.5-2c-2-0.8-2.6-1.5-2.6-2.7
		c0-1.1,0.8-2.7,2.7-4.8c2.3-2.6,4.6-4.9,7.1-7c0.8-0.7,1.1-1.1,1.1-1.4c0-0.5-0.6-1-1.9-1.2c-0.3-0.1-0.4-0.2-0.4-0.4
		c0-0.4,1-0.9,2.2-0.9C184.4,197,185.3,197.3,186.5,198.4z"/>
	<path class="st0" d="M176.4,241.3c1.4,0.9,2,1.9,1.9,3.2c0,0.2-0.3,3.5-0.6,7c-0.5,5-0.7,7.9-0.7,8.8c0,2,0.5,2.5,2.5,2.5
		c1.4,0,4.1-0.6,7.2-1.7c3.5-1.3,6.2-2.7,7.9-4.1c0.2-0.2,0.3-0.2,0.4-0.2c0.1,0,0.2,0.1,0.2,0.2c0,0.2-0.1,0.6-0.4,0.9
		c-1.5,2.1-4.7,4.7-7.5,6.2c-3.4,1.8-6,2.4-8.1,2.4c-1.8,0-2.8-0.5-4-1.7c-1.4-1.5-1.9-3-1.9-5.1c0-1.4,0.1-4,0.2-7.2
		c0.2-6.9,0-8.7-0.3-9.6c-0.4-0.9-1-1.3-2.1-1.5c-0.1,0-0.2-0.1-0.2-0.3c0-0.1,0.1-0.2,0.3-0.4c0.5-0.4,1.1-0.5,1.9-0.5
		C174.5,240.4,175.4,240.7,176.4,241.3z M184.1,242c2.9,0.6,4.3,1.8,4.3,3.5c0,0.7-0.4,1.3-1.1,1.3c-0.5,0-0.9-0.3-1.1-0.9
		c-0.6-1.4-1.6-2.8-2.8-3.5c-0.3-0.2-0.3-0.3-0.3-0.4c0-0.1,0.1-0.2,0.2-0.2C183.4,241.9,183.7,241.9,184.1,242z M187.6,240
		c2.4,0.4,3.9,1.6,3.9,3c0,0.7-0.4,1.3-1,1.3c-0.5,0-0.9-0.3-1.1-0.8c-0.7-1.3-1.7-2.4-2.9-3c-0.3-0.2-0.4-0.3-0.4-0.4
		s0.1-0.2,0.2-0.2C186.4,239.9,186.7,239.9,187.6,240z"/>
</g>
</svg>
