<?xml version="1.0" encoding="UTF-8"?><svg id="a" xmlns="http://www.w3.org/2000/svg" viewBox="0 0 82.5 87"><defs><style>.b{fill:#b81c25;}</style></defs><path class="b" d="M41.5,70C18.89,70,.5,54.3,.5,35S18.89,0,41.5,0s41,15.7,41,35-18.39,35-41,35Zm0-67C20.54,3,3.5,17.36,3.5,35s17.05,32,38,32,38-14.36,38-32S62.45,3,41.5,3Z"/><path class="b" d="M79.5,54c0,17.64-17.05,30-38,30S3.5,71.64,3.5,54v-21H.5v21c0,19.3,18.39,33,41,33s41-13.7,41-33v-21h-3v7.88"/><g><rect class="b" x="35.5" y="31.83" width="1.78" height="2.77"/><rect class="b" x="30.88" y="31.83" width="1.69" height="2.77"/><rect class="b" x="30.88" y="26.86" width="1.69" height="2.49"/><rect class="b" x="35.5" y="26.86" width="1.78" height="2.49"/><path class="b" d="M52.82,33.75c-.62,0-1.34,.95-1.34,1.63,0,.42,.13,.62,.7,.62,.9,0,1.54-.37,1.58-1.39-.15-.62-.51-.86-.95-.86Z"/><path class="b" d="M41.5,7c-18.23,0-33,12.09-33,27s14.77,27,33,27,33-12.09,33-27S59.72,7,41.5,7Zm-13.87,27.14c0,.4-.09,.51-.46,.68-.48,.22-1.01,.44-1.58,.66v.64l.11,4.91c0,2.55-.97,3.21-3.72,3.21-.26,0-.33-.04-.42-.26l-1.23-2.75c.81,0,1.39-.04,1.78-.09,.46-.04,.59-.18,.59-.7v-3.87c-.51,.18-1.06,.33-1.61,.51l-.2-.11-.88-2.57,.11-.2c.88-.2,1.74-.4,2.58-.64v-3.5l-2.25,.07-.15-.13v-2.4l.13-.13,2.27,.07v-4.2l.18-.18h2.51l.2,.15v4.2l1.85-.04,.13,.11v2.44l-.13,.11-1.85-.04v2.6c.68-.22,1.36-.46,2.05-.73v2.2Zm9.66,4.14v-1.12h-1.74l.11,7.06h-3.24l.11-7.06h-1.65v1.34h-2.93l.11-6.6v-4.2l-.07-3.28,.13-.18,3.3,.07h5.41l3.28-.07,.15,.15-.07,3.3v3.87l.11,6.71h-3.04Zm26.31-8.87l-.18,.15c-2.18,0-4.38,.02-6.51,.11,0,1.21,0,2.49,.07,3.98,.29,.84,.48,1.85,.48,2.68,0,1.43-.31,2.49-.92,3.61-1.08,1.94-2.97,3.15-5.06,3.83-.09,.02-.15,.04-.22,.07-.11,.04-.22,.04-.31,.04-.13,0-.24-.04-.35-.11l-2.51-2.13c3.19-.66,5.19-2.05,5.77-3.41-.29,.29-.9,.51-2.11,.51-2.02,0-3.12-1.06-3.12-2.62,0-2.62,2.02-4.97,3.96-4.97,.68,0,.9,.07,1.1,.11,0-.48,0-.9-.02-1.43-2.82,.15-5.79,.42-8.89,.77l-.18-.13-.22-2.77,.15-.2c3.06-.22,6.18-.44,9.13-.59v-2.97l.13-.15h3.04l.18,.18c-.02,1.01-.04,1.92-.07,2.75,2.2-.09,4.4-.18,6.49-.2l.18,.15v2.75Z"/></g></svg>