<?xml version="1.0" encoding="UTF-8"?><svg id="a" xmlns="http://www.w3.org/2000/svg" viewBox="0 0 364.54 113.61"><defs><style>.cp{fill:#ab1f24;}</style></defs><g id="b"><g id="c"><path id="d" class="cp" d="M259.78,45.75c-.15,0-.3,0-.45-.02-1.18-.02-2.28-.55-3.04-1.46-.88-1.24-.6-2.96,.63-3.86,1.35-1.11,3.35-.91,4.46,.44,.04,.05,.08,.1,.12,.16,.23,.27,.2,.68-.08,.91-.26,.22-.65,.2-.89-.05-.57-.89-1.75-1.15-2.64-.58-.06,.04-.11,.08-.16,.12-.68,.47-.87,1.39-.43,2.09,.54,.6,1.3,.95,2.11,.96,1.45,.1,2.88-.36,4-1.29,.77-.88,1.05-2.08,.74-3.21-.38-1.35-1.51-2.36-2.9-2.59-2.35-.56-4.82-.06-6.77,1.36-.28,.22-.68,.18-.9-.1-.09-.11-.14-.25-.14-.39,0-1.41-1.11-2.57-2.52-2.63-1.51-.13-2.94,.66-3.64,2-.11,.22-.33,.37-.58,.37-.28,0-.42-.13-.74-.44-.76-.74-3.04-2.97-5.43-2.97h-.13c-2.17,.08-3.74,.6-4.56,1.52-.58,.69-.83,1.6-.69,2.49,.2,2.33,1.39,3.43,3.66,3.37,.52-.01,3.11-.2,3.07-2.53,0-.48-.27-.92-.71-1.12-.54-.3-1.2-.31-1.75-.03-.18,.1-.29,.3-.26,.51,.02,.35-.24,.66-.6,.68-.35,.02-.66-.24-.68-.6-.05-.67,.27-1.32,.84-1.67,.94-.53,2.1-.54,3.05-.03,.84,.43,1.38,1.29,1.39,2.23,.05,2.57-2.13,3.78-4.32,3.84-2.95,.08-4.71-1.54-4.97-4.55-.16-1.24,.21-2.49,1.02-3.44,1.07-1.2,2.91-1.86,5.48-1.95h.17c2.63,0,4.98,2.04,6.04,3.05,1.02-1.41,2.71-2.17,4.44-2.01,1.67,.05,3.11,1.19,3.54,2.8,2.12-1.24,4.64-1.61,7.02-1.02,1.84,.35,3.32,1.7,3.82,3.5,.43,1.58,.02,3.26-1.09,4.46-1.26,1.08-2.87,1.67-4.54,1.66"/><path id="e" class="cp" d="M287.88,53.18c-2.83,0-4.13-.62-6.87-2.28-3.27-2.05-7.02-3.21-10.88-3.34-2.71,.08-5.41,.42-8.06,1.01-1.29,.28-2.59,.49-3.9,.62-1.63,.16-3.27-.33-4.53-1.38-.66-.6-1.04-1.44-1.04-2.33,0-2.53,3.27-3.19,3.41-3.22,.35-.07,.68,.16,.75,.51,.07,.35-.16,.68-.51,.75-.05,.01-2.37,.49-2.37,1.96,0,.54,.23,1.05,.63,1.4,1.01,.8,2.3,1.17,3.58,1.03,1.26-.13,2.5-.33,3.74-.59,2.73-.61,5.51-.96,8.31-1.03,4.09,.14,8.07,1.36,11.53,3.53,2.77,1.67,3.79,2.09,6.2,2.09,.96-.1,1.91-.3,2.83-.61,5.01-1.68,10.39-1.9,15.51-.63,.34,.09,.55,.44,.46,.78-.09,.34-.44,.55-.78,.46h0c-4.91-1.21-10.06-.99-14.85,.62-1.03,.35-2.09,.57-3.18,.66"/><path id="f" class="cp" d="M286.13,57.48c-2.9,0-5.3-1.27-7.62-2.49s-4.52-2.39-7.22-2.39c-4.13,0-7.97,1.18-11.68,2.33-1.33,.41-2.58,.8-3.86,1.13-2.35,.61-4.81,.71-7.2,.28-1.77-.24-3.45-.93-4.87-2.02-2.09-1.87-2.96-4.54-2.84-8.67,.05-1.23,.03-2.47-.06-3.7-.03-.35,.23-.66,.58-.7,.35-.03,.66,.23,.7,.58,.1,1.28,.12,2.57,.07,3.85-.11,3.77,.61,6.06,2.41,7.68,1.56,1.4,6.21,2.68,10.88,1.45,1.25-.33,2.49-.71,3.81-1.12,3.8-1.17,7.73-2.38,12.05-2.38,3.01,0,5.46,1.29,7.82,2.54,2.28,1.2,4.43,2.34,7.02,2.34h.06c1.76-.08,3.5-.42,5.15-1.03,3.39-1.04,7.22-2.21,14.51-.59,.35,.08,.56,.42,.49,.77-.08,.35-.42,.56-.77,.49-4.57-1.22-9.4-1.02-13.85,.56-1.78,.64-3.64,1-5.52,1.08h-.06"/><path id="g" class="cp" d="M255.45,52.4c-3.06,0-5.3-.8-6.67-2.39-2.31-2.69-1.21-6.55-1.17-6.71,.1-.34,.46-.53,.8-.44s.53,.46,.43,.8h0s-.94,3.37,.91,5.51c1.48,1.72,4.35,2.3,8.52,1.73,.35-.05,.67,.2,.72,.55,.05,.35-.2,.67-.55,.72h0c-.99,.14-2,.22-3,.22"/><path id="h" class="cp" d="M294.04,35.75c-.15,0-.3,0-.45-.02-1.18-.02-2.28-.55-3.04-1.46-.89-1.24-.6-2.96,.63-3.86,1.35-1.11,3.35-.91,4.46,.44,.04,.05,.08,.1,.12,.16,.24,.26,.23,.67-.03,.91-.26,.24-.67,.23-.91-.03,0,0-.01-.02-.02-.02-.57-.89-1.75-1.15-2.64-.58-.06,.04-.11,.08-.16,.12-.68,.47-.87,1.39-.43,2.09,.54,.6,1.31,.95,2.11,.96,1.45,.1,2.88-.36,4-1.29,.77-.88,1.05-2.08,.74-3.21-.38-1.35-1.51-2.36-2.9-2.59-2.35-.55-4.82-.05-6.77,1.36-.28,.22-.68,.18-.9-.1-.09-.11-.14-.25-.14-.39,0-1.41-1.11-2.57-2.52-2.62-1.51-.13-2.94,.66-3.64,2-.11,.22-.33,.37-.58,.37-.29,0-.42-.13-.74-.44-.76-.74-3.04-2.97-5.43-2.97h-.13c-2.17,.08-3.74,.6-4.56,1.52-.58,.69-.83,1.6-.69,2.49,.2,2.33,1.39,3.43,3.66,3.37,.52-.01,3.11-.2,3.07-2.53,0-.48-.27-.92-.71-1.12-.54-.3-1.2-.31-1.75-.03-.18,.1-.29,.3-.26,.51,.02,.35-.24,.66-.6,.68-.35,.02-.66-.24-.68-.6-.05-.67,.27-1.32,.84-1.67,.94-.53,2.1-.54,3.05-.02,.84,.43,1.38,1.29,1.39,2.24,.04,2.57-2.13,3.77-4.32,3.83-2.95,.08-4.71-1.54-4.97-4.55-.17-1.24,.2-2.49,1.01-3.45,1.07-1.2,2.91-1.86,5.48-1.95,2.7-.1,5.13,2.02,6.21,3.05,1.02-1.41,2.71-2.17,4.44-2.01,1.67,.05,3.11,1.2,3.54,2.82,2.12-1.24,4.64-1.61,7.02-1.02,1.84,.34,3.32,1.7,3.82,3.5,.43,1.57,.02,3.26-1.09,4.46-1.26,1.09-2.87,1.68-4.54,1.66"/><path id="i" class="cp" d="M293.54,38.57c-1.26,.06-2.5-.26-3.57-.92-.9-.57-1.45-1.56-1.45-2.62,.06-1.11,.68-2.12,1.65-2.66,.3-.19,.7-.1,.88,.2,.19,.3,.1,.7-.2,.88-.6,.32-.99,.93-1.05,1.6,.02,.63,.36,1.21,.9,1.54,1.43,.98,3.68,.73,5.69,.43,.66-.1,1.32-.21,1.97-.31,4.87-.79,9.47-1.54,14.55,.31,.33,.13,.49,.5,.36,.83-.13,.32-.48,.48-.8,.37-4.76-1.73-9-1.04-13.9-.24-.65,.1-1.31,.21-1.98,.31-1,.17-2.02,.27-3.04,.29"/><path id="j" class="cp" d="M288.29,44.67c-1.37,0-2.72-.18-4.04-.54-6.18-1.73-6.3-7.2-6.4-11.6-.02-.89-.04-1.73-.1-2.51-.03-.35,.23-.67,.58-.7,.35-.03,.67,.23,.7,.58,0,0,0,.01,0,.02,.07,.82,.09,1.68,.1,2.59,.1,4.38,.2,8.91,5.46,10.39,4.47,1.26,8.65-.07,13.07-1.48,2.93-1.08,6-1.76,9.11-2.03,2.1-.1,4.19,.25,6.14,1.02,.33,.13,.5,.5,.37,.83-.13,.33-.5,.5-.83,.37-.01,0-.02,0-.03-.01-1.78-.7-3.69-1.02-5.6-.92-3,.27-5.95,.93-8.78,1.97-3.16,1.01-6.4,2.03-9.77,2.03"/><path id="k" class="cp" d="M290.56,41.23c-3.06,0-5.3-.8-6.67-2.39-2.31-2.69-1.21-6.55-1.16-6.71,.1-.34,.46-.53,.8-.44s.53,.46,.43,.8c-.02,.05-.94,3.37,.91,5.51,1.48,1.72,4.35,2.3,8.52,1.73,.35-.05,.67,.2,.72,.55,.05,.35-.2,.67-.55,.72-.99,.14-2,.22-3,.22"/><path id="l" class="cp" d="M288.48,12.71l-.22-1.49,3.13-4.32c.18-.25,.38-.47,.62-.67l6.68-5.81c.1-.08,.11-.23,.03-.33-.07-.09-.19-.11-.29-.06l-7.09,3.71c-.56,.3-1.05,.72-1.42,1.24l-2.83,4-2.93,.74-4.99-.73c-.59-.09-1.19-.04-1.77,.13l-6.79,2.09c-.13,.04-.2,.17-.16,.29,.03,.1,.13,.17,.24,.17l7.9-.35c.3-.01,.6,0,.9,.06l5.59,1.03,1.41,1.33c.48,.45,1.23,.43,1.68-.04,.25-.26,.37-.63,.31-.99"/><path id="m" class="cp" d="M344.5,92.69l.43-2.13,6.35-4.35c.36-.25,.75-.46,1.16-.62l11.89-4.65c.18-.07,.27-.26,.2-.44-.06-.15-.21-.24-.37-.22l-11.41,1.6c-.91,.13-1.78,.47-2.53,1l-5.78,4.06-4.34-.41-6.42-3.42c-.76-.41-1.6-.64-2.46-.67l-10.23-.46c-.19,0-.35,.14-.36,.32,0,.16,.09,.3,.24,.34l10.9,3.36c.42,.13,.82,.3,1.2,.52l7.09,4.1,1.27,2.49c.43,.84,1.46,1.17,2.31,.74,.46-.24,.79-.67,.89-1.18"/><path id="n" class="cp" d="M325.9,49.24c0,.31-.25,.55-.55,.55s-.55-.25-.55-.55,.25-.55,.55-.55h0c.31,0,.55,.25,.55,.55"/><path id="o" class="cp" d="M321.03,50.04c.12,.28,0,.61-.28,.73-.28,.12-.61,0-.73-.28-.12-.28,0-.6,.28-.73,.28-.12,.61,0,.73,.28,0,0,0,0,0,0"/><path id="p" class="cp" d="M316.92,52.76c.23,.2,.25,.55,.04,.78-.2,.23-.55,.25-.78,.04s-.25-.55-.04-.78c0,0,0,0,0,0,.2-.23,.55-.25,.78-.04"/><path id="q" class="cp" d="M314.26,56.91c.29,.1,.45,.41,.35,.7-.1,.29-.41,.45-.7,.35-.29-.1-.45-.4-.35-.69,.09-.29,.41-.45,.7-.36h0"/><path id="r" class="cp" d="M313.52,61.78c.3-.03,.58,.19,.61,.49s-.19,.58-.49,.61c-.3,.03-.58-.19-.61-.49-.03-.3,.19-.58,.49-.61"/><path id="s" class="cp" d="M314.82,66.53c.26-.15,.6-.06,.76,.2s.06,.6-.2,.76c-.26,.15-.6,.06-.76-.2,0,0,0,0,0,0-.15-.26-.06-.6,.2-.76,0,0,0,0,0,0"/><path id="t" class="cp" d="M317.95,70.35c.18-.25,.53-.3,.77-.12,.25,.18,.3,.53,.12,.77-.18,.25-.52,.3-.77,.12-.25-.18-.3-.52-.12-.77,0,0,0,0,0,0"/><path id="u" class="cp" d="M322.35,72.55c.06-.3,.36-.49,.66-.43,.3,.06,.49,.36,.43,.66-.06,.3-.36,.49-.66,.43-.3-.06-.49-.36-.43-.66,0,0,0,0,0,0"/><path id="v" class="cp" d="M327.28,72.78c-.06-.3,.13-.59,.43-.66,.3-.06,.59,.13,.66,.43s-.13,.59-.43,.66c0,0,0,0,0,0-.3,.06-.59-.13-.65-.42,0,0,0,0,0,0"/><path id="w" class="cp" d="M331.87,70.99c-.18-.25-.12-.59,.12-.77,.25-.18,.59-.12,.77,.12,.18,.25,.12,.59-.12,.77-.25,.18-.59,.13-.77-.12,0,0,0,0,0,0"/><path id="x" class="cp" d="M335.33,67.48c-.26-.15-.35-.49-.2-.76,.15-.26,.49-.35,.76-.2s.35,.49,.2,.76h0c-.15,.26-.49,.35-.76,.2"/><path id="y" class="cp" d="M337.07,62.87c-.3-.03-.52-.3-.49-.61,.03-.3,.3-.52,.61-.49,.3,.03,.52,.3,.49,.61-.03,.3-.3,.53-.61,.49,0,0,0,0,0,0"/><path id="z" class="cp" d="M336.78,57.94c-.29,.09-.6-.07-.7-.36-.09-.29,.07-.6,.36-.7,.29-.09,.6,.06,.69,.35,.09,.29-.06,.6-.35,.7"/><path id="aa" class="cp" d="M334.52,53.57c-.23,.2-.58,.19-.78-.04-.2-.23-.19-.58,.04-.78,.23-.2,.58-.19,.78,.04,0,0,0,0,0,0,.2,.23,.19,.57-.04,.78,0,0,0,0,0,0"/><path id="ab" class="cp" d="M330.67,50.49c-.12,.28-.45,.4-.73,.28-.28-.12-.4-.45-.28-.73,.12-.28,.45-.4,.73-.28,.28,.12,.41,.45,.28,.73"/><path id="ac" class="cp" d="M325.72,56.92v-5.78c0-.2-.16-.37-.37-.37-.2,0-.37,.16-.37,.37h0v5.78c.12-.01,.24-.02,.37-.02s.25,0,.37,.02"/><path id="ad" class="cp" d="M321.63,51.86c-.08-.19-.3-.27-.49-.19-.19,.08-.27,.3-.19,.49h0l2.35,5.28c.21-.12,.44-.22,.67-.3l-2.35-5.28Z"/><path id="ae" class="cp" d="M322.5,58.03l-4.3-3.86c-.16-.13-.39-.11-.52,.04-.12,.15-.11,.37,.03,.5l4.3,3.86c.15-.2,.31-.38,.49-.55"/><path id="af" class="cp" d="M316,57.67c-.19-.06-.4,.04-.46,.24-.06,.19,.04,.4,.24,.46l5.5,1.78c.05-.24,.13-.47,.23-.7l-5.5-1.78Z"/><path id="ag" class="cp" d="M315.42,61.77c-.2,.03-.34,.21-.32,.41,.02,.18,.17,.32,.36,.32h.04l5.74-.61c-.05-.24-.07-.48-.08-.73l-5.74,.6Z"/><path id="ah" class="cp" d="M316.56,65.75c-.18,.09-.25,.31-.16,.49,.09,.18,.31,.25,.49,.16,.01,0,.02-.01,.03-.02l5-2.89c-.14-.2-.26-.41-.37-.63l-5,2.89Z"/><path id="ai" class="cp" d="M319.21,68.92c-.12,.16-.08,.39,.08,.51,.06,.05,.14,.07,.22,.07,.12,0,.23-.06,.3-.15l3.39-4.67c-.21-.13-.41-.27-.59-.43l-3.4,4.67Z"/><path id="aj" class="cp" d="M322.93,70.74c-.04,.2,.08,.39,.28,.43,0,0,0,0,0,0,.02,0,.05,0,.08,0,.17,0,.32-.12,.36-.29l1.2-5.65c-.24-.03-.48-.08-.72-.15l-1.2,5.65Z"/><path id="ak" class="cp" d="M327.06,70.89c.04,.17,.19,.29,.36,.29,.03,0,.05,0,.08,0,.2-.04,.33-.24,.28-.44l-1.2-5.65c-.23,.07-.47,.12-.72,.15l1.2,5.65Z"/><path id="al" class="cp" d="M330.9,69.34c.07,.1,.18,.15,.3,.15,.08,0,.15-.02,.22-.07,.16-.12,.2-.35,.08-.51,0,0,0,0,0,0l-3.4-4.67c-.19,.16-.38,.31-.59,.43l3.4,4.67Z"/><path id="am" class="cp" d="M333.78,66.37c.06,.03,.12,.05,.18,.05,.2,0,.37-.16,.37-.36,0-.13-.07-.25-.18-.32l-5-2.88c-.1,.22-.23,.43-.37,.63l5,2.88Z"/><path id="an" class="cp" d="M335.28,61.76l-5.74-.6c0,.24-.03,.49-.08,.73l5.74,.6h.04c.2,0,.36-.17,.36-.38,0-.18-.14-.33-.32-.36"/><path id="ao" class="cp" d="M334.92,58.36c.19-.06,.3-.27,.24-.46-.06-.19-.27-.3-.46-.24l-5.49,1.79c.1,.23,.17,.46,.23,.7l5.49-1.79Z"/><path id="ap" class="cp" d="M328.69,58.57l4.29-3.87c.15-.14,.16-.37,.03-.52s-.37-.16-.52-.03l-4.29,3.87c.18,.17,.35,.35,.49,.54"/><path id="aq" class="cp" d="M329.73,52.15c.08-.19,0-.4-.19-.49-.19-.08-.4,0-.49,.19h0l-2.35,5.28c.23,.08,.46,.18,.67,.3l2.35-5.28Z"/></g><path id="ar" class="cp" d="M355.09,108.66h0c-.1,0-.19-.04-.26-.11l-2.6-2.6c-.14-.14-.14-.37,0-.52l2.6-2.6c.14-.14,.37-.14,.52,0,0,0,0,0,0,0l2.6,2.6c.14,.14,.14,.37,0,.52l-2.6,2.6c-.07,.07-.16,.11-.26,.11m-2.09-2.97l2.09,2.08,2.09-2.08-2.09-2.08-2.09,2.08Z"/><path id="as" class="cp" d="M355.09,113.61c-.2,0-.37-.16-.37-.37v-14.48c0-.2,.17-.37,.37-.37,.2,0,.37,.16,.37,.37v14.49c0,.2-.16,.37-.37,.37"/><path id="at" class="cp" d="M361.97,106.06h-13.75c-.2-.01-.36-.18-.35-.39,0-.19,.16-.34,.35-.35h13.75c.2-.01,.38,.14,.39,.35s-.14,.38-.35,.39c-.01,0-.03,0-.04,0"/></g><g id="au"><path id="av" class="cp" d="M103.65,45.89c-1.63,.01-3.21-.57-4.45-1.63-1.09-1.18-1.49-2.83-1.07-4.38,.49-1.77,1.94-3.1,3.75-3.44,2.34-.58,4.81-.22,6.89,1,.42-1.59,1.83-2.71,3.47-2.76,1.7-.16,3.35,.59,4.36,1.97,1.06-1.01,3.44-3.08,6.09-2.99,2.51,.08,4.32,.73,5.37,1.91,.79,.94,1.16,2.17,.99,3.38-.25,2.95-1.99,4.53-4.87,4.46-2.14-.06-4.28-1.24-4.23-3.76,0-.93,.53-1.77,1.36-2.19,.94-.51,2.07-.5,2.99,.02,.56,.35,.88,.98,.83,1.64-.02,.35-.31,.62-.66,.6s-.62-.31-.6-.66c0,0,0-.02,0-.03,.02-.2-.08-.4-.26-.5-.54-.27-1.18-.26-1.72,.03-.43,.2-.7,.63-.7,1.1,0,.4,.1,2.4,3.01,2.48,2.22,.06,3.39-1.02,3.59-3.31,.13-.87-.12-1.76-.68-2.44-.8-.9-2.34-1.41-4.47-1.49-2.38-.08-4.69,2.17-5.45,2.91-.31,.3-.44,.43-.72,.43-.24,0-.47-.14-.57-.36-.68-1.31-2.09-2.09-3.57-1.96-1.38,.07-2.46,1.2-2.46,2.58,0,.35-.29,.63-.64,.62-.14,0-.28-.05-.38-.14-1.92-1.38-4.34-1.87-6.64-1.33-1.36,.23-2.47,1.22-2.84,2.54-.31,1.1-.03,2.29,.72,3.15,1.1,.91,2.5,1.36,3.93,1.27,.79,0,1.54-.35,2.07-.94,.43-.68,.25-1.59-.42-2.05-.81-.65-1.99-.52-2.63,.29-.04,.05-.08,.11-.12,.16-.23,.26-.63,.28-.89,.05-.26-.23-.28-.63-.05-.89h0c1-1.39,2.95-1.71,4.34-.71,.05,.04,.11,.08,.16,.12,1.21,.88,1.48,2.57,.62,3.78-.74,.89-1.82,1.41-2.98,1.43-.14,.01-.29,.01-.44,.01"/><path id="aw" class="cp" d="M76.08,53.19c-1.06-.09-2.11-.31-3.11-.65-4.7-1.58-9.75-1.79-14.57-.61-.34,.09-.68-.12-.77-.45-.09-.34,.12-.68,.45-.77h0c5.03-1.25,10.31-1.04,15.22,.61,.9,.3,1.83,.5,2.78,.6,2.37,0,3.37-.41,6.09-2.05,3.4-2.13,7.3-3.33,11.31-3.46,2.74,.08,5.48,.42,8.15,1.01,1.21,.26,2.43,.46,3.66,.58,1.26,.13,2.52-.23,3.51-1.01,.39-.35,.62-.85,.62-1.37,0-1.45-2.3-1.92-2.32-1.92-.34-.07-.56-.4-.5-.74s.4-.56,.74-.5h0c.14,.03,3.35,.67,3.35,3.16,0,.87-.37,1.7-1.02,2.29-1.24,1.03-2.84,1.51-4.45,1.35-1.29-.12-2.56-.33-3.83-.6-2.6-.58-5.24-.91-7.9-.99-3.78,.13-7.46,1.27-10.67,3.28-2.68,1.62-3.96,2.23-6.74,2.23"/><path id="ax" class="cp" d="M77.8,57.39h-.07c-1.85-.08-3.68-.43-5.42-1.06-4.37-1.55-9.11-1.74-13.59-.55-.34,.07-.67-.15-.74-.5-.07-.33,.14-.65,.46-.73,4.69-1.25,9.65-1.05,14.23,.58,1.62,.59,3.33,.93,5.06,1.01h.06c2.53,0,4.65-1.12,6.88-2.3,2.32-1.22,4.71-2.49,7.67-2.49,4.24,0,8.09,1.19,11.82,2.34,1.29,.4,2.51,.77,3.74,1.1,4.58,1.21,9.14-.05,10.67-1.42,1.77-1.58,2.47-3.84,2.36-7.53-.05-1.26-.03-2.52,.06-3.78,.03-.35,.34-.6,.68-.57,.35,.03,.6,.34,.57,.68-.08,1.21-.1,2.42-.06,3.63,.12,4.05-.74,6.67-2.78,8.51-2,1.8-7.1,2.95-11.83,1.7-1.25-.33-2.48-.71-3.78-1.11-3.64-1.12-7.4-2.28-11.45-2.28-2.64,0-4.8,1.14-7.08,2.35s-4.62,2.44-7.47,2.44"/><path id="ay" class="cp" d="M107.9,52.41c-.99,0-1.97-.08-2.95-.22-.34-.06-.58-.38-.52-.72,.05-.33,.36-.56,.69-.53,4.1,.56,6.91-.02,8.36-1.71,1.82-2.12,.9-5.37,.89-5.4-.1-.33,.09-.68,.43-.78,.33-.1,.68,.09,.78,.43,.05,.16,1.12,3.94-1.14,6.58-1.34,1.56-3.54,2.35-6.54,2.35"/><path id="az" class="cp" d="M70.04,36.08c-1.63,.01-3.21-.57-4.45-1.63-1.09-1.18-1.49-2.83-1.07-4.37,.49-1.77,1.94-3.1,3.75-3.44,2.34-.58,4.81-.22,6.89,1,.42-1.59,1.83-2.71,3.47-2.76,1.7-.16,3.35,.59,4.36,1.97,1.06-1.01,3.44-3.08,6.09-2.99,2.52,.08,4.32,.73,5.37,1.91,.8,.94,1.16,2.17,.99,3.38-.25,2.95-1.99,4.53-4.87,4.46-2.14-.06-4.28-1.24-4.23-3.76,0-.93,.53-1.77,1.36-2.19,.94-.51,2.07-.5,2.99,.02,.56,.35,.88,.98,.83,1.64-.02,.35-.31,.62-.66,.6s-.62-.31-.6-.66c0,0,0-.02,0-.03,.02-.2-.08-.4-.26-.5-.54-.27-1.18-.26-1.72,.03-.43,.2-.7,.63-.7,1.1,0,.4,.1,2.4,3.01,2.48,2.22,.06,3.39-1.02,3.59-3.31,.13-.87-.12-1.76-.68-2.44-.8-.9-2.34-1.41-4.47-1.49-2.39-.08-4.69,2.17-5.45,2.91-.31,.3-.44,.43-.72,.43-.25,0-.47-.14-.57-.36-.69-1.31-2.09-2.09-3.57-1.96-1.38,.05-2.47,1.19-2.47,2.58,0,.35-.3,.63-.65,.62-.14,0-.27-.05-.38-.14-1.92-1.38-4.34-1.87-6.64-1.33-1.36,.23-2.46,1.22-2.84,2.54-.31,1.1-.03,2.29,.72,3.15,1.1,.91,2.5,1.36,3.92,1.26,.79,0,1.54-.35,2.07-.94,.43-.68,.25-1.59-.42-2.05-.81-.65-1.99-.52-2.63,.29-.04,.05-.08,.11-.12,.16-.23,.26-.63,.28-.89,.05-.26-.23-.28-.63-.05-.89h0c1-1.39,2.95-1.71,4.34-.71,.05,.04,.11,.08,.16,.12,1.21,.88,1.49,2.57,.62,3.79-.74,.89-1.83,1.41-2.98,1.43-.14,.01-.29,.01-.44,.01"/><path id="ba" class="cp" d="M70.53,38.84c-1-.02-2-.11-2.99-.28-.66-.1-1.3-.21-1.94-.31-4.81-.78-8.96-1.46-13.63,.24-.32,.13-.69-.02-.82-.34s.02-.69,.34-.82c.01,0,.03-.01,.05-.02,4.98-1.81,9.49-1.08,14.27-.3,.64,.1,1.28,.21,1.93,.31,1.97,.3,4.18,.54,5.58-.42,.53-.32,.87-.89,.88-1.51-.05-.66-.44-1.26-1.03-1.57-.3-.18-.39-.57-.2-.87,.18-.3,.57-.39,.87-.2,.95,.54,1.56,1.52,1.62,2.61,0,1.05-.54,2.02-1.43,2.57-1.05,.65-2.27,.97-3.5,.91"/><path id="bb" class="cp" d="M75.68,44.82c-3.28-.17-6.51-.84-9.58-2-2.77-1.02-5.67-1.67-8.61-1.94-1.88-.09-3.75,.22-5.5,.91-.32,.14-.69-.01-.83-.33s.01-.69,.33-.83c0,0,.01,0,.02,0,1.91-.76,3.97-1.1,6.03-1,3.05,.27,6.06,.94,8.94,1.99,4.34,1.38,8.44,2.68,12.83,1.45,5.17-1.45,5.26-5.89,5.36-10.19,.02-.89,.04-1.73,.1-2.54,.04-.35,.36-.59,.7-.55,.33,.04,.57,.32,.55,.65-.06,.77-.08,1.59-.1,2.47-.09,4.31-.21,9.67-6.27,11.37-1.29,.36-2.62,.54-3.96,.53"/><path id="bc" class="cp" d="M73.46,41.45c-.99,0-1.97-.08-2.95-.22-.35-.04-.59-.35-.55-.7,.04-.35,.35-.59,.7-.55,0,0,.02,0,.03,0,4.1,.56,6.91-.01,8.36-1.71,1.82-2.12,.9-5.37,.89-5.4-.1-.33,.09-.68,.43-.78,.33-.1,.68,.09,.78,.43,.05,.16,1.12,3.94-1.14,6.58-1.35,1.56-3.54,2.35-6.55,2.35"/><path id="bd" class="cp" d="M73.4,3.78l-7.27,.93-1.27-.2-1.27-.2-6.63-3.13c-1.41-.66-3-.83-4.51-.46l-12.81,3.1c-.14,.03-.23,.17-.2,.31,.03,.12,.13,.2,.25,.2l13.07-.71c.97,.03,1.92,.26,2.79,.69l6.38,4.28,.22,1.41c.17,1.04,1.14,1.74,2.18,1.58,.6-.1,1.12-.47,1.39-1.01l.65-1.28,7.4-2.1c.96-.13,1.94-.06,2.87,.21l12.21,4.71c.14,.04,.28-.04,.32-.17,.03-.11-.01-.24-.11-.3l-11.23-6.91c-1.33-.82-2.89-1.16-4.43-.96"/><path id="be" class="cp" d="M34.64,71.81l-.34-2.31,4.85-6.68c.28-.38,.6-.73,.95-1.04l10.34-8.99c.15-.14,.16-.37,.02-.52-.11-.12-.28-.15-.43-.08l-10.96,5.73c-.88,.46-1.63,1.12-2.2,1.92l-4.38,6.19-4.53,1.15-7.72-1.14c-.91-.13-1.85-.06-2.73,.21l-10.51,3.23c-.19,.06-.3,.27-.24,.46,.05,.16,.2,.26,.37,.26l12.23-.53c.47-.02,.94,.01,1.4,.1l8.64,1.59,2.18,2.06c.74,.7,1.9,.66,2.6-.07,.39-.41,.56-.97,.48-1.53"/><path id="bf" class="cp" d="M12.63,84.01c0,.3-.24,.54-.54,.54s-.54-.24-.54-.54,.24-.54,.54-.54h0c.3,0,.54,.24,.54,.54"/><path id="bg" class="cp" d="M7.86,84.79c.12,.27,0,.59-.28,.71-.27,.12-.59,0-.71-.28-.12-.27,0-.59,.27-.71,.27-.12,.59,0,.72,.27,0,0,0,0,0,0"/><path id="bh" class="cp" d="M3.82,87.46c.22,.2,.24,.54,.04,.77-.2,.22-.54,.24-.77,.04-.22-.2-.24-.54-.04-.77,0,0,0,0,0,0,.2-.22,.54-.24,.76-.04"/><path id="bi" class="cp" d="M1.22,91.53c.29,.09,.44,.4,.35,.68-.09,.29-.4,.44-.68,.35-.29-.09-.44-.4-.35-.68,.09-.28,.4-.44,.68-.35"/><path id="bj" class="cp" d="M.49,96.31c.3-.03,.57,.19,.6,.48,.03,.3-.19,.57-.48,.6-.3,.03-.56-.18-.6-.48-.03-.3,.18-.57,.48-.6,0,0,0,0,0,0"/><path id="bk" class="cp" d="M1.77,100.97c.26-.15,.59-.06,.74,.2s.06,.59-.2,.74c-.26,.15-.59,.06-.74-.2,0,0,0,0,0,0-.15-.26-.06-.59,.2-.74,0,0,0,0,0,0"/><path id="bl" class="cp" d="M4.83,104.71c.18-.24,.52-.3,.76-.12,.24,.18,.3,.52,.12,.76-.18,.24-.52,.3-.76,.12-.24-.18-.3-.51-.12-.76,0,0,0,0,0,0"/><path id="bm" class="cp" d="M9.15,106.88c.06-.29,.35-.48,.64-.42s.48,.35,.42,.64c-.06,.29-.35,.48-.64,.42-.29-.06-.48-.35-.42-.64,0,0,0,0,0,0"/><path id="bn" class="cp" d="M13.99,107.1c-.06-.29,.13-.58,.42-.64s.58,.13,.64,.42c.06,.29-.12,.58-.42,.64-.29,.06-.58-.12-.64-.42,0,0,0,0,0,0"/><path id="bo" class="cp" d="M18.49,105.34c-.18-.24-.12-.58,.12-.76,.24-.18,.58-.12,.76,.12,.17,.24,.12,.58-.12,.76-.24,.18-.58,.12-.76-.12,0,0,0,0,0,0"/><path id="bp" class="cp" d="M21.89,101.9c-.26-.15-.35-.48-.2-.74,.15-.26,.48-.35,.74-.2s.35,.48,.2,.74c0,0,0,0,0,0-.15,.26-.48,.35-.74,.2"/><path id="bq" class="cp" d="M23.59,97.38c-.3-.03-.51-.3-.48-.6,.03-.3,.3-.51,.6-.48,.3,.03,.51,.3,.48,.6-.03,.3-.3,.51-.6,.48,0,0,0,0,0,0"/><path id="br" class="cp" d="M23.31,92.55c-.28,.09-.59-.06-.68-.35-.09-.28,.06-.59,.35-.68,.28-.09,.59,.06,.68,.35,0,0,0,0,0,0,.09,.28-.06,.59-.35,.68"/><path id="bs" class="cp" d="M21.09,88.26c-.22,.2-.57,.18-.77-.04s-.18-.57,.04-.77c.22-.2,.57-.18,.77,.04,0,0,0,0,0,0,.2,.22,.18,.56-.04,.76,0,0,0,0,0,0"/><path id="bt" class="cp" d="M17.31,85.24c-.12,.27-.44,.4-.72,.27s-.4-.44-.27-.72c.12-.27,.44-.4,.71-.27,.27,.12,.4,.44,.28,.72,0,0,0,0,0,0"/><path id="bu" class="cp" d="M12.45,91.54v-5.67c0-.2-.16-.36-.36-.36s-.36,.16-.36,.36v5.67c.12-.01,.24-.01,.36-.02s.24,0,.36,.02"/><path id="bv" class="cp" d="M8.45,86.57c-.08-.18-.29-.26-.48-.18-.18,.08-.26,.29-.18,.48l2.31,5.17c.21-.12,.43-.21,.66-.29l-2.31-5.17Z"/><path id="bw" class="cp" d="M9.3,92.63l-4.22-3.79c-.15-.13-.38-.12-.51,.03-.13,.15-.12,.38,.03,.51l4.21,3.79c.14-.19,.31-.37,.48-.54"/><path id="bx" class="cp" d="M2.93,92.28c-.19-.05-.39,.06-.44,.25-.05,.18,.05,.37,.22,.44l5.39,1.75c.05-.23,.13-.46,.22-.68l-5.39-1.75Z"/><path id="by" class="cp" d="M2.36,96.3c-.2,.03-.34,.21-.31,.4,.02,.18,.17,.31,.35,.31h.04l5.63-.6c-.04-.24-.07-.48-.07-.72l-5.64,.59Z"/><path id="bz" class="cp" d="M3.47,100.2c-.17,.1-.23,.32-.13,.49,.06,.11,.18,.18,.31,.18,.06,0,.12-.02,.18-.05l4.9-2.83c-.14-.2-.26-.41-.36-.62l-4.9,2.83Z"/><path id="ca" class="cp" d="M6.08,103.31c-.12,.16-.08,.39,.08,.5,.06,.04,.13,.07,.21,.07,.12,0,.22-.05,.29-.15l3.33-4.59c-.2-.12-.4-.26-.58-.42l-3.33,4.58Z"/><path id="cb" class="cp" d="M9.72,105.1c-.04,.19,.08,.38,.28,.43,0,0,0,0,0,0,.02,0,.05,0,.07,0,.17,0,.32-.12,.35-.29l1.17-5.54c-.24-.03-.47-.08-.7-.15l-1.18,5.54Z"/><path id="cc" class="cp" d="M13.78,105.24c.04,.17,.18,.28,.35,.28,.02,0,.05,0,.07,0,.2-.04,.32-.23,.28-.43l-1.18-5.54c-.23,.07-.46,.12-.7,.15l1.18,5.54Z"/><path id="cd" class="cp" d="M17.54,103.73c.07,.09,.18,.15,.29,.15,.08,0,.15-.02,.21-.07,.16-.12,.19-.34,.08-.5l-3.33-4.58c-.18,.16-.38,.3-.58,.42l3.33,4.58Z"/><path id="ce" class="cp" d="M20.37,100.81c.05,.03,.12,.05,.18,.05,.2,0,.36-.16,.36-.36,0-.13-.07-.25-.18-.31l-4.91-2.83c-.1,.22-.22,.43-.36,.62l4.91,2.83Z"/><path id="cf" class="cp" d="M21.83,96.28l-5.64-.59c0,.24-.03,.48-.07,.72l5.64,.59h.04c.2,0,.36-.17,.35-.37,0-.18-.14-.33-.31-.35"/><path id="cg" class="cp" d="M21.48,92.95c.19-.07,.28-.27,.21-.46-.06-.18-.26-.27-.44-.22l-5.39,1.75c.09,.22,.17,.45,.22,.68l5.39-1.75Z"/><path id="ch" class="cp" d="M15.37,93.16l4.21-3.79c.15-.13,.16-.36,.03-.51-.13-.15-.36-.16-.51-.03l-4.21,3.79c.18,.16,.34,.34,.48,.53"/><path id="ci" class="cp" d="M16.39,86.86c.08-.18,0-.39-.18-.48-.18-.08-.39,0-.48,.18h0l-2.3,5.18c.23,.08,.45,.18,.66,.29l2.3-5.18Z"/><path id="cj" class="cp" d="M34.62,43.23h0c-.1,0-.19-.04-.25-.11l-2.55-2.55c-.14-.14-.14-.37,0-.51l2.55-2.55c.14-.14,.37-.14,.51,0,0,0,0,0,0,0l2.55,2.55c.06,.07,.1,.16,.1,.25,0,.09-.03,.19-.1,.25l-2.55,2.55c-.07,.07-.16,.11-.26,.11m-2.04-2.92l2.04,2.05,2.05-2.04-2.05-2.04-2.04,2.04Z"/><path id="ck" class="cp" d="M34.62,48.08c-.2,0-.36-.16-.36-.36h0v-14.21c0-.2,.16-.36,.36-.36s.36,.16,.36,.36v14.21c0,.2-.16,.36-.36,.36h0"/><path id="cl" class="cp" d="M41.36,40.68h-13.48c-.2-.01-.35-.18-.34-.38,0-.18,.16-.33,.34-.34h13.48c.2-.01,.37,.14,.38,.34,.01,.2-.14,.37-.34,.38-.01,0-.03,0-.04,0"/><path id="cm" class="cp" d="M48.65,80.46c-.09,0-.19-.04-.25-.1l-2.04-2.06c-.14-.14-.14-.37,0-.51l2.04-2.05c.14-.14,.37-.14,.51,0l2.04,2.05c.14,.14,.14,.37,0,.51l-2.04,2.05c-.07,.06-.16,.1-.26,.1m-1.53-2.4l1.53,1.53,1.54-1.53-1.54-1.53-1.53,1.53Z"/><path id="cn" class="cp" d="M48.66,84.34c-.2,0-.36-.16-.36-.36,0,0,0,0,0,0v-11.37c0-.2,.16-.36,.36-.36s.36,.16,.36,.36v11.38c0,.2-.16,.36-.36,.36,0,0,0,0,0,0"/><path id="co" class="cp" d="M54.05,78.41h-10.8c-.2-.01-.35-.18-.34-.38,0-.18,.16-.33,.34-.34h10.8c.2-.01,.37,.14,.38,.34,.01,.2-.14,.37-.34,.38-.01,0-.03,0-.04,0"/></g></svg>