<?xml version="1.0" encoding="UTF-8"?><svg id="a" xmlns="http://www.w3.org/2000/svg" viewBox="0 0 198.38 143.53"><defs><style>.e{fill:#c30d23;}</style></defs><g id="b"><path id="c" class="e" d="M193.37,55.16c-.18-.6-.35-1.16-.51-1.69-.49-1.61-1.24-3.14-2.22-4.51,0-.03,.01-.07,.02-.1-2.87-4.59-8.38-7.39-12.65-9.54-.39-.21-.76-.42-1.12-.62-5.28-2.94-8.5-2.84-15.49-1.04-5.45,1.4-14.09-1.15-16.35-1.88-.1-1.87-.45-7.84-.92-11.64-.65-5.19-1.79-7.94-3.95-9.52-2-1.45-10.4-2.48-12.93-2.77-1.01-2.85-3.04-5.22-5.7-6.67-2.97-1.7-6.18-2.92-9.53-3.62-8.41-2.09-17.2-2.09-25.61,0-3.35,.7-6.57,1.92-9.53,3.62-2.66,1.44-4.69,3.82-5.7,6.67-2.53,.28-10.93,1.31-12.93,2.77-2.16,1.57-3.31,4.33-3.96,9.52-.47,3.81-.82,9.77-.92,11.64-2.27,.73-10.9,3.29-16.35,1.88-6.99-1.8-10.21-1.9-15.49,1.04-.36,.2-.74,.41-1.12,.62-4.27,2.15-9.77,4.94-12.65,9.54,0,.03,.01,.07,.02,.1-.98,1.37-1.73,2.9-2.22,4.51-.16,.53-.33,1.09-.51,1.69C2.5,63.44-1.73,77.3,.76,91.62c.2,3.12,.67,6.21,1.39,9.25,1.4,6.55,4.15,12.73,8.07,18.16,3.46,4.83,7.69,9.06,12.52,12.53,3.43,2.37,7.28,4.04,11.35,4.92,.58,.12,1.25,.28,2.02,.45,8.74,1.98,29.2,6.6,63.08,6.6s54.34-4.63,63.08-6.6c.77-.17,1.44-.33,2.02-.45,4.07-.88,7.93-2.55,11.35-4.92,4.83-3.47,9.06-7.7,12.52-12.53,3.89-5.44,6.64-11.62,8.07-18.16,.73-3.04,1.2-6.13,1.39-9.25,2.49-14.32-1.74-28.18-4.26-36.46m2.48,36.23s-.01,.07-.01,.11c0,.02-.02,.36-.07,.96-6.36,1.84-12.91,3-19.52,3.44-10.77,.83-46.67,3.27-65.42,4.54-1.53,4.3-4.33,9.46-9.39,12.39-1.39,.8-3.1,.8-4.49,0-5.06-2.93-7.86-8.09-9.39-12.39-18.75-1.27-54.64-3.71-65.4-4.54-6.61-.44-13.16-1.59-19.53-3.44-.05-.6-.07-.94-.07-.97,0-.04,0-.08-.01-.11-2.44-13.95,1.72-27.6,4.21-35.75,.18-.6,.36-1.17,.51-1.7,.33-1.08,.79-2.12,1.38-3.08,.93,.83,2.12,1.31,3.37,1.36,1.6,.16,5.06,.78,6.92,1.17,3.02,.71,6.16,.74,9.19,.08,3.63-.94,7.76-9.52,8.27-10.77s1.01-2.11,.42-3.12c-.04-.08-.1-.15-.15-.21,1.35,.31,2.73,.46,4.12,.44,6.31,0,13.4-2.46,13.76-2.59,.33-.11,.57-.42,.59-.77,0-.08,.38-7.62,.94-12.1,.58-4.67,1.53-7.09,3.26-8.35,1.36-.99,8.3-2.03,12.48-2.47l-.69,3.12c-2.28,.95-7.97,5.32-6.64,6.46s4.36,0,10.25-1.52c4.01-1.04,13.65-1.98,19.39-2.48,3.01-.26,6.04-.27,9.05-.02,6.04,.49,16.45,1.45,20.52,2.5,5.88,1.52,8.92,2.66,10.25,1.52s-4.36-5.51-6.64-6.46l-.69-3.12c4.18,.44,11.12,1.48,12.48,2.47,1.73,1.26,2.67,3.68,3.26,8.35,.56,4.48,.94,12.03,.94,12.1,.02,.35,.26,.66,.59,.77,.45,.16,11.04,3.83,17.88,2.15-.06,.07-.11,.14-.15,.21-.59,1.02-.08,1.87,.42,3.12s4.64,9.83,8.27,10.77c3.03,.66,6.17,.63,9.19-.08,1.86-.39,5.31-1.01,6.92-1.17,1.25-.05,2.44-.53,3.37-1.36,.59,.97,1.05,2,1.37,3.08,.16,.53,.33,1.1,.52,1.7,2.48,8.15,6.65,21.8,4.21,35.75"/><path id="d" class="e" d="M99.2,112.04c-.58,0-1.15-.15-1.65-.44-7.3-4.22-9.77-13.48-10.49-17.27-.19-.95,.07-1.94,.69-2.68,2.59-3.23,6.48-5.14,10.62-5.22,.17,0,.34,0,.49,.01,.11,0,.23,.01,.34,.01s.23,0,.34-.01c.15,0,.31-.01,.49-.01,4.14,.07,8.03,1.99,10.62,5.22,.62,.74,.88,1.73,.69,2.68-.72,3.78-3.19,13.04-10.49,17.27-.5,.29-1.07,.44-1.65,.44"/></g></svg>