<?xml version="1.0" encoding="UTF-8"?><svg id="a" xmlns="http://www.w3.org/2000/svg" viewBox="0 0 50.62 1252"><defs><style>.cls-1{fill:#ab1f24;}</style></defs><path class="cls-1" d="M49.06,38.33H1.07V22.33L29.68,12.12c3.2-1.17,6.52-2.03,9.85-2.77v-.55c-7.88,.8-18.95,1.17-25.66,1.17H1.07V0H49.06V15.99l-28.61,10.21c-3.2,1.17-6.52,2.09-9.84,2.83v.55c7.94-.8,16.36-1.23,24.36-1.23h14.09v9.97h0Z"/><path class="cls-1" d="M1.07,67.49v-11.38H49.06v11.38H1.07Z"/><path class="cls-1" d="M16.95,93.52c-5.42,.8-8.37,3.26-8.37,8.37,0,2.89,1.47,5.05,4.55,5.05,3.45,0,4.8-2.09,7.45-9.66,3.08-8.74,7.32-13.23,14.64-13.23,9.04,0,14.46,6.4,14.46,16.12s-4.92,15.87-14.09,17.23l-2.28-10.95c5.78-.43,8.8-2.71,8.8-6.77,0-3.14-1.97-4.86-4.92-4.86-3.26,0-4.98,2.28-7.2,9.17-3.26,10.21-7.07,14.52-14.95,14.52-8.92,0-14.65-6.46-14.65-17.29s5.11-17.72,15.13-19.01l1.42,11.32h.01Z"/><path class="cls-1" d="M49.06,171.97H1.07v-11.38H21.07v-16H1.07v-11.38H49.06v11.38H29.99v16h19.07v11.38Z"/><path class="cls-1" d="M1.07,201.13v-11.38H49.06v11.38H1.07Z"/><path class="cls-1" d="M36.14,252.08c-2.71,0-5.11-.18-7.82-.43v.25c2.65,1.54,5.42,3.32,7.82,5.17l12.92,10.21v13.84l-19.93-18.03L1.07,281.18v-13.72l19.93-11.81-3.94-3.57H1.07v-11.2H49.06v11.2h-12.92Z"/><path class="cls-1" d="M16.64,314.34H1.07v-11.44h15.57l32.42-15.63v12.31l-16.3,7.57c-1.72,.8-3.51,1.48-5.29,2.16,1.85,.61,3.44,1.29,5.29,2.09l16.3,6.89v11.69l-32.42-15.63h0Z"/><path class="cls-1" d="M49.06,382.21H18.3c-12.37,0-17.85-8-17.85-19.38s5.48-19.38,17.85-19.38h30.76v11.38H18.79c-7.26,0-10.28,3.32-10.28,8s3.02,8,10.28,8h30.27v11.38Z"/><path class="cls-1" d="M16.95,408.24c-5.42,.8-8.37,3.26-8.37,8.37,0,2.89,1.47,5.05,4.55,5.05,3.45,0,4.8-2.09,7.45-9.66,3.08-8.74,7.32-13.23,14.64-13.23,9.04,0,14.46,6.4,14.46,16.12s-4.92,15.87-14.09,17.23l-2.28-10.95c5.78-.43,8.8-2.71,8.8-6.77,0-3.14-1.97-4.86-4.92-4.86-3.26,0-4.98,2.28-7.2,9.17-3.26,10.21-7.07,14.52-14.95,14.52-8.92,0-14.65-6.46-14.65-17.29s5.11-17.72,15.13-19.01l1.42,11.32h.01Z"/><path class="cls-1" d="M49.06,486.68H1.07v-11.38H21.07v-16H1.07v-11.38H49.06v11.38H29.99v16h19.07v11.38Z"/><path class="cls-1" d="M49.06,543.23H18.3c-12.37,0-17.85-8-17.85-19.38s5.48-19.38,17.85-19.38h30.76v11.38H18.79c-7.26,0-10.28,3.32-10.28,8s3.02,8,10.28,8h30.27v11.38Z"/><path class="cls-1" d="M16.95,591.22c-5.42,.8-8.37,3.26-8.37,8.37,0,2.89,1.47,5.05,4.55,5.05,3.45,0,4.8-2.09,7.45-9.66,3.08-8.74,7.32-13.23,14.64-13.23,9.04,0,14.46,6.4,14.46,16.12s-4.92,15.87-14.09,17.23l-2.28-10.95c5.78-.43,8.8-2.71,8.8-6.77,0-3.14-1.97-4.86-4.92-4.86-3.26,0-4.98,2.28-7.2,9.17-3.26,10.21-7.07,14.52-14.95,14.52-8.92,0-14.65-6.46-14.65-17.29s5.11-17.72,15.13-19.01l1.42,11.32h.01Z"/><path class="cls-1" d="M49.06,669.67H1.07v-11.38H21.07v-16H1.07v-11.38H49.06v11.38H29.99v16h19.07v11.38Z"/><path class="cls-1" d="M1.07,698.83v-11.38H49.06v11.38H1.07Z"/><path class="cls-1" d="M49.06,754.94H1.07v-15.99l28.61-10.21c3.2-1.17,6.52-2.03,9.85-2.77v-.55c-7.88,.8-18.95,1.17-25.66,1.17H1.07v-9.97H49.06v15.99l-28.61,10.21c-3.2,1.17-6.52,2.09-9.84,2.83v.55c7.94-.8,16.36-1.23,24.36-1.23h14.09v9.97Z"/><path class="cls-1" d="M36.14,783.92c-2.71,0-5.11-.18-7.82-.43v.24c2.65,1.54,5.42,3.32,7.82,5.17l12.92,10.21v13.84l-19.93-18.03-28.06,18.09v-13.72l19.93-11.81-3.94-3.57H1.07v-11.2H49.06v11.2h-12.92Z"/><path class="cls-1" d="M1.07,862.43v-11.38l11.26-2.77v-14.71l-11.26-2.71v-10.52l47.99,12.25v17.53l-47.99,12.31h0Zm35.07-19.93c2.15-.56,4.37-1.05,6.58-1.35v-.31c-2.22-.37-4.43-.86-6.58-1.41l-15.2-3.75v10.52l15.2-3.69h0Z"/><path class="cls-1" d="M49.06,914.24H1.07v-15.99l28.61-10.21c3.2-1.17,6.52-2.03,9.85-2.77v-.55c-7.88,.8-18.95,1.17-25.66,1.17H1.07v-9.97H49.06v15.99l-28.61,10.21c-3.2,1.17-6.52,2.09-9.84,2.83v.55c7.94-.8,16.36-1.23,24.36-1.23h14.09v9.97Z"/><path class="cls-1" d="M16.95,940.27c-5.42,.8-8.37,3.26-8.37,8.37,0,2.89,1.47,5.04,4.55,5.04,3.45,0,4.8-2.09,7.45-9.66,3.08-8.74,7.32-13.23,14.64-13.23,9.04,0,14.46,6.4,14.46,16.12s-4.92,15.87-14.09,17.23l-2.28-10.95c5.78-.43,8.8-2.71,8.8-6.77,0-3.14-1.97-4.86-4.92-4.86-3.26,0-4.98,2.28-7.2,9.17-3.26,10.21-7.07,14.52-14.95,14.52-8.92,0-14.65-6.46-14.65-17.29s5.11-17.72,15.13-19.01l1.42,11.32h.01Z"/><path class="cls-1" d="M9.38,1009.36H1.07v-29.41H49.06v28.86h-8.3v-17.78h-11.38v15.99h-8v-15.99H9.38v18.33Z"/><path class="cls-1" d="M49.06,1062.4H1.07v-16l28.61-10.21c3.2-1.17,6.52-2.03,9.85-2.77v-.56c-7.88,.8-18.95,1.17-25.66,1.17H1.07v-9.97H49.06v15.99l-28.61,10.21c-3.2,1.17-6.52,2.09-9.84,2.83v.55c7.94-.8,16.36-1.23,24.36-1.23h14.09v9.99Z"/></svg>