<?xml version="1.0" encoding="UTF-8"?><svg id="a" xmlns="http://www.w3.org/2000/svg" viewBox="0 0 198.38 143.53"><defs><style>.e{fill:#c30d23;}</style></defs><g id="b"><path id="c" class="e" d="M193.37,55.16c-.18-.6-.35-1.16-.51-1.69-.49-1.61-1.24-3.14-2.22-4.51,0-.03,.01-.07,.02-.1-2.87-4.59-8.38-7.39-12.65-9.54-.39-.21-.76-.42-1.12-.62-5.28-2.94-8.5-2.84-15.49-1.04-5.45,1.4-14.09-1.15-16.35-1.88-.1-1.87-.45-7.84-.92-11.64-.65-5.19-1.79-7.94-3.95-9.52-2-1.45-10.4-2.48-12.93-2.77-1.01-2.85-3.04-5.22-5.7-6.67-2.97-1.7-6.18-2.92-9.53-3.62-8.41-2.09-17.2-2.09-25.61,0-3.35,.7-6.57,1.92-9.53,3.62-2.66,1.44-4.69,3.82-5.7,6.67-2.53,.28-10.93,1.31-12.93,2.77-2.16,1.57-3.31,4.33-3.96,9.52-.47,3.81-.82,9.77-.92,11.64-2.27,.73-10.9,3.29-16.35,1.88-6.99-1.8-10.21-1.9-15.49,1.04-.36,.2-.74,.41-1.12,.62-4.27,2.15-9.77,4.94-12.65,9.54,0,.03,.01,.07,.02,.1-.98,1.37-1.73,2.9-2.22,4.51-.16,.53-.33,1.09-.51,1.69C2.5,63.44-1.73,77.3,.76,91.62c.2,3.12,.67,6.21,1.39,9.25,1.4,6.55,4.15,12.73,8.07,18.16,3.46,4.83,7.69,9.06,12.52,12.53,3.43,2.37,7.28,4.04,11.35,4.92,.58,.12,1.25,.28,2.02,.45,8.74,1.98,29.2,6.6,63.08,6.6s54.34-4.63,63.08-6.6c.77-.17,1.44-.33,2.02-.45,4.07-.88,7.93-2.55,11.35-4.92,4.83-3.47,9.06-7.7,12.52-12.53,3.89-5.44,6.64-11.62,8.07-18.16,.73-3.04,1.2-6.13,1.39-9.25,2.49-14.32-1.74-28.18-4.26-36.46m2.48,36.23s-.01,.07-.01,.11c0,.02-.02,.36-.07,.96-6.36,1.84-12.91,3-19.52,3.44-10.77,.83-46.67,3.27-65.42,4.54-1.53,4.3-4.33,9.46-9.39,12.39-1.39,.8-3.1,.8-4.49,0-5.06-2.93-7.86-8.09-9.39-12.39-18.75-1.27-54.64-3.71-65.4-4.54-6.61-.44-13.16-1.59-19.53-3.44-.05-.6-.07-.94-.07-.97,0-.04,0-.08-.01-.11-2.44-13.95,1.72-27.6,4.21-35.75,.18-.6,.36-1.17,.51-1.7,.33-1.08,.79-2.12,1.38-3.08,.93,.83,2.12,1.31,3.37,1.36,1.6,.16,5.06,.78,6.92,1.17,3.02,.71,6.16,.74,9.19,.08,3.63-.94,7.76-9.52,8.27-10.77s1.01-2.11,.42-3.12c-.04-.08-.1-.15-.15-.21,1.35,.31,2.73,.46,4.12,.44,6.31,0,13.4-2.46,13.76-2.59,.33-.11,.57-.42,.59-.77,0-.08,.38-7.62,.94-12.1,.58-4.67,1.53-7.09,3.26-8.35,1.36-.99,8.3-2.03,12.48-2.47l-.69,3.12c-2.28,.95-7.97,5.32-6.64,6.46s4.36,0,10.25-1.52c4.01-1.04,13.65-1.98,19.39-2.48,3.01-.26,6.04-.27,9.05-.02,6.04,.49,16.45,1.45,20.52,2.5,5.88,1.52,8.92,2.66,10.25,1.52s-4.36-5.51-6.64-6.46l-.69-3.12c4.18,.44,11.12,1.48,12.48,2.47,1.73,1.26,2.67,3.68,3.26,8.35,.56,4.48,.94,12.03,.94,12.1,.02,.35,.26,.66,.59,.77,.45,.16,11.04,3.83,17.88,2.15-.06,.07-.11,.14-.15,.21-.59,1.02-.08,1.87,.42,3.12s4.64,9.83,8.27,10.77c3.03,.66,6.17,.63,9.19-.08,1.86-.39,5.31-1.01,6.92-1.17,1.25-.05,2.44-.53,3.37-1.36,.59,.97,1.05,2,1.37,3.08,.16,.53,.33,1.1,.52,1.7,2.48,8.15,6.65,21.8,4.21,35.75"/><path id="d" class="e" d="M99.2,112.04c-.58,0-1.15-.15-1.65-.44-7.3-4.22-9.77-13.48-10.49-17.27-.19-.95,.07-1.94,.69-2.68,2.59-3.23,6.48-5.14,10.62-5.22,.17,0,.34,0,.49,.01,.11,0,.23,.01,.34,.01s.23,0,.34-.01c.15,0,.31-.01,.49-.01,4.14,.07,8.03,1.99,10.62,5.22,.62,.74,.88,1.73,.69,2.68-.72,3.78-3.19,13.04-10.49,17.27-.5,.29-1.07,.44-1.65,.44"/></g><g><path class="e" d="M68.96,44.8h-6.19v.62h-1.79v-7.52h2.62v-1.08h-3.1v-1.72h10.78v1.72h-3.29v1.08h2.76v7.52h-1.79v-.62Zm-6.19-1.63h6.19v-.89h-1.6c-.48,0-.8-.06-.95-.19-.16-.12-.23-.38-.23-.77v-1.8h-.83c-.02,.7-.07,1.26-.17,1.7-.12,.57-.34,1.1-.65,1.6l-1.7-.64c.52-.64,.83-1.53,.94-2.66h-1v3.65Zm2.58-5.27h.83v-1.08h-.83v1.08Zm3.61,2.84v-1.22h-1.18v.89c0,.17,.03,.27,.08,.3,.03,.02,.13,.04,.3,.04h.79Z"/><path class="e" d="M78.26,38.84c-.06,1.64-.32,2.94-.79,3.9-.57,1.14-1.54,2.11-2.92,2.89l-1.46-1.42c1.3-.62,2.2-1.38,2.69-2.27,.38-.72,.6-1.76,.64-3.11h-2.95v-1.74h2.96v-2.3h1.85v2.3h3.54v6.2c0,.14,.02,.22,.07,.24,.05,.02,.12,.04,.2,.04h.25c.2,0,.33-.17,.38-.52,.03-.19,.06-.78,.08-1.75l1.68,.67c-.06,1.07-.12,1.76-.18,2.06-.1,.5-.28,.83-.56,1.01-.28,.18-.75,.27-1.43,.27h-.78c-.62,0-1.02-.08-1.22-.23-.25-.18-.37-.59-.37-1.21v-5.05h-1.68Z"/><path class="e" d="M87.74,38.02c-.17,1.27-.4,2.36-.7,3.25l-1.32-.79c.3-.86,.54-1.84,.71-2.95l1.31,.49Zm1.92,1.84c0,1.22-.11,2.23-.34,3.05-.26,.93-.73,1.84-1.4,2.75l-1.73-1.02c.66-.78,1.1-1.52,1.34-2.24,.24-.72,.36-1.66,.36-2.84v-4.63h1.76v3.23l.82-.61c.26,.45,.52,.94,.77,1.49v-3.62h1.79v2.57l.79-.64c.32,.55,.62,1.11,.89,1.68v-4.09h1.85v10.55h-1.85v-5.12l-.73,.62c-.27-.76-.59-1.51-.95-2.24v6.14h-1.79v-4.3l-.67,.56c-.26-.78-.57-1.54-.91-2.26v.97Z"/><path class="e" d="M100.99,43.39c-.42,.5-.86,.96-1.34,1.37l-.96-1.4c.8-.6,1.46-1.22,1.98-1.87h-1.58v-1.49h1.86v-.55h-1.98v-1.48h1.02c-.07-.3-.17-.62-.29-.96h-.5v-1.44h1.8v-.82h1.76v.82h1.69v1.44h-.5c-.09,.38-.18,.7-.28,.96h.89v1.48h-1.8v.55h1.68v1.49h-1.64c.42,.37,.98,.78,1.69,1.24l-.91,1.31c-.26-.2-.54-.44-.85-.73v2.24h-1.73v-2.15Zm1.36-6.38h-1c.1,.31,.18,.63,.26,.96h.48c.1-.29,.18-.61,.25-.96Zm7.66,2.81h-.91v5.69h-1.74v-5.69h-.76c-.02,2.12-.27,4-.77,5.65l-1.78-.76c.35-.87,.59-1.7,.71-2.48,.11-.71,.17-1.7,.17-2.98v-3.65c1.55-.14,2.84-.41,3.88-.8l1.09,1.51c-.94,.37-2.04,.63-3.3,.78v1.03h3.41v1.69Z"/><path class="e" d="M117.18,44.17h-1.8v1.37h-1.63v-1.37h-2.02v-1.54h2.02v-.48h-1.62v-4.61h1.62v-.48h-1.91v-1.46h1.91v-.92h1.63v.92h1.74v1.46h-1.74v.48h1.55v.18c.83-.82,1.48-1.82,1.96-3h1.94c.52,1.27,1.29,2.37,2.3,3.29l-1.02,1.52-.2-.2v.43h-1.18v.97h1.87v1.69h-1.87v3.1h-1.73v-3.1h-1.84v-1.69h1.84v-.97h-1.16v-.44c-.08,.09-.15,.16-.22,.22l-.7-1.06v3.67h-1.55v.48h1.8v1.54Zm-1.76-4.86v-.46h-1.68v.46h1.68Zm0,1.58v-.47h-1.68v.47h1.68Zm3.4-2.75h2.1c-.43-.59-.78-1.18-1.06-1.76-.28,.59-.63,1.18-1.04,1.76Z"/><path class="e" d="M126.21,41.68c-.13,1.18-.33,2.28-.6,3.28l-1.2-.71c.27-.82,.47-1.76,.6-2.83l1.2,.26Zm7.06-6.97c-.1,.34-.17,.59-.23,.77h2.24v4.63h-2.12v.02c.12,.43,.29,.85,.52,1.25,.39-.46,.69-.88,.9-1.26l1.15,.88c-.37,.59-.78,1.12-1.22,1.57,.36,.42,.8,.86,1.33,1.3l-1.01,1.42c-.7-.69-1.26-1.36-1.67-2.02v.97c0,.5-.08,.85-.24,1.03-.16,.18-.44,.27-.84,.27h-1.12l-.43-1.56c-.28,.47-.6,.92-.95,1.34l-.95-1.26-.4,.16c-.18-.81-.32-1.67-.42-2.59v4h-1.57v-4.46c-.53,.06-1.06,.1-1.58,.12l-.18-1.49c.3,0,.54,0,.73-.01,.15-.18,.37-.46,.66-.83-.43-.52-.9-1.04-1.4-1.55l.86-1.6c.14,.15,.24,.28,.32,.37,.29-.51,.57-1.07,.84-1.67l1.4,.59c-.39,.69-.84,1.42-1.33,2.18l.28,.34c.41-.58,.8-1.2,1.18-1.86l1.39,.66v-.94h1.79c.1-.26,.2-.58,.3-.95l1.76,.18Zm-6.23,4.96c.35-.03,.64-.06,.85-.1-.06-.16-.14-.39-.26-.68l-.59,.78Zm.78,1.28v.67l1.03-.32c.1,.79,.21,1.44,.32,1.94,.42-.47,.73-.94,.91-1.42h-.92v-.83l-.76,.25-.11-.38c-.17,.03-.33,.06-.48,.08Zm3.55,1.19c-.19,.61-.46,1.2-.8,1.79h.68c.14,0,.23-.03,.29-.08,.06-.06,.08-.18,.08-.38v-3.35h-2.21v-3.7c-.41,.61-.92,1.32-1.54,2.14l.79-.3c.23,.57,.5,1.31,.79,2.23h1.91v1.66Zm2.24-4.81v-.44h-2.52v.44h2.52Zm0,1.52v-.42h-2.52v.42h2.52Z"/></g><g><path class="e" d="M86.78,55.1c0,.58-.07,1.31-.2,2.19-.13,.88-.27,1.53-.41,1.94-.18,.5-.38,.84-.61,1.03-.23,.19-.55,.29-.95,.3-.5,0-1.09-.14-1.75-.44l.02-1.88c.46,.25,.82,.37,1.07,.37s.44-.15,.54-.44c.12-.36,.23-.84,.32-1.45,.09-.57,.13-1.02,.13-1.36,0-.38-.05-.62-.15-.73s-.34-.17-.73-.17c-.02,0-.09,0-.22,.01-.82,2.38-1.69,4.42-2.59,6.1l-1.79-.76c.98-1.56,1.8-3.24,2.46-5.05-.75,.16-1.4,.34-1.93,.53l-.48-1.73c1.02-.25,2.01-.46,2.99-.62,.26-.97,.47-1.88,.61-2.72l1.91,.29c-.13,.46-.34,1.2-.62,2.22h.06c.82,0,1.4,.16,1.75,.49,.38,.36,.56,.99,.56,1.9Zm3.94,1.03l-1.7,.86c-.5-1.56-1.21-2.83-2.12-3.82l1.57-.89c1.02,1.13,1.78,2.41,2.26,3.84Z"/><path class="e" d="M101.94,57.68c0,1.02-.34,1.82-1.03,2.42-.64,.55-1.45,.83-2.42,.83-1.06,0-1.89-.29-2.48-.86-.59-.57-.88-1.38-.88-2.43,0-.33,0-.58,.02-.76-1.08-.42-1.69-1.08-1.82-1.98l1.43-1.03c0,.51,.23,.9,.71,1.18,.09-.39,.23-.9,.42-1.52-.94-.12-1.88-.2-2.8-.23l.76-1.69c.79,.02,1.65,.1,2.58,.24,.16-.45,.4-1.1,.71-1.97l1.94,.49c-.86,1.78-1.47,3.5-1.85,5.14,.37,.02,.77,.02,1.21-.02l.2,1.79c-.59,.05-1.15,.05-1.68,.01v.14c0,1.1,.47,1.66,1.42,1.66,.5,0,.89-.16,1.16-.49,.25-.3,.37-.69,.37-1.18,0-.42-.1-.86-.31-1.34s-.48-.88-.8-1.22l2.02-.22c.75,.85,1.13,1.86,1.13,3.04Z"/><path class="e" d="M115.64,55.92c0,1.34-.45,2.44-1.34,3.28-.84,.78-2,1.28-3.47,1.49l-.86-1.66c1.15-.15,2.05-.48,2.69-1,.7-.55,1.04-1.28,1.04-2.17s-.46-1.47-1.38-1.84c-.39,.96-.81,1.82-1.26,2.58,.17,.1,.36,.21,.56,.31l-1.07,1.28c-.18-.08-.32-.16-.44-.23-.9,1.07-1.84,1.61-2.84,1.61-.54,0-.98-.2-1.34-.59-.39-.42-.59-1-.59-1.72,0-1.3,.54-2.44,1.62-3.42-.33-.78-.61-1.62-.85-2.52l1.69-.7c.13,.74,.33,1.48,.6,2.24,.88-.44,1.78-.67,2.71-.7,.18-.62,.34-1.28,.49-1.98l1.85,.64c-.17,.52-.34,1.05-.53,1.58,.82,.26,1.48,.68,1.96,1.26,.51,.62,.77,1.37,.77,2.23Zm-6.84,.97c-.36-.39-.72-.91-1.09-1.55-.46,.56-.68,1.1-.68,1.62s.16,.74,.48,.74c.38,0,.82-.27,1.3-.82Zm1.76-3.1c-.56,.06-1.09,.22-1.6,.5,.22,.44,.49,.84,.8,1.2,.29-.51,.55-1.08,.79-1.7Z"/></g></svg>