<?xml version="1.0" encoding="UTF-8"?><svg id="a" xmlns="http://www.w3.org/2000/svg" viewBox="0 0 50.62 1252.14"><defs><style>.cls-1{fill:#ab1f24;}</style></defs><path class="cls-1" d="M1.06,1024.07H49.05v16l-28.61,10.21c-3.2,1.17-6.52,2.03-9.85,2.77v.55c7.88-.8,18.95-1.17,25.66-1.17h12.8v9.97H1.06v-15.99l28.61-10.21c3.2-1.17,6.52-2.09,9.84-2.83v-.55c-7.94,.8-16.36,1.23-24.36,1.23H1.06v-9.97h0Z"/><path class="cls-1" d="M49.05,994.91v11.38H1.06v-11.38H49.05Z"/><path class="cls-1" d="M33.18,968.88c5.42-.8,8.37-3.26,8.37-8.37,0-2.89-1.47-5.05-4.55-5.05-3.45,0-4.8,2.09-7.45,9.66-3.08,8.74-7.32,13.23-14.64,13.23-9.04,0-14.46-6.4-14.46-16.12s4.92-15.87,14.09-17.23l2.28,10.95c-5.78,.43-8.8,2.71-8.8,6.77,0,3.14,1.97,4.86,4.92,4.86,3.26,0,4.98-2.28,7.2-9.17,3.26-10.21,7.07-14.52,14.95-14.52,8.92,0,14.65,6.46,14.65,17.29s-5.11,17.72-15.13,19.01l-1.42-11.32h0Z"/><path class="cls-1" d="M1.06,890.43H49.05v11.38H29.05v16h20v11.38H1.06v-11.38H20.13v-16H1.06v-11.38Z"/><path class="cls-1" d="M49.05,861.27v11.38H1.06v-11.38H49.05Z"/><path class="cls-1" d="M13.98,810.32c2.71,0,5.11,.18,7.82,.43v-.25c-2.65-1.54-5.42-3.32-7.82-5.17l-12.92-10.21v-13.84l19.93,18.03,28.06-18.09v13.72l-19.93,11.81,3.94,3.57h15.99v11.2H1.06v-11.2H13.98Z"/><path class="cls-1" d="M33.48,748.06h15.57v11.44h-15.57l-32.42,15.63v-12.31l16.3-7.57c1.72-.8,3.51-1.48,5.29-2.16-1.85-.61-3.44-1.29-5.29-2.09l-16.3-6.89v-11.69l32.42,15.63h0Z"/><path class="cls-1" d="M1.06,680.19H31.82c12.37,0,17.85,8,17.85,19.38s-5.48,19.38-17.85,19.38H1.06v-11.38H31.33c7.26,0,10.28-3.32,10.28-8s-3.02-8-10.28-8H1.06v-11.38Z"/><path class="cls-1" d="M33.18,654.16c5.42-.8,8.37-3.26,8.37-8.37,0-2.89-1.47-5.05-4.55-5.05-3.45,0-4.8,2.09-7.45,9.66-3.08,8.74-7.32,13.23-14.64,13.23-9.04,0-14.46-6.4-14.46-16.12s4.92-15.87,14.09-17.23l2.28,10.95c-5.78,.43-8.8,2.71-8.8,6.77,0,3.14,1.97,4.86,4.92,4.86,3.26,0,4.98-2.28,7.2-9.17,3.26-10.21,7.07-14.52,14.95-14.52,8.92,0,14.65,6.46,14.65,17.29s-5.11,17.72-15.13,19.01l-1.42-11.32h0Z"/><path class="cls-1" d="M1.06,575.72H49.05v11.38H29.05v16h20v11.38H1.06v-11.38H20.13v-16H1.06v-11.38Z"/><path class="cls-1" d="M1.06,519.17H31.82c12.37,0,17.85,8,17.85,19.38s-5.48,19.38-17.85,19.38H1.06v-11.38H31.33c7.26,0,10.28-3.32,10.28-8s-3.02-8-10.28-8H1.06v-11.38Z"/><path class="cls-1" d="M33.18,471.18c5.42-.8,8.37-3.26,8.37-8.37,0-2.89-1.47-5.05-4.55-5.05-3.45,0-4.8,2.09-7.45,9.66-3.08,8.74-7.32,13.23-14.64,13.23-9.04,0-14.46-6.4-14.46-16.12s4.92-15.87,14.09-17.23l2.28,10.95c-5.78,.43-8.8,2.71-8.8,6.77,0,3.14,1.97,4.86,4.92,4.86,3.26,0,4.98-2.28,7.2-9.17,3.26-10.21,7.07-14.52,14.95-14.52,8.92,0,14.65,6.46,14.65,17.29s-5.11,17.72-15.13,19.01l-1.42-11.32h0Z"/><path class="cls-1" d="M1.06,392.73H49.05v11.38H29.05v16h20v11.38H1.06v-11.38H20.13v-16H1.06v-11.38Z"/><path class="cls-1" d="M49.05,363.57v11.38H1.06v-11.38H49.05Z"/><path class="cls-1" d="M1.06,307.46H49.05v15.99l-28.61,10.21c-3.2,1.17-6.52,2.03-9.85,2.77v.55c7.88-.8,18.95-1.17,25.66-1.17h12.8v9.97H1.06v-15.99l28.61-10.21c3.2-1.17,6.52-2.09,9.84-2.83v-.55c-7.94,.8-16.36,1.23-24.36,1.23H1.06v-9.97Z"/><path class="cls-1" d="M13.98,278.48c2.71,0,5.11,.18,7.82,.43v-.24c-2.65-1.54-5.42-3.32-7.82-5.17l-12.92-10.21v-13.84l19.93,18.03,28.06-18.09v13.72l-19.93,11.81,3.94,3.57h15.99v11.2H1.06v-11.2H13.98Z"/><path class="cls-1" d="M49.05,199.97v11.38l-11.26,2.77v14.71l11.26,2.71v10.52L1.06,229.81v-17.53s47.99-12.31,47.99-12.31Zm-35.07,19.93c-2.15,.56-4.37,1.05-6.58,1.35v.31c2.22,.37,4.43,.86,6.58,1.41l15.2,3.75v-10.52l-15.2,3.69h0Z"/><path class="cls-1" d="M1.06,148.16H49.05v15.99l-28.61,10.21c-3.2,1.17-6.52,2.03-9.85,2.77v.55c7.88-.8,18.95-1.17,25.66-1.17h12.8v9.97H1.06v-15.99l28.61-10.21c3.2-1.17,6.52-2.09,9.84-2.83v-.55c-7.94,.8-16.36,1.23-24.36,1.23H1.06v-9.97Z"/><path class="cls-1" d="M33.18,122.13c5.42-.8,8.37-3.26,8.37-8.37,0-2.89-1.47-5.04-4.55-5.04-3.45,0-4.8,2.09-7.45,9.66-3.08,8.74-7.32,13.23-14.64,13.23-9.04,0-14.46-6.4-14.46-16.12s4.92-15.87,14.09-17.23l2.28,10.95c-5.78,.43-8.8,2.71-8.8,6.77,0,3.14,1.97,4.86,4.92,4.86,3.26,0,4.98-2.28,7.2-9.17,3.26-10.21,7.07-14.52,14.95-14.52,8.92,0,14.65,6.46,14.65,17.29s-5.11,17.72-15.13,19.01l-1.42-11.32h0Z"/><path class="cls-1" d="M40.74,53.04h8.31v29.41H1.06v-28.86H9.37v17.78h11.38v-15.99h8v15.99h12v-18.33h0Z"/><path class="cls-1" d="M1.06,0H49.05V16l-28.61,10.21c-3.2,1.17-6.52,2.03-9.85,2.77v.56c7.88-.8,18.95-1.17,25.66-1.17h12.8v9.97H1.06v-15.99L29.67,12.12c3.2-1.17,6.52-2.09,9.84-2.83v-.55c-7.94,.8-16.36,1.23-24.36,1.23H1.06V0Z"/></svg>