<?xml version="1.0" encoding="utf-8"?>
<!-- Generator: Adobe Illustrator 26.5.0, SVG Export Plug-In . SVG Version: 6.00 Build 0)  -->
<svg version="1.1" id="a" xmlns="http://www.w3.org/2000/svg" xmlns:xlink="http://www.w3.org/1999/xlink" x="0px" y="0px"
	 viewBox="0 0 198.4 143.5" style="enable-background:new 0 0 198.4 143.5;" xml:space="preserve">
<style type="text/css">
	.st0{fill:#C30D23;}
</style>
<g id="b">
	<path id="c" class="st0" d="M193.4,55.2c-0.2-0.6-0.4-1.2-0.5-1.7c-0.5-1.6-1.2-3.1-2.2-4.5c0,0,0-0.1,0-0.1
		c-2.9-4.6-8.4-7.4-12.6-9.5c-0.4-0.2-0.8-0.4-1.1-0.6c-5.3-2.9-8.5-2.8-15.5-1c-5.4,1.4-14.1-1.2-16.4-1.9
		c-0.1-1.9-0.4-7.8-0.9-11.6c-0.6-5.2-1.8-7.9-3.9-9.5c-2-1.4-10.4-2.5-12.9-2.8c-1-2.9-3-5.2-5.7-6.7c-3-1.7-6.2-2.9-9.5-3.6
		c-8.4-2.1-17.2-2.1-25.6,0c-3.3,0.7-6.6,1.9-9.5,3.6c-2.7,1.4-4.7,3.8-5.7,6.7c-2.5,0.3-10.9,1.3-12.9,2.8c-2.2,1.6-3.3,4.3-4,9.5
		c-0.5,3.8-0.8,9.8-0.9,11.6c-2.3,0.7-10.9,3.3-16.3,1.9c-7-1.8-10.2-1.9-15.5,1c-0.4,0.2-0.7,0.4-1.1,0.6
		c-4.3,2.2-9.8,4.9-12.6,9.5c0,0,0,0.1,0,0.1c-1,1.4-1.7,2.9-2.2,4.5c-0.2,0.5-0.3,1.1-0.5,1.7c-2.6,8.3-6.8,22.1-4.3,36.5
		c0.2,3.1,0.7,6.2,1.4,9.2c1.4,6.6,4.2,12.7,8.1,18.2c3.5,4.8,7.7,9.1,12.5,12.5c3.4,2.4,7.3,4,11.4,4.9c0.6,0.1,1.2,0.3,2,0.4
		c8.7,2,29.2,6.6,63.1,6.6s54.3-4.6,63.1-6.6c0.8-0.2,1.4-0.3,2-0.4c4.1-0.9,7.9-2.6,11.4-4.9c4.8-3.5,9.1-7.7,12.5-12.5
		c3.9-5.4,6.6-11.6,8.1-18.2c0.7-3,1.2-6.1,1.4-9.2C200.1,77.3,195.9,63.4,193.4,55.2 M195.8,91.4c0,0,0,0.1,0,0.1c0,0,0,0.4-0.1,1
		c-6.4,1.8-12.9,3-19.5,3.4c-10.8,0.8-46.7,3.3-65.4,4.5c-1.5,4.3-4.3,9.5-9.4,12.4c-1.4,0.8-3.1,0.8-4.5,0
		c-5.1-2.9-7.9-8.1-9.4-12.4c-18.8-1.3-54.6-3.7-65.4-4.5C15.5,95.5,9,94.3,2.6,92.5c0-0.6-0.1-0.9-0.1-1c0,0,0-0.1,0-0.1
		C0.1,77.4,4.3,63.8,6.8,55.6c0.2-0.6,0.4-1.2,0.5-1.7c0.3-1.1,0.8-2.1,1.4-3.1c0.9,0.8,2.1,1.3,3.4,1.4c1.6,0.2,5.1,0.8,6.9,1.2
		c3,0.7,6.2,0.7,9.2,0.1c3.6-0.9,7.8-9.5,8.3-10.8s1-2.1,0.4-3.1c0-0.1-0.1-0.2-0.2-0.2c1.3,0.3,2.7,0.5,4.1,0.4
		c6.3,0,13.4-2.5,13.8-2.6c0.3-0.1,0.6-0.4,0.6-0.8c0-0.1,0.4-7.6,0.9-12.1c0.6-4.7,1.5-7.1,3.3-8.3c1.4-1,8.3-2,12.5-2.5l-0.7,3.1
		c-2.3,1-8,5.3-6.6,6.5s4.4,0,10.2-1.5c4-1,13.7-2,19.4-2.5c3-0.3,6-0.3,9.1,0c6,0.5,16.4,1.5,20.5,2.5c5.9,1.5,8.9,2.7,10.2,1.5
		s-4.4-5.5-6.6-6.5l-0.7-3.1c4.2,0.4,11.1,1.5,12.5,2.5c1.7,1.3,2.7,3.7,3.3,8.3c0.6,4.5,0.9,12,0.9,12.1c0,0.3,0.3,0.7,0.6,0.8
		c0.4,0.2,11,3.8,17.9,2.2c-0.1,0.1-0.1,0.1-0.1,0.2c-0.6,1-0.1,1.9,0.4,3.1s4.6,9.8,8.3,10.8c3,0.7,6.2,0.6,9.2-0.1
		c1.9-0.4,5.3-1,6.9-1.2c1.2,0,2.4-0.5,3.4-1.4c0.6,1,1.1,2,1.4,3.1c0.2,0.5,0.3,1.1,0.5,1.7C194.1,63.8,198.3,77.4,195.8,91.4"/>
	<path id="d" class="st0" d="M99.2,112c-0.6,0-1.2-0.2-1.7-0.4c-7.3-4.2-9.8-13.5-10.5-17.3c-0.2-0.9,0.1-1.9,0.7-2.7
		c2.6-3.2,6.5-5.1,10.6-5.2c0.2,0,0.3,0,0.5,0c0.1,0,0.2,0,0.3,0s0.2,0,0.3,0c0.2,0,0.3,0,0.5,0c4.1,0.1,8,2,10.6,5.2
		c0.6,0.7,0.9,1.7,0.7,2.7c-0.7,3.8-3.2,13-10.5,17.3C100.3,111.9,99.8,112,99.2,112"/>
</g>
<g>
	<path class="st0" d="M65.5,54.4h-6.9v0.7h-2v-8.4h2.9v-1.2H56v-1.9h12.1v1.9h-3.7v1.2h3.1v8.4h-2V54.4z M58.5,52.6h6.9v-1h-1.8
		c-0.5,0-0.9-0.1-1.1-0.2c-0.2-0.1-0.3-0.4-0.3-0.9v-2h-0.9c0,0.8-0.1,1.4-0.2,1.9c-0.1,0.6-0.4,1.2-0.7,1.8l-1.9-0.7
		c0.6-0.7,0.9-1.7,1.1-3h-1.1C58.5,48.5,58.5,52.6,58.5,52.6z M61.4,46.7h0.9v-1.2h-0.9V46.7z M65.5,49.9v-1.4h-1.3v1
		c0,0.2,0,0.3,0.1,0.3c0,0,0.1,0,0.3,0L65.5,49.9L65.5,49.9z"/>
	<path class="st0" d="M75.9,47.8c-0.1,1.8-0.4,3.3-0.9,4.4c-0.6,1.3-1.7,2.4-3.3,3.2l-1.6-1.6c1.5-0.7,2.5-1.5,3-2.5
		c0.4-0.8,0.7-2,0.7-3.5h-3.3v-1.9h3.3v-2.6h2.1v2.6h4v6.9c0,0.2,0,0.2,0.1,0.3c0.1,0,0.1,0,0.2,0h0.3c0.2,0,0.4-0.2,0.4-0.6
		c0-0.2,0.1-0.9,0.1-2l1.9,0.8c-0.1,1.2-0.1,2-0.2,2.3c-0.1,0.6-0.3,0.9-0.6,1.1c-0.3,0.2-0.8,0.3-1.6,0.3h-0.9
		c-0.7,0-1.1-0.1-1.4-0.3c-0.3-0.2-0.4-0.7-0.4-1.4v-5.7L75.9,47.8L75.9,47.8z"/>
	<path class="st0" d="M86.5,46.9c-0.2,1.4-0.4,2.6-0.8,3.6l-1.5-0.9c0.3-1,0.6-2.1,0.8-3.3L86.5,46.9z M88.6,48.9
		c0,1.4-0.1,2.5-0.4,3.4c-0.3,1-0.8,2.1-1.6,3.1l-1.9-1.1c0.7-0.9,1.2-1.7,1.5-2.5c0.3-0.8,0.4-1.9,0.4-3.2v-5.2h2V47l0.9-0.7
		c0.3,0.5,0.6,1.1,0.9,1.7v-4.1h2v2.9l0.9-0.7c0.4,0.6,0.7,1.2,1,1.9v-4.6h2.1v11.8h-2.1v-5.7l-0.8,0.7c-0.3-0.9-0.7-1.7-1.1-2.5
		v6.9h-2v-4.8l-0.8,0.6c-0.3-0.9-0.6-1.7-1-2.5C88.6,47.8,88.6,48.9,88.6,48.9z"/>
	<path class="st0" d="M101.3,52.9c-0.5,0.6-1,1.1-1.5,1.5l-1.1-1.6c0.9-0.7,1.6-1.4,2.2-2.1h-1.8v-1.7h2.1v-0.6h-2.2v-1.7h1.1
		c-0.1-0.3-0.2-0.7-0.3-1.1h-0.6v-1.6h2v-0.9h2v0.9h1.9v1.6h-0.6c-0.1,0.4-0.2,0.8-0.3,1.1h1v1.7h-2v0.6h1.9v1.7h-1.8
		c0.5,0.4,1.1,0.9,1.9,1.4l-1,1.5c-0.3-0.2-0.6-0.5-1-0.8v2.5h-1.9L101.3,52.9L101.3,52.9z M102.9,45.7h-1.1
		c0.1,0.3,0.2,0.7,0.3,1.1h0.5C102.7,46.5,102.8,46.1,102.9,45.7L102.9,45.7z M111.4,48.9h-1v6.4h-1.9v-6.4h-0.9
		c0,2.4-0.3,4.5-0.9,6.3l-2-0.9c0.4-1,0.7-1.9,0.8-2.8c0.1-0.8,0.2-1.9,0.2-3.3v-4.1c1.7-0.2,3.2-0.5,4.3-0.9l1.2,1.7
		c-1.1,0.4-2.3,0.7-3.7,0.9V47h3.8L111.4,48.9L111.4,48.9z"/>
	<path class="st0" d="M119.5,53.7h-2v1.5h-1.8v-1.5h-2.3V52h2.3v-0.5h-1.8v-5.2h1.8v-0.5h-2.1v-1.6h2.1v-1h1.8v1h1.9v1.6h-1.9v0.5
		h1.7v0.2c0.9-0.9,1.7-2,2.2-3.4h2.2c0.6,1.4,1.4,2.7,2.6,3.7l-1.1,1.7l-0.2-0.2v0.5h-1.3v1.1h2.1v1.9h-2.1v3.5h-1.9v-3.5h-2.1v-1.9
		h2.1v-1.1h-1.3v-0.5c-0.1,0.1-0.2,0.2-0.2,0.2l-0.8-1.2v4.1h-1.7V52h2L119.5,53.7L119.5,53.7z M117.5,48.3v-0.5h-1.9v0.5H117.5z
		 M117.5,50.1v-0.5h-1.9v0.5H117.5z M121.3,47h2.4c-0.5-0.7-0.9-1.3-1.2-2C122.1,45.7,121.8,46.3,121.3,47z"/>
	<path class="st0" d="M129.6,51c-0.1,1.3-0.4,2.6-0.7,3.7l-1.3-0.8c0.3-0.9,0.5-2,0.7-3.2C128.2,50.7,129.6,51,129.6,51z
		 M137.5,43.2c-0.1,0.4-0.2,0.7-0.3,0.9h2.5v5.2h-2.4v0c0.1,0.5,0.3,1,0.6,1.4c0.4-0.5,0.8-1,1-1.4l1.3,1c-0.4,0.7-0.9,1.3-1.4,1.8
		c0.4,0.5,0.9,1,1.5,1.5l-1.1,1.6c-0.8-0.8-1.4-1.5-1.9-2.3v1.1c0,0.6-0.1,1-0.3,1.2s-0.5,0.3-0.9,0.3h-1.3l-0.5-1.7
		c-0.3,0.5-0.7,1-1.1,1.5l-1.1-1.4l-0.4,0.2c-0.2-0.9-0.4-1.9-0.5-2.9v4.5h-1.8v-5c-0.6,0.1-1.2,0.1-1.8,0.1l-0.2-1.7
		c0.3,0,0.6,0,0.8,0c0.2-0.2,0.4-0.5,0.7-0.9c-0.5-0.6-1-1.2-1.6-1.7l1-1.8c0.2,0.2,0.3,0.3,0.4,0.4c0.3-0.6,0.6-1.2,0.9-1.9
		l1.6,0.7c-0.4,0.8-0.9,1.6-1.5,2.4l0.3,0.4c0.5-0.6,0.9-1.3,1.3-2.1l1.6,0.7V44h2c0.1-0.3,0.2-0.6,0.3-1.1L137.5,43.2L137.5,43.2z
		 M130.5,48.7c0.4,0,0.7-0.1,1-0.1c-0.1-0.2-0.2-0.4-0.3-0.8L130.5,48.7z M131.4,50.1v0.8l1.2-0.4c0.1,0.9,0.2,1.6,0.4,2.2
		c0.5-0.5,0.8-1.1,1-1.6h-1v-0.9l-0.9,0.3l-0.1-0.4C131.7,50.1,131.5,50.1,131.4,50.1L131.4,50.1z M135.3,51.5
		c-0.2,0.7-0.5,1.3-0.9,2h0.8c0.2,0,0.3,0,0.3-0.1c0.1-0.1,0.1-0.2,0.1-0.4v-3.8h-2.5v-4.1c-0.5,0.7-1,1.5-1.7,2.4l0.9-0.3
		c0.3,0.6,0.6,1.5,0.9,2.5h2.1L135.3,51.5L135.3,51.5z M137.9,46.1v-0.5H135v0.5H137.9z M137.9,47.8v-0.5H135v0.5H137.9z"/>
</g>
<g>
	<path class="st0" d="M85.4,66c0,0.6-0.1,1.5-0.2,2.5c-0.1,1-0.3,1.7-0.5,2.2c-0.2,0.6-0.4,0.9-0.7,1.2s-0.6,0.3-1.1,0.3
		c-0.6,0-1.2-0.2-2-0.5l0-2.1c0.5,0.3,0.9,0.4,1.2,0.4c0.3,0,0.5-0.2,0.6-0.5c0.1-0.4,0.3-0.9,0.4-1.6c0.1-0.6,0.1-1.1,0.1-1.5
		c0-0.4-0.1-0.7-0.2-0.8s-0.4-0.2-0.8-0.2c0,0-0.1,0-0.2,0c-0.9,2.7-1.9,4.9-2.9,6.8l-2-0.9c1.1-1.7,2-3.6,2.8-5.7
		c-0.8,0.2-1.6,0.4-2.2,0.6l-0.5-1.9c1.1-0.3,2.3-0.5,3.3-0.7c0.3-1.1,0.5-2.1,0.7-3l2.1,0.3c-0.1,0.5-0.4,1.3-0.7,2.5h0.1
		c0.9,0,1.6,0.2,2,0.5C85.2,64.3,85.4,65,85.4,66L85.4,66z M89.8,67.1l-1.9,1c-0.6-1.7-1.4-3.2-2.4-4.3l1.8-1
		C88.4,64.1,89.3,65.5,89.8,67.1L89.8,67.1z"/>
	<path class="st0" d="M102.4,68.9c0,1.1-0.4,2-1.2,2.7c-0.7,0.6-1.6,0.9-2.7,0.9c-1.2,0-2.1-0.3-2.8-1c-0.7-0.6-1-1.5-1-2.7
		c0-0.4,0-0.6,0-0.9c-1.2-0.5-1.9-1.2-2-2.2l1.6-1.2c0,0.6,0.3,1,0.8,1.3c0.1-0.4,0.3-1,0.5-1.7c-1.1-0.1-2.1-0.2-3.1-0.3l0.9-1.9
		c0.9,0,1.8,0.1,2.9,0.3c0.2-0.5,0.4-1.2,0.8-2.2l2.2,0.5c-1,2-1.6,3.9-2.1,5.8c0.4,0,0.9,0,1.4,0l0.2,2c-0.7,0.1-1.3,0.1-1.9,0v0.2
		c0,1.2,0.5,1.9,1.6,1.9c0.6,0,1-0.2,1.3-0.5c0.3-0.3,0.4-0.8,0.4-1.3c0-0.5-0.1-1-0.3-1.5c-0.2-0.5-0.5-1-0.9-1.4l2.3-0.2
		C102,66.4,102.4,67.6,102.4,68.9L102.4,68.9z"/>
	<path class="st0" d="M117.7,66.9c0,1.5-0.5,2.7-1.5,3.7c-0.9,0.9-2.2,1.4-3.9,1.7l-1-1.9c1.3-0.2,2.3-0.5,3-1.1
		c0.8-0.6,1.2-1.4,1.2-2.4c0-1-0.5-1.6-1.5-2.1c-0.4,1.1-0.9,2-1.4,2.9c0.2,0.1,0.4,0.2,0.6,0.3l-1.2,1.4c-0.2-0.1-0.4-0.2-0.5-0.3
		c-1,1.2-2.1,1.8-3.2,1.8c-0.6,0-1.1-0.2-1.5-0.7c-0.4-0.5-0.7-1.1-0.7-1.9c0-1.5,0.6-2.7,1.8-3.8c-0.4-0.9-0.7-1.8-1-2.8L109,61
		c0.1,0.8,0.4,1.7,0.7,2.5c1-0.5,2-0.8,3-0.8c0.2-0.7,0.4-1.4,0.5-2.2l2.1,0.7c-0.2,0.6-0.4,1.2-0.6,1.8c0.9,0.3,1.7,0.8,2.2,1.4
		C117.5,65.1,117.7,65.9,117.7,66.9L117.7,66.9z M110.1,68c-0.4-0.4-0.8-1-1.2-1.7c-0.5,0.6-0.8,1.2-0.8,1.8c0,0.6,0.2,0.8,0.5,0.8
		C109.1,68.9,109.5,68.6,110.1,68L110.1,68z M112,64.5c-0.6,0.1-1.2,0.2-1.8,0.6c0.2,0.5,0.5,0.9,0.9,1.3
		C111.5,65.9,111.8,65.2,112,64.5L112,64.5z"/>
</g>
</svg>
