<?xml version="1.0" encoding="UTF-8"?><svg id="a" xmlns="http://www.w3.org/2000/svg" viewBox="0 0 165.99 166.01"><defs><style>.u{fill:#a67f4c;}</style></defs><g id="b"><path id="c" class="u" d="M0,20.03v20.03H40.07V0H0V20.03Zm34.34,0v14.31H5.72V5.72h28.62v14.31Z"/><path id="d" class="u" d="M11.45,20.03v8.59H28.62V11.45H11.45v8.58Z"/><path id="e" class="u" d="M51.51,2.86v2.86h11.45v5.72h-11.45v5.72h-5.72v11.45h5.72v5.72h-5.72v5.72h5.72v11.45h-5.72v-5.72H28.62v5.72H11.45v-5.72H0v5.72H5.72v5.72H0v5.72H11.45v-5.72h5.72v22.9h5.73v-5.72h17.17v5.72h-11.45v5.72h11.44v5.72H22.9v-5.72h-5.72v5.72h-5.72v-5.72H5.73v-5.72H0v40.07H5.72v-11.45h5.72v5.72h5.72v-11.45h11.45v5.72h11.44v5.72H22.9v5.72h22.89v17.17h11.45v5.72h-5.72v11.46h-5.72v11.45h22.9v-11.45h5.72v-5.72h-17.18v-5.72h22.9v-11.45h5.72v28.62h5.72v-11.45h5.72v-11.45h-5.72v-5.72h5.72v-5.72h5.72v5.72h5.72v11.45h-5.72v11.45h5.72v-5.72h5.72v-5.72h5.72v17.17h5.72v5.72h5.72v-5.72h5.72v-5.72h5.73v5.72h5.72v5.72h5.72v-11.45h5.72v5.72h5.72v-5.72h-5.72v-5.72h5.72v-11.45h-5.72v-5.72h-5.72v-5.72h-5.72v-5.72h17.17v-5.72h-17.17v5.72h-5.72v-11.45h5.72v-5.72h11.45v5.72h5.72v-11.45h-11.44v-17.17h11.44v-11.45h-5.72v5.72h-5.72v5.72h-11.45v-5.72h-11.45v-5.72h17.17v-5.72h-5.73v-11.45h5.72v5.72h11.45v-5.72h-11.45v-5.72h-11.45v5.72h-5.72v5.72h5.72v5.72h-11.45v-11.45h-5.73v5.72h-5.72v-11.45h5.72v-11.44h-5.72v5.72h-5.72v-11.44h5.72v-5.72h5.72V5.72h-5.72v11.45h-5.72v11.45h-17.17v-11.45h5.72v5.72h5.72v-5.72h-5.72v-5.72h-5.72V0h-17.17V5.72h-5.72V0h-17.17V2.86Zm34.35,5.72v2.86h5.72v5.72h-5.72v-5.72h-5.72v11.45h-11.45v5.72h5.72v5.72h5.72v5.72h5.72v-11.44h5.72v11.44h5.72v-5.72h5.72v5.72h5.72v11.45h-5.72v11.45h5.72v-5.72h5.72v11.45h-5.72v5.72h-11.45v5.72h5.72v11.45h5.72v5.72h-5.72v5.72h-5.72v5.72h11.45v11.45h5.72v5.72h-11.45v-11.45h-5.72v11.45h-5.72v-5.72h-5.72v5.72h-5.72v-5.72h-11.45v5.72h5.72v5.73h-5.72v5.72h-11.45v-5.72h-5.72v-11.45h-5.72v-5.72h5.72v-11.45h5.72v5.72h5.72v-40.07h5.72v-5.72h5.72v-5.72h-11.45v5.72h-5.72v5.72H22.9v-5.72h17.17v-5.72h-11.45v-5.72h17.17v11.45h11.45v-5.72h-5.72v-5.72h5.72v5.72h5.72v-11.45h-5.72v-5.72h-5.72v-5.72h5.72v5.72h5.72V22.9h5.72V11.45h5.72V5.72h11.45v2.85Zm-28.62,14.31v5.72h-5.72v-11.44h5.72v5.72Zm68.69,48.66v2.86h-5.73v-5.73h5.72v2.87Zm-68.69,5.72v2.86h-5.72v5.72h-11.45v-5.72h11.45v-5.72h5.72v2.87Zm74.42,5.72v2.86h17.17v5.72h-5.73v5.72h5.72v5.72h-5.72v-5.72h-17.17v5.72h11.45v11.45h-11.45v-5.73h-5.73v-11.45h-5.72v-11.45h-5.72v-5.72h22.9v2.87ZM11.45,94.45v2.86h5.72v-5.72h5.73v5.72h-5.72v5.72H5.72v-11.45h5.72v2.86Zm45.79,0v2.86h-5.72v-5.72h5.72v2.86Zm-17.17,5.72v2.86h-11.45v-5.72h11.44v2.86Zm97.31,28.62v8.59h-17.18v-17.17h17.17v8.59Zm17.18,8.59v5.72h5.72v5.72h-5.72v-5.72h-5.72v-5.72h-5.73v-5.72h11.45v5.72Zm-11.45,8.58v2.86h-17.17v-5.72h17.17v2.86Zm-80.14,11.45v2.86h-11.45v-5.72h11.45v2.85Z"/><path id="f" class="u" d="M68.69,42.93v8.58h5.73v-5.72h5.72v11.45h5.72v-5.72h5.72v-5.72h-11.45v-5.73h-5.72v-5.72h-5.72v8.59Z"/><path id="g" class="u" d="M97.31,48.65v2.86h5.72v-5.72h-5.72v2.86Z"/><path id="h" class="u" d="M80.13,65.83v2.86h-5.72v5.72h-5.72v5.72h5.72v5.72h-5.72v11.45h5.72v-5.72h5.72v5.72h5.73v5.72h-17.17v5.72h-5.73v11.45h5.72v-11.45h11.45v5.72h17.17v-5.72h-5.72v-5.72h5.72v-5.72h5.72v-5.72h-5.72v5.72h-11.44v-11.45h11.45v-5.72h-11.45v-11.45h5.72v5.72h5.72v-11.45h-17.17v2.86Z"/><path id="i" class="u" d="M51.51,117.34v2.86h5.72v-5.73h-5.72v2.86Z"/><path id="j" class="u" d="M57.24,128.79v2.86h5.72v-5.72h-5.72v2.86Z"/><path id="k" class="u" d="M120.2,91.58v5.72h5.72v-5.72h5.72v-5.72h-11.45v5.72Z"/><path id="l" class="u" d="M125.92,128.79v2.86h5.72v-5.72h-5.72v2.86Z"/><path id="m" class="u" d="M103.03,5.72v5.72h5.72V0h-5.72V5.72Z"/><path id="n" class="u" d="M125.92,20.03v20.03h40.07V0h-40.07V20.03Zm34.35,0v14.31h-28.62V5.72h28.62v14.31Z"/><path id="o" class="u" d="M137.38,20.03v8.59h17.17V11.45h-17.17v8.58Z"/><path id="p" class="u" d="M0,71.55v2.86H11.45v-5.72H0v2.86Z"/><path id="q" class="u" d="M160.27,88.72v2.86h5.72v-5.72h-5.72v2.86Z"/><path id="r" class="u" d="M0,145.96v20.04H40.07v-40.07H0v20.03Zm34.34,0v14.31H5.72v-28.62h28.62v14.31Z"/><path id="s" class="u" d="M11.45,145.96v8.59H28.62v-17.17H11.45v8.58Z"/><path id="t" class="u" d="M97.31,163.14v2.86h17.17v-5.72h-17.17v2.86Z"/></g></svg>