<?xml version="1.0" encoding="UTF-8"?><svg id="a" xmlns="http://www.w3.org/2000/svg" viewBox="0 0 67.77 81.01"><defs><style>.e{fill:#b81c25;}</style></defs><g id="b"><g id="c"><path id="d" class="e" d="M33.66,81.01c-8.96-9.25-18.58-17.84-26.54-27.77C-1.79,42.14-2.15,29.2,5.01,16.88,11.3,4.92,24.51-1.71,37.86,.38c12.64,1,23.45,9.46,27.47,21.48,4.93,11.79,2.24,25.38-6.8,34.4-7.84,8.43-16.31,16.28-24.87,24.74Zm.36-30.35c9.54,.03,17.3-7.67,17.34-17.21v-.15c-.08-9.59-7.84-17.33-17.43-17.38-9.59,.11-17.31,7.89-17.34,17.47,.02,9.55,7.77,17.28,17.32,17.26,.04,0,.08,0,.12,0h0Z"/></g></g></svg>