<?xml version="1.0" encoding="utf-8"?>
<!-- Generator: Adobe Illustrator 26.3.1, SVG Export Plug-In . SVG Version: 6.00 Build 0)  -->
<svg version="1.1" id="a" xmlns="http://www.w3.org/2000/svg" xmlns:xlink="http://www.w3.org/1999/xlink" x="0px" y="0px"
	 viewBox="0 0 669.4 845.5" style="enable-background:new 0 0 669.4 845.5;" xml:space="preserve">
<style type="text/css">
	.st0{fill:#FEF0DB;}
	.st1{fill:none;stroke:#C9BC9C;stroke-width:1.5;stroke-linecap:round;stroke-linejoin:round;}
	.st2{fill:none;stroke:#EE7800;stroke-width:2.4;stroke-linecap:round;stroke-linejoin:round;}
	.st3{fill:none;stroke:#E60012;stroke-width:4.14;stroke-miterlimit:10;}
	.st4{fill:none;stroke:#00A0E9;stroke-width:2.4;stroke-miterlimit:10;}
	.st5{fill:none;stroke:#B0BFC8;stroke-width:2.76;stroke-miterlimit:10;}
	.st6{fill:none;stroke:#00A0E9;stroke-width:2.76;stroke-miterlimit:10;}
	.st7{fill-rule:evenodd;clip-rule:evenodd;fill:#E60012;}
	.st8{fill:#E60012;}
	.st9{fill:#F08300;}
	.st10{fill-rule:evenodd;clip-rule:evenodd;fill:#00A0E9;}
	.st11{fill-rule:evenodd;clip-rule:evenodd;fill:#C9BC9C;}
	.st12{fill:none;stroke:#DAE000;stroke-width:1.5;stroke-linecap:round;stroke-linejoin:round;}
	.st13{fill-rule:evenodd;clip-rule:evenodd;fill:#DAE000;}
	.st14{fill:none;stroke:#CAB6D8;stroke-width:1.5;stroke-linecap:round;stroke-linejoin:round;}
	.st15{fill-rule:evenodd;clip-rule:evenodd;fill:#CAB6D8;}
	.st16{fill:none;stroke:#E60012;stroke-miterlimit:10;}
	.st17{fill:#231815;}
	.st18{fill:#CAB6D8;}
	.st19{fill:#B28247;}
	.st20{fill:#FFFFFF;}
	.st21{fill:#00913A;}
	.st22{fill:none;stroke:#00913A;stroke-width:0.75;stroke-miterlimit:10;}
	.st23{fill:none;stroke:#00913A;stroke-width:0.75;stroke-miterlimit:10;stroke-dasharray:0,0,1.94,1.94;}
	.st24{fill:none;stroke:#00913A;stroke-width:0.75;stroke-miterlimit:10;stroke-dasharray:0,2;}
	.st25{fill:#00A0E9;}
	.st26{fill:#DAE000;}
</style>
<path class="st0" d="M669.4,291.3c-1.1-5.5-21.5-2.4-25.4,0.9c1.9-8.7-6.5-4.9-11.5-6.2c2.7-4.6,1.2-14.9,0.8-14.1
	c1.6-3.2,8.9-4.3,8.8-4c4-8.9,8-1.8,9-10.7c1.2-11.6-11.1-7.9-8.6,0c-2.4-0.3-4.2-3.9-6.7-1.2c-0.9-11.4-2.6-4-6.5-0.9
	c-1.3-4.2-10,1.2-11.6-1.4c1.7-1.6,14.5-7.9,13.2-11.9c-1.5-4.5-21.8-1.8-25-1.1c3-4.6,25.4-37.2,19.9-42
	c-1.8-1.5-32.1,5.5-38.3,4.8c-6.1-0.6-12.7-5.4-20.5-5.4c-15.5-0.2-50,8.8-32-23.1c11.1,9.1,37.7-0.5,28.8-14.8
	c19.2,0,20.8-4.4,22.6-28.5c1.5-19.4-4.8-37.3-20.9-47.3c-30.2-18.6-33,11.1-55.7,23.2c-15.4,8.2-54.3-2.5-70-11.3
	c-22.7-12.8-18-28.1-25-50.5c8.8,6.2-0.9-36-0.9-1.3c-4.5-4.3-2.9,0-4.9,1c1,0.3-6.5-3.3-6.2-2.6c4.7,1.7,14.4-33.2,13.5-35
	C405.9-12.4,399,12,384.8,20c-2-13.6-20.8-15.9-30.4-15.7c-5,0.1-19.6,5.7-22.9,7.3c-10.8,5.2-14.7,5.9-27.4,8.9
	c-3.5,0.9-19.9,8.4-19.8,8.3c-8.5,8.5-2,21.5-4.3,27.2c-3.5,8.9-4.8,13.4-12.2,19.5c-4.1,3.4-6.9,8-12.7,9.8
	c-13.2,4.2-2-8.7-13.3-8.7c-14.1,0,6.8,15.4,6.6,15.2c9.8,6.4,7.4,0.9,15.3-2.7c2.4,10-1.2,18.9-16.5,15.9c5.1-7.3-6.8-19.3-8.5-3.9
	c1.6,3.2-19.2-12.8-10-11.6c-13.8-1.8-5.1-1.4-18.3,5.8c2.2-1.2-16.7,14.3-15.9,12.1c-0.9,2.4,2.5,21.4,8.1,13.5
	c0.8,0.2,1.4,0.7,1.8,1.6c-2.1,10.4-33.2,6.1-25.4,24.8c-5.2,1.2-10.2,0.8-14.3-2.1c3.6-2.1,1-8.5-3-7.9c2.7-2,5.7-17,2.9-17
	c-17.2,0-35.3-10.2-34.4,18.4c-3.4-5.1-50.2,29.5-8.3,19.3c-10.4,5,0.5,10.6,0.5,6c1.1,0.9,2.9,6.2,1.4,7.7
	c-0.1-1.3-27.3,0.6-27.6,1c-0.2-1.9,6-18.3,0.9-18.3c-5.7,0-5.9,14.6-12.1,15.8c-4.5,0.8-12.5-5.7-16.2-2.6
	c8.2-17.3-26.6,7.7-30.2,8.2c2.2-5,0.5-26.9-4.5-25.6c-6.4,1.6-14.1,36.9,1.8,28.5c-0.6,3.1-1.6,11,0.1,13.6
	c-5.3,0-10.8,10.5-6.9,14.7c-7.6,0-8.4,10.5-4.6,15.1c5.7-0.4-22.4-0.7-11,5.2c12.5,6.4,18.4,1.5,28.2-7.8
	c10.4-9.8,16.7-36.6,25.1-40.4c-2,6,1.9,13.1,4.1,18.9c-16.8-3-2.3,22.9-1.5,24.4c11.7,20.5,1.3-4.6,17.3,1.4
	c-5.7,10.1-1.2,9,6.6,14.3c-1.3,3.4-1.4,21.2-6.3,27.1c-0.1-0.8-0.5-1.3-1.1-1.7c4-1.7-16.8-5.5-21.8,6.9c-8.9,22,13.6-3.7,20.2,2
	c4.7,4.1-5.4,14.7-5.8,19.7c0-0.5-7.9,0.1-3.2,9.8c3.2,6.6,8-1.3,10.1,1.8c8.2,11.9,13.3,30.4,28.8,28c-2.8,6.8,12.2,15.3,11.6,21.6
	c-1.7,18.5-9.5-3.5-13.2,5.5c-1.7,4.1,9.2,12.9,12.8,12.4c-0.5,12.6-32.6,30.2-9.4,27.6c-11.9,15.5,19.4,1.3,5.3-0.9
	c33.1-7.6,35.1-56.2,73-59.8c44.7-4.3-7.8,30.5,14.9,50.2c8.2,7.1,4.4,5.9,18.1,1.9c2.9-0.9,24.3-14.6,26.8-17.5
	c28.5-32.3-21.9-86.8-36.2-52.8c-32.3-4.5,7-17.9,8.6-28.6c1.8-11.5-16.2-32.6-21.5-43.5c4,1.5,24.7-19.6,24.2-23.6
	c-2.6,0.2,23.7,15.1,21.9,13.5c4.8,4.1,5.5,3.9,10.2,9.5c2.6,3.1,5.8,11.9,7.9,18.7c1.5,4.9-6,8-5.3,12.4c0.4,2.3,6.5,2,7.6,6.2
	c4.5,17.9,7.5,15.4,15.8,24.1c3.2,3.4,19.7,14.2,20.3,15.4c4.1,8.9-0.2,26.3,5.2,22.8c3,18.9-57.3,40-45.6,51.5
	c-8.5,7.7-2.1,11,3.1,12.1c-1.5,0.8-2.8,2.8-3.8,4.2c-5.3-14.2-27.8,3-30.5,10.1c3.1-1.8-12.7,4-13.3,4.3c2.1-16.4-4.4-25.4-21-25.3
	c-7,0-7,8-18.5,9.9c-2.1,0-2.4-15-10.6-3.2c-1.7,2.4,6.8,6.3,5.6,9.3c-1.5,3.6-6.5,13.6-7.7,17.8c-1.4,5.5-12.6,39.8,0.1,39.8
	c-10.7,8.8-11.6,18.7,0.7,19.4c1.6,4.2-3.6,13.1,1.4,19.1c5.2,6.3,16.5,3.1,8.4-7.5c6,0,11.9,0.9,11.7-8.4c0.6,0,1.2,0,1.7-0.2
	c-16.7,19.5,20.2,37.2,23.5,45.7c1.8,4.7-7.9,9-7,13.4c-0.2-1.2,7,10,7.1,14.5c0.4,17.5-5.5,22.9-6.7,37.4
	c-2.2,27.1,27.9,28,35.1,57.7c5,20.9-2.1,51.5-24.9,57.5c-0.3,0.1-32.8-15.8-27.2,0.5c-0.7-2.2,21.3,20.2,15.2,20.2
	c1.6,0,3-3.8,2.7-5.1c-0.5-0.1,6,4.7,5.5,3.8c1.1,2.3-8.8,2-8.8,5.9c0,3.7,9.9,5.8,11.6,4.9c0.1,2.9-7.2,14.2,0.6,18.6
	c6.6,3.7,28-0.6,35.1-0.2c19.8,1.3,20.3,4.2,33.5,12c6.9,4,0.6,4.8,11.9,8c8.7,2.4,6.6,4.5,13,1.8c33-14.4-0.7-41.1-9.9-60.3
	c-6.6-13.9-12.2-53.7,9.3-65.5c-8.3,13.4,10.1,27.5,22.4,19.9c0.8,2.3-5.9,7.2-3.6,10.2c1.7,2.2,14.2,20,16.2,23.9
	c9.2,17.9,7.2,32.5,3.4,50.8c-4,19.6-11.4,23.4-20.2,38.7c-1.2,2.1-12.2,27.9-6,31c2.3,1.2,52-28.2,60.7-33
	c11.2-6.1,14.7-14.7,22.6-21.5c3.1-2.7,31.5-17.5,31.5-26.9c0-6.7-10.6-1-12.7-1c19.4-15.9-9.3-17.8-13.5-29.2
	c5.9-15.8,19.5-23.1,31.6-21c6.7,4.5,25,29.5,33.5,21.9c0.5,2.6,9.9,15.2,14.2,8.5c-1.4,2.2,2.8-18.8,2.5-17.7
	c3-11,1.9-14.4,4.7-24.8c3.5-12.6,9.7-18.1,14.5-29c4-9.1,6-23.6,6.1-34.5c0.1-5,4.7-9.7,4.7-13.7c0-4.7-8.5-7.1-8.8-12.7
	c-1.6-38.2,18.8-89.7,31.8-125.4c4-11,8.3-22.6,13.7-32.8c2.7-5,10.9-8,12.3-11.9c2.3-6.2-11.1-5.2-7.1-13.5c20,20.2,9-25,5.4-16
	c2.7-6.8,21.5-38.7,25.7-40.2c-3.4,11,14.3,6.2,10.6-0.2c-0.3-0.5-6.7-2.6-7-2.5c1.2-1.7,0.9-1.5,2.5-2.6c2.6,9.2,17.2-16.5,16-22.5
	c0.6,0.1,1.2,0.1,1.7-0.2c2.2,8.1,12.3-1.2,6.5-3.7c10,0.5,31.2-19.8,14-20C649,309.1,670.2,295.3,669.4,291.3L669.4,291.3z
	 M282.7,392l-3.3,17.3l-33.2,57.8l-20.5-19.8L197.5,495c-1.1-6.5,2.9-8.5,6.9-5.5c5,0,28.7-35,31.2-41.3c3.5,4.3,13.3,5,17.2,1.9
	c0.2,1.4,0.5,2.8,1,4.1c-0.5,0-1.7,0.3-2,0.7c0.7-11.8-18.8,21.3-7.2,16.2c-0.8,0.8-0.1,1.2,2,1.2c-1.2,1.5-7-5.9-5.8,3.2
	c0.6,4.9,34.7-6.2,16.6-15.3c-0.2,0.2,13.3-9,11.6-5.1c-4.3,10.2,6.2-6.1,5.6-5.2c-1.5,2.6-2.1-12.5-2-13
	c3.2-18.2,24.8-62.6,46.4-46.5c-5,3.8-19.4,15-20.9,20.3c-1.7,6.3,6.3,16.1,5.8,19.1c-2.4,13.2-16.5,32.9-22.4,45.9
	c-5.8,12.7-16.9,16.3-24.1,28c-2.5,4.1-1.4,16-6.1,20c-12.2,10.2-21.8-6.2-36.8,5.2c-0.1-0.5,14.9-20,2.9-17.3
	c3.8-4.8,8.6-12.9,2.6-18.2c6,2.6,20.4-9.2,17.2-16.2c-6.6-14.6-24.7,9.5-17.9,15.7c-1.3-0.8-2.6-0.6-3.8,0.5c0.8-1.5,6.6-9,0.8-9
	c-6.7,0-16.1,27.6-18.9,10.5L282.7,392z M322.4,668.6c-2.3-1.2-0.4-4.6-5.1-1c2.5-8.2-0.1-21.2,9.1-26c6.5-3.3,28.7,2.7,31.4,6.2
	c5.8,7.7,4.7,20.1-2.3,27.5C336.1,695.6,341.7,650.8,322.4,668.6z M239.3,103.6c0-0.6,3.5,4.2,3.7,5.9c-2.1-0.2-4.3,0-6.4-0.2
	C238.7,108.7,239.7,106.7,239.3,103.6z M154.2,311.9c-14.8,0-21.5,11.1-26.8-6.7c-0.5-1.8,5.7-46.4-13.7-35.3
	c1.6-19.6,18,1.3,16.2,1.3c9.4,0,9.1-17.2,22.2-0.6c9,11.4-1.5,15.5,1.4,27.9c-18.6-3.7,1.8,13.7,3.6,6.6c3.5,4.6,5.1,10.3,9.6,14
	C165.2,317.6,156.1,312.1,154.2,311.9L154.2,311.9z M132.1,360.6l-26.6-107.5c0.1,0.4-9.6-3.2-9.4-5.2c2.4,0.4,9.4,1.3,8.6-3.3
	c1.1,1.3,2.3,1.6,3.6,1c0.1,0.5,0.2,1,0.4,1.5c-3.6-0.4-4.2,2.6-3.2,5.9L132.1,360.6z M158,293l-0.2-9.2c6.5,1-3.3,2.4-2.5,6.2
	c-2.1-4.2,0.6,0.1,2.5-6.2L158,293z M165,281c-0.1,3.6-1.7,0.2-4.6,1.1C160.9,279.6,163.5,281.4,165,281z M137.7,392.1l13-96
	l-1.3-21.3l504.8,181.3"/>
<line class="st1" x1="132.4" y1="345.1" x2="182.7" y2="323.3"/>
<polyline class="st1" points="131.7,352.2 132,336.7 158.9,325.9 165.1,330.7 "/>
<polyline class="st1" points="182.7,323.3 214.4,302.1 219.7,288.9 211.8,278.4 195.9,249.3 209.1,220.2 "/>
<polyline class="st1" points="182.7,323.3 164.2,307.4 161.5,281 145.7,262.5 124.5,257.2 119.3,241.4 108.7,233.4 "/>
<polyline class="st1" points="119.3,241.4 137.8,231 177,228.3 "/>
<polyline class="st2" points="267.2,117.2 285.9,135.7 298.9,167.4 293.6,178 282,180.2 "/>
<polyline class="st3" points="132,354.7 164.2,341.8 182.7,323.3 163.5,299.5 166.8,257.1 177,228.3 "/>
<polyline class="st2" points="177,228.3 209.1,220.2 240.8,207 280.4,180.6 "/>
<polyline class="st4" points="280.4,180.6 280.4,180.6 336.5,388 "/>
<line class="st5" x1="267.2" y1="117.2" x2="347.2" y2="31.3"/>
<line class="st6" x1="267.2" y1="117.2" x2="280.4" y2="180.6"/>
<path class="st7" d="M136.2,354.1c0,2.5-2,4.5-4.5,4.5s-4.5-2-4.5-4.5s2-4.5,4.5-4.5S136.2,351.7,136.2,354.1"/>
<path class="st8" d="M168,299.5c0,2.5-2,4.5-4.5,4.5s-4.5-2-4.5-4.5s2-4.5,4.5-4.5S168,297,168,299.5z"/>
<path class="st8" d="M171.2,257c0,2.5-2,4.5-4.5,4.5s-4.5-2-4.5-4.5s2-4.5,4.5-4.5S171.2,254.6,171.2,257z"/>
<path class="st9" d="M213.9,220.2c0,2.7-2.2,4.9-4.9,4.9s-4.9-2.2-4.9-4.9s2.2-4.9,4.9-4.9S213.9,217.6,213.9,220.2z"/>
<path class="st9" d="M245.6,207c0,2.7-2.2,4.8-4.9,4.8s-4.9-2.2-4.9-4.8s2.2-4.9,4.9-4.9S245.6,204.4,245.6,207z"/>
<path class="st10" d="M271.7,117.2c0,2.5-2,4.5-4.5,4.5s-4.5-2-4.5-4.5s2-4.5,4.5-4.5S271.7,114.8,271.7,117.2"/>
<path class="st9" d="M296.4,178c0,1.5-1.2,2.7-2.7,2.7s-2.7-1.2-2.7-2.7s1.2-2.7,2.7-2.7S296.4,176.5,296.4,178z"/>
<path class="st11" d="M166.6,306.1c1.2,2.5-1.2,4.9-3.7,3.7c-0.5-0.2-0.9-0.6-1.1-1.1c-1.1-2.5,1.2-4.9,3.7-3.7
	C166,305.2,166.4,305.6,166.6,306.1"/>
<path class="st11" d="M147.2,330c1.2,2.5-1.2,4.9-3.7,3.7c-0.5-0.2-0.9-0.6-1.1-1.1c-1.2-2.5,1.2-4.9,3.7-3.7
	C146.6,329.1,147,329.5,147.2,330"/>
<path class="st11" d="M127.3,257.2c0,1.5-1.2,2.7-2.7,2.7s-2.7-1.2-2.7-2.7s1.2-2.7,2.7-2.7S127.3,255.7,127.3,257.2"/>
<path class="st11" d="M122,241.4c0,1.5-1.2,2.7-2.7,2.7s-2.7-1.2-2.7-2.7s1.2-2.7,2.7-2.7S122,239.9,122,241.4"/>
<path class="st8" d="M183.8,228.3c0,3.8-3.1,6.8-6.8,6.8s-6.8-3.1-6.8-6.8s3.1-6.8,6.8-6.8S183.8,224.5,183.8,228.3"/>
<path class="st10" d="M284.9,180.6c0,2.5-2,4.5-4.5,4.5s-4.5-2-4.5-4.5s2-4.5,4.5-4.5S284.9,178.2,284.9,180.6"/>
<polyline class="st12" points="182.7,323.3 191.3,329.3 204.6,329.9 210.4,334.2 221.2,325.4 226.6,316.3 242.2,316.3 252.7,327.2 
	258.6,341.3 "/>
<path class="st13" d="M261.5,341.6c0,1.5-1.2,2.7-2.7,2.7s-2.7-1.2-2.7-2.7s1.2-2.7,2.7-2.7S261.5,340,261.5,341.6"/>
<path class="st8" d="M189.2,322.7c0,4.2-3.4,7.6-7.6,7.6s-7.6-3.4-7.6-7.6s3.4-7.6,7.6-7.6S189.2,318.5,189.2,322.7z"/>
<polyline class="st14" points="108.7,233.5 104.7,218.9 96.8,216.3 90.3,223 84.3,214.9 89,206.7 96.8,206.7 96.8,200.4 88.9,200.4 
	68.9,174.7 82.4,173.1 92.7,168.5 93.4,175.6 98.1,181 106,177.5 115.3,177.5 131.1,197.8 131.1,219.6 137.8,231 "/>
<path class="st11" d="M111.4,233.4c0,1.5-1.2,2.7-2.7,2.7s-2.7-1.2-2.7-2.7s1.2-2.7,2.7-2.7S111.4,231.9,111.4,233.4"/>
<path class="st15" d="M87.2,214.9c0,1.5-1.2,2.7-2.7,2.7s-2.7-1.2-2.7-2.7s1.2-2.7,2.7-2.7S87.2,213.4,87.2,214.9"/>
<path class="st15" d="M72.2,175c0,1.5-1.2,2.7-2.7,2.7s-2.7-1.2-2.7-2.7s1.2-2.7,2.7-2.7S72.2,173.5,72.2,175"/>
<path class="st15" d="M100.8,180.6c0,1.5-1.2,2.7-2.7,2.7s-2.7-1.2-2.7-2.7s1.2-2.7,2.7-2.7S100.8,179.1,100.8,180.6"/>
<path class="st11" d="M140.5,230.7c0,1.5-1.2,2.7-2.7,2.7s-2.7-1.2-2.7-2.7s1.2-2.7,2.7-2.7S140.5,229.2,140.5,230.7"/>
<path class="st11" d="M145.3,261.6c0,1.5-1.2,2.7-2.7,2.7s-2.7-1.2-2.7-2.7s1.2-2.7,2.7-2.7S145.3,260.1,145.3,261.6"/>
<path class="st11" d="M157.8,273.2c0,1.5-1.2,2.7-2.7,2.7s-2.7-1.2-2.7-2.7s1.2-2.7,2.7-2.7S157.8,271.7,157.8,273.2"/>
<path class="st11" d="M198.8,249.6c0,1.5-1.2,2.7-2.7,2.7s-2.7-1.2-2.7-2.7s1.2-2.7,2.7-2.7S198.8,248.1,198.8,249.6"/>
<path class="st16" d="M191.5,322.7c0,5.4-4.4,9.8-9.8,9.8s-9.8-4.4-9.8-9.8s4.4-9.8,9.8-9.8S191.5,317.3,191.5,322.7z"/>
<g>
	<g>
		<path class="st8" d="M191.7,334v1.2h-4.3V334H191.7z M192,339.2v-4.5h2.6v-0.6h-2.7v-1.2h2.7v-1.1l1.5,0.1c0.1,0,0.3,0,0.3,0.2
			c0,0.2-0.2,0.2-0.4,0.2v0.6h3v1.2h-3v0.6h2.6v4.5h-2c0.9,1.3,1.8,2,2.6,2.7c-0.5,0.3-0.9,0.6-1.1,1.1c-0.9-0.8-1.5-1.5-2.1-2.6
			v3.1h-1.4v-3.1c-1.1,1.6-1.9,2.2-2.2,2.5c-0.3-0.4-0.6-0.8-0.9-1v1.5h-1.3v-0.6h-1.4v0.8h-1.4v-4.4h4.1v2.5c1-0.7,1.8-1.5,2.5-2.5
			L192,339.2L192,339.2z M191.3,332.3v1.2h-3.5v-1.2H191.3z M191.3,335.8v1.1h-3.5v-1.1H191.3z M191.3,337.5v1.2h-3.5v-1.2H191.3z
			 M190.2,341.6v-1.1h-1.4v1.1H190.2z M193.9,336c0.3,0.4,0.3,0.5,0.7,1.1v-1.3h-1.4v0.7L193.9,336L193.9,336z M193.3,338.1h1.4
			v-0.7c-0.3,0.2-0.5,0.4-0.7,0.5c-0.3-0.5-0.5-0.9-0.7-1.2V338.1L193.3,338.1z M197.3,336.4v-0.6h-1.4v1.5c0.2-0.2,0.4-0.8,0.6-1.2
			L197.3,336.4L197.3,336.4z M197.3,336.7L197.3,336.7c-0.4,0.7-0.6,0.9-0.7,1.1c-0.2-0.1-0.4-0.2-0.7-0.3v0.6h1.4V336.7
			L197.3,336.7z"/>
		<path class="st8" d="M206.8,339.1h5v1.5h-5v3h-1.7v-3h-5v-1.5h5V338h-3.8v-5.8h9.3v5.8h-3.8L206.8,339.1L206.8,339.1z
			 M208.9,334.4v-0.9h-6v0.9H208.9z M208.9,336.6v-1h-6v1H208.9z"/>
	</g>
	<g>
		<path class="st17" d="M147.4,215.7v-4.1l1.4,0.1c0.1,0,0.2,0.1,0.2,0.1c0,0.1-0.1,0.2-0.3,0.2v0.8h1.6v1.2h-1.6v1.4
			c0.4-0.1,0.6-0.1,2-0.4c0,0.4-0.1,0.8-0.1,1.1c-2,0.4-3.6,0.8-5.2,1c0,0.1-0.1,0.3-0.2,0.3c-0.1,0-0.1-0.1-0.2-0.2l-0.2-1.3
			c0.4,0,0.6-0.1,0.8-0.1v-3.7l1.2,0.1c0.1,0,0.2,0.1,0.2,0.1c0,0.1-0.1,0.1-0.2,0.2v3.1C147,215.8,147.2,215.8,147.4,215.7
			L147.4,215.7z M151.6,207.9c0.1,0,0.2,0.1,0.2,0.1c0,0.1-0.2,0.2-0.2,0.2c0,0.4,0,0.6,0,0.8c0,0.4,0,0.8,0,1.2h3v1.1h-3
			c0.2,1.6,0.3,2.4,0.8,3.3c0.2,0.4,0.6,1.2,0.9,1.2s0.4-0.8,0.5-1.4c0.5,0.4,0.7,0.5,1.1,0.7c-0.1,0.6-0.4,2.4-1.3,2.4
			c-1.1,0-2.2-2-2.6-3.3c-0.3-0.9-0.5-2-0.5-2.9h-5.5v-1.1h5.4c0-0.2-0.1-1.4-0.1-2.5L151.6,207.9L151.6,207.9z M149.7,208.5v1.1
			h-4.2v-1.1H149.7z M152.9,207.9c0.5,0.4,1.1,1.2,1.3,1.6c-0.4,0.2-0.6,0.4-1,0.8c-0.3-0.6-0.9-1.3-1.1-1.6L152.9,207.9
			L152.9,207.9z"/>
		<path class="st17" d="M162.3,209.7c0.3-0.6,0.6-1.2,0.7-1.9l1.2,0.3c0,0,0.1,0.1,0.1,0.1s0,0.1-0.3,0.2c-0.2,0.6-0.3,0.8-0.6,1.3
			h1.6v1.1h-1.4v1.1h1.1v1h-1.1v1.1h1.1v1h-1.1v1.1h1.6v1.1h-3.7v0.5h-1.2v-0.9c-0.3,0.1-0.7,0.2-1,0.3c0-0.3,0-0.4,0-0.7
			c-1.1,0.4-1.2,0.4-1.8,0.6c0,0.1,0,0.2-0.2,0.2c-0.1,0-0.1-0.1-0.2-0.2l-0.3-0.8c-0.2,0.6-0.4,0.9-0.6,1.2
			c-0.1-0.1-0.6-0.4-1.1-0.6c1.2-2,1.6-4.5,1.6-5.8h-1.3v-1.1h1.4c0-0.3,0-1.8,0-1.9l1.3,0.1c0.1,0,0.2,0,0.2,0.1
			c0,0.1-0.2,0.2-0.3,0.2c0,0.3,0,0.7,0,1.4h1.6v0.7c0.1-0.2,0.9-1.4,1.1-2.7l1.2,0.3c0,0,0.1,0.1,0.1,0.1c0,0.1,0,0.1-0.3,0.2
			c-0.2,0.5-0.3,0.9-0.5,1.3L162.3,209.7L162.3,209.7z M159.5,212.2c0.1,0,0.1,0.1,0.1,0.2c0,0.1-0.1,0.1-0.3,0.2
			c-0.4,1.4-0.4,1.6-0.8,3c0.4-0.1,0.6-0.1,0.7-0.2c-0.1-0.5-0.2-0.9-0.3-1.1l0.9-0.3c0.3,0.7,0.5,1.4,0.6,2.2v-4.5
			c-0.2,0.3-0.3,0.4-0.4,0.6c-0.3-0.3-0.8-0.5-1-0.6c0.1-0.2,0.3-0.4,0.6-0.7H158c-0.2,2.7-1,4.6-1.1,4.9c0.2,0,0.3,0,0.4-0.1
			c0.4-1,0.8-2.8,1-3.8L159.5,212.2L159.5,212.2z M161.5,210.8v1.1h1v-1.1H161.5z M161.5,212.9v1.1h1v-1.1H161.5z M161.5,215v1.1h1
			V215H161.5z"/>
		<path class="st17" d="M165.8,217c0.5-0.8,1.5-2.5,1.9-3.6c0.4,0.5,0.9,0.8,1,0.9c-0.4,0.8-0.5,1-1.5,3c0,0.1,0,0.2,0,0.2
			s0,0.1-0.1,0.1c-0.1,0-0.1,0-0.2-0.1L165.8,217L165.8,217z M166.6,210.4c1.1,0.5,1.5,0.9,1.8,1.1c-0.3,0.4-0.5,0.7-0.7,1.1
			c-0.4-0.3-1.1-0.8-1.7-1.1L166.6,210.4L166.6,210.4z M167.4,207.9c0.8,0.5,1.2,0.8,1.7,1.1c-0.3,0.4-0.6,0.8-0.7,1.1
			c-0.7-0.5-1.1-0.8-1.7-1.2L167.4,207.9L167.4,207.9z M169.2,216.3v-3.5h6.3v3.5h0.5v1.1h-7.5v-1.1H169.2z M175.2,208.1v4.1h-5.6
			v-4.1H175.2z M171,216.3v-2.5h-0.6v2.5H171z M173.9,209.8v-0.6h-3.1v0.6H173.9z M170.8,210.7v0.7h3.1v-0.7H170.8z M172.7,216.3
			v-2.5H172v2.5H172.7z M174.4,216.3v-2.5h-0.7v2.5H174.4z"/>
		<path class="st17" d="M180.5,213.1l0.4,0.4c-0.1,0.4-0.9,2.7-3,4.1c-0.3-0.4-0.6-0.6-1.1-0.8c0.7-0.4,1.8-1.1,2.5-2.5h-2.1v-1.1
			L180.5,213.1L180.5,213.1z M186,213.1c0,0,0.1,0.1,0.1,0.1c0,0.1-0.2,0.1-0.4,0.1c-0.9,0.8-1.1,0.9-1.7,1.4
			c0.8,0.7,1.7,1.2,2.6,1.6c-0.3,0.2-0.4,0.4-0.9,1c-0.6-0.3-1.3-0.7-2-1.3c-0.6-0.5-0.8-0.8-1.2-1.3v1.6c0,1.1-0.3,1.4-2,1.4
			c0-0.3-0.1-0.7-0.5-1.4c0.3,0.1,0.5,0.1,0.7,0.1c0.4,0,0.5-0.1,0.5-0.4v-3.4h-3.1v-3.9h2.1c0.2-0.4,0.3-0.5,0.5-0.9l1.5,0.2
			c0.1,0,0.2,0,0.2,0.1c0,0.1-0.1,0.2-0.4,0.2c-0.1,0.1-0.1,0.1-0.2,0.4h3.7v3.9h-0.3L186,213.1L186,213.1z M179.4,210.1h4.8v-0.5
			h-4.8V210.1z M184.2,210.9h-4.8v0.6h4.8V210.9z M182.5,212.5v0.2c0.3,0.6,0.5,0.9,0.6,1.1c0.2-0.1,1-0.7,1.5-1.3H182.5z"/>
	</g>
	<g>
		<path class="st17" d="M242.8,120.9v1.2h-1v5.9h-1.3v-5.9h-1v-1.2h1v-2.6l1.3,0.1c0.1,0,0.2,0,0.2,0.1c0,0.1,0,0.1-0.3,0.2v2.2
			H242.8z M248,124.6h1.4v1H248v1.5c0,1-1,1-2.1,1c0-0.5-0.3-1-0.5-1.3c0.5,0.1,0.8,0.1,0.9,0.1c0.3,0,0.4-0.1,0.4-0.4v-0.9h-2.2
			c0.3,0.3,0.6,0.5,0.9,1c-0.4,0.3-0.6,0.5-1,0.9c-0.4-0.6-0.7-0.9-1.3-1.4l0.7-0.6h-1.5v-1h4.3v-0.4h-3.6v-3.4h2.2v-0.4h-2.8v-0.9
			h2.8v-1.1l1.2,0.1c0.1,0,0.2,0,0.2,0.1c0,0.1,0,0.1-0.2,0.2v0.7h1.1c-0.2-0.1-0.4-0.3-0.7-0.5l0.7-0.7c0.5,0.3,1,0.7,1.3,0.9
			c-0.2,0.2-0.3,0.2-0.4,0.3h0.8v0.9h-2.8v0.4h2.2v3.4h-0.6c0,0,0,0,0,0.1c0,0.1-0.2,0.1-0.3,0.2L248,124.6L248,124.6z M245.3,122.1
			v-0.5h-1v0.5H245.3z M244.3,122.7v0.5h1v-0.5H244.3z M247.6,122.1v-0.5h-1v0.5H247.6z M246.6,122.7v0.5h1v-0.5H246.6z"/>
		<path class="st17" d="M257.5,122.1c0.1,0,0.2,0.1,0.2,0.2c0,0.1-0.1,0.2-0.3,0.2c-0.2,0.2-0.3,0.4-0.5,0.6h2.8l0.5,0.5
			c-1.2,1.8-2.8,2.8-3.9,3.4c-1.8,0.9-3.6,1.2-5,1.4c-0.1-0.5-0.3-0.7-0.6-1.1c1.1,0,2.9-0.2,4.6-1c-0.2-0.3-0.6-0.6-1-0.9
			c-0.7,0.4-1.3,0.7-1.9,0.9c-0.2-0.3-0.6-0.7-0.9-0.9c0.8-0.3,2.9-1,4.5-3c-2,1.4-3.7,1.8-4.5,2c-0.1-0.4-0.2-0.6-0.7-1.1
			c1.2-0.2,2.3-0.5,3.5-1.2c-0.4-0.4-0.6-0.6-1-1c-0.4,0.3-0.8,0.6-1.5,0.9c-0.1-0.2-0.4-0.5-1-0.9c2.2-0.8,3.1-2.1,3.6-2.8l1.4,0.2
			c0.1,0,0.2,0.1,0.2,0.1c0,0.1-0.1,0.2-0.3,0.2c0,0.1-0.1,0.2-0.2,0.2h3.4l0.4,0.5c-0.8,0.9-1.7,1.7-2.7,2.4L257.5,122.1
			L257.5,122.1z M254.4,119.9c-0.2,0.1-0.2,0.2-0.3,0.2c0.4,0.3,0.9,0.7,1.2,1.1c0.3-0.2,1.2-0.8,1.6-1.3H254.4z M255.6,124.1
			c-0.1,0.1-0.2,0.2-0.4,0.3c0.3,0.3,0.8,0.7,1.1,1c0.1-0.1,1.2-0.8,1.6-1.3L255.6,124.1L255.6,124.1z"/>
	</g>
	<g>
		<path class="st17" d="M243.6,176.6h1.6v1.1h-1.4c0.1,0.2,0.8,1,1.4,1.3c-0.5,0.3-0.6,0.4-0.9,0.8c-0.3-0.3-0.5-0.5-0.7-0.9v2.4
			h-1.2V179c-0.3,0.6-0.6,1.1-1.2,1.7c-0.3-0.3-0.5-0.4-1.1-0.6c0.9-0.8,1.5-1.6,1.9-2.3h-1.5v-1.1h1.9v-0.8h-2v-1.1h1.2
			c-0.2-0.6-0.3-0.8-0.3-1l0.6-0.2h-1.1v-1h1.7v-1.1l1.3,0.1c0.2,0,0.2,0.1,0.2,0.1c0,0.1-0.1,0.1-0.2,0.2v0.6h1.5v1h-0.6
			c0.3,0.1,0.4,0.1,0.4,0.2c0,0.1-0.1,0.1-0.3,0.2c-0.1,0.3-0.3,0.6-0.4,0.8h1.2v1.1H244c0,0.1-0.2,0.2-0.3,0.2L243.6,176.6
			L243.6,176.6z M242.4,173.6c0.2,0.6,0.3,0.8,0.3,1l-0.6,0.2h1c0.3-0.5,0.5-1.1,0.5-1.2H242.4z M245.8,172.3l0.7,0.1
			c0.7,0,2.1-0.4,3-0.7l0.7,0.9c0,0,0,0.1,0,0.1c0,0.1-0.1,0.1-0.2,0.1c-0.1,0-0.1,0-0.3-0.1c-0.9,0.3-1.7,0.5-2.8,0.5v1.4h3v1.2h-1
			v5.3h-1.3V176h-0.8c0,0.8,0,3.4-1.6,5.4c-0.3-0.2-0.6-0.4-1.2-0.5c1.4-1.5,1.5-3.3,1.5-4.9V172.3L245.8,172.3z"/>
		<path class="st17" d="M253.1,178.8c0.2,0.1,0.2,0.2,0.2,0.2c0,0.1-0.2,0.1-0.3,0.1c-0.5,1.3-0.9,1.8-1.2,2.2
			c-0.4-0.3-0.9-0.5-1.1-0.6c0.6-0.7,1.1-1.6,1.3-2.4L253.1,178.8L253.1,178.8z M259.3,172.4v3.4h-5.6v0.4h7.1v0.8h-7.1v0.4h6.9
			c0,0.9-0.3,3.1-0.9,3.7c-0.4,0.3-1,0.4-1.8,0.4c-0.1-0.5-0.3-0.9-0.6-1.4c0.3,0.1,0.7,0.1,1,0.1c0.5,0,0.7,0,0.9-1.9h-6.9v-6h2.1
			c0.1-0.3,0.3-0.6,0.3-1l1.5,0.2c0,0,0.1,0,0.1,0.1c0,0.1-0.2,0.2-0.3,0.2c-0.1,0.3-0.2,0.4-0.2,0.5H259.3L259.3,172.4z
			 M254.4,178.7c0.4,1,0.5,1.6,0.5,2.1c-0.4,0-0.7,0.1-1.2,0.3c0-0.7-0.1-1.3-0.4-2.1L254.4,178.7L254.4,178.7z M253.7,173.7h4.4
			v-0.4h-4.4V173.7z M258,174.5h-4.4v0.4h4.4V174.5z M256.1,178.6c0.4,0.6,0.6,1.1,0.8,1.7c-0.3,0.1-0.7,0.2-1,0.4
			c-0.2-0.6-0.4-1.1-0.7-1.7L256.1,178.6L256.1,178.6z M257.9,178.4c0.1,0.1,0.5,0.9,0.7,1.4c-0.4,0.1-0.8,0.4-0.9,0.4
			c-0.2-0.7-0.5-1.1-0.7-1.4L257.9,178.4L257.9,178.4z"/>
		<path class="st17" d="M265.4,174.2h1.7v-1.1h-1.8v-1h6.1v1h-2v1.1h1.9v7.2h-1.2v-0.8h-3.4v0.8h-1.2v-3.9c-0.3,0.2-0.4,0.3-0.8,0.7
			c-0.1-0.2-0.3-0.6-0.5-1.1v4.3H263V178c-0.3,0.8-0.4,1-0.5,1.3c-0.2-0.2-0.8-0.6-1.1-0.8c0.3-0.5,1.1-1.9,1.5-3.8h-1.2v-1h1.2v-2
			l1.2,0.1c0.1,0,0.2,0,0.2,0.2c0,0.1-0.1,0.1-0.3,0.2v1.6h1v1h-1v0.3c0.4,0.7,0.8,1.5,1.3,2.2V174.2L265.4,174.2z M270.1,179.6
			v-1.2h-0.7c-0.4,0-1,0-1-0.8v-2.3H268c0,2.2-0.7,3-1,3.4c-0.1-0.2-0.2-0.2-0.4-0.3v1.2L270.1,179.6L270.1,179.6z M266.7,175.3v2.3
			c0.4-0.6,0.5-1.1,0.5-2.3H266.7z M268.5,173.2H268v1.1h0.5V173.2z M270.1,175.3h-0.6v1.8c0,0.3,0,0.3,0.3,0.3h0.4V175.3
			L270.1,175.3z"/>
	</g>
	<g>
		<path class="st17" d="M288.6,188.8c0.1,0,0.1,0.1,0.1,0.1c0,0.1-0.1,0.1-0.2,0.1c-0.3,0.8-0.6,1.1-0.7,1.3
			c-0.2-0.2-0.5-0.3-0.6-0.4c0.4-0.4,0.6-1,0.8-1.4L288.6,188.8L288.6,188.8z M292.3,184.9v2h-3.4v0.2h4.2v0.5h-4.2v0.2h4.1
			c0,0.5-0.1,1.9-0.5,2.2c-0.2,0.2-0.6,0.2-1.1,0.2c-0.1-0.3-0.2-0.5-0.4-0.8c0.2,0,0.4,0.1,0.6,0.1c0.3,0,0.4,0,0.5-1.1h-4.1v-3.6
			h1.2c0.1-0.2,0.1-0.4,0.2-0.6l0.9,0.1c0,0,0.1,0,0.1,0.1c0,0.1-0.1,0.1-0.2,0.1c-0.1,0.2-0.1,0.2-0.1,0.3L292.3,184.9L292.3,184.9
			z M289.4,188.7c0.2,0.6,0.3,1,0.3,1.3c-0.2,0-0.4,0.1-0.7,0.1c0-0.4-0.1-0.8-0.2-1.3L289.4,188.7z M288.9,185.7h2.6v-0.2h-2.6
			V185.7z M291.5,186.1h-2.6v0.3h2.6V186.1z M290.4,188.6c0.2,0.4,0.4,0.7,0.5,1c-0.2,0-0.4,0.1-0.6,0.2c-0.1-0.4-0.2-0.7-0.4-1
			L290.4,188.6z M291.4,188.5c0,0.1,0.3,0.6,0.4,0.8c-0.2,0.1-0.5,0.2-0.6,0.2c-0.1-0.4-0.3-0.7-0.4-0.9L291.4,188.5L291.4,188.5z"
			/>
		<path class="st17" d="M296,186h1v-0.6h-1.1v-0.6h3.6v0.6h-1.2v0.6h1.1v4.3h-0.7v-0.5h-2.1v0.5H296V188c-0.2,0.1-0.3,0.2-0.5,0.4
			c-0.1-0.1-0.1-0.4-0.3-0.7v2.6h-0.7v-2.1c-0.2,0.5-0.2,0.6-0.3,0.8c-0.1-0.1-0.5-0.4-0.6-0.5c0.2-0.3,0.7-1.1,0.9-2.3h-0.7v-0.6
			h0.7v-1.2l0.7,0c0,0,0.1,0,0.1,0.1c0,0.1,0,0.1-0.2,0.1v0.9h0.6v0.6h-0.6v0.2c0.2,0.4,0.5,0.9,0.8,1.3L296,186L296,186z
			 M298.8,189.2v-0.7h-0.4c-0.3,0-0.6,0-0.6-0.5v-1.4h-0.2c0,1.3-0.4,1.8-0.6,2c-0.1-0.1-0.1-0.1-0.2-0.2v0.8L298.8,189.2
			L298.8,189.2z M296.7,186.6v1.4c0.2-0.4,0.3-0.6,0.3-1.4H296.7z M297.8,185.3h-0.3v0.6h0.3V185.3z M298.8,186.6h-0.4v1.1
			c0,0.1,0,0.2,0.1,0.2h0.2L298.8,186.6L298.8,186.6z"/>
	</g>
	<g>
		<path class="st17" d="M202.5,250.4c0,0.5-0.1,1.4-0.5,2.1c-0.2-0.1-0.5-0.2-0.7-0.3c0.3-0.5,0.5-1.2,0.5-2.5v-2.9h1.9v5
			c0,0.3,0,0.8-1,0.7c-0.1-0.4-0.1-0.5-0.3-0.8c0.1,0,0.3,0.1,0.4,0.1c0.2,0,0.2-0.1,0.2-0.3v-1.1L202.5,250.4L202.5,250.4z
			 M203.1,248.2v-0.7h-0.5v0.7H203.1z M203.1,249.7v-0.8h-0.5v0.8H203.1z M207.1,246.8v3.4h-0.8v-0.3h-1.7v1.3
			c0,0.3,0.1,0.4,0.3,0.4h1.1c0.3,0,0.4-0.1,0.6-0.8c0.2,0.1,0.4,0.3,0.7,0.4c-0.2,1-0.6,1.1-1.1,1.1h-1.5c-0.8,0-0.9-0.4-0.9-0.8
			v-4.8H207.1z M205.2,247.5h-0.5v1.7h0.5V247.5z M205.8,249.2h0.5v-1.7h-0.5V249.2z"/>
		<path class="st17" d="M211.2,247.5c0-0.1,0.4-0.5,0.6-0.9l0.8,0.2c0,0,0.1,0,0.1,0.1c0,0.1-0.1,0.1-0.2,0.1
			c-0.1,0.2-0.2,0.4-0.4,0.6h1.6v0.7h-5.9v-0.7h1.6c0-0.1-0.2-0.4-0.4-0.6l0.7-0.3c0.3,0.3,0.4,0.5,0.5,0.8l-0.3,0.1L211.2,247.5
			L211.2,247.5z M209,251.1v1.4h-0.8v-4h2.5v3.3c0,0.5-0.2,0.6-1.1,0.6c0-0.3-0.1-0.5-0.3-0.8c0.1,0,0.3,0,0.4,0
			c0.1,0,0.2,0,0.2-0.2V251L209,251.1L209,251.1z M210,249.5v-0.4h-1v0.4H210z M210,250.5v-0.4h-1v0.4H210z M212,248.5
			c0,0,0.1,0,0.1,0.1c0,0-0.1,0.1-0.1,0.1v2.6h-0.8v-2.8L212,248.5z M213.4,248.4c0,0,0.1,0,0.1,0.1c0,0,0,0.1-0.1,0.1v3.1
			c0,0.7-0.4,0.8-1.2,0.8c0-0.2,0-0.5-0.2-0.8c0.1,0,0.4,0,0.4,0c0.1,0,0.2,0,0.2-0.2v-3.1L213.4,248.4L213.4,248.4z"/>
		<path class="st17" d="M219.9,248.2v1.8h-4.4c0,0.6-0.1,1.7-0.6,2.6c-0.3-0.2-0.3-0.2-0.7-0.3c0.6-1,0.6-2,0.6-2.8v-2.3h2.2v-0.6
			l0.8,0c0.1,0,0.1,0,0.1,0.1c0,0.1,0,0.1-0.2,0.1v0.3h2.4v0.7h-1.6c0,0.1-0.1,0.1-0.2,0.1v0.3L219.9,248.2L219.9,248.2z
			 M217.6,250.4v0.6h-1v0.5c0.6-0.1,0.7-0.1,1-0.2c0,0.1-0.1,0.4-0.1,0.7c-0.3,0.1-1.2,0.3-1.8,0.4c0,0.1-0.1,0.1-0.1,0.1
			s-0.1,0-0.1-0.1l-0.2-0.6c0.1,0,0.5-0.1,0.6-0.1v-1.6l0.7,0c0.1,0,0.2,0,0.2,0.1c0,0.1-0.1,0.1-0.2,0.1v0.1L217.6,250.4
			L217.6,250.4z M216.2,248.2v-0.4h-0.8v0.4H216.2z M216.2,249.4v-0.6h-0.8v0.6H216.2z M217.7,248.2v-0.4h-0.5
			c0,0.1-0.1,0.1-0.2,0.1v0.3L217.7,248.2L217.7,248.2z M217.7,249.4v-0.6H217v0.6H217.7z M218.5,251.5c0,0.2,0.1,0.3,0.2,0.3h0.4
			c0.3,0,0.4-0.1,0.4-0.7c0.2,0.2,0.4,0.3,0.6,0.3c-0.2,1-0.5,1-0.9,1h-0.7c-0.5,0-0.7-0.3-0.7-0.7v-1.6l0.7,0c0.1,0,0.2,0,0.2,0.1
			c0,0.1,0,0.1-0.2,0.1v0.3c0.3-0.1,0.6-0.3,0.9-0.6l0.5,0.5c0,0,0,0.1,0,0.1c0,0.1-0.1,0.1-0.1,0c-0.4,0.3-0.7,0.5-1.3,0.7
			L218.5,251.5L218.5,251.5z M218.4,248.8v0.6h0.7v-0.6H218.4z"/>
		<path class="st17" d="M221.6,252.3h-0.8v-1.5l0.8,0c0.1,0,0.1,0,0.1,0.1c0,0.1-0.1,0.1-0.1,0.1v0.4h0.8v-0.7h-1v-3.6h1.1
			c0.1-0.3,0.2-0.4,0.2-0.6l0.9,0.1c0.1,0,0.1,0,0.1,0.1c0,0.1-0.1,0.1-0.2,0.1c0,0.1-0.1,0.2-0.1,0.3h2.2v2.1h-3.4v0.3h4.3v0.5
			h-4.3v0.3h4.2c0,0.6-0.1,1.5-0.4,1.9c-0.3,0.4-0.5,0.4-1.3,0.4c0-0.2-0.1-0.3-0.1-0.5h-3.1L221.6,252.3L221.6,252.3z M222.3,247.9
			h2.6v-0.3h-2.6V247.9z M224.9,248.4h-2.6v0.3h2.6V248.4z M224,251.5v-0.6l0.8,0c0.1,0,0.2,0,0.2,0.1c0,0.1-0.1,0.1-0.2,0.1v0.6
			c0.2,0,0.3,0,0.4,0c0.3,0,0.3-0.1,0.4-0.2c0-0.1,0.1-0.5,0.1-0.8h-2.8l0.4,0c0.1,0,0.2,0,0.2,0.1c0,0.1-0.1,0.1-0.2,0.1v0.5
			L224,251.5L224,251.5z"/>
	</g>
	<g>
		<path class="st17" d="M148,308v-0.8h2.5v-1.6l0.8,0c0.1,0,0.1,0,0.1,0.1c0,0.1-0.1,0.1-0.1,0.1v1.4h2.5v0.8h-2.5
			c0.3,0.9,0.9,2.1,2.5,2.9c-0.4,0.3-0.5,0.4-0.6,0.6c-0.7-0.3-1.8-1.2-2.4-2.5c-0.7,1.6-1.8,2.2-2.6,2.5c-0.1-0.1-0.2-0.4-0.6-0.7
			c0.5-0.2,2.2-0.9,2.6-2.9L148,308L148,308z"/>
		<path class="st17" d="M156.2,311.5h-0.8v-2.3c-0.2,0.4-0.4,0.9-0.6,1.1c-0.2-0.2-0.3-0.3-0.7-0.5c0.5-0.6,1-1.2,1.3-2.3h-1.1v-0.7
			h1.1v-1.2l0.8,0c0.1,0,0.1,0,0.1,0.1c0,0,0,0.1-0.1,0.1v1h0.9v0.7h-0.9v0.3c0.3,0.5,0.6,0.8,1,1.1c-0.1,0.2-0.3,0.4-0.4,0.7
			c-0.2-0.2-0.5-0.6-0.6-0.7V311.5z M157.9,308c0.2,0.4,0.5,1.1,0.6,1.5c-0.2,0.1-0.4,0.1-0.7,0.3c-0.1-0.6-0.4-1.1-0.5-1.5
			L157.9,308L157.9,308z M160.2,306.8v0.7h-0.7v3c0,0.6-0.1,1-1.4,0.9c-0.1-0.5-0.1-0.6-0.3-0.9c0.3,0,0.5,0,0.5,0
			c0.3,0,0.3,0,0.3-0.3v-2.8h-1.4v-0.7h1.4v-1.2l0.9,0c0.1,0,0.1,0,0.1,0.1s-0.1,0.1-0.1,0.1v1L160.2,306.8L160.2,306.8z"/>
	</g>
	<g>
		<path class="st17" d="M141.3,273.3C141.3,273.3,141.3,273.3,141.3,273.3c0.1,0.2,0,0.2-0.2,0.2c0,0-0.1,0.1-0.3,0.4
			c-0.1,0.1-0.2,0.3-0.3,0.4l0.1,0c0.1,0,0.1,0,0.1,0.1s0,0.1-0.1,0.1v2.9h-0.8v-2.5c-0.1,0.1-0.2,0.2-0.4,0.3
			c-0.2-0.3-0.3-0.5-0.5-0.6c1-0.6,1.5-1.3,1.7-1.7L141.3,273.3L141.3,273.3z M140.9,271.8c0.1,0,0.1,0.1,0.1,0.1
			c0,0.1-0.1,0.1-0.2,0.1c-0.2,0.3-0.7,0.8-1.2,1.1c-0.1-0.1-0.4-0.4-0.6-0.4c0.6-0.4,1-0.9,1.3-1.2L140.9,271.8L140.9,271.8z
			 M142.7,272.3v-0.9l0.8,0c0,0,0.1,0,0.1,0.1c0,0.1,0,0.1-0.1,0.1v0.6h1.4l0.2,0.2c-0.2,0.6-0.3,1-0.5,1.3
			c-0.3-0.2-0.4-0.2-0.7-0.3c0.1-0.3,0.2-0.4,0.2-0.6h-0.7v0.9h0.8l0.4,0.4c-0.1,0.5-0.4,1.1-0.9,1.8c0.5,0.4,1,0.6,1.3,0.7
			c-0.2,0.2-0.4,0.5-0.5,0.6c-0.6-0.2-1.1-0.6-1.3-0.8c-0.3,0.3-0.6,0.6-1.1,0.8c-0.1-0.1-0.3-0.4-0.6-0.5c0.6-0.2,0.9-0.4,1.2-0.8
			c-0.4-0.5-0.6-0.9-0.8-1.4c-0.1,1.3-0.5,2.3-0.8,2.7c-0.2-0.2-0.4-0.3-0.6-0.4c0.3-0.6,0.7-1.3,0.7-3c0-0.3,0-1.5,0-1.7
			L142.7,272.3L142.7,272.3z M142.1,273c0,0,0,0.8,0,0.9h0.7V273H142.1L142.1,273z M142.7,274.5c0.2,0.4,0.3,0.7,0.6,1
			c0.3-0.4,0.4-0.8,0.5-1H142.7z"/>
		<path class="st17" d="M148.1,274.4h1.3v-1.3h-0.4c0,0.1-0.2,0.5-0.4,1c-0.2-0.1-0.5-0.2-0.7-0.3c0.2-0.3,0.6-1.1,0.8-2.4l0.8,0.1
			c0,0,0.1,0,0.1,0.1c0,0.1-0.1,0.1-0.2,0.1c0,0.2-0.1,0.4-0.1,0.6h2v0.7h-1.1v1.3h1.2v0.8h-1.2v2.2h-0.8v-2.2h-1.3V275
			c0,0-0.3,0.2-0.5,0.5c-0.1-0.2-0.2-0.3-0.4-0.8v2.6h-0.7v-2.3c-0.2,0.4-0.3,0.7-0.5,1.1c-0.2-0.2-0.4-0.3-0.7-0.5
			c0.2-0.3,0.8-1,1.1-2.3h-0.9v-0.7h0.9v-1.2l0.8,0.1c0.1,0,0.1,0,0.1,0.1c0,0.1-0.1,0.1-0.2,0.1v1h0.8v0.7h-0.8v0
			c0.2,0.5,0.5,1,0.9,1.4V274.4L148.1,274.4z"/>
	</g>
	<g>
		<path class="st17" d="M143.1,251.3c0.1,0,0.2,0,0.2,0.1c0,0.1-0.1,0.1-0.2,0.1v2c0,1.4-0.1,2.6-0.9,3.5c-0.2-0.2-0.4-0.3-0.7-0.4
			c0.7-0.9,0.8-1.7,0.8-3.2v-2.2L143.1,251.3L143.1,251.3z M145,251.6c0.1,0,0.1,0,0.1,0.1c0,0.1-0.1,0.1-0.1,0.1v4.6h-0.8v-4.8
			L145,251.6L145,251.6z M146.9,251.2c0.1,0,0.1,0,0.1,0.1c0,0,0,0.1-0.1,0.1c0,0-0.1,0-0.1,0.1v5.6h-0.8v-5.8L146.9,251.2
			L146.9,251.2z"/>
		<path class="st17" d="M150.1,251.3h1.6v4.8c0.2-0.7,0.3-1.3,0.3-2.2v-2.6h1.7v5c0,0.4,0,0.8-1,0.7c0-0.3-0.1-0.5-0.2-0.8
			c0.2,0,0.3,0,0.3,0c0.2,0,0.2-0.1,0.2-0.2v-1.2h-0.5c0,0.8-0.2,1.5-0.5,2.1c-0.2-0.2-0.3-0.2-0.4-0.3c-0.2,0.2-0.5,0.3-0.9,0.3
			c0-0.2-0.1-0.4-0.3-0.7c0.6,0,0.8,0,0.8-0.3v-1.1h-0.5c-0.1,1.3-0.6,2.1-0.7,2.1c-0.2-0.2-0.3-0.2-0.5-0.4c0.2-0.4,0.6-0.9,0.7-2
			c-0.2,0.1-0.4,0.5-0.4,0.5c-0.1-0.1-0.1-0.3-0.2-0.6v2.4h-0.7v-2.2c-0.1,0.4-0.2,0.7-0.4,1c-0.1-0.1-0.2-0.2-0.3-0.3
			c-0.1-0.1-0.2-0.1-0.3-0.2c0.2-0.4,0.6-1.2,1-2.4H148v-0.6h0.8v-1.2l0.7,0c0.1,0,0.1,0,0.1,0.1s-0.1,0.1-0.1,0.1v1h0.6v0.6h-0.6v0
			c0.2,0.6,0.4,1.1,0.7,1.5c0-0.2,0-0.4,0-0.6L150.1,251.3L150.1,251.3z M150.7,252.7h0.5v-0.8h-0.5V252.7z M151.2,254.2v-0.9h-0.5
			v0.9H151.2z M153,252.7v-0.8h-0.5v0.8H153z M153,254.2v-0.9h-0.5v0.9H153z"/>
	</g>
	<g>
		<path class="st17" d="M115.6,263.2c0.1,0,0.1,0,0.1,0.1c0,0,0,0.1-0.1,0.1c-0.4,2-1.1,3.3-1.8,4.1c-0.2-0.2-0.7-0.3-0.8-0.4
			c1.2-1.3,1.5-2.7,1.7-4.1L115.6,263.2L115.6,263.2z M117.2,262.8c0.8,1,1.5,2.3,1.9,4c-0.3,0.1-0.8,0.4-0.9,0.5
			c-0.4-2-1.2-3.3-1.8-4L117.2,262.8L117.2,262.8z"/>
		<path class="st17" d="M124.2,263.3c0.2,0,0.3,0,0.5-0.1l0.5,0.4c-0.1,0.2-0.2,0.9-0.3,1.1c-0.5,1.8-1.2,2.7-2.7,3.4
			c-0.2-0.3-0.3-0.4-0.7-0.6c1.9-0.7,2.4-2.4,2.6-3.4h-3.3v1.5H120v-2.2h2v-1l0.9,0c0.1,0,0.1,0,0.1,0.1c0,0.1-0.1,0.1-0.1,0.1v0.8
			H124.2L124.2,263.3z"/>
		<path class="st17" d="M126.7,263.5v-0.8h3.2c0.1,0,0.3,0,0.4,0l0.4,0.5c-0.1,0.2-0.2,0.3-0.2,0.4c-0.3,0.6-0.4,1-0.8,1.6
			c0.5,0.4,1.5,1.2,2,1.9c-0.2,0.2-0.6,0.6-0.7,0.7c-0.4-0.5-0.9-1.2-1.8-1.9c-0.4,0.6-1.5,1.5-2.6,2c-0.2-0.4-0.3-0.5-0.6-0.8
			c0.4-0.1,1.3-0.5,2.3-1.5c0.7-0.7,0.9-1.3,1.2-2.1L126.7,263.5L126.7,263.5z"/>
		<path class="st17" d="M110.1,272v-0.8h5.4v0.8h-2.1c0,1.1-0.4,1.7-0.7,2.1c-0.2,0.3-0.7,0.7-1.4,0.9c-0.2-0.3-0.5-0.5-0.6-0.7
			c1.7-0.5,1.9-1.5,1.9-2.3H110.1L110.1,272z M114.7,269.5v0.8H111v-0.8H114.7z"/>
		<path class="st17" d="M117.3,269.4c0.9,0.5,1.4,0.8,1.7,1.1c-0.1,0.1-0.2,0.3-0.5,0.7c-0.8-0.7-1.4-1-1.7-1.1L117.3,269.4
			L117.3,269.4z M116.8,273.9c1.5-0.3,3.5-1.4,4.8-3.5c0.2,0.4,0.3,0.5,0.6,0.8c-0.4,0.6-1.6,2.5-4.6,3.5c0,0.1,0,0.1-0.1,0.1
			c0,0-0.1,0-0.1-0.1L116.8,273.9L116.8,273.9z"/>
		<path class="st17" d="M124.8,272.3c0.1,0,0.1,0.1,0.1,0.1c0,0.1-0.1,0.1-0.2,0.1c-0.5,0.8-0.7,1-1.3,1.7c-0.2-0.2-0.5-0.4-0.7-0.5
			c0.7-0.5,1.1-1.2,1.4-1.7L124.8,272.3L124.8,272.3z M125.2,269.3l0.9,0c0.1,0,0.1,0,0.1,0.1c0,0-0.1,0.1-0.1,0.1v1.2h2.1v0.8h-2.1
			v2.4c0,0.4,0,1-1,1c-0.1,0-0.3,0-0.4,0c0-0.1,0-0.4-0.3-0.9c0.2,0,0.4,0.1,0.6,0.1c0.3,0,0.3-0.1,0.3-0.5v-2.1H123v-0.8h2.2
			L125.2,269.3L125.2,269.3z M127.2,271.9c0.5,0.5,1.1,1.3,1.3,1.6c-0.2,0.2-0.5,0.5-0.7,0.6c-0.3-0.6-0.9-1.3-1.3-1.7L127.2,271.9
			L127.2,271.9z M127.6,269.5c0.2,0.1,0.5,0.5,0.6,0.6c-0.1,0.1-0.2,0.2-0.4,0.4c-0.1-0.2-0.4-0.5-0.6-0.7L127.6,269.5L127.6,269.5z
			 M128.2,269c0.2,0.1,0.5,0.5,0.6,0.6c-0.1,0.1-0.3,0.2-0.4,0.4c-0.1-0.1-0.4-0.4-0.6-0.6L128.2,269L128.2,269z"/>
		<path class="st17" d="M129.9,270.5v-0.8h3.2c0.1,0,0.3,0,0.4,0l0.4,0.5c-0.1,0.2-0.2,0.3-0.2,0.4c-0.3,0.6-0.4,1-0.8,1.6
			c0.5,0.4,1.5,1.2,2,1.9c-0.2,0.2-0.6,0.6-0.7,0.7c-0.4-0.5-0.9-1.2-1.8-1.9c-0.4,0.6-1.5,1.5-2.6,2c-0.2-0.4-0.3-0.5-0.6-0.8
			c0.4-0.1,1.3-0.5,2.3-1.5c0.7-0.7,0.9-1.3,1.2-2.1L129.9,270.5L129.9,270.5z"/>
	</g>
	<g>
		<path class="st17" d="M138,235.8c0.1,0,0.1,0,0.1,0.1s0,0.1-0.1,0.1c0,0.1,0,0.2-0.1,0.4h2.9v0.7h-3.2c-0.1,0.3-0.2,0.5-0.3,0.6
			h2.7v3.1c0,0.6-0.3,0.9-1.4,0.8c0-0.3-0.1-0.6-0.2-0.8c0.2,0.1,0.4,0.1,0.5,0.1c0.3,0,0.3-0.1,0.3-0.3v-0.4h-2v1.4h-0.8v-2.7
			c-0.4,0.4-0.7,0.6-0.9,0.7c-0.2-0.2-0.3-0.3-0.6-0.5c0.4-0.2,1.4-0.8,1.9-2h-1.8v-0.7h2.1c0.1-0.3,0.1-0.6,0.1-0.8L138,235.8
			L138,235.8z M139.2,238.7v-0.4h-2v0.4H139.2z M137.1,239.3v0.4h2v-0.4H137.1z"/>
		<path class="st17" d="M142.5,241.1v0.3h-0.8v-5.3h5.2v5.3H146v-0.3H142.5z M143.9,238.3v-1.4h-1.4v1.4H143.9z M143.9,240.4V239
			h-1.4v1.4H143.9z M146,238.3v-1.4h-1.4v1.4H146z M144.6,239v1.4h1.4V239H144.6z"/>
	</g>
	<g>
		<path class="st17" d="M107.2,245.5h2.5v0.7h-2.5v1.5h-0.9v-1.5h-2.5v-0.7h2.5v-0.6h-1.9V242h4.6v2.9h-1.9L107.2,245.5L107.2,245.5
			z M108.3,243.2v-0.5h-3v0.5H108.3z M108.3,244.3v-0.5h-3v0.5H108.3z"/>
		<path class="st17" d="M111.2,245.8v-4l0.6,0c0.1,0,0.1,0,0.1,0.1c0,0.1-0.1,0.1-0.2,0.1v3.8h0.3v-3.1l0.6,0c0.1,0,0.2,0,0.2,0.1
			c0,0.1-0.1,0.1-0.1,0.1v3.9h-0.6v-0.3H111v0.7h-0.6v-4.5l0.6,0c0.1,0,0.1,0,0.1,0.1c0,0.1-0.1,0.1-0.2,0.1v2.8L111.2,245.8
			L111.2,245.8z M115.7,244.2l0.3,0.3c-0.2,0.6-0.5,1.2-1.1,1.9c0.5,0.4,0.9,0.5,1.6,0.7c-0.2,0.1-0.3,0.3-0.5,0.7
			c-0.8-0.2-1.3-0.6-1.6-0.9c-0.1,0.1-0.9,0.6-1.7,0.9c-0.1-0.1-0.2-0.5-0.5-0.7c0.8-0.2,1.4-0.5,1.7-0.7c-0.4-0.5-0.5-0.8-0.7-1.1
			l0.6-0.3h-0.8v-0.7h1v-0.9h-1.1v-0.7h1.1v-0.7l0.8,0c0.1,0,0.1,0,0.1,0.1c0,0.1-0.1,0.1-0.1,0.2v0.5h1.4v0.7h-1.4v0.9H115.7
			L115.7,244.2z M113.7,245c0.2,0.4,0.4,0.7,0.6,1c0.1-0.1,0.5-0.5,0.6-1H113.7L113.7,245z"/>
	</g>
	<g>
		<path class="st17" d="M88.2,232.7v-0.7h1.3c0-0.6,0-0.9,0-1.2l0.8,0c0,0,0.1,0,0.1,0.1c0,0.1,0,0.1-0.1,0.2c0,0.3,0,0.6-0.1,0.9
			h2.1v0.7h-2.2c0,0.2-0.1,0.4-0.2,0.8h2.2v0.8h-1v1.5h1.2v0.7H89v-0.7h1.4v-1.5h-0.7c-0.4,0.9-0.8,1.4-1.2,1.8
			c-0.2-0.2-0.4-0.4-0.6-0.5v1h-0.8v-3.2c-0.1,0.2-0.2,0.3-0.3,0.4c-0.1-0.2-0.4-0.5-0.5-0.6c0.5-0.6,1-1.5,1.3-2.5l0.7,0.3
			c0,0,0.1,0,0.1,0.1c0,0.1-0.1,0.1-0.2,0.1c-0.2,0.5-0.3,0.6-0.5,1c0.2,0.1,0.2,0.1,0.2,0.1c0,0.1-0.1,0.1-0.1,0.1v3.1
			c0.9-0.8,1.3-1.8,1.4-2.8L88.2,232.7L88.2,232.7z"/>
		<path class="st17" d="M93.8,230.9l0.8,0c0.1,0,0.1,0,0.1,0.1c0,0.1-0.1,0.1-0.2,0.1v1.1h0.9v-1.6l0.8,0c0.1,0,0.1,0,0.1,0.1
			c0,0,0,0.1-0.1,0.1v1.4h0.9v-1.4l0.8,0c0.1,0,0.1,0,0.1,0.1c0,0,0,0.1-0.2,0.1v1.2h1v0.7h-1v2.1h-0.8v-0.3h-0.9v0.4h-0.8V233h-0.9
			v2.6h3.8v0.7h-3.8v0.3h-0.8V233h-0.9v-0.7h0.9V230.9L93.8,230.9z M97.2,233h-0.9v1.1h0.9V233z"/>
		<path class="st17" d="M100.8,236.6H100v-3.2c-0.2,0.3-0.3,0.4-0.3,0.4c-0.1-0.2-0.3-0.5-0.5-0.6c0.9-1.1,1.3-2.3,1.4-2.5l0.7,0.3
			c0,0,0.1,0,0.1,0.1s-0.1,0.1-0.2,0.1c-0.2,0.4-0.4,0.9-0.5,1.1c0.1,0,0.2,0.1,0.2,0.1s-0.1,0.1-0.1,0.1L100.8,236.6L100.8,236.6z
			 M103.6,236.6h-0.8V235c-0.5,0.7-1,1.1-1.4,1.4c-0.1-0.2-0.2-0.3-0.6-0.5c0.7-0.4,1.3-1,1.6-1.4H101v-0.7h1.8v-0.5h-1.3v-2.2h3.3
			v2.2h-1.1c0,0.1-0.1,0.1-0.2,0.1v0.4h1.6v0.7h-1.4c0.1,0.1,0.7,0.9,1.6,1.4c-0.2,0.2-0.4,0.3-0.6,0.6c-0.3-0.2-0.8-0.6-1.3-1.3
			L103.6,236.6L103.6,236.6z M102.4,231.6v0.8h1.6v-0.8H102.4z"/>
	</g>
	<g>
		<path class="st17" d="M70.5,213.2v-0.7h1.3c0-0.6,0-0.9,0-1.2l0.8,0c0,0,0.1,0,0.1,0.1c0,0.1,0,0.1-0.1,0.2c0,0.3,0,0.6-0.1,0.9
			h2.1v0.7h-2.2c0,0.2-0.1,0.4-0.2,0.8h2.2v0.8h-1v1.5h1.2v0.7h-3.4v-0.7h1.4v-1.5h-0.7c-0.4,0.9-0.8,1.4-1.2,1.8
			c-0.2-0.2-0.4-0.4-0.6-0.5v1h-0.8v-3.2c-0.1,0.2-0.2,0.3-0.3,0.4c-0.1-0.2-0.4-0.5-0.5-0.6c0.5-0.6,1-1.5,1.3-2.5l0.7,0.3
			c0,0,0.1,0,0.1,0.1c0,0.1-0.1,0.1-0.2,0.1c-0.2,0.5-0.3,0.6-0.5,1c0.2,0.1,0.2,0.1,0.2,0.1c0,0.1-0.1,0.1-0.1,0.1v3.1
			c0.9-0.8,1.3-1.8,1.4-2.8L70.5,213.2L70.5,213.2z"/>
		<path class="st17" d="M81,213.3c-0.2,0.1-0.2,0.2-0.2,0.2c-0.5,0.5-1.2,1.4-1.8,2.1c0.1,0.1,0.4,0.4,0.6,0.7l-0.5,0.7
			c-0.7-0.9-1.2-1.3-2-1.9l0.6-0.6c0.3,0.1,0.6,0.4,0.7,0.5c0.3-0.3,0.9-1,1.1-1.3h-1.8c-0.6,0.8-0.9,1.1-1.7,1.8l-0.6-0.6
			c0.8-0.6,1.8-1.4,2.6-3.4c0.2,0.1,0.7,0.3,0.9,0.4c0,0,0.1,0,0.1,0.1c0,0.1-0.1,0.1-0.1,0.1c-0.1,0-0.1,0.1-0.1,0.1
			c-0.1,0.2-0.3,0.5-0.4,0.7h1.4c0.2,0,0.6,0,0.7-0.1L81,213.3L81,213.3z"/>
	</g>
	<g>
		<path class="st17" d="M93.8,191.1h-0.8v-2.2c-0.2,0.5-0.3,0.8-0.5,1.1c-0.3-0.3-0.4-0.4-0.6-0.5c0.6-0.7,0.9-1.8,1.1-2.4h-0.9
			v-0.7h0.9v-1.2l0.8,0c0.1,0,0.1,0,0.1,0.1c0,0.1-0.1,0.1-0.1,0.1v0.9h0.8v0.6c0.3-0.6,0.4-1.1,0.4-1.5l0.8,0.2
			c0.1,0,0.1,0,0.1,0.1c0,0.1-0.1,0.1-0.2,0.1c-0.1,0.3-0.4,1.4-0.9,2.1c-0.2-0.2-0.4-0.2-0.7-0.4c0.3-0.4,0.4-0.4,0.4-0.6h-0.7v0.1
			c0.2,0.4,0.4,0.9,0.8,1.4c-0.2,0.2-0.4,0.3-0.6,0.5c-0.1-0.2-0.2-0.3-0.3-0.6L93.8,191.1L93.8,191.1z M96.3,187.5
			C96.4,187.5,96.4,187.6,96.3,187.5c0.1,0.2,0,0.2-0.1,0.2c-0.1,0.6-0.4,1.6-0.7,2.2c0.2,0,0.8-0.1,1.2-0.2
			c-0.2-0.6-0.5-0.9-0.6-1.1l0.7-0.3c0.1,0.3,0.7,1.2,1,2.4c-0.2,0.1-0.5,0.2-0.8,0.3c-0.1-0.3-0.1-0.5-0.2-0.7
			c-0.5,0.1-1,0.2-2.5,0.4c0,0-0.1,0-0.1,0c-0.1,0.1-0.1,0.2-0.1,0.2c0,0-0.1,0-0.1-0.1l-0.1-0.8c0.1,0,0.5,0,0.6-0.1
			c0.1-0.3,0.6-1.9,0.8-2.7L96.3,187.5L96.3,187.5z M97.1,185.3c0,0.6,0.1,1.5,1,2.3c-0.2,0.1-0.3,0.2-0.6,0.5
			c-0.4-0.3-0.9-1.1-1.1-2.1H96v-0.7L97.1,185.3L97.1,185.3z"/>
		<path class="st17" d="M98.7,186.7c0.1,0.1,0.7,0.4,1,0.7c-0.1,0.1-0.1,0.2-0.4,0.6c-0.4-0.3-0.6-0.5-1-0.7L98.7,186.7L98.7,186.7z
			 M98.3,190.6c0.4-0.5,0.8-1.4,1.1-2.3c0.2,0.2,0.4,0.4,0.6,0.4c-0.2,0.6-0.6,1.5-0.9,2c0,0,0,0.1,0,0.1c0,0,0,0.1-0.1,0.1
			c0,0,0,0-0.1,0L98.3,190.6L98.3,190.6z M99.2,185.1c0.4,0.2,0.8,0.5,0.9,0.7c-0.2,0.2-0.3,0.3-0.5,0.6c-0.4-0.4-0.5-0.4-0.9-0.7
			L99.2,185.1L99.2,185.1z M102.6,189.7v1.2h-0.7v-1.2h-0.8v1.4h-0.8v-4.1h1.6v-0.4h-1.8v-0.6h1.8v-0.8l0.8,0c0.1,0,0.1,0,0.1,0.1
			c0,0.1-0.1,0.1-0.2,0.1v0.5h0.8c-0.2-0.2-0.4-0.4-0.6-0.5l0.5-0.4c0.2,0.1,0.6,0.4,0.8,0.6c-0.1,0.1-0.1,0.1-0.3,0.2h0.5v0.6h-1.7
			v0.4h1.6v3.4c0,0.7-0.4,0.8-1.1,0.7c-0.1-0.3-0.1-0.5-0.3-0.8c0.1,0,0.2,0,0.4,0c0.3,0,0.3,0,0.3-0.3v-0.3L102.6,189.7
			L102.6,189.7z M101.9,188v-0.4h-0.8v0.4H101.9z M101.9,189.1v-0.4h-0.8v0.4H101.9z M103.4,188v-0.4h-0.9v0.4H103.4z M103.4,189.1
			v-0.4h-0.9v0.4H103.4z"/>
	</g>
	<g>
		<path class="st17" d="M45.5,163.6c0.1,0,0.1,0,0.1,0.1c0,0,0,0.1-0.1,0.1c0,0.1-0.1,0.6-0.2,0.7c0.6-0.1,0.9-0.2,1.2-0.3l0.1,0.9
			c-0.3,0.1-0.7,0.2-1.5,0.3c-0.6,2.1-1.4,3.4-1.7,3.8c-0.3-0.2-0.4-0.2-0.8-0.4c0.4-0.4,1.2-1.6,1.6-3.3c-0.4,0-0.7,0-1.3,0.1
			l-0.1-0.9c0.2,0,0.4,0,0.6,0c0.1,0,0.5,0,0.9,0c0.1-0.6,0.1-0.9,0.2-1.2L45.5,163.6L45.5,163.6z M46,167.4
			c-0.1,0.1-0.2,0.3-0.2,0.5c0,0.3,0.8,0.3,1.1,0.3c0.5,0,0.9-0.1,1.4-0.2c0,0.1,0,0.2,0,0.4c0,0.2,0,0.3,0,0.4
			c-0.6,0.1-1,0.1-1.3,0.1c-0.6,0-1.9-0.1-1.9-1c0-0.3,0.1-0.5,0.3-0.9L46,167.4L46,167.4z M45.8,165.7c0.6-0.1,1.3-0.1,1.4-0.1
			c0.6,0,0.8,0,0.9,0.1c0,0.3-0.1,0.5-0.1,0.9c-0.2,0-0.5-0.1-0.9-0.1c-0.5,0-1.2,0.1-1.4,0.1L45.8,165.7L45.8,165.7z"/>
		<path class="st17" d="M51.6,164.3c-0.6,0.5-1.2,1.7-1.2,2.8s0.9,1.1,1.1,1.1c1.2,0,1.4-1.2,1.4-1.7c0-1.3-0.5-2.1-0.7-2.5l0.8-0.4
			c0.6,1,1.2,1.7,2,2.3c-0.2,0.2-0.3,0.4-0.4,0.7c-0.4-0.3-0.6-0.6-0.9-0.9c0,0.1,0.1,0.3,0.1,0.8c0,0.5,0,1-0.3,1.5
			c-0.2,0.4-0.7,1-1.8,1s-2-0.7-2-1.9c0-0.7,0.4-1.7,0.7-2.2c-0.3,0.1-0.8,0.3-1,0.3l-0.3-0.9c0.5-0.1,1.3-0.2,2-0.7L51.6,164.3
			L51.6,164.3z M54,163.7c0.1,0.1,0.4,0.5,0.6,0.6c-0.1,0.1-0.2,0.1-0.4,0.4c0,0-0.4-0.5-0.6-0.7L54,163.7z M54.5,163.2
			c0.2,0.1,0.4,0.4,0.6,0.6c-0.2,0.1-0.2,0.1-0.4,0.3c-0.2-0.2-0.3-0.4-0.6-0.6L54.5,163.2L54.5,163.2z"/>
		<path class="st17" d="M57.7,164.8c0,0,0.1,0,0.1,0.1c0,0.1-0.1,0.1-0.1,0.1c-0.2,0.3-0.4,0.9-0.4,1.3c0.7-0.6,1.5-0.7,2-0.7
			c1.1,0,1.6,0.8,1.6,1.5c0,1.2-1.2,2-3.3,2c-0.2,0-0.4,0-0.5,0c0-0.3-0.1-0.6-0.2-0.9c0.2,0,0.5,0.1,0.9,0.1c0.4,0,2.2-0.1,2.2-1.2
			c0-0.3-0.2-0.8-0.9-0.8c-1.1,0-1.9,0.9-2.1,1.1l-0.8-0.3c0.2-1.1,0.3-1.7,0.6-2.7L57.7,164.8L57.7,164.8z M57.4,163.4
			c0.5,0.1,1.4,0.3,2.2,0.7c-0.2,0.3-0.3,0.5-0.5,0.8c-0.6-0.4-1.4-0.7-2-0.8L57.4,163.4z"/>
		<path class="st17" d="M65.2,166.5h2.5v0.8h-2.5v2h-0.9v-2h-2.5v-0.8h2.5v-2.2h-2.2v-0.7h5.3v0.7h-2.2L65.2,166.5L65.2,166.5z
			 M63.2,164.6c0.3,0.4,0.6,1.1,0.7,1.5c-0.1,0-0.6,0.3-0.7,0.3c-0.1-0.3-0.4-1-0.7-1.5L63.2,164.6L63.2,164.6z M67,164.8
			c0,0,0.1,0,0.1,0.1s-0.1,0.1-0.2,0.1c-0.2,0.6-0.4,1-0.6,1.4c-0.1-0.1-0.6-0.3-0.8-0.3c0.2-0.4,0.6-1.2,0.7-1.6L67,164.8L67,164.8
			z"/>
		<path class="st17" d="M69.8,167.1c-0.1,1-0.4,1.6-0.8,2.2c-0.2-0.1-0.5-0.3-0.8-0.3c0.8-1,0.8-2.1,0.8-3.1v-1h4.6v2.6h-0.9v-0.3
			H69.8L69.8,167.1z M73.9,163.6v0.7h-5.6v-0.7H73.9z M72.7,166.4v-0.8h-2.9c0,0.3,0,0.6,0,0.8H72.7z"/>
		<path class="st17" d="M75.8,168.5v0.3H75V164h5.1v4.8h-0.8v-0.3H75.8z M79.3,167.8v-3h-3.4v3H79.3z"/>
	</g>
	<g>
		<path class="st17" d="M138.1,325.2c0.2,0,0.5,0,1-0.1v-1.4H138V323h1.2v-2.8h4.1v0.6H140v0.3h2.9v0.6H140v0.4h2.9v0.6H140v0.4h3.9
			v0.6h-1l0.4,0.3c0,0,0.1,0.1,0.1,0.1c0,0.1,0,0.1-0.2,0.1c-0.2,0.2-0.3,0.2-0.8,0.6c0.3,0.2,0.8,0.5,1.4,0.6
			c-0.1,0.1-0.3,0.2-0.6,0.6c-0.5-0.2-1.4-0.7-1.9-1.2c-0.1,0.4-0.1,0.5-0.1,0.6c-0.7,0.2-1.9,0.4-2.7,0.6c0,0.1-0.1,0.1-0.1,0.1
			c-0.1,0-0.1,0-0.1-0.1L138.1,325.2L138.1,325.2z M139.9,324.9c0.7-0.1,1.1-0.2,1.4-0.3c-0.4-0.4-0.6-0.9-0.7-1h-0.7V324.9
			L139.9,324.9z M141.4,323.6c0.1,0.2,0.3,0.4,0.5,0.6c0.2-0.2,0.4-0.4,0.6-0.6H141.4L141.4,323.6z"/>
		<path class="st17" d="M149.3,322.2c0,0.6-0.1,1-0.1,1.3h1.1v0.7h-1.2c-0.3,1.5-0.4,1.7-1.6,1.7c-0.2,0-0.3,0-0.4,0
			c-0.1-0.5-0.2-0.7-0.3-0.9c0.2,0,0.4,0.1,0.8,0.1s0.5,0,0.7-0.9h-4v-0.7h4.1c0-0.4,0-0.5,0.1-0.6H146c-0.1,0.2-0.1,0.2-0.1,0.3
			c-0.3-0.1-0.5-0.1-0.9-0.1c0.6-1.3,0.8-2.6,0.9-3.1l0.9,0.1c0,0,0.1,0,0.1,0.1s-0.1,0.1-0.2,0.1c0,0.1,0,0.2-0.1,0.5h3.2v0.8h-3.4
			c-0.1,0.5-0.1,0.5-0.2,0.7H149.3L149.3,322.2z"/>
	</g>
	<g>
		<path class="st17" d="M264.5,344.3h-0.8v-1.5l0.8,0c0.1,0,0.1,0,0.1,0.1c0,0.1-0.1,0.1-0.1,0.1v0.4h0.8v-0.7h-1v-3.6h1.1
			c0.1-0.3,0.2-0.4,0.2-0.6l0.9,0.1c0.1,0,0.1,0,0.1,0.1c0,0.1-0.1,0.1-0.2,0.1c0,0.1-0.1,0.2-0.1,0.3h2.2v2.1h-3.4v0.3h4.3v0.5
			h-4.3v0.3h4.2c0,0.6-0.1,1.5-0.4,1.9c-0.3,0.4-0.5,0.4-1.3,0.4c0-0.2-0.1-0.3-0.1-0.5h-3.1L264.5,344.3L264.5,344.3z M265.2,339.9
			h2.6v-0.3h-2.6V339.9z M267.7,340.3h-2.6v0.3h2.6V340.3z M266.9,343.4v-0.6l0.8,0c0.1,0,0.2,0,0.2,0.1c0,0.1-0.1,0.1-0.2,0.1v0.6
			c0.2,0,0.3,0,0.4,0c0.3,0,0.3-0.1,0.4-0.2c0-0.1,0.1-0.5,0.1-0.8h-2.8l0.4,0c0.1,0,0.2,0,0.2,0.1c0,0.1-0.1,0.1-0.2,0.1v0.5H266.9
			z"/>
		<path class="st17" d="M273.9,343.7c0,0.7-0.4,0.7-1.1,0.7c-0.1-0.3-0.1-0.4-0.4-0.8c0.1,0,0.3,0.1,0.4,0.1c0.2,0,0.2,0,0.2-0.3
			v-1.1h-1.4v-2.4h1.1c0.1-0.3,0.1-0.4,0.2-0.5h-1.7v0.8c0,1.2,0,2.9-0.8,4.1c-0.1-0.1-0.5-0.2-0.7-0.3c0.6-1,0.8-1.6,0.8-3.8v-1.4
			h5.2v0.6h-1.8c0,0,0,0,0,0c0,0.1-0.1,0.1-0.2,0.1c-0.1,0.2-0.1,0.3-0.1,0.3h1.6v2.4h-1.4L273.9,343.7L273.9,343.7z M272.8,342.8
			C272.8,342.8,272.9,342.8,272.8,342.8c0.1,0.1,0,0.2-0.1,0.2c-0.3,0.5-0.5,0.9-0.9,1.2c-0.2-0.2-0.5-0.3-0.7-0.4
			c0.6-0.5,0.8-0.9,1-1.3L272.8,342.8L272.8,342.8z M272.5,340.8h2v-0.4h-2V340.8z M274.5,341.3h-2v0.4h2V341.3z M274.8,342.5
			c0.3,0.2,0.9,0.9,1.1,1.3c-0.4,0.3-0.4,0.3-0.6,0.5c-0.1-0.2-0.6-0.9-1.1-1.4L274.8,342.5L274.8,342.5z"/>
		<path class="st17" d="M276.7,340.1c0.4,0.2,0.9,0.5,1.1,0.6c-0.2,0.3-0.3,0.4-0.4,0.7c-0.4-0.3-0.9-0.5-1.1-0.6L276.7,340.1
			L276.7,340.1z M276.3,344c0.4-0.6,0.6-1.2,0.9-1.9c0.3,0.2,0.4,0.3,0.7,0.4c-0.3,0.8-0.4,1-0.7,1.7c0,0.1,0,0.1,0,0.1
			c0,0,0,0.1-0.1,0.1c0,0-0.1,0-0.1,0L276.3,344L276.3,344z M277.2,338.5c0.1,0.1,0.6,0.3,1,0.6c-0.2,0.2-0.3,0.4-0.4,0.6
			c-0.4-0.3-0.6-0.5-1-0.6L277.2,338.5L277.2,338.5z M279.5,343.4c0,0.2,0,0.3,0.2,0.3h1.2c0.3,0,0.4-0.3,0.4-0.7
			c0.3,0.2,0.5,0.3,0.7,0.4c-0.2,0.9-0.6,0.9-1,0.9h-1.5c-0.4,0-0.8,0-0.8-0.7v-1.1h1.7v-0.4H279c-0.3,0.3-0.5,0.4-0.7,0.6
			c-0.1-0.2-0.3-0.4-0.5-0.5c0.7-0.4,1-0.9,1.2-1.1h-1v-0.7h1v-0.5h-0.7v-0.6h0.7v-0.7l0.8,0c0,0,0.1,0,0.1,0.1s-0.1,0.1-0.2,0.1
			v0.5h0.7v-0.8l0.8,0c0,0,0.1,0,0.1,0.1s-0.1,0.1-0.1,0.1v0.5h0.8v0.6h-0.8v0.5h1.1v0.7h-1c0.4,0.5,0.8,0.8,1.2,1
			c-0.2,0.2-0.3,0.3-0.5,0.6c-0.4-0.3-0.7-0.5-0.7-0.6v1.2h-0.7v-0.2h-1V343.4L279.5,343.4z M280.7,341.6c-0.1-0.2-0.2-0.3-0.3-0.5
			h-0.6c-0.1,0.1-0.1,0.2-0.3,0.5H280.7L280.7,341.6z M280.4,339.9h-0.7v0.5h0.7V339.9z"/>
	</g>
	<g>
		<path class="st18" d="M130.7,192.8H130v-2.2c-0.2,0.5-0.3,0.8-0.5,1.1c-0.3-0.3-0.4-0.4-0.6-0.5c0.6-0.7,0.9-1.8,1.1-2.4H129v-0.7
			h0.9v-1.2l0.8,0c0.1,0,0.1,0,0.1,0.1c0,0.1-0.1,0.1-0.1,0.1v0.9h0.8v0.6c0.3-0.6,0.4-1.1,0.4-1.5l0.8,0.2c0.1,0,0.1,0,0.1,0.1
			c0,0.1-0.1,0.1-0.2,0.1c-0.1,0.3-0.4,1.4-0.9,2.1c-0.2-0.2-0.4-0.2-0.7-0.4c0.3-0.4,0.4-0.4,0.4-0.6h-0.7v0.1
			c0.2,0.4,0.4,0.9,0.8,1.4c-0.2,0.2-0.4,0.3-0.6,0.5c-0.1-0.2-0.2-0.3-0.3-0.6L130.7,192.8L130.7,192.8z M133.2,189.3
			C133.3,189.3,133.3,189.3,133.2,189.3c0.1,0.2,0,0.2-0.1,0.2c-0.1,0.6-0.4,1.6-0.7,2.2c0.2,0,0.8-0.1,1.2-0.2
			c-0.2-0.6-0.5-0.9-0.6-1.1l0.7-0.3c0.1,0.3,0.7,1.2,1,2.4c-0.2,0.1-0.5,0.2-0.8,0.3c-0.1-0.3-0.1-0.5-0.2-0.7
			c-0.5,0.1-1,0.2-2.5,0.4c0,0-0.1,0-0.1,0c-0.1,0.1-0.1,0.2-0.1,0.2c0,0-0.1,0-0.1-0.1l-0.1-0.8c0.1,0,0.5,0,0.6-0.1
			c0.1-0.3,0.6-1.9,0.8-2.7L133.2,189.3L133.2,189.3z M134,187c0,0.6,0.1,1.5,1,2.3c-0.2,0.1-0.3,0.2-0.6,0.5
			c-0.4-0.3-0.9-1.1-1.1-2.1h-0.4V187L134,187L134,187z"/>
		<path class="st18" d="M135.6,188.4c0.1,0.1,0.7,0.4,1,0.7c-0.1,0.1-0.1,0.2-0.4,0.6c-0.4-0.3-0.6-0.5-1-0.7L135.6,188.4
			L135.6,188.4z M135.2,192.4c0.4-0.5,0.8-1.4,1.1-2.3c0.2,0.2,0.4,0.4,0.6,0.4c-0.2,0.6-0.6,1.5-0.9,2c0,0,0,0.1,0,0.1
			c0,0,0,0.1-0.1,0.1c0,0,0,0-0.1,0L135.2,192.4L135.2,192.4z M136.1,186.8c0.4,0.2,0.8,0.5,0.9,0.7c-0.2,0.2-0.3,0.3-0.5,0.6
			c-0.4-0.4-0.5-0.4-0.9-0.7L136.1,186.8L136.1,186.8z M139.5,191.4v1.2h-0.7v-1.2H138v1.4h-0.8v-4.1h1.6v-0.4H137v-0.6h1.8v-0.8
			l0.8,0c0.1,0,0.1,0,0.1,0.1c0,0.1-0.1,0.1-0.2,0.1v0.5h0.8c-0.2-0.2-0.4-0.4-0.6-0.5l0.5-0.4c0.2,0.1,0.6,0.4,0.8,0.6
			c-0.1,0.1-0.1,0.1-0.3,0.2h0.5v0.6h-1.7v0.4h1.6v3.4c0,0.7-0.4,0.8-1.1,0.7c-0.1-0.3-0.1-0.5-0.3-0.8c0.1,0,0.2,0,0.4,0
			c0.3,0,0.3,0,0.3-0.3v-0.3L139.5,191.4L139.5,191.4z M138.8,189.7v-0.4H138v0.4H138.8z M138.8,190.8v-0.4H138v0.4H138.8z
			 M140.3,189.7v-0.4h-0.9v0.4H140.3z M140.3,190.8v-0.4h-0.9v0.4H140.3z"/>
		<path class="st18" d="M147.3,192.8c-0.4-0.3-1-1.1-1.3-1.7c-0.4,0.8-0.8,1.3-1.4,1.7c-0.2-0.2-0.3-0.3-0.7-0.5
			c0.1-0.1,0.2-0.1,0.3-0.2c-0.3,0.1-0.5,0.2-2.2,0.6c0,0.1,0,0.2-0.1,0.2c0,0-0.1,0-0.1-0.1l-0.1-0.7c0.2,0,0.8-0.1,1-0.2v-0.3
			c0,0-0.3,0.1-0.7,0.2c-0.1-0.4-0.1-0.6-0.2-1.1l0.6-0.1c0.1,0.2,0.2,0.7,0.3,0.9v-1.2h-0.9v-0.6h0.9v-0.5h-0.5v-0.5
			c-0.1,0.1-0.2,0.1-0.2,0.2c-0.2-0.3-0.3-0.4-0.5-0.5c0.6-0.4,1.1-0.9,1.4-1.5l0.7,0.2c0,0,0.1,0,0.1,0.1s0,0.1-0.2,0.1
			c0.4,0.5,0.6,0.6,0.9,0.8c-0.1,0.1-0.3,0.3-0.5,0.5c-0.2-0.2-0.4-0.3-0.8-0.8c-0.1,0.1-0.3,0.4-0.7,0.8h1.6v0.5
			c0.3-0.5,0.5-1.1,0.5-1.9l0.8,0.1c0.1,0,0.1,0,0.1,0.1c0,0.1-0.1,0.1-0.2,0.1c0,0.2,0,0.3-0.1,0.5h0.4V187l0.8,0
			c0.1,0,0.1,0,0.1,0.1c0,0.1-0.1,0.1-0.1,0.1v0.9h1.1v0.6h-1.1v0.8h1.3v0.6h-1.2c0.2,0.9,0.7,1.6,1.4,2
			C147.6,192.3,147.4,192.6,147.3,192.8L147.3,192.8z M145.6,188.7H145c-0.1,0.4-0.2,0.6-0.3,0.7c-0.2-0.1-0.3-0.2-0.7-0.3v0.1h-0.6
			v0.5h0.7v0.6h-0.7v1c0.1-0.3,0.3-0.7,0.3-0.9l0.6,0.2c0,0,0.1,0,0.1,0.1c0,0.1-0.1,0.1-0.2,0.1c-0.1,0.3-0.2,0.5-0.3,0.8
			c0.1,0,0.2-0.1,0.3-0.1c0,0.1,0,0.3,0,0.4c0,0.1,0,0.1,0,0.2c0.9-0.6,1.2-1.6,1.2-2h-1.1v-0.6h1.2V188.7L145.6,188.7z
			 M143.5,191.3v0.4c0.1,0,0.4-0.1,0.5-0.1C143.9,191.5,143.7,191.4,143.5,191.3z"/>
		<path class="st18" d="M149.8,189.4v2c0,0.1,0,0.3,0.3,0.4c0.3,0.2,0.7,0.2,1.4,0.2c1.4,0,2.3-0.1,2.7-0.1
			c-0.1,0.2-0.2,0.5-0.2,0.8h-2.9c-0.9,0-1.3-0.1-1.7-0.6c-0.1,0.1-0.6,0.5-0.7,0.6c0,0,0,0.1,0,0.1c0,0.1,0,0.1-0.1,0.1
			c0,0-0.1-0.1-0.1-0.1l-0.4-0.7c0.2-0.1,0.4-0.2,0.8-0.5v-1.5h-0.8v-0.7L149.8,189.4L149.8,189.4z M148.8,187c0.1,0.1,0.6,0.4,1,1
			c-0.2,0.2-0.5,0.5-0.5,0.6c-0.4-0.4-0.7-0.7-1-1L148.8,187L148.8,187z M153.7,188.6v3.2h-0.8v-0.2h-1.7v0.2h-0.8v-3.2h0.9
			c0-0.1,0.1-0.3,0.1-0.4H150v-0.6h0.9c-0.1-0.2-0.2-0.3-0.4-0.5l0.6-0.3c0.3,0.3,0.4,0.5,0.5,0.7c-0.1,0-0.2,0.1-0.3,0.1h1
			c0.2-0.3,0.2-0.5,0.4-0.8l0.7,0.2c0.1,0,0.1,0,0.1,0.1c0,0.1-0.1,0.1-0.1,0.1c0,0.1-0.2,0.3-0.2,0.4h0.9v0.6h-1.8
			c-0.1,0.2-0.1,0.3-0.2,0.4L153.7,188.6L153.7,188.6z M152.9,189.4v-0.3h-1.7v0.3H152.9z M152.9,190.2v-0.4h-1.7v0.4H152.9z
			 M152.9,191.1v-0.4h-1.7v0.4H152.9z"/>
	</g>
	<g>
		<path class="st17" d="M245.5,216.3v-0.7h1.3c0-0.6,0-0.9,0-1.2l0.8,0c0,0,0.1,0,0.1,0.1c0,0.1,0,0.1-0.1,0.2c0,0.3,0,0.6-0.1,0.9
			h2.1v0.7h-2.2c0,0.2-0.1,0.4-0.2,0.8h2.2v0.8h-1v1.5h1.2v0.7h-3.4v-0.7h1.4v-1.5H247c-0.4,0.9-0.8,1.4-1.2,1.8
			c-0.2-0.2-0.4-0.4-0.5-0.5v1h-0.8V217c-0.1,0.2-0.2,0.3-0.3,0.4c-0.1-0.2-0.4-0.5-0.5-0.6c0.5-0.6,1-1.5,1.3-2.5l0.7,0.3
			c0,0,0.1,0,0.1,0.1c0,0.1-0.1,0.1-0.2,0.1c-0.2,0.5-0.3,0.6-0.5,1c0.2,0.1,0.2,0.1,0.2,0.1c0,0.1,0,0.1-0.1,0.1v3.1
			c0.9-0.8,1.3-1.8,1.5-2.8L245.5,216.3L245.5,216.3z"/>
		<path class="st17" d="M253.2,214.8c0,1.7-0.3,1.7-1.3,1.7c0-0.1,0-0.3-0.1-0.6c0.1,0,0.3,0,0.4,0c0.2,0,0.3-0.1,0.3-0.5h-0.6
			c0,0.1-0.2,0.7-0.7,1.2h4.1v2.5h-0.9c0.2,0.1,0.7,0.4,1.5,0.6c-0.2,0.3-0.3,0.4-0.4,0.7c-0.7-0.2-1.3-0.5-1.9-0.9l0.3-0.3h-1.3
			l0.3,0.3c0,0,0.1,0.1,0.1,0.1s0,0.1-0.1,0.1c0,0-0.1,0-0.1,0c-0.6,0.4-1.1,0.6-1.8,0.8c-0.1-0.2-0.3-0.4-0.5-0.6
			c0.8-0.1,1.4-0.4,1.7-0.6h-1.1v-2.5c-0.2,0.2-0.2,0.2-0.3,0.3c-0.2-0.3-0.3-0.4-0.5-0.5c0.4-0.2,0.7-0.5,0.9-1h-0.7v-0.6h0.9
			c0-0.2,0-0.3,0-0.4l0.8,0.1c0.1,0,0.1,0,0.1,0.1s-0.1,0.1-0.2,0.1c0,0.1,0,0.1,0,0.2L253.2,214.8L253.2,214.8z M251.9,217.3h2.7
			V217h-2.7V217.3z M254.5,217.7h-2.7v0.2h2.7V217.7z M254.5,218.3h-2.7v0.3h2.7V218.3z M255.9,214.7v1.7h-2.5v-1.7H255.9z
			 M254.1,215.2v0.5h1.2v-0.5H254.1z"/>
	</g>
	<g>
		<path class="st17" d="M202.8,207.4c0.3,0.1,0.9,0.4,1.2,0.7c-0.2,0.3-0.4,0.5-0.4,0.6c-0.3-0.3-0.8-0.5-1.1-0.7L202.8,207.4z
			 M202.6,211.1c0.5-0.6,1.1-1.5,1.3-2c0.1,0.2,0.3,0.4,0.5,0.5c-0.4,0.7-0.7,1.2-1.1,1.8c0,0.1,0,0.1,0,0.2c0,0,0,0.1-0.1,0.1
			s-0.1,0-0.1-0.1L202.6,211.1L202.6,211.1z M203.3,205.9c0.4,0.2,0.8,0.4,1.1,0.7c-0.2,0.3-0.3,0.4-0.4,0.6
			c-0.2-0.2-0.7-0.5-1.1-0.7L203.3,205.9L203.3,205.9z M208.5,210.6v0.7h-4.2v-0.7h1.7V207h-1.4v-0.7h3.7v0.7h-1.4v3.5H208.5
			L208.5,210.6z"/>
		<path class="st17" d="M208.9,210.2c0.8-0.2,0.9-0.3,1.8-0.5v-1.6H209v-0.8h1.7v-1.4l0.9,0.1c0,0,0.1,0,0.1,0.1s0,0.1-0.2,0.1v5.5
			h-0.8v-1.3c-0.2,0.1-1.3,0.5-1.4,0.5c0,0.1-0.1,0.2-0.1,0.2c0,0-0.1,0-0.1-0.1L208.9,210.2L208.9,210.2z M214.9,207.4
			C214.9,207.4,215,207.4,214.9,207.4c0,0.1,0,0.2,0,0.2c0,0,0,0-0.1,0c-0.1,0.1-0.6,0.6-0.7,0.6c-0.5,0.4-1,0.8-1.1,0.8v1.6
			c0,0.3,0.1,0.3,0.4,0.3h0.4c0.2,0,0.4,0,0.5-0.8c0.3,0.2,0.4,0.3,0.8,0.4c-0.2,1-0.6,1.2-1,1.2h-1c-0.5,0-0.8-0.2-0.8-0.8v-4.9
			l0.8,0.1c0.1,0,0.1,0,0.1,0.1c0,0.1,0,0.1-0.2,0.1v1.9c0.1-0.1,0.8-0.7,1.2-1.2L214.9,207.4L214.9,207.4z"/>
	</g>
	<g>
		<path class="st17" d="M173.4,260v-1.1h0.9c0.1-1.1,0.1-1.5,0.1-2l1.2,0.1c0.1,0,0.2,0,0.2,0.1s-0.1,0.1-0.3,0.2
			c0,0.6,0,0.8-0.1,1.6h1.5c0,1.6-0.1,3.2-0.6,4.7c0.6,0.8,0.8,1.1,0.9,1.2c-0.3,0.1-0.7,0.5-0.9,0.8c-0.2-0.5-0.4-0.6-0.5-0.8
			c-0.4,0.8-0.9,1.5-1.4,2c-0.4-0.3-0.6-0.5-1-0.7c0.9-0.8,1.3-1.4,1.7-2.3c-0.1-0.1-0.3-0.3-0.6-0.7c-0.2,0.5-0.2,0.6-0.3,0.8
			c-0.4-0.2-0.7-0.4-1.1-0.5c0.5-1.1,0.8-2.2,1-3.4L173.4,260L173.4,260z M175.4,260c-0.1,0.8-0.2,1.1-0.4,2
			c0.1,0.1,0.3,0.3,0.6,0.7c0.2-0.8,0.3-1.8,0.3-2.6H175.4z M178.4,262.6c-0.1-0.1-0.2-0.4-0.3-0.5h-0.5v-2.1h4.9v2.1H182
			c0,0,0.1,0,0.1,0.1c0,0.1-0.2,0.1-0.2,0.1c-0.1,0.1-0.1,0.2-0.2,0.3h1.6v0.9H177v-0.9H178.4z M183.2,257.5v0.9h-2.5v0.4h2.1v0.9
			h-5.4v-0.9h2v-0.4H177v-0.9h2.4v-0.7l1.3,0.1c0.1,0,0.2,0,0.2,0.1c0,0.1-0.1,0.1-0.3,0.2v0.3L183.2,257.5L183.2,257.5z
			 M178.7,266.4v0.3h-1.2v-2.8h5.1v2.8h-1.2v-0.3H178.7z M181.4,265.4v-0.6h-2.7v0.6H181.4z M181.4,260.8h-2.6v0.5h2.6V260.8z
			 M180.5,262.7c0.1-0.1,0.2-0.3,0.3-0.5h-1.6c0.1,0.2,0.2,0.4,0.3,0.5H180.5L180.5,262.7z"/>
		<path class="st17" d="M188.8,262.7v1h-1.7v1c0.1,0,0.9-0.1,1.9-0.4c0,0.2-0.1,0.4-0.1,0.7c0,0.1,0,0.2,0,0.3
			c-1,0.3-3.8,0.8-4.2,0.9c0,0.2-0.1,0.3-0.2,0.3c0,0-0.1,0-0.2-0.2l-0.2-1.2c0.6-0.1,0.8-0.1,2-0.3v-1.2h-1.7v-1h1.7v-0.9h-1.6
			v-4.6h4.4v4.6h-1.6v0.9L188.8,262.7L188.8,262.7z M186,259v-0.9h-0.6v0.9H186z M185.4,260v0.9h0.6V260H185.4z M187.7,259v-0.9H187
			v0.9H187.7z M187,260v0.9h0.7V260H187z M193.5,260.7l0.6,0.5c-0.3,0.9-0.8,2-1.3,2.6c-0.3-0.2-0.7-0.4-1-0.5
			c0.6-0.9,0.8-1.3,0.9-1.5h-0.9v3.7c0,1.3-1.4,1.3-2.2,1.2c0-0.6-0.2-0.9-0.5-1.4c0.5,0.1,0.8,0.1,0.9,0.1c0.3,0,0.4-0.1,0.4-0.5
			v-3.2H189v-1.1h2.5c-0.2-0.1-1-0.8-2-1.2l0.6-0.9c0.5,0.2,0.7,0.3,0.9,0.5c0.3-0.3,0.4-0.4,0.6-0.7h-2.4v-1.1h4.1l0.5,0.6
			c-0.2,0.3-0.7,0.9-1.8,1.8c0.5,0.3,0.7,0.5,0.8,0.6c-0.2,0.2-0.4,0.4-0.5,0.6L193.5,260.7L193.5,260.7z"/>
		<path class="st17" d="M194.4,266c0.5-0.8,1.5-2.5,1.9-3.6c0.4,0.5,0.9,0.8,1,0.9c-0.4,0.8-0.5,1-1.5,3c0,0.1,0,0.2,0,0.2
			s0,0.1-0.1,0.1c-0.1,0-0.1,0-0.2-0.1L194.4,266L194.4,266z M195.2,259.5c1.1,0.5,1.5,0.9,1.8,1c-0.3,0.4-0.5,0.7-0.7,1.1
			c-0.4-0.3-1.1-0.8-1.7-1.1L195.2,259.5L195.2,259.5z M196,256.9c0.8,0.5,1.2,0.8,1.7,1.1c-0.3,0.4-0.6,0.8-0.7,1.1
			c-0.7-0.5-1.1-0.8-1.7-1.2L196,256.9L196,256.9z M197.8,265.4v-3.5h6.3v3.5h0.5v1.1h-7.5v-1.1H197.8z M203.8,257.2v4.1h-5.6v-4.1
			H203.8z M199.6,265.4v-2.5H199v2.5H199.6z M202.5,258.8v-0.6h-3.1v0.6H202.5z M199.5,259.7v0.7h3.1v-0.7H199.5z M201.3,265.4v-2.5
			h-0.6v2.5H201.3z M203,265.4v-2.5h-0.7v2.5H203z"/>
		<path class="st17" d="M209.1,262.1l0.4,0.4c-0.1,0.5-0.9,2.7-3,4.1c-0.3-0.4-0.6-0.6-1.1-0.8c0.7-0.4,1.8-1.1,2.5-2.5h-2.1v-1.1
			L209.1,262.1L209.1,262.1z M214.6,262.1c0,0,0.1,0.1,0.1,0.1c0,0.1-0.2,0.1-0.4,0.1c-0.9,0.8-1.1,0.9-1.7,1.4
			c0.8,0.7,1.7,1.2,2.6,1.6c-0.3,0.2-0.4,0.4-0.9,1c-0.6-0.3-1.3-0.7-2-1.3c-0.6-0.5-0.8-0.8-1.2-1.3v1.6c0,1.1-0.3,1.4-2,1.4
			c0-0.3-0.1-0.7-0.5-1.4c0.3,0,0.5,0.1,0.7,0.1c0.4,0,0.5-0.1,0.5-0.5v-3.4h-3.1v-3.9h2.1c0.2-0.4,0.3-0.5,0.5-0.9l1.5,0.2
			c0.1,0,0.2,0,0.2,0.1c0,0.1-0.1,0.2-0.4,0.2c-0.1,0.1-0.1,0.1-0.2,0.4h3.7v3.9h-0.3L214.6,262.1L214.6,262.1z M208,259.1h4.8v-0.5
			H208V259.1z M212.8,260H208v0.6h4.8V260z M211.1,261.6v0.2c0.3,0.6,0.5,0.9,0.6,1.1c0.2-0.1,1-0.7,1.5-1.3L211.1,261.6
			L211.1,261.6z"/>
	</g>
	<g>
		<path class="st8" d="M130.9,294.2h1.6v1.1H131c0.1,0.2,0.8,1,1.4,1.3c-0.4,0.3-0.6,0.4-0.9,0.8c-0.3-0.3-0.5-0.5-0.7-0.9v2.4h-1.2
			v-2.3c-0.3,0.6-0.6,1.1-1.2,1.7c-0.3-0.3-0.6-0.4-1.1-0.6c0.9-0.8,1.5-1.6,1.9-2.3h-1.5v-1.1h1.9v-0.8h-2v-1h1.2
			c-0.2-0.6-0.3-0.8-0.3-1l0.6-0.2H128v-1h1.7v-1l1.3,0.1c0.2,0,0.2,0,0.2,0.1c0,0.1-0.1,0.1-0.2,0.2v0.6h1.5v1h-0.6
			c0.3,0,0.4,0.1,0.4,0.2c0,0.1-0.1,0.1-0.3,0.2c-0.1,0.3-0.3,0.6-0.4,0.8h1.2v1h-1.6c0,0.1-0.2,0.2-0.3,0.2L130.9,294.2
			L130.9,294.2z M129.6,291.2c0.2,0.6,0.3,0.8,0.3,1l-0.6,0.2h1c0.3-0.5,0.5-1.1,0.5-1.2H129.6L129.6,291.2z M133,289.8l0.7,0.1
			c0.7,0,2.1-0.4,3-0.7l0.7,1c0,0,0.1,0.1,0.1,0.1c0,0.1-0.1,0.1-0.2,0.1c-0.1,0-0.1,0-0.3-0.1c-0.9,0.3-1.7,0.5-2.8,0.5v1.5h3.1
			v1.2h-1v5.3h-1.3v-5.3h-0.8c0,0.8,0,3.5-1.6,5.4c-0.3-0.2-0.6-0.4-1.2-0.5c1.4-1.5,1.5-3.3,1.5-4.9L133,289.8L133,289.8z"/>
		<path class="st8" d="M138.3,293v-1.3h4.2V289l1.4,0.1c0.2,0,0.2,0,0.2,0.1c0,0.1-0.1,0.1-0.2,0.2v2.4h4.1v1.3H144
			c0.5,1.6,1.5,3.5,4.2,4.9c-0.6,0.5-0.8,0.7-1,1.1c-1.1-0.5-3-2.1-3.9-4.2c-1.2,2.6-3,3.6-4.3,4.2c-0.1-0.2-0.3-0.6-0.9-1.2
			c0.9-0.4,3.7-1.5,4.4-4.8L138.3,293L138.3,293z"/>
		<path class="st8" d="M152.1,298.9h-1.3v-3.8c-0.3,0.7-0.7,1.5-1,1.9c-0.3-0.3-0.6-0.5-1.1-0.8c0.9-1,1.6-2,2.1-3.8H149v-1.1h1.8
			v-2l1.4,0.1c0.1,0,0.2,0.1,0.2,0.1c0,0.1-0.1,0.1-0.3,0.2v1.6h1.5v1.1h-1.5v0.4c0.5,0.9,1.1,1.4,1.7,1.9c-0.2,0.3-0.5,0.6-0.7,1.1
			c-0.4-0.4-0.9-1-1-1.2L152.1,298.9L152.1,298.9z M154.8,293.1c0.4,0.6,0.9,1.9,1,2.4c-0.3,0.1-0.6,0.2-1.2,0.5
			c-0.2-1-0.6-1.9-0.9-2.4L154.8,293.1L154.8,293.1z M158.8,291.1v1.1h-1.1v5c0,1.1-0.2,1.7-2.3,1.6c-0.2-0.8-0.2-1-0.5-1.5
			c0.4,0.1,0.8,0.1,0.9,0.1c0.5,0,0.5-0.1,0.5-0.5v-4.7H154v-1.1h2.3v-2l1.4,0.1c0.1,0,0.3,0,0.3,0.1s-0.1,0.1-0.2,0.2v1.6H158.8
			L158.8,291.1z"/>
	</g>
	<g>
		<path class="st8" d="M102.7,359.2c0.4,0,0.8-0.1,1.6-0.2v-2.4h-1.8v-1.1h2v-4.7h6.8v1.1h-5.5v0.6h4.9v1h-4.9v0.6h4.9v1h-4.9v0.6
			h6.5v1.1h-1.6l0.6,0.4c0.1,0,0.1,0.1,0.1,0.2c0,0.1-0.1,0.1-0.3,0.1c-0.3,0.3-0.4,0.4-1.3,1c0.5,0.3,1.3,0.8,2.4,1.1
			c-0.2,0.1-0.5,0.4-0.9,1c-0.9-0.3-2.4-1.2-3.2-2c-0.1,0.7-0.1,0.8-0.1,0.9c-1.2,0.3-3.2,0.7-4.5,1c-0.1,0.2-0.1,0.2-0.2,0.2
			c-0.1,0-0.1-0.1-0.2-0.3L102.7,359.2L102.7,359.2z M105.6,358.8c1.1-0.2,1.8-0.4,2.3-0.5c-0.7-0.7-1-1.4-1.1-1.6h-1.2V358.8z
			 M108.2,356.7c0.2,0.4,0.4,0.6,0.8,1c0.4-0.3,0.7-0.6,1.1-1H108.2z"/>
		<path class="st8" d="M123,354.7v1h-0.7v3.5c0,0.5-0.1,1.4-1.8,1.3c-0.1-0.4-0.2-0.9-0.6-1.4c0.5,0.1,0.8,0.1,0.9,0.1
			c0.2,0,0.3,0,0.3-0.3v-3.2h-3.8v-1h0.5c-0.2-0.3-0.4-0.5-0.7-0.6v5H116v-0.8h-1.7v1.3h-0.9v-7.2l1.1,0.1c0.1,0,0.1,0,0.1,0.1
			c0,0.1-0.1,0.1-0.3,0.2v4.3h0.4v-6.3l1,0c0,0,0.1,0,0.1,0.1c0,0.1-0.1,0.1-0.2,0.2v6h0.4v-4.8l1,0c0.1,0,0.2,0,0.2,0.1
			c0,0.1-0.1,0.2-0.2,0.2v1.3c1.2-0.4,1.5-0.9,1.6-1.1h-1.3v-1h1.7c0.1-0.5,0.1-0.8,0.1-1l1.3,0.1c0.1,0,0.2,0,0.2,0.1
			c0,0.1-0.1,0.1-0.2,0.2c0,0.2,0,0.3,0,0.7h2.4v1H121c0.6,0.7,1.6,1.1,1.9,1.2c-0.4,0.2-0.5,0.4-0.8,0.7L123,354.7L123,354.7z
			 M120.4,356.2v2.8h-1.9v0.8h-1.1v-3.6H120.4z M121.6,354.7c-0.7-0.3-1.3-0.9-1.8-1.5c-0.4,0.6-0.9,1.1-1.6,1.5H121.6z
			 M118.5,357.2v0.8h0.8v-0.8H118.5z"/>
	</g>
	<ellipse class="st19" cx="182.7" cy="163.9" rx="31.6" ry="25.2"/>
	<polygon class="st19" points="176.7,175.6 181,205.1 189.5,179.5 	"/>
	<g>
		<path class="st20" d="M161.4,162.6c0.7,0.7,1.2,1.3,1.7,1.9c0.4-1,0.6-1.8,0.7-2.4h-3.8v-1.3h2.3v-1.8l1.6,0.1
			c0.1,0,0.2,0,0.2,0.1s-0.1,0.2-0.2,0.2v1.4h2.1v1.3h-0.8c-0.2,1.4-0.7,2.7-1.2,3.7c0.3,0.5,0.9,1.5,1.5,2.6
			c-0.6,0.3-1,0.5-1.4,0.7c-0.3-0.9-0.4-1.1-0.9-2c-1,1.5-1.8,2.2-2.4,2.7c-0.4-0.5-0.7-0.6-1.2-0.8c0.9-0.7,1.8-1.6,2.7-3.1
			c-0.7-1-1.5-1.8-2.1-2.5L161.4,162.6L161.4,162.6z M166.4,164c0.4,0.5,0.9,1.3,1.3,2.3c-0.2,0.1-0.4,0.2-1.3,0.7
			c-0.2-0.6-0.7-1.7-1.1-2.3L166.4,164L166.4,164z M171.1,162v1.3h-1.2v4.8c0,1.6-1,1.6-2.5,1.6c0-0.8-0.5-1.4-0.7-1.6
			c0.5,0.1,1.1,0.1,1.2,0.1c0.5,0,0.5-0.2,0.5-0.7v-4.2h-2.6V162h2.6v-3l1.5,0.1c0.1,0,0.2,0.1,0.2,0.1c0,0.1,0,0.1-0.2,0.2v2.6
			L171.1,162L171.1,162z"/>
		<path class="st20" d="M173.7,169.2v0.5h-1.5v-8.1h3.5c0.2-0.4,0.3-0.7,0.5-1.1h-4.5v-1.2h10.8v1.2h-4.5c-0.2,0.5-0.4,0.7-0.5,1.1
			h4.6v8.1h-1.5v-0.5H173.7L173.7,169.2z M175,167.9v-5.1h-1.3v5.1H175z M178,163.8v-0.9h-1.6v0.9H178z M178,165.8v-1h-1.6v1H178z
			 M178,167.9v-1.1h-1.6v1.1H178z M180.7,167.9v-5.1h-1.3v5.1H180.7z"/>
		<path class="st20" d="M189.6,169.8h-1.4v-2.5c-1,0.9-2.7,2.1-3.7,2.6c-0.4-0.5-0.7-0.8-1.1-1.1c1.8-0.7,3-1.7,3.6-2.2h-3v-1.2h1.6
			v-0.9h-2.1v-1.1h2.1v-0.9h-1.6v-1.2h4.1v-0.6c-1,0.1-1.4,0.1-3,0.1c-0.1-0.5-0.2-0.9-0.5-1.2c0.3,0,0.6,0,1.2,0
			c3.3,0,5.2-0.6,5.9-0.8l0.8,1.1c0,0,0.1,0.1,0.1,0.2c0,0.1,0,0.1-0.1,0.1c-0.1,0-0.1,0-0.3-0.1c-1,0.3-2.3,0.5-2.7,0.6v0.7h4.1
			v1.2h-1.6v0.9h2.2v1.1h-2.2v0.9h1.6v1.2h-3c1.1,1,2.6,1.8,3.6,2.1c-0.4,0.3-0.6,0.6-1,1c-1.1-0.5-2.4-1.3-3.8-2.6L189.6,169.8
			L189.6,169.8z M188.3,162.5h-1.1v0.9h1.1V162.5z M188.3,164.5h-1.1v0.9h1.1V164.5z M190.8,162.5h-1.1v0.9h1.1V162.5z M190.8,164.5
			h-1.1v0.9h1.1V164.5z"/>
		<path class="st20" d="M198.9,161.1v1.3h-0.9v1.4c0.5-0.1,0.7-0.2,0.9-0.3c-0.1,0.4-0.1,0.5-0.1,1.2c-0.2,0.1-0.3,0.1-0.8,0.3v3.5
			c0,1-0.5,1.3-1.8,1.3c-0.2,0-0.3,0-0.4,0c-0.1-0.8-0.2-1-0.4-1.4c0.2,0,0.5,0.1,0.8,0.1c0.4,0,0.5-0.1,0.5-0.5v-2.5
			c-0.1,0.1-0.8,0.3-1,0.4c0,0.1-0.1,0.3-0.2,0.3c-0.1,0-0.1-0.1-0.2-0.2l-0.2-1.3c0.3-0.1,0.6-0.1,1.6-0.4v-1.8h-1.4V161h1.4v-2
			l1.4,0.1c0.1,0,0.3,0,0.3,0.1c0,0.1-0.1,0.1-0.3,0.2v1.6L198.9,161.1L198.9,161.1z M198.5,166.9v-1.2h0.8v-3.9h0.8
			c-0.2-0.2-0.4-0.3-1-0.7c0.9-0.5,1.6-1.2,2.2-2.1l1.2,0.3c0.1,0,0.2,0.1,0.2,0.2s-0.1,0.1-0.3,0.1c0,0.1-0.1,0.2-0.2,0.3h2.1
			l0.5,0.5c-0.5,0.7-0.6,0.8-1.1,1.4h1.9v3.9h0.5v1.2h-2.9c0.3,0.4,1.2,1.4,3,1.9c-0.4,0.3-0.6,0.7-0.9,1.1c-0.9-0.4-2.2-1-3.2-2.4
			c-0.3,0.5-1.1,1.8-3,2.4c-0.2-0.5-0.4-0.7-0.9-1.1c1.2-0.3,2.2-0.8,2.9-1.9H198.5L198.5,166.9z M202.2,161.7
			c0.1-0.1,0.4-0.5,0.7-0.9h-1.5c-0.3,0.3-0.7,0.6-1,0.9H202.2z M203,165.1c0.1,0,0.2,0,0.2,0.1c0,0.1-0.1,0.1-0.3,0.2
			c0,0.1,0,0.2,0,0.2h1.6v-1.3c-0.1,0.2-0.4,0.3-0.5,0.3h-0.7c-0.5,0-0.7-0.1-0.7-0.6v-1.3h-0.9l0.6,0.2c0.1,0,0.2,0.1,0.2,0.1
			c0,0.1-0.2,0.1-0.2,0.1c-0.2,0.6-0.6,1.4-1.2,1.8c-0.1-0.1-0.2-0.2-0.4-0.4v1h1c0-0.2,0.1-0.4,0.1-0.7L203,165.1L203,165.1z
			 M200.6,164.1c0.3-0.4,0.5-0.8,0.7-1.3h-0.7V164.1z M203.5,162.8v0.7c0,0.1,0,0.2,0.1,0.2c0.3,0,0.3,0,0.4-0.6
			c0.2,0.1,0.3,0.2,0.4,0.2v-0.6L203.5,162.8L203.5,162.8z"/>
	</g>
</g>
<g>
	<path class="st21" d="M221.4,362.1c0.1,0,0.2,0.1,0.1,0.2c0,0.2-0.1,0.4-0.1,0.6c0,0.1-0.1,0.1-0.2,0.1c-0.1,0-0.2-0.1-0.2-0.1
		c0,0,0,0,0-0.1c0-0.1,0.1-0.3,0.1-0.5C221.2,362.1,221.3,362.1,221.4,362.1L221.4,362.1z M222.4,360.1h0.4c0.1,0,0.1,0.1,0.1,0.2
		s0,0.2-0.1,0.2h-0.4v0.3h0.4c0.1,0,0.1,0.1,0.1,0.2s0,0.2-0.1,0.2h-0.4v0.3h0.2c0.3,0,0.4,0.1,0.4,0.4c0,0.4,0,0.7-0.1,1
		c-0.1,0.3-0.3,0.4-0.5,0.4c-0.1,0-0.2,0-0.2,0c-0.1,0-0.2-0.1-0.2-0.2c0-0.1,0.1-0.2,0.2-0.2c0,0,0.1,0,0.2,0c0.1,0,0.1,0,0.2-0.1
		c0-0.2,0.1-0.4,0.1-0.7c0-0.1,0-0.1-0.1-0.1h-0.8c-0.3,0-0.4-0.1-0.4-0.3v-1.6c0-0.3,0.1-0.4,0.5-0.4h1.1c0.1,0,0.2,0.1,0.2,0.2
		s0,0.2-0.2,0.2h-0.5L222.4,360.1L222.4,360.1z M221.9,362.5c0,0.1-0.1,0.2-0.1,0.2c-0.1,0-0.1,0-0.1-0.1c0-0.1,0-0.3-0.1-0.4
		c0-0.1,0.1-0.1,0.1-0.1c0.1,0,0.1,0,0.1,0.1C221.9,362.2,221.9,362.4,221.9,362.5L221.9,362.5z M221.8,359.8c-0.1,0-0.1,0-0.1,0.1
		v0.2h0.3v-0.3H221.8z M222,360.8v-0.3h-0.3v0.3H222z M222,361.1h-0.3v0.2c0,0.1,0,0.1,0.1,0.1h0.2V361.1z M222.3,362.3
		c0,0.1-0.1,0.2-0.1,0.2c0,0-0.1,0-0.1-0.1c0-0.1-0.1-0.2-0.1-0.3c0,0,0,0,0,0c0-0.1,0.1-0.1,0.1-0.1c0,0,0.1,0,0.1,0.1
		C222.2,362.1,222.2,362.2,222.3,362.3L222.3,362.3z M222.5,362.1C222.5,362.1,222.5,362.2,222.5,362.1c0,0.1-0.1,0.2-0.1,0.2
		c0,0-0.1,0-0.1-0.1c0-0.1-0.1-0.2-0.1-0.2c0,0,0,0,0-0.1c0-0.1,0.1-0.1,0.1-0.1c0,0,0.1,0,0.1,0.1
		C222.4,362,222.5,362.1,222.5,362.1L222.5,362.1z M223.7,361.1c0,1-0.2,1.5-0.4,2c0,0.1-0.1,0.1-0.2,0.1c-0.1,0-0.2-0.1-0.2-0.2
		c0,0,0-0.1,0-0.1c0.2-0.5,0.4-1,0.4-2.1V360c0-0.3,0.2-0.4,0.5-0.4h0.8c0.3,0,0.5,0.1,0.5,0.4v0.7c0,0.3-0.2,0.4-0.5,0.4h-0.1
		c0.1,0.7,0.4,1.2,0.7,1.7c0,0.1,0.1,0.1,0.1,0.2c0,0.1-0.1,0.2-0.2,0.2c-0.1,0-0.1,0-0.2-0.1c-0.4-0.5-0.6-1.2-0.8-2L223.7,361.1
		L223.7,361.1z M224.4,360.7c0.1,0,0.1,0,0.1-0.1v-0.5c0-0.1,0-0.1-0.1-0.1h-0.6c-0.1,0-0.1,0-0.1,0.1v0.6L224.4,360.7L224.4,360.7z
		"/>
	<path class="st21" d="M229.1,362.6c0.1,0,0.2,0.1,0.2,0.2s-0.1,0.2-0.2,0.2h-2.7c-0.5,0-0.7-0.2-0.7-0.6v-2.4
		c0-0.4,0.2-0.6,0.7-0.6h2.6c0.1,0,0.2,0.1,0.2,0.2s-0.1,0.2-0.2,0.2h-2.5c-0.2,0-0.3,0.1-0.3,0.2v2.2c0,0.2,0.1,0.2,0.3,0.2
		L229.1,362.6L229.1,362.6z M228.6,361.8c0,0.1,0.1,0.1,0.1,0.2c0,0.1-0.1,0.2-0.2,0.2c-0.1,0-0.1,0-0.2-0.1
		c-0.2-0.2-0.4-0.4-0.6-0.5c-0.3,0.3-0.5,0.6-0.9,0.8c0,0-0.1,0-0.1,0c-0.1,0-0.2-0.1-0.2-0.2c0-0.1,0-0.1,0.1-0.2
		c0.3-0.2,0.6-0.4,0.8-0.7c-0.2-0.2-0.4-0.3-0.6-0.5c-0.1,0-0.1-0.1-0.1-0.2c0-0.1,0.1-0.2,0.2-0.2c0,0,0.1,0,0.1,0
		c0.2,0.1,0.4,0.3,0.6,0.5c0.2-0.2,0.3-0.5,0.4-0.7c0-0.1,0.1-0.1,0.2-0.1c0.1,0,0.2,0.1,0.2,0.2c0,0,0,0.1,0,0.1
		c-0.1,0.3-0.3,0.6-0.5,0.8C228.2,361.4,228.4,361.6,228.6,361.8L228.6,361.8z"/>
	<path class="st21" d="M230.3,360.9v2.1c0,0.1-0.1,0.2-0.2,0.2s-0.2-0.1-0.2-0.2v-3.2c0-0.3,0.1-0.5,0.6-0.5h0.5
		c0.5,0,0.6,0.1,0.6,0.5v0.6c0,0.1,0,0.3-0.1,0.4c-0.1,0.1-0.3,0.1-0.4,0.1H230.3L230.3,360.9z M231,359.9c0-0.1,0-0.1-0.1-0.1h-0.4
		c-0.1,0-0.1,0-0.1,0.1v0.1h0.7L231,359.9L231,359.9z M230.9,360.6c0.1,0,0.1,0,0.1-0.1v-0.1h-0.7v0.2L230.9,360.6L230.9,360.6z
		 M231.3,362.7c-0.4,0-0.5-0.1-0.5-0.4v-0.7c0-0.3,0.1-0.4,0.5-0.4h0.6c0.4,0,0.5,0.1,0.5,0.4v0.7c0,0.3-0.2,0.4-0.5,0.4H231.3z
		 M232,361.6c0-0.1,0-0.1-0.1-0.1h-0.5c-0.1,0-0.1,0-0.1,0.1v0.1h0.8L232,361.6L232,361.6z M231.9,362.4c0.1,0,0.1,0,0.1-0.1v-0.1
		h-0.8v0.1c0,0.1,0,0.1,0.1,0.1H231.9L231.9,362.4z M232.4,360.9c-0.5,0-0.6-0.1-0.6-0.5v-0.6c0-0.3,0.1-0.5,0.6-0.5h0.5
		c0.5,0,0.6,0.2,0.6,0.5v2.7c0,0.4-0.2,0.6-0.5,0.6c-0.1,0-0.2,0-0.3,0c-0.1,0-0.2-0.1-0.2-0.2c0-0.1,0.1-0.2,0.3-0.2
		c0.1,0,0.1,0,0.2,0c0.1,0,0.1,0,0.1-0.1v-1.7L232.4,360.9L232.4,360.9z M233,359.9c0-0.1,0-0.1-0.1-0.1h-0.4c-0.1,0-0.1,0-0.1,0.1
		v0.1h0.7L233,359.9L233,359.9z M233,360.3h-0.7v0.1c0,0.1,0,0.1,0.1,0.1h0.6V360.3L233,360.3z"/>
	<path class="st21" d="M234.1,361.6c0-1,0.8-1.8,2-1.8c1,0,1.6,0.6,1.6,1.5c0,0.8-0.5,1.3-1.2,1.6c0,0-0.1,0-0.1,0
		c-0.1,0-0.2-0.1-0.2-0.2c0-0.1,0-0.2,0.2-0.2c0.6-0.2,0.9-0.6,0.9-1.1c0-0.6-0.4-1-1-1.1c0,0.7-0.2,1.4-0.5,1.8
		c-0.2,0.4-0.5,0.5-0.8,0.5C234.5,362.6,234.1,362.2,234.1,361.6L234.1,361.6z M234.6,361.6c0,0.4,0.1,0.5,0.3,0.5
		c0.1,0,0.2-0.1,0.4-0.3c0.2-0.4,0.4-0.9,0.4-1.6C235.1,360.4,234.6,360.9,234.6,361.6z"/>
	<path class="st21" d="M239,361.5c0,0.6-0.1,1.1-0.4,1.5c-0.1,0.1-0.1,0.1-0.2,0.1c-0.1,0-0.2-0.1-0.2-0.2c0,0,0-0.1,0-0.1
		c0.2-0.4,0.3-0.9,0.3-1.6v-0.5c0-0.3,0.1-0.4,0.5-0.4h0.6c0.3,0,0.5,0.1,0.5,0.4v0.5c0,0.3-0.2,0.4-0.5,0.4L239,361.5L239,361.5z
		 M238.5,360c-0.1,0-0.2-0.1-0.2-0.2s0.1-0.2,0.2-0.2h1.6c0.1,0,0.2,0.1,0.2,0.2s-0.1,0.2-0.2,0.2H238.5z M239.5,361.1
		c0.1,0,0.1,0,0.1-0.1v-0.3c0-0.1,0-0.1-0.1-0.1h-0.4c-0.1,0-0.1,0-0.1,0.1v0.4H239.5z M240.9,361.1c-0.1,0.9-0.3,1.5-0.8,2
		c-0.1,0.1-0.1,0.1-0.2,0.1c-0.1,0-0.2-0.1-0.2-0.2c0-0.1,0-0.1,0.1-0.2c0.5-0.5,0.7-1.1,0.7-2.1v-0.8c0-0.1,0.1-0.2,0.2-0.2
		c0,0,0.1,0,0.1,0c0.3-0.1,0.6-0.2,0.9-0.3c0,0,0.1,0,0.1,0c0.1,0,0.2,0.1,0.2,0.2c0,0.1,0,0.1-0.1,0.2c-0.3,0.1-0.6,0.2-1,0.3v0.5
		h1.2c0.1,0,0.2,0.1,0.2,0.2s-0.1,0.2-0.2,0.2h-0.3v2c0,0.1-0.1,0.2-0.2,0.2s-0.2-0.1-0.2-0.2v-2L240.9,361.1L240.9,361.1z"/>
	<path class="st21" d="M243.5,361.2c-0.4,0-0.5-0.1-0.5-0.4v-0.3c0-0.3,0.1-0.4,0.5-0.4h0.4v-0.3h-1c-0.1,0-0.2-0.1-0.2-0.2
		s0.1-0.2,0.2-0.2h3.4c0.1,0,0.2,0.1,0.2,0.2s-0.1,0.2-0.2,0.2h-1.1v0.3h0.4c0.4,0,0.5,0.1,0.5,0.4v0.3c0,0.1,0,0.2-0.1,0.3
		c-0.1,0.1-0.3,0.1-0.4,0.1h-1.2c0.1,0,0.1,0.1,0.1,0.1c0,0,0,0.1,0,0.1c0,0,0,0.1-0.1,0.1h1.9c0.1,0,0.2,0.1,0.2,0.2s0,0.2-0.2,0.2
		h-0.8c-0.1,0.2-0.3,0.4-0.5,0.6c0.3,0.1,0.5,0.2,0.8,0.3c0.1,0,0.1,0.1,0.1,0.2c0,0.1-0.1,0.2-0.2,0.2c0,0-0.1,0-0.1,0
		c-0.3-0.2-0.7-0.3-1-0.4c-0.5,0.3-1,0.4-1.7,0.5c-0.1,0-0.2-0.1-0.2-0.2c0-0.1,0.1-0.2,0.2-0.2c0.5,0,0.9-0.1,1.3-0.3
		c-0.2,0-0.3-0.1-0.5-0.1c0,0,0,0,0,0c-0.1,0.1-0.1,0.1-0.2,0.1c-0.1,0-0.2-0.1-0.2-0.2c0,0,0-0.1,0-0.1c0.1-0.1,0.2-0.2,0.3-0.3
		h-0.9c-0.1,0-0.1-0.1-0.1-0.2s0-0.2,0.1-0.2h1.2c0.1-0.1,0.1-0.2,0.2-0.3c0,0,0-0.1,0.1-0.1L243.5,361.2L243.5,361.2z M243.8,360.8
		v-0.4h-0.3c-0.1,0-0.1,0-0.1,0.1v0.2c0,0.1,0,0.1,0.1,0.1L243.8,360.8L243.8,360.8z M244.1,361.9c-0.1,0.1-0.1,0.2-0.2,0.2
		c0.2,0,0.4,0.1,0.7,0.2c0.2-0.1,0.3-0.3,0.4-0.4L244.1,361.9L244.1,361.9z M244.7,360.1v-0.3h-0.5v0.3H244.7z M244.3,360.8h0.5
		v-0.4h-0.5V360.8z M245.1,360.8h0.4c0.1,0,0.1,0,0.1-0.1v-0.2c0-0.1,0-0.1-0.1-0.1h-0.4V360.8L245.1,360.8z"/>
	<path class="st21" d="M247.4,362.6c-0.3,0-0.4-0.1-0.4-0.4V360c0-0.3,0.1-0.4,0.4-0.4h0.4c0.3,0,0.4,0.1,0.4,0.4v2.1
		c0,0.3-0.1,0.4-0.4,0.4H247.4z M247.8,360.1c0-0.1,0-0.1-0.1-0.1h-0.2c-0.1,0-0.1,0-0.1,0.1v0.7h0.4L247.8,360.1L247.8,360.1z
		 M247.6,362.1c0.1,0,0.1,0,0.1-0.1v-0.8h-0.4v0.8c0,0.1,0,0.1,0.1,0.1H247.6L247.6,362.1z M249.2,360.2h-0.5
		c-0.1,0-0.2-0.1-0.2-0.2s0.1-0.2,0.2-0.2h0.5v-0.4c0-0.1,0.1-0.2,0.2-0.2s0.2,0.1,0.2,0.2v0.4h0.6c0.1,0,0.2,0.1,0.2,0.2
		s-0.1,0.2-0.2,0.2h-0.6v0.4h0.9c0.1,0,0.2,0.1,0.2,0.2s-0.1,0.2-0.2,0.2h-2.1c-0.1,0-0.2-0.1-0.2-0.2s0.1-0.2,0.2-0.2h0.8
		L249.2,360.2L249.2,360.2z M248.5,361.9c-0.1,0-0.2-0.1-0.2-0.2s0.1-0.2,0.2-0.2h1.1v-0.2c0-0.1,0.1-0.2,0.2-0.2s0.2,0.1,0.2,0.2
		v0.2h0.4c0.1,0,0.2,0.1,0.2,0.2s-0.1,0.2-0.2,0.2h-0.4v0.8c0,0.4-0.2,0.5-0.5,0.5c-0.1,0-0.2,0-0.3,0c-0.1,0-0.2-0.1-0.2-0.2
		c0-0.1,0.1-0.2,0.2-0.2c0.1,0,0.1,0,0.2,0s0.1,0,0.1-0.1v-0.8L248.5,361.9L248.5,361.9z M249.2,362.3c0,0,0,0.1,0,0.1
		c0,0.1-0.1,0.2-0.2,0.2c-0.1,0-0.1,0-0.2-0.1c-0.1-0.1-0.1-0.2-0.2-0.3c0,0-0.1-0.1-0.1-0.1c0-0.1,0.1-0.2,0.2-0.2
		c0,0,0.1,0,0.2,0.1C249.1,362.1,249.1,362.2,249.2,362.3L249.2,362.3z"/>
	<path class="st21" d="M251.7,360.9v2.1c0,0.1-0.1,0.2-0.2,0.2s-0.2-0.1-0.2-0.2v-3.2c0-0.3,0.1-0.5,0.6-0.5h0.5
		c0.5,0,0.6,0.1,0.6,0.5v0.6c0,0.1,0,0.3-0.1,0.4c-0.1,0.1-0.3,0.1-0.4,0.1H251.7L251.7,360.9z M252.4,359.9c0-0.1,0-0.1-0.1-0.1
		h-0.4c-0.1,0-0.1,0-0.1,0.1v0.1h0.7L252.4,359.9L252.4,359.9z M252.2,360.6c0.1,0,0.1,0,0.1-0.1v-0.1h-0.7v0.2L252.2,360.6
		L252.2,360.6z M252.7,362.7c-0.4,0-0.5-0.1-0.5-0.4v-0.7c0-0.3,0.1-0.4,0.5-0.4h0.6c0.4,0,0.5,0.1,0.5,0.4v0.7
		c0,0.3-0.2,0.4-0.5,0.4H252.7z M253.4,361.6c0-0.1,0-0.1-0.1-0.1h-0.5c-0.1,0-0.1,0-0.1,0.1v0.1h0.8L253.4,361.6L253.4,361.6z
		 M253.3,362.4c0.1,0,0.1,0,0.1-0.1v-0.1h-0.8v0.1c0,0.1,0,0.1,0.1,0.1H253.3L253.3,362.4z M253.8,360.9c-0.5,0-0.6-0.1-0.6-0.5
		v-0.6c0-0.3,0.1-0.5,0.6-0.5h0.5c0.5,0,0.6,0.2,0.6,0.5v2.7c0,0.4-0.2,0.6-0.5,0.6c-0.1,0-0.2,0-0.3,0c-0.1,0-0.2-0.1-0.2-0.2
		c0-0.1,0.1-0.2,0.3-0.2c0.1,0,0.1,0,0.2,0c0.1,0,0.1,0,0.1-0.1v-1.7L253.8,360.9L253.8,360.9z M254.4,359.9c0-0.1,0-0.1-0.1-0.1
		h-0.4c-0.1,0-0.1,0-0.1,0.1v0.1h0.7L254.4,359.9L254.4,359.9z M254.4,360.3h-0.7v0.1c0,0.1,0,0.1,0.1,0.1h0.6V360.3L254.4,360.3z"
		/>
</g>
<g>
	<path class="st22" d="M132,353.6c0,0,0.3,0.1,0.9,0.3"/>
	<path class="st23" d="M134.8,354.4c10,2.5,43,7.7,47.2-29.6"/>
	<path class="st22" d="M182.1,323.8c0-0.3,0.1-0.7,0.1-1"/>
</g>
<path class="st21" d="M169.7,360c0,0-0.1,0-0.1,0.1c0,0.1-0.1,1.1-0.4,1.7c0,0,0,0,0,0l0,0c-0.2-0.1-0.7-0.1-0.7-0.1
	c0.4-0.7,0.5-1.6,0.5-1.9c0,0,0.5,0,0.6,0.1C169.7,359.8,169.7,359.9,169.7,360v-0.6c-0.2,0-0.5,0.1-0.7,0.1c0,0.1,0,0.2-0.1,0.2
	c-0.1,0-0.2-0.8-0.2-0.8c0.2,0,0.4,0,0.5,0c0.1-0.1,0.2-0.3,0.3-0.4c-0.2-0.2-0.5-0.6-0.9-0.9l0.4-0.5c0.1,0,0.1,0.1,0.2,0.2
	c0.3-0.5,0.6-1.1,0.6-1.1c0,0,0.5,0.2,0.7,0.4c0,0,0,0,0,0.1s0,0.1-0.1,0.1c0,0,0,0-0.1,0c-0.1,0.1-0.4,0.7-0.7,1.1
	c0.1,0.1,0.2,0.2,0.2,0.3c0.4-0.5,0.6-1,0.7-1.2c0,0,0.5,0.3,0.6,0.4c0,0,0.1,0.1,0.1,0.1c0,0,0,0.1-0.1,0.1c0,0-0.1,0-0.1,0
	c0,0-0.3,0.5-0.7,0.9l0.4-0.2c0,0.1,0.1,0.2,0.2,0.3c0.6-0.7,0.9-1.8,0.9-2.2c0,0,0.6,0.1,0.8,0.1c0,0,0.1,0,0.1,0.1s0,0.1-0.2,0.1
	c0,0.2-0.1,0.4-0.2,0.7h1.9v0.2c0,0.4,0,0.8,0,1.3c0,2.1-0.2,3.3-1.7,3.3c-0.1,0-0.2,0-0.3,0c0,0-0.1,0-0.1,0
	c-0.1-0.3-0.5-0.8-0.5-0.8c0.3,0,0.5,0.1,0.8,0.1c0.8,0,0.9-0.7,0.9-2.5v-0.9h-1.4c-0.1,0.3-0.3,0.6-0.5,0.9c0,0,0,0,0,0h0
	c-0.2-0.1-0.5-0.1-0.6-0.2c0.1,0.3,0.3,0.6,0.4,0.9l-0.5,0.2c0-0.1,0-0.2-0.1-0.4c-0.1,0-0.2,0-0.4,0.1l0,2.7h-0.7L169.7,360
	L169.7,360z M170.6,358.7c-0.1-0.1-0.1-0.3-0.2-0.4c-0.1,0.2-0.3,0.3-0.4,0.5C170.2,358.8,170.5,358.7,170.6,358.7L170.6,358.7z
	 M170.8,361.5c0-0.6-0.2-1.4-0.4-1.7l0.5-0.1c0.1,0.2,0.4,1,0.5,1.6L170.8,361.5L170.8,361.5z M172.2,358.4c0.3,0.3,0.7,0.8,1,1.4
	l-0.7,0.5c-0.3-0.6-0.6-1.1-1-1.4L172.2,358.4L172.2,358.4z"/>
<path class="st21" d="M184.1,358.7c-0.4,0.5-0.8,0.8-0.8,0.8s0,0,0,0c-0.1-0.1-0.7-0.4-0.7-0.4c1.1-0.6,1.9-2.1,2-2.7
	c0,0,0.6,0.2,0.8,0.3c0.1,0,0.1,0.1,0.1,0.1c0,0-0.1,0.1-0.2,0.1h0c-0.1,0.3-0.5,0.9-0.9,1.6h2.6c-0.4-0.6-0.9-1.2-1.1-1.8l0.7-0.3
	c0.5,1,1.3,2,2.2,2.5c0,0-0.6,0.3-0.8,0.5c0,0,0,0,0,0c0,0-0.3-0.2-0.5-0.5c0,2.1-0.2,3-1.5,3c-0.4,0-0.4,0-0.5-0.1
	c0-0.3-0.5-0.8-0.5-0.8c0.3,0,0.6,0.1,0.9,0.1s0.5-0.1,0.6-0.4c0.1-0.4,0.2-1.2,0.2-1.7h-0.9c-0.1,0.9-0.5,2.4-2.3,2.9
	c0,0,0,0-0.1,0c0,0,0,0,0,0c-0.1-0.2-0.7-0.6-0.7-0.6c1.8-0.3,2.2-1.5,2.3-2.4h-0.8L184.1,358.7L184.1,358.7z"/>
<path class="st21" d="M177.3,359.7c0.1,0.8,0.8,1,1.4,1c0.8,0,1.7-0.7,1.7-2.5c-0.4,0.5-1.2,0.9-1.9,0.9c-1.9,0-2.9-1.3-2.9-2.8
	c0-1.2,0.9-3,3.1-3s3.2,1.7,3.2,4.2s-0.8,4.7-3.4,4.7c-1.4,0-2.8-0.6-2.9-2.3L177.3,359.7L177.3,359.7z M180.3,356.1
	c0-0.8-0.5-1.7-1.6-1.7c-0.9,0-1.5,0.8-1.5,1.6c0,0.9,0.5,1.5,1.5,1.5S180.2,356.9,180.3,356.1L180.3,356.1z"/>
<path class="st21" d="M180.9,305.6c0,0-0.1,0-0.1,0.1c0,0.1-0.1,1.1-0.4,1.7c0,0,0,0,0,0l0,0c-0.2-0.1-0.7-0.1-0.7-0.1
	c0.4-0.7,0.5-1.6,0.5-1.9c0,0,0.5,0,0.6,0.1C180.9,305.5,180.9,305.5,180.9,305.6V305c-0.2,0-0.5,0.1-0.7,0.1c0,0.1,0,0.2-0.1,0.2
	c-0.1,0-0.2-0.8-0.2-0.8c0.2,0,0.4,0,0.5,0c0.1-0.1,0.2-0.3,0.3-0.4c-0.2-0.2-0.5-0.6-0.9-0.9l0.4-0.5c0.1,0,0.1,0.1,0.2,0.2
	c0.3-0.5,0.6-1.1,0.6-1.1c0,0,0.5,0.2,0.7,0.4c0,0,0,0,0,0.1s0,0.1-0.1,0.1c0,0,0,0-0.1,0c-0.1,0.1-0.4,0.7-0.7,1.1
	c0.1,0.1,0.2,0.2,0.2,0.3c0.4-0.5,0.6-1,0.7-1.2c0,0,0.5,0.3,0.6,0.4c0,0,0.1,0.1,0.1,0.1c0,0,0,0.1-0.1,0.1c0,0-0.1,0-0.1,0
	c0,0-0.3,0.5-0.7,0.9l0.4-0.2c0,0.1,0.1,0.2,0.2,0.3c0.6-0.7,0.9-1.8,0.9-2.2c0,0,0.6,0.1,0.8,0.1c0,0,0.1,0,0.1,0.1s0,0.1-0.2,0.1
	c0,0.2-0.1,0.4-0.2,0.7h1.9v0.2c0,0.4,0,0.8,0,1.3c0,2.1-0.2,3.3-1.7,3.3c-0.1,0-0.2,0-0.3,0c0,0-0.1,0-0.1,0
	c-0.1-0.3-0.5-0.8-0.5-0.8c0.3,0,0.5,0.1,0.8,0.1c0.8,0,0.9-0.7,0.9-2.5v-0.9h-1.4c-0.1,0.3-0.3,0.6-0.5,0.9c0,0,0,0,0,0h0
	c-0.2-0.1-0.5-0.1-0.6-0.2c0.1,0.3,0.3,0.6,0.4,0.9l-0.5,0.2c0-0.1,0-0.2-0.1-0.4c-0.1,0-0.2,0-0.4,0.1l0,2.7h-0.7L180.9,305.6
	L180.9,305.6z M181.8,304.3c-0.1-0.1-0.1-0.3-0.2-0.4c-0.1,0.2-0.3,0.3-0.4,0.5C181.5,304.4,181.7,304.3,181.8,304.3L181.8,304.3z
	 M182.1,307.1c0-0.6-0.2-1.4-0.4-1.7l0.5-0.1c0.1,0.2,0.4,1,0.5,1.6L182.1,307.1L182.1,307.1z M183.4,304.1c0.3,0.3,0.7,0.8,1,1.4
	l-0.7,0.5c-0.3-0.6-0.6-1.1-1-1.4L183.4,304.1L183.4,304.1z"/>
<path class="st21" d="M196,304.3c-0.4,0.5-0.8,0.8-0.8,0.8s0,0,0,0c-0.1-0.1-0.7-0.4-0.7-0.4c1.1-0.6,1.9-2.1,2-2.7
	c0,0,0.6,0.2,0.8,0.3c0.1,0,0.1,0.1,0.1,0.1c0,0-0.1,0.1-0.2,0.1h0c-0.1,0.3-0.5,0.9-0.9,1.6h2.6c-0.4-0.6-0.9-1.2-1.1-1.8l0.7-0.3
	c0.5,1,1.3,2,2.2,2.5c0,0-0.6,0.3-0.8,0.5c0,0,0,0,0,0c0,0-0.3-0.2-0.5-0.5c0,2.1-0.2,3-1.5,3c-0.4,0-0.4,0-0.5-0.1
	c0-0.3-0.5-0.8-0.5-0.8c0.3,0,0.6,0.1,0.9,0.1s0.5-0.1,0.6-0.4c0.1-0.4,0.2-1.2,0.2-1.7h-0.9c-0.1,0.9-0.5,2.4-2.3,2.9
	c0,0,0,0-0.1,0c0,0,0,0,0,0c-0.1-0.2-0.7-0.6-0.7-0.6c1.8-0.3,2.2-1.5,2.3-2.4H196L196,304.3L196,304.3z"/>
<path class="st21" d="M191.3,300.9c-0.1-0.6-0.5-0.9-1.2-0.9c-0.8,0-1.6,0.8-1.7,2.5c0.4-0.5,1.3-0.8,1.9-0.8c1.9,0,2.9,1.4,2.9,2.8
	v0c0,1.3-0.9,3-3.1,3s-3.2-1.8-3.2-4.1c0-2.2,0.8-4.7,3.3-4.7c1.4,0,2.7,0.8,2.8,2.2L191.3,300.9L191.3,300.9z M191.5,304.6
	c0-0.8-0.4-1.6-1.4-1.6c-1,0-1.6,0.8-1.6,1.5v0c0,0.8,0.5,1.7,1.5,1.7S191.5,305.5,191.5,304.6L191.5,304.6z"/>
<path class="st21" d="M183.3,241.4c0,0-0.1,0-0.1,0.1c0,0.1-0.1,1.1-0.4,1.7c0,0,0,0,0,0l0,0c-0.2-0.1-0.7-0.1-0.7-0.1
	c0.4-0.7,0.5-1.6,0.5-1.9c0,0,0.5,0.1,0.6,0.1C183.2,241.3,183.2,241.4,183.3,241.4v-0.6c-0.2,0-0.5,0.1-0.7,0.1
	c0,0.1,0,0.2-0.1,0.2c-0.1,0-0.2-0.8-0.2-0.8c0.2,0,0.4,0,0.5,0c0.1-0.1,0.2-0.3,0.3-0.4c-0.2-0.2-0.5-0.6-0.9-0.9l0.4-0.5
	c0.1,0.1,0.1,0.1,0.2,0.2c0.3-0.4,0.6-1.1,0.6-1.1c0,0,0.5,0.2,0.7,0.4c0,0,0,0.1,0,0.1s0,0.1-0.1,0.1c0,0,0,0-0.1,0
	c-0.1,0.1-0.4,0.7-0.7,1.1c0.1,0.1,0.2,0.2,0.2,0.3c0.4-0.5,0.6-1,0.7-1.2c0,0,0.5,0.3,0.6,0.4c0,0,0.1,0.1,0.1,0.1
	c0,0,0,0.1-0.1,0.1c0,0-0.1,0-0.1,0c0,0.1-0.3,0.5-0.7,0.9l0.4-0.2c0,0.1,0.1,0.2,0.2,0.3c0.6-0.7,0.9-1.8,0.9-2.2
	c0,0,0.6,0.1,0.8,0.1c0,0,0.1,0,0.1,0.1s0,0.1-0.2,0.1c0,0.2-0.1,0.4-0.2,0.7h1.9v0.2c0,0.4,0,0.8,0,1.3c0,2.1-0.2,3.3-1.7,3.3
	c-0.1,0-0.2,0-0.3,0c0,0-0.1,0-0.1,0c-0.1-0.3-0.5-0.8-0.5-0.8c0.3,0,0.5,0.1,0.8,0.1c0.8,0,0.9-0.7,0.9-2.5v-0.9h-1.4
	c-0.1,0.3-0.3,0.6-0.5,0.9c0,0,0,0,0,0h0c-0.2-0.1-0.5-0.1-0.6-0.2c0.1,0.3,0.3,0.6,0.4,0.9l-0.5,0.2c0-0.1,0-0.2-0.1-0.4
	c-0.1,0-0.2,0-0.4,0.1l0,2.7h-0.7L183.3,241.4L183.3,241.4z M184.2,240.2c-0.1-0.1-0.1-0.3-0.2-0.4c-0.1,0.2-0.3,0.3-0.4,0.5
	C183.8,240.2,184,240.2,184.2,240.2L184.2,240.2z M184.4,243c0-0.6-0.2-1.4-0.4-1.7l0.5-0.1c0.1,0.2,0.4,1,0.5,1.6L184.4,243
	L184.4,243z M185.7,239.9c0.3,0.3,0.7,0.8,1,1.4l-0.7,0.5c-0.3-0.6-0.6-1.1-1-1.4L185.7,239.9L185.7,239.9z"/>
<path class="st21" d="M198.3,240.2c-0.4,0.5-0.8,0.8-0.8,0.8s0,0,0,0c-0.1-0.1-0.7-0.4-0.7-0.4c1.1-0.6,1.9-2.1,2-2.7
	c0,0,0.6,0.2,0.8,0.3c0.1,0,0.1,0.1,0.1,0.1c0,0.1-0.1,0.1-0.2,0.1h0c-0.1,0.3-0.5,0.9-0.9,1.6h2.6c-0.4-0.6-0.9-1.2-1.1-1.8
	l0.7-0.3c0.5,1,1.3,2,2.2,2.5c0,0-0.6,0.3-0.8,0.5c0,0,0,0,0,0c0,0-0.3-0.2-0.5-0.5c0,2.1-0.2,3-1.5,3c-0.4,0-0.4,0-0.5-0.1
	c0-0.3-0.5-0.8-0.5-0.8c0.3,0,0.6,0.1,0.9,0.1s0.5-0.1,0.6-0.4c0.1-0.4,0.2-1.2,0.2-1.7H200c-0.1,0.9-0.5,2.4-2.3,2.9c0,0,0,0-0.1,0
	c0,0,0,0,0,0c-0.1-0.2-0.7-0.6-0.7-0.6c1.8-0.3,2.2-1.5,2.3-2.4h-0.8L198.3,240.2L198.3,240.2z"/>
<path class="st21" d="M190.9,240.8c0.1,1,0.7,1.3,1.4,1.3c1.1,0,1.6-0.8,1.6-1.7s-0.5-1.7-1.5-1.7c-0.5,0-1.1,0.2-1.4,0.9h-1.6
	l0.6-4.8h5v1.4h-3.6l-0.3,1.9c0.5-0.4,1.1-0.5,1.5-0.5h0.1c1.9,0,2.9,1.3,2.9,2.9c0,1.9-1.3,3.1-3.2,3.1c-1.7,0-3-0.8-3.1-2.6
	L190.9,240.8L190.9,240.8z"/>
<path class="st21" d="M176.3,281.6c0,0-0.1,0-0.1,0.1c0,0.1-0.1,1.1-0.4,1.7c0,0,0,0,0,0l0,0c-0.2-0.1-0.7-0.1-0.7-0.1
	c0.4-0.7,0.5-1.6,0.5-1.9c0,0,0.5,0,0.6,0.1C176.3,281.5,176.3,281.5,176.3,281.6V281c-0.2,0-0.5,0.1-0.7,0.1c0,0.1,0,0.2-0.1,0.2
	c-0.1,0-0.2-0.8-0.2-0.8c0.2,0,0.4,0,0.5,0c0.1-0.1,0.2-0.3,0.3-0.4c-0.2-0.2-0.5-0.6-0.9-0.9l0.4-0.5c0.1,0,0.1,0.1,0.2,0.2
	c0.3-0.5,0.6-1.1,0.6-1.1c0,0,0.5,0.2,0.7,0.4c0,0,0,0,0,0.1s0,0.1-0.1,0.1c0,0,0,0-0.1,0c-0.1,0.1-0.4,0.7-0.7,1.1
	c0.1,0.1,0.2,0.2,0.2,0.3c0.4-0.5,0.6-1,0.7-1.2c0,0,0.5,0.3,0.6,0.4c0,0,0.1,0.1,0.1,0.1c0,0,0,0.1-0.1,0.1c0,0-0.1,0-0.1,0
	c0,0-0.3,0.5-0.7,0.9l0.4-0.2c0,0.1,0.1,0.2,0.2,0.3c0.6-0.7,0.9-1.8,0.9-2.2c0,0,0.6,0.1,0.8,0.1c0,0,0.1,0,0.1,0.1s0,0.1-0.2,0.1
	c0,0.2-0.1,0.4-0.2,0.7h1.9v0.2c0,0.4,0,0.8,0,1.3c0,2.1-0.2,3.3-1.7,3.3c-0.1,0-0.2,0-0.3,0c0,0-0.1,0-0.1,0
	c-0.1-0.3-0.5-0.8-0.5-0.8c0.3,0,0.5,0.1,0.8,0.1c0.8,0,0.9-0.7,0.9-2.5v-0.9h-1.4c-0.1,0.3-0.3,0.6-0.5,0.9c0,0,0,0,0,0h0
	c-0.2-0.1-0.5-0.1-0.6-0.2c0.1,0.3,0.3,0.6,0.4,0.9l-0.5,0.2c0-0.1,0-0.2-0.1-0.4c-0.1,0-0.2,0-0.4,0.1l0,2.7h-0.7L176.3,281.6
	L176.3,281.6z M177.2,280.3c-0.1-0.1-0.1-0.3-0.2-0.4c-0.1,0.2-0.3,0.3-0.4,0.5C176.9,280.4,177.1,280.4,177.2,280.3L177.2,280.3z
	 M177.4,283.1c0-0.6-0.2-1.4-0.4-1.7l0.5-0.1c0.1,0.2,0.4,1,0.5,1.6L177.4,283.1L177.4,283.1z M178.8,280.1c0.3,0.3,0.7,0.8,1,1.4
	l-0.7,0.5c-0.3-0.6-0.6-1.1-1-1.4L178.8,280.1L178.8,280.1z"/>
<path class="st21" d="M191.4,280.3c-0.4,0.5-0.8,0.8-0.8,0.8s0,0,0,0c-0.1-0.1-0.7-0.4-0.7-0.4c1.1-0.6,1.9-2.1,2-2.7
	c0,0,0.6,0.2,0.8,0.3c0.1,0,0.1,0.1,0.1,0.1c0,0-0.1,0.1-0.2,0.1h0c-0.1,0.3-0.5,0.9-0.9,1.6h2.6c-0.4-0.6-0.9-1.2-1.1-1.8l0.7-0.3
	c0.5,1,1.3,2,2.2,2.5c0,0-0.6,0.3-0.8,0.5c0,0,0,0,0,0c0,0-0.3-0.2-0.5-0.5c0,2.1-0.2,3-1.5,3c-0.4,0-0.4,0-0.5-0.1
	c0-0.3-0.5-0.8-0.5-0.8c0.3,0,0.6,0.1,0.9,0.1s0.5-0.1,0.6-0.4c0.1-0.4,0.2-1.2,0.2-1.7H193c-0.1,0.9-0.5,2.4-2.3,2.9c0,0,0,0-0.1,0
	c0,0,0,0,0,0c-0.1-0.2-0.7-0.6-0.7-0.6c1.8-0.3,2.2-1.5,2.3-2.4h-0.8L191.4,280.3L191.4,280.3z"/>
<path class="st21" d="M183.8,281.3c0.1,0.8,0.8,1,1.4,1c0.8,0,1.7-0.7,1.7-2.5c-0.4,0.5-1.2,0.9-1.9,0.9c-1.9,0-2.9-1.3-2.9-2.8
	c0-1.2,0.9-3,3.1-3s3.2,1.7,3.2,4.2s-0.8,4.7-3.4,4.7c-1.4,0-2.8-0.6-2.9-2.3L183.8,281.3L183.8,281.3z M186.8,277.8
	c0-0.8-0.5-1.7-1.6-1.7c-0.9,0-1.5,0.8-1.5,1.6c0,0.9,0.5,1.5,1.5,1.5S186.8,278.5,186.8,277.8L186.8,277.8z"/>
<path class="st24" d="M164.1,299.5c0,0,17.9,2.2,18.2,23.3"/>
<path class="st24" d="M167.3,257c0,0,13.4,14-3.3,42.4"/>
<path class="st24" d="M177.5,228.3c0,0,9.6,17.2-10.2,28.8"/>
<circle class="st21" cx="132.3" cy="354.1" r="1.7"/>
<circle class="st21" cx="182.2" cy="322.8" r="1.7"/>
<circle class="st21" cx="164.1" cy="299.5" r="1.7"/>
<circle class="st21" cx="167.3" cy="257" r="1.7"/>
<circle class="st21" cx="177.5" cy="228.3" r="1.7"/>
<path class="st21" d="M207.5,243.3l-0.1,0.1l-1.6-1.6l-1.6,1.6l-0.1-0.1l1.6-1.6l-1.6-1.6l0.1-0.1l1.6,1.6l1.6-1.6l0.1,0.1l-1.6,1.6
	L207.5,243.3z M205.1,241.7c0,0.2-0.2,0.4-0.4,0.4s-0.4-0.2-0.4-0.4s0.2-0.4,0.4-0.4S205.1,241.5,205.1,241.7z M206.2,240.7
	c0,0.2-0.2,0.4-0.4,0.4s-0.4-0.2-0.4-0.4s0.2-0.4,0.4-0.4S206.2,240.4,206.2,240.7z M206.2,242.8c0,0.2-0.2,0.4-0.4,0.4
	s-0.4-0.2-0.4-0.4s0.2-0.4,0.4-0.4S206.2,242.6,206.2,242.8z M207.3,241.7c0,0.2-0.2,0.4-0.4,0.4s-0.4-0.2-0.4-0.4s0.2-0.4,0.4-0.4
	S207.3,241.5,207.3,241.7z"/>
<path class="st21" d="M200.4,284.2l-0.1,0.1l-1.6-1.6l-1.6,1.6l-0.1-0.1l1.6-1.6L197,281l0.1-0.1l1.6,1.6l1.6-1.6l0.1,0.1l-1.6,1.6
	L200.4,284.2z M198,282.6c0,0.2-0.2,0.4-0.4,0.4s-0.4-0.2-0.4-0.4s0.2-0.4,0.4-0.4S198,282.4,198,282.6z M199.1,281.5
	c0,0.2-0.2,0.4-0.4,0.4s-0.4-0.2-0.4-0.4s0.2-0.4,0.4-0.4S199.1,281.3,199.1,281.5z M199.1,283.7c0,0.2-0.2,0.4-0.4,0.4
	s-0.4-0.2-0.4-0.4s0.2-0.4,0.4-0.4S199.1,283.5,199.1,283.7z M200.2,282.6c0,0.2-0.2,0.4-0.4,0.4s-0.4-0.2-0.4-0.4s0.2-0.4,0.4-0.4
	S200.2,282.4,200.2,282.6z"/>
<path class="st21" d="M205.4,306.6l-0.1,0.1l-1.6-1.6l-1.6,1.6l-0.1-0.1l1.6-1.6l-1.6-1.6l0.1-0.1l1.6,1.6l1.6-1.6l0.1,0.1l-1.6,1.6
	L205.4,306.6z M203,305c0,0.2-0.2,0.4-0.4,0.4s-0.4-0.2-0.4-0.4s0.2-0.4,0.4-0.4S203,304.8,203,305z M204.1,303.9
	c0,0.2-0.2,0.4-0.4,0.4s-0.4-0.2-0.4-0.4s0.2-0.4,0.4-0.4S204.1,303.7,204.1,303.9z M204.1,306.1c0,0.2-0.2,0.4-0.4,0.4
	s-0.4-0.2-0.4-0.4s0.2-0.4,0.4-0.4S204.1,305.9,204.1,306.1z M205.1,305c0,0.2-0.2,0.4-0.4,0.4s-0.4-0.2-0.4-0.4s0.2-0.4,0.4-0.4
	S205.1,304.8,205.1,305z"/>
<path class="st21" d="M193.7,362.4l-0.1,0.1l-1.6-1.6l-1.6,1.6l-0.1-0.1l1.6-1.6l-1.6-1.6l0.1-0.1l1.6,1.6l1.6-1.6l0.1,0.1l-1.6,1.6
	L193.7,362.4z M191.3,360.8c0,0.2-0.2,0.4-0.4,0.4s-0.4-0.2-0.4-0.4s0.2-0.4,0.4-0.4S191.3,360.6,191.3,360.8z M192.3,359.7
	c0,0.2-0.2,0.4-0.4,0.4s-0.4-0.2-0.4-0.4s0.2-0.4,0.4-0.4S192.3,359.5,192.3,359.7z M192.3,361.9c0,0.2-0.2,0.4-0.4,0.4
	s-0.4-0.2-0.4-0.4s0.2-0.4,0.4-0.4S192.3,361.6,192.3,361.9z M193.4,360.8c0,0.2-0.2,0.4-0.4,0.4s-0.4-0.2-0.4-0.4s0.2-0.4,0.4-0.4
	S193.4,360.6,193.4,360.8z"/>
<line class="st24" x1="203.7" y1="361.3" x2="219.9" y2="361.3"/>
<g>
	<path class="st25" d="M284.1,224.7c0.1,0,0.1,0,0.2,0c0,0.1,0,0.1-0.1,0.2l0.3,1.1l1.7-0.5c0,0.2,0.3,1.3,0.3,1.5
		c0.2,1.2,0.3,1.7,0.4,1.8c0.1,0.2,0.1,0.2,0.4,0.1s0.3-0.1,0.2-1c0.2,0.2,0.6,0.2,0.9,0.2c0.1,1.1-0.1,1.3-0.7,1.5l-0.4,0.1
		c-0.5,0.1-0.8,0.2-1-0.4c0-0.1,0-0.2-0.1-0.3l-0.5-2.6l-0.9,0.3c0.1,0.6,0.2,1.7-0.2,2.7c-0.3,0.6-0.6,1.1-1.2,1.5
		c-0.4-0.3-0.6-0.4-0.8-0.4c0.6-0.4,1.8-1.4,1.4-3.6l-1.9,0.5l-0.2-0.7l1.9-0.6c-0.1-0.2-0.3-1.2-0.4-1.4L284.1,224.7L284.1,224.7z"
		/>
	<path class="st25" d="M284,231.4l0.8-0.2c0,0,0.1,0,0.2,0s-0.1,0.1-0.1,0.2l0.5,1.6l0.5-0.4c0.3,0.3,0.4,0.5,0.6,0.8l-0.7-2.4
		l0.8-0.2c0,0,0.1,0,0.1,0c0,0.1,0,0.1-0.1,0.1l0.4,1.6l0.6-0.4c0.1,0.1,0.3,0.3,0.7,0.9l-0.7-2.6l0.8-0.2c0.1,0,0.1,0,0.2,0.1
		c0,0.1,0,0.1-0.1,0.2l1.5,5.4l-0.8,0.2l-0.7-2.5c-0.1,0.1-0.2,0.1-0.5,0.4c-0.3-0.6-0.8-1.1-0.9-1.2l1,3.4l-0.8,0.2l-0.6-2.1
		c-0.2,0.1-0.2,0.2-0.5,0.4c-0.1-0.2-0.4-0.7-0.8-1.2l0,0.2c0.3,0.9,0.4,1.4,0.3,2.1c0,0.6-0.2,1.3-0.5,1.7
		c-0.2-0.1-0.5-0.2-0.7-0.3c0.6-1.1,0.5-2,0.3-2.9l-0.2-0.8c0,0,0,0,0,0c0,0.3,0.2,0.9,0.1,1.7c-0.3,0-0.7,0-0.7,0
		c0-0.2,0.1-0.9-0.1-1.8l0.7-0.1c0,0,0.1,0,0.1,0L284,231.4L284,231.4z"/>
	<path class="st25" d="M287.4,240.3l0.9-0.3l0.2,0.6l-0.8,0.2c0.1,0.1,0.6,0.4,1,0.5c-0.2,0.2-0.3,0.3-0.4,0.6
		c-0.2-0.1-0.4-0.2-0.6-0.4l0.4,1.4l-0.7,0.2l-0.4-1.4c-0.1,0.4-0.2,0.8-0.4,1.2c-0.2-0.1-0.4-0.2-0.7-0.2c0.4-0.6,0.6-1.2,0.7-1.7
		l-0.9,0.2l-0.2-0.6l1.1-0.3l-0.1-0.4l-1.1,0.3l-0.2-0.6l0.7-0.2c-0.2-0.3-0.3-0.4-0.4-0.5l0.3-0.2l-0.6,0.2l-0.2-0.6l1-0.3
		l-0.2-0.6l0.8-0.1c0.1,0,0.1,0,0.2,0c0,0,0,0.1-0.1,0.1l0.1,0.4l0.9-0.2l0.2,0.6l-0.4,0.1c0.2,0,0.2,0,0.2,0c0,0.1,0,0.1-0.1,0.1
		c0,0.2-0.1,0.4-0.1,0.5l0.7-0.2l0.2,0.6l-0.9,0.2c0,0.1-0.1,0.1-0.2,0.2L287.4,240.3L287.4,240.3z M286.2,238.7
		c0.2,0.3,0.3,0.4,0.4,0.5l-0.3,0.2l0.6-0.2c0.1-0.3,0.1-0.7,0.1-0.8L286.2,238.7L286.2,238.7z M287.9,237.4l0.4-0.1
		c0.4-0.1,1.2-0.6,1.6-0.9l0.6,0.4c0,0,0,0,0,0.1c0,0.1,0,0.1-0.1,0.1c0,0-0.1,0-0.2,0c-0.5,0.3-0.9,0.5-1.5,0.8l0.2,0.8l1.8-0.5
		l0.2,0.7l-0.6,0.2l0.9,3.1l-0.7,0.2l-0.9-3.1l-0.5,0.1c0.1,0.5,0.6,2,0,3.4c-0.2-0.1-0.4-0.1-0.8-0.1c0.5-1.1,0.3-2.1,0.1-3
		L287.9,237.4L287.9,237.4z"/>
	<path class="st25" d="M292.2,245.1l-0.6,0.2l0.2,0.7l1.1-0.3l0.2,0.7l-1.1,0.3l0.5,1.8l-0.7,0.2l-0.5-1.8l-1,0.3l-0.2-0.7l1-0.3
		l-0.2-0.7l-0.7,0.2l-0.2-0.6c-0.1,0.1-0.1,0.2-0.1,0.2c-0.1-0.1-0.2-0.1-0.4-0.2l0.5,1.9l-0.8,0.2l0.1,0.3l1.1-0.3l0.2,0.6
		l-1.1,0.3l0.3,1l-0.7,0.2l-0.3-1l-1,0.3l-0.2-0.6l1-0.3l-0.1-0.3l-0.9,0.2l-0.6-2.2l0.9-0.2l-0.1-0.3l-1,0.3l-0.2-0.6l1-0.3
		l-0.2-0.6l0.7-0.2c0.1,0,0.1,0,0.1,0c0,0.1,0,0.1-0.1,0.1l0.1,0.4l1-0.3l0.2,0.6l-1,0.3l0.1,0.3l0.8-0.2v0c0.6-0.9,0.7-1.6,0.7-1.8
		l0.9-0.1c0,0,0.1,0,0.1,0c0,0.1-0.1,0.1-0.1,0.1c0.4,0.3,1,0.7,1.8,0.9c-0.2,0.2-0.2,0.4-0.3,0.7c-0.1,0-0.2-0.1-0.4-0.2
		L292.2,245.1L292.2,245.1z M287.8,246.1l1.1-0.3l-0.1-0.3l-1.1,0.3L287.8,246.1z M289.1,246.3l-1.1,0.3l0.1,0.4l1.1-0.3
		L289.1,246.3z M292,244.5c-0.3-0.1-0.9-0.4-1.3-0.8c-0.1,0.4-0.3,0.9-0.6,1.3L292,244.5L292,244.5z"/>
	<path class="st25" d="M290.7,250.5C290.7,250.5,290.7,250.5,290.7,250.5c0.1,0.1,0,0.1-0.1,0.2c-0.3,0.9-0.3,1-0.6,1.7
		c0.1-0.1,0.3-0.1,0.6-0.2c-0.2-0.2-0.2-0.3-0.3-0.4l0.4-0.3c0.4,0.4,0.7,0.9,0.8,1c-0.1,0.1-0.4,0.3-0.5,0.4c0-0.1,0-0.1-0.1-0.2
		c-0.1,0-0.2,0.1-0.3,0.2l0.7,2.6l-0.7,0.2l-0.6-2c0,0,0,0.1-0.1,0.1c0.1,0.4,0.1,0.8,0.1,1.4c-0.2,0-0.3,0-0.6,0c0-0.3,0-1-0.1-1.5
		l0.6-0.1c0.1,0,0.1,0,0.1,0l-0.1-0.4c-0.1,0-0.5,0.2-0.6,0.3c0,0,0,0.2-0.1,0.2c0,0-0.1,0-0.1-0.1l-0.3-0.6c0.1,0,0.2-0.1,0.5-0.1
		c0,0,0.1-0.3,0.2-0.5c-0.1-0.1-0.5-0.3-1.1-0.5l0.2-0.7c0.1,0,0.1,0.1,0.3,0.1c0-0.1,0.2-0.6,0.2-1.2l0.7,0.1c0,0,0.1,0,0.1,0.1
		c0,0.1,0,0.1-0.2,0.1c-0.1,0.4-0.1,0.5-0.3,1.1c0.2,0.1,0.2,0.1,0.2,0.1c0-0.1,0.2-0.5,0.3-1.1L290.7,250.5L290.7,250.5z
		 M291.1,252.9c0.1,0.2,0.2,0.6,0.5,1.1c-0.2,0.1-0.3,0.2-0.5,0.3c-0.2-0.3-0.4-0.8-0.5-1.1L291.1,252.9L291.1,252.9z M293.3,252.1
		c0.1,0.2,0.2,0.3,0.3,0.4c0.1-0.1,0.3-0.4,0.5-0.8l0.6,0.2c0,0,0.1,0,0.1,0.1s0,0.1-0.1,0.1c0,0,0,0-0.1,0
		c-0.2,0.3-0.3,0.6-0.5,0.8c0.2,0.2,0.6,0.5,1.2,0.6c-0.1,0.1-0.2,0.2-0.3,0.6c-0.2-0.1-0.8-0.4-1.3-0.8l0.2,0.7
		c0.2,0.6-0.6,0.9-0.9,1c0-0.1-0.1-0.3-0.5-0.6c0.1,0,0.3,0,0.5-0.1c0.1,0,0.3-0.1,0.2-0.3l-0.6-2l-1,0.3l-0.6-2.2l0.8-0.2
		c0.1-0.3,0-0.5,0-0.7l0.8-0.1c0,0,0.1,0,0.1,0.1c0,0.1,0,0.1-0.1,0.2c0,0.2,0,0.2-0.1,0.4l1.2-0.4l0.6,2.2l-1,0.3L293.3,252.1
		L293.3,252.1z M291.5,253.3l-0.2-0.6l0.9-0.3l0.3,0.2c0.1,1.2-0.4,2.1-0.5,2.4c-0.3-0.1-0.6-0.2-0.7-0.2c0.3-0.4,0.5-1,0.5-1.6
		L291.5,253.3L291.5,253.3z M291.8,250.7l1.3-0.4L293,250l-1.3,0.4L291.8,250.7L291.8,250.7z M293.3,250.8l-1.3,0.4l0.1,0.4l1.3-0.4
		L293.3,250.8z"/>
</g>
<path class="st13" d="M249.6,321.7c0,1.5-1.2,2.7-2.7,2.7s-2.7-1.2-2.7-2.7s1.2-2.7,2.7-2.7S249.6,320.2,249.6,321.7"/>
<g>
	<path class="st17" d="M249.3,315.8V315h2.5v-1.6l0.8,0c0.1,0,0.1,0,0.1,0.1c0,0.1-0.1,0.1-0.1,0.1v1.4h2.5v0.8h-2.5
		c0.3,0.9,0.9,2.1,2.5,2.9c-0.4,0.3-0.5,0.4-0.6,0.6c-0.7-0.3-1.8-1.2-2.4-2.5c-0.7,1.6-1.8,2.2-2.6,2.5c-0.1-0.1-0.2-0.4-0.6-0.7
		c0.5-0.2,2.2-0.9,2.6-2.9L249.3,315.8L249.3,315.8z"/>
	<path class="st17" d="M261.5,318.2v0.8h-5.9v-0.8H261.5z M261.2,313.8v0.8H256v-0.8H261.2z M260.8,315.9v0.8h-4.4v-0.8H260.8z"/>
	<path class="st17" d="M265.4,319.3h-0.8v-1.5c-0.1,0.2-0.9,1-2,1.5c-0.2-0.3-0.3-0.4-0.7-0.6c1.1-0.4,1.9-1,2.1-1.3h-1.3V315h1.9
		v-0.3h-2.5V314h2.5v-0.6l0.8,0c0,0,0.1,0,0.1,0.1c0,0.1-0.1,0.1-0.2,0.1v0.4h2.5v0.6h-2.5v0.3h1.9v2.4H266c0.6,0.5,1.3,0.9,2,1.2
		c-0.4,0.4-0.5,0.5-0.6,0.6c-0.3-0.1-1.1-0.6-2-1.5L265.4,319.3L265.4,319.3z M264.6,315.6h-1.1v0.4h1.1V315.6z M264.6,316.4h-1.1
		v0.4h1.1V316.4z M265.4,316h1.1v-0.4h-1.1V316z M265.4,316.8h1.1v-0.4h-1.1V316.8z"/>
</g>
<g>
	<path class="st26" d="M221,334.7h-0.8v-1.5l0.8,0c0.1,0,0.1,0,0.1,0.1c0,0.1-0.1,0.1-0.1,0.1v0.4h0.8v-0.7h-1v-3.6h1.1
		c0.1-0.3,0.2-0.4,0.2-0.6l0.9,0.1c0.1,0,0.1,0,0.1,0.1c0,0.1-0.1,0.1-0.2,0.1c0,0.1-0.1,0.2-0.1,0.3h2.2v2.1h-3.4v0.3h4.3v0.5h-4.3
		v0.3h4.2c0,0.6-0.1,1.5-0.4,1.9c-0.3,0.4-0.5,0.4-1.3,0.4c0-0.2-0.1-0.3-0.1-0.5H221L221,334.7L221,334.7z M221.7,330.3h2.6V330
		h-2.6V330.3z M224.3,330.7h-2.6v0.3h2.6V330.7z M223.4,333.8v-0.6l0.8,0c0.1,0,0.2,0,0.2,0.1c0,0.1-0.1,0.1-0.2,0.1v0.6
		c0.2,0,0.3,0,0.4,0c0.3,0,0.3-0.1,0.4-0.2c0-0.1,0.1-0.5,0.1-0.8h-2.8l0.4,0c0.1,0,0.2,0,0.2,0.1c0,0.1-0.1,0.1-0.2,0.1v0.5H223.4z
		"/>
	<path class="st26" d="M230.5,334.1c0,0.7-0.4,0.7-1.1,0.7c-0.1-0.3-0.1-0.4-0.4-0.8c0.1,0,0.3,0.1,0.4,0.1c0.2,0,0.2,0,0.2-0.3
		v-1.1h-1.4v-2.4h1.1c0.1-0.3,0.1-0.4,0.2-0.5h-1.7v0.8c0,1.2,0,2.9-0.8,4.1c-0.1-0.1-0.5-0.2-0.7-0.3c0.6-1,0.8-1.6,0.8-3.8v-1.4
		h5.2v0.6h-1.8c0,0,0,0,0,0c0,0.1-0.1,0.1-0.2,0.1c-0.1,0.2-0.1,0.3-0.1,0.3h1.6v2.4h-1.4L230.5,334.1L230.5,334.1z M229.4,333.2
		C229.4,333.2,229.5,333.2,229.4,333.2c0.1,0.1,0,0.2-0.1,0.2c-0.3,0.5-0.5,0.9-0.9,1.2c-0.2-0.2-0.5-0.3-0.7-0.4
		c0.6-0.5,0.8-0.9,1-1.3L229.4,333.2L229.4,333.2z M229.1,331.2h2v-0.4h-2V331.2z M231.1,331.8h-2v0.4h2V331.8z M231.3,332.9
		c0.3,0.2,0.9,0.9,1.1,1.3c-0.4,0.3-0.4,0.3-0.6,0.5c-0.1-0.2-0.6-0.9-1.1-1.4L231.3,332.9L231.3,332.9z"/>
	<path class="st26" d="M238.4,334.8c-0.4-0.3-1-1-1.3-1.7c-0.4,0.8-0.8,1.3-1.4,1.7c-0.2-0.2-0.3-0.3-0.7-0.5
		c0.1-0.1,0.2-0.1,0.3-0.2c-0.3,0.1-0.5,0.2-2.2,0.6c0,0,0,0.2-0.1,0.2c0,0-0.1,0-0.1-0.1l-0.1-0.7c0.2,0,0.8-0.1,1-0.2v-0.3
		c0,0-0.3,0.1-0.7,0.2c-0.1-0.4-0.1-0.6-0.2-1.1l0.6-0.1c0.1,0.2,0.2,0.7,0.3,1v-1.2h-0.9v-0.6h0.9v-0.5h-0.5v-0.5
		c-0.1,0.1-0.2,0.1-0.2,0.2c-0.2-0.3-0.3-0.4-0.5-0.5c0.6-0.4,1.1-0.9,1.4-1.5l0.7,0.2c0,0,0.1,0,0.1,0.1s0,0.1-0.2,0.1
		c0.4,0.5,0.6,0.6,0.9,0.8c-0.1,0.1-0.3,0.3-0.5,0.5c-0.2-0.2-0.4-0.3-0.8-0.8c-0.1,0.1-0.3,0.4-0.7,0.8h1.6v0.5
		c0.3-0.5,0.5-1.1,0.5-1.9l0.8,0.1c0.1,0,0.1,0,0.1,0.1c0,0.1-0.1,0.1-0.2,0.1c0,0.2,0,0.3-0.1,0.5h0.4V329l0.8,0c0,0,0.1,0,0.1,0.1
		c0,0.1-0.1,0.1-0.1,0.1v0.9h1.1v0.6h-1.1v0.8h1.3v0.6h-1.2c0.2,0.9,0.7,1.6,1.4,2C238.8,334.3,238.5,334.6,238.4,334.8L238.4,334.8
		z M236.7,330.8h-0.5c-0.1,0.4-0.2,0.6-0.3,0.7c-0.2-0.1-0.3-0.2-0.7-0.3v0.1h-0.6v0.5h0.7v0.6h-0.7v1c0.1-0.3,0.3-0.7,0.3-0.9
		l0.6,0.2c0,0,0.1,0,0.1,0.1c0,0.1-0.1,0.1-0.2,0.1c-0.1,0.3-0.2,0.5-0.3,0.8c0.1,0,0.2-0.1,0.3-0.1c0,0.1,0,0.3,0,0.4
		c0,0.1,0,0.1,0,0.2c0.9-0.6,1.2-1.6,1.2-2h-1.1v-0.6h1.2V330.8L236.7,330.8z M234.7,333.4v0.4c0.1,0,0.4-0.1,0.5-0.1
		C235.1,333.5,234.9,333.4,234.7,333.4z"/>
	<path class="st26" d="M240.9,331.4v2c0,0.1,0,0.3,0.3,0.4c0.3,0.2,0.7,0.2,1.4,0.2c1.4,0,2.3-0.1,2.7-0.1c-0.1,0.2-0.2,0.5-0.2,0.8
		h-2.9c-0.9,0-1.3-0.1-1.7-0.6c-0.1,0.1-0.6,0.5-0.7,0.5c0,0,0,0.1,0,0.1c0,0.1,0,0.1-0.1,0.1c0,0-0.1,0-0.1-0.1l-0.4-0.7
		c0.2-0.1,0.5-0.2,0.8-0.5v-1.5h-0.8v-0.7L240.9,331.4L240.9,331.4z M239.9,329c0.1,0.1,0.6,0.4,1,1c-0.2,0.2-0.5,0.5-0.5,0.6
		c-0.4-0.4-0.7-0.7-1-1L239.9,329L239.9,329z M244.8,330.6v3.2H244v-0.2h-1.7v0.2h-0.8v-3.2h0.9c0-0.1,0.1-0.3,0.1-0.4h-1.5v-0.6
		h0.9c-0.1-0.2-0.2-0.3-0.4-0.5l0.6-0.3c0.3,0.3,0.4,0.5,0.5,0.7c-0.1,0-0.2,0.1-0.3,0.1h1c0.2-0.3,0.2-0.5,0.4-0.8l0.7,0.2
		c0.1,0,0.1,0,0.1,0.1c0,0.1-0.1,0.1-0.1,0.1c0,0.1-0.2,0.3-0.2,0.4h0.9v0.6h-1.8c-0.1,0.2-0.1,0.3-0.2,0.4L244.8,330.6L244.8,330.6
		z M244,331.5v-0.3h-1.7v0.3H244z M244,332.3v-0.4h-1.7v0.4H244z M244,333.1v-0.4h-1.7v0.4H244z"/>
</g>
</svg>
