<?xml version="1.0" encoding="UTF-8"?><svg id="a" xmlns="http://www.w3.org/2000/svg" viewBox="0 0 776.23 845.45"><defs><style>.b{stroke:#cab6d8;}.b,.c,.d{stroke-width:1.5px;}.b,.c,.d,.e,.f,.g,.h,.i,.j,.k,.l,.m{fill:none;}.b,.c,.d,.h{stroke-linecap:round;stroke-linejoin:round;}.c{stroke:#c9bc9c;}.d{stroke:#dae000;}.e{stroke-dasharray:0 0 1.94 1.94;}.e,.f,.g{stroke:#00913a;stroke-width:.75px;}.e,.f,.g,.i,.j,.k,.l,.m{stroke-miterlimit:10;}.n{fill:#00913a;}.o,.p{fill:#e60012;}.q{fill:#fff;}.r{fill:#f08300;}.s{fill:#fef0db;}.t,.u{fill:#00a0e9;}.v{fill:#b28247;}.w,.x{fill:#cab6d8;}.y,.z{fill:#dae000;}.aa{fill:#231815;}.f{stroke-dasharray:0 2;}.h{stroke:#ee7800;}.h,.k{stroke-width:2.4px;}.i,.j{stroke:#e60012;}.z,.ab,.x,.u,.p{fill-rule:evenodd;}.ab{fill:#c9bc9c;}.j{stroke-width:4.14px;}.k,.m{stroke:#00a0e9;}.l{stroke:#b0bfc8;}.l,.m{stroke-width:2.76px;}</style></defs><path class="s" d="M776.21,291.31c-1.1-5.48-21.47-2.37-25.39,.85,1.87-8.74-6.55-4.89-11.5-6.24,2.69-4.61,1.22-14.91,.84-14.12,1.56-3.22,8.92-4.32,8.8-4.05,4.04-8.87,8.05-1.75,9-10.71,1.22-11.63-11.12-7.95-8.6,.01-2.44-.33-4.23-3.85-6.65-1.16-.89-11.42-2.64-3.97-6.48-.9-1.35-4.18-10,1.24-11.62-1.35,1.68-1.62,14.5-7.86,13.2-11.93-1.45-4.53-21.85-1.84-24.98-1.13,3.01-4.6,25.42-37.19,19.91-41.96-1.77-1.53-32.09,5.47-38.32,4.82-6.06-.63-12.67-5.36-20.55-5.44-15.54-.16-49.95,8.84-32.01-23.05,11.1,9.1,37.74-.46,28.79-14.8,19.15,0,20.78-4.36,22.64-28.51,1.49-19.38-4.75-37.35-20.9-47.28-30.15-18.55-32.97,11.05-55.72,23.15-15.41,8.2-54.31-2.47-70.03-11.3-22.73-12.77-18-28.11-25-50.49,8.76,6.18-.93-35.99-.93-1.35-4.5-4.31-2.87-.04-4.89,1,.96,.33-6.53-3.31-6.22-2.57,4.66,1.66,14.38-33.23,13.47-35-10.37-20.19-17.28,4.23-31.43,12.22-2.02-13.59-20.81-15.85-30.4-15.68-5,.09-19.61,5.74-22.9,7.31-10.81,5.16-14.7,5.85-27.35,8.93-3.5,.85-19.91,8.45-19.79,8.34-8.46,8.5-2.05,21.49-4.3,27.19-3.53,8.93-4.84,13.43-12.16,19.53-4.07,3.4-6.89,7.97-12.66,9.82-13.16,4.22-1.96-8.73-13.28-8.73-14.15,0,6.83,15.36,6.63,15.23,9.82,6.4,7.41,.86,15.3-2.65,2.38,10.01-1.22,18.94-16.45,15.89,5.14-7.35-6.8-19.32-8.48-3.88,1.56,3.21-19.25-12.8-9.99-11.59-13.77-1.8-5.06-1.44-18.32,5.75,2.18-1.18-16.73,14.34-15.91,12.12-.9,2.43,2.5,21.42,8.14,13.51,.78,.19,1.37,.72,1.78,1.58-2.14,10.41-33.18,6.12-25.4,24.78-5.21,1.22-10.19,.83-14.31-2.12,3.61-2.09,1.03-8.52-3.03-7.91,2.69-2.02,5.7-16.99,2.88-16.99-17.2,0-35.33-10.25-34.41,18.39-3.45-5.15-50.19,29.51-8.32,19.33-10.41,5.03,.51,10.65,.51,5.96,1.11,.9,2.86,6.23,1.35,7.69-.12-1.27-27.28,.55-27.55,.97-.21-1.9,6.03-18.3,.93-18.3-5.69,0-5.91,14.65-12.15,15.78-4.51,.81-12.5-5.73-16.2-2.56,8.18-17.28-26.61,7.68-30.16,8.24,2.23-5,.47-26.86-4.53-25.62-6.35,1.58-14.05,36.93,1.78,28.52-.61,3.09-1.6,11.02,.06,13.6-5.31,0-10.75,10.51-6.95,14.69-7.58,0-8.42,10.51-4.58,15.06,5.72-.44-22.44-.67-10.96,5.23,12.49,6.42,18.36,1.54,28.25-7.75,10.43-9.8,16.71-36.65,25.06-40.36-1.97,6.02,1.93,13.11,4.09,18.95-16.77-2.96-2.33,22.95-1.47,24.45,11.72,20.47,1.27-4.59,17.33,1.39-5.7,10.11-1.19,9.03,6.63,14.32-1.33,3.35-1.42,21.2-6.32,27.08-.12-.77-.48-1.33-1.08-1.7,4.01-1.72-16.81-5.47-21.83,6.93-8.93,22.05,13.58-3.73,20.23,2.04,4.72,4.09-5.45,14.74-5.79,19.71,.04-.54-7.87,.11-3.18,9.78,3.2,6.61,7.96-1.34,10.15,1.84,8.17,11.85,13.29,30.39,28.8,28.04-2.8,6.75,12.22,15.31,11.62,21.6-1.74,18.48-9.52-3.51-13.24,5.51-1.72,4.11,9.2,12.89,12.78,12.41-.47,12.62-32.58,30.21-9.36,27.63-11.87,15.53,19.44,1.31,5.27-.93,33.09-7.65,35.14-56.16,72.98-59.78,44.67-4.28-7.76,30.54,14.92,50.24,8.19,7.11,4.35,5.91,18.07,1.85,2.93-.87,24.31-14.62,26.83-17.49,28.45-32.32-21.86-86.79-36.22-52.82-32.26-4.49,7.01-17.92,8.64-28.6,1.76-11.54-16.24-32.56-21.46-43.5,4.01,1.51,24.72-19.57,24.24-23.61-2.57,.22,23.74,15.08,21.87,13.5,4.81,4.07,5.52,3.94,10.24,9.54,2.64,3.12,5.79,11.89,7.86,18.7,1.49,4.91-6,7.96-5.28,12.41,.37,2.27,6.52,2.05,7.57,6.2,4.54,17.9,7.52,15.39,15.76,24.15,3.21,3.42,19.73,14.23,20.29,15.43,4.13,8.9-.18,26.34,5.16,22.78,2.97,18.89-57.31,39.95-45.64,51.46-8.54,7.66-2.07,10.96,3.08,12.09-1.53,.83-2.81,2.83-3.79,4.24-5.32-14.18-27.76,3.03-30.48,10.08,3.09-1.77-12.68,4.02-13.3,4.27,2.14-16.4-4.43-25.37-20.97-25.33-6.97,.01-7,8.04-18.54,9.88-2.07,0-2.37-15.01-10.63-3.19-1.69,2.42,6.79,6.32,5.57,9.26-1.49,3.58-6.55,13.59-7.66,17.83-1.44,5.49-12.59,39.78,.13,39.78-10.67,8.76-11.61,18.72,.71,19.41,1.56,4.17-3.56,13.12,1.36,19.11,5.2,6.33,16.46,3.06,8.41-7.52,5.99-.03,11.91,.87,11.66-8.36,.58,.05,1.16,0,1.73-.16-16.69,19.54,20.24,37.23,23.49,45.69,1.81,4.7-7.85,8.97-6.96,13.37-.25-1.25,7.02,9.99,7.12,14.52,.37,17.45-5.54,22.88-6.73,37.43-2.22,27.12,27.94,27.99,35.06,57.67,5.02,20.94-2.11,51.48-24.89,57.51-.33,.09-32.83-15.83-27.2,.46-.74-2.15,21.28,20.17,15.25,20.17,1.59,0,3.03-3.84,2.74-5.1-.5-.1,6.01,4.67,5.53,3.77,1.13,2.26-8.81,1.99-8.84,5.87-.03,3.71,9.86,5.77,11.58,4.88,.13,2.87-7.16,14.25,.65,18.62,6.64,3.71,28.04-.62,35.15-.16,19.75,1.28,20.26,4.25,33.52,12.04,6.85,4.02,.6,4.85,11.9,7.98,8.71,2.41,6.6,4.55,12.95,1.78,33-14.42-.71-41.12-9.85-60.27-6.65-13.93-12.18-53.7,9.32-65.53-8.34,13.44,10.13,27.49,22.36,19.94,.76,2.27-5.91,7.23-3.65,10.15,1.68,2.18,14.18,19.96,16.2,23.9,9.17,17.94,7.19,32.45,3.41,50.82-4.04,19.64-11.44,23.39-20.22,38.68-1.19,2.07-12.19,27.89-5.99,31.03,2.28,1.16,51.95-28.18,60.71-32.99,11.16-6.13,14.68-14.68,22.64-21.48,3.11-2.66,31.45-17.53,31.45-26.89,0-6.71-10.61-.95-12.65-.95,19.39-15.89-9.31-17.83-13.5-29.18,5.89-15.84,19.55-23.14,31.63-20.99,6.73,4.55,25.01,29.51,33.54,21.93,.52,2.61,9.93,15.18,14.24,8.54-1.41,2.16,2.81-18.82,2.51-17.68,2.98-11.03,1.87-14.42,4.73-24.79,3.47-12.58,9.74-18.14,14.54-29.05,4.02-9.13,5.98-23.62,6.12-34.45,.07-4.96,4.68-9.65,4.65-13.69-.03-4.72-8.52-7.08-8.76-12.71-1.61-38.19,18.81-89.71,31.84-125.38,4.03-11.03,8.26-22.64,13.71-32.79,2.67-4.98,10.86-8.04,12.35-11.94,2.35-6.18-11.09-5.18-7.07-13.55,20,20.22,8.98-25.03,5.36-16.04,2.72-6.76,21.54-38.73,25.71-40.25-3.41,11.01,14.26,6.19,10.57-.18-.31-.53-6.74-2.58-6.99-2.5,1.21-1.66,.9-1.46,2.55-2.6,2.62,9.22,17.18-16.48,16.02-22.51,.59,.13,1.17,.07,1.73-.18,2.22,8.08,12.34-1.16,6.51-3.71,10,.5,31.19-19.76,14.03-20.04,4.18-10.28,25.38-24.08,24.58-28.06Zm-386.74,100.74-3.27,17.26-33.2,57.78-20.48-19.84-28.26,47.76c-1.06-6.51,2.94-8.47,6.92-5.48,5.01,0,28.68-35,31.19-41.3,3.52,4.28,13.29,4.99,17.2,1.87,.17,1.39,.5,2.75,1,4.07-.51-.05-1.67,.31-2.04,.68,.74-11.77-18.78,21.29-7.17,16.22-.76,.77-.1,1.16,2,1.18-1.18,1.5-6.97-5.92-5.84,3.19,.59,4.86,34.72-6.25,16.65-15.29-.24,.23,13.27-9.03,11.62-5.1-4.27,10.19,6.17-6.14,5.63-5.21-1.54,2.64-2.11-12.52-2.04-12.96,3.16-18.24,24.77-62.6,46.41-46.46-5.04,3.75-19.4,14.97-20.85,20.3-1.72,6.34,6.34,16.15,5.8,19.08-2.41,13.22-16.46,32.89-22.38,45.9-5.77,12.69-16.94,16.26-24.09,28.02-2.5,4.11-1.35,15.99-6.12,19.99-12.18,10.21-21.83-6.17-36.81,5.24-.08-.45,14.89-19.97,2.9-17.27,3.83-4.79,8.58-12.86,2.64-18.18,6,2.61,20.37-9.21,17.21-16.22-6.61-14.64-24.66,9.49-17.93,15.71-1.34-.82-2.59-.64-3.77,.54,.78-1.51,6.59-8.99,.79-8.99-6.67,0-16.12,27.56-18.93,10.47ZM0,560.29m429.16,108.27c-2.27-1.22-.43-4.63-5.11-.99,2.54-8.18-.06-21.25,9.08-25.96,6.48-3.34,28.72,2.69,31.37,6.24,5.78,7.7,4.72,20.12-2.33,27.52-19.26,20.2-13.67-24.54-33.01-6.81ZM346.13,103.56c0-.63,3.45,4.17,3.7,5.91-2.1-.2-4.31-.04-6.41-.15,2.12-.66,3.03-2.58,2.71-5.76Zm-85.13,208.38c-14.76,0-21.49,11.1-26.77-6.72-.54-1.83,5.71-46.35-13.69-35.34,1.57-19.6,18.02,1.32,16.19,1.32,9.37,0,9.1-17.19,22.18-.58,9,11.43-1.55,15.52,1.38,27.86-18.64-3.73,1.83,13.67,3.62,6.6,3.52,4.62,5.15,10.3,9.56,13.98-1.5-1.5-10.62-6.99-12.46-7.12Zm-22.06,48.62-26.59-107.5c.09,.35-9.55-3.22-9.38-5.22,2.42,.37,9.35,1.31,8.56-3.28,1.09,1.26,2.3,1.61,3.63,1.02,.06,.53,.2,1.04,.42,1.53-3.55-.45-4.16,2.55-3.23,5.94Zm25.82-67.61-.23-9.2c6.5,1.01-3.27,2.44-2.49,6.2-2.07-4.25,.64,.14,2.49-6.2Zm7.04-11.93c-.13,3.64-1.71,.22-4.6,1.08,.49-2.46,3.09-.68,4.6-1.08Zm-27.33,111.08,12.97-95.99-1.3-21.33,504.8,181.28"/><line class="c" x1="239.2" y1="345.11" x2="289.47" y2="323.26"/><polyline class="c" points="238.49 352.22 238.84 336.68 265.69 325.9 271.9 330.72"/><polyline class="c" points="289.47 323.26 321.17 302.13 326.45 288.93 318.64 278.36 302.67 249.3 315.89 220.25"/><polyline class="c" points="289.47 323.26 270.97 307.41 268.33 281 252.48 262.51 231.34 257.23 226.05 241.38 215.49 233.45"/><polyline class="c" points="226.05 241.38 244.55 231.04 283.82 228.29"/><polyline class="h" points="374.02 117.23 392.72 135.72 405.72 167.42 400.44 177.99 388.78 180.21"/><polyline class="j" points="238.84 354.71 270.97 341.75 289.47 323.26 270.3 299.49 273.61 257.11 283.82 228.29"/><polyline class="h" points="283.82 228.29 315.89 220.25 347.59 207.04 387.23 180.63"/><polyline class="k" points="387.23 180.63 387.23 180.63 443.3 387.96"/><line class="l" x1="374.02" y1="117.23" x2="453.99" y2="31.3"/><line class="m" x1="374.02" y1="117.23" x2="387.23" y2="180.63"/><path class="p" d="M242.95,354.15c0,2.47-2,4.46-4.46,4.46s-4.47-2-4.47-4.46,2-4.47,4.47-4.47,4.46,2,4.46,4.47"/><path class="o" d="M274.76,299.45c0,2.47-2,4.46-4.46,4.46s-4.47-2-4.47-4.46,2-4.47,4.47-4.47,4.46,2,4.46,4.47Z"/><path class="o" d="M278.02,257.05c0,2.47-2,4.47-4.47,4.47s-4.46-2-4.46-4.47,2-4.46,4.46-4.46,4.47,2,4.47,4.46Z"/><path class="r" d="M320.73,220.25c0,2.68-2.17,4.85-4.85,4.85s-4.85-2.17-4.85-4.85,2.17-4.85,4.85-4.85,4.85,2.17,4.85,4.85Z"/><path class="r" d="M352.44,207.04c0,2.68-2.17,4.84-4.85,4.84s-4.85-2.17-4.85-4.84,2.17-4.85,4.85-4.85,4.85,2.17,4.85,4.85Z"/><path class="u" d="M378.48,117.24c0,2.47-2,4.46-4.46,4.46s-4.47-2-4.47-4.46,2-4.47,4.47-4.47,4.46,2,4.46,4.47"/><path class="r" d="M403.16,177.99c0,1.5-1.22,2.72-2.72,2.72s-2.73-1.22-2.73-2.72,1.22-2.73,2.73-2.73,2.72,1.22,2.72,2.73Z"/><path class="ab" d="M273.39,306.1c1.18,2.49-1.25,4.91-3.73,3.73-.48-.23-.89-.64-1.11-1.12-1.15-2.48,1.25-4.88,3.72-3.72,.49,.23,.89,.63,1.12,1.12"/><path class="ab" d="M254.02,329.95c1.19,2.49-1.25,4.91-3.73,3.73-.49-.23-.89-.63-1.11-1.12-1.16-2.48,1.25-4.88,3.72-3.72,.49,.23,.89,.63,1.12,1.12"/><path class="ab" d="M234.07,257.23c0,1.5-1.22,2.72-2.72,2.72s-2.73-1.22-2.73-2.72,1.22-2.73,2.73-2.73,2.72,1.22,2.72,2.73"/><path class="ab" d="M228.78,241.38c0,1.51-1.22,2.73-2.73,2.73s-2.73-1.22-2.73-2.73,1.22-2.73,2.73-2.73,2.73,1.22,2.73,2.73"/><path class="o" d="M290.59,228.27c0,3.78-3.06,6.84-6.84,6.84s-6.84-3.06-6.84-6.84,3.06-6.84,6.84-6.84,6.84,3.06,6.84,6.84"/><path class="u" d="M391.69,180.63c0,2.46-2,4.46-4.46,4.46s-4.46-2-4.46-4.46,2-4.47,4.46-4.47,4.46,2,4.46,4.47"/><polyline class="d" points="289.47 323.26 298.05 329.27 311.41 329.86 317.2 334.17 328.04 325.41 333.38 316.32 349.02 316.32 359.48 327.22 365.44 341.29"/><path class="z" d="M368.25,341.56c0,1.51-1.22,2.73-2.73,2.73s-2.73-1.22-2.73-2.73,1.22-2.73,2.73-2.73,2.73,1.22,2.73,2.73"/><path class="o" d="M296.04,322.7c0,4.18-3.39,7.57-7.58,7.57s-7.57-3.39-7.57-7.57,3.39-7.59,7.57-7.59,7.58,3.39,7.58,7.59Z"/><polyline class="b" points="215.49 233.46 211.52 218.93 203.6 216.28 197.09 223.04 191.12 214.88 195.83 206.72 203.6 206.72 203.6 200.44 195.67 200.44 175.74 174.7 189.22 173.1 199.53 168.48 200.24 175.59 204.94 180.98 212.79 177.52 222.09 177.52 237.94 197.8 237.94 219.59 244.55 231.04"/><path class="ab" d="M218.21,233.45c0,1.51-1.22,2.73-2.73,2.73s-2.73-1.22-2.73-2.73,1.22-2.72,2.73-2.72,2.73,1.22,2.73,2.72"/><path class="x" d="M194.03,214.9c0,1.51-1.22,2.73-2.73,2.73s-2.73-1.22-2.73-2.73,1.22-2.72,2.73-2.72,2.73,1.22,2.73,2.72"/><path class="x" d="M178.95,174.98c0,1.51-1.22,2.73-2.73,2.73s-2.73-1.22-2.73-2.73,1.22-2.73,2.73-2.73,2.73,1.22,2.73,2.73"/><path class="x" d="M207.61,180.61c0,1.51-1.22,2.73-2.73,2.73s-2.73-1.22-2.73-2.73,1.22-2.73,2.73-2.73,2.73,1.22,2.73,2.73"/><path class="ab" d="M247.3,230.71c0,1.51-1.22,2.73-2.73,2.73s-2.73-1.22-2.73-2.73,1.22-2.73,2.73-2.73,2.73,1.22,2.73,2.73"/><path class="ab" d="M252.12,261.57c0,1.5-1.22,2.73-2.73,2.73s-2.73-1.22-2.73-2.73,1.22-2.73,2.73-2.73,2.73,1.22,2.73,2.73"/><path class="ab" d="M264.57,273.17c0,1.51-1.22,2.73-2.73,2.73s-2.73-1.22-2.73-2.73,1.22-2.72,2.73-2.72,2.73,1.22,2.73,2.72"/><path class="ab" d="M305.56,249.63c0,1.51-1.22,2.73-2.73,2.73s-2.73-1.22-2.73-2.73,1.22-2.72,2.73-2.72,2.73,1.22,2.73,2.72"/><path class="i" d="M298.25,322.71c0,5.42-4.39,9.82-9.83,9.82s-9.82-4.4-9.82-9.82,4.39-9.84,9.82-9.84,9.83,4.4,9.83,9.84Z"/><g><g><path class="o" d="M298.45,334.05v1.18h-4.34v-1.18h4.34Zm.31,5.15v-4.49h2.61v-.64h-2.69v-1.22h2.69v-1.06l1.46,.09c.13,.01,.28,.03,.28,.17,0,.18-.24,.21-.35,.22v.59h2.96v1.22h-2.96v.64h2.63v4.49h-2.01c.9,1.26,1.77,2.04,2.65,2.7-.5,.31-.86,.65-1.15,1.12-.85-.78-1.47-1.51-2.11-2.56v3.14h-1.4v-3.13c-1.08,1.56-1.85,2.19-2.19,2.46-.27-.41-.62-.78-.86-.96v1.46h-1.32v-.62h-1.37v.77h-1.37v-4.4h4.06v2.5c.95-.67,1.82-1.54,2.49-2.49h-2.05Zm-.67-6.87v1.17h-3.54v-1.17h3.54Zm0,3.45v1.15h-3.54v-1.15h3.54Zm0,1.71v1.17h-3.54v-1.17h3.54Zm-1.09,4.1v-1.13h-1.37v1.13h1.37Zm3.73-5.58c.27,.37,.33,.47,.69,1.09v-1.29h-1.36v.68l.67-.47Zm-.67,2.05h1.36v-.68c-.33,.21-.53,.36-.68,.47-.27-.55-.46-.88-.68-1.21v1.41Zm4.03-1.65v-.6h-1.37v1.49c.17-.24,.44-.79,.6-1.22l.77,.33Zm0,.31h-.08c-.32,.68-.49,.91-.6,1.08-.21-.14-.35-.22-.69-.31v.58h1.37v-1.35Z"/><path class="o" d="M313.6,339.14h5.01v1.46h-5.01v3h-1.74v-3h-4.97v-1.46h4.97v-1.18h-3.78v-5.79h9.29v5.79h-3.77v1.18Zm2.13-4.74v-.94h-6.01v.94h6.01Zm0,2.22v-.97h-6.01v.97h6.01Z"/></g><g><path class="aa" d="M254.15,215.72v-4.11l1.36,.08c.1,0,.18,.06,.18,.14,0,.12-.07,.16-.29,.24v.83h1.59v1.21h-1.59v1.42c.37-.08,.62-.13,2.01-.43-.05,.37-.08,.75-.07,1.14-1.98,.45-3.56,.75-5.16,1.03-.04,.13-.09,.26-.2,.26-.08,0-.14-.09-.16-.18l-.25-1.26c.37-.03,.55-.05,.77-.08v-3.73l1.24,.06c.1,0,.21,.06,.21,.15,0,.1-.1,.15-.23,.22v3.12c.2-.03,.46-.08,.6-.1Zm4.2-7.85c.11,0,.16,.05,.16,.11,0,.11-.18,.21-.25,.25-.04,.37-.04,.65-.04,.82,0,.44,.02,.77,.04,1.24h3.05v1.11h-2.96c.16,1.59,.33,2.38,.79,3.3,.18,.37,.64,1.23,.88,1.23s.4-.82,.46-1.39c.53,.42,.69,.51,1.11,.67-.09,.65-.36,2.36-1.32,2.36-1.11,0-2.25-1.98-2.63-3.27-.26-.88-.47-2-.54-2.91h-5.46v-1.11h5.37c-.02-.25-.09-1.38-.09-2.48l1.42,.06Zm-1.89,.65v1.12h-4.22v-1.12h4.22Zm3.27-.66c.46,.37,1.08,1.21,1.28,1.62-.36,.2-.63,.38-1.05,.75-.29-.61-.85-1.33-1.15-1.63l.92-.74Z"/><path class="aa" d="M269.11,209.74c.31-.64,.56-1.24,.71-1.9l1.22,.3c.05,.01,.13,.05,.13,.13s-.05,.1-.28,.17c-.25,.61-.33,.79-.59,1.3h1.57v1.06h-1.42v1.05h1.1v1.03h-1.1v1.06h1.09v1.04h-1.09v1.06h1.58v1.1h-3.71v.48h-1.19v-.9c-.3,.05-.68,.19-.99,.31,0-.27-.01-.44-.04-.73-1.13,.37-1.2,.4-1.84,.56-.02,.08-.05,.21-.16,.21-.08,0-.13-.09-.16-.16l-.31-.83c-.23,.64-.41,.93-.58,1.22-.14-.11-.58-.44-1.08-.59,1.24-2.03,1.57-4.51,1.65-5.79h-1.29v-1.11h1.35c0-.27,.02-1.82,.02-1.91l1.28,.13c.1,0,.2,.02,.2,.13,0,.15-.2,.19-.3,.21,0,.34,0,.71-.03,1.44h1.65v.72c.15-.24,.87-1.42,1.12-2.68l1.22,.31s.11,.06,.11,.13c0,.09-.02,.09-.29,.16-.16,.54-.3,.85-.51,1.31h.97Zm-2.86,2.48c.06,.01,.11,.1,.11,.16,0,.1-.09,.12-.29,.16-.36,1.42-.41,1.58-.82,3,.41-.1,.58-.15,.71-.18-.12-.53-.2-.85-.28-1.13l.88-.33c.28,.71,.45,1.44,.59,2.19v-4.49c-.17,.27-.27,.4-.41,.58-.33-.28-.76-.48-1.04-.58,.15-.17,.33-.37,.56-.69h-1.46c-.21,2.68-.95,4.65-1.06,4.92,.2-.02,.28-.03,.38-.05,.42-1.01,.84-2.76,.98-3.82l1.15,.27Zm2.07-1.42v1.05h.95v-1.05h-.95Zm0,2.07v1.06h.95v-1.06h-.95Zm0,2.09v1.06h.95v-1.06h-.95Z"/><path class="aa" d="M272.61,216.99c.51-.76,1.5-2.47,1.94-3.64,.38,.48,.88,.84,.99,.93-.35,.84-.46,1.01-1.53,3,.03,.11,.05,.17,.05,.24s-.03,.15-.12,.15c-.06,0-.14-.02-.22-.06l-1.12-.61Zm.79-6.55c1.06,.54,1.55,.9,1.77,1.05-.33,.42-.51,.71-.73,1.11-.43-.34-1.15-.81-1.74-1.1l.69-1.06Zm.78-2.58c.75,.46,1.2,.75,1.68,1.14-.3,.35-.57,.82-.69,1.07-.69-.54-1.07-.81-1.74-1.17l.76-1.04Zm1.83,8.44v-3.52h6.28v3.52h.5v1.08h-7.53v-1.08h.75Zm6-8.16v4.14h-5.56v-4.14h5.56Zm-4.21,8.16v-2.48h-.65v2.48h.65Zm2.93-6.54v-.63h-3.09v.63h3.09Zm-3.09,.9v.67h3.09v-.67h-3.09Zm1.82,5.64v-2.48h-.63v2.48h.63Zm1.7,0v-2.48h-.66v2.48h.66Z"/><path class="aa" d="M287.29,213.09l.44,.41c-.14,.45-.94,2.7-3.04,4.07-.33-.36-.64-.6-1.1-.84,.66-.38,1.82-1.13,2.45-2.49h-2.07v-1.14h3.33Zm5.49-.01s.11,.07,.11,.15c0,.15-.16,.14-.39,.12-.88,.76-1.08,.92-1.7,1.37,.77,.68,1.67,1.2,2.62,1.6-.3,.25-.41,.38-.92,1.04-.64-.31-1.31-.72-2.03-1.31-.61-.5-.8-.77-1.17-1.28v1.61c0,1.11-.32,1.36-1.98,1.35-.02-.29-.08-.67-.52-1.42,.34,.05,.47,.06,.69,.06,.43,0,.47-.09,.47-.45v-3.39h-3.1v-3.9h2.14c.22-.4,.31-.54,.48-.91l1.55,.18c.12,.01,.18,.04,.18,.12,0,.14-.14,.17-.38,.25-.06,.1-.08,.13-.24,.36h3.66v3.9h-.26l.78,.56Zm-6.59-2.98h4.77v-.52h-4.77v.52Zm4.77,.82h-4.77v.59h4.77v-.59Zm-1.67,1.6v.18c.29,.62,.49,.9,.65,1.11,.17-.12,.97-.68,1.5-1.29h-2.15Z"/></g><g><path class="aa" d="M349.61,120.91v1.2h-.95v5.94h-1.3v-5.94h-.98v-1.2h.98v-2.63l1.31,.12c.14,.01,.25,.02,.25,.13,0,.09-.02,.1-.26,.21v2.17h.95Zm5.2,3.65h1.42v1.01h-1.42v1.48c0,1.05-1,1.05-2.06,1.04-.05-.54-.28-.96-.47-1.3,.53,.1,.8,.1,.92,.1,.28,0,.36-.08,.36-.42v-.9h-2.2c.34,.31,.58,.53,.94,1.03-.44,.35-.62,.54-.97,.93-.42-.55-.73-.9-1.28-1.39l.66-.57h-1.45v-1.01h4.3v-.44h-3.64v-3.41h2.22v-.44h-2.77v-.94h2.77v-1.08l1.22,.06c.13,.01,.24,.02,.24,.13,0,.09-.04,.11-.25,.2v.68h1.09c-.2-.14-.38-.27-.72-.49l.72-.73c.5,.26,1.05,.66,1.32,.91-.24,.2-.27,.22-.36,.31h.76v.94h-2.81v.44h2.25v3.41h-.57s.04,.04,.04,.06c0,.11-.17,.14-.27,.15v.22Zm-2.67-2.51v-.5h-1.01v.5h1.01Zm-1.01,.67v.53h1.01v-.53h-1.01Zm3.26-.67v-.5h-1.04v.5h1.04Zm-1.04,.67v.53h1.04v-.53h-1.04Z"/><path class="aa" d="M364.33,122.08c.1,.03,.19,.08,.19,.16,0,.14-.14,.16-.32,.18-.2,.22-.32,.36-.51,.56h2.77l.46,.47c-1.21,1.82-2.83,2.85-3.91,3.4-1.83,.93-3.56,1.19-4.98,1.35-.15-.48-.3-.72-.63-1.13,1.1,0,2.85-.19,4.58-.98-.21-.26-.56-.64-.96-.94-.73,.45-1.3,.74-1.88,.94-.18-.29-.57-.71-.93-.94,.77-.27,2.92-1.01,4.55-2.96-2.03,1.39-3.71,1.82-4.5,1.99-.11-.36-.24-.61-.73-1.09,1.21-.19,2.28-.5,3.53-1.19-.38-.43-.6-.64-1.04-.97-.44,.33-.81,.56-1.45,.92-.13-.18-.38-.54-.98-.91,2.16-.85,3.07-2.06,3.57-2.8l1.35,.21c.08,.01,.19,.05,.19,.13,0,.11-.15,.16-.32,.21-.05,.06-.12,.16-.18,.24h3.39l.44,.46c-.79,.93-1.73,1.69-2.7,2.41l1.02,.29Zm-3.13-2.14c-.16,.14-.19,.17-.26,.22,.42,.29,.92,.73,1.22,1.07,.3-.2,1.19-.79,1.57-1.29h-2.53Zm1.24,4.17c-.1,.08-.18,.15-.38,.31,.32,.26,.77,.67,1.1,1.01,.11-.06,1.25-.77,1.59-1.33h-2.31Z"/></g><g><path class="aa" d="M350.44,176.65h1.59v1.08h-1.42c.13,.16,.84,.96,1.42,1.33-.45,.29-.58,.41-.85,.83-.32-.31-.48-.53-.74-.92v2.35h-1.21v-2.34c-.29,.57-.62,1.13-1.17,1.73-.3-.27-.55-.43-1.07-.65,.9-.76,1.47-1.59,1.88-2.34h-1.5v-1.08h1.86v-.78h-1.98v-1.05h1.21c-.17-.61-.27-.82-.34-.99l.56-.19h-1.13v-1.03h1.72v-1.05l1.29,.1c.19,.01,.23,.05,.23,.13,0,.06-.1,.13-.23,.2v.62h1.54v1.03h-.65c.26,.05,.35,.08,.35,.17,0,.11-.07,.13-.27,.18-.12,.33-.28,.65-.37,.83h1.16v1.05h-1.55c-.02,.13-.23,.18-.33,.21v.57Zm-1.22-3.01c.23,.56,.3,.81,.34,1.02l-.6,.17h1.04c.32-.49,.48-1.06,.51-1.19h-1.29Zm3.35-1.32l.71,.08c.71,0,2.15-.35,2.97-.69l.73,.95s.05,.08,.05,.14c0,.1-.06,.15-.16,.15-.08,0-.14-.03-.27-.11-.9,.29-1.68,.46-2.75,.54v1.45h3.05v1.2h-.96v5.31h-1.27v-5.31h-.82c0,.79,0,3.45-1.56,5.39-.26-.17-.65-.4-1.23-.54,1.37-1.48,1.51-3.3,1.51-4.85v-3.71Z"/><path class="aa" d="M359.87,178.8c.18,.08,.22,.16,.22,.2,0,.12-.22,.13-.3,.13-.51,1.27-.94,1.83-1.24,2.18-.35-.31-.9-.54-1.06-.61,.6-.69,1.09-1.6,1.29-2.36l1.08,.46Zm6.24-6.44v3.4h-5.65v.38h7.08v.82h-7.08v.4h6.92c-.04,.88-.26,3.15-.85,3.72-.35,.33-.98,.36-1.83,.35-.11-.52-.3-.91-.58-1.36,.34,.06,.73,.1,1.01,.1,.49,0,.72,0,.88-1.85h-6.91v-5.96h2.06c.15-.34,.26-.63,.33-.98l1.47,.21c.05,.01,.15,.02,.15,.12,0,.14-.2,.17-.31,.18-.13,.3-.16,.37-.2,.47h3.5Zm-4.88,6.3c.38,.96,.5,1.6,.54,2.12-.41,.04-.72,.11-1.19,.26-.04-.71-.14-1.29-.42-2.1l1.06-.27Zm-.77-4.95h4.36v-.41h-4.36v.41Zm4.36,.74h-4.36v.45h4.36v-.45Zm-1.91,4.11c.37,.6,.6,1.1,.81,1.72-.29,.06-.72,.21-1.01,.36-.17-.61-.41-1.13-.73-1.73l.93-.35Zm1.78-.2c.07,.13,.54,.94,.7,1.35-.42,.14-.84,.36-.94,.41-.25-.66-.51-1.15-.66-1.43l.9-.32Z"/><path class="aa" d="M372.23,174.24h1.69v-1.09h-1.79v-1.01h6.09v1.01h-1.97v1.09h1.85v7.17h-1.22v-.81h-3.43v.83h-1.22v-3.88c-.31,.19-.43,.3-.8,.73-.11-.25-.26-.58-.48-1.13v4.3h-1.16v-3.48c-.28,.84-.35,1.03-.47,1.27-.18-.16-.79-.62-1.08-.78,.28-.47,1.1-1.86,1.54-3.81h-1.2v-1.04h1.21v-2.01l1.24,.08c.06,0,.2,.03,.2,.16,0,.12-.09,.15-.28,.22v1.55h.97v1.04h-.97v.31c.35,.71,.79,1.53,1.28,2.18v-2.89Zm4.65,5.33v-1.16h-.71c-.43,0-.95,0-.95-.81v-2.32h-.42c0,2.16-.66,3.02-.95,3.39-.14-.16-.2-.21-.41-.34v1.25h3.43Zm-3.43-4.29v2.3c.36-.58,.51-1.09,.5-2.3h-.5Zm1.84-2.13h-.52v1.09h.52v-1.09Zm1.59,2.13h-.63v1.79c0,.26,.03,.28,.26,.28h.37v-2.07Z"/></g><g><path class="aa" d="M395.35,188.75c.11,.04,.13,.1,.13,.12,0,.07-.13,.08-.18,.08-.31,.76-.56,1.1-.74,1.31-.21-.19-.54-.33-.63-.37,.36-.42,.65-.96,.78-1.42l.65,.28Zm3.74-3.86v2.04h-3.39v.23h4.25v.49h-4.25v.24h4.15c-.03,.53-.15,1.89-.51,2.23-.21,.2-.59,.22-1.1,.21-.06-.31-.18-.54-.35-.81,.21,.04,.44,.06,.61,.06,.29,0,.43,0,.53-1.11h-4.15v-3.58h1.24c.09-.21,.15-.38,.2-.59l.88,.13s.09,.01,.09,.07c0,.08-.12,.1-.19,.11-.08,.18-.1,.22-.12,.28h2.1Zm-2.93,3.78c.23,.58,.3,.96,.33,1.27-.24,.03-.43,.06-.71,.15-.03-.42-.08-.78-.25-1.26l.63-.16Zm-.46-2.97h2.62v-.24h-2.62v.24Zm2.62,.44h-2.62v.27h2.62v-.27Zm-1.15,2.47c.22,.36,.36,.66,.49,1.03-.17,.04-.43,.13-.61,.22-.1-.37-.24-.68-.44-1.04l.56-.21Zm1.07-.12c.04,.08,.33,.56,.42,.81-.25,.08-.51,.22-.56,.24-.15-.4-.31-.69-.4-.86l.54-.19Z"/><path class="aa" d="M402.77,186.01h1.01v-.65h-1.08v-.61h3.65v.61h-1.18v.65h1.11v4.3h-.73v-.49h-2.06v.5h-.73v-2.33c-.19,.12-.26,.18-.48,.44-.06-.15-.15-.35-.29-.68v2.58h-.7v-2.09c-.17,.51-.21,.62-.28,.76-.11-.1-.47-.37-.65-.47,.17-.28,.66-1.12,.92-2.29h-.72v-.62h.72v-1.21l.74,.04s.12,.02,.12,.1c0,.07-.05,.09-.17,.13v.93h.58v.62h-.58v.19c.21,.42,.47,.92,.77,1.31v-1.74Zm2.79,3.2v-.7h-.42c-.26,0-.57,0-.57-.49v-1.39h-.25c0,1.29-.4,1.81-.57,2.03-.08-.1-.12-.13-.24-.21v.75h2.06Zm-2.06-2.58v1.38c.22-.35,.31-.65,.3-1.38h-.3Zm1.1-1.28h-.31v.65h.31v-.65Zm.96,1.28h-.38v1.08c0,.15,.02,.17,.15,.17h.22v-1.24Z"/></g><g><path class="aa" d="M309.32,250.35c-.03,.53-.08,1.37-.48,2.14-.24-.14-.51-.22-.7-.26,.26-.48,.49-1.21,.49-2.54v-2.92h1.92v4.97c0,.28,0,.78-1.05,.72-.11-.44-.13-.54-.29-.79,.12,.03,.31,.06,.44,.06,.18,0,.22-.08,.22-.32v-1.06h-.54Zm.54-2.11v-.74h-.53v.74h.53Zm0,1.43v-.76h-.53v.76h.53Zm4.04-2.89v3.44h-.77v-.28h-1.66v1.31c0,.31,.07,.38,.33,.38h1.15c.31,0,.44-.05,.6-.81,.18,.15,.35,.27,.69,.4-.22,1.03-.56,1.11-1.11,1.11h-1.48c-.8,0-.87-.45-.87-.8v-4.75h3.12Zm-1.92,.72h-.51v1.71h.51v-1.71Zm.65,1.71h.5v-1.71h-.5v1.71Z"/><path class="aa" d="M318.03,247.52c.05-.06,.37-.5,.57-.95l.83,.22s.07,.03,.07,.07c0,.1-.15,.09-.19,.09-.12,.2-.24,.38-.37,.56h1.6v.68h-5.86v-.68h1.56c-.04-.07-.19-.35-.44-.64l.73-.33c.26,.32,.38,.53,.54,.83l-.34,.13h1.29Zm-2.19,3.53v1.4h-.75v-3.98h2.45v3.33c0,.51-.19,.64-1.06,.65-.03-.29-.12-.51-.28-.78,.12,.02,.33,.03,.37,.03,.15,0,.23,0,.23-.25v-.41h-.96Zm.96-1.57v-.4h-.96v.4h.96Zm0,.99v-.42h-.96v.42h.96Zm2-1.94s.11,.02,.11,.07c0,.03-.06,.08-.11,.11v2.59h-.78v-2.8l.78,.03Zm1.37-.14s.12,.01,.12,.08c0,.04-.01,.05-.15,.12v3.1c0,.69-.36,.78-1.24,.76,0-.24-.05-.53-.19-.82,.1,.01,.35,.04,.44,.04,.1,0,.21,0,.21-.23v-3.09l.81,.04Z"/><path class="aa" d="M326.65,248.23v1.76h-4.39c-.02,.56-.12,1.68-.63,2.6-.29-.19-.33-.21-.68-.31,.57-1.01,.57-2.01,.57-2.8v-2.32h2.22v-.58l.83,.02c.08,0,.13,.03,.13,.08,0,.06-.04,.08-.18,.14v.34h2.41v.67h-1.56c.03,.09-.13,.11-.18,.12v.29h1.45Zm-2.26,2.21v.63h-.96v.49c.62-.13,.69-.14,.95-.21-.03,.12-.09,.38-.06,.68-.32,.08-1.2,.26-1.83,.4-.05,.1-.07,.13-.12,.13s-.07-.04-.1-.13l-.17-.63c.1-.02,.53-.1,.62-.11v-1.63l.69,.03c.06,0,.19,.02,.19,.09,0,.06-.12,.1-.17,.12v.14h.96Zm-1.35-2.21v-.41h-.78v.41h.78Zm0,1.15v-.55h-.78v.55h.78Zm1.44-1.15v-.41h-.52c0,.1-.15,.12-.19,.12v.29h.71Zm0,1.15v-.55h-.71v.55h.71Zm.85,2.11c0,.18,.08,.26,.24,.26h.35c.26,0,.35-.1,.4-.72,.2,.21,.44,.3,.65,.33-.17,.99-.54,1.04-.93,1.04h-.71c-.45,0-.7-.26-.7-.71v-1.63l.72,.03c.13,0,.16,.02,.16,.07,0,.07-.03,.08-.17,.14v.32c.26-.11,.56-.33,.9-.61l.49,.46s.05,.06,.05,.08c0,.06-.08,.05-.15,.04-.4,.26-.74,.47-1.3,.69v.2Zm-.14-2.67v.55h.73v-.55h-.73Z"/><path class="aa" d="M328.41,252.33h-.76v-1.5l.79,.04c.06,0,.12,.04,.12,.08,0,.06-.06,.08-.15,.1v.41h.84v-.73h-.97v-3.61h1.12c.11-.26,.16-.38,.22-.58l.86,.06c.06,0,.13,.01,.13,.08,0,.08-.09,.1-.18,.12-.04,.1-.08,.21-.13,.31h2.19v2.08h-3.37v.26h4.29v.48h-4.29v.26h4.16c-.02,.57-.08,1.49-.38,1.92-.26,.37-.47,.38-1.3,.4-.03-.16-.06-.31-.11-.47h-3.08v.28Zm.71-4.4h2.58v-.28h-2.58v.28Zm2.58,.47h-2.58v.3h2.58v-.3Zm-.87,3.05v-.58l.77,.03c.11,0,.17,.04,.17,.09,0,.07-.11,.09-.17,.1v.62c.2,.03,.28,.04,.35,.04,.28,0,.33-.13,.36-.2,.05-.12,.12-.54,.12-.83h-2.79l.42,.03c.1,0,.19,.03,.19,.08,0,.07-.12,.1-.18,.11v.51h.76Z"/></g><g><path class="aa" d="M254.75,307.97v-.78h2.51v-1.64l.84,.04c.1,0,.14,.03,.14,.08,0,.06-.07,.08-.14,.1v1.41h2.47v.78h-2.46c.29,.94,.88,2.1,2.54,2.94-.38,.29-.49,.41-.62,.63-.69-.31-1.78-1.25-2.35-2.53-.74,1.58-1.81,2.18-2.56,2.54-.06-.15-.17-.35-.57-.71,.54-.21,2.2-.88,2.61-2.88h-2.42Z"/><path class="aa" d="M263.02,311.47h-.8v-2.28c-.17,.44-.44,.92-.6,1.12-.19-.19-.34-.31-.68-.49,.52-.57,.97-1.21,1.26-2.3h-1.07v-.69h1.08v-1.19l.84,.04c.07,0,.12,.04,.12,.08,0,.04-.05,.07-.15,.12v.96h.88v.69h-.88v.26c.31,.52,.63,.83,1.01,1.11-.15,.17-.28,.38-.44,.67-.25-.22-.51-.62-.57-.7v2.6Zm1.63-3.44c.23,.38,.53,1.12,.61,1.45-.19,.06-.37,.12-.71,.32-.12-.59-.35-1.12-.55-1.46l.65-.31Zm2.36-1.2v.69h-.66v3c0,.65-.1,.99-1.38,.94-.1-.49-.13-.62-.32-.9,.26,.05,.48,.05,.52,.05,.29,0,.33-.05,.33-.3v-2.79h-1.36v-.69h1.36v-1.21l.85,.04c.08,0,.15,.01,.15,.08s-.07,.08-.15,.11v.99h.66Z"/></g><g><path class="aa" d="M248.05,273.29s.06,.04,.06,.09c0,.08-.08,.08-.21,.08-.04,.04-.06,.08-.31,.39-.09,.12-.25,.28-.32,.35l.11,.05c.07,.03,.1,.04,.1,.09s-.04,.06-.1,.09v2.91h-.81v-2.49c-.15,.13-.24,.19-.37,.29-.17-.33-.31-.47-.49-.61,.96-.57,1.47-1.33,1.7-1.68l.65,.43Zm-.37-1.45c.07,.04,.09,.06,.09,.1,0,.08-.09,.08-.17,.08-.23,.28-.71,.76-1.21,1.1-.12-.13-.44-.35-.62-.43,.6-.38,1.04-.88,1.31-1.24l.6,.4Zm1.83,.47v-.85l.79,.04s.13,.01,.13,.08c0,.06-.03,.06-.13,.12v.61h1.37l.22,.22c-.17,.58-.34,1-.47,1.31-.26-.16-.38-.2-.67-.26,.13-.31,.17-.4,.23-.62h-.69v.89h.78l.39,.35c-.14,.46-.37,1.1-.91,1.82,.49,.4,.99,.61,1.32,.74-.22,.21-.43,.54-.46,.59-.58-.22-1.12-.64-1.31-.8-.34,.33-.61,.6-1.15,.83-.07-.12-.26-.37-.57-.54,.58-.24,.87-.44,1.22-.78-.38-.45-.62-.93-.79-1.35-.08,1.29-.49,2.32-.76,2.67-.19-.16-.41-.28-.65-.35,.33-.57,.71-1.32,.71-3.03,0-.31,0-1.5-.02-1.68h1.4Zm-.65,.65s0,.81,0,.89h.66v-.89h-.65Zm.65,1.54c.17,.4,.32,.7,.57,1.02,.29-.38,.42-.76,.51-1.02h-1.08Z"/><path class="aa" d="M254.94,274.35h1.33v-1.29h-.39c-.03,.1-.17,.52-.42,1-.21-.1-.48-.21-.72-.26,.16-.28,.62-1.08,.81-2.37l.76,.15s.12,.03,.12,.08c0,.08-.1,.08-.17,.1-.04,.19-.09,.42-.13,.58h1.98v.72h-1.06v1.29h1.24v.75h-1.24v2.25h-.77v-2.25h-1.33v-.08s-.31,.24-.49,.5c-.09-.16-.18-.31-.36-.78v2.6h-.74v-2.26c-.16,.44-.26,.69-.49,1.1-.25-.24-.35-.34-.68-.52,.24-.31,.78-.99,1.15-2.26h-.92v-.69h.94v-1.25l.78,.06c.06,0,.13,.01,.13,.08,0,.06-.07,.09-.18,.13v.99h.83v.69h-.83v.03c.21,.45,.51,.96,.85,1.42v-.53Z"/></g><g><path class="aa" d="M249.89,251.26c.08,0,.16,.03,.16,.1,0,.06-.06,.08-.16,.12v2.03c0,1.35-.06,2.56-.89,3.5-.21-.16-.44-.31-.74-.43,.73-.88,.81-1.69,.81-3.17v-2.18l.83,.04Zm1.92,.33c.05,0,.15,.01,.15,.1,0,.06-.05,.07-.15,.12v4.58h-.83v-4.84l.83,.05Zm1.89-.38c.05,0,.14,0,.14,.1,0,.03-.02,.05-.06,.07-.03,.02-.06,.03-.08,.05v5.55h-.81v-5.82l.81,.05Z"/><path class="aa" d="M256.92,251.31h1.58v4.75c.24-.69,.26-1.33,.26-2.19v-2.56h1.66v5.01c0,.37,0,.76-.99,.72-.01-.26-.07-.47-.21-.76,.25,.02,.28,.02,.33,.02,.22,0,.24-.08,.24-.24v-1.19h-.5c-.03,.8-.18,1.53-.54,2.15-.18-.18-.26-.23-.44-.34-.19,.2-.52,.27-.85,.29-.04-.24-.11-.4-.28-.72,.59,0,.78-.02,.78-.33v-1.06h-.49c-.1,1.32-.65,2.07-.7,2.13-.24-.22-.26-.24-.54-.36,.24-.36,.59-.88,.68-1.99-.16,.15-.39,.47-.44,.54-.06-.13-.15-.32-.25-.65v2.43h-.69v-2.16c-.1,.35-.23,.73-.38,1.03-.1-.08-.24-.21-.34-.27-.11-.07-.21-.13-.27-.18,.21-.38,.65-1.18,.98-2.41h-.76v-.63h.77v-1.22l.68,.04c.08,0,.15,0,.15,.06,0,.06-.08,.1-.14,.12v.99h.56v.63h-.56v.04c.21,.61,.42,1.06,.7,1.53,.01-.21,.01-.38,.01-.55v-2.69Zm.56,1.43h.47v-.83h-.47v.83Zm.47,1.5v-.86h-.47v.86h.47Zm1.83-1.5v-.83h-.49v.83h.49Zm0,1.5v-.88h-.49v.88h.49Z"/></g><g><path class="aa" d="M222.35,263.17c.1,.03,.12,.04,.12,.09,0,.03-.02,.08-.13,.11-.4,2.05-1.05,3.28-1.79,4.11-.25-.19-.67-.34-.82-.39,1.18-1.31,1.53-2.69,1.74-4.13l.88,.21Zm1.6-.37c.77,1.03,1.53,2.33,1.94,4-.26,.13-.79,.44-.87,.49-.42-2.04-1.21-3.29-1.78-3.98l.7-.52Z"/><path class="aa" d="M230.98,263.27c.21,0,.29,0,.47-.07l.54,.4c-.05,.17-.24,.94-.29,1.1-.54,1.78-1.24,2.68-2.69,3.39-.24-.3-.33-.37-.67-.64,1.95-.7,2.42-2.41,2.62-3.41h-3.29v1.47h-.88v-2.24h2.04v-1l.92,.04c.11,0,.14,.02,.14,.07,0,.06-.1,.1-.14,.12v.77h1.24Z"/><path class="aa" d="M233.47,263.48v-.81h3.25c.1,0,.34-.01,.44-.05l.44,.47c-.13,.17-.2,.31-.24,.41-.27,.63-.42,.97-.83,1.63,.49,.37,1.49,1.24,2,1.85-.22,.24-.58,.64-.66,.73-.35-.48-.88-1.18-1.82-1.91-.44,.56-1.48,1.54-2.56,2-.2-.35-.31-.49-.61-.75,.38-.13,1.32-.48,2.27-1.5,.69-.74,.94-1.34,1.21-2.07h-2.89Z"/><path class="aa" d="M216.91,271.98v-.78h5.45v.78h-2.15c-.02,1.12-.39,1.72-.72,2.08-.24,.26-.67,.67-1.42,.91-.21-.31-.46-.54-.65-.68,1.73-.48,1.91-1.54,1.93-2.31h-2.43Zm4.57-2.46v.79h-3.66v-.79h3.66Z"/><path class="aa" d="M224.08,269.42c.94,.47,1.38,.83,1.68,1.1-.13,.15-.23,.28-.53,.74-.76-.66-1.38-.96-1.69-1.09l.54-.76Zm-.45,4.5c1.54-.33,3.5-1.35,4.81-3.48,.23,.37,.31,.49,.56,.75-.42,.64-1.62,2.45-4.65,3.54-.01,.06-.02,.14-.11,.14-.04,0-.08-.05-.12-.11l-.5-.85Z"/><path class="aa" d="M231.6,272.34c.06,.03,.08,.07,.08,.1,0,.07-.08,.07-.17,.06-.49,.77-.71,1.04-1.33,1.67-.21-.19-.47-.38-.74-.54,.69-.53,1.12-1.16,1.4-1.73l.74,.44Zm.4-3.02l.85,.03c.08,0,.14,.01,.14,.08,0,.05-.05,.07-.11,.1v1.17h2.15v.78h-2.15v2.42c0,.44,0,.97-1.03,.97-.12,0-.31-.01-.44-.03-.02-.14-.04-.38-.28-.86,.17,.03,.41,.06,.58,.06,.28,0,.28-.1,.28-.5v-2.06h-2.16v-.78h2.16v-1.37Zm2,2.55c.51,.48,1.13,1.29,1.32,1.64-.22,.17-.53,.46-.66,.58-.31-.56-.91-1.34-1.3-1.72l.64-.51Zm.4-2.4c.17,.15,.46,.46,.6,.65-.12,.1-.24,.2-.44,.36-.12-.16-.41-.49-.6-.67l.44-.34Zm.62-.49c.18,.13,.49,.45,.63,.63-.15,.1-.28,.22-.43,.35-.08-.09-.35-.42-.62-.65l.42-.33Z"/><path class="aa" d="M236.67,270.48v-.81h3.25c.1,0,.34-.01,.44-.05l.44,.47c-.13,.17-.2,.31-.24,.41-.27,.63-.42,.97-.83,1.63,.49,.37,1.49,1.24,2,1.85-.22,.24-.58,.64-.66,.73-.35-.48-.88-1.18-1.82-1.91-.44,.56-1.48,1.54-2.56,2-.2-.35-.31-.49-.61-.75,.38-.13,1.32-.48,2.27-1.5,.69-.74,.94-1.34,1.21-2.07h-2.89Z"/></g><g><path class="aa" d="M244.76,235.75c.09,.01,.13,.02,.13,.08s-.03,.07-.15,.12c-.03,.1-.04,.18-.12,.44h2.94v.68h-3.18c-.13,.29-.22,.46-.29,.57h2.66v3.14c0,.63-.26,.85-1.38,.81,0-.27-.12-.56-.23-.79,.24,.06,.38,.08,.51,.08,.29,0,.29-.15,.29-.29v-.37h-2.03v1.37h-.81v-2.71c-.42,.41-.69,.55-.9,.66-.24-.24-.34-.33-.6-.52,.4-.22,1.44-.78,1.94-1.96h-1.83v-.68h2.08c.1-.34,.13-.58,.15-.75l.8,.12Zm1.19,2.92v-.37h-2.03v.37h2.03Zm-2.03,.59v.37h2.03v-.37h-2.03Z"/><path class="aa" d="M249.26,241.11v.29h-.83v-5.31h5.24v5.31h-.85v-.29h-3.56Zm1.4-2.84v-1.39h-1.4v1.39h1.4Zm0,2.13v-1.43h-1.4v1.43h1.4Zm2.17-2.13v-1.39h-1.41v1.39h1.41Zm-1.41,.71v1.43h1.41v-1.43h-1.41Z"/></g><g><path class="aa" d="M214.04,245.52h2.51v.73h-2.51v1.5h-.87v-1.5h-2.49v-.73h2.49v-.59h-1.89v-2.9h4.65v2.9h-1.88v.59Zm1.06-2.37v-.47h-3v.47h3Zm0,1.11v-.49h-3v.49h3Z"/><path class="aa" d="M218.04,245.83v-3.96l.64,.02c.05,0,.1,.03,.1,.06,0,.07-.06,.09-.17,.13v3.76h.26v-3.07l.55,.04c.08,0,.16,.01,.16,.08,0,.06-.08,.09-.12,.1v3.9h-.59v-.29h-1.08v.71h-.58v-4.54l.63,.03c.06,0,.12,.03,.12,.07,0,.07-.06,.1-.17,.13v2.84h.26Zm4.45-1.58l.26,.33c-.24,.58-.54,1.2-1.13,1.87,.51,.38,.94,.54,1.57,.69-.19,.12-.31,.27-.51,.67-.8-.24-1.32-.6-1.63-.86-.15,.12-.85,.62-1.68,.87-.06-.15-.21-.48-.53-.7,.83-.17,1.37-.47,1.7-.71-.37-.48-.53-.79-.67-1.13l.6-.3h-.81v-.73h1.04v-.9h-1.1v-.74h1.1v-.74l.83,.02c.07,0,.12,.03,.12,.07,0,.07-.06,.11-.15,.16v.49h1.4v.74h-1.4v.9h.98Zm-2,.73c.17,.42,.35,.71,.59,.98,.1-.1,.46-.46,.65-.98h-1.24Z"/></g><g><path class="aa" d="M195.04,232.66v-.73h1.26c.04-.65,.04-.9,.04-1.21l.83,.04s.12,0,.12,.09c0,.05-.02,.07-.13,.16-.01,.31-.03,.57-.06,.92h2.14v.73h-2.24c-.04,.2-.09,.43-.2,.83h2.17v.75h-.97v1.51h1.24v.71h-3.42v-.71h1.4v-1.51h-.67c-.38,.92-.8,1.42-1.23,1.83-.18-.21-.44-.4-.55-.47v1.04h-.8v-3.24c-.15,.21-.21,.28-.29,.37-.11-.21-.4-.52-.51-.62,.51-.56,1.01-1.53,1.33-2.5l.74,.27s.1,.04,.1,.1c0,.09-.13,.1-.17,.1-.21,.51-.26,.62-.46,1.04,.18,.06,.22,.08,.22,.12,0,.06-.05,.09-.15,.12v3.08c.88-.79,1.29-1.82,1.45-2.83h-1.17Z"/><path class="aa" d="M200.62,230.92l.83,.04c.06,0,.14,.01,.14,.09,0,.07-.08,.1-.16,.12v1.13h.92v-1.61l.78,.04c.06,0,.15,.03,.15,.1,0,.04-.03,.06-.15,.1v1.37h.86v-1.43l.78,.04c.06,0,.13,.01,.13,.08,0,.04-.02,.06-.16,.12v1.19h.96v.73h-.96v2.13h-.75v-.28h-.86v.35h-.78v-2.2h-.92v2.57h3.8v.74h-3.8v.26h-.81v-3.57h-.88v-.73h.88v-1.39Zm3.37,2.12h-.86v1.13h.86v-1.13Z"/><path class="aa" d="M207.56,236.6h-.79v-3.19c-.22,.3-.27,.35-.34,.43-.1-.24-.33-.49-.5-.63,.89-1.12,1.31-2.33,1.38-2.53l.73,.29s.1,.04,.1,.12-.09,.09-.17,.09c-.16,.4-.43,.94-.49,1.06,.12,.03,.21,.07,.21,.13,0,.06-.06,.08-.13,.11v4.12Zm2.83,0h-.79v-1.65c-.53,.69-.99,1.06-1.4,1.37-.14-.21-.24-.31-.58-.54,.72-.39,1.29-1,1.6-1.4h-1.39v-.72h1.77v-.53h-1.26v-2.21h3.31v2.21h-1.1c.03,.08-.08,.12-.16,.13v.4h1.63v.72h-1.35c.08,.1,.74,.85,1.55,1.35-.24,.19-.37,.33-.55,.6-.27-.19-.75-.6-1.28-1.29v1.56Zm-1.23-4.99v.81h1.65v-.81h-1.65Z"/></g><g><path class="aa" d="M177.34,213.17v-.73h1.26c.04-.65,.04-.9,.04-1.21l.83,.04s.12,0,.12,.09c0,.05-.02,.07-.13,.16-.01,.31-.03,.57-.06,.92h2.14v.73h-2.24c-.04,.2-.09,.43-.2,.83h2.17v.75h-.97v1.51h1.24v.71h-3.42v-.71h1.4v-1.51h-.67c-.38,.92-.8,1.42-1.23,1.83-.18-.21-.44-.4-.55-.47v1.04h-.8v-3.24c-.15,.21-.21,.28-.29,.37-.11-.21-.4-.52-.51-.62,.51-.56,1.01-1.53,1.33-2.5l.74,.27s.1,.04,.1,.1c0,.09-.13,.1-.17,.1-.21,.51-.26,.62-.46,1.04,.18,.06,.22,.08,.22,.12,0,.06-.05,.09-.15,.12v3.08c.88-.79,1.29-1.82,1.45-2.83h-1.17Z"/><path class="aa" d="M187.84,213.3c-.16,.13-.24,.22-.25,.23-.47,.51-1.19,1.37-1.76,2.06,.15,.15,.41,.41,.6,.7l-.54,.68c-.67-.88-1.16-1.33-2.02-1.88l.58-.58c.28,.15,.56,.38,.74,.53,.29-.32,.88-1.03,1.12-1.32h-1.81c-.6,.79-.92,1.13-1.71,1.75l-.64-.6c.81-.6,1.81-1.36,2.58-3.39,.24,.1,.69,.28,.86,.37,.03,.02,.06,.04,.06,.08,0,.06-.06,.08-.1,.1-.09,.03-.1,.05-.15,.15-.08,.19-.26,.51-.37,.72h1.42c.2,0,.56,0,.69-.08l.71,.49Z"/></g><g><path class="aa" d="M200.63,191.06h-.76v-2.19c-.18,.52-.33,.81-.51,1.1-.27-.26-.44-.38-.65-.49,.56-.67,.95-1.75,1.12-2.35h-.9v-.72h.94v-1.2l.77,.04c.06,0,.13,.03,.13,.08,0,.06-.06,.1-.14,.14v.94h.78v.63c.31-.6,.39-1.13,.45-1.49l.76,.25c.1,.03,.12,.04,.12,.1,0,.09-.08,.1-.21,.11-.09,.33-.36,1.38-.94,2.11-.21-.16-.36-.25-.67-.38,.3-.35,.36-.45,.44-.59h-.72v.12c.16,.4,.44,.93,.83,1.4-.22,.17-.39,.33-.56,.54-.08-.16-.16-.32-.28-.59v2.46Zm2.49-3.52c.06,.01,.09,.04,.09,.08,0,.07-.06,.1-.17,.13-.15,.56-.45,1.6-.67,2.18,.23-.03,.79-.11,1.25-.19-.23-.55-.46-.94-.55-1.1l.74-.3c.15,.28,.67,1.19,1.01,2.36-.21,.08-.49,.2-.75,.34-.06-.26-.13-.47-.21-.68-.46,.1-1,.21-2.46,.44-.03,0-.07,.01-.12,.02-.05,.12-.08,.17-.15,.17-.02,0-.06-.02-.07-.11l-.13-.8c.1,0,.51-.04,.62-.05,.12-.34,.63-1.9,.75-2.69l.81,.19Zm.79-2.21c0,.56,.09,1.53,1.02,2.31-.17,.12-.31,.23-.59,.54-.35-.33-.94-1.13-1.1-2.13h-.45v-.72h1.12Z"/><path class="aa" d="M205.51,186.69c.13,.06,.71,.38,1.03,.67-.1,.12-.15,.17-.45,.64-.35-.29-.59-.47-.98-.71l.4-.6Zm-.39,3.95c.35-.53,.79-1.36,1.13-2.26,.19,.19,.44,.37,.61,.45-.22,.6-.65,1.5-.94,2.03,.01,.04,.04,.1,.04,.14,0,.02,0,.08-.05,.08-.02,0-.03,0-.08-.03l-.71-.41Zm.85-5.55c.44,.24,.77,.53,.95,.7-.21,.22-.27,.29-.46,.57-.44-.36-.48-.4-.92-.7l.44-.57Zm3.42,4.61v1.19h-.71v-1.19h-.81v1.35h-.75v-4.12h1.56v-.37h-1.79v-.63h1.79v-.78l.76,.04c.09,0,.13,.02,.13,.07,0,.08-.13,.12-.18,.14v.53h.81c-.22-.21-.44-.38-.55-.46l.53-.42c.24,.15,.56,.42,.77,.64-.12,.08-.14,.09-.31,.24h.47v.63h-1.72v.37h1.58v3.38c0,.71-.39,.75-1.1,.74-.05-.28-.12-.51-.27-.8,.13,.02,.24,.03,.36,.03,.28,0,.28-.04,.28-.3v-.29h-.85Zm-.71-1.68v-.43h-.81v.43h.81Zm0,1.06v-.44h-.81v.44h.81Zm1.56-1.06v-.43h-.85v.43h.85Zm0,1.06v-.44h-.85v.44h.85Z"/></g><g><path class="aa" d="M152.31,163.62c.09,.02,.12,.04,.12,.09,0,.01,0,.08-.13,.1-.03,.12-.15,.63-.18,.73,.63-.1,.92-.22,1.18-.33l.1,.85c-.34,.1-.68,.19-1.51,.31-.62,2.1-1.45,3.43-1.7,3.81-.26-.17-.37-.21-.82-.42,.35-.42,1.16-1.65,1.63-3.27-.39,.04-.67,.04-1.27,.05l-.07-.9c.16,.01,.36,.03,.63,.03,.12,0,.48,0,.92-.04,.1-.58,.14-.92,.17-1.24l.94,.22Zm.52,3.83c-.12,.13-.22,.29-.22,.47,0,.34,.78,.34,1.08,.34,.48,0,.93-.07,1.39-.21-.02,.11-.03,.25-.03,.44,0,.21,.02,.34,.04,.45-.58,.1-1.04,.12-1.34,.12-.6,0-1.91-.05-1.91-1.01,0-.26,.08-.48,.28-.86l.71,.26Zm-.28-1.72c.63-.12,1.28-.12,1.44-.12,.55,0,.81,.04,.95,.07-.03,.26-.05,.47-.06,.85-.21-.04-.46-.1-.94-.1-.51,0-1.17,.08-1.38,.11v-.81Z"/><path class="aa" d="M158.43,164.31c-.56,.49-1.2,1.72-1.2,2.77s.87,1.15,1.12,1.15c1.24,0,1.35-1.24,1.35-1.67,0-1.28-.53-2.14-.74-2.49l.79-.44c.56,1.02,1.18,1.71,2.01,2.31-.17,.23-.28,.44-.45,.74-.35-.29-.63-.58-.92-.93,.03,.12,.08,.31,.08,.76,0,.52-.03,.99-.31,1.51-.21,.38-.7,1.01-1.76,1.01s-1.98-.72-1.98-1.92c0-.72,.4-1.67,.69-2.17-.33,.15-.79,.29-.99,.33l-.28-.91c.48-.05,1.34-.24,2.04-.69l.56,.63Zm2.37-.63c.13,.13,.44,.46,.57,.65-.15,.13-.17,.15-.37,.35-.03-.04-.35-.47-.57-.7l.37-.3Zm.51-.44c.16,.14,.38,.36,.6,.62-.17,.14-.19,.15-.39,.34-.19-.25-.32-.4-.56-.64l.36-.32Z"/><path class="aa" d="M164.46,164.78s.11,.04,.11,.1c0,.08-.09,.09-.13,.09-.17,.33-.36,.9-.44,1.34,.67-.57,1.49-.73,1.98-.73,1.07,0,1.62,.75,1.62,1.53,0,1.25-1.24,2.01-3.28,2.01-.2,0-.36,0-.48-.01-.03-.29-.1-.63-.25-.91,.2,.03,.46,.08,.88,.08,.4,0,2.22-.06,2.22-1.16,0-.34-.19-.77-.85-.77-1.11,0-1.9,.88-2.13,1.14l-.78-.28c.18-1.13,.34-1.74,.65-2.7l.88,.28Zm-.26-1.42c.46,.07,1.39,.26,2.21,.74-.2,.28-.31,.47-.49,.79-.6-.42-1.45-.69-2.01-.8l.29-.73Z"/><path class="aa" d="M171.97,166.54h2.48v.75h-2.48v1.99h-.85v-1.99h-2.51v-.75h2.51v-2.16h-2.24v-.73h5.31v.73h-2.22v2.16Zm-1.97-1.93c.28,.43,.56,1.05,.71,1.47-.12,.04-.64,.28-.74,.33-.1-.3-.37-.99-.71-1.5l.74-.29Zm3.8,.19s.13,.04,.13,.12-.08,.08-.19,.08c-.24,.65-.4,1.02-.63,1.45-.12-.06-.63-.26-.76-.31,.21-.38,.56-1.16,.66-1.63l.79,.29Z"/><path class="aa" d="M176.56,167.13c-.12,.96-.42,1.6-.8,2.17-.18-.11-.47-.26-.8-.3,.8-1.03,.8-2.13,.8-3.15v-1.02h4.56v2.63h-.85v-.33h-2.91Zm4.18-3.53v.72h-5.58v-.72h5.58Zm-1.28,2.76v-.79h-2.85c0,.28,0,.56-.01,.79h2.86Z"/><path class="aa" d="M182.64,168.49v.34h-.81v-4.84h5.06v4.84h-.81v-.34h-3.44Zm3.44-.73v-3.04h-3.44v3.04h3.44Z"/></g><g><path class="aa" d="M244.92,325.18c.22-.03,.47-.04,.96-.13v-1.41h-1.1v-.65h1.21v-2.83h4.06v.63h-3.29v.33h2.94v.58h-2.94v.35h2.93v.59h-2.93v.35h3.88v.65h-.96l.35,.26s.08,.06,.08,.1c0,.06-.04,.06-.17,.06-.2,.19-.26,.23-.76,.61,.28,.19,.78,.49,1.42,.65-.11,.08-.33,.24-.55,.61-.53-.17-1.44-.71-1.94-1.22-.08,.42-.07,.47-.06,.56-.74,.19-1.9,.43-2.69,.57-.04,.1-.07,.12-.11,.12-.06,0-.09-.05-.12-.15l-.22-.63Zm1.73-.26c.67-.12,1.1-.22,1.38-.29-.4-.43-.61-.87-.66-.98h-.72v1.28Zm1.53-1.28c.14,.23,.27,.38,.47,.6,.21-.16,.42-.35,.64-.6h-1.12Z"/><path class="aa" d="M256.11,322.25c-.04,.62-.07,.99-.12,1.33h1.1v.73h-1.2c-.27,1.46-.39,1.66-1.62,1.66-.22,0-.28,0-.38-.02-.06-.46-.21-.73-.29-.89,.19,.05,.4,.11,.79,.11s.53-.04,.69-.86h-3.96v-.73h4.08c.04-.35,.04-.47,.05-.64h-2.5c-.06,.17-.06,.19-.1,.29-.26-.08-.49-.12-.88-.15,.55-1.32,.82-2.63,.85-3.1l.86,.13s.1,.01,.1,.07-.06,.08-.16,.12c-.02,.1-.03,.2-.1,.47h3.24v.76h-3.42c-.12,.45-.13,.5-.19,.72h3.15Z"/></g><g><path class="aa" d="M371.25,344.26h-.76v-1.5l.79,.04c.06,0,.12,.04,.12,.08,0,.06-.06,.08-.15,.1v.41h.84v-.73h-.97v-3.61h1.12c.11-.26,.16-.38,.22-.58l.86,.06c.06,0,.13,.01,.13,.08,0,.08-.09,.1-.18,.12-.04,.1-.08,.21-.13,.31h2.19v2.08h-3.37v.26h4.29v.48h-4.29v.26h4.16c-.02,.57-.08,1.49-.38,1.92-.26,.37-.47,.38-1.3,.4-.03-.16-.06-.31-.11-.47h-3.08v.28Zm.71-4.4h2.58v-.28h-2.58v.28Zm2.58,.47h-2.58v.3h2.58v-.3Zm-.87,3.05v-.58l.77,.03c.11,0,.17,.04,.17,.09,0,.07-.11,.09-.17,.1v.62c.2,.03,.28,.04,.35,.04,.28,0,.33-.13,.36-.2,.05-.12,.12-.54,.12-.83h-2.79l.42,.03c.1,0,.19,.03,.19,.08,0,.07-.12,.1-.18,.11v.51h.76Z"/><path class="aa" d="M380.71,343.73c0,.67-.4,.67-1.1,.69-.07-.28-.13-.4-.36-.78,.08,.02,.32,.06,.44,.06,.17,0,.25-.04,.25-.26v-1.15h-1.41v-2.44h1.1c.1-.28,.13-.38,.17-.49h-1.69v.76c0,1.25,0,2.92-.8,4.11-.15-.08-.48-.23-.74-.27,.6-1.03,.76-1.65,.76-3.82v-1.44h5.21v.65h-1.81s.01,.03,.01,.04c0,.07-.15,.11-.2,.12-.06,.18-.11,.29-.13,.33h1.65v2.44h-1.35v1.44Zm-1.1-.94s.07,.04,.07,.09c0,.06-.06,.09-.16,.11-.33,.53-.55,.87-.94,1.24-.19-.18-.47-.33-.67-.4,.56-.53,.81-.94,.99-1.34l.7,.3Zm-.3-1.99h1.97v-.35h-1.97v.35Zm1.97,.53h-1.97v.35h1.97v-.35Zm.28,1.15c.29,.25,.87,.87,1.12,1.28-.35,.26-.42,.31-.59,.49-.12-.18-.6-.89-1.07-1.35l.54-.42Z"/><path class="aa" d="M383.45,340.08c.44,.2,.9,.5,1.08,.62-.21,.31-.28,.42-.41,.67-.42-.31-.92-.55-1.07-.62l.4-.66Zm-.37,3.92c.39-.63,.65-1.17,.88-1.94,.28,.2,.42,.28,.67,.38-.3,.82-.38,.99-.72,1.72,.02,.06,.03,.1,.03,.13,0,.04-.03,.08-.08,.08-.03,0-.07-.02-.12-.04l-.67-.33Zm.9-5.46c.14,.08,.57,.31,.98,.65-.16,.21-.26,.37-.4,.62-.4-.31-.65-.47-1.01-.65l.44-.62Zm2.28,4.9c0,.2,.03,.28,.25,.28h1.17c.33,0,.37-.31,.42-.69,.27,.19,.48,.3,.74,.39-.2,.87-.65,.94-.98,.94h-1.54c-.39,0-.81-.02-.81-.7v-1.1h1.74v-.37h-1.49c-.29,.26-.48,.42-.74,.62-.15-.21-.33-.37-.53-.52,.71-.42,1.04-.87,1.22-1.15h-.97v-.67h.96v-.54h-.69v-.65h.69v-.73l.78,.03s.13,0,.13,.07c0,.07-.09,.11-.16,.14v.49h.73v-.75l.77,.04s.13,0,.13,.07-.08,.09-.15,.12v.51h.77v.65h-.77v.54h1.06v.67h-1.01c.35,.47,.78,.76,1.24,1.01-.22,.19-.33,.31-.53,.59-.37-.26-.66-.53-.74-.6v1.18h-.71v-.18h-.98v.3Zm1.2-1.85c-.12-.16-.21-.3-.3-.46h-.62c-.06,.12-.13,.23-.29,.46h1.2Zm-.29-1.66h-.73v.54h.73v-.54Z"/></g><g><path class="w" d="M237.51,192.78h-.76v-2.19c-.18,.52-.33,.81-.51,1.1-.27-.26-.44-.38-.65-.49,.56-.67,.95-1.75,1.12-2.35h-.9v-.72h.94v-1.2l.77,.04c.06,0,.13,.03,.13,.08,0,.06-.06,.1-.14,.14v.94h.78v.63c.31-.6,.39-1.13,.45-1.49l.76,.25c.1,.03,.12,.04,.12,.1,0,.09-.08,.1-.21,.11-.09,.33-.36,1.38-.94,2.11-.21-.16-.36-.25-.67-.38,.3-.35,.36-.45,.44-.59h-.72v.12c.16,.4,.44,.93,.83,1.4-.22,.17-.39,.33-.56,.54-.08-.16-.16-.32-.28-.59v2.46Zm2.49-3.52c.06,.01,.09,.04,.09,.08,0,.07-.06,.1-.17,.13-.15,.56-.45,1.6-.67,2.18,.23-.03,.79-.11,1.25-.19-.23-.55-.46-.94-.55-1.1l.74-.3c.15,.28,.67,1.19,1.01,2.36-.21,.08-.49,.2-.75,.34-.06-.26-.13-.47-.21-.68-.46,.1-1,.21-2.46,.44-.03,0-.07,.01-.12,.02-.05,.12-.08,.17-.15,.17-.02,0-.06-.02-.07-.11l-.13-.8c.1,0,.51-.04,.62-.05,.12-.34,.63-1.9,.75-2.69l.81,.19Zm.79-2.21c0,.56,.09,1.53,1.02,2.31-.17,.12-.31,.23-.59,.54-.35-.33-.94-1.13-1.1-2.13h-.45v-.72h1.12Z"/><path class="w" d="M242.39,188.41c.13,.06,.71,.38,1.03,.67-.1,.12-.15,.17-.45,.64-.35-.29-.59-.47-.98-.71l.4-.6Zm-.39,3.95c.35-.53,.79-1.36,1.13-2.26,.19,.19,.44,.37,.61,.45-.22,.6-.65,1.5-.94,2.03,.01,.04,.04,.1,.04,.14,0,.02,0,.08-.05,.08-.02,0-.03,0-.08-.03l-.71-.41Zm.85-5.55c.44,.24,.77,.53,.95,.7-.21,.22-.27,.29-.46,.57-.44-.36-.48-.4-.92-.7l.44-.57Zm3.42,4.61v1.19h-.71v-1.19h-.81v1.35h-.75v-4.12h1.56v-.37h-1.79v-.63h1.79v-.78l.76,.04c.09,0,.13,.02,.13,.07,0,.08-.13,.12-.18,.14v.53h.81c-.22-.21-.44-.38-.55-.46l.53-.42c.24,.15,.56,.42,.77,.64-.12,.08-.14,.09-.31,.24h.47v.63h-1.72v.37h1.58v3.38c0,.71-.39,.75-1.1,.74-.05-.28-.12-.51-.27-.8,.13,.02,.24,.03,.36,.03,.28,0,.28-.04,.28-.3v-.29h-.85Zm-.71-1.68v-.43h-.81v.43h.81Zm0,1.06v-.44h-.81v.44h.81Zm1.56-1.06v-.43h-.85v.43h.85Zm0,1.06v-.44h-.85v.44h.85Z"/><path class="w" d="M254.06,192.75c-.44-.34-.97-1.05-1.26-1.66-.38,.78-.78,1.29-1.39,1.72-.17-.19-.31-.32-.66-.52,.12-.06,.21-.1,.34-.2-.34,.12-.52,.17-2.16,.6,0,.05-.04,.17-.11,.17-.04,0-.09-.04-.1-.1l-.12-.71c.16-.02,.79-.15,.99-.19v-.29s-.32,.09-.67,.24c-.06-.43-.11-.59-.25-1.09l.63-.15c.09,.22,.24,.74,.29,.95v-1.19h-.85v-.61h.85v-.54h-.52v-.47c-.12,.1-.17,.13-.25,.18-.21-.28-.26-.35-.47-.53,.6-.37,1.06-.87,1.4-1.47l.67,.19s.1,.03,.1,.08c0,.05-.04,.06-.17,.1,.37,.46,.62,.65,.87,.81-.14,.1-.33,.33-.48,.52-.24-.19-.38-.32-.78-.78-.1,.12-.29,.38-.74,.79h1.63v.52c.27-.47,.51-1.15,.53-1.87l.76,.15c.06,.01,.1,.03,.1,.06,0,.08-.1,.11-.2,.13-.02,.16-.03,.29-.08,.5h.37v-1.12l.79,.04c.05,0,.12,.03,.12,.08,0,.06-.08,.1-.13,.12v.88h1.15v.65h-1.15v.77h1.31v.64h-1.21c.21,.85,.74,1.56,1.42,2.02-.19,.12-.47,.41-.6,.6Zm-1.71-4.02h-.53c-.12,.42-.21,.6-.26,.71-.16-.1-.32-.21-.71-.33v.08h-.56v.54h.69v.61h-.69v1c.14-.26,.27-.7,.32-.92l.65,.16s.08,.03,.08,.06c0,.07-.09,.09-.17,.1-.1,.31-.16,.54-.31,.79,.09-.03,.19-.06,.26-.08-.01,.09-.04,.26-.04,.44,0,.08,0,.13,.01,.19,.87-.63,1.16-1.56,1.23-1.96h-1.15v-.64h1.18v-.77Zm-2.05,2.62v.35c.07-.02,.44-.12,.53-.14-.11-.06-.33-.16-.53-.21Z"/><path class="w" d="M256.58,189.39v1.97c.01,.14,.03,.3,.28,.44,.33,.19,.69,.24,1.44,.24,1.41,0,2.26-.1,2.71-.14-.15,.23-.22,.46-.22,.79h-2.85c-.94,0-1.3-.14-1.67-.56-.1,.1-.63,.51-.71,.55,0,.04,.01,.08,.01,.11,0,.06-.04,.1-.08,.1-.04,0-.08-.05-.1-.09l-.41-.72c.22-.1,.45-.23,.84-.49v-1.47h-.79v-.71h1.56Zm-1.03-2.41c.14,.1,.59,.44,1.02,.96-.24,.23-.46,.51-.51,.56-.35-.4-.66-.72-1.02-.99l.51-.52Zm4.94,1.62v3.18h-.79v-.17h-1.72v.21h-.78v-3.22h.87c.04-.11,.12-.28,.15-.37h-1.47v-.64h.9c-.13-.19-.22-.31-.36-.47l.64-.31c.28,.32,.39,.48,.49,.67-.12,.03-.21,.06-.33,.1h1c.16-.29,.24-.47,.35-.78l.72,.21c.06,.02,.12,.04,.12,.11,0,.08-.08,.09-.15,.1-.03,.06-.17,.31-.2,.37h.94v.64h-1.81c-.09,.19-.13,.28-.17,.37h1.6Zm-.79,.84v-.34h-1.72v.34h1.72Zm0,.81v-.35h-1.72v.35h1.72Zm0,.82v-.35h-1.72v.35h1.72Z"/></g><g><path class="aa" d="M352.33,216.28v-.73h1.26c.04-.65,.04-.9,.04-1.21l.83,.04s.12,0,.12,.09c0,.05-.02,.07-.13,.16-.01,.31-.03,.57-.06,.92h2.14v.73h-2.24c-.04,.2-.09,.43-.2,.83h2.17v.75h-.97v1.51h1.24v.71h-3.42v-.71h1.4v-1.51h-.67c-.38,.92-.8,1.42-1.23,1.83-.18-.21-.44-.4-.55-.47v1.04h-.8v-3.24c-.15,.21-.21,.28-.29,.37-.11-.21-.4-.52-.51-.62,.51-.56,1.01-1.53,1.33-2.5l.74,.27s.1,.04,.1,.1c0,.09-.13,.1-.17,.1-.21,.51-.26,.62-.46,1.04,.18,.06,.22,.08,.22,.12,0,.06-.05,.09-.15,.12v3.08c.88-.79,1.29-1.82,1.45-2.83h-1.17Z"/><path class="aa" d="M359.97,214.76c-.04,1.71-.26,1.71-1.28,1.69,0-.11-.03-.32-.15-.63,.08,.01,.27,.04,.4,.04,.24,0,.29-.06,.31-.54h-.6c-.04,.15-.19,.67-.7,1.22h4.13v2.51h-.89c.24,.15,.72,.41,1.52,.57-.22,.26-.33,.41-.43,.66-.72-.22-1.28-.49-1.92-.9l.33-.33h-1.28l.33,.31s.08,.07,.08,.12-.04,.07-.1,.07c-.03,0-.06,0-.14-.02-.61,.36-1.12,.58-1.75,.76-.1-.21-.28-.43-.5-.65,.76-.12,1.35-.39,1.66-.59h-1.07v-2.47c-.17,.17-.23,.21-.33,.28-.19-.26-.33-.38-.54-.53,.4-.25,.68-.49,.88-1.01h-.74v-.56h.87c.03-.19,.03-.33,.03-.45l.76,.06c.06,0,.13,.02,.13,.08s-.07,.1-.18,.13c-.02,.12-.02,.13-.03,.17h1.19Zm-1.3,2.5h2.67v-.24h-2.67v.24Zm2.67,.4h-2.67v.25h2.67v-.25Zm0,.65h-2.67v.27h2.67v-.27Zm1.38-3.62v1.66h-2.51v-1.66h2.51Zm-1.83,.56v.54h1.17v-.54h-1.17Z"/></g><g><path class="aa" d="M309.62,207.44c.33,.14,.85,.44,1.17,.71-.22,.28-.35,.53-.42,.65-.34-.28-.75-.52-1.12-.71l.37-.65Zm-.25,3.64c.49-.55,1.06-1.51,1.31-1.98,.14,.21,.32,.4,.54,.54-.37,.67-.69,1.19-1.09,1.81,.02,.06,.03,.11,.03,.16,0,.04-.03,.08-.06,.08-.03,0-.06-.03-.12-.08l-.61-.54Zm.75-5.21c.37,.19,.78,.44,1.12,.71-.19,.26-.26,.37-.41,.63-.22-.18-.67-.51-1.1-.71l.38-.63Zm5.13,4.7v.73h-4.18v-.73h1.69v-3.54h-1.39v-.72h3.67v.72h-1.43v3.54h1.65Z"/><path class="aa" d="M315.73,210.19c.83-.22,.94-.26,1.83-.54v-1.6h-1.72v-.79h1.72v-1.37l.87,.06s.12,.02,.12,.08-.05,.08-.17,.12v5.54h-.81v-1.26c-.17,.06-1.29,.46-1.38,.49-.04,.13-.06,.21-.12,.21-.04,0-.07-.04-.08-.1l-.24-.83Zm6-2.84s.04,.05,.04,.08c0,.03-.02,.08-.08,.08-.02,0-.03,0-.12-.02-.12,.1-.6,.56-.71,.65-.46,.4-.95,.76-1.06,.83v1.6c0,.28,.13,.28,.35,.28h.44c.19,0,.42,0,.49-.83,.28,.22,.38,.3,.75,.4-.16,.98-.58,1.17-1.01,1.17h-1.02c-.5,0-.8-.19-.8-.78v-4.93l.83,.05c.06,0,.13,.02,.13,.08,0,.05-.03,.06-.17,.13v1.85c.12-.09,.83-.67,1.22-1.22l.7,.56Z"/></g><g><path class="aa" d="M280.22,259.96v-1.1h.93c.11-1.08,.13-1.45,.15-2.04l1.25,.14c.08,.01,.18,.02,.18,.14s-.1,.15-.27,.19c-.03,.59-.04,.77-.13,1.57h1.53c0,1.59-.09,3.19-.58,4.71,.61,.8,.76,1.07,.85,1.24-.26,.14-.66,.48-.89,.8-.25-.45-.36-.64-.47-.8-.43,.84-.91,1.45-1.42,1.97-.37-.34-.6-.49-1.05-.71,.85-.78,1.31-1.4,1.74-2.3-.11-.13-.26-.33-.6-.72-.17,.46-.24,.61-.3,.77-.37-.24-.71-.4-1.13-.49,.48-1.07,.81-2.21,.98-3.38h-.79Zm1.98,0c-.13,.8-.18,1.07-.4,1.96,.11,.11,.28,.27,.65,.66,.2-.84,.29-1.76,.29-2.62h-.54Zm2.97,2.69c-.07-.13-.22-.42-.28-.51h-.47v-2.08h4.93v2.08h-.51s.06,.04,.06,.07c0,.11-.17,.12-.23,.12-.08,.1-.11,.16-.22,.32h1.57v.9h-6.24v-.9h1.39Zm4.82-5.15v.91h-2.48v.41h2.08v.88h-5.37v-.88h2.02v-.41h-2.41v-.91h2.41v-.71l1.28,.08c.14,.01,.25,.05,.25,.15,0,.08-.1,.13-.26,.18v.29h2.48Zm-4.49,8.89v.27h-1.2v-2.75h5.12v2.75h-1.21v-.27h-2.71Zm2.71-.95v-.63h-2.71v.63h2.71Zm-.04-4.6h-2.61v.5h2.61v-.5Zm-.85,1.82c.08-.12,.19-.28,.34-.51h-1.58c.11,.18,.17,.35,.26,.51h.98Z"/><path class="aa" d="M295.62,262.73v1.03h-1.73v1c.07-.01,.9-.15,1.86-.37-.05,.16-.13,.38-.13,.74,0,.11,.01,.18,.02,.31-1.03,.31-3.77,.83-4.23,.9-.03,.16-.06,.3-.2,.3-.04,0-.14-.04-.17-.21l-.25-1.2c.59-.06,.81-.1,1.99-.28v-1.19h-1.72v-1.03h1.72v-.92h-1.63v-4.65h4.37v4.65h-1.62v.92h1.73Zm-2.78-3.71v-.85h-.65v.85h.65Zm-.65,.93v.85h.65v-.85h-.65Zm2.31-.93v-.85h-.67v.85h.67Zm-.67,.93v.85h.67v-.85h-.67Zm6.46,.75l.6,.52c-.28,.94-.82,1.99-1.3,2.58-.32-.21-.66-.41-1.03-.53,.65-.85,.79-1.26,.88-1.48h-.93v3.66c0,1.31-1.44,1.26-2.17,1.23-.03-.59-.17-.89-.45-1.38,.47,.14,.75,.15,.88,.15,.3,0,.43-.12,.43-.45v-3.21h-1.42v-1.09h2.45c-.19-.15-.99-.76-2.01-1.25l.61-.94c.45,.22,.68,.34,.91,.46,.31-.3,.43-.44,.63-.73h-2.42v-1.08h4.12l.48,.57c-.25,.29-.74,.86-1.8,1.82,.51,.33,.66,.46,.81,.59-.22,.23-.35,.37-.5,.57h1.25Z"/><path class="aa" d="M301.22,266.04c.51-.76,1.5-2.47,1.94-3.64,.38,.48,.88,.84,.99,.93-.35,.84-.46,1.01-1.53,3,.03,.11,.05,.17,.05,.24s-.03,.15-.12,.15c-.06,0-.14-.02-.22-.06l-1.12-.61Zm.79-6.55c1.06,.54,1.55,.9,1.77,1.05-.33,.42-.51,.71-.73,1.11-.43-.34-1.15-.81-1.74-1.1l.69-1.06Zm.78-2.58c.75,.46,1.2,.75,1.68,1.14-.3,.35-.57,.82-.69,1.07-.69-.54-1.07-.81-1.74-1.17l.76-1.04Zm1.83,8.44v-3.52h6.28v3.52h.5v1.08h-7.53v-1.08h.75Zm6-8.16v4.14h-5.56v-4.14h5.56Zm-4.21,8.16v-2.48h-.65v2.48h.65Zm2.93-6.54v-.63h-3.09v.63h3.09Zm-3.09,.9v.67h3.09v-.67h-3.09Zm1.82,5.64v-2.48h-.63v2.48h.63Zm1.7,0v-2.48h-.66v2.48h.66Z"/><path class="aa" d="M315.9,262.13l.44,.41c-.14,.45-.94,2.7-3.04,4.07-.33-.36-.64-.6-1.1-.84,.66-.38,1.82-1.13,2.45-2.49h-2.07v-1.14h3.33Zm5.49-.01s.11,.07,.11,.15c0,.15-.16,.14-.39,.12-.88,.76-1.08,.92-1.7,1.37,.77,.68,1.67,1.2,2.62,1.6-.3,.25-.41,.38-.92,1.04-.64-.31-1.31-.72-2.03-1.31-.61-.5-.8-.77-1.17-1.28v1.61c0,1.11-.32,1.36-1.98,1.35-.02-.29-.08-.67-.52-1.42,.34,.05,.47,.06,.69,.06,.43,0,.47-.09,.47-.45v-3.39h-3.1v-3.9h2.14c.22-.4,.31-.54,.48-.91l1.55,.18c.12,.01,.18,.04,.18,.12,0,.14-.14,.17-.38,.25-.06,.1-.08,.13-.24,.36h3.66v3.9h-.26l.78,.56Zm-6.59-2.98h4.77v-.52h-4.77v.52Zm4.77,.82h-4.77v.59h4.77v-.59Zm-1.67,1.6v.18c.29,.62,.49,.9,.65,1.11,.17-.12,.97-.68,1.5-1.29h-2.15Z"/></g><g><path class="o" d="M237.66,294.17h1.59v1.08h-1.42c.13,.16,.84,.96,1.42,1.33-.45,.29-.58,.41-.85,.83-.32-.31-.48-.53-.74-.92v2.35h-1.21v-2.34c-.29,.57-.62,1.13-1.17,1.73-.3-.27-.55-.43-1.07-.65,.9-.76,1.47-1.59,1.88-2.34h-1.5v-1.08h1.86v-.78h-1.98v-1.05h1.21c-.17-.61-.27-.82-.34-.99l.56-.19h-1.13v-1.03h1.72v-1.05l1.29,.1c.19,.01,.23,.05,.23,.13,0,.06-.1,.13-.23,.2v.62h1.54v1.03h-.65c.26,.05,.35,.08,.35,.17,0,.11-.07,.13-.27,.18-.12,.33-.28,.65-.37,.83h1.16v1.05h-1.55c-.02,.13-.23,.18-.33,.21v.57Zm-1.22-3.01c.23,.56,.3,.81,.34,1.02l-.6,.17h1.04c.32-.49,.48-1.06,.51-1.19h-1.29Zm3.35-1.32l.71,.08c.71,0,2.15-.35,2.97-.69l.73,.95s.05,.08,.05,.14c0,.1-.06,.15-.16,.15-.08,0-.14-.03-.27-.11-.9,.29-1.68,.46-2.75,.54v1.45h3.05v1.2h-.96v5.31h-1.27v-5.31h-.82c0,.79,0,3.45-1.56,5.39-.26-.17-.65-.4-1.23-.54,1.37-1.48,1.51-3.3,1.51-4.85v-3.71Z"/><path class="o" d="M245.13,293.05v-1.3h4.19v-2.73l1.4,.08c.16,.01,.24,.05,.24,.14,0,.1-.12,.14-.24,.17v2.35h4.12v1.3h-4.09c.48,1.57,1.46,3.5,4.24,4.9-.63,.48-.81,.68-1.04,1.06-1.14-.51-2.97-2.08-3.92-4.21-1.23,2.64-3.02,3.63-4.26,4.23-.11-.25-.28-.58-.95-1.19,.9-.35,3.66-1.46,4.35-4.8h-4.04Z"/><path class="o" d="M258.92,298.88h-1.33v-3.8c-.29,.74-.74,1.54-.99,1.87-.31-.32-.57-.51-1.13-.81,.87-.95,1.61-2.02,2.1-3.83h-1.78v-1.15h1.81v-1.99l1.4,.06c.12,.01,.19,.06,.19,.13,0,.08-.09,.12-.26,.19v1.6h1.46v1.15h-1.46v.44c.52,.87,1.06,1.39,1.69,1.85-.25,.29-.46,.64-.74,1.12-.42-.37-.86-1.03-.95-1.16v4.34Zm2.72-5.74c.38,.64,.88,1.86,1.01,2.41-.32,.1-.62,.2-1.17,.53-.19-.98-.59-1.86-.92-2.44l1.08-.51Zm3.94-2v1.15h-1.1v5c0,1.09-.16,1.66-2.31,1.57-.16-.82-.21-1.04-.53-1.5,.44,.09,.8,.09,.87,.09,.48,0,.54-.09,.54-.5v-4.66h-2.26v-1.15h2.26v-2.02l1.42,.06c.13,.01,.26,.02,.26,.13s-.12,.14-.25,.18v1.65h1.1Z"/></g><g><path class="o" d="M209.53,359.25c.37-.04,.78-.08,1.59-.21v-2.35h-1.83v-1.08h2.02v-4.71h6.77v1.06h-5.48v.56h4.89v.96h-4.89v.58h4.88v.98h-4.88v.58h6.47v1.08h-1.6l.59,.44c.08,.05,.13,.11,.13,.17,0,.11-.07,.11-.28,.1-.33,.31-.43,.38-1.27,1.01,.46,.31,1.3,.82,2.37,1.09-.18,.14-.54,.41-.92,1.01-.89-.29-2.39-1.19-3.24-2.03-.13,.69-.12,.79-.1,.93-1.23,.31-3.16,.71-4.49,.95-.08,.17-.12,.2-.18,.2-.1,0-.15-.09-.2-.26l-.36-1.06Zm2.88-.44c1.11-.2,1.84-.37,2.3-.49-.66-.72-1.01-1.44-1.1-1.63h-1.2v2.12Zm2.54-2.12c.24,.38,.45,.63,.79,.99,.35-.27,.69-.58,1.07-.99h-1.86Z"/><path class="o" d="M229.76,354.66v1.05h-.73v3.48c0,.53-.08,1.38-1.84,1.3-.05-.39-.22-.9-.57-1.39,.48,.12,.83,.12,.9,.12,.25,0,.27-.04,.27-.33v-3.18h-3.79v-1.05h.46c-.19-.29-.45-.52-.67-.65v5.04h-.95v-.8h-1.71v1.28h-.94v-7.2l1.07,.08c.08,.01,.15,.03,.15,.12,0,.1-.08,.13-.28,.2v4.33h.42v-6.31l.97,.04s.14,.01,.14,.1c0,.11-.11,.15-.22,.19v5.98h.41v-4.84l1.01,.05c.06,0,.17,.02,.17,.11,0,.1-.14,.16-.24,.19v1.31c1.16-.43,1.5-.87,1.64-1.09h-1.29v-1.04h1.7c.09-.49,.06-.77,.05-1.05l1.29,.07c.09,0,.17,.02,.17,.1,0,.12-.15,.15-.22,.17,0,.2-.01,.29-.04,.7h2.35v1.04h-1.69c.6,.73,1.55,1.06,1.9,1.17-.35,.25-.53,.4-.75,.69h.85Zm-2.53,1.58v2.81h-1.89v.79h-1.13v-3.6h3.02Zm1.14-1.58c-.68-.34-1.31-.91-1.76-1.53-.37,.63-.88,1.1-1.58,1.53h3.34Zm-3.03,2.58v.77h.8v-.77h-.8Z"/></g><ellipse class="v" cx="289.53" cy="163.86" rx="31.63" ry="25.23"/><polygon class="v" points="283.48 175.59 287.75 205.09 296.28 179.5 283.48 175.59"/><g><path class="q" d="M268.2,162.56c.73,.66,1.21,1.26,1.69,1.88,.42-1.03,.61-1.75,.74-2.42h-3.76v-1.27h2.28v-1.8l1.56,.08c.09,0,.24,.04,.24,.15s-.13,.17-.24,.2v1.36h2.14v1.27h-.83c-.22,1.36-.73,2.7-1.19,3.67,.33,.48,.92,1.47,1.47,2.62-.65,.29-.96,.47-1.39,.74-.32-.87-.43-1.12-.86-1.99-.99,1.49-1.77,2.2-2.37,2.68-.4-.46-.66-.61-1.21-.82,.93-.72,1.84-1.59,2.74-3.12-.7-1.03-1.46-1.84-2.1-2.47l1.09-.76Zm4.98,1.48c.38,.52,.9,1.34,1.27,2.26-.22,.09-.43,.19-1.34,.72-.2-.63-.73-1.67-1.14-2.28l1.21-.69Zm4.68-2.01v1.32h-1.2v4.82c0,1.6-1.02,1.6-2.51,1.6,.01-.8-.52-1.44-.66-1.62,.46,.08,1.12,.13,1.2,.13,.46,0,.49-.2,.49-.74v-4.18h-2.57v-1.32h2.57v-3.02l1.48,.09c.14,.01,.22,.05,.22,.14,0,.08-.04,.11-.22,.2v2.58h1.2Z"/><path class="q" d="M280.53,169.2v.54h-1.46v-8.09h3.54c.22-.43,.34-.72,.49-1.09h-4.48v-1.2h10.81v1.2h-4.54c-.24,.5-.35,.74-.55,1.09h4.58v8.09h-1.45v-.54h-6.96Zm1.27-1.25v-5.15h-1.27v5.15h1.27Zm3-4.2v-.95h-1.56v.95h1.56Zm0,2.08v-.99h-1.56v.99h1.56Zm0,2.12v-1.07h-1.56v1.07h1.56Zm2.69,0v-5.15h-1.26v5.15h1.26Z"/><path class="q" d="M296.44,169.78h-1.39v-2.47c-.96,.95-2.68,2.11-3.67,2.56-.39-.51-.66-.78-1.06-1.05,1.81-.69,2.97-1.7,3.58-2.22h-2.97v-1.2h1.57v-.91h-2.14v-1.14h2.14v-.89h-1.56v-1.17h4.1v-.59c-.99,.06-1.42,.07-2.95,.07-.09-.48-.24-.85-.46-1.2,.29,.01,.65,.04,1.23,.04,3.31,0,5.23-.56,5.85-.79l.82,1.05s.06,.11,.06,.16c0,.07-.05,.11-.13,.11-.07,0-.14-.02-.33-.11-1.02,.29-2.27,.52-2.71,.58v.68h4.12v1.17h-1.62v.89h2.19v1.14h-2.19v.91h1.57v1.2h-2.96c1.12,1.03,2.63,1.75,3.63,2.14-.39,.3-.65,.56-.99,1.04-1.07-.52-2.42-1.27-3.76-2.56v2.55Zm-1.39-7.31h-1.13v.89h1.13v-.89Zm0,2.03h-1.13v.91h1.13v-.91Zm2.51-2.03h-1.13v.89h1.13v-.89Zm0,2.03h-1.13v.91h1.13v-.91Z"/><path class="q" d="M305.74,161.06v1.28h-.86v1.4c.47-.15,.66-.22,.87-.32-.08,.36-.08,.47-.07,1.21-.18,.08-.28,.12-.8,.34v3.51c0,1-.46,1.33-1.82,1.33-.18,0-.29-.01-.41-.02-.13-.75-.2-.96-.44-1.41,.17,.04,.53,.09,.83,.09,.43,0,.48-.09,.48-.46v-2.53c-.15,.06-.82,.31-.95,.36-.05,.13-.12,.26-.21,.26-.12,0-.14-.13-.17-.24l-.25-1.34c.28-.06,.56-.11,1.57-.39v-1.81h-1.38v-1.28h1.38v-2.04l1.38,.07c.13,.01,.29,.01,.29,.14,0,.09-.12,.15-.32,.22v1.61h.86Zm-.48,5.8v-1.21h.81v-3.95h.79c-.22-.21-.42-.34-1.03-.69,.89-.5,1.56-1.16,2.21-2.15l1.21,.32c.14,.04,.24,.08,.24,.17,0,.09-.12,.13-.26,.15-.05,.07-.12,.16-.18,.26h2.08l.55,.5c-.52,.73-.58,.8-1.12,1.45h1.94v3.95h.46v1.21h-2.9c.32,.42,1.16,1.4,2.95,1.9-.38,.31-.63,.68-.86,1.1-.91-.41-2.16-.99-3.22-2.4-.27,.46-1.07,1.77-3.01,2.39-.25-.46-.43-.72-.89-1.05,1.2-.34,2.19-.81,2.87-1.95h-2.63Zm3.7-5.16c.08-.09,.41-.48,.72-.93h-1.54c-.31,.29-.67,.65-1.02,.93h1.84Zm.79,3.35c.09,.01,.21,.02,.21,.13,0,.12-.07,.14-.28,.22-.01,.08-.04,.18-.05,.25h1.59v-1.26c-.15,.25-.35,.31-.52,.31h-.67c-.45,0-.71-.15-.71-.56v-1.32h-.94l.63,.19c.08,.02,.18,.05,.18,.13,0,.13-.18,.13-.25,.13-.23,.63-.65,1.36-1.19,1.76-.11-.12-.2-.21-.39-.38v1h.95c.04-.22,.06-.36,.08-.73l1.34,.13Zm-2.37-.96c.34-.35,.55-.75,.68-1.27h-.68v1.27Zm2.95-1.27v.72c0,.12,.02,.18,.09,.18,.27,0,.31,0,.4-.55,.2,.14,.27,.19,.4,.25v-.59h-.89Z"/></g></g><g><path class="n" d="M328.18,362.06c.08,0,.16,.06,.15,.16-.01,.2-.06,.41-.11,.57-.03,.09-.09,.12-.16,.12-.08,0-.16-.06-.16-.14,0-.02,0-.04,.01-.07,.05-.13,.09-.32,.11-.5,0-.09,.08-.14,.15-.14Zm.98-1.92h.4c.09,0,.14,.09,.14,.17s-.04,.18-.14,.18h-.4v.29h.4c.09,0,.14,.08,.14,.17s-.04,.18-.14,.18h-.4v.3h.24c.27,0,.38,.12,.38,.36,0,.44-.05,.71-.12,.96-.09,.33-.28,.43-.54,.43-.1,0-.17,0-.24-.02-.12-.02-.17-.12-.17-.21,0-.12,.08-.24,.24-.21,.05,.01,.1,.02,.16,.02,.09,0,.13-.02,.16-.14,.05-.19,.09-.43,.09-.74,0-.06-.02-.09-.09-.09h-.78c-.27,0-.38-.1-.38-.33v-1.6c0-.26,.12-.38,.46-.38h1.06c.11,0,.16,.09,.16,.19s-.05,.19-.16,.19h-.46v.29Zm-.46,2.41c0,.1-.07,.16-.14,.16-.06,0-.13-.04-.13-.12,0-.12-.03-.29-.06-.44-.02-.09,.06-.15,.13-.15,.06,0,.11,.03,.13,.1,.04,.15,.07,.33,.08,.45Zm-.1-2.71c-.08,0-.1,.02-.1,.07v.22h.28v-.29h-.18Zm.18,.93v-.29h-.28v.29h.28Zm0,.35h-.28v.21c0,.07,.02,.09,.1,.09h.18v-.3Zm.27,1.22c.03,.12-.06,.18-.13,.18-.05,0-.11-.03-.12-.1-.03-.13-.06-.25-.1-.33,0-.02-.01-.04-.01-.05,0-.07,.06-.11,.12-.11,.05,0,.09,.03,.12,.08,.05,.1,.09,.22,.12,.34Zm.28-.21s0,.04,0,.06c0,.07-.06,.12-.12,.12-.04,0-.08-.02-.11-.08-.04-.1-.08-.17-.12-.24-.01-.02-.02-.04-.02-.06,0-.06,.06-.1,.12-.1,.04,0,.08,.02,.11,.06,.05,.08,.09,.17,.12,.25Zm1.17-1.05c-.02,1-.16,1.54-.39,2.01-.05,.1-.13,.14-.21,.14-.11,0-.22-.08-.22-.2,0-.04,.01-.08,.03-.12,.23-.46,.35-1,.35-2.08v-.85c0-.3,.17-.44,.47-.44h.8c.31,0,.47,.14,.47,.43v.68c0,.31-.18,.43-.47,.44h-.15c.09,.7,.35,1.25,.7,1.68,.05,.06,.07,.12,.07,.18,0,.13-.12,.23-.24,.23-.07,0-.14-.03-.2-.11-.38-.51-.65-1.18-.75-1.98h-.26Zm.73-.39c.08,0,.12-.03,.12-.11v-.53c0-.07-.03-.11-.12-.11h-.62c-.08,0-.12,.03-.12,.11v.64h.73Z"/><path class="n" d="M335.91,362.63c.13,0,.19,.11,.19,.22s-.06,.22-.19,.22h-2.74c-.49,0-.67-.19-.67-.57v-2.41c0-.38,.19-.57,.67-.57h2.57c.13,0,.19,.11,.19,.22s-.06,.22-.19,.22h-2.49c-.21,0-.27,.06-.27,.23v2.23c0,.17,.06,.23,.27,.23h2.66Zm-.51-.82c.05,.06,.07,.12,.07,.17,0,.13-.11,.25-.24,.25-.06,0-.13-.03-.18-.09-.17-.19-.36-.37-.56-.55-.26,.3-.54,.56-.86,.78-.05,.03-.1,.05-.14,.05-.12,0-.22-.11-.22-.22,0-.06,.03-.13,.1-.18,.29-.2,.56-.44,.79-.72-.21-.17-.43-.34-.64-.48-.08-.05-.11-.12-.11-.18,0-.12,.1-.23,.24-.23,.05,0,.1,.02,.15,.05,.21,.13,.42,.29,.64,.47,.16-.23,.3-.48,.41-.73,.04-.1,.13-.14,.21-.14,.12,0,.24,.09,.24,.22,0,.03,0,.07-.03,.11-.15,.29-.31,.57-.5,.83,.21,.18,.42,.38,.62,.59Z"/><path class="n" d="M337.14,360.92v2.14c0,.12-.12,.18-.23,.18s-.24-.06-.24-.18v-3.16c0-.31,.12-.47,.56-.47h.46c.45,0,.56,.14,.56,.45v.59c0,.13-.02,.28-.14,.36-.12,.09-.28,.09-.42,.09h-.56Zm.66-1.03c0-.08-.03-.11-.14-.11h-.39c-.11,0-.14,.03-.14,.11v.12h.66v-.12Zm-.14,.68c.11,0,.14-.02,.14-.11v-.12h-.66v.23h.53Zm.45,2.15c-.35,0-.49-.14-.49-.44v-.67c0-.3,.14-.44,.49-.44h.65c.35,0,.49,.14,.49,.44v.67c0,.34-.17,.44-.49,.44h-.65Zm.71-1.1c0-.07-.02-.09-.12-.09h-.54c-.09,0-.12,.02-.12,.09v.15h.77v-.15Zm-.12,.74c.09,0,.12-.02,.12-.09v-.15h-.77v.15c0,.08,.04,.09,.12,.09h.54Zm.49-1.44c-.45,0-.56-.14-.56-.45v-.59c0-.31,.12-.45,.56-.45h.5c.45,0,.56,.16,.56,.47v2.74c0,.4-.18,.56-.54,.56-.11,0-.21,0-.32-.03-.13-.02-.19-.12-.19-.23,0-.12,.09-.25,.26-.23,.07,0,.12,.02,.18,.02,.1,0,.14-.03,.14-.14v-1.68h-.6Zm.6-1.03c0-.08-.03-.11-.14-.11h-.42c-.11,0-.14,.03-.14,.11v.12h.7v-.12Zm0,.45h-.7v.12c0,.09,.03,.11,.14,.11h.56v-.23Z"/><path class="n" d="M340.92,361.57c0-.97,.81-1.77,1.98-1.77,1.04,0,1.64,.65,1.64,1.5,0,.77-.46,1.34-1.19,1.58-.04,.01-.07,.02-.1,.02-.15,0-.24-.12-.24-.24,0-.09,.05-.19,.18-.23,.61-.22,.85-.59,.85-1.12,0-.56-.38-1.02-1.03-1.07-.04,.71-.22,1.35-.48,1.82-.24,.42-.49,.54-.82,.54-.44,0-.8-.35-.8-1.02Zm.49,0c0,.39,.15,.54,.31,.54,.13,0,.25-.07,.37-.29,.22-.38,.38-.93,.43-1.56-.64,.12-1.11,.68-1.11,1.31Z"/><path class="n" d="M345.76,361.54c-.03,.63-.14,1.1-.35,1.49-.06,.1-.14,.15-.23,.15-.12,0-.23-.09-.23-.21,0-.04,.01-.09,.04-.13,.22-.4,.32-.86,.32-1.61v-.55c0-.26,.15-.38,.47-.38h.62c.33,0,.47,.12,.47,.38v.48c0,.31-.2,.38-.47,.38h-.64Zm-.51-1.57c-.12,0-.18-.11-.18-.21s.06-.21,.18-.21h1.59c.12,0,.18,.11,.18,.21s-.06,.21-.18,.21h-1.59Zm1.06,1.18c.08,0,.1-.03,.1-.09v-.3c0-.06-.03-.08-.1-.08h-.44c-.08,0-.11,.03-.11,.11v.36h.55Zm1.34-.09c-.06,.89-.33,1.53-.81,2.03-.06,.06-.13,.09-.19,.09-.12,0-.23-.1-.23-.22,0-.06,.02-.12,.08-.18,.49-.51,.71-1.13,.71-2.09v-.82c0-.12,.12-.18,.23-.18,.05,0,.1,.01,.14,.03,.32-.08,.61-.18,.86-.3,.04-.02,.08-.03,.11-.03,.13,0,.22,.12,.22,.23,0,.07-.04,.15-.13,.19-.28,.12-.61,.22-.97,.31v.54h1.2c.12,0,.17,.1,.17,.2s-.06,.2-.17,.2h-.34v1.96c0,.13-.11,.19-.23,.19s-.23-.06-.23-.19v-1.96h-.41Z"/><path class="n" d="M350.27,361.2c-.42,0-.54-.11-.54-.41v-.27c0-.29,.12-.41,.54-.41h.35v-.26h-1.02c-.11,0-.17-.1-.17-.2s.06-.2,.17-.2h3.41c.12,0,.18,.1,.18,.2s-.06,.2-.18,.2h-1.07v.26h.41c.42,0,.54,.11,.54,.41v.27c0,.12-.02,.25-.12,.32-.12,.08-.28,.08-.41,.08h-1.18c.06,.03,.1,.09,.1,.15,0,.03,0,.06-.02,.09-.02,.04-.05,.08-.07,.12h1.9c.11,0,.16,.09,.16,.19s-.05,.19-.16,.19h-.75c-.14,.21-.29,.4-.48,.57,.28,.09,.55,.21,.82,.33,.1,.04,.14,.12,.14,.19,0,.1-.08,.2-.2,.2-.03,0-.07,0-.11-.03-.33-.16-.66-.3-1-.42-.46,.28-1.02,.44-1.72,.49-.15,.01-.23-.09-.23-.19,0-.09,.06-.18,.19-.19,.5-.03,.92-.12,1.26-.27-.16-.05-.32-.09-.48-.13,0,0-.02,.02-.03,.03-.06,.06-.12,.08-.19,.08-.12,0-.21-.08-.21-.18,0-.04,.02-.09,.05-.12,.1-.12,.2-.23,.29-.34h-.91c-.1,0-.15-.09-.15-.19s.05-.19,.15-.19h1.17c.06-.09,.12-.19,.17-.29,.02-.03,.04-.06,.07-.08h-.66Zm.35-.36v-.36h-.31c-.11,0-.13,.02-.13,.1v.17c0,.09,.05,.1,.13,.1h.31Zm.32,1.1c-.06,.08-.12,.17-.19,.25,.22,.05,.44,.11,.66,.17,.16-.12,.29-.26,.41-.43h-.88Zm.58-1.83v-.26h-.47v.26h.47Zm-.47,.72h.47v-.36h-.47v.36Zm.89,0h.37c.11,0,.13-.02,.13-.1v-.17c0-.08-.02-.1-.13-.1h-.37v.36Z"/><path class="n" d="M354.16,362.56c-.31,0-.43-.13-.43-.43v-2.12c0-.3,.12-.43,.43-.43h.39c.31,0,.43,.13,.43,.43v2.12c0,.31-.12,.43-.43,.43h-.39Zm.39-2.45c0-.09-.02-.12-.11-.12h-.18c-.08,0-.1,.03-.1,.12v.7h.39v-.7Zm-.11,2.04c.09,0,.11-.03,.11-.12v-.82h-.39v.82c0,.08,.01,.12,.1,.12h.18Zm1.58-1.91h-.55c-.12,0-.18-.1-.18-.21s.06-.21,.18-.21h.55v-.36c0-.13,.12-.2,.23-.2s.23,.06,.23,.2v.36h.59c.12,0,.18,.1,.18,.21s-.06,.21-.18,.21h-.59v.37h.9c.12,0,.18,.1,.18,.21s-.06,.21-.18,.21h-2.12c-.12,0-.18-.1-.18-.21s.06-.21,.18-.21h.76v-.37Zm-.69,1.64c-.12,0-.18-.1-.18-.21s.06-.21,.18-.21h1.13v-.18c0-.13,.12-.2,.23-.2s.23,.06,.23,.2v.18h.39c.12,0,.18,.1,.18,.21s-.06,.21-.18,.21h-.39v.84c0,.37-.16,.5-.5,.5-.13,0-.22,0-.33-.03-.12-.03-.17-.12-.17-.22,0-.12,.09-.25,.25-.22,.06,.01,.1,.02,.18,.02,.08,0,.11-.03,.11-.11v-.79h-1.13Zm.69,.45s.05,.08,.05,.13c0,.12-.12,.23-.24,.23-.06,0-.12-.03-.17-.09-.07-.09-.14-.17-.22-.26-.04-.04-.06-.09-.06-.14,0-.11,.1-.21,.22-.21,.05,0,.11,.02,.16,.06,.09,.08,.18,.17,.25,.27Z"/><path class="n" d="M358.51,360.92v2.14c0,.12-.12,.18-.23,.18s-.24-.06-.24-.18v-3.16c0-.31,.12-.47,.56-.47h.46c.45,0,.56,.14,.56,.45v.59c0,.13-.02,.28-.14,.36-.12,.09-.28,.09-.42,.09h-.56Zm.66-1.03c0-.08-.03-.11-.14-.11h-.39c-.11,0-.14,.03-.14,.11v.12h.66v-.12Zm-.14,.68c.11,0,.14-.02,.14-.11v-.12h-.66v.23h.53Zm.45,2.15c-.35,0-.49-.14-.49-.44v-.67c0-.3,.14-.44,.49-.44h.65c.35,0,.49,.14,.49,.44v.67c0,.34-.17,.44-.49,.44h-.65Zm.71-1.1c0-.07-.02-.09-.12-.09h-.54c-.09,0-.12,.02-.12,.09v.15h.77v-.15Zm-.12,.74c.09,0,.12-.02,.12-.09v-.15h-.77v.15c0,.08,.04,.09,.12,.09h.54Zm.49-1.44c-.45,0-.56-.14-.56-.45v-.59c0-.31,.12-.45,.56-.45h.5c.45,0,.56,.16,.56,.47v2.74c0,.4-.18,.56-.54,.56-.11,0-.21,0-.32-.03-.13-.02-.19-.12-.19-.23,0-.12,.09-.25,.26-.23,.07,0,.12,.02,.18,.02,.1,0,.14-.03,.14-.14v-1.68h-.6Zm.6-1.03c0-.08-.03-.11-.14-.11h-.42c-.11,0-.14,.03-.14,.11v.12h.7v-.12Zm0,.45h-.7v.12c0,.09,.03,.11,.14,.11h.56v-.23Z"/></g><g><path class="g" d="M238.8,353.56s.34,.11,.95,.29"/><path class="e" d="M241.63,354.35c9.96,2.46,43.03,7.71,47.21-29.62"/><path class="g" d="M288.94,323.75c.03-.33,.06-.66,.09-1"/></g><path class="n" d="M276.5,359.96s-.07,.04-.15,.06c0,.08-.12,1.06-.35,1.66,0,.01-.01,.02-.03,.02h0c-.19-.07-.67-.08-.67-.08,.37-.71,.48-1.64,.49-1.87,.04,0,.48,.05,.64,.09,.03,0,.06,.03,.07,.04v-.49c-.24,.04-.49,.07-.74,.1,0,.09-.04,.18-.1,.18-.12,0-.24-.78-.24-.79,.17,0,.36,0,.54-.02,.11-.13,.22-.27,.33-.41-.18-.22-.49-.6-.85-.87l.35-.51c.06,.05,.13,.11,.19,.17,.32-.46,.56-1.06,.59-1.13,.01,0,.49,.21,.7,.35,.03,.03,.05,.05,.05,.08,0,.03-.04,.06-.11,.06-.02,0-.04,0-.08,0-.06,.1-.44,.74-.71,1.09,.09,.1,.17,.19,.24,.27,.35-.51,.63-.97,.71-1.16,.01,0,.49,.29,.64,.4,.04,.03,.06,.07,.06,.1,0,.04-.03,.06-.09,.06-.03,0-.06,0-.11-.02-.04,.05-.33,.46-.68,.91l.42-.16c.04,.07,.11,.17,.17,.28,.63-.72,.88-1.81,.94-2.21,0,0,.65,.08,.8,.12,.04,.01,.1,.04,.1,.08s-.05,.07-.19,.09c-.04,.17-.11,.4-.2,.68h1.9v.21c0,.37,0,.83,0,1.29,0,2.12-.19,3.31-1.7,3.31-.08,0-.17,0-.27-.01-.03,0-.06,0-.06-.03-.08-.3-.47-.83-.47-.83,.27,.04,.54,.1,.79,.1,.81,0,.93-.67,.93-2.49v-.9h-1.37c-.12,.29-.28,.59-.46,.85,0,0-.01,.01-.02,.01h-.01c-.16-.07-.47-.13-.65-.16,.14,.26,.29,.58,.36,.88l-.53,.24c-.03-.11-.05-.23-.1-.37-.1,.03-.24,.04-.4,.08l.02,2.7h-.71v-2.03Zm.9-1.26c-.07-.15-.15-.29-.24-.4-.13,.16-.26,.33-.38,.49,.25-.03,.47-.06,.62-.08Zm.21,2.79c-.05-.63-.25-1.4-.36-1.67l.51-.14c.11,.25,.38,1,.47,1.56l-.63,.25Zm1.36-3.04c.29,.32,.72,.81,.99,1.35l-.67,.46c-.28-.65-.65-1.15-.96-1.44l.65-.36Z"/><path class="n" d="M290.93,358.7c-.39,.5-.75,.77-.76,.77s-.03,0-.05-.03c-.14-.15-.72-.42-.72-.42,1.08-.64,1.85-2.12,1.97-2.7,0,0,.65,.21,.83,.3,.06,.04,.09,.07,.09,.1,0,.05-.09,.08-.19,.08h-.03c-.15,.31-.45,.94-.88,1.56h2.63c-.44-.56-.85-1.22-1.14-1.8l.7-.28c.51,1.04,1.26,1.97,2.21,2.51,0,0-.57,.31-.76,.53-.01,.02-.03,.03-.04,.03-.03,0-.3-.22-.53-.47-.02,2.15-.24,3.02-1.5,3.02-.43,0-.44-.03-.45-.09-.05-.27-.46-.79-.46-.79,.27,.04,.58,.12,.85,.12s.51-.08,.61-.37c.13-.4,.17-1.18,.17-1.74h-.92c-.13,.88-.53,2.35-2.28,2.93-.03,0-.04,.01-.06,.01-.01,0-.03,0-.04-.03-.14-.2-.74-.56-.74-.56,1.8-.34,2.19-1.47,2.31-2.35h-.83v-.36Z"/><path class="n" d="M284.08,359.67c.14,.79,.75,.96,1.38,.96,.8,0,1.72-.74,1.73-2.54-.38,.54-1.19,.87-1.87,.87-1.91,0-2.94-1.3-2.94-2.82,0-1.25,.91-2.98,3.09-2.98s3.25,1.67,3.25,4.16-.75,4.67-3.39,4.67c-1.38,0-2.75-.62-2.91-2.31h1.66Zm2.97-3.54c0-.78-.48-1.69-1.58-1.69-.9,0-1.5,.79-1.5,1.62,0,.93,.52,1.55,1.47,1.55s1.6-.72,1.6-1.49Z"/><path class="n" d="M287.74,305.58s-.07,.04-.15,.06c0,.08-.12,1.06-.35,1.66,0,.01-.01,.02-.03,.02h0c-.19-.07-.67-.08-.67-.08,.37-.71,.48-1.64,.49-1.87,.04,0,.48,.05,.64,.09,.03,0,.06,.03,.07,.04v-.49c-.24,.04-.49,.07-.74,.1,0,.09-.04,.18-.1,.18-.12,0-.24-.78-.24-.79,.17,0,.36,0,.54-.02,.11-.13,.22-.27,.33-.41-.18-.22-.49-.6-.85-.87l.35-.51c.06,.05,.13,.11,.19,.17,.32-.45,.56-1.06,.59-1.13,.01,0,.49,.21,.7,.35,.03,.03,.05,.05,.05,.08,0,.03-.04,.06-.11,.06-.02,0-.04,0-.08,0-.06,.1-.44,.74-.71,1.09,.09,.1,.17,.19,.24,.27,.35-.51,.63-.97,.71-1.16,.01,0,.49,.29,.64,.4,.04,.03,.06,.07,.06,.1,0,.04-.03,.06-.09,.06-.03,0-.06,0-.11-.02-.04,.05-.33,.46-.68,.91l.42-.16c.04,.07,.11,.17,.17,.28,.63-.72,.88-1.81,.94-2.21,0,0,.65,.08,.8,.12,.04,.01,.1,.04,.1,.08s-.05,.07-.19,.09c-.04,.17-.11,.4-.2,.68h1.9v.21c0,.37,0,.83,0,1.29,0,2.12-.19,3.31-1.7,3.31-.08,0-.17,0-.27-.01-.03,0-.06,0-.06-.03-.08-.3-.47-.83-.47-.83,.27,.04,.54,.1,.79,.1,.81,0,.93-.67,.93-2.49v-.9h-1.37c-.12,.29-.28,.59-.46,.85,0,0-.01,.01-.02,.01h-.01c-.16-.07-.47-.13-.65-.16,.14,.26,.29,.58,.36,.88l-.53,.24c-.03-.11-.05-.23-.1-.37-.1,.03-.24,.04-.4,.08l.02,2.7h-.71v-2.03Zm.9-1.26c-.07-.15-.15-.29-.24-.4-.13,.16-.26,.33-.38,.49,.25-.03,.47-.06,.62-.08Zm.21,2.79c-.05-.63-.25-1.4-.36-1.67l.51-.14c.11,.25,.38,1,.47,1.56l-.63,.25Zm1.37-3.04c.29,.32,.72,.81,.99,1.35l-.67,.46c-.28-.65-.65-1.15-.96-1.44l.65-.36Z"/><path class="n" d="M302.83,304.32c-.39,.5-.75,.77-.76,.77s-.03,0-.05-.03c-.14-.15-.72-.42-.72-.42,1.08-.64,1.85-2.12,1.97-2.7,0,0,.65,.21,.83,.3,.06,.04,.09,.07,.09,.1,0,.05-.09,.08-.19,.08h-.03c-.15,.31-.45,.94-.88,1.56h2.63c-.44-.56-.85-1.22-1.14-1.8l.7-.28c.51,1.04,1.26,1.97,2.21,2.51,0,0-.57,.31-.76,.53-.01,.02-.03,.03-.04,.03-.03,0-.3-.22-.53-.47-.02,2.15-.24,3.02-1.5,3.02-.43,0-.44-.03-.45-.09-.05-.27-.46-.79-.46-.79,.27,.04,.58,.12,.85,.12s.51-.08,.61-.37c.13-.4,.17-1.18,.17-1.74h-.92c-.13,.88-.53,2.35-2.28,2.93-.03,0-.04,.01-.06,.01-.01,0-.03,0-.04-.03-.14-.2-.74-.56-.74-.56,1.8-.34,2.19-1.47,2.31-2.35h-.83v-.36Z"/><path class="n" d="M298.09,300.94c-.08-.64-.53-.9-1.16-.9-.84,0-1.63,.76-1.73,2.52,.43-.53,1.27-.82,1.89-.82,1.9,0,2.85,1.37,2.85,2.84v.02c0,1.33-.85,2.98-3.1,2.98s-3.24-1.75-3.24-4.14c0-2.21,.75-4.66,3.34-4.67,1.44,0,2.68,.79,2.76,2.17h-1.61Zm.21,3.71c0-.79-.37-1.62-1.43-1.62-.97,0-1.59,.79-1.59,1.53v.02c0,.78,.48,1.69,1.53,1.69s1.5-.74,1.5-1.61Z"/><path class="n" d="M290.05,241.44s-.07,.04-.15,.06c0,.08-.12,1.06-.35,1.66,0,.01-.01,.02-.03,.02h0c-.19-.07-.67-.08-.67-.08,.37-.71,.48-1.64,.49-1.87,.04,0,.48,.05,.64,.09,.03,0,.06,.03,.07,.04v-.49c-.24,.04-.49,.07-.74,.1,0,.09-.04,.18-.1,.18-.12,0-.24-.78-.24-.79,.17,0,.36,0,.54-.02,.11-.13,.22-.27,.33-.41-.18-.22-.49-.6-.85-.87l.35-.51c.06,.05,.13,.11,.19,.17,.32-.45,.56-1.06,.59-1.13,.01,0,.49,.21,.7,.35,.03,.03,.05,.05,.05,.08,0,.03-.04,.06-.11,.06-.02,0-.04,0-.08,0-.06,.1-.44,.74-.71,1.09,.09,.1,.17,.19,.24,.27,.35-.51,.63-.97,.71-1.16,.01,0,.49,.29,.64,.4,.04,.03,.06,.07,.06,.1,0,.04-.03,.06-.09,.06-.03,0-.06,0-.11-.02-.04,.05-.33,.46-.68,.91l.42-.16c.04,.07,.11,.17,.17,.28,.63-.72,.88-1.81,.94-2.21,0,0,.65,.08,.8,.12,.04,.01,.1,.04,.1,.08s-.05,.07-.19,.09c-.04,.17-.11,.4-.2,.68h1.9v.21c0,.37,0,.83,0,1.29,0,2.12-.19,3.31-1.7,3.31-.08,0-.17,0-.27-.01-.03,0-.06,0-.06-.03-.08-.3-.47-.83-.47-.83,.27,.04,.54,.1,.79,.1,.81,0,.93-.67,.93-2.49v-.9h-1.37c-.12,.29-.28,.59-.46,.85,0,0-.01,.01-.02,.01h-.01c-.16-.07-.47-.13-.65-.16,.14,.26,.29,.58,.36,.88l-.53,.24c-.03-.11-.05-.23-.1-.37-.1,.03-.24,.04-.4,.08l.02,2.7h-.71v-2.03Zm.9-1.26c-.07-.15-.15-.29-.24-.4-.13,.16-.26,.33-.38,.49,.25-.03,.47-.06,.62-.08Zm.21,2.79c-.05-.63-.25-1.4-.36-1.67l.51-.14c.11,.25,.38,1,.47,1.56l-.63,.25Zm1.37-3.04c.29,.32,.72,.81,.99,1.35l-.67,.46c-.28-.65-.65-1.15-.96-1.44l.65-.36Z"/><path class="n" d="M305.14,240.17c-.39,.5-.75,.77-.76,.77s-.03,0-.05-.03c-.14-.15-.72-.42-.72-.42,1.08-.64,1.85-2.12,1.97-2.7,0,0,.65,.21,.83,.3,.06,.04,.09,.07,.09,.1,0,.05-.09,.08-.19,.08h-.03c-.15,.31-.45,.94-.88,1.56h2.63c-.44-.56-.85-1.22-1.14-1.8l.7-.28c.51,1.04,1.26,1.97,2.21,2.51,0,0-.57,.31-.76,.53-.01,.02-.03,.03-.04,.03-.03,0-.3-.22-.53-.47-.02,2.15-.24,3.02-1.5,3.02-.43,0-.44-.03-.45-.09-.05-.27-.46-.79-.46-.79,.27,.04,.58,.12,.85,.12s.51-.08,.61-.37c.13-.4,.17-1.18,.17-1.74h-.92c-.13,.88-.53,2.35-2.28,2.93-.03,0-.04,.01-.06,.01-.01,0-.03,0-.04-.03-.14-.2-.74-.56-.74-.56,1.8-.34,2.19-1.47,2.31-2.35h-.83v-.36Z"/><path class="n" d="M297.66,240.81c.06,.96,.66,1.28,1.36,1.28,1.06,0,1.57-.75,1.57-1.71s-.51-1.67-1.47-1.67c-.53,0-1.15,.21-1.44,.89h-1.57l.62-4.82h4.95v1.36h-3.65l-.3,1.88c.47-.41,1.14-.52,1.51-.52h.08c1.86,0,2.93,1.27,2.93,2.86,0,1.87-1.31,3.09-3.18,3.09-1.74,0-3.02-.84-3.11-2.64h1.73Z"/><path class="n" d="M283.12,281.59s-.07,.04-.15,.06c0,.08-.12,1.06-.35,1.66,0,.01-.01,.02-.03,.02h0c-.19-.07-.67-.08-.67-.08,.37-.71,.48-1.64,.49-1.87,.04,0,.48,.05,.64,.09,.03,0,.06,.03,.07,.04v-.49c-.24,.04-.49,.07-.74,.1,0,.09-.04,.18-.1,.18-.12,0-.24-.78-.24-.79,.17,0,.36,0,.54-.02,.11-.13,.22-.27,.33-.41-.18-.22-.49-.6-.85-.87l.35-.51c.06,.05,.13,.11,.19,.17,.32-.46,.56-1.06,.59-1.13,.01,0,.49,.21,.7,.35,.03,.03,.05,.05,.05,.08,0,.03-.04,.06-.11,.06-.02,0-.04,0-.08,0-.06,.1-.44,.74-.71,1.09,.09,.1,.17,.19,.24,.27,.35-.51,.63-.97,.71-1.16,.01,0,.49,.29,.64,.4,.04,.03,.06,.07,.06,.1,0,.04-.03,.06-.09,.06-.03,0-.06,0-.11-.02-.04,.05-.33,.46-.68,.91l.42-.16c.04,.07,.11,.17,.17,.28,.63-.72,.88-1.81,.94-2.21,0,0,.65,.08,.8,.12,.04,.01,.1,.04,.1,.08s-.05,.07-.19,.09c-.04,.17-.11,.4-.2,.68h1.9v.21c0,.37,0,.83,0,1.29,0,2.12-.19,3.31-1.7,3.31-.08,0-.17,0-.27-.01-.03,0-.06,0-.06-.03-.08-.3-.47-.83-.47-.83,.27,.04,.54,.1,.79,.1,.81,0,.93-.67,.93-2.49v-.9h-1.37c-.12,.29-.28,.59-.46,.85,0,0-.01,.01-.02,.01h-.01c-.16-.07-.47-.13-.65-.16,.14,.26,.29,.58,.36,.88l-.53,.24c-.03-.11-.05-.23-.1-.37-.1,.03-.24,.04-.4,.08l.02,2.7h-.71v-2.03Zm.9-1.26c-.07-.15-.15-.29-.24-.4-.13,.16-.26,.33-.38,.49,.25-.03,.47-.06,.62-.08Zm.21,2.79c-.05-.63-.25-1.4-.36-1.67l.51-.14c.11,.25,.38,1,.47,1.56l-.63,.25Zm1.36-3.04c.29,.32,.72,.81,.99,1.35l-.67,.46c-.28-.65-.65-1.15-.96-1.44l.65-.36Z"/><path class="n" d="M298.21,280.33c-.39,.5-.75,.77-.76,.77s-.03,0-.05-.03c-.14-.15-.72-.42-.72-.42,1.08-.64,1.85-2.12,1.97-2.7,0,0,.65,.21,.83,.3,.06,.04,.09,.07,.09,.1,0,.05-.09,.08-.19,.08h-.03c-.15,.31-.45,.94-.88,1.56h2.63c-.44-.56-.85-1.22-1.14-1.8l.7-.28c.51,1.04,1.26,1.97,2.21,2.51,0,0-.57,.31-.76,.53-.01,.02-.03,.03-.04,.03-.03,0-.3-.22-.53-.47-.02,2.15-.24,3.02-1.5,3.02-.43,0-.44-.03-.45-.09-.05-.27-.46-.79-.46-.79,.27,.04,.58,.12,.85,.12s.51-.08,.61-.37c.13-.4,.17-1.18,.17-1.74h-.92c-.13,.88-.53,2.35-2.28,2.93-.03,0-.04,.01-.06,.01-.01,0-.03,0-.04-.03-.14-.2-.74-.56-.74-.56,1.8-.34,2.19-1.47,2.31-2.35h-.83v-.36Z"/><path class="n" d="M290.59,281.3c.14,.79,.75,.96,1.38,.96,.8,0,1.72-.74,1.73-2.54-.38,.54-1.19,.87-1.87,.87-1.91,0-2.94-1.3-2.94-2.82,0-1.25,.91-2.98,3.09-2.98s3.25,1.67,3.25,4.16-.75,4.67-3.39,4.67c-1.38,0-2.75-.62-2.91-2.31h1.66Zm2.97-3.54c0-.78-.48-1.69-1.58-1.69-.9,0-1.5,.79-1.5,1.62,0,.93,.52,1.55,1.47,1.55s1.6-.72,1.6-1.49Z"/><path class="f" d="M270.87,299.45s17.93,2.21,18.17,23.3"/><path class="f" d="M274.12,257.05s13.44,14.02-3.26,42.4"/><path class="f" d="M284.32,228.27s9.64,17.22-10.19,28.78"/><circle class="n" cx="239.05" cy="354.15" r="1.66"/><circle class="n" cx="289.03" cy="322.75" r="1.66"/><circle class="n" cx="270.87" cy="299.45" r="1.66"/><circle class="n" cx="274.12" cy="257.05" r="1.66"/><circle class="n" cx="284.32" cy="228.27" r="1.66"/><path class="n" d="M314.34,243.34l-.1,.1-1.62-1.62-1.61,1.62-.1-.1,1.61-1.61-1.6-1.6,.1-.1,1.6,1.6,1.6-1.6,.1,.1-1.6,1.6,1.62,1.61Zm-2.41-1.61c0,.21-.17,.38-.38,.38s-.38-.17-.38-.38,.17-.38,.38-.38,.38,.17,.38,.38Zm1.07-1.07c0,.21-.17,.38-.38,.38s-.38-.17-.38-.38,.17-.38,.38-.38,.38,.17,.38,.38Zm0,2.15c0,.21-.17,.38-.38,.38s-.38-.17-.38-.38,.17-.38,.38-.38,.38,.17,.38,.38Zm1.07-1.07c0,.21-.18,.38-.38,.38s-.38-.17-.38-.38,.17-.38,.38-.38,.38,.17,.38,.38Z"/><path class="n" d="M307.23,284.21l-.1,.1-1.62-1.61-1.61,1.61-.1-.1,1.61-1.62-1.6-1.6,.1-.1,1.6,1.6,1.6-1.6,.1,.1-1.6,1.6,1.62,1.62Zm-2.41-1.62c0,.21-.17,.38-.38,.38s-.38-.17-.38-.38,.17-.38,.38-.38,.38,.17,.38,.38Zm1.07-1.07c0,.21-.17,.38-.38,.38s-.38-.17-.38-.38,.17-.38,.38-.38,.38,.17,.38,.38Zm0,2.15c0,.21-.17,.38-.38,.38s-.38-.17-.38-.38,.17-.38,.38-.38,.38,.17,.38,.38Zm1.07-1.07c0,.21-.18,.38-.38,.38s-.38-.17-.38-.38,.17-.38,.38-.38,.38,.17,.38,.38Z"/><path class="n" d="M312.21,306.6l-.1,.1-1.62-1.62-1.61,1.62-.1-.1,1.61-1.61-1.6-1.6,.1-.1,1.6,1.6,1.6-1.6,.1,.1-1.6,1.6,1.62,1.61Zm-2.41-1.61c0,.21-.17,.38-.38,.38s-.38-.17-.38-.38,.17-.38,.38-.38,.38,.17,.38,.38Zm1.07-1.07c0,.21-.17,.38-.38,.38s-.38-.17-.38-.38,.17-.38,.38-.38,.38,.17,.38,.38Zm0,2.15c0,.21-.17,.38-.38,.38s-.38-.17-.38-.38,.17-.38,.38-.38,.38,.17,.38,.38Zm1.07-1.07c0,.21-.18,.38-.38,.38s-.38-.17-.38-.38,.17-.38,.38-.38,.38,.17,.38,.38Z"/><path class="n" d="M300.48,362.4l-.1,.1-1.62-1.61-1.61,1.61-.1-.1,1.61-1.62-1.6-1.6,.1-.1,1.6,1.6,1.6-1.6,.1,.1-1.6,1.6,1.62,1.62Zm-2.41-1.62c0,.21-.17,.38-.38,.38s-.38-.17-.38-.38,.17-.38,.38-.38,.38,.17,.38,.38Zm1.07-1.07c0,.21-.18,.38-.38,.38s-.38-.17-.38-.38,.17-.38,.38-.38,.38,.17,.38,.38Zm0,2.15c0,.21-.18,.38-.38,.38s-.38-.17-.38-.38,.17-.38,.38-.38,.38,.17,.38,.38Zm1.07-1.07c0,.21-.18,.38-.38,.38s-.38-.17-.38-.38,.18-.38,.38-.38,.38,.17,.38,.38Z"/><line class="f" x1="310.48" y1="361.34" x2="326.71" y2="361.34"/><g><path class="t" d="M390.89,224.74c.09-.02,.15-.03,.16,.03,.02,.05-.02,.09-.11,.17l.32,1.14,1.73-.5c.04,.23,.27,1.27,.31,1.48,.23,1.19,.32,1.69,.36,1.82,.06,.22,.14,.2,.35,.14,.21-.06,.33-.09,.18-1.01,.25,.17,.56,.24,.85,.22,.13,1.06-.07,1.29-.68,1.46l-.43,.12c-.46,.13-.82,.18-.99-.4-.03-.11-.04-.17-.07-.28l-.51-2.58-.93,.27c.11,.59,.23,1.66-.19,2.7-.26,.65-.62,1.11-1.18,1.54-.36-.32-.58-.38-.78-.43,.56-.44,1.76-1.38,1.37-3.58l-1.85,.54-.23-.74,1.9-.55c-.07-.23-.33-1.18-.4-1.4l.8-.17Z"/><path class="t" d="M390.81,231.4l.76-.17s.14-.03,.16,.04-.06,.13-.11,.16l.45,1.6,.52-.4c.27,.29,.41,.48,.65,.83l-.68-2.41,.76-.17s.13-.03,.15,.04c.01,.05-.03,.1-.1,.15l.44,1.56,.57-.45c.14,.15,.29,.31,.66,.85l-.73-2.62,.78-.17c.06,0,.14-.03,.17,.05,.01,.05-.03,.09-.11,.16l1.51,5.38-.77,.21-.69-2.47c-.13,.08-.21,.14-.49,.35-.31-.6-.79-1.14-.89-1.25l.95,3.38-.75,.21-.6-2.15c-.19,.12-.24,.16-.49,.35-.12-.2-.38-.68-.8-1.21l.05,.18c.26,.93,.36,1.42,.32,2.05-.03,.56-.2,1.27-.49,1.71-.23-.14-.47-.24-.74-.3,.65-1.12,.52-1.98,.26-2.89l-.23-.81s-.03,.01-.05,.02c.05,.29,.16,.91,.09,1.74-.29-.04-.66-.02-.73-.01,.04-.24,.1-.89-.13-1.83l.68-.08s.06,0,.09-.01l-.45-1.6Z"/><path class="t" d="M394.16,240.26l.92-.26,.17,.62-.82,.23c.1,.07,.64,.42,1.04,.54-.21,.24-.27,.33-.36,.62-.24-.13-.37-.23-.58-.41l.38,1.36-.7,.2-.38-1.35c-.08,.37-.17,.75-.4,1.19-.22-.11-.39-.16-.72-.2,.39-.58,.59-1.16,.71-1.66l-.86,.24-.17-.62,1.07-.3-.12-.45-1.14,.32-.17-.6,.7-.2c-.2-.32-.29-.43-.36-.52l.29-.2-.65,.18-.17-.59,.99-.28-.17-.6,.76-.15c.11-.02,.14,0,.16,.04,.01,.04-.04,.09-.1,.15l.1,.36,.89-.25,.17,.59-.38,.11c.16-.01,.21-.01,.23,.04,.02,.06-.02,.09-.12,.15-.01,.21-.06,.42-.08,.54l.67-.19,.17,.6-.89,.25c0,.08-.11,.14-.16,.18l.09,.33Zm-1.19-1.54c.23,.28,.3,.42,.36,.53l-.32,.2,.6-.17c.11-.34,.11-.69,.1-.77l-.75,.21Zm1.72-1.31l.42-.07c.41-.11,1.18-.55,1.6-.88l.57,.43s.04,.04,.05,.07c.01,.06-.01,.1-.07,.11-.04,.01-.09,0-.17-.02-.47,.31-.89,.54-1.5,.76l.24,.84,1.76-.49,.19,.69-.56,.16,.86,3.07-.73,.21-.86-3.07-.47,.13c.13,.46,.56,1.99-.03,3.37-.18-.06-.44-.12-.8-.12,.55-1.08,.34-2.15,.09-3.04l-.6-2.14Z"/><path class="t" d="M398.95,245.1l-.62,.17,.2,.71,1.1-.31,.19,.69-1.11,.31,.49,1.75-.71,.2-.49-1.75-1.04,.29-.19-.69,1.04-.29-.2-.71-.67,.19-.16-.56c-.06,.12-.09,.17-.14,.24-.15-.09-.22-.12-.4-.2l.52,1.86-.84,.23,.09,.32,1.09-.3,.17,.6-1.09,.3,.29,1.04-.7,.2-.29-1.04-.99,.28-.17-.6,.99-.28-.09-.32-.88,.25-.62-2.22,.88-.25-.09-.31-.98,.27-.16-.57,.98-.27-.16-.56,.72-.16c.07-.01,.12-.01,.14,.04,.02,.06-.03,.1-.09,.14l.1,.35,.98-.27,.16,.57-.98,.27,.09,.31,.84-.23v.02c.56-.89,.67-1.56,.71-1.81l.85-.08s.08,0,.09,.04c.02,.08-.07,.13-.11,.14,.4,.31,1.04,.68,1.79,.89-.17,.25-.23,.36-.32,.68-.13-.04-.22-.08-.4-.16l.17,.59Zm-4.33,1.02l1.1-.31-.09-.32-1.1,.31,.09,.32Zm1.24,.19l-1.1,.31,.1,.37,1.1-.31-.1-.37Zm2.9-1.82c-.3-.13-.89-.43-1.33-.8-.13,.39-.33,.88-.58,1.33l1.92-.54Z"/><path class="t" d="M397.46,250.49s.07,.02,.08,.06c.02,.07-.03,.08-.18,.13-.28,.94-.32,1.04-.58,1.74,.12-.05,.29-.12,.56-.22-.17-.25-.23-.33-.29-.4l.43-.33c.37,.38,.72,.9,.81,1.02-.08,.05-.4,.28-.54,.41-.03-.07-.05-.11-.11-.22-.08,.04-.21,.1-.34,.16l.73,2.6-.7,.2-.57-2.03s-.03,.07-.12,.11c.08,.38,.13,.83,.14,1.44-.24-.01-.32-.01-.65,.02,.03-.33,.02-1.02-.1-1.53l.61-.09c.07-.01,.09,0,.11,.04l-.12-.43c-.09,.04-.5,.22-.59,.26,0,.04,.01,.16-.06,.18-.03,0-.08-.02-.13-.1l-.32-.65c.12-.03,.17-.05,.5-.15,.01-.02,.13-.34,.19-.52-.08-.05-.55-.32-1.08-.5l.2-.73c.1,.04,.13,.05,.28,.11,.02-.07,.17-.57,.24-1.17l.72,.11s.1,.04,.11,.08c.02,.07-.05,.1-.17,.14-.1,.41-.12,.48-.31,1.12,.16,.08,.19,.09,.24,.12,.03-.1,.16-.54,.27-1.1l.74,.14Zm.48,2.42c.07,.17,.22,.56,.55,1.07-.2,.1-.29,.17-.46,.32-.19-.3-.41-.82-.52-1.11l.44-.28Zm2.18-.78c.13,.2,.21,.28,.29,.36,.09-.15,.29-.45,.45-.8l.64,.21s.1,.03,.12,.1c.02,.07-.05,.09-.08,.1-.03,0-.04,.01-.12,.02-.16,.3-.34,.58-.52,.81,.21,.16,.63,.46,1.17,.64-.11,.1-.21,.25-.29,.63-.2-.09-.83-.4-1.3-.83l.18,.66c.18,.65-.57,.87-.92,.96-.05-.13-.11-.28-.55-.65,.12,0,.26,0,.51-.06,.13-.04,.26-.07,.2-.29l-.56-2.01-1.02,.29-.63-2.23,.75-.21c.06-.34,.04-.53,.04-.68l.77-.09s.1,.02,.11,.06c.02,.06-.02,.09-.13,.16-.04,.23-.04,.25-.07,.35l1.25-.35,.62,2.23-1,.28,.09,.33Zm-1.78,1.2l-.17-.61,.93-.26,.31,.17c.08,1.25-.37,2.07-.53,2.35-.27-.14-.61-.19-.69-.2,.34-.45,.53-.99,.55-1.57l-.39,.11Zm.3-2.61l1.28-.36-.1-.34-1.28,.36,.09,.34Zm1.42,.11l-1.28,.36,.1,.35,1.28-.36-.1-.35Z"/></g><path class="z" d="M356.43,321.71c0,1.5-1.22,2.72-2.72,2.72s-2.73-1.22-2.73-2.72,1.22-2.73,2.73-2.73,2.72,1.22,2.72,2.73"/><g><path class="aa" d="M356.07,315.8v-.78h2.51v-1.64l.84,.04c.1,0,.14,.03,.14,.08,0,.06-.07,.08-.14,.1v1.41h2.47v.78h-2.46c.29,.94,.88,2.1,2.54,2.94-.38,.29-.49,.41-.62,.63-.69-.31-1.78-1.25-2.35-2.53-.74,1.58-1.81,2.18-2.56,2.54-.06-.15-.17-.35-.57-.71,.54-.21,2.2-.88,2.61-2.88h-2.42Z"/><path class="aa" d="M368.31,318.18v.81h-5.85v-.81h5.85Zm-.27-4.43v.79h-5.26v-.79h5.26Zm-.46,2.12v.79h-4.36v-.79h4.36Z"/><path class="aa" d="M372.18,319.3h-.76v-1.54c-.14,.16-.94,1.05-1.97,1.52-.21-.27-.33-.39-.67-.58,1.15-.37,1.86-1.04,2.11-1.29h-1.33v-2.38h1.87v-.33h-2.53v-.65h2.53v-.6l.82,.04s.14,.01,.14,.08c0,.08-.1,.11-.21,.13v.35h2.54v.65h-2.54v.33h1.89v2.38h-1.31c.63,.55,1.31,.94,2.04,1.21-.44,.38-.51,.48-.58,.62-.31-.14-1.13-.56-2.04-1.49v1.55Zm-.76-3.69h-1.08v.35h1.08v-.35Zm0,.84h-1.08v.35h1.08v-.35Zm.76-.49h1.1v-.35h-1.1v.35Zm0,.85h1.1v-.35h-1.1v.35Z"/></g><g><path class="y" d="M327.82,334.67h-.76v-1.5l.79,.04c.06,0,.12,.04,.12,.08,0,.06-.06,.08-.15,.1v.41h.84v-.73h-.97v-3.61h1.12c.11-.26,.16-.38,.22-.58l.86,.06c.06,0,.13,.01,.13,.08,0,.08-.09,.1-.18,.12-.04,.1-.08,.21-.13,.31h2.19v2.08h-3.37v.26h4.29v.48h-4.29v.26h4.16c-.02,.57-.08,1.49-.38,1.92-.26,.37-.47,.38-1.3,.4-.03-.16-.06-.31-.11-.47h-3.08v.28Zm.71-4.4h2.58v-.28h-2.58v.28Zm2.58,.47h-2.58v.3h2.58v-.3Zm-.87,3.05v-.58l.77,.03c.11,0,.17,.04,.17,.09,0,.07-.11,.09-.17,.1v.62c.2,.03,.28,.04,.35,.04,.28,0,.33-.13,.36-.2,.05-.12,.12-.54,.12-.83h-2.79l.42,.03c.1,0,.19,.03,.19,.08,0,.07-.12,.1-.18,.11v.51h.76Z"/><path class="y" d="M337.28,334.15c0,.67-.4,.67-1.1,.69-.07-.28-.13-.4-.36-.78,.08,.02,.32,.06,.44,.06,.17,0,.25-.04,.25-.26v-1.15h-1.41v-2.44h1.1c.1-.28,.13-.38,.17-.49h-1.69v.76c0,1.25,0,2.92-.8,4.11-.15-.08-.48-.23-.74-.27,.6-1.03,.76-1.65,.76-3.82v-1.44h5.21v.65h-1.81s.01,.03,.01,.04c0,.07-.15,.11-.2,.12-.06,.18-.11,.29-.13,.33h1.65v2.44h-1.35v1.44Zm-1.1-.94s.07,.04,.07,.09c0,.06-.06,.09-.16,.11-.33,.53-.55,.87-.94,1.24-.19-.18-.47-.33-.67-.4,.56-.53,.81-.94,.99-1.34l.71,.3Zm-.3-1.99h1.97v-.35h-1.97v.35Zm1.97,.53h-1.97v.35h1.97v-.35Zm.28,1.15c.29,.25,.87,.87,1.12,1.28-.35,.26-.42,.31-.59,.49-.12-.18-.6-.89-1.07-1.35l.54-.42Z"/><path class="y" d="M345.21,334.8c-.44-.34-.97-1.05-1.26-1.66-.38,.78-.78,1.29-1.39,1.72-.17-.19-.31-.32-.66-.52,.12-.06,.21-.1,.34-.2-.34,.12-.52,.17-2.16,.6,0,.05-.04,.17-.11,.17-.04,0-.09-.04-.1-.1l-.12-.71c.16-.02,.79-.15,.99-.19v-.29s-.32,.09-.67,.24c-.06-.43-.11-.59-.25-1.09l.63-.15c.09,.22,.24,.74,.29,.95v-1.19h-.85v-.61h.85v-.54h-.52v-.47c-.12,.1-.17,.13-.25,.18-.21-.28-.26-.35-.47-.53,.6-.37,1.06-.87,1.4-1.47l.67,.19s.1,.03,.1,.08c0,.05-.04,.06-.17,.1,.37,.46,.62,.65,.87,.81-.14,.1-.33,.33-.48,.52-.24-.19-.38-.32-.78-.78-.1,.12-.29,.38-.74,.79h1.63v.52c.27-.47,.51-1.15,.53-1.87l.76,.15c.06,.01,.1,.03,.1,.06,0,.08-.1,.11-.2,.13-.02,.16-.03,.29-.08,.5h.37v-1.12l.79,.04c.05,0,.12,.03,.12,.08,0,.06-.08,.1-.13,.12v.88h1.15v.65h-1.15v.77h1.31v.64h-1.21c.21,.85,.74,1.56,1.42,2.02-.19,.12-.47,.41-.6,.6Zm-1.71-4.02h-.53c-.12,.42-.21,.6-.26,.71-.16-.1-.32-.21-.71-.33v.08h-.56v.54h.69v.61h-.69v1c.14-.26,.27-.7,.32-.92l.65,.16s.08,.03,.08,.06c0,.07-.09,.09-.17,.1-.1,.31-.16,.54-.31,.79,.09-.03,.19-.06,.26-.08-.01,.09-.04,.26-.04,.44,0,.08,0,.13,.01,.19,.87-.63,1.16-1.56,1.23-1.96h-1.15v-.64h1.18v-.77Zm-2.05,2.62v.35c.07-.02,.44-.12,.53-.14-.11-.06-.33-.16-.53-.21Z"/><path class="y" d="M347.72,331.44v1.97c.01,.14,.03,.3,.28,.44,.33,.19,.69,.24,1.44,.24,1.41,0,2.26-.1,2.71-.14-.15,.23-.22,.46-.22,.79h-2.85c-.94,0-1.3-.14-1.67-.56-.1,.1-.63,.51-.71,.55,0,.04,.01,.08,.01,.11,0,.06-.04,.1-.08,.1-.04,0-.08-.05-.1-.09l-.41-.72c.22-.1,.45-.23,.84-.49v-1.47h-.79v-.71h1.56Zm-1.03-2.41c.14,.1,.59,.44,1.02,.96-.24,.23-.46,.51-.51,.56-.35-.4-.66-.72-1.02-.99l.51-.52Zm4.94,1.62v3.18h-.79v-.17h-1.72v.21h-.78v-3.22h.87c.04-.11,.12-.28,.15-.37h-1.47v-.64h.9c-.13-.19-.22-.31-.36-.47l.64-.31c.28,.32,.39,.48,.49,.67-.12,.03-.21,.06-.33,.1h1c.16-.29,.24-.47,.35-.78l.72,.21c.06,.02,.12,.04,.12,.11,0,.08-.08,.09-.15,.1-.03,.06-.17,.31-.2,.37h.94v.64h-1.81c-.09,.19-.13,.28-.17,.37h1.6Zm-.79,.84v-.34h-1.72v.34h1.72Zm0,.81v-.35h-1.72v.35h1.72Zm0,.82v-.35h-1.72v.35h1.72Z"/></g></svg>