<?xml version="1.0" encoding="utf-8"?>
<!-- Generator: Adobe Illustrator 26.5.0, SVG Export Plug-In . SVG Version: 6.00 Build 0)  -->
<svg version="1.1" id="a" xmlns="http://www.w3.org/2000/svg" xmlns:xlink="http://www.w3.org/1999/xlink" x="0px" y="0px"
	 viewBox="0 0 776.2 845.5" style="enable-background:new 0 0 776.2 845.5;" xml:space="preserve">
<style type="text/css">
	.st0{fill:#FEF0DB;}
	.st1{fill:none;stroke:#C9BC9C;stroke-width:1.5;stroke-linecap:round;stroke-linejoin:round;}
	.st2{fill:none;stroke:#EE7800;stroke-width:2.4;stroke-linecap:round;stroke-linejoin:round;}
	.st3{fill:none;stroke:#E60012;stroke-width:4.14;stroke-miterlimit:10;}
	.st4{fill:none;stroke:#00A0E9;stroke-width:2.4;stroke-miterlimit:10;}
	.st5{fill:none;stroke:#B0BFC8;stroke-width:2.76;stroke-miterlimit:10;}
	.st6{fill:none;stroke:#00A0E9;stroke-width:2.76;stroke-miterlimit:10;}
	.st7{fill-rule:evenodd;clip-rule:evenodd;fill:#E60012;}
	.st8{fill:#E60012;}
	.st9{fill:#F08300;}
	.st10{fill-rule:evenodd;clip-rule:evenodd;fill:#00A0E9;}
	.st11{fill-rule:evenodd;clip-rule:evenodd;fill:#C9BC9C;}
	.st12{fill:none;stroke:#DAE000;stroke-width:1.5;stroke-linecap:round;stroke-linejoin:round;}
	.st13{fill-rule:evenodd;clip-rule:evenodd;fill:#DAE000;}
	.st14{fill:none;stroke:#CAB6D8;stroke-width:1.5;stroke-linecap:round;stroke-linejoin:round;}
	.st15{fill-rule:evenodd;clip-rule:evenodd;fill:#CAB6D8;}
	.st16{fill:none;stroke:#E60012;stroke-miterlimit:10;}
	.st17{fill:#231815;}
	.st18{fill:#CAB6D8;}
	.st19{fill:#B28247;}
	.st20{fill:#FFFFFF;}
	.st21{fill:#00913A;}
	.st22{fill:none;stroke:#00913A;stroke-width:0.75;stroke-miterlimit:10;}
	.st23{fill:none;stroke:#00913A;stroke-width:0.75;stroke-miterlimit:10;stroke-dasharray:0,0,1.94,1.94;}
	.st24{fill:none;stroke:#00913A;stroke-width:0.75;stroke-miterlimit:10;stroke-dasharray:0,2;}
	.st25{fill:#00A0E9;}
	.st26{fill:#DAE000;}
</style>
<path class="st0" d="M776.2,291.3c-1.1-5.5-21.5-2.4-25.4,0.9c1.9-8.7-6.5-4.9-11.5-6.2c2.7-4.6,1.2-14.9,0.8-14.1
	c1.6-3.2,8.9-4.3,8.8-4c4-8.9,8-1.8,9-10.7c1.2-11.6-11.1-8-8.6,0c-2.4-0.3-4.2-3.9-6.7-1.2c-0.9-11.4-2.6-4-6.5-0.9
	c-1.3-4.2-10,1.2-11.6-1.4c1.7-1.6,14.5-7.9,13.2-11.9c-1.5-4.5-21.8-1.8-25-1.1c3-4.6,25.4-37.2,19.9-42
	c-1.8-1.5-32.1,5.5-38.3,4.8c-6.1-0.6-12.7-5.4-20.5-5.4c-15.5-0.2-50,8.8-32-23.1c11.1,9.1,37.7-0.5,28.8-14.8
	c19.2,0,20.8-4.4,22.6-28.5c1.5-19.4-4.8-37.3-20.9-47.3c-30.2-18.6-33,11.1-55.7,23.2c-15.4,8.2-54.3-2.5-70-11.3
	c-22.7-12.8-18-28.1-25-50.5c8.8,6.2-0.9-36-0.9-1.3c-4.5-4.3-2.9,0-4.9,1c1,0.3-6.5-3.3-6.2-2.6c4.7,1.7,14.4-33.2,13.5-35
	C512.7-12.4,505.8,12,491.6,20c-2-13.6-20.8-15.9-30.4-15.7c-5,0.1-19.6,5.7-22.9,7.3c-10.8,5.2-14.7,5.8-27.4,8.9
	c-3.5,0.9-19.9,8.4-19.8,8.3c-8.5,8.5-2,21.5-4.3,27.2c-3.5,8.9-4.8,13.4-12.2,19.5c-4.1,3.4-6.9,8-12.7,9.8
	c-13.2,4.2-2-8.7-13.3-8.7c-14.1,0,6.8,15.4,6.6,15.2c9.8,6.4,7.4,0.9,15.3-2.7c2.4,10-1.2,18.9-16.5,15.9c5.1-7.3-6.8-19.3-8.5-3.9
	c1.6,3.2-19.2-12.8-10-11.6c-13.8-1.8-5.1-1.4-18.3,5.8c2.2-1.2-16.7,14.3-15.9,12.1c-0.9,2.4,2.5,21.4,8.1,13.5
	c0.8,0.2,1.4,0.7,1.8,1.6c-2.1,10.4-33.2,6.1-25.4,24.8c-5.2,1.2-10.2,0.8-14.3-2.1c3.6-2.1,1-8.5-3-7.9c2.7-2,5.7-17,2.9-17
	c-17.2,0-35.3-10.2-34.4,18.4c-3.4-5.1-50.2,29.5-8.3,19.3c-10.4,5,0.5,10.6,0.5,6c1.1,0.9,2.9,6.2,1.4,7.7
	c-0.1-1.3-27.3,0.6-27.6,1c-0.2-1.9,6-18.3,0.9-18.3c-5.7,0-5.9,14.6-12.1,15.8c-4.5,0.8-12.5-5.7-16.2-2.6
	c8.2-17.3-26.6,7.7-30.2,8.2c2.2-5,0.5-26.9-4.5-25.6c-6.4,1.6-14.1,36.9,1.8,28.5c-0.6,3.1-1.6,11,0.1,13.6
	c-5.3,0-10.8,10.5-6.9,14.7c-7.6,0-8.4,10.5-4.6,15.1c5.7-0.4-22.4-0.7-11,5.2c12.5,6.4,18.4,1.5,28.2-7.8
	c10.4-9.8,16.7-36.6,25.1-40.4c-2,6,1.9,13.1,4.1,18.9c-16.8-3-2.3,22.9-1.5,24.4c11.7,20.5,1.3-4.6,17.3,1.4
	c-5.7,10.1-1.2,9,6.6,14.3c-1.3,3.4-1.4,21.2-6.3,27.1c-0.1-0.8-0.5-1.3-1.1-1.7c4-1.7-16.8-5.5-21.8,6.9c-8.9,22,13.6-3.7,20.2,2
	c4.7,4.1-5.4,14.7-5.8,19.7c0-0.5-7.9,0.1-3.2,9.8c3.2,6.6,8-1.3,10.1,1.8c8.2,11.9,13.3,30.4,28.8,28c-2.8,6.8,12.2,15.3,11.6,21.6
	c-1.7,18.5-9.5-3.5-13.2,5.5c-1.7,4.1,9.2,12.9,12.8,12.4c-0.5,12.6-32.6,30.2-9.4,27.6c-11.9,15.5,19.4,1.3,5.3-0.9
	c33.1-7.6,35.1-56.2,73-59.8c44.7-4.3-7.8,30.5,14.9,50.2c8.2,7.1,4.4,5.9,18.1,1.9c2.9-0.9,24.3-14.6,26.8-17.5
	c28.5-32.3-21.9-86.8-36.2-52.8c-32.3-4.5,7-17.9,8.6-28.6c1.8-11.5-16.2-32.6-21.5-43.5c4,1.5,24.7-19.6,24.2-23.6
	c-2.6,0.2,23.7,15.1,21.9,13.5c4.8,4.1,5.5,3.9,10.2,9.5c2.6,3.1,5.8,11.9,7.9,18.7c1.5,4.9-6,8-5.3,12.4c0.4,2.3,6.5,2,7.6,6.2
	c4.5,17.9,7.5,15.4,15.8,24.1c3.2,3.4,19.7,14.2,20.3,15.4c4.1,8.9-0.2,26.3,5.2,22.8c3,18.9-57.3,40-45.6,51.5
	c-8.5,7.7-2.1,11,3.1,12.1c-1.5,0.8-2.8,2.8-3.8,4.2c-5.3-14.2-27.8,3-30.5,10.1c3.1-1.8-12.7,4-13.3,4.3c2.1-16.4-4.4-25.4-21-25.3
	c-7,0-7,8-18.5,9.9c-2.1,0-2.4-15-10.6-3.2c-1.7,2.4,6.8,6.3,5.6,9.3c-1.5,3.6-6.5,13.6-7.7,17.8c-1.4,5.5-12.6,39.8,0.1,39.8
	c-10.7,8.8-11.6,18.7,0.7,19.4c1.6,4.2-3.6,13.1,1.4,19.1c5.2,6.3,16.5,3.1,8.4-7.5c6,0,11.9,0.9,11.7-8.4c0.6,0,1.2,0,1.7-0.2
	c-16.7,19.5,20.2,37.2,23.5,45.7c1.8,4.7-7.9,9-7,13.4c-0.2-1.2,7,10,7.1,14.5c0.4,17.5-5.5,22.9-6.7,37.4
	c-2.2,27.1,27.9,28,35.1,57.7c5,20.9-2.1,51.5-24.9,57.5c-0.3,0.1-32.8-15.8-27.2,0.5c-0.7-2.2,21.3,20.2,15.2,20.2
	c1.6,0,3-3.8,2.7-5.1c-0.5-0.1,6,4.7,5.5,3.8c1.1,2.3-8.8,2-8.8,5.9c0,3.7,9.9,5.8,11.6,4.9c0.1,2.9-7.2,14.2,0.6,18.6
	c6.6,3.7,28-0.6,35.1-0.2c19.8,1.3,20.3,4.2,33.5,12c6.9,4,0.6,4.8,11.9,8c8.7,2.4,6.6,4.5,13,1.8c33-14.4-0.7-41.1-9.9-60.3
	c-6.6-13.9-12.2-53.7,9.3-65.5c-8.3,13.4,10.1,27.5,22.4,19.9c0.8,2.3-5.9,7.2-3.6,10.2c1.7,2.2,14.2,20,16.2,23.9
	c9.2,17.9,7.2,32.5,3.4,50.8c-4,19.6-11.4,23.4-20.2,38.7c-1.2,2.1-12.2,27.9-6,31c2.3,1.2,52-28.2,60.7-33
	c11.2-6.1,14.7-14.7,22.6-21.5c3.1-2.7,31.5-17.5,31.5-26.9c0-6.7-10.6-1-12.7-1c19.4-15.9-9.3-17.8-13.5-29.2
	c5.9-15.8,19.5-23.1,31.6-21c6.7,4.5,25,29.5,33.5,21.9c0.5,2.6,9.9,15.2,14.2,8.5c-1.4,2.2,2.8-18.8,2.5-17.7
	c3-11,1.9-14.4,4.7-24.8c3.5-12.6,9.7-18.1,14.5-29c4-9.1,6-23.6,6.1-34.5c0.1-5,4.7-9.7,4.7-13.7c0-4.7-8.5-7.1-8.8-12.7
	c-1.6-38.2,18.8-89.7,31.8-125.4c4-11,8.3-22.6,13.7-32.8c2.7-5,10.9-8,12.3-11.9c2.3-6.2-11.1-5.2-7.1-13.5c20,20.2,9-25,5.4-16
	c2.7-6.8,21.5-38.7,25.7-40.2c-3.4,11,14.3,6.2,10.6-0.2c-0.3-0.5-6.7-2.6-7-2.5c1.2-1.7,0.9-1.5,2.5-2.6c2.6,9.2,17.2-16.5,16-22.5
	c0.6,0.1,1.2,0.1,1.7-0.2c2.2,8.1,12.3-1.2,6.5-3.7c10,0.5,31.2-19.8,14-20C755.8,309.1,777,295.3,776.2,291.3L776.2,291.3z"/>
<line class="st1" x1="239.2" y1="345.1" x2="289.5" y2="323.3"/>
<polyline class="st1" points="238.5,352.2 238.8,336.7 265.7,325.9 271.9,330.7 "/>
<polyline class="st1" points="289.5,323.3 321.2,302.1 326.5,288.9 318.6,278.4 302.7,249.3 315.9,220.2 "/>
<polyline class="st1" points="289.5,323.3 271,307.4 268.3,281 252.5,262.5 231.3,257.2 226.1,241.4 215.5,233.4 "/>
<polyline class="st1" points="226.1,241.4 244.6,231 283.8,228.3 "/>
<polyline class="st2" points="374,117.2 392.7,135.7 405.7,167.4 400.4,178 388.8,180.2 "/>
<polyline class="st3" points="238.8,354.7 271,341.8 289.5,323.3 270.3,299.5 273.6,257.1 283.8,228.3 "/>
<polyline class="st2" points="283.8,228.3 315.9,220.2 347.6,207 387.2,180.6 "/>
<polyline class="st4" points="387.2,180.6 387.2,180.6 443.3,388 "/>
<line class="st5" x1="374" y1="117.2" x2="454" y2="31.3"/>
<line class="st6" x1="374" y1="117.2" x2="387.2" y2="180.6"/>
<path class="st7" d="M242.9,354.1c0,2.5-2,4.5-4.5,4.5s-4.5-2-4.5-4.5s2-4.5,4.5-4.5S242.9,351.7,242.9,354.1"/>
<path class="st8" d="M274.8,299.5c0,2.5-2,4.5-4.5,4.5s-4.5-2-4.5-4.5s2-4.5,4.5-4.5S274.8,297,274.8,299.5z"/>
<path class="st8" d="M278,257c0,2.5-2,4.5-4.5,4.5s-4.5-2-4.5-4.5c0-2.5,2-4.5,4.5-4.5S278,254.6,278,257z"/>
<path class="st9" d="M320.7,220.2c0,2.7-2.2,4.9-4.9,4.9s-4.9-2.2-4.9-4.9s2.2-4.9,4.9-4.9S320.7,217.6,320.7,220.2z"/>
<path class="st9" d="M352.4,207c0,2.7-2.2,4.8-4.9,4.8s-4.9-2.2-4.9-4.8s2.2-4.9,4.9-4.9S352.4,204.4,352.4,207z"/>
<path class="st10" d="M378.5,117.2c0,2.5-2,4.5-4.5,4.5s-4.5-2-4.5-4.5s2-4.5,4.5-4.5S378.5,114.8,378.5,117.2"/>
<path class="st9" d="M403.2,178c0,1.5-1.2,2.7-2.7,2.7s-2.7-1.2-2.7-2.7s1.2-2.7,2.7-2.7S403.2,176.5,403.2,178z"/>
<path class="st11" d="M273.4,306.1c1.2,2.5-1.2,4.9-3.7,3.7c-0.5-0.2-0.9-0.6-1.1-1.1c-1.1-2.5,1.2-4.9,3.7-3.7
	C272.8,305.2,273.2,305.6,273.4,306.1"/>
<path class="st11" d="M254,330c1.2,2.5-1.2,4.9-3.7,3.7c-0.5-0.2-0.9-0.6-1.1-1.1c-1.2-2.5,1.2-4.9,3.7-3.7
	C253.4,329.1,253.8,329.5,254,330"/>
<path class="st11" d="M234.1,257.2c0,1.5-1.2,2.7-2.7,2.7s-2.7-1.2-2.7-2.7c0-1.5,1.2-2.7,2.7-2.7S234.1,255.7,234.1,257.2"/>
<path class="st11" d="M228.8,241.4c0,1.5-1.2,2.7-2.7,2.7s-2.7-1.2-2.7-2.7s1.2-2.7,2.7-2.7S228.8,239.9,228.8,241.4"/>
<path class="st8" d="M290.6,228.3c0,3.8-3.1,6.8-6.8,6.8s-6.8-3.1-6.8-6.8s3.1-6.8,6.8-6.8S290.6,224.5,290.6,228.3"/>
<path class="st10" d="M391.7,180.6c0,2.5-2,4.5-4.5,4.5s-4.5-2-4.5-4.5s2-4.5,4.5-4.5S391.7,178.2,391.7,180.6"/>
<polyline class="st12" points="289.5,323.3 298,329.3 311.4,329.9 317.2,334.2 328,325.4 333.4,316.3 349,316.3 359.5,327.2 
	365.4,341.3 "/>
<path class="st13" d="M368.2,341.6c0,1.5-1.2,2.7-2.7,2.7s-2.7-1.2-2.7-2.7s1.2-2.7,2.7-2.7S368.2,340,368.2,341.6"/>
<path class="st8" d="M296,322.7c0,4.2-3.4,7.6-7.6,7.6s-7.6-3.4-7.6-7.6s3.4-7.6,7.6-7.6S296,318.5,296,322.7z"/>
<polyline class="st14" points="215.5,233.5 211.5,218.9 203.6,216.3 197.1,223 191.1,214.9 195.8,206.7 203.6,206.7 203.6,200.4 
	195.7,200.4 175.7,174.7 189.2,173.1 199.5,168.5 200.2,175.6 204.9,181 212.8,177.5 222.1,177.5 237.9,197.8 237.9,219.6 
	244.6,231 "/>
<path class="st11" d="M218.2,233.4c0,1.5-1.2,2.7-2.7,2.7s-2.7-1.2-2.7-2.7s1.2-2.7,2.7-2.7S218.2,231.9,218.2,233.4"/>
<path class="st15" d="M194,214.9c0,1.5-1.2,2.7-2.7,2.7s-2.7-1.2-2.7-2.7s1.2-2.7,2.7-2.7S194,213.4,194,214.9"/>
<path class="st15" d="M178.9,175c0,1.5-1.2,2.7-2.7,2.7s-2.7-1.2-2.7-2.7s1.2-2.7,2.7-2.7S178.9,173.5,178.9,175"/>
<path class="st15" d="M207.6,180.6c0,1.5-1.2,2.7-2.7,2.7s-2.7-1.2-2.7-2.7s1.2-2.7,2.7-2.7S207.6,179.1,207.6,180.6"/>
<path class="st11" d="M247.3,230.7c0,1.5-1.2,2.7-2.7,2.7s-2.7-1.2-2.7-2.7s1.2-2.7,2.7-2.7S247.3,229.2,247.3,230.7"/>
<path class="st11" d="M252.1,261.6c0,1.5-1.2,2.7-2.7,2.7s-2.7-1.2-2.7-2.7s1.2-2.7,2.7-2.7S252.1,260.1,252.1,261.6"/>
<path class="st11" d="M264.6,273.2c0,1.5-1.2,2.7-2.7,2.7s-2.7-1.2-2.7-2.7s1.2-2.7,2.7-2.7S264.6,271.7,264.6,273.2"/>
<path class="st11" d="M305.6,249.6c0,1.5-1.2,2.7-2.7,2.7s-2.7-1.2-2.7-2.7s1.2-2.7,2.7-2.7S305.6,248.1,305.6,249.6"/>
<path class="st16" d="M298.2,322.7c0,5.4-4.4,9.8-9.8,9.8s-9.8-4.4-9.8-9.8s4.4-9.8,9.8-9.8S298.2,317.3,298.2,322.7z"/>
<g>
	<g>
		<path class="st8" d="M298.5,334v1.2h-4.3V334H298.5z M298.8,339.2v-4.5h2.6v-0.6h-2.7v-1.2h2.7v-1.1l1.5,0.1c0.1,0,0.3,0,0.3,0.2
			c0,0.2-0.2,0.2-0.4,0.2v0.6h3v1.2h-3v0.6h2.6v4.5h-2c0.9,1.3,1.8,2,2.6,2.7c-0.5,0.3-0.9,0.6-1.1,1.1c-0.9-0.8-1.5-1.5-2.1-2.6
			v3.1h-1.4v-3.1c-1.1,1.6-1.9,2.2-2.2,2.5c-0.3-0.4-0.6-0.8-0.9-1v1.5H297v-0.6h-1.4v0.8h-1.4v-4.4h4.1v2.5c1-0.7,1.8-1.5,2.5-2.5
			L298.8,339.2L298.8,339.2z M298.1,332.3v1.2h-3.5v-1.2H298.1z M298.1,335.8v1.1h-3.5v-1.1H298.1z M298.1,337.5v1.2h-3.5v-1.2
			H298.1z M297,341.6v-1.1h-1.4v1.1H297z M300.7,336c0.3,0.4,0.3,0.5,0.7,1.1v-1.3h-1.4v0.7L300.7,336L300.7,336z M300.1,338.1h1.4
			v-0.7c-0.3,0.2-0.5,0.4-0.7,0.5c-0.3-0.5-0.5-0.9-0.7-1.2V338.1L300.1,338.1z M304.1,336.4v-0.6h-1.4v1.5c0.2-0.2,0.4-0.8,0.6-1.2
			L304.1,336.4L304.1,336.4z M304.1,336.7L304.1,336.7c-0.4,0.7-0.6,0.9-0.7,1.1c-0.2-0.1-0.4-0.2-0.7-0.3v0.6h1.4V336.7
			L304.1,336.7z"/>
		<path class="st8" d="M313.6,339.1h5v1.5h-5v3h-1.7v-3h-5v-1.5h5V338h-3.8v-5.8h9.3v5.8h-3.8L313.6,339.1L313.6,339.1z
			 M315.7,334.4v-0.9h-6v0.9H315.7z M315.7,336.6v-1h-6v1H315.7z"/>
	</g>
	<g>
		<path class="st17" d="M254.1,215.7v-4.1l1.4,0.1c0.1,0,0.2,0.1,0.2,0.1c0,0.1-0.1,0.2-0.3,0.2v0.8h1.6v1.2h-1.6v1.4
			c0.4-0.1,0.6-0.1,2-0.4c0,0.4-0.1,0.8-0.1,1.1c-2,0.4-3.6,0.8-5.2,1c0,0.1-0.1,0.3-0.2,0.3c-0.1,0-0.1-0.1-0.2-0.2l-0.2-1.3
			c0.4,0,0.6-0.1,0.8-0.1v-3.7l1.2,0.1c0.1,0,0.2,0.1,0.2,0.1c0,0.1-0.1,0.1-0.2,0.2v3.1C253.8,215.8,254,215.8,254.1,215.7
			L254.1,215.7z M258.4,207.9c0.1,0,0.2,0.1,0.2,0.1c0,0.1-0.2,0.2-0.2,0.2c0,0.4,0,0.6,0,0.8c0,0.4,0,0.8,0,1.2h3v1.1h-3
			c0.2,1.6,0.3,2.4,0.8,3.3c0.2,0.4,0.6,1.2,0.9,1.2s0.4-0.8,0.5-1.4c0.5,0.4,0.7,0.5,1.1,0.7c-0.1,0.6-0.4,2.4-1.3,2.4
			c-1.1,0-2.2-2-2.6-3.3c-0.3-0.9-0.5-2-0.5-2.9h-5.5v-1.1h5.4c0-0.2-0.1-1.4-0.1-2.5L258.4,207.9L258.4,207.9z M256.5,208.5v1.1
			h-4.2v-1.1H256.5z M259.7,207.9c0.5,0.4,1.1,1.2,1.3,1.6c-0.4,0.2-0.6,0.4-1,0.8c-0.3-0.6-0.9-1.3-1.1-1.6L259.7,207.9
			L259.7,207.9z"/>
		<path class="st17" d="M269.1,209.7c0.3-0.6,0.6-1.2,0.7-1.9l1.2,0.3c0,0,0.1,0.1,0.1,0.1s0,0.1-0.3,0.2c-0.2,0.6-0.3,0.8-0.6,1.3
			h1.6v1.1h-1.4v1.1h1.1v1h-1.1v1.1h1.1v1h-1.1v1.1h1.6v1.1h-3.7v0.5h-1.2v-0.9c-0.3,0.1-0.7,0.2-1,0.3c0-0.3,0-0.4,0-0.7
			c-1.1,0.4-1.2,0.4-1.8,0.6c0,0.1,0,0.2-0.2,0.2c-0.1,0-0.1-0.1-0.2-0.2l-0.3-0.8c-0.2,0.6-0.4,0.9-0.6,1.2
			c-0.1-0.1-0.6-0.4-1.1-0.6c1.2-2,1.6-4.5,1.6-5.8h-1.3v-1.1h1.4c0-0.3,0-1.8,0-1.9l1.3,0.1c0.1,0,0.2,0,0.2,0.1
			c0,0.1-0.2,0.2-0.3,0.2c0,0.3,0,0.7,0,1.4h1.6v0.7c0.1-0.2,0.9-1.4,1.1-2.7l1.2,0.3c0,0,0.1,0.1,0.1,0.1c0,0.1,0,0.1-0.3,0.2
			c-0.2,0.5-0.3,0.9-0.5,1.3L269.1,209.7L269.1,209.7z M266.2,212.2c0.1,0,0.1,0.1,0.1,0.2c0,0.1-0.1,0.1-0.3,0.2
			c-0.4,1.4-0.4,1.6-0.8,3c0.4-0.1,0.6-0.1,0.7-0.2c-0.1-0.5-0.2-0.9-0.3-1.1l0.9-0.3c0.3,0.7,0.5,1.4,0.6,2.2v-4.5
			c-0.2,0.3-0.3,0.4-0.4,0.6c-0.3-0.3-0.8-0.5-1-0.6c0.1-0.2,0.3-0.4,0.6-0.7h-1.5c-0.2,2.7-1,4.6-1.1,4.9c0.2,0,0.3,0,0.4-0.1
			c0.4-1,0.8-2.8,1-3.8L266.2,212.2L266.2,212.2z M268.3,210.8v1.1h1v-1.1H268.3z M268.3,212.9v1.1h1v-1.1H268.3z M268.3,215v1.1h1
			V215H268.3z"/>
		<path class="st17" d="M272.6,217c0.5-0.8,1.5-2.5,1.9-3.6c0.4,0.5,0.9,0.8,1,0.9c-0.4,0.8-0.5,1-1.5,3c0,0.1,0,0.2,0,0.2
			s0,0.1-0.1,0.1c-0.1,0-0.1,0-0.2-0.1L272.6,217L272.6,217z M273.4,210.4c1.1,0.5,1.5,0.9,1.8,1.1c-0.3,0.4-0.5,0.7-0.7,1.1
			c-0.4-0.3-1.1-0.8-1.7-1.1L273.4,210.4L273.4,210.4z M274.2,207.9c0.8,0.5,1.2,0.8,1.7,1.1c-0.3,0.4-0.6,0.8-0.7,1.1
			c-0.7-0.5-1.1-0.8-1.7-1.2L274.2,207.9L274.2,207.9z M276,216.3v-3.5h6.3v3.5h0.5v1.1h-7.5v-1.1H276z M282,208.1v4.1h-5.6v-4.1
			H282z M277.8,216.3v-2.5h-0.6v2.5H277.8z M280.7,209.8v-0.6h-3.1v0.6H280.7z M277.6,210.7v0.7h3.1v-0.7H277.6z M279.5,216.3v-2.5
			h-0.6v2.5H279.5z M281.2,216.3v-2.5h-0.7v2.5H281.2z"/>
		<path class="st17" d="M287.3,213.1l0.4,0.4c-0.1,0.4-0.9,2.7-3,4.1c-0.3-0.4-0.6-0.6-1.1-0.8c0.7-0.4,1.8-1.1,2.5-2.5H284v-1.1
			L287.3,213.1L287.3,213.1z M292.8,213.1c0,0,0.1,0.1,0.1,0.1c0,0.1-0.2,0.1-0.4,0.1c-0.9,0.8-1.1,0.9-1.7,1.4
			c0.8,0.7,1.7,1.2,2.6,1.6c-0.3,0.2-0.4,0.4-0.9,1c-0.6-0.3-1.3-0.7-2-1.3c-0.6-0.5-0.8-0.8-1.2-1.3v1.6c0,1.1-0.3,1.4-2,1.4
			c0-0.3-0.1-0.7-0.5-1.4c0.3,0.1,0.5,0.1,0.7,0.1c0.4,0,0.5-0.1,0.5-0.4v-3.4h-3.1v-3.9h2.1c0.2-0.4,0.3-0.5,0.5-0.9l1.5,0.2
			c0.1,0,0.2,0,0.2,0.1c0,0.1-0.1,0.2-0.4,0.2c-0.1,0.1-0.1,0.1-0.2,0.4h3.7v3.9H292L292.8,213.1L292.8,213.1z M286.2,210.1h4.8
			v-0.5h-4.8V210.1z M291,210.9h-4.8v0.6h4.8V210.9z M289.3,212.5v0.2c0.3,0.6,0.5,0.9,0.6,1.1c0.2-0.1,1-0.7,1.5-1.3H289.3z"/>
	</g>
	<g>
		<path class="st17" d="M349.6,120.9v1.2h-1v5.9h-1.3v-5.9h-1v-1.2h1v-2.6l1.3,0.1c0.1,0,0.2,0,0.2,0.1c0,0.1,0,0.1-0.3,0.2v2.2
			H349.6z M354.8,124.6h1.4v1h-1.4v1.5c0,1-1,1-2.1,1c0-0.5-0.3-1-0.5-1.3c0.5,0.1,0.8,0.1,0.9,0.1c0.3,0,0.4-0.1,0.4-0.4v-0.9h-2.2
			c0.3,0.3,0.6,0.5,0.9,1c-0.4,0.3-0.6,0.5-1,0.9c-0.4-0.6-0.7-0.9-1.3-1.4l0.7-0.6h-1.5v-1h4.3v-0.4h-3.6v-3.4h2.2v-0.4h-2.8v-0.9
			h2.8v-1.1l1.2,0.1c0.1,0,0.2,0,0.2,0.1c0,0.1,0,0.1-0.2,0.2v0.7h1.1c-0.2-0.1-0.4-0.3-0.7-0.5l0.7-0.7c0.5,0.3,1,0.7,1.3,0.9
			c-0.2,0.2-0.3,0.2-0.4,0.3h0.8v0.9h-2.8v0.4h2.2v3.4H355c0,0,0,0,0,0.1c0,0.1-0.2,0.1-0.3,0.2L354.8,124.6L354.8,124.6z
			 M352.1,122v-0.5h-1v0.5H352.1z M351.1,122.7v0.5h1v-0.5H351.1z M354.4,122v-0.5h-1v0.5H354.4z M353.3,122.7v0.5h1v-0.5H353.3z"/>
		<path class="st17" d="M364.3,122.1c0.1,0,0.2,0.1,0.2,0.2c0,0.1-0.1,0.2-0.3,0.2c-0.2,0.2-0.3,0.4-0.5,0.6h2.8l0.5,0.5
			c-1.2,1.8-2.8,2.8-3.9,3.4c-1.8,0.9-3.6,1.2-5,1.4c-0.1-0.5-0.3-0.7-0.6-1.1c1.1,0,2.9-0.2,4.6-1c-0.2-0.3-0.6-0.6-1-0.9
			c-0.7,0.4-1.3,0.7-1.9,0.9c-0.2-0.3-0.6-0.7-0.9-0.9c0.8-0.3,2.9-1,4.5-3c-2,1.4-3.7,1.8-4.5,2c-0.1-0.4-0.2-0.6-0.7-1.1
			c1.2-0.2,2.3-0.5,3.5-1.2c-0.4-0.4-0.6-0.6-1-1c-0.4,0.3-0.8,0.6-1.5,0.9c-0.1-0.2-0.4-0.5-1-0.9c2.2-0.8,3.1-2.1,3.6-2.8l1.4,0.2
			c0.1,0,0.2,0.1,0.2,0.1c0,0.1-0.1,0.2-0.3,0.2c0,0.1-0.1,0.2-0.2,0.2h3.4l0.4,0.5c-0.8,0.9-1.7,1.7-2.7,2.4L364.3,122.1
			L364.3,122.1z M361.2,119.9c-0.2,0.1-0.2,0.2-0.3,0.2c0.4,0.3,0.9,0.7,1.2,1.1c0.3-0.2,1.2-0.8,1.6-1.3H361.2z M362.4,124.1
			c-0.1,0.1-0.2,0.2-0.4,0.3c0.3,0.3,0.8,0.7,1.1,1c0.1-0.1,1.2-0.8,1.6-1.3L362.4,124.1L362.4,124.1z"/>
	</g>
	<g>
		<path class="st17" d="M350.4,176.6h1.6v1.1h-1.4c0.1,0.2,0.8,1,1.4,1.3c-0.5,0.3-0.6,0.4-0.9,0.8c-0.3-0.3-0.5-0.5-0.7-0.9v2.4
			h-1.2V179c-0.3,0.6-0.6,1.1-1.2,1.7c-0.3-0.3-0.5-0.4-1.1-0.6c0.9-0.8,1.5-1.6,1.9-2.3h-1.5v-1.1h1.9v-0.8h-2v-1.1h1.2
			c-0.2-0.6-0.3-0.8-0.3-1l0.6-0.2h-1.1v-1h1.7v-1.1l1.3,0.1c0.2,0,0.2,0.1,0.2,0.1c0,0.1-0.1,0.1-0.2,0.2v0.6h1.5v1h-0.6
			c0.3,0.1,0.4,0.1,0.4,0.2c0,0.1-0.1,0.1-0.3,0.2c-0.1,0.3-0.3,0.6-0.4,0.8h1.2v1.1h-1.5c0,0.1-0.2,0.2-0.3,0.2L350.4,176.6
			L350.4,176.6z M349.2,173.6c0.2,0.6,0.3,0.8,0.3,1l-0.6,0.2h1c0.3-0.5,0.5-1.1,0.5-1.2H349.2z M352.6,172.3l0.7,0.1
			c0.7,0,2.1-0.4,3-0.7l0.7,0.9c0,0,0,0.1,0,0.1c0,0.1-0.1,0.1-0.2,0.1c-0.1,0-0.1,0-0.3-0.1c-0.9,0.3-1.7,0.5-2.8,0.5v1.4h3v1.2h-1
			v5.3h-1.3V176h-0.8c0,0.8,0,3.4-1.6,5.4c-0.3-0.2-0.6-0.4-1.2-0.5c1.4-1.5,1.5-3.3,1.5-4.9V172.3L352.6,172.3z"/>
		<path class="st17" d="M359.9,178.8c0.2,0.1,0.2,0.2,0.2,0.2c0,0.1-0.2,0.1-0.3,0.1c-0.5,1.3-0.9,1.8-1.2,2.2
			c-0.4-0.3-0.9-0.5-1.1-0.6c0.6-0.7,1.1-1.6,1.3-2.4L359.9,178.8L359.9,178.8z M366.1,172.4v3.4h-5.6v0.4h7.1v0.8h-7.1v0.4h6.9
			c0,0.9-0.3,3.1-0.9,3.7c-0.4,0.3-1,0.4-1.8,0.4c-0.1-0.5-0.3-0.9-0.6-1.4c0.3,0.1,0.7,0.1,1,0.1c0.5,0,0.7,0,0.9-1.9h-6.9v-6h2.1
			c0.1-0.3,0.3-0.6,0.3-1l1.5,0.2c0,0,0.1,0,0.1,0.1c0,0.1-0.2,0.2-0.3,0.2c-0.1,0.3-0.2,0.4-0.2,0.5H366.1L366.1,172.4z
			 M361.2,178.7c0.4,1,0.5,1.6,0.5,2.1c-0.4,0-0.7,0.1-1.2,0.3c0-0.7-0.1-1.3-0.4-2.1L361.2,178.7L361.2,178.7z M360.5,173.7h4.4
			v-0.4h-4.4V173.7z M364.8,174.4h-4.4v0.4h4.4V174.4z M362.9,178.6c0.4,0.6,0.6,1.1,0.8,1.7c-0.3,0.1-0.7,0.2-1,0.4
			c-0.2-0.6-0.4-1.1-0.7-1.7L362.9,178.6L362.9,178.6z M364.7,178.4c0.1,0.1,0.5,0.9,0.7,1.4c-0.4,0.1-0.8,0.4-0.9,0.4
			c-0.2-0.7-0.5-1.1-0.7-1.4L364.7,178.4L364.7,178.4z"/>
		<path class="st17" d="M372.2,174.2h1.7v-1.1h-1.8v-1h6.1v1h-2v1.1h1.9v7.2h-1.2v-0.8h-3.4v0.8h-1.2v-3.9c-0.3,0.2-0.4,0.3-0.8,0.7
			c-0.1-0.2-0.3-0.6-0.5-1.1v4.3h-1.2V178c-0.3,0.8-0.4,1-0.5,1.3c-0.2-0.2-0.8-0.6-1.1-0.8c0.3-0.5,1.1-1.9,1.5-3.8h-1.2v-1h1.2v-2
			l1.2,0.1c0.1,0,0.2,0,0.2,0.2c0,0.1-0.1,0.1-0.3,0.2v1.6h1v1h-1v0.3c0.4,0.7,0.8,1.5,1.3,2.2V174.2L372.2,174.2z M376.9,179.6
			v-1.2h-0.7c-0.4,0-1,0-1-0.8v-2.3h-0.4c0,2.2-0.7,3-1,3.4c-0.1-0.2-0.2-0.2-0.4-0.3v1.2L376.9,179.6L376.9,179.6z M373.5,175.3
			v2.3c0.4-0.6,0.5-1.1,0.5-2.3H373.5z M375.3,173.1h-0.5v1.1h0.5V173.1z M376.9,175.3h-0.6v1.8c0,0.3,0,0.3,0.3,0.3h0.4V175.3
			L376.9,175.3z"/>
	</g>
	<g>
		<path class="st17" d="M395.4,188.7c0.1,0,0.1,0.1,0.1,0.1c0,0.1-0.1,0.1-0.2,0.1c-0.3,0.8-0.6,1.1-0.7,1.3
			c-0.2-0.2-0.5-0.3-0.6-0.4c0.4-0.4,0.6-1,0.8-1.4L395.4,188.7L395.4,188.7z M399.1,184.9v2h-3.4v0.2h4.2v0.5h-4.2v0.2h4.1
			c0,0.5-0.1,1.9-0.5,2.2c-0.2,0.2-0.6,0.2-1.1,0.2c-0.1-0.3-0.2-0.5-0.4-0.8c0.2,0,0.4,0.1,0.6,0.1c0.3,0,0.4,0,0.5-1.1h-4.1v-3.6
			h1.2c0.1-0.2,0.1-0.4,0.2-0.6l0.9,0.1c0,0,0.1,0,0.1,0.1c0,0.1-0.1,0.1-0.2,0.1c-0.1,0.2-0.1,0.2-0.1,0.3L399.1,184.9L399.1,184.9
			z M396.2,188.7c0.2,0.6,0.3,1,0.3,1.3c-0.2,0-0.4,0.1-0.7,0.1c0-0.4-0.1-0.8-0.2-1.3L396.2,188.7z M395.7,185.7h2.6v-0.2h-2.6
			V185.7z M398.3,186.1h-2.6v0.3h2.6V186.1z M397.2,188.6c0.2,0.4,0.4,0.7,0.5,1c-0.2,0-0.4,0.1-0.6,0.2c-0.1-0.4-0.2-0.7-0.4-1
			L397.2,188.6z M398.2,188.5c0,0.1,0.3,0.6,0.4,0.8c-0.2,0.1-0.5,0.2-0.6,0.2c-0.1-0.4-0.3-0.7-0.4-0.9L398.2,188.5L398.2,188.5z"
			/>
		<path class="st17" d="M402.8,186h1v-0.6h-1.1v-0.6h3.6v0.6h-1.2v0.6h1.1v4.3h-0.7v-0.5h-2.1v0.5h-0.7V188
			c-0.2,0.1-0.3,0.2-0.5,0.4c-0.1-0.1-0.1-0.4-0.3-0.7v2.6h-0.7v-2.1c-0.2,0.5-0.2,0.6-0.3,0.8c-0.1-0.1-0.5-0.4-0.6-0.5
			c0.2-0.3,0.7-1.1,0.9-2.3h-0.7v-0.6h0.7v-1.2l0.7,0c0,0,0.1,0,0.1,0.1c0,0.1,0,0.1-0.2,0.1v0.9h0.6v0.6H402v0.2
			c0.2,0.4,0.5,0.9,0.8,1.3L402.8,186L402.8,186z M405.6,189.2v-0.7h-0.4c-0.3,0-0.6,0-0.6-0.5v-1.4h-0.2c0,1.3-0.4,1.8-0.6,2
			c-0.1-0.1-0.1-0.1-0.2-0.2v0.8L405.6,189.2L405.6,189.2z M403.5,186.6v1.4c0.2-0.4,0.3-0.6,0.3-1.4H403.5z M404.6,185.3h-0.3v0.6
			h0.3V185.3z M405.6,186.6h-0.4v1.1c0,0.1,0,0.2,0.1,0.2h0.2L405.6,186.6L405.6,186.6z"/>
	</g>
	<g>
		<path class="st17" d="M309.3,250.3c0,0.5-0.1,1.4-0.5,2.1c-0.2-0.1-0.5-0.2-0.7-0.3c0.3-0.5,0.5-1.2,0.5-2.5v-2.9h1.9v5
			c0,0.3,0,0.8-1,0.7c-0.1-0.4-0.1-0.5-0.3-0.8c0.1,0,0.3,0.1,0.4,0.1c0.2,0,0.2-0.1,0.2-0.3v-1.1L309.3,250.3L309.3,250.3z
			 M309.9,248.2v-0.7h-0.5v0.7H309.9z M309.9,249.7v-0.8h-0.5v0.8H309.9z M313.9,246.8v3.4h-0.8v-0.3h-1.7v1.3
			c0,0.3,0.1,0.4,0.3,0.4h1.1c0.3,0,0.4-0.1,0.6-0.8c0.2,0.1,0.4,0.3,0.7,0.4c-0.2,1-0.6,1.1-1.1,1.1h-1.5c-0.8,0-0.9-0.4-0.9-0.8
			v-4.8H313.9z M312,247.5h-0.5v1.7h0.5V247.5z M312.6,249.2h0.5v-1.7h-0.5V249.2z"/>
		<path class="st17" d="M318,247.5c0-0.1,0.4-0.5,0.6-0.9l0.8,0.2c0,0,0.1,0,0.1,0.1c0,0.1-0.1,0.1-0.2,0.1
			c-0.1,0.2-0.2,0.4-0.4,0.6h1.6v0.7h-5.9v-0.7h1.6c0-0.1-0.2-0.4-0.4-0.6l0.7-0.3c0.3,0.3,0.4,0.5,0.5,0.8l-0.3,0.1L318,247.5
			L318,247.5z M315.8,251v1.4h-0.8v-4h2.5v3.3c0,0.5-0.2,0.6-1.1,0.6c0-0.3-0.1-0.5-0.3-0.8c0.1,0,0.3,0,0.4,0c0.1,0,0.2,0,0.2-0.2
			V251L315.8,251L315.8,251z M316.8,249.5v-0.4h-1v0.4H316.8z M316.8,250.5V250h-1v0.4H316.8z M318.8,248.5c0,0,0.1,0,0.1,0.1
			c0,0-0.1,0.1-0.1,0.1v2.6H318v-2.8L318.8,248.5z M320.2,248.4c0,0,0.1,0,0.1,0.1c0,0,0,0.1-0.1,0.1v3.1c0,0.7-0.4,0.8-1.2,0.8
			c0-0.2,0-0.5-0.2-0.8c0.1,0,0.4,0,0.4,0c0.1,0,0.2,0,0.2-0.2v-3.1L320.2,248.4L320.2,248.4z"/>
		<path class="st17" d="M326.6,248.2v1.8h-4.4c0,0.6-0.1,1.7-0.6,2.6c-0.3-0.2-0.3-0.2-0.7-0.3c0.6-1,0.6-2,0.6-2.8v-2.3h2.2v-0.6
			l0.8,0c0.1,0,0.1,0,0.1,0.1c0,0.1,0,0.1-0.2,0.1v0.3h2.4v0.7h-1.6c0,0.1-0.1,0.1-0.2,0.1v0.3L326.6,248.2L326.6,248.2z
			 M324.4,250.4v0.6h-1v0.5c0.6-0.1,0.7-0.1,1-0.2c0,0.1-0.1,0.4-0.1,0.7c-0.3,0.1-1.2,0.3-1.8,0.4c0,0.1-0.1,0.1-0.1,0.1
			s-0.1,0-0.1-0.1l-0.2-0.6c0.1,0,0.5-0.1,0.6-0.1v-1.6l0.7,0c0.1,0,0.2,0,0.2,0.1c0,0.1-0.1,0.1-0.2,0.1v0.1L324.4,250.4
			L324.4,250.4z M323,248.2v-0.4h-0.8v0.4H323z M323,249.4v-0.6h-0.8v0.6H323z M324.5,248.2v-0.4H324c0,0.1-0.1,0.1-0.2,0.1v0.3
			L324.5,248.2L324.5,248.2z M324.5,249.4v-0.6h-0.7v0.6H324.5z M325.3,251.5c0,0.2,0.1,0.3,0.2,0.3h0.4c0.3,0,0.4-0.1,0.4-0.7
			c0.2,0.2,0.4,0.3,0.6,0.3c-0.2,1-0.5,1-0.9,1h-0.7c-0.5,0-0.7-0.3-0.7-0.7v-1.6l0.7,0c0.1,0,0.2,0,0.2,0.1c0,0.1,0,0.1-0.2,0.1
			v0.3c0.3-0.1,0.6-0.3,0.9-0.6l0.5,0.5c0,0,0,0.1,0,0.1c0,0.1-0.1,0.1-0.1,0c-0.4,0.3-0.7,0.5-1.3,0.7L325.3,251.5L325.3,251.5z
			 M325.2,248.8v0.6h0.7v-0.6H325.2z"/>
		<path class="st17" d="M328.4,252.3h-0.8v-1.5l0.8,0c0.1,0,0.1,0,0.1,0.1c0,0.1-0.1,0.1-0.1,0.1v0.4h0.8v-0.7h-1v-3.6h1.1
			c0.1-0.3,0.2-0.4,0.2-0.6l0.9,0.1c0.1,0,0.1,0,0.1,0.1c0,0.1-0.1,0.1-0.2,0.1c0,0.1-0.1,0.2-0.1,0.3h2.2v2.1h-3.4v0.3h4.3v0.5
			h-4.3v0.3h4.2c0,0.6-0.1,1.5-0.4,1.9c-0.3,0.4-0.5,0.4-1.3,0.4c0-0.2-0.1-0.3-0.1-0.5h-3.1L328.4,252.3L328.4,252.3z M329.1,247.9
			h2.6v-0.3h-2.6V247.9z M331.7,248.4h-2.6v0.3h2.6V248.4z M330.8,251.4v-0.6l0.8,0c0.1,0,0.2,0,0.2,0.1c0,0.1-0.1,0.1-0.2,0.1v0.6
			c0.2,0,0.3,0,0.4,0c0.3,0,0.3-0.1,0.4-0.2c0-0.1,0.1-0.5,0.1-0.8h-2.8l0.4,0c0.1,0,0.2,0,0.2,0.1c0,0.1-0.1,0.1-0.2,0.1v0.5
			L330.8,251.4L330.8,251.4z"/>
	</g>
	<g>
		<path class="st17" d="M254.8,308v-0.8h2.5v-1.6l0.8,0c0.1,0,0.1,0,0.1,0.1c0,0.1-0.1,0.1-0.1,0.1v1.4h2.5v0.8h-2.5
			c0.3,0.9,0.9,2.1,2.5,2.9c-0.4,0.3-0.5,0.4-0.6,0.6c-0.7-0.3-1.8-1.2-2.4-2.5c-0.7,1.6-1.8,2.2-2.6,2.5c-0.1-0.1-0.2-0.4-0.6-0.7
			c0.5-0.2,2.2-0.9,2.6-2.9L254.8,308L254.8,308z"/>
		<path class="st17" d="M263,311.5h-0.8v-2.3c-0.2,0.4-0.4,0.9-0.6,1.1c-0.2-0.2-0.3-0.3-0.7-0.5c0.5-0.6,1-1.2,1.3-2.3h-1.1v-0.7
			h1.1v-1.2l0.8,0c0.1,0,0.1,0,0.1,0.1c0,0,0,0.1-0.1,0.1v1h0.9v0.7H263v0.3c0.3,0.5,0.6,0.8,1,1.1c-0.1,0.2-0.3,0.4-0.4,0.7
			c-0.2-0.2-0.5-0.6-0.6-0.7V311.5z M264.6,308c0.2,0.4,0.5,1.1,0.6,1.5c-0.2,0.1-0.4,0.1-0.7,0.3c-0.1-0.6-0.4-1.1-0.5-1.5
			L264.6,308L264.6,308z M267,306.8v0.7h-0.7v3c0,0.6-0.1,1-1.4,0.9c-0.1-0.5-0.1-0.6-0.3-0.9c0.3,0,0.5,0,0.5,0
			c0.3,0,0.3,0,0.3-0.3v-2.8h-1.4v-0.7h1.4v-1.2l0.9,0c0.1,0,0.1,0,0.1,0.1s-0.1,0.1-0.1,0.1v1L267,306.8L267,306.8z"/>
	</g>
	<g>
		<path class="st17" d="M248.1,273.3C248.1,273.3,248.1,273.3,248.1,273.3c0.1,0.2,0,0.2-0.2,0.2c0,0-0.1,0.1-0.3,0.4
			c-0.1,0.1-0.2,0.3-0.3,0.4l0.1,0c0.1,0,0.1,0,0.1,0.1s0,0.1-0.1,0.1v2.9h-0.8v-2.5c-0.1,0.1-0.2,0.2-0.4,0.3
			c-0.2-0.3-0.3-0.5-0.5-0.6c1-0.6,1.5-1.3,1.7-1.7L248.1,273.3L248.1,273.3z M247.7,271.8c0.1,0,0.1,0.1,0.1,0.1
			c0,0.1-0.1,0.1-0.2,0.1c-0.2,0.3-0.7,0.8-1.2,1.1c-0.1-0.1-0.4-0.4-0.6-0.4c0.6-0.4,1-0.9,1.3-1.2L247.7,271.8L247.7,271.8z
			 M249.5,272.3v-0.9l0.8,0c0,0,0.1,0,0.1,0.1c0,0.1,0,0.1-0.1,0.1v0.6h1.4l0.2,0.2c-0.2,0.6-0.3,1-0.5,1.3
			c-0.3-0.2-0.4-0.2-0.7-0.3c0.1-0.3,0.2-0.4,0.2-0.6h-0.7v0.9h0.8l0.4,0.4c-0.1,0.5-0.4,1.1-0.9,1.8c0.5,0.4,1,0.6,1.3,0.7
			c-0.2,0.2-0.4,0.5-0.5,0.6c-0.6-0.2-1.1-0.6-1.3-0.8c-0.3,0.3-0.6,0.6-1.1,0.8c-0.1-0.1-0.3-0.4-0.6-0.5c0.6-0.2,0.9-0.4,1.2-0.8
			c-0.4-0.5-0.6-0.9-0.8-1.4c-0.1,1.3-0.5,2.3-0.8,2.7c-0.2-0.2-0.4-0.3-0.6-0.4c0.3-0.6,0.7-1.3,0.7-3c0-0.3,0-1.5,0-1.7
			L249.5,272.3L249.5,272.3z M248.9,273c0,0,0,0.8,0,0.9h0.7V273H248.9L248.9,273z M249.5,274.5c0.2,0.4,0.3,0.7,0.6,1
			c0.3-0.4,0.4-0.8,0.5-1H249.5z"/>
		<path class="st17" d="M254.9,274.4h1.3v-1.3h-0.4c0,0.1-0.2,0.5-0.4,1c-0.2-0.1-0.5-0.2-0.7-0.3c0.2-0.3,0.6-1.1,0.8-2.4l0.8,0.1
			c0,0,0.1,0,0.1,0.1c0,0.1-0.1,0.1-0.2,0.1c0,0.2-0.1,0.4-0.1,0.6h2v0.7H257v1.3h1.2v0.8H257v2.2h-0.8v-2.2h-1.3V275
			c0,0-0.3,0.2-0.5,0.5c-0.1-0.2-0.2-0.3-0.4-0.8v2.6h-0.7v-2.3c-0.2,0.4-0.3,0.7-0.5,1.1c-0.2-0.2-0.4-0.3-0.7-0.5
			c0.2-0.3,0.8-1,1.1-2.3h-0.9v-0.7h0.9v-1.2l0.8,0.1c0.1,0,0.1,0,0.1,0.1c0,0.1-0.1,0.1-0.2,0.1v1h0.8v0.7h-0.8v0
			c0.2,0.5,0.5,1,0.9,1.4V274.4L254.9,274.4z"/>
	</g>
	<g>
		<path class="st17" d="M249.9,251.3c0.1,0,0.2,0,0.2,0.1c0,0.1-0.1,0.1-0.2,0.1v2c0,1.4-0.1,2.6-0.9,3.5c-0.2-0.2-0.4-0.3-0.7-0.4
			c0.7-0.9,0.8-1.7,0.8-3.2v-2.2L249.9,251.3L249.9,251.3z M251.8,251.6c0.1,0,0.1,0,0.1,0.1c0,0.1-0.1,0.1-0.1,0.1v4.6H251v-4.8
			L251.8,251.6L251.8,251.6z M253.7,251.2c0.1,0,0.1,0,0.1,0.1c0,0,0,0.1-0.1,0.1c0,0-0.1,0-0.1,0.1v5.6h-0.8v-5.8L253.7,251.2
			L253.7,251.2z"/>
		<path class="st17" d="M256.9,251.3h1.6v4.8c0.2-0.7,0.3-1.3,0.3-2.2v-2.6h1.7v5c0,0.4,0,0.8-1,0.7c0-0.3-0.1-0.5-0.2-0.8
			c0.2,0,0.3,0,0.3,0c0.2,0,0.2-0.1,0.2-0.2v-1.2h-0.5c0,0.8-0.2,1.5-0.5,2.2c-0.2-0.2-0.3-0.2-0.4-0.3c-0.2,0.2-0.5,0.3-0.9,0.3
			c0-0.2-0.1-0.4-0.3-0.7c0.6,0,0.8,0,0.8-0.3v-1.1h-0.5c-0.1,1.3-0.6,2.1-0.7,2.1c-0.2-0.2-0.3-0.2-0.5-0.4c0.2-0.4,0.6-0.9,0.7-2
			c-0.2,0.1-0.4,0.5-0.4,0.5c-0.1-0.1-0.1-0.3-0.2-0.6v2.4h-0.7v-2.2c-0.1,0.4-0.2,0.7-0.4,1c-0.1-0.1-0.2-0.2-0.3-0.3
			c-0.1-0.1-0.2-0.1-0.3-0.2c0.2-0.4,0.6-1.2,1-2.4h-0.8v-0.6h0.8v-1.2l0.7,0c0.1,0,0.1,0,0.1,0.1s-0.1,0.1-0.1,0.1v1h0.6v0.6h-0.6
			v0c0.2,0.6,0.4,1.1,0.7,1.5c0-0.2,0-0.4,0-0.6L256.9,251.3L256.9,251.3z M257.5,252.7h0.5v-0.8h-0.5V252.7z M258,254.2v-0.9h-0.5
			v0.9H258z M259.8,252.7v-0.8h-0.5v0.8H259.8z M259.8,254.2v-0.9h-0.5v0.9H259.8z"/>
	</g>
	<g>
		<path class="st17" d="M222.4,263.2c0.1,0,0.1,0,0.1,0.1c0,0,0,0.1-0.1,0.1c-0.4,2-1.1,3.3-1.8,4.1c-0.2-0.2-0.7-0.3-0.8-0.4
			c1.2-1.3,1.5-2.7,1.7-4.1L222.4,263.2L222.4,263.2z M224,262.8c0.8,1,1.5,2.3,1.9,4c-0.3,0.1-0.8,0.4-0.9,0.5
			c-0.4-2-1.2-3.3-1.8-4L224,262.8L224,262.8z"/>
		<path class="st17" d="M231,263.3c0.2,0,0.3,0,0.5-0.1l0.5,0.4c-0.1,0.2-0.2,0.9-0.3,1.1c-0.5,1.8-1.2,2.7-2.7,3.4
			c-0.2-0.3-0.3-0.4-0.7-0.6c1.9-0.7,2.4-2.4,2.6-3.4h-3.3v1.5h-0.9v-2.2h2v-1l0.9,0c0.1,0,0.1,0,0.1,0.1c0,0.1-0.1,0.1-0.1,0.1v0.8
			H231L231,263.3z"/>
		<path class="st17" d="M233.5,263.5v-0.8h3.2c0.1,0,0.3,0,0.4,0l0.4,0.5c-0.1,0.2-0.2,0.3-0.2,0.4c-0.3,0.6-0.4,1-0.8,1.6
			c0.5,0.4,1.5,1.2,2,1.9c-0.2,0.2-0.6,0.6-0.7,0.7c-0.4-0.5-0.9-1.2-1.8-1.9c-0.4,0.6-1.5,1.5-2.6,2c-0.2-0.4-0.3-0.5-0.6-0.8
			c0.4-0.1,1.3-0.5,2.3-1.5c0.7-0.7,0.9-1.3,1.2-2.1L233.5,263.5L233.5,263.5z"/>
		<path class="st17" d="M216.9,272v-0.8h5.4v0.8h-2.1c0,1.1-0.4,1.7-0.7,2.1c-0.2,0.3-0.7,0.7-1.4,0.9c-0.2-0.3-0.5-0.5-0.6-0.7
			c1.7-0.5,1.9-1.5,1.9-2.3H216.9L216.9,272z M221.5,269.5v0.8h-3.7v-0.8H221.5z"/>
		<path class="st17" d="M224.1,269.4c0.9,0.5,1.4,0.8,1.7,1.1c-0.1,0.1-0.2,0.3-0.5,0.7c-0.8-0.7-1.4-1-1.7-1.1L224.1,269.4
			L224.1,269.4z M223.6,273.9c1.5-0.3,3.5-1.4,4.8-3.5c0.2,0.4,0.3,0.5,0.6,0.8c-0.4,0.6-1.6,2.5-4.6,3.5c0,0.1,0,0.1-0.1,0.1
			c0,0-0.1,0-0.1-0.1L223.6,273.9L223.6,273.9z"/>
		<path class="st17" d="M231.6,272.3c0.1,0,0.1,0.1,0.1,0.1c0,0.1-0.1,0.1-0.2,0.1c-0.5,0.8-0.7,1-1.3,1.7c-0.2-0.2-0.5-0.4-0.7-0.5
			c0.7-0.5,1.1-1.2,1.4-1.7L231.6,272.3L231.6,272.3z M232,269.3l0.9,0c0.1,0,0.1,0,0.1,0.1c0,0-0.1,0.1-0.1,0.1v1.2h2.1v0.8h-2.1
			v2.4c0,0.4,0,1-1,1c-0.1,0-0.3,0-0.4,0c0-0.1,0-0.4-0.3-0.9c0.2,0,0.4,0.1,0.6,0.1c0.3,0,0.3-0.1,0.3-0.5v-2.1h-2.2v-0.8h2.2
			L232,269.3L232,269.3z M234,271.9c0.5,0.5,1.1,1.3,1.3,1.6c-0.2,0.2-0.5,0.5-0.7,0.6c-0.3-0.6-0.9-1.3-1.3-1.7L234,271.9
			L234,271.9z M234.4,269.5c0.2,0.1,0.5,0.5,0.6,0.6c-0.1,0.1-0.2,0.2-0.4,0.4c-0.1-0.2-0.4-0.5-0.6-0.7L234.4,269.5L234.4,269.5z
			 M235,269c0.2,0.1,0.5,0.5,0.6,0.6c-0.1,0.1-0.3,0.2-0.4,0.4c-0.1-0.1-0.4-0.4-0.6-0.6L235,269L235,269z"/>
		<path class="st17" d="M236.7,270.5v-0.8h3.2c0.1,0,0.3,0,0.4,0l0.4,0.5c-0.1,0.2-0.2,0.3-0.2,0.4c-0.3,0.6-0.4,1-0.8,1.6
			c0.5,0.4,1.5,1.2,2,1.9c-0.2,0.2-0.6,0.6-0.7,0.7c-0.4-0.5-0.9-1.2-1.8-1.9c-0.4,0.6-1.5,1.5-2.6,2c-0.2-0.4-0.3-0.5-0.6-0.8
			c0.4-0.1,1.3-0.5,2.3-1.5c0.7-0.7,0.9-1.3,1.2-2.1L236.7,270.5L236.7,270.5z"/>
	</g>
	<g>
		<path class="st17" d="M244.8,235.7c0.1,0,0.1,0,0.1,0.1s0,0.1-0.1,0.1c0,0.1,0,0.2-0.1,0.4h2.9v0.7h-3.2c-0.1,0.3-0.2,0.5-0.3,0.6
			h2.7v3.1c0,0.6-0.3,0.9-1.4,0.8c0-0.3-0.1-0.6-0.2-0.8c0.2,0.1,0.4,0.1,0.5,0.1c0.3,0,0.3-0.1,0.3-0.3v-0.4h-2v1.4h-0.8v-2.7
			c-0.4,0.4-0.7,0.6-0.9,0.7c-0.2-0.2-0.3-0.3-0.6-0.5c0.4-0.2,1.4-0.8,1.9-2h-1.8v-0.7h2.1c0.1-0.3,0.1-0.6,0.1-0.8L244.8,235.7
			L244.8,235.7z M245.9,238.7v-0.4h-2v0.4H245.9z M243.9,239.3v0.4h2v-0.4H243.9z"/>
		<path class="st17" d="M249.3,241.1v0.3h-0.8v-5.3h5.2v5.3h-0.9v-0.3H249.3z M250.7,238.3v-1.4h-1.4v1.4H250.7z M250.7,240.4V239
			h-1.4v1.4H250.7z M252.8,238.3v-1.4h-1.4v1.4H252.8z M251.4,239v1.4h1.4V239H251.4z"/>
	</g>
	<g>
		<path class="st17" d="M214,245.5h2.5v0.7H214v1.5h-0.9v-1.5h-2.5v-0.7h2.5v-0.6h-1.9V242h4.6v2.9H214L214,245.5L214,245.5z
			 M215.1,243.1v-0.5h-3v0.5H215.1z M215.1,244.3v-0.5h-3v0.5H215.1z"/>
		<path class="st17" d="M218,245.8v-4l0.6,0c0.1,0,0.1,0,0.1,0.1c0,0.1-0.1,0.1-0.2,0.1v3.8h0.3v-3.1l0.6,0c0.1,0,0.2,0,0.2,0.1
			c0,0.1-0.1,0.1-0.1,0.1v3.9h-0.6v-0.3h-1.1v0.7h-0.6v-4.5l0.6,0c0.1,0,0.1,0,0.1,0.1c0,0.1-0.1,0.1-0.2,0.1v2.8L218,245.8
			L218,245.8z M222.5,244.2l0.3,0.3c-0.2,0.6-0.5,1.2-1.1,1.9c0.5,0.4,0.9,0.5,1.6,0.7c-0.2,0.1-0.3,0.3-0.5,0.7
			c-0.8-0.2-1.3-0.6-1.6-0.9c-0.1,0.1-0.9,0.6-1.7,0.9c-0.1-0.1-0.2-0.5-0.5-0.7c0.8-0.2,1.4-0.5,1.7-0.7c-0.4-0.5-0.5-0.8-0.7-1.1
			l0.6-0.3h-0.8v-0.7h1v-0.9h-1.1v-0.7h1.1v-0.7l0.8,0c0.1,0,0.1,0,0.1,0.1c0,0.1-0.1,0.1-0.1,0.2v0.5h1.4v0.7h-1.4v0.9H222.5
			L222.5,244.2z M220.5,245c0.2,0.4,0.4,0.7,0.6,1c0.1-0.1,0.5-0.5,0.6-1H220.5L220.5,245z"/>
	</g>
	<g>
		<path class="st17" d="M195,232.7v-0.7h1.3c0-0.6,0-0.9,0-1.2l0.8,0c0,0,0.1,0,0.1,0.1c0,0.1,0,0.1-0.1,0.2c0,0.3,0,0.6-0.1,0.9
			h2.1v0.7H197c0,0.2-0.1,0.4-0.2,0.8h2.2v0.8h-1v1.5h1.2v0.7h-3.4v-0.7h1.4v-1.5h-0.7c-0.4,0.9-0.8,1.4-1.2,1.8
			c-0.2-0.2-0.4-0.4-0.6-0.5v1H194v-3.2c-0.1,0.2-0.2,0.3-0.3,0.4c-0.1-0.2-0.4-0.5-0.5-0.6c0.5-0.6,1-1.5,1.3-2.5l0.7,0.3
			c0,0,0.1,0,0.1,0.1c0,0.1-0.1,0.1-0.2,0.1c-0.2,0.5-0.3,0.6-0.5,1c0.2,0.1,0.2,0.1,0.2,0.1c0,0.1-0.1,0.1-0.1,0.1v3.1
			c0.9-0.8,1.3-1.8,1.4-2.8L195,232.7L195,232.7z"/>
		<path class="st17" d="M200.6,230.9l0.8,0c0.1,0,0.1,0,0.1,0.1c0,0.1-0.1,0.1-0.2,0.1v1.1h0.9v-1.6l0.8,0c0.1,0,0.1,0,0.1,0.1
			c0,0,0,0.1-0.1,0.1v1.4h0.9v-1.4l0.8,0c0.1,0,0.1,0,0.1,0.1c0,0,0,0.1-0.2,0.1v1.2h1v0.7h-1v2.1H204v-0.3h-0.9v0.4h-0.8V233h-0.9
			v2.6h3.8v0.7h-3.8v0.3h-0.8V233h-0.9v-0.7h0.9V230.9L200.6,230.9z M204,233h-0.9v1.1h0.9V233z"/>
		<path class="st17" d="M207.6,236.6h-0.8v-3.2c-0.2,0.3-0.3,0.4-0.3,0.4c-0.1-0.2-0.3-0.5-0.5-0.6c0.9-1.1,1.3-2.3,1.4-2.5l0.7,0.3
			c0,0,0.1,0,0.1,0.1s-0.1,0.1-0.2,0.1c-0.2,0.4-0.4,0.9-0.5,1.1c0.1,0,0.2,0.1,0.2,0.1s-0.1,0.1-0.1,0.1L207.6,236.6L207.6,236.6z
			 M210.4,236.6h-0.8v-1.6c-0.5,0.7-1,1.1-1.4,1.4c-0.1-0.2-0.2-0.3-0.6-0.5c0.7-0.4,1.3-1,1.6-1.4h-1.4v-0.7h1.8v-0.5h-1.3v-2.2
			h3.3v2.2h-1.1c0,0.1-0.1,0.1-0.2,0.1v0.4h1.6v0.7h-1.4c0.1,0.1,0.7,0.9,1.6,1.4c-0.2,0.2-0.4,0.3-0.6,0.6
			c-0.3-0.2-0.8-0.6-1.3-1.3L210.4,236.6L210.4,236.6z M209.2,231.6v0.8h1.6v-0.8H209.2z"/>
	</g>
	<g>
		<path class="st17" d="M177.3,213.2v-0.7h1.3c0-0.6,0-0.9,0-1.2l0.8,0c0,0,0.1,0,0.1,0.1c0,0.1,0,0.1-0.1,0.2c0,0.3,0,0.6-0.1,0.9
			h2.1v0.7h-2.2c0,0.2-0.1,0.4-0.2,0.8h2.2v0.8h-1v1.5h1.2v0.7h-3.4v-0.7h1.4v-1.5h-0.7c-0.4,0.9-0.8,1.4-1.2,1.8
			c-0.2-0.2-0.4-0.4-0.6-0.5v1h-0.8v-3.2c-0.1,0.2-0.2,0.3-0.3,0.4c-0.1-0.2-0.4-0.5-0.5-0.6c0.5-0.6,1-1.5,1.3-2.5l0.7,0.3
			c0,0,0.1,0,0.1,0.1c0,0.1-0.1,0.1-0.2,0.1c-0.2,0.5-0.3,0.6-0.5,1c0.2,0.1,0.2,0.1,0.2,0.1c0,0.1-0.1,0.1-0.1,0.1v3.1
			c0.9-0.8,1.3-1.8,1.4-2.8L177.3,213.2L177.3,213.2z"/>
		<path class="st17" d="M187.8,213.3c-0.2,0.1-0.2,0.2-0.2,0.2c-0.5,0.5-1.2,1.4-1.8,2.1c0.1,0.1,0.4,0.4,0.6,0.7l-0.5,0.7
			c-0.7-0.9-1.2-1.3-2-1.9l0.6-0.6c0.3,0.1,0.6,0.4,0.7,0.5c0.3-0.3,0.9-1,1.1-1.3h-1.8c-0.6,0.8-0.9,1.1-1.7,1.8l-0.6-0.6
			c0.8-0.6,1.8-1.4,2.6-3.4c0.2,0.1,0.7,0.3,0.9,0.4c0,0,0.1,0,0.1,0.1c0,0.1-0.1,0.1-0.1,0.1c-0.1,0-0.1,0.1-0.1,0.1
			c-0.1,0.2-0.3,0.5-0.4,0.7h1.4c0.2,0,0.6,0,0.7-0.1L187.8,213.3L187.8,213.3z"/>
	</g>
	<g>
		<path class="st17" d="M200.6,191.1h-0.8v-2.2c-0.2,0.5-0.3,0.8-0.5,1.1c-0.3-0.3-0.4-0.4-0.6-0.5c0.6-0.7,0.9-1.8,1.1-2.4h-0.9
			v-0.7h0.9v-1.2l0.8,0c0.1,0,0.1,0,0.1,0.1c0,0.1-0.1,0.1-0.1,0.1v0.9h0.8v0.6c0.3-0.6,0.4-1.1,0.4-1.5l0.8,0.2
			c0.1,0,0.1,0,0.1,0.1c0,0.1-0.1,0.1-0.2,0.1c-0.1,0.3-0.4,1.4-0.9,2.1c-0.2-0.2-0.4-0.2-0.7-0.4c0.3-0.4,0.4-0.4,0.4-0.6h-0.7v0.1
			c0.2,0.4,0.4,0.9,0.8,1.4c-0.2,0.2-0.4,0.3-0.6,0.5c-0.1-0.2-0.2-0.3-0.3-0.6L200.6,191.1L200.6,191.1z M203.1,187.5
			C203.2,187.5,203.2,187.6,203.1,187.5c0.1,0.2,0,0.2-0.1,0.2c-0.1,0.6-0.4,1.6-0.7,2.2c0.2,0,0.8-0.1,1.2-0.2
			c-0.2-0.6-0.5-0.9-0.6-1.1l0.7-0.3c0.1,0.3,0.7,1.2,1,2.4c-0.2,0.1-0.5,0.2-0.8,0.3c-0.1-0.3-0.1-0.5-0.2-0.7
			c-0.5,0.1-1,0.2-2.5,0.4c0,0-0.1,0-0.1,0c-0.1,0.1-0.1,0.2-0.1,0.2c0,0-0.1,0-0.1-0.1l-0.1-0.8c0.1,0,0.5,0,0.6-0.1
			c0.1-0.3,0.6-1.9,0.8-2.7L203.1,187.5L203.1,187.5z M203.9,185.3c0,0.6,0.1,1.5,1,2.3c-0.2,0.1-0.3,0.2-0.6,0.5
			c-0.4-0.3-0.9-1.1-1.1-2.1h-0.4v-0.7L203.9,185.3L203.9,185.3z"/>
		<path class="st17" d="M205.5,186.7c0.1,0.1,0.7,0.4,1,0.7c-0.1,0.1-0.1,0.2-0.4,0.6c-0.4-0.3-0.6-0.5-1-0.7L205.5,186.7
			L205.5,186.7z M205.1,190.6c0.4-0.5,0.8-1.4,1.1-2.3c0.2,0.2,0.4,0.4,0.6,0.4c-0.2,0.6-0.6,1.5-0.9,2c0,0,0,0.1,0,0.1
			c0,0,0,0.1-0.1,0.1c0,0,0,0-0.1,0L205.1,190.6L205.1,190.6z M206,185.1c0.4,0.2,0.8,0.5,0.9,0.7c-0.2,0.2-0.3,0.3-0.5,0.6
			c-0.4-0.4-0.5-0.4-0.9-0.7L206,185.1L206,185.1z M209.4,189.7v1.2h-0.7v-1.2h-0.8v1.4h-0.8v-4.1h1.6v-0.4h-1.8v-0.6h1.8v-0.8
			l0.8,0c0.1,0,0.1,0,0.1,0.1c0,0.1-0.1,0.1-0.2,0.1v0.5h0.8c-0.2-0.2-0.4-0.4-0.6-0.5l0.5-0.4c0.2,0.1,0.6,0.4,0.8,0.6
			c-0.1,0.1-0.1,0.1-0.3,0.2h0.5v0.6h-1.7v0.4h1.6v3.4c0,0.7-0.4,0.8-1.1,0.7c-0.1-0.3-0.1-0.5-0.3-0.8c0.1,0,0.2,0,0.4,0
			c0.3,0,0.3,0,0.3-0.3v-0.3L209.4,189.7L209.4,189.7z M208.7,188v-0.4h-0.8v0.4H208.7z M208.7,189.1v-0.4h-0.8v0.4H208.7z
			 M210.2,188v-0.4h-0.9v0.4H210.2z M210.2,189.1v-0.4h-0.9v0.4H210.2z"/>
	</g>
	<g>
		<path class="st17" d="M152.3,163.6c0.1,0,0.1,0,0.1,0.1c0,0,0,0.1-0.1,0.1c0,0.1-0.1,0.6-0.2,0.7c0.6-0.1,0.9-0.2,1.2-0.3l0.1,0.9
			c-0.3,0.1-0.7,0.2-1.5,0.3c-0.6,2.1-1.4,3.4-1.7,3.8c-0.3-0.2-0.4-0.2-0.8-0.4c0.4-0.4,1.2-1.6,1.6-3.3c-0.4,0-0.7,0-1.3,0.1
			l-0.1-0.9c0.2,0,0.4,0,0.6,0c0.1,0,0.5,0,0.9,0c0.1-0.6,0.1-0.9,0.2-1.2L152.3,163.6L152.3,163.6z M152.8,167.4
			c-0.1,0.1-0.2,0.3-0.2,0.5c0,0.3,0.8,0.3,1.1,0.3c0.5,0,0.9-0.1,1.4-0.2c0,0.1,0,0.2,0,0.4c0,0.2,0,0.3,0,0.4
			c-0.6,0.1-1,0.1-1.3,0.1c-0.6,0-1.9-0.1-1.9-1c0-0.3,0.1-0.5,0.3-0.9L152.8,167.4L152.8,167.4z M152.6,165.7
			c0.6-0.1,1.3-0.1,1.4-0.1c0.6,0,0.8,0,0.9,0.1c0,0.3-0.1,0.5-0.1,0.9c-0.2,0-0.5-0.1-0.9-0.1c-0.5,0-1.2,0.1-1.4,0.1L152.6,165.7
			L152.6,165.7z"/>
		<path class="st17" d="M158.4,164.3c-0.6,0.5-1.2,1.7-1.2,2.8s0.9,1.1,1.1,1.1c1.2,0,1.4-1.2,1.4-1.7c0-1.3-0.5-2.1-0.7-2.5
			l0.8-0.4c0.6,1,1.2,1.7,2,2.3c-0.2,0.2-0.3,0.4-0.4,0.7c-0.4-0.3-0.6-0.6-0.9-0.9c0,0.1,0.1,0.3,0.1,0.8c0,0.5,0,1-0.3,1.5
			c-0.2,0.4-0.7,1-1.8,1s-2-0.7-2-1.9c0-0.7,0.4-1.7,0.7-2.2c-0.3,0.1-0.8,0.3-1,0.3l-0.3-0.9c0.5-0.1,1.3-0.2,2-0.7L158.4,164.3
			L158.4,164.3z M160.8,163.7c0.1,0.1,0.4,0.5,0.6,0.6c-0.1,0.1-0.2,0.1-0.4,0.4c0,0-0.4-0.5-0.6-0.7L160.8,163.7z M161.3,163.2
			c0.2,0.1,0.4,0.4,0.6,0.6c-0.2,0.1-0.2,0.1-0.4,0.3c-0.2-0.2-0.3-0.4-0.6-0.6L161.3,163.2L161.3,163.2z"/>
		<path class="st17" d="M164.5,164.8c0,0,0.1,0,0.1,0.1c0,0.1-0.1,0.1-0.1,0.1c-0.2,0.3-0.4,0.9-0.4,1.3c0.7-0.6,1.5-0.7,2-0.7
			c1.1,0,1.6,0.8,1.6,1.5c0,1.2-1.2,2-3.3,2c-0.2,0-0.4,0-0.5,0c0-0.3-0.1-0.6-0.2-0.9c0.2,0,0.5,0.1,0.9,0.1c0.4,0,2.2-0.1,2.2-1.2
			c0-0.3-0.2-0.8-0.9-0.8c-1.1,0-1.9,0.9-2.1,1.1l-0.8-0.3c0.2-1.1,0.3-1.7,0.6-2.7L164.5,164.8L164.5,164.8z M164.2,163.4
			c0.5,0.1,1.4,0.3,2.2,0.7c-0.2,0.3-0.3,0.5-0.5,0.8c-0.6-0.4-1.4-0.7-2-0.8L164.2,163.4z"/>
		<path class="st17" d="M172,166.5h2.5v0.8H172v2h-0.9v-2h-2.5v-0.8h2.5v-2.2h-2.2v-0.7h5.3v0.7H172L172,166.5L172,166.5z
			 M170,164.6c0.3,0.4,0.6,1.1,0.7,1.5c-0.1,0-0.6,0.3-0.7,0.3c-0.1-0.3-0.4-1-0.7-1.5L170,164.6L170,164.6z M173.8,164.8
			c0,0,0.1,0,0.1,0.1s-0.1,0.1-0.2,0.1c-0.2,0.6-0.4,1-0.6,1.4c-0.1-0.1-0.6-0.3-0.8-0.3c0.2-0.4,0.6-1.2,0.7-1.6L173.8,164.8
			L173.8,164.8z"/>
		<path class="st17" d="M176.6,167.1c-0.1,1-0.4,1.6-0.8,2.2c-0.2-0.1-0.5-0.3-0.8-0.3c0.8-1,0.8-2.1,0.8-3.1v-1h4.6v2.6h-0.9v-0.3
			H176.6L176.6,167.1z M180.7,163.6v0.7h-5.6v-0.7H180.7z M179.5,166.4v-0.8h-2.9c0,0.3,0,0.6,0,0.8H179.5z"/>
		<path class="st17" d="M182.6,168.5v0.3h-0.8V164h5.1v4.8h-0.8v-0.3H182.6z M186.1,167.8v-3h-3.4v3H186.1z"/>
	</g>
	<g>
		<path class="st17" d="M244.9,325.2c0.2,0,0.5,0,1-0.1v-1.4h-1.1V323h1.2v-2.8h4.1v0.6h-3.3v0.3h2.9v0.6h-2.9v0.4h2.9v0.6h-2.9v0.4
			h3.9v0.6h-1l0.4,0.3c0,0,0.1,0.1,0.1,0.1c0,0.1,0,0.1-0.2,0.1c-0.2,0.2-0.3,0.2-0.8,0.6c0.3,0.2,0.8,0.5,1.4,0.6
			c-0.1,0.1-0.3,0.2-0.6,0.6c-0.5-0.2-1.4-0.7-1.9-1.2c-0.1,0.4-0.1,0.5-0.1,0.6c-0.7,0.2-1.9,0.4-2.7,0.6c0,0.1-0.1,0.1-0.1,0.1
			c-0.1,0-0.1,0-0.1-0.1L244.9,325.2L244.9,325.2z M246.6,324.9c0.7-0.1,1.1-0.2,1.4-0.3c-0.4-0.4-0.6-0.9-0.7-1h-0.7V324.9
			L246.6,324.9z M248.2,323.6c0.1,0.2,0.3,0.4,0.5,0.6c0.2-0.2,0.4-0.4,0.6-0.6H248.2L248.2,323.6z"/>
		<path class="st17" d="M256.1,322.2c0,0.6-0.1,1-0.1,1.3h1.1v0.7h-1.2c-0.3,1.5-0.4,1.7-1.6,1.7c-0.2,0-0.3,0-0.4,0
			c-0.1-0.5-0.2-0.7-0.3-0.9c0.2,0,0.4,0.1,0.8,0.1s0.5,0,0.7-0.9h-4v-0.7h4.1c0-0.4,0-0.5,0.1-0.6h-2.5c-0.1,0.2-0.1,0.2-0.1,0.3
			c-0.3-0.1-0.5-0.1-0.9-0.1c0.6-1.3,0.8-2.6,0.9-3.1l0.9,0.1c0,0,0.1,0,0.1,0.1s-0.1,0.1-0.2,0.1c0,0.1,0,0.2-0.1,0.5h3.2v0.8h-3.4
			c-0.1,0.5-0.1,0.5-0.2,0.7H256.1L256.1,322.2z"/>
	</g>
	<g>
		<path class="st17" d="M371.2,344.3h-0.8v-1.5l0.8,0c0.1,0,0.1,0,0.1,0.1c0,0.1-0.1,0.1-0.1,0.1v0.4h0.8v-0.7h-1v-3.6h1.1
			c0.1-0.3,0.2-0.4,0.2-0.6l0.9,0.1c0.1,0,0.1,0,0.1,0.1c0,0.1-0.1,0.1-0.2,0.1c0,0.1-0.1,0.2-0.1,0.3h2.2v2.1H372v0.3h4.3v0.5H372
			v0.3h4.2c0,0.6-0.1,1.5-0.4,1.9c-0.3,0.4-0.5,0.4-1.3,0.4c0-0.2-0.1-0.3-0.1-0.5h-3.1L371.2,344.3L371.2,344.3z M372,339.9h2.6
			v-0.3H372V339.9z M374.5,340.3H372v0.3h2.6V340.3z M373.7,343.4v-0.6l0.8,0c0.1,0,0.2,0,0.2,0.1c0,0.1-0.1,0.1-0.2,0.1v0.6
			c0.2,0,0.3,0,0.4,0c0.3,0,0.3-0.1,0.4-0.2c0-0.1,0.1-0.5,0.1-0.8h-2.8l0.4,0c0.1,0,0.2,0,0.2,0.1c0,0.1-0.1,0.1-0.2,0.1v0.5H373.7
			z"/>
		<path class="st17" d="M380.7,343.7c0,0.7-0.4,0.7-1.1,0.7c-0.1-0.3-0.1-0.4-0.4-0.8c0.1,0,0.3,0.1,0.4,0.1c0.2,0,0.2,0,0.2-0.3
			v-1.1h-1.4v-2.4h1.1c0.1-0.3,0.1-0.4,0.2-0.5h-1.7v0.8c0,1.2,0,2.9-0.8,4.1c-0.1-0.1-0.5-0.2-0.7-0.3c0.6-1,0.8-1.6,0.8-3.8v-1.4
			h5.2v0.6h-1.8c0,0,0,0,0,0c0,0.1-0.1,0.1-0.2,0.1c-0.1,0.2-0.1,0.3-0.1,0.3h1.6v2.4h-1.4L380.7,343.7L380.7,343.7z M379.6,342.8
			C379.6,342.8,379.7,342.8,379.6,342.8c0.1,0.1,0,0.2-0.1,0.2c-0.3,0.5-0.5,0.9-0.9,1.2c-0.2-0.2-0.5-0.3-0.7-0.4
			c0.6-0.5,0.8-0.9,1-1.3L379.6,342.8L379.6,342.8z M379.3,340.8h2v-0.4h-2V340.8z M381.3,341.3h-2v0.4h2V341.3z M381.6,342.5
			c0.3,0.2,0.9,0.9,1.1,1.3c-0.4,0.3-0.4,0.3-0.6,0.5c-0.1-0.2-0.6-0.9-1.1-1.4L381.6,342.5L381.6,342.5z"/>
		<path class="st17" d="M383.5,340.1c0.4,0.2,0.9,0.5,1.1,0.6c-0.2,0.3-0.3,0.4-0.4,0.7c-0.4-0.3-0.9-0.5-1.1-0.6L383.5,340.1
			L383.5,340.1z M383.1,344c0.4-0.6,0.6-1.2,0.9-1.9c0.3,0.2,0.4,0.3,0.7,0.4c-0.3,0.8-0.4,1-0.7,1.7c0,0.1,0,0.1,0,0.1
			c0,0,0,0.1-0.1,0.1c0,0-0.1,0-0.1,0L383.1,344L383.1,344z M384,338.5c0.1,0.1,0.6,0.3,1,0.6c-0.2,0.2-0.3,0.4-0.4,0.6
			c-0.4-0.3-0.6-0.5-1-0.6L384,338.5L384,338.5z M386.3,343.4c0,0.2,0,0.3,0.2,0.3h1.2c0.3,0,0.4-0.3,0.4-0.7
			c0.3,0.2,0.5,0.3,0.7,0.4c-0.2,0.9-0.6,0.9-1,0.9h-1.5c-0.4,0-0.8,0-0.8-0.7v-1.1h1.7v-0.4h-1.5c-0.3,0.3-0.5,0.4-0.7,0.6
			c-0.1-0.2-0.3-0.4-0.5-0.5c0.7-0.4,1-0.9,1.2-1.1h-1v-0.7h1v-0.5H385v-0.6h0.7v-0.7l0.8,0c0,0,0.1,0,0.1,0.1s-0.1,0.1-0.2,0.1v0.5
			h0.7v-0.8l0.8,0c0,0,0.1,0,0.1,0.1s-0.1,0.1-0.1,0.1v0.5h0.8v0.6h-0.8v0.5h1.1v0.7h-1c0.4,0.5,0.8,0.8,1.2,1
			c-0.2,0.2-0.3,0.3-0.5,0.6c-0.4-0.3-0.7-0.5-0.7-0.6v1.2h-0.7v-0.2h-1V343.4L386.3,343.4z M387.5,341.6c-0.1-0.2-0.2-0.3-0.3-0.5
			h-0.6c-0.1,0.1-0.1,0.2-0.3,0.5H387.5L387.5,341.6z M387.2,339.9h-0.7v0.5h0.7V339.9z"/>
	</g>
	<g>
		<path class="st18" d="M237.5,192.8h-0.8v-2.2c-0.2,0.5-0.3,0.8-0.5,1.1c-0.3-0.3-0.4-0.4-0.6-0.5c0.6-0.7,0.9-1.8,1.1-2.4h-0.9
			v-0.7h0.9v-1.2l0.8,0c0.1,0,0.1,0,0.1,0.1c0,0.1-0.1,0.1-0.1,0.1v0.9h0.8v0.6c0.3-0.6,0.4-1.1,0.4-1.5l0.8,0.2
			c0.1,0,0.1,0,0.1,0.1c0,0.1-0.1,0.1-0.2,0.1c-0.1,0.3-0.4,1.4-0.9,2.1c-0.2-0.2-0.4-0.2-0.7-0.4c0.3-0.4,0.4-0.4,0.4-0.6h-0.7v0.1
			c0.2,0.4,0.4,0.9,0.8,1.4c-0.2,0.2-0.4,0.3-0.6,0.5c-0.1-0.2-0.2-0.3-0.3-0.6L237.5,192.8L237.5,192.8z M240,189.3
			C240.1,189.3,240.1,189.3,240,189.3c0.1,0.2,0,0.2-0.1,0.2c-0.1,0.6-0.4,1.6-0.7,2.2c0.2,0,0.8-0.1,1.2-0.2
			c-0.2-0.6-0.5-0.9-0.6-1.1l0.7-0.3c0.1,0.3,0.7,1.2,1,2.4c-0.2,0.1-0.5,0.2-0.8,0.3c-0.1-0.3-0.1-0.5-0.2-0.7
			c-0.5,0.1-1,0.2-2.5,0.4c0,0-0.1,0-0.1,0c-0.1,0.1-0.1,0.2-0.1,0.2c0,0-0.1,0-0.1-0.1l-0.1-0.8c0.1,0,0.5,0,0.6-0.1
			c0.1-0.3,0.6-1.9,0.8-2.7L240,189.3L240,189.3z M240.8,187c0,0.6,0.1,1.5,1,2.3c-0.2,0.1-0.3,0.2-0.6,0.5
			c-0.4-0.3-0.9-1.1-1.1-2.1h-0.4V187L240.8,187L240.8,187z"/>
		<path class="st18" d="M242.4,188.4c0.1,0.1,0.7,0.4,1,0.7c-0.1,0.1-0.1,0.2-0.4,0.6c-0.4-0.3-0.6-0.5-1-0.7L242.4,188.4
			L242.4,188.4z M242,192.4c0.4-0.5,0.8-1.4,1.1-2.3c0.2,0.2,0.4,0.4,0.6,0.4c-0.2,0.6-0.6,1.5-0.9,2c0,0,0,0.1,0,0.1
			c0,0,0,0.1-0.1,0.1c0,0,0,0-0.1,0L242,192.4L242,192.4z M242.9,186.8c0.4,0.2,0.8,0.5,0.9,0.7c-0.2,0.2-0.3,0.3-0.5,0.6
			c-0.4-0.4-0.5-0.4-0.9-0.7L242.9,186.8L242.9,186.8z M246.3,191.4v1.2h-0.7v-1.2h-0.8v1.4H244v-4.1h1.6v-0.4h-1.8v-0.6h1.8v-0.8
			l0.8,0c0.1,0,0.1,0,0.1,0.1c0,0.1-0.1,0.1-0.2,0.1v0.5h0.8c-0.2-0.2-0.4-0.4-0.6-0.5l0.5-0.4c0.2,0.1,0.6,0.4,0.8,0.6
			c-0.1,0.1-0.1,0.1-0.3,0.2h0.5v0.6h-1.7v0.4h1.6v3.4c0,0.7-0.4,0.8-1.1,0.7c-0.1-0.3-0.1-0.5-0.3-0.8c0.1,0,0.2,0,0.4,0
			c0.3,0,0.3,0,0.3-0.3v-0.3L246.3,191.4L246.3,191.4z M245.6,189.7v-0.4h-0.8v0.4H245.6z M245.6,190.8v-0.4h-0.8v0.4H245.6z
			 M247.1,189.7v-0.4h-0.9v0.4H247.1z M247.1,190.8v-0.4h-0.9v0.4H247.1z"/>
		<path class="st18" d="M254.1,192.7c-0.4-0.3-1-1.1-1.3-1.7c-0.4,0.8-0.8,1.3-1.4,1.7c-0.2-0.2-0.3-0.3-0.7-0.5
			c0.1-0.1,0.2-0.1,0.3-0.2c-0.3,0.1-0.5,0.2-2.2,0.6c0,0.1,0,0.2-0.1,0.2c0,0-0.1,0-0.1-0.1l-0.1-0.7c0.2,0,0.8-0.1,1-0.2v-0.3
			c0,0-0.3,0.1-0.7,0.2c-0.1-0.4-0.1-0.6-0.2-1.1l0.6-0.1c0.1,0.2,0.2,0.7,0.3,0.9v-1.2h-0.9v-0.6h0.9v-0.5h-0.5v-0.5
			c-0.1,0.1-0.2,0.1-0.2,0.2c-0.2-0.3-0.3-0.4-0.5-0.5c0.6-0.4,1.1-0.9,1.4-1.5l0.7,0.2c0,0,0.1,0,0.1,0.1s0,0.1-0.2,0.1
			c0.4,0.5,0.6,0.6,0.9,0.8c-0.1,0.1-0.3,0.3-0.5,0.5c-0.2-0.2-0.4-0.3-0.8-0.8c-0.1,0.1-0.3,0.4-0.7,0.8h1.6v0.5
			c0.3-0.5,0.5-1.1,0.5-1.9l0.8,0.1c0.1,0,0.1,0,0.1,0.1c0,0.1-0.1,0.1-0.2,0.1c0,0.2,0,0.3-0.1,0.5h0.4V187l0.8,0
			c0.1,0,0.1,0,0.1,0.1c0,0.1-0.1,0.1-0.1,0.1v0.9h1.1v0.6h-1.1v0.8h1.3v0.6h-1.2c0.2,0.9,0.7,1.6,1.4,2
			C254.4,192.3,254.2,192.6,254.1,192.7L254.1,192.7z M252.3,188.7h-0.5c-0.1,0.4-0.2,0.6-0.3,0.7c-0.2-0.1-0.3-0.2-0.7-0.3v0.1
			h-0.6v0.5h0.7v0.6h-0.7v1c0.1-0.3,0.3-0.7,0.3-0.9l0.6,0.2c0,0,0.1,0,0.1,0.1c0,0.1-0.1,0.1-0.2,0.1c-0.1,0.3-0.2,0.5-0.3,0.8
			c0.1,0,0.2-0.1,0.3-0.1c0,0.1,0,0.3,0,0.4c0,0.1,0,0.1,0,0.2c0.9-0.6,1.2-1.6,1.2-2h-1.1v-0.6h1.2V188.7L252.3,188.7z
			 M250.3,191.3v0.4c0.1,0,0.4-0.1,0.5-0.1C250.7,191.5,250.5,191.4,250.3,191.3z"/>
		<path class="st18" d="M256.6,189.4v2c0,0.1,0,0.3,0.3,0.4c0.3,0.2,0.7,0.2,1.4,0.2c1.4,0,2.3-0.1,2.7-0.1
			c-0.1,0.2-0.2,0.5-0.2,0.8h-2.9c-0.9,0-1.3-0.1-1.7-0.6c-0.1,0.1-0.6,0.5-0.7,0.6c0,0,0,0.1,0,0.1c0,0.1,0,0.1-0.1,0.1
			c0,0-0.1-0.1-0.1-0.1l-0.4-0.7c0.2-0.1,0.4-0.2,0.8-0.5v-1.5H255v-0.7L256.6,189.4L256.6,189.4z M255.5,187c0.1,0.1,0.6,0.4,1,1
			c-0.2,0.2-0.5,0.5-0.5,0.6c-0.4-0.4-0.7-0.7-1-1L255.5,187L255.5,187z M260.5,188.6v3.2h-0.8v-0.2H258v0.2h-0.8v-3.2h0.9
			c0-0.1,0.1-0.3,0.1-0.4h-1.5v-0.6h0.9c-0.1-0.2-0.2-0.3-0.4-0.5l0.6-0.3c0.3,0.3,0.4,0.5,0.5,0.7c-0.1,0-0.2,0.1-0.3,0.1h1
			c0.2-0.3,0.2-0.5,0.4-0.8l0.7,0.2c0.1,0,0.1,0,0.1,0.1c0,0.1-0.1,0.1-0.1,0.1c0,0.1-0.2,0.3-0.2,0.4h0.9v0.6h-1.8
			c-0.1,0.2-0.1,0.3-0.2,0.4L260.5,188.6L260.5,188.6z M259.7,189.4v-0.3H258v0.3H259.7z M259.7,190.2v-0.4H258v0.4H259.7z
			 M259.7,191.1v-0.4H258v0.4H259.7z"/>
	</g>
	<g>
		<path class="st17" d="M352.3,216.3v-0.7h1.3c0-0.6,0-0.9,0-1.2l0.8,0c0,0,0.1,0,0.1,0.1c0,0.1,0,0.1-0.1,0.2c0,0.3,0,0.6-0.1,0.9
			h2.1v0.7h-2.2c0,0.2-0.1,0.4-0.2,0.8h2.2v0.8h-1v1.5h1.2v0.7h-3.4v-0.7h1.4v-1.5h-0.7c-0.4,0.9-0.8,1.4-1.2,1.8
			c-0.2-0.2-0.4-0.4-0.5-0.5v1h-0.8V217c-0.1,0.2-0.2,0.3-0.3,0.4c-0.1-0.2-0.4-0.5-0.5-0.6c0.5-0.6,1-1.5,1.3-2.5l0.7,0.3
			c0,0,0.1,0,0.1,0.1c0,0.1-0.1,0.1-0.2,0.1c-0.2,0.5-0.3,0.6-0.5,1c0.2,0.1,0.2,0.1,0.2,0.1c0,0.1,0,0.1-0.1,0.1v3.1
			c0.9-0.8,1.3-1.8,1.5-2.8L352.3,216.3L352.3,216.3z"/>
		<path class="st17" d="M360,214.8c0,1.7-0.3,1.7-1.3,1.7c0-0.1,0-0.3-0.1-0.6c0.1,0,0.3,0,0.4,0c0.2,0,0.3-0.1,0.3-0.5h-0.6
			c0,0.1-0.2,0.7-0.7,1.2h4.1v2.5h-0.9c0.2,0.1,0.7,0.4,1.5,0.6c-0.2,0.3-0.3,0.4-0.4,0.7c-0.7-0.2-1.3-0.5-1.9-0.9l0.3-0.3h-1.3
			l0.3,0.3c0,0,0.1,0.1,0.1,0.1s0,0.1-0.1,0.1c0,0-0.1,0-0.1,0c-0.6,0.4-1.1,0.6-1.8,0.8c-0.1-0.2-0.3-0.4-0.5-0.6
			c0.8-0.1,1.4-0.4,1.7-0.6h-1.1v-2.5c-0.2,0.2-0.2,0.2-0.3,0.3c-0.2-0.3-0.3-0.4-0.5-0.5c0.4-0.2,0.7-0.5,0.9-1h-0.7v-0.6h0.9
			c0-0.2,0-0.3,0-0.4l0.8,0.1c0.1,0,0.1,0,0.1,0.1s-0.1,0.1-0.2,0.1c0,0.1,0,0.1,0,0.2L360,214.8L360,214.8z M358.7,217.3h2.7V217
			h-2.7V217.3z M361.3,217.7h-2.7v0.2h2.7V217.7z M361.3,218.3h-2.7v0.3h2.7V218.3z M362.7,214.7v1.7h-2.5v-1.7H362.7z M360.9,215.2
			v0.5h1.2v-0.5H360.9z"/>
	</g>
	<g>
		<path class="st17" d="M309.6,207.4c0.3,0.1,0.9,0.4,1.2,0.7c-0.2,0.3-0.4,0.5-0.4,0.6c-0.3-0.3-0.8-0.5-1.1-0.7L309.6,207.4z
			 M309.4,211.1c0.5-0.6,1.1-1.5,1.3-2c0.1,0.2,0.3,0.4,0.5,0.5c-0.4,0.7-0.7,1.2-1.1,1.8c0,0.1,0,0.1,0,0.2c0,0,0,0.1-0.1,0.1
			s-0.1,0-0.1-0.1L309.4,211.1L309.4,211.1z M310.1,205.9c0.4,0.2,0.8,0.4,1.1,0.7c-0.2,0.3-0.3,0.4-0.4,0.6
			c-0.2-0.2-0.7-0.5-1.1-0.7L310.1,205.9L310.1,205.9z M315.2,210.6v0.7h-4.2v-0.7h1.7V207h-1.4v-0.7h3.7v0.7h-1.4v3.5H315.2
			L315.2,210.6z"/>
		<path class="st17" d="M315.7,210.2c0.8-0.2,0.9-0.3,1.8-0.5V208h-1.7v-0.8h1.7v-1.4l0.9,0.1c0,0,0.1,0,0.1,0.1s0,0.1-0.2,0.1v5.5
			h-0.8v-1.3c-0.2,0.1-1.3,0.5-1.4,0.5c0,0.1-0.1,0.2-0.1,0.2c0,0-0.1,0-0.1-0.1L315.7,210.2L315.7,210.2z M321.7,207.3
			C321.7,207.3,321.8,207.4,321.7,207.3c0,0.1,0,0.2,0,0.2c0,0,0,0-0.1,0c-0.1,0.1-0.6,0.6-0.7,0.6c-0.5,0.4-1,0.8-1.1,0.8v1.6
			c0,0.3,0.1,0.3,0.4,0.3h0.4c0.2,0,0.4,0,0.5-0.8c0.3,0.2,0.4,0.3,0.8,0.4c-0.2,1-0.6,1.2-1,1.2h-1c-0.5,0-0.8-0.2-0.8-0.8v-4.9
			l0.8,0.1c0.1,0,0.1,0,0.1,0.1c0,0.1,0,0.1-0.2,0.1v1.9c0.1-0.1,0.8-0.7,1.2-1.2L321.7,207.3L321.7,207.3z"/>
	</g>
	<g>
		<path class="st17" d="M280.2,260v-1.1h0.9c0.1-1.1,0.1-1.5,0.1-2l1.2,0.1c0.1,0,0.2,0,0.2,0.1s-0.1,0.1-0.3,0.2
			c0,0.6,0,0.8-0.1,1.6h1.5c0,1.6-0.1,3.2-0.6,4.7c0.6,0.8,0.8,1.1,0.9,1.2c-0.3,0.1-0.7,0.5-0.9,0.8c-0.2-0.5-0.4-0.6-0.5-0.8
			c-0.4,0.8-0.9,1.5-1.4,2c-0.4-0.3-0.6-0.5-1-0.7c0.9-0.8,1.3-1.4,1.7-2.3c-0.1-0.1-0.3-0.3-0.6-0.7c-0.2,0.5-0.2,0.6-0.3,0.8
			c-0.4-0.2-0.7-0.4-1.1-0.5c0.5-1.1,0.8-2.2,1-3.4L280.2,260L280.2,260z M282.2,260c-0.1,0.8-0.2,1.1-0.4,2
			c0.1,0.1,0.3,0.3,0.6,0.7c0.2-0.8,0.3-1.8,0.3-2.6H282.2z M285.2,262.6c-0.1-0.1-0.2-0.4-0.3-0.5h-0.5v-2.1h4.9v2.1h-0.5
			c0,0,0.1,0,0.1,0.1c0,0.1-0.2,0.1-0.2,0.1c-0.1,0.1-0.1,0.2-0.2,0.3h1.6v0.9h-6.2v-0.9H285.2z M290,257.5v0.9h-2.5v0.4h2.1v0.9
			h-5.4v-0.9h2v-0.4h-2.4v-0.9h2.4v-0.7l1.3,0.1c0.1,0,0.2,0,0.2,0.1c0,0.1-0.1,0.1-0.3,0.2v0.3L290,257.5L290,257.5z M285.5,266.4
			v0.3h-1.2v-2.8h5.1v2.8h-1.2v-0.3H285.5z M288.2,265.4v-0.6h-2.7v0.6H288.2z M288.2,260.8h-2.6v0.5h2.6V260.8z M287.3,262.7
			c0.1-0.1,0.2-0.3,0.3-0.5h-1.6c0.1,0.2,0.2,0.4,0.3,0.5H287.3L287.3,262.7z"/>
		<path class="st17" d="M295.6,262.7v1h-1.7v1c0.1,0,0.9-0.1,1.9-0.4c0,0.2-0.1,0.4-0.1,0.7c0,0.1,0,0.2,0,0.3
			c-1,0.3-3.8,0.8-4.2,0.9c0,0.2-0.1,0.3-0.2,0.3c0,0-0.1,0-0.2-0.2l-0.2-1.2c0.6-0.1,0.8-0.1,2-0.3v-1.2h-1.7v-1h1.7v-0.9h-1.6
			v-4.6h4.4v4.6h-1.6v0.9L295.6,262.7L295.6,262.7z M292.8,259v-0.9h-0.6v0.9H292.8z M292.2,260v0.9h0.6V260H292.2z M294.5,259v-0.9
			h-0.7v0.9H294.5z M293.8,260v0.9h0.7V260H293.8z M300.3,260.7l0.6,0.5c-0.3,0.9-0.8,2-1.3,2.6c-0.3-0.2-0.7-0.4-1-0.5
			c0.6-0.9,0.8-1.3,0.9-1.5h-0.9v3.7c0,1.3-1.4,1.3-2.2,1.2c0-0.6-0.2-0.9-0.5-1.4c0.5,0.1,0.8,0.1,0.9,0.1c0.3,0,0.4-0.1,0.4-0.5
			v-3.2h-1.4v-1.1h2.5c-0.2-0.1-1-0.8-2-1.2l0.6-0.9c0.5,0.2,0.7,0.3,0.9,0.5c0.3-0.3,0.4-0.4,0.6-0.7h-2.4v-1.1h4.1l0.5,0.6
			c-0.2,0.3-0.7,0.9-1.8,1.8c0.5,0.3,0.7,0.5,0.8,0.6c-0.2,0.2-0.4,0.4-0.5,0.6L300.3,260.7L300.3,260.7z"/>
		<path class="st17" d="M301.2,266c0.5-0.8,1.5-2.5,1.9-3.6c0.4,0.5,0.9,0.8,1,0.9c-0.4,0.8-0.5,1-1.5,3c0,0.1,0,0.2,0,0.2
			s0,0.1-0.1,0.1c-0.1,0-0.1,0-0.2-0.1L301.2,266L301.2,266z M302,259.5c1.1,0.5,1.5,0.9,1.8,1c-0.3,0.4-0.5,0.7-0.7,1.1
			c-0.4-0.3-1.1-0.8-1.7-1.1L302,259.5L302,259.5z M302.8,256.9c0.8,0.5,1.2,0.8,1.7,1.1c-0.3,0.4-0.6,0.8-0.7,1.1
			c-0.7-0.5-1.1-0.8-1.7-1.2L302.8,256.9L302.8,256.9z M304.6,265.4v-3.5h6.3v3.5h0.5v1.1h-7.5v-1.1H304.6z M310.6,257.2v4.1h-5.6
			v-4.1H310.6z M306.4,265.4v-2.5h-0.6v2.5H306.4z M309.3,258.8v-0.6h-3.1v0.6H309.3z M306.2,259.7v0.7h3.1v-0.7H306.2z
			 M308.1,265.4v-2.5h-0.6v2.5H308.1z M309.8,265.4v-2.5h-0.7v2.5H309.8z"/>
		<path class="st17" d="M315.9,262.1l0.4,0.4c-0.1,0.5-0.9,2.7-3,4.1c-0.3-0.4-0.6-0.6-1.1-0.8c0.7-0.4,1.8-1.1,2.5-2.5h-2.1v-1.1
			L315.9,262.1L315.9,262.1z M321.4,262.1c0,0,0.1,0.1,0.1,0.1c0,0.1-0.2,0.1-0.4,0.1c-0.9,0.8-1.1,0.9-1.7,1.4
			c0.8,0.7,1.7,1.2,2.6,1.6c-0.3,0.2-0.4,0.4-0.9,1c-0.6-0.3-1.3-0.7-2-1.3c-0.6-0.5-0.8-0.8-1.2-1.3v1.6c0,1.1-0.3,1.4-2,1.4
			c0-0.3-0.1-0.7-0.5-1.4c0.3,0,0.5,0.1,0.7,0.1c0.4,0,0.5-0.1,0.5-0.5v-3.4h-3.1v-3.9h2.1c0.2-0.4,0.3-0.5,0.5-0.9l1.5,0.2
			c0.1,0,0.2,0,0.2,0.1c0,0.1-0.1,0.2-0.4,0.2c-0.1,0.1-0.1,0.1-0.2,0.4h3.7v3.9h-0.3L321.4,262.1L321.4,262.1z M314.8,259.1h4.8
			v-0.5h-4.8V259.1z M319.6,260h-4.8v0.6h4.8V260z M317.9,261.6v0.2c0.3,0.6,0.5,0.9,0.6,1.1c0.2-0.1,1-0.7,1.5-1.3L317.9,261.6
			L317.9,261.6z"/>
	</g>
	<g>
		<path class="st8" d="M237.7,294.2h1.6v1.1h-1.4c0.1,0.2,0.8,1,1.4,1.3c-0.4,0.3-0.6,0.4-0.9,0.8c-0.3-0.3-0.5-0.5-0.7-0.9v2.4
			h-1.2v-2.3c-0.3,0.6-0.6,1.1-1.2,1.7c-0.3-0.3-0.6-0.4-1.1-0.6c0.9-0.8,1.5-1.6,1.9-2.3h-1.5v-1.1h1.9v-0.8h-2v-1h1.2
			c-0.2-0.6-0.3-0.8-0.3-1l0.6-0.2h-1.1v-1h1.7v-1l1.3,0.1c0.2,0,0.2,0,0.2,0.1c0,0.1-0.1,0.1-0.2,0.2v0.6h1.5v1h-0.6
			c0.3,0,0.4,0.1,0.4,0.2c0,0.1-0.1,0.1-0.3,0.2c-0.1,0.3-0.3,0.6-0.4,0.8h1.2v1H238c0,0.1-0.2,0.2-0.3,0.2L237.7,294.2L237.7,294.2
			z M236.4,291.2c0.2,0.6,0.3,0.8,0.3,1l-0.6,0.2h1c0.3-0.5,0.5-1.1,0.5-1.2H236.4L236.4,291.2z M239.8,289.8l0.7,0.1
			c0.7,0,2.1-0.4,3-0.7l0.7,1c0,0,0.1,0.1,0.1,0.1c0,0.1-0.1,0.1-0.2,0.1c-0.1,0-0.1,0-0.3-0.1c-0.9,0.3-1.7,0.5-2.8,0.5v1.5h3.1
			v1.2h-1v5.3h-1.3v-5.3h-0.8c0,0.8,0,3.5-1.6,5.4c-0.3-0.2-0.6-0.4-1.2-0.5c1.4-1.5,1.5-3.3,1.5-4.9L239.8,289.8L239.8,289.8z"/>
		<path class="st8" d="M245.1,293v-1.3h4.2V289l1.4,0.1c0.2,0,0.2,0,0.2,0.1c0,0.1-0.1,0.1-0.2,0.2v2.4h4.1v1.3h-4.1
			c0.5,1.6,1.5,3.5,4.2,4.9c-0.6,0.5-0.8,0.7-1,1.1c-1.1-0.5-3-2.1-3.9-4.2c-1.2,2.6-3,3.6-4.3,4.2c-0.1-0.2-0.3-0.6-0.9-1.2
			c0.9-0.4,3.7-1.5,4.4-4.8L245.1,293L245.1,293z"/>
		<path class="st8" d="M258.9,298.9h-1.3v-3.8c-0.3,0.7-0.7,1.5-1,1.9c-0.3-0.3-0.6-0.5-1.1-0.8c0.9-1,1.6-2,2.1-3.8h-1.8v-1.1h1.8
			v-2l1.4,0.1c0.1,0,0.2,0.1,0.2,0.1c0,0.1-0.1,0.1-0.3,0.2v1.6h1.5v1.1h-1.5v0.4c0.5,0.9,1.1,1.4,1.7,1.9c-0.2,0.3-0.5,0.6-0.7,1.1
			c-0.4-0.4-0.9-1-1-1.2L258.9,298.9L258.9,298.9z M261.6,293.1c0.4,0.6,0.9,1.9,1,2.4c-0.3,0.1-0.6,0.2-1.2,0.5
			c-0.2-1-0.6-1.9-0.9-2.4L261.6,293.1L261.6,293.1z M265.6,291.1v1.1h-1.1v5c0,1.1-0.2,1.7-2.3,1.6c-0.2-0.8-0.2-1-0.5-1.5
			c0.4,0.1,0.8,0.1,0.9,0.1c0.5,0,0.5-0.1,0.5-0.5v-4.7h-2.3v-1.1h2.3v-2l1.4,0.1c0.1,0,0.3,0,0.3,0.1s-0.1,0.1-0.2,0.2v1.6H265.6
			L265.6,291.1z"/>
	</g>
	<g>
		<path class="st8" d="M209.5,359.2c0.4,0,0.8-0.1,1.6-0.2v-2.4h-1.8v-1.1h2v-4.7h6.8v1.1h-5.5v0.6h4.9v1h-4.9v0.6h4.9v1h-4.9v0.6
			h6.5v1.1h-1.6l0.6,0.4c0.1,0,0.1,0.1,0.1,0.2c0,0.1-0.1,0.1-0.3,0.1c-0.3,0.3-0.4,0.4-1.3,1c0.5,0.3,1.3,0.8,2.4,1.1
			c-0.2,0.1-0.5,0.4-0.9,1c-0.9-0.3-2.4-1.2-3.2-2c-0.1,0.7-0.1,0.8-0.1,0.9c-1.2,0.3-3.2,0.7-4.5,1c-0.1,0.2-0.1,0.2-0.2,0.2
			c-0.1,0-0.1-0.1-0.2-0.3L209.5,359.2L209.5,359.2z M212.4,358.8c1.1-0.2,1.8-0.4,2.3-0.5c-0.7-0.7-1-1.4-1.1-1.6h-1.2V358.8z
			 M214.9,356.7c0.2,0.4,0.4,0.6,0.8,1c0.4-0.3,0.7-0.6,1.1-1H214.9z"/>
		<path class="st8" d="M229.8,354.7v1H229v3.5c0,0.5-0.1,1.4-1.8,1.3c-0.1-0.4-0.2-0.9-0.6-1.4c0.5,0.1,0.8,0.1,0.9,0.1
			c0.2,0,0.3,0,0.3-0.3v-3.2H224v-1h0.5c-0.2-0.3-0.4-0.5-0.7-0.6v5h-0.9v-0.8h-1.7v1.3h-0.9v-7.2l1.1,0.1c0.1,0,0.1,0,0.1,0.1
			c0,0.1-0.1,0.1-0.3,0.2v4.3h0.4v-6.3l1,0c0,0,0.1,0,0.1,0.1c0,0.1-0.1,0.1-0.2,0.2v6h0.4v-4.8l1,0c0.1,0,0.2,0,0.2,0.1
			c0,0.1-0.1,0.2-0.2,0.2v1.3c1.2-0.4,1.5-0.9,1.6-1.1h-1.3v-1h1.7c0.1-0.5,0.1-0.8,0.1-1l1.3,0.1c0.1,0,0.2,0,0.2,0.1
			c0,0.1-0.1,0.1-0.2,0.2c0,0.2,0,0.3,0,0.7h2.4v1h-1.7c0.6,0.7,1.6,1.1,1.9,1.2c-0.4,0.2-0.5,0.4-0.8,0.7L229.8,354.7L229.8,354.7z
			 M227.2,356.2v2.8h-1.9v0.8h-1.1v-3.6H227.2z M228.4,354.7c-0.7-0.3-1.3-0.9-1.8-1.5c-0.4,0.6-0.9,1.1-1.6,1.5H228.4z
			 M225.3,357.2v0.8h0.8v-0.8H225.3z"/>
	</g>
	<ellipse class="st19" cx="289.5" cy="163.9" rx="31.6" ry="25.2"/>
	<polygon class="st19" points="283.5,175.6 287.8,205.1 296.3,179.5 	"/>
	<g>
		<path class="st20" d="M268.2,162.6c0.7,0.7,1.2,1.3,1.7,1.9c0.4-1,0.6-1.8,0.7-2.4h-3.8v-1.3h2.3v-1.8l1.6,0.1
			c0.1,0,0.2,0,0.2,0.1s-0.1,0.2-0.2,0.2v1.4h2.1v1.3H272c-0.2,1.4-0.7,2.7-1.2,3.7c0.3,0.5,0.9,1.5,1.5,2.6c-0.6,0.3-1,0.5-1.4,0.7
			c-0.3-0.9-0.4-1.1-0.9-2c-1,1.5-1.8,2.2-2.4,2.7c-0.4-0.5-0.7-0.6-1.2-0.8c0.9-0.7,1.8-1.6,2.7-3.1c-0.7-1-1.5-1.8-2.1-2.5
			L268.2,162.6L268.2,162.6z M273.2,164c0.4,0.5,0.9,1.3,1.3,2.3c-0.2,0.1-0.4,0.2-1.3,0.7c-0.2-0.6-0.7-1.7-1.1-2.3L273.2,164
			L273.2,164z M277.9,162v1.3h-1.2v4.8c0,1.6-1,1.6-2.5,1.6c0-0.8-0.5-1.4-0.7-1.6c0.5,0.1,1.1,0.1,1.2,0.1c0.5,0,0.5-0.2,0.5-0.7
			v-4.2h-2.6V162h2.6v-3l1.5,0.1c0.1,0,0.2,0.1,0.2,0.1c0,0.1,0,0.1-0.2,0.2v2.6L277.9,162L277.9,162z"/>
		<path class="st20" d="M280.5,169.2v0.5h-1.5v-8.1h3.5c0.2-0.4,0.3-0.7,0.5-1.1h-4.5v-1.2h10.8v1.2h-4.5c-0.2,0.5-0.4,0.7-0.5,1.1
			h4.6v8.1h-1.5v-0.5H280.5L280.5,169.2z M281.8,167.9v-5.1h-1.3v5.1H281.8z M284.8,163.7v-0.9h-1.6v0.9H284.8z M284.8,165.8v-1
			h-1.6v1H284.8z M284.8,167.9v-1.1h-1.6v1.1H284.8z M287.5,167.9v-5.1h-1.3v5.1H287.5z"/>
		<path class="st20" d="M296.4,169.8H295v-2.5c-1,0.9-2.7,2.1-3.7,2.6c-0.4-0.5-0.7-0.8-1.1-1.1c1.8-0.7,3-1.7,3.6-2.2h-3v-1.2h1.6
			v-0.9h-2.1v-1.1h2.1v-0.9h-1.6v-1.2h4.1v-0.6c-1,0.1-1.4,0.1-3,0.1c-0.1-0.5-0.2-0.9-0.5-1.2c0.3,0,0.6,0,1.2,0
			c3.3,0,5.2-0.6,5.9-0.8l0.8,1.1c0,0,0.1,0.1,0.1,0.2c0,0.1,0,0.1-0.1,0.1c-0.1,0-0.1,0-0.3-0.1c-1,0.3-2.3,0.5-2.7,0.6v0.7h4.1
			v1.2h-1.6v0.9h2.2v1.1h-2.2v0.9h1.6v1.2h-3c1.1,1,2.6,1.8,3.6,2.1c-0.4,0.3-0.6,0.6-1,1c-1.1-0.5-2.4-1.3-3.8-2.6L296.4,169.8
			L296.4,169.8z M295,162.5h-1.1v0.9h1.1V162.5z M295,164.5h-1.1v0.9h1.1V164.5z M297.6,162.5h-1.1v0.9h1.1V162.5z M297.6,164.5
			h-1.1v0.9h1.1V164.5z"/>
		<path class="st20" d="M305.7,161.1v1.3h-0.9v1.4c0.5-0.1,0.7-0.2,0.9-0.3c-0.1,0.4-0.1,0.5-0.1,1.2c-0.2,0.1-0.3,0.1-0.8,0.3v3.5
			c0,1-0.5,1.3-1.8,1.3c-0.2,0-0.3,0-0.4,0c-0.1-0.8-0.2-1-0.4-1.4c0.2,0,0.5,0.1,0.8,0.1c0.4,0,0.5-0.1,0.5-0.5v-2.5
			c-0.1,0.1-0.8,0.3-1,0.4c0,0.1-0.1,0.3-0.2,0.3c-0.1,0-0.1-0.1-0.2-0.2l-0.2-1.3c0.3-0.1,0.6-0.1,1.6-0.4v-1.8h-1.4V161h1.4v-2
			l1.4,0.1c0.1,0,0.3,0,0.3,0.1c0,0.1-0.1,0.1-0.3,0.2v1.6L305.7,161.1L305.7,161.1z M305.3,166.9v-1.2h0.8v-3.9h0.8
			c-0.2-0.2-0.4-0.3-1-0.7c0.9-0.5,1.6-1.2,2.2-2.1l1.2,0.3c0.1,0,0.2,0.1,0.2,0.2s-0.1,0.1-0.3,0.1c0,0.1-0.1,0.2-0.2,0.3h2.1
			l0.5,0.5c-0.5,0.7-0.6,0.8-1.1,1.4h1.9v3.9h0.5v1.2h-2.9c0.3,0.4,1.2,1.4,3,1.9c-0.4,0.3-0.6,0.7-0.9,1.1c-0.9-0.4-2.2-1-3.2-2.4
			c-0.3,0.5-1.1,1.8-3,2.4c-0.2-0.5-0.4-0.7-0.9-1.1c1.2-0.3,2.2-0.8,2.9-1.9H305.3L305.3,166.9z M309,161.7
			c0.1-0.1,0.4-0.5,0.7-0.9h-1.5c-0.3,0.3-0.7,0.6-1,0.9H309z M309.8,165c0.1,0,0.2,0,0.2,0.1c0,0.1-0.1,0.1-0.3,0.2
			c0,0.1,0,0.2,0,0.2h1.6v-1.3c-0.1,0.2-0.4,0.3-0.5,0.3H310c-0.5,0-0.7-0.1-0.7-0.6v-1.3h-0.9l0.6,0.2c0.1,0,0.2,0.1,0.2,0.1
			c0,0.1-0.2,0.1-0.2,0.1c-0.2,0.6-0.6,1.4-1.2,1.8c-0.1-0.1-0.2-0.2-0.4-0.4v1h1c0-0.2,0.1-0.4,0.1-0.7L309.8,165L309.8,165z
			 M307.4,164.1c0.3-0.4,0.5-0.8,0.7-1.3h-0.7V164.1z M310.3,162.8v0.7c0,0.1,0,0.2,0.1,0.2c0.3,0,0.3,0,0.4-0.6
			c0.2,0.1,0.3,0.2,0.4,0.2v-0.6L310.3,162.8L310.3,162.8z"/>
	</g>
</g>
<g>
	<path class="st21" d="M328.2,362.1c0.1,0,0.2,0.1,0.1,0.2c0,0.2-0.1,0.4-0.1,0.6c0,0.1-0.1,0.1-0.2,0.1c-0.1,0-0.2-0.1-0.2-0.1
		c0,0,0,0,0-0.1c0-0.1,0.1-0.3,0.1-0.5C328,362.1,328.1,362.1,328.2,362.1L328.2,362.1z M329.2,360.1h0.4c0.1,0,0.1,0.1,0.1,0.2
		s0,0.2-0.1,0.2h-0.4v0.3h0.4c0.1,0,0.1,0.1,0.1,0.2s0,0.2-0.1,0.2h-0.4v0.3h0.2c0.3,0,0.4,0.1,0.4,0.4c0,0.4,0,0.7-0.1,1
		c-0.1,0.3-0.3,0.4-0.5,0.4c-0.1,0-0.2,0-0.2,0c-0.1,0-0.2-0.1-0.2-0.2c0-0.1,0.1-0.2,0.2-0.2c0,0,0.1,0,0.2,0c0.1,0,0.1,0,0.2-0.1
		c0-0.2,0.1-0.4,0.1-0.7c0-0.1,0-0.1-0.1-0.1h-0.8c-0.3,0-0.4-0.1-0.4-0.3v-1.6c0-0.3,0.1-0.4,0.5-0.4h1.1c0.1,0,0.2,0.1,0.2,0.2
		s0,0.2-0.2,0.2h-0.5L329.2,360.1L329.2,360.1z M328.7,362.5c0,0.1-0.1,0.2-0.1,0.2c-0.1,0-0.1,0-0.1-0.1c0-0.1,0-0.3-0.1-0.4
		c0-0.1,0.1-0.1,0.1-0.1c0.1,0,0.1,0,0.1,0.1C328.7,362.2,328.7,362.4,328.7,362.5L328.7,362.5z M328.6,359.8c-0.1,0-0.1,0-0.1,0.1
		v0.2h0.3v-0.3H328.6z M328.8,360.8v-0.3h-0.3v0.3H328.8z M328.8,361.1h-0.3v0.2c0,0.1,0,0.1,0.1,0.1h0.2V361.1z M329,362.3
		c0,0.1-0.1,0.2-0.1,0.2c0,0-0.1,0-0.1-0.1c0-0.1-0.1-0.2-0.1-0.3c0,0,0,0,0,0c0-0.1,0.1-0.1,0.1-0.1c0,0,0.1,0,0.1,0.1
		C329,362.1,329,362.2,329,362.3L329,362.3z M329.3,362.1C329.3,362.1,329.3,362.2,329.3,362.1c0,0.1-0.1,0.2-0.1,0.2
		c0,0-0.1,0-0.1-0.1c0-0.1-0.1-0.2-0.1-0.2c0,0,0,0,0-0.1c0-0.1,0.1-0.1,0.1-0.1c0,0,0.1,0,0.1,0.1
		C329.2,362,329.3,362.1,329.3,362.1L329.3,362.1z M330.5,361.1c0,1-0.2,1.5-0.4,2c0,0.1-0.1,0.1-0.2,0.1c-0.1,0-0.2-0.1-0.2-0.2
		c0,0,0-0.1,0-0.1c0.2-0.5,0.4-1,0.4-2.1V360c0-0.3,0.2-0.4,0.5-0.4h0.8c0.3,0,0.5,0.1,0.5,0.4v0.7c0,0.3-0.2,0.4-0.5,0.4h-0.1
		c0.1,0.7,0.4,1.2,0.7,1.7c0,0.1,0.1,0.1,0.1,0.2c0,0.1-0.1,0.2-0.2,0.2c-0.1,0-0.1,0-0.2-0.1c-0.4-0.5-0.6-1.2-0.8-2L330.5,361.1
		L330.5,361.1z M331.2,360.7c0.1,0,0.1,0,0.1-0.1v-0.5c0-0.1,0-0.1-0.1-0.1h-0.6c-0.1,0-0.1,0-0.1,0.1v0.6L331.2,360.7L331.2,360.7z
		"/>
	<path class="st21" d="M335.9,362.6c0.1,0,0.2,0.1,0.2,0.2s-0.1,0.2-0.2,0.2h-2.7c-0.5,0-0.7-0.2-0.7-0.6v-2.4
		c0-0.4,0.2-0.6,0.7-0.6h2.6c0.1,0,0.2,0.1,0.2,0.2s-0.1,0.2-0.2,0.2h-2.5c-0.2,0-0.3,0.1-0.3,0.2v2.2c0,0.2,0.1,0.2,0.3,0.2
		L335.9,362.6L335.9,362.6z M335.4,361.8c0,0.1,0.1,0.1,0.1,0.2c0,0.1-0.1,0.2-0.2,0.2c-0.1,0-0.1,0-0.2-0.1
		c-0.2-0.2-0.4-0.4-0.6-0.5c-0.3,0.3-0.5,0.6-0.9,0.8c0,0-0.1,0-0.1,0c-0.1,0-0.2-0.1-0.2-0.2c0-0.1,0-0.1,0.1-0.2
		c0.3-0.2,0.6-0.4,0.8-0.7c-0.2-0.2-0.4-0.3-0.6-0.5c-0.1,0-0.1-0.1-0.1-0.2c0-0.1,0.1-0.2,0.2-0.2c0,0,0.1,0,0.1,0
		c0.2,0.1,0.4,0.3,0.6,0.5c0.2-0.2,0.3-0.5,0.4-0.7c0-0.1,0.1-0.1,0.2-0.1c0.1,0,0.2,0.1,0.2,0.2c0,0,0,0.1,0,0.1
		c-0.1,0.3-0.3,0.6-0.5,0.8C335,361.4,335.2,361.6,335.4,361.8L335.4,361.8z"/>
	<path class="st21" d="M337.1,360.9v2.1c0,0.1-0.1,0.2-0.2,0.2s-0.2-0.1-0.2-0.2v-3.2c0-0.3,0.1-0.5,0.6-0.5h0.5
		c0.5,0,0.6,0.1,0.6,0.5v0.6c0,0.1,0,0.3-0.1,0.4c-0.1,0.1-0.3,0.1-0.4,0.1H337.1L337.1,360.9z M337.8,359.9c0-0.1,0-0.1-0.1-0.1
		h-0.4c-0.1,0-0.1,0-0.1,0.1v0.1h0.7L337.8,359.9L337.8,359.9z M337.7,360.6c0.1,0,0.1,0,0.1-0.1v-0.1h-0.7v0.2L337.7,360.6
		L337.7,360.6z M338.1,362.7c-0.4,0-0.5-0.1-0.5-0.4v-0.7c0-0.3,0.1-0.4,0.5-0.4h0.6c0.4,0,0.5,0.1,0.5,0.4v0.7
		c0,0.3-0.2,0.4-0.5,0.4H338.1z M338.8,361.6c0-0.1,0-0.1-0.1-0.1h-0.5c-0.1,0-0.1,0-0.1,0.1v0.1h0.8L338.8,361.6L338.8,361.6z
		 M338.7,362.4c0.1,0,0.1,0,0.1-0.1v-0.1h-0.8v0.1c0,0.1,0,0.1,0.1,0.1H338.7L338.7,362.4z M339.2,360.9c-0.5,0-0.6-0.1-0.6-0.5
		v-0.6c0-0.3,0.1-0.5,0.6-0.5h0.5c0.5,0,0.6,0.2,0.6,0.5v2.7c0,0.4-0.2,0.6-0.5,0.6c-0.1,0-0.2,0-0.3,0c-0.1,0-0.2-0.1-0.2-0.2
		c0-0.1,0.1-0.2,0.3-0.2c0.1,0,0.1,0,0.2,0c0.1,0,0.1,0,0.1-0.1v-1.7L339.2,360.9L339.2,360.9z M339.8,359.9c0-0.1,0-0.1-0.1-0.1
		h-0.4c-0.1,0-0.1,0-0.1,0.1v0.1h0.7L339.8,359.9L339.8,359.9z M339.8,360.3h-0.7v0.1c0,0.1,0,0.1,0.1,0.1h0.6V360.3L339.8,360.3z"
		/>
	<path class="st21" d="M340.9,361.6c0-1,0.8-1.8,2-1.8c1,0,1.6,0.6,1.6,1.5c0,0.8-0.5,1.3-1.2,1.6c0,0-0.1,0-0.1,0
		c-0.1,0-0.2-0.1-0.2-0.2c0-0.1,0-0.2,0.2-0.2c0.6-0.2,0.9-0.6,0.9-1.1c0-0.6-0.4-1-1-1.1c0,0.7-0.2,1.4-0.5,1.8
		c-0.2,0.4-0.5,0.5-0.8,0.5C341.3,362.6,340.9,362.2,340.9,361.6L340.9,361.6z M341.4,361.6c0,0.4,0.1,0.5,0.3,0.5
		c0.1,0,0.2-0.1,0.4-0.3c0.2-0.4,0.4-0.9,0.4-1.6C341.9,360.4,341.4,360.9,341.4,361.6z"/>
	<path class="st21" d="M345.8,361.5c0,0.6-0.1,1.1-0.4,1.5c-0.1,0.1-0.1,0.1-0.2,0.1c-0.1,0-0.2-0.1-0.2-0.2c0,0,0-0.1,0-0.1
		c0.2-0.4,0.3-0.9,0.3-1.6v-0.5c0-0.3,0.1-0.4,0.5-0.4h0.6c0.3,0,0.5,0.1,0.5,0.4v0.5c0,0.3-0.2,0.4-0.5,0.4L345.8,361.5
		L345.8,361.5z M345.2,360c-0.1,0-0.2-0.1-0.2-0.2s0.1-0.2,0.2-0.2h1.6c0.1,0,0.2,0.1,0.2,0.2s-0.1,0.2-0.2,0.2H345.2z M346.3,361.1
		c0.1,0,0.1,0,0.1-0.1v-0.3c0-0.1,0-0.1-0.1-0.1h-0.4c-0.1,0-0.1,0-0.1,0.1v0.4H346.3z M347.6,361.1c-0.1,0.9-0.3,1.5-0.8,2
		c-0.1,0.1-0.1,0.1-0.2,0.1c-0.1,0-0.2-0.1-0.2-0.2c0-0.1,0-0.1,0.1-0.2c0.5-0.5,0.7-1.1,0.7-2.1v-0.8c0-0.1,0.1-0.2,0.2-0.2
		c0,0,0.1,0,0.1,0c0.3-0.1,0.6-0.2,0.9-0.3c0,0,0.1,0,0.1,0c0.1,0,0.2,0.1,0.2,0.2c0,0.1,0,0.1-0.1,0.2c-0.3,0.1-0.6,0.2-1,0.3v0.5
		h1.2c0.1,0,0.2,0.1,0.2,0.2s-0.1,0.2-0.2,0.2h-0.3v2c0,0.1-0.1,0.2-0.2,0.2s-0.2-0.1-0.2-0.2v-2L347.6,361.1L347.6,361.1z"/>
	<path class="st21" d="M350.3,361.2c-0.4,0-0.5-0.1-0.5-0.4v-0.3c0-0.3,0.1-0.4,0.5-0.4h0.4v-0.3h-1c-0.1,0-0.2-0.1-0.2-0.2
		s0.1-0.2,0.2-0.2h3.4c0.1,0,0.2,0.1,0.2,0.2s-0.1,0.2-0.2,0.2h-1.1v0.3h0.4c0.4,0,0.5,0.1,0.5,0.4v0.3c0,0.1,0,0.2-0.1,0.3
		c-0.1,0.1-0.3,0.1-0.4,0.1h-1.2c0.1,0,0.1,0.1,0.1,0.1c0,0,0,0.1,0,0.1c0,0,0,0.1-0.1,0.1h1.9c0.1,0,0.2,0.1,0.2,0.2s0,0.2-0.2,0.2
		h-0.8c-0.1,0.2-0.3,0.4-0.5,0.6c0.3,0.1,0.5,0.2,0.8,0.3c0.1,0,0.1,0.1,0.1,0.2c0,0.1-0.1,0.2-0.2,0.2c0,0-0.1,0-0.1,0
		c-0.3-0.2-0.7-0.3-1-0.4c-0.5,0.3-1,0.4-1.7,0.5c-0.1,0-0.2-0.1-0.2-0.2c0-0.1,0.1-0.2,0.2-0.2c0.5,0,0.9-0.1,1.3-0.3
		c-0.2,0-0.3-0.1-0.5-0.1c0,0,0,0,0,0c-0.1,0.1-0.1,0.1-0.2,0.1c-0.1,0-0.2-0.1-0.2-0.2c0,0,0-0.1,0-0.1c0.1-0.1,0.2-0.2,0.3-0.3
		h-0.9c-0.1,0-0.1-0.1-0.1-0.2s0-0.2,0.1-0.2h1.2c0.1-0.1,0.1-0.2,0.2-0.3c0,0,0-0.1,0.1-0.1L350.3,361.2L350.3,361.2z M350.6,360.8
		v-0.4h-0.3c-0.1,0-0.1,0-0.1,0.1v0.2c0,0.1,0,0.1,0.1,0.1L350.6,360.8L350.6,360.8z M350.9,361.9c-0.1,0.1-0.1,0.2-0.2,0.2
		c0.2,0,0.4,0.1,0.7,0.2c0.2-0.1,0.3-0.3,0.4-0.4L350.9,361.9L350.9,361.9z M351.5,360.1v-0.3H351v0.3H351.5z M351,360.8h0.5v-0.4
		H351V360.8z M351.9,360.8h0.4c0.1,0,0.1,0,0.1-0.1v-0.2c0-0.1,0-0.1-0.1-0.1h-0.4V360.8L351.9,360.8z"/>
	<path class="st21" d="M354.2,362.6c-0.3,0-0.4-0.1-0.4-0.4V360c0-0.3,0.1-0.4,0.4-0.4h0.4c0.3,0,0.4,0.1,0.4,0.4v2.1
		c0,0.3-0.1,0.4-0.4,0.4H354.2z M354.6,360.1c0-0.1,0-0.1-0.1-0.1h-0.2c-0.1,0-0.1,0-0.1,0.1v0.7h0.4L354.6,360.1L354.6,360.1z
		 M354.4,362.1c0.1,0,0.1,0,0.1-0.1v-0.8h-0.4v0.8c0,0.1,0,0.1,0.1,0.1H354.4L354.4,362.1z M356,360.2h-0.5c-0.1,0-0.2-0.1-0.2-0.2
		s0.1-0.2,0.2-0.2h0.5v-0.4c0-0.1,0.1-0.2,0.2-0.2s0.2,0.1,0.2,0.2v0.4h0.6c0.1,0,0.2,0.1,0.2,0.2s-0.1,0.2-0.2,0.2h-0.6v0.4h0.9
		c0.1,0,0.2,0.1,0.2,0.2s-0.1,0.2-0.2,0.2h-2.1c-0.1,0-0.2-0.1-0.2-0.2s0.1-0.2,0.2-0.2h0.8L356,360.2L356,360.2z M355.3,361.9
		c-0.1,0-0.2-0.1-0.2-0.2s0.1-0.2,0.2-0.2h1.1v-0.2c0-0.1,0.1-0.2,0.2-0.2s0.2,0.1,0.2,0.2v0.2h0.4c0.1,0,0.2,0.1,0.2,0.2
		s-0.1,0.2-0.2,0.2h-0.4v0.8c0,0.4-0.2,0.5-0.5,0.5c-0.1,0-0.2,0-0.3,0c-0.1,0-0.2-0.1-0.2-0.2c0-0.1,0.1-0.2,0.2-0.2
		c0.1,0,0.1,0,0.2,0s0.1,0,0.1-0.1v-0.8L355.3,361.9L355.3,361.9z M356,362.3c0,0,0,0.1,0,0.1c0,0.1-0.1,0.2-0.2,0.2
		c-0.1,0-0.1,0-0.2-0.1c-0.1-0.1-0.1-0.2-0.2-0.3c0,0-0.1-0.1-0.1-0.1c0-0.1,0.1-0.2,0.2-0.2c0,0,0.1,0,0.2,0.1
		C355.9,362.1,355.9,362.2,356,362.3L356,362.3z"/>
	<path class="st21" d="M358.5,360.9v2.1c0,0.1-0.1,0.2-0.2,0.2s-0.2-0.1-0.2-0.2v-3.2c0-0.3,0.1-0.5,0.6-0.5h0.5
		c0.5,0,0.6,0.1,0.6,0.5v0.6c0,0.1,0,0.3-0.1,0.4c-0.1,0.1-0.3,0.1-0.4,0.1H358.5L358.5,360.9z M359.2,359.9c0-0.1,0-0.1-0.1-0.1
		h-0.4c-0.1,0-0.1,0-0.1,0.1v0.1h0.7L359.2,359.9L359.2,359.9z M359,360.6c0.1,0,0.1,0,0.1-0.1v-0.1h-0.7v0.2L359,360.6L359,360.6z
		 M359.5,362.7c-0.4,0-0.5-0.1-0.5-0.4v-0.7c0-0.3,0.1-0.4,0.5-0.4h0.6c0.4,0,0.5,0.1,0.5,0.4v0.7c0,0.3-0.2,0.4-0.5,0.4H359.5z
		 M360.2,361.6c0-0.1,0-0.1-0.1-0.1h-0.5c-0.1,0-0.1,0-0.1,0.1v0.1h0.8L360.2,361.6L360.2,361.6z M360.1,362.4c0.1,0,0.1,0,0.1-0.1
		v-0.1h-0.8v0.1c0,0.1,0,0.1,0.1,0.1H360.1L360.1,362.4z M360.6,360.9c-0.5,0-0.6-0.1-0.6-0.5v-0.6c0-0.3,0.1-0.5,0.6-0.5h0.5
		c0.5,0,0.6,0.2,0.6,0.5v2.7c0,0.4-0.2,0.6-0.5,0.6c-0.1,0-0.2,0-0.3,0c-0.1,0-0.2-0.1-0.2-0.2c0-0.1,0.1-0.2,0.3-0.2
		c0.1,0,0.1,0,0.2,0c0.1,0,0.1,0,0.1-0.1v-1.7L360.6,360.9L360.6,360.9z M361.2,359.9c0-0.1,0-0.1-0.1-0.1h-0.4
		c-0.1,0-0.1,0-0.1,0.1v0.1h0.7L361.2,359.9L361.2,359.9z M361.2,360.3h-0.7v0.1c0,0.1,0,0.1,0.1,0.1h0.6V360.3L361.2,360.3z"/>
</g>
<g>
	<path class="st22" d="M238.8,353.6c0,0,0.3,0.1,0.9,0.3"/>
	<path class="st23" d="M241.6,354.4c10,2.5,43,7.7,47.2-29.6"/>
	<path class="st22" d="M288.9,323.8c0-0.3,0.1-0.7,0.1-1"/>
</g>
<path class="st21" d="M276.5,360c0,0-0.1,0-0.1,0.1c0,0.1-0.1,1.1-0.4,1.7c0,0,0,0,0,0l0,0c-0.2-0.1-0.7-0.1-0.7-0.1
	c0.4-0.7,0.5-1.6,0.5-1.9c0,0,0.5,0,0.6,0.1C276.5,359.8,276.5,359.9,276.5,360v-0.6c-0.2,0-0.5,0.1-0.7,0.1c0,0.1,0,0.2-0.1,0.2
	c-0.1,0-0.2-0.8-0.2-0.8c0.2,0,0.4,0,0.5,0c0.1-0.1,0.2-0.3,0.3-0.4c-0.2-0.2-0.5-0.6-0.9-0.9l0.4-0.5c0.1,0,0.1,0.1,0.2,0.2
	c0.3-0.5,0.6-1.1,0.6-1.1c0,0,0.5,0.2,0.7,0.4c0,0,0,0,0,0.1s0,0.1-0.1,0.1c0,0,0,0-0.1,0c-0.1,0.1-0.4,0.7-0.7,1.1
	c0.1,0.1,0.2,0.2,0.2,0.3c0.4-0.5,0.6-1,0.7-1.2c0,0,0.5,0.3,0.6,0.4c0,0,0.1,0.1,0.1,0.1c0,0,0,0.1-0.1,0.1c0,0-0.1,0-0.1,0
	c0,0-0.3,0.5-0.7,0.9l0.4-0.2c0,0.1,0.1,0.2,0.2,0.3c0.6-0.7,0.9-1.8,0.9-2.2c0,0,0.6,0.1,0.8,0.1c0,0,0.1,0,0.1,0.1s0,0.1-0.2,0.1
	c0,0.2-0.1,0.4-0.2,0.7h1.9v0.2c0,0.4,0,0.8,0,1.3c0,2.1-0.2,3.3-1.7,3.3c-0.1,0-0.2,0-0.3,0c0,0-0.1,0-0.1,0
	c-0.1-0.3-0.5-0.8-0.5-0.8c0.3,0,0.5,0.1,0.8,0.1c0.8,0,0.9-0.7,0.9-2.5v-0.9H279c-0.1,0.3-0.3,0.6-0.5,0.9c0,0,0,0,0,0h0
	c-0.2-0.1-0.5-0.1-0.6-0.2c0.1,0.3,0.3,0.6,0.4,0.9l-0.5,0.2c0-0.1,0-0.2-0.1-0.4c-0.1,0-0.2,0-0.4,0.1l0,2.7h-0.7L276.5,360
	L276.5,360z M277.4,358.7c-0.1-0.1-0.1-0.3-0.2-0.4c-0.1,0.2-0.3,0.3-0.4,0.5C277,358.8,277.2,358.7,277.4,358.7L277.4,358.7z
	 M277.6,361.5c0-0.6-0.2-1.4-0.4-1.7l0.5-0.1c0.1,0.2,0.4,1,0.5,1.6L277.6,361.5L277.6,361.5z M279,358.4c0.3,0.3,0.7,0.8,1,1.4
	l-0.7,0.5c-0.3-0.6-0.6-1.1-1-1.4L279,358.4L279,358.4z"/>
<path class="st21" d="M290.9,358.7c-0.4,0.5-0.8,0.8-0.8,0.8s0,0,0,0c-0.1-0.1-0.7-0.4-0.7-0.4c1.1-0.6,1.9-2.1,2-2.7
	c0,0,0.6,0.2,0.8,0.3c0.1,0,0.1,0.1,0.1,0.1c0,0-0.1,0.1-0.2,0.1h0c-0.1,0.3-0.5,0.9-0.9,1.6h2.6c-0.4-0.6-0.9-1.2-1.1-1.8l0.7-0.3
	c0.5,1,1.3,2,2.2,2.5c0,0-0.6,0.3-0.8,0.5c0,0,0,0,0,0c0,0-0.3-0.2-0.5-0.5c0,2.1-0.2,3-1.5,3c-0.4,0-0.4,0-0.5-0.1
	c0-0.3-0.5-0.8-0.5-0.8c0.3,0,0.6,0.1,0.9,0.1s0.5-0.1,0.6-0.4c0.1-0.4,0.2-1.2,0.2-1.7h-0.9c-0.1,0.9-0.5,2.4-2.3,2.9
	c0,0,0,0-0.1,0c0,0,0,0,0,0c-0.1-0.2-0.7-0.6-0.7-0.6c1.8-0.3,2.2-1.5,2.3-2.4h-0.8L290.9,358.7L290.9,358.7z"/>
<path class="st21" d="M284.1,359.7c0.1,0.8,0.8,1,1.4,1c0.8,0,1.7-0.7,1.7-2.5c-0.4,0.5-1.2,0.9-1.9,0.9c-1.9,0-2.9-1.3-2.9-2.8
	c0-1.2,0.9-3,3.1-3s3.2,1.7,3.2,4.2s-0.8,4.7-3.4,4.7c-1.4,0-2.8-0.6-2.9-2.3L284.1,359.7L284.1,359.7z M287,356.1
	c0-0.8-0.5-1.7-1.6-1.7c-0.9,0-1.5,0.8-1.5,1.6c0,0.9,0.5,1.5,1.5,1.5S287,356.9,287,356.1L287,356.1z"/>
<path class="st21" d="M287.7,305.6c0,0-0.1,0-0.1,0.1c0,0.1-0.1,1.1-0.4,1.7c0,0,0,0,0,0l0,0c-0.2-0.1-0.7-0.1-0.7-0.1
	c0.4-0.7,0.5-1.6,0.5-1.9c0,0,0.5,0,0.6,0.1C287.7,305.5,287.7,305.5,287.7,305.6V305c-0.2,0-0.5,0.1-0.7,0.1c0,0.1,0,0.2-0.1,0.2
	c-0.1,0-0.2-0.8-0.2-0.8c0.2,0,0.4,0,0.5,0c0.1-0.1,0.2-0.3,0.3-0.4c-0.2-0.2-0.5-0.6-0.9-0.9l0.4-0.5c0.1,0,0.1,0.1,0.2,0.2
	c0.3-0.5,0.6-1.1,0.6-1.1c0,0,0.5,0.2,0.7,0.4c0,0,0,0,0,0.1s0,0.1-0.1,0.1c0,0,0,0-0.1,0c-0.1,0.1-0.4,0.7-0.7,1.1
	c0.1,0.1,0.2,0.2,0.2,0.3c0.4-0.5,0.6-1,0.7-1.2c0,0,0.5,0.3,0.6,0.4c0,0,0.1,0.1,0.1,0.1c0,0,0,0.1-0.1,0.1c0,0-0.1,0-0.1,0
	c0,0-0.3,0.5-0.7,0.9l0.4-0.2c0,0.1,0.1,0.2,0.2,0.3c0.6-0.7,0.9-1.8,0.9-2.2c0,0,0.6,0.1,0.8,0.1c0,0,0.1,0,0.1,0.1s0,0.1-0.2,0.1
	c0,0.2-0.1,0.4-0.2,0.7h1.9v0.2c0,0.4,0,0.8,0,1.3c0,2.1-0.2,3.3-1.7,3.3c-0.1,0-0.2,0-0.3,0c0,0-0.1,0-0.1,0
	c-0.1-0.3-0.5-0.8-0.5-0.8c0.3,0,0.5,0.1,0.8,0.1c0.8,0,0.9-0.7,0.9-2.5v-0.9h-1.4c-0.1,0.3-0.3,0.6-0.5,0.9c0,0,0,0,0,0h0
	c-0.2-0.1-0.5-0.1-0.6-0.2c0.1,0.3,0.3,0.6,0.4,0.9l-0.5,0.2c0-0.1,0-0.2-0.1-0.4c-0.1,0-0.2,0-0.4,0.1l0,2.7h-0.7L287.7,305.6
	L287.7,305.6z M288.6,304.3c-0.1-0.1-0.1-0.3-0.2-0.4c-0.1,0.2-0.3,0.3-0.4,0.5C288.3,304.4,288.5,304.3,288.6,304.3L288.6,304.3z
	 M288.8,307.1c0-0.6-0.2-1.4-0.4-1.7l0.5-0.1c0.1,0.2,0.4,1,0.5,1.6L288.8,307.1L288.8,307.1z M290.2,304.1c0.3,0.3,0.7,0.8,1,1.4
	l-0.7,0.5c-0.3-0.6-0.6-1.1-1-1.4L290.2,304.1L290.2,304.1z"/>
<path class="st21" d="M302.8,304.3c-0.4,0.5-0.8,0.8-0.8,0.8s0,0,0,0c-0.1-0.1-0.7-0.4-0.7-0.4c1.1-0.6,1.9-2.1,2-2.7
	c0,0,0.6,0.2,0.8,0.3c0.1,0,0.1,0.1,0.1,0.1c0,0-0.1,0.1-0.2,0.1h0c-0.1,0.3-0.5,0.9-0.9,1.6h2.6c-0.4-0.6-0.9-1.2-1.1-1.8l0.7-0.3
	c0.5,1,1.3,2,2.2,2.5c0,0-0.6,0.3-0.8,0.5c0,0,0,0,0,0c0,0-0.3-0.2-0.5-0.5c0,2.1-0.2,3-1.5,3c-0.4,0-0.4,0-0.5-0.1
	c0-0.3-0.5-0.8-0.5-0.8c0.3,0,0.6,0.1,0.9,0.1s0.5-0.1,0.6-0.4c0.1-0.4,0.2-1.2,0.2-1.7h-0.9c-0.1,0.9-0.5,2.4-2.3,2.9
	c0,0,0,0-0.1,0c0,0,0,0,0,0c-0.1-0.2-0.7-0.6-0.7-0.6c1.8-0.3,2.2-1.5,2.3-2.4h-0.8L302.8,304.3L302.8,304.3z"/>
<path class="st21" d="M298.1,300.9c-0.1-0.6-0.5-0.9-1.2-0.9c-0.8,0-1.6,0.8-1.7,2.5c0.4-0.5,1.3-0.8,1.9-0.8c1.9,0,2.9,1.4,2.9,2.8
	v0c0,1.3-0.9,3-3.1,3s-3.2-1.8-3.2-4.1c0-2.2,0.8-4.7,3.3-4.7c1.4,0,2.7,0.8,2.8,2.2L298.1,300.9L298.1,300.9z M298.3,304.6
	c0-0.8-0.4-1.6-1.4-1.6c-1,0-1.6,0.8-1.6,1.5v0c0,0.8,0.5,1.7,1.5,1.7S298.3,305.5,298.3,304.6L298.3,304.6z"/>
<path class="st21" d="M290,241.4c0,0-0.1,0-0.1,0.1c0,0.1-0.1,1.1-0.4,1.7c0,0,0,0,0,0l0,0c-0.2-0.1-0.7-0.1-0.7-0.1
	c0.4-0.7,0.5-1.6,0.5-1.9c0,0,0.5,0.1,0.6,0.1C290,241.3,290,241.3,290,241.4v-0.6c-0.2,0-0.5,0.1-0.7,0.1c0,0.1,0,0.2-0.1,0.2
	c-0.1,0-0.2-0.8-0.2-0.8c0.2,0,0.4,0,0.5,0c0.1-0.1,0.2-0.3,0.3-0.4c-0.2-0.2-0.5-0.6-0.9-0.9l0.4-0.5c0.1,0.1,0.1,0.1,0.2,0.2
	c0.3-0.4,0.6-1.1,0.6-1.1c0,0,0.5,0.2,0.7,0.4c0,0,0,0.1,0,0.1s0,0.1-0.1,0.1c0,0,0,0-0.1,0c-0.1,0.1-0.4,0.7-0.7,1.1
	c0.1,0.1,0.2,0.2,0.2,0.3c0.4-0.5,0.6-1,0.7-1.2c0,0,0.5,0.3,0.6,0.4c0,0,0.1,0.1,0.1,0.1c0,0,0,0.1-0.1,0.1c0,0-0.1,0-0.1,0
	c0,0.1-0.3,0.5-0.7,0.9l0.4-0.2c0,0.1,0.1,0.2,0.2,0.3c0.6-0.7,0.9-1.8,0.9-2.2c0,0,0.6,0.1,0.8,0.1c0,0,0.1,0,0.1,0.1
	s0,0.1-0.2,0.1c0,0.2-0.1,0.4-0.2,0.7h1.9v0.2c0,0.4,0,0.8,0,1.3c0,2.1-0.2,3.3-1.7,3.3c-0.1,0-0.2,0-0.3,0c0,0-0.1,0-0.1,0
	c-0.1-0.3-0.5-0.8-0.5-0.8c0.3,0,0.5,0.1,0.8,0.1c0.8,0,0.9-0.7,0.9-2.5v-0.9h-1.4c-0.1,0.3-0.3,0.6-0.5,0.9c0,0,0,0,0,0h0
	c-0.2-0.1-0.5-0.1-0.6-0.2c0.1,0.3,0.3,0.6,0.4,0.9l-0.5,0.2c0-0.1,0-0.2-0.1-0.4c-0.1,0-0.2,0-0.4,0.1l0,2.7H290L290,241.4
	L290,241.4z M290.9,240.2c-0.1-0.1-0.1-0.3-0.2-0.4c-0.1,0.2-0.3,0.3-0.4,0.5C290.6,240.2,290.8,240.2,290.9,240.2L290.9,240.2z
	 M291.2,243c0-0.6-0.2-1.4-0.4-1.7l0.5-0.1c0.1,0.2,0.4,1,0.5,1.6L291.2,243L291.2,243z M292.5,239.9c0.3,0.3,0.7,0.8,1,1.4
	l-0.7,0.5c-0.3-0.6-0.6-1.1-1-1.4L292.5,239.9L292.5,239.9z"/>
<path class="st21" d="M305.1,240.2c-0.4,0.5-0.8,0.8-0.8,0.8s0,0,0,0c-0.1-0.1-0.7-0.4-0.7-0.4c1.1-0.6,1.9-2.1,2-2.7
	c0,0,0.6,0.2,0.8,0.3c0.1,0,0.1,0.1,0.1,0.1c0,0.1-0.1,0.1-0.2,0.1h0c-0.1,0.3-0.5,0.9-0.9,1.6h2.6c-0.4-0.6-0.9-1.2-1.1-1.8
	l0.7-0.3c0.5,1,1.3,2,2.2,2.5c0,0-0.6,0.3-0.8,0.5c0,0,0,0,0,0c0,0-0.3-0.2-0.5-0.5c0,2.1-0.2,3-1.5,3c-0.4,0-0.4,0-0.5-0.1
	c0-0.3-0.5-0.8-0.5-0.8c0.3,0,0.6,0.1,0.9,0.1s0.5-0.1,0.6-0.4c0.1-0.4,0.2-1.2,0.2-1.7h-0.9c-0.1,0.9-0.5,2.4-2.3,2.9
	c0,0,0,0-0.1,0c0,0,0,0,0,0c-0.1-0.2-0.7-0.6-0.7-0.6c1.8-0.3,2.2-1.5,2.3-2.4h-0.8L305.1,240.2L305.1,240.2z"/>
<path class="st21" d="M297.7,240.8c0.1,1,0.7,1.3,1.4,1.3c1.1,0,1.6-0.8,1.6-1.7s-0.5-1.7-1.5-1.7c-0.5,0-1.1,0.2-1.4,0.9h-1.6
	l0.6-4.8h5v1.4H298l-0.3,1.9c0.5-0.4,1.1-0.5,1.5-0.5h0.1c1.9,0,2.9,1.3,2.9,2.9c0,1.9-1.3,3.1-3.2,3.1c-1.7,0-3-0.8-3.1-2.6
	L297.7,240.8L297.7,240.8z"/>
<path class="st21" d="M283.1,281.6c0,0-0.1,0-0.1,0.1c0,0.1-0.1,1.1-0.4,1.7c0,0,0,0,0,0l0,0c-0.2-0.1-0.7-0.1-0.7-0.1
	c0.4-0.7,0.5-1.6,0.5-1.9c0,0,0.5,0,0.6,0.1C283.1,281.5,283.1,281.5,283.1,281.6V281c-0.2,0-0.5,0.1-0.7,0.1c0,0.1,0,0.2-0.1,0.2
	c-0.1,0-0.2-0.8-0.2-0.8c0.2,0,0.4,0,0.5,0c0.1-0.1,0.2-0.3,0.3-0.4c-0.2-0.2-0.5-0.6-0.9-0.9l0.4-0.5c0.1,0,0.1,0.1,0.2,0.2
	c0.3-0.5,0.6-1.1,0.6-1.1c0,0,0.5,0.2,0.7,0.4c0,0,0,0,0,0.1s0,0.1-0.1,0.1c0,0,0,0-0.1,0c-0.1,0.1-0.4,0.7-0.7,1.1
	c0.1,0.1,0.2,0.2,0.2,0.3c0.4-0.5,0.6-1,0.7-1.2c0,0,0.5,0.3,0.6,0.4c0,0,0.1,0.1,0.1,0.1c0,0,0,0.1-0.1,0.1c0,0-0.1,0-0.1,0
	c0,0-0.3,0.5-0.7,0.9l0.4-0.2c0,0.1,0.1,0.2,0.2,0.3c0.6-0.7,0.9-1.8,0.9-2.2c0,0,0.6,0.1,0.8,0.1c0,0,0.1,0,0.1,0.1s0,0.1-0.2,0.1
	c0,0.2-0.1,0.4-0.2,0.7h1.9v0.2c0,0.4,0,0.8,0,1.3c0,2.1-0.2,3.3-1.7,3.3c-0.1,0-0.2,0-0.3,0c0,0-0.1,0-0.1,0
	c-0.1-0.3-0.5-0.8-0.5-0.8c0.3,0,0.5,0.1,0.8,0.1c0.8,0,0.9-0.7,0.9-2.5v-0.9h-1.4c-0.1,0.3-0.3,0.6-0.5,0.9c0,0,0,0,0,0h0
	c-0.2-0.1-0.5-0.1-0.6-0.2c0.1,0.3,0.3,0.6,0.4,0.9l-0.5,0.2c0-0.1,0-0.2-0.1-0.4c-0.1,0-0.2,0-0.4,0.1l0,2.7h-0.7L283.1,281.6
	L283.1,281.6z M284,280.3c-0.1-0.1-0.1-0.3-0.2-0.4c-0.1,0.2-0.3,0.3-0.4,0.5C283.6,280.4,283.9,280.4,284,280.3L284,280.3z
	 M284.2,283.1c0-0.6-0.2-1.4-0.4-1.7l0.5-0.1c0.1,0.2,0.4,1,0.5,1.6L284.2,283.1L284.2,283.1z M285.6,280.1c0.3,0.3,0.7,0.8,1,1.4
	l-0.7,0.5c-0.3-0.6-0.6-1.1-1-1.4L285.6,280.1L285.6,280.1z"/>
<path class="st21" d="M298.2,280.3c-0.4,0.5-0.8,0.8-0.8,0.8s0,0,0,0c-0.1-0.1-0.7-0.4-0.7-0.4c1.1-0.6,1.9-2.1,2-2.7
	c0,0,0.6,0.2,0.8,0.3c0.1,0,0.1,0.1,0.1,0.1c0,0-0.1,0.1-0.2,0.1h0c-0.1,0.3-0.5,0.9-0.9,1.6h2.6c-0.4-0.6-0.9-1.2-1.1-1.8l0.7-0.3
	c0.5,1,1.3,2,2.2,2.5c0,0-0.6,0.3-0.8,0.5c0,0,0,0,0,0c0,0-0.3-0.2-0.5-0.5c0,2.1-0.2,3-1.5,3c-0.4,0-0.4,0-0.5-0.1
	c0-0.3-0.5-0.8-0.5-0.8c0.3,0,0.6,0.1,0.9,0.1s0.5-0.1,0.6-0.4c0.1-0.4,0.2-1.2,0.2-1.7h-0.9c-0.1,0.9-0.5,2.4-2.3,2.9
	c0,0,0,0-0.1,0c0,0,0,0,0,0c-0.1-0.2-0.7-0.6-0.7-0.6c1.8-0.3,2.2-1.5,2.3-2.4h-0.8L298.2,280.3L298.2,280.3z"/>
<path class="st21" d="M290.6,281.3c0.1,0.8,0.8,1,1.4,1c0.8,0,1.7-0.7,1.7-2.5c-0.4,0.5-1.2,0.9-1.9,0.9c-1.9,0-2.9-1.3-2.9-2.8
	c0-1.2,0.9-3,3.1-3s3.2,1.7,3.2,4.2s-0.8,4.7-3.4,4.7c-1.4,0-2.8-0.6-2.9-2.3L290.6,281.3L290.6,281.3z M293.6,277.8
	c0-0.8-0.5-1.7-1.6-1.7c-0.9,0-1.5,0.8-1.5,1.6c0,0.9,0.5,1.5,1.5,1.5S293.6,278.5,293.6,277.8L293.6,277.8z"/>
<path class="st24" d="M270.9,299.5c0,0,17.9,2.2,18.2,23.3"/>
<path class="st24" d="M274.1,257c0,0,13.4,14-3.3,42.4"/>
<path class="st24" d="M284.3,228.3c0,0,9.6,17.2-10.2,28.8"/>
<circle class="st21" cx="239.1" cy="354.1" r="1.7"/>
<circle class="st21" cx="289" cy="322.8" r="1.7"/>
<circle class="st21" cx="270.9" cy="299.5" r="1.7"/>
<circle class="st21" cx="274.1" cy="257" r="1.7"/>
<circle class="st21" cx="284.3" cy="228.3" r="1.7"/>
<path class="st21" d="M314.3,243.3l-0.1,0.1l-1.6-1.6l-1.6,1.6l-0.1-0.1l1.6-1.6l-1.6-1.6l0.1-0.1l1.6,1.6l1.6-1.6l0.1,0.1l-1.6,1.6
	L314.3,243.3z M311.9,241.7c0,0.2-0.2,0.4-0.4,0.4s-0.4-0.2-0.4-0.4s0.2-0.4,0.4-0.4S311.9,241.5,311.9,241.7z M313,240.7
	c0,0.2-0.2,0.4-0.4,0.4s-0.4-0.2-0.4-0.4s0.2-0.4,0.4-0.4S313,240.4,313,240.7z M313,242.8c0,0.2-0.2,0.4-0.4,0.4s-0.4-0.2-0.4-0.4
	s0.2-0.4,0.4-0.4S313,242.6,313,242.8z M314.1,241.7c0,0.2-0.2,0.4-0.4,0.4s-0.4-0.2-0.4-0.4s0.2-0.4,0.4-0.4
	S314.1,241.5,314.1,241.7z"/>
<path class="st21" d="M307.2,284.2l-0.1,0.1l-1.6-1.6l-1.6,1.6l-0.1-0.1l1.6-1.6l-1.6-1.6l0.1-0.1l1.6,1.6l1.6-1.6l0.1,0.1l-1.6,1.6
	L307.2,284.2z M304.8,282.6c0,0.2-0.2,0.4-0.4,0.4s-0.4-0.2-0.4-0.4s0.2-0.4,0.4-0.4S304.8,282.4,304.8,282.6z M305.9,281.5
	c0,0.2-0.2,0.4-0.4,0.4s-0.4-0.2-0.4-0.4s0.2-0.4,0.4-0.4S305.9,281.3,305.9,281.5z M305.9,283.7c0,0.2-0.2,0.4-0.4,0.4
	s-0.4-0.2-0.4-0.4s0.2-0.4,0.4-0.4S305.9,283.5,305.9,283.7z M307,282.6c0,0.2-0.2,0.4-0.4,0.4s-0.4-0.2-0.4-0.4s0.2-0.4,0.4-0.4
	S307,282.4,307,282.6z"/>
<path class="st21" d="M312.2,306.6l-0.1,0.1l-1.6-1.6l-1.6,1.6l-0.1-0.1l1.6-1.6l-1.6-1.6l0.1-0.1l1.6,1.6l1.6-1.6l0.1,0.1l-1.6,1.6
	L312.2,306.6z M309.8,305c0,0.2-0.2,0.4-0.4,0.4s-0.4-0.2-0.4-0.4s0.2-0.4,0.4-0.4S309.8,304.8,309.8,305z M310.9,303.9
	c0,0.2-0.2,0.4-0.4,0.4s-0.4-0.2-0.4-0.4s0.2-0.4,0.4-0.4S310.9,303.7,310.9,303.9z M310.9,306.1c0,0.2-0.2,0.4-0.4,0.4
	s-0.4-0.2-0.4-0.4s0.2-0.4,0.4-0.4S310.9,305.9,310.9,306.1z M311.9,305c0,0.2-0.2,0.4-0.4,0.4s-0.4-0.2-0.4-0.4s0.2-0.4,0.4-0.4
	S311.9,304.8,311.9,305z"/>
<path class="st21" d="M300.5,362.4l-0.1,0.1l-1.6-1.6l-1.6,1.6l-0.1-0.1l1.6-1.6l-1.6-1.6l0.1-0.1l1.6,1.6l1.6-1.6l0.1,0.1l-1.6,1.6
	L300.5,362.4z M298.1,360.8c0,0.2-0.2,0.4-0.4,0.4s-0.4-0.2-0.4-0.4s0.2-0.4,0.4-0.4S298.1,360.6,298.1,360.8z M299.1,359.7
	c0,0.2-0.2,0.4-0.4,0.4s-0.4-0.2-0.4-0.4s0.2-0.4,0.4-0.4S299.1,359.5,299.1,359.7z M299.1,361.9c0,0.2-0.2,0.4-0.4,0.4
	s-0.4-0.2-0.4-0.4s0.2-0.4,0.4-0.4S299.1,361.6,299.1,361.9z M300.2,360.8c0,0.2-0.2,0.4-0.4,0.4s-0.4-0.2-0.4-0.4s0.2-0.4,0.4-0.4
	S300.2,360.6,300.2,360.8z"/>
<line class="st24" x1="310.5" y1="361.3" x2="326.7" y2="361.3"/>
<g>
	<path class="st25" d="M390.9,224.7c0.1,0,0.1,0,0.2,0c0,0.1,0,0.1-0.1,0.2l0.3,1.1l1.7-0.5c0,0.2,0.3,1.3,0.3,1.5
		c0.2,1.2,0.3,1.7,0.4,1.8c0.1,0.2,0.1,0.2,0.4,0.1s0.3-0.1,0.2-1c0.2,0.2,0.6,0.2,0.9,0.2c0.1,1.1-0.1,1.3-0.7,1.5l-0.4,0.1
		c-0.5,0.1-0.8,0.2-1-0.4c0-0.1,0-0.2-0.1-0.3l-0.5-2.6l-0.9,0.3c0.1,0.6,0.2,1.7-0.2,2.7c-0.3,0.6-0.6,1.1-1.2,1.5
		c-0.4-0.3-0.6-0.4-0.8-0.4c0.6-0.4,1.8-1.4,1.4-3.6l-1.9,0.5l-0.2-0.7l1.9-0.6c-0.1-0.2-0.3-1.2-0.4-1.4L390.9,224.7L390.9,224.7z"
		/>
	<path class="st25" d="M390.8,231.4l0.8-0.2c0,0,0.1,0,0.2,0s-0.1,0.1-0.1,0.2l0.5,1.6l0.5-0.4c0.3,0.3,0.4,0.5,0.6,0.8l-0.7-2.4
		l0.8-0.2c0,0,0.1,0,0.1,0c0,0.1,0,0.1-0.1,0.1l0.4,1.6l0.6-0.4c0.1,0.1,0.3,0.3,0.7,0.9l-0.7-2.6l0.8-0.2c0.1,0,0.1,0,0.2,0.1
		c0,0.1,0,0.1-0.1,0.2l1.5,5.4l-0.8,0.2l-0.7-2.5c-0.1,0.1-0.2,0.1-0.5,0.4c-0.3-0.6-0.8-1.1-0.9-1.2l1,3.4l-0.8,0.2l-0.6-2.1
		c-0.2,0.1-0.2,0.2-0.5,0.4c-0.1-0.2-0.4-0.7-0.8-1.2l0,0.2c0.3,0.9,0.4,1.4,0.3,2.1c0,0.6-0.2,1.3-0.5,1.7
		c-0.2-0.1-0.5-0.2-0.7-0.3c0.6-1.1,0.5-2,0.3-2.9l-0.2-0.8c0,0,0,0,0,0c0,0.3,0.2,0.9,0.1,1.7c-0.3,0-0.7,0-0.7,0
		c0-0.2,0.1-0.9-0.1-1.8l0.7-0.1c0,0,0.1,0,0.1,0L390.8,231.4L390.8,231.4z"/>
	<path class="st25" d="M394.2,240.3l0.9-0.3l0.2,0.6l-0.8,0.2c0.1,0.1,0.6,0.4,1,0.5c-0.2,0.2-0.3,0.3-0.4,0.6
		c-0.2-0.1-0.4-0.2-0.6-0.4l0.4,1.4l-0.7,0.2l-0.4-1.4c-0.1,0.4-0.2,0.8-0.4,1.2c-0.2-0.1-0.4-0.2-0.7-0.2c0.4-0.6,0.6-1.2,0.7-1.7
		l-0.9,0.2l-0.2-0.6l1.1-0.3l-0.1-0.4l-1.1,0.3l-0.2-0.6l0.7-0.2c-0.2-0.3-0.3-0.4-0.4-0.5l0.3-0.2L392,239l-0.2-0.6l1-0.3l-0.2-0.6
		l0.8-0.1c0.1,0,0.1,0,0.2,0c0,0,0,0.1-0.1,0.1l0.1,0.4l0.9-0.2l0.2,0.6l-0.4,0.1c0.2,0,0.2,0,0.2,0c0,0.1,0,0.1-0.1,0.1
		c0,0.2-0.1,0.4-0.1,0.5l0.7-0.2l0.2,0.6l-0.9,0.2c0,0.1-0.1,0.1-0.2,0.2L394.2,240.3L394.2,240.3z M393,238.7
		c0.2,0.3,0.3,0.4,0.4,0.5l-0.3,0.2l0.6-0.2c0.1-0.3,0.1-0.7,0.1-0.8L393,238.7L393,238.7z M394.7,237.4l0.4-0.1
		c0.4-0.1,1.2-0.6,1.6-0.9l0.6,0.4c0,0,0,0,0,0.1c0,0.1,0,0.1-0.1,0.1c0,0-0.1,0-0.2,0c-0.5,0.3-0.9,0.5-1.5,0.8l0.2,0.8l1.8-0.5
		l0.2,0.7l-0.6,0.2l0.9,3.1l-0.7,0.2l-0.9-3.1l-0.5,0.1c0.1,0.5,0.6,2,0,3.4c-0.2-0.1-0.4-0.1-0.8-0.1c0.5-1.1,0.3-2.1,0.1-3
		L394.7,237.4L394.7,237.4z"/>
	<path class="st25" d="M399,245.1l-0.6,0.2l0.2,0.7l1.1-0.3l0.2,0.7l-1.1,0.3l0.5,1.8l-0.7,0.2l-0.5-1.8l-1,0.3l-0.2-0.7l1-0.3
		l-0.2-0.7l-0.7,0.2l-0.2-0.6c-0.1,0.1-0.1,0.2-0.1,0.2c-0.1-0.1-0.2-0.1-0.4-0.2l0.5,1.9l-0.8,0.2l0.1,0.3l1.1-0.3l0.2,0.6
		l-1.1,0.3l0.3,1l-0.7,0.2l-0.3-1l-1,0.3l-0.2-0.6l1-0.3l-0.1-0.3l-0.9,0.2l-0.6-2.2l0.9-0.2l-0.1-0.3l-1,0.3l-0.2-0.6l1-0.3
		l-0.2-0.6l0.7-0.2c0.1,0,0.1,0,0.1,0c0,0.1,0,0.1-0.1,0.1l0.1,0.4l1-0.3l0.2,0.6l-1,0.3l0.1,0.3l0.8-0.2v0c0.6-0.9,0.7-1.6,0.7-1.8
		l0.9-0.1c0,0,0.1,0,0.1,0c0,0.1-0.1,0.1-0.1,0.1c0.4,0.3,1,0.7,1.8,0.9c-0.2,0.2-0.2,0.4-0.3,0.7c-0.1,0-0.2-0.1-0.4-0.2L399,245.1
		L399,245.1z M394.6,246.1l1.1-0.3l-0.1-0.3l-1.1,0.3L394.6,246.1z M395.9,246.3l-1.1,0.3l0.1,0.4l1.1-0.3L395.9,246.3z
		 M398.8,244.5c-0.3-0.1-0.9-0.4-1.3-0.8c-0.1,0.4-0.3,0.9-0.6,1.3L398.8,244.5L398.8,244.5z"/>
	<path class="st25" d="M397.5,250.5C397.5,250.5,397.5,250.5,397.5,250.5c0.1,0.1,0,0.1-0.1,0.2c-0.3,0.9-0.3,1-0.6,1.7
		c0.1-0.1,0.3-0.1,0.6-0.2c-0.2-0.2-0.2-0.3-0.3-0.4l0.4-0.3c0.4,0.4,0.7,0.9,0.8,1c-0.1,0.1-0.4,0.3-0.5,0.4c0-0.1,0-0.1-0.1-0.2
		c-0.1,0-0.2,0.1-0.3,0.2l0.7,2.6l-0.7,0.2l-0.6-2c0,0,0,0.1-0.1,0.1c0.1,0.4,0.1,0.8,0.1,1.4c-0.2,0-0.3,0-0.6,0c0-0.3,0-1-0.1-1.5
		l0.6-0.1c0.1,0,0.1,0,0.1,0l-0.1-0.4c-0.1,0-0.5,0.2-0.6,0.3c0,0,0,0.2-0.1,0.2c0,0-0.1,0-0.1-0.1l-0.3-0.6c0.1,0,0.2-0.1,0.5-0.1
		c0,0,0.1-0.3,0.2-0.5c-0.1-0.1-0.5-0.3-1.1-0.5l0.2-0.7c0.1,0,0.1,0.1,0.3,0.1c0-0.1,0.2-0.6,0.2-1.2l0.7,0.1c0,0,0.1,0,0.1,0.1
		c0,0.1,0,0.1-0.2,0.1c-0.1,0.4-0.1,0.5-0.3,1.1c0.2,0.1,0.2,0.1,0.2,0.1c0-0.1,0.2-0.5,0.3-1.1L397.5,250.5L397.5,250.5z
		 M397.9,252.9c0.1,0.2,0.2,0.6,0.5,1.1c-0.2,0.1-0.3,0.2-0.5,0.3c-0.2-0.3-0.4-0.8-0.5-1.1L397.9,252.9L397.9,252.9z M400.1,252.1
		c0.1,0.2,0.2,0.3,0.3,0.4c0.1-0.1,0.3-0.4,0.5-0.8l0.6,0.2c0,0,0.1,0,0.1,0.1s0,0.1-0.1,0.1c0,0,0,0-0.1,0
		c-0.2,0.3-0.3,0.6-0.5,0.8c0.2,0.2,0.6,0.5,1.2,0.6c-0.1,0.1-0.2,0.2-0.3,0.6c-0.2-0.1-0.8-0.4-1.3-0.8l0.2,0.7
		c0.2,0.6-0.6,0.9-0.9,1c0-0.1-0.1-0.3-0.5-0.6c0.1,0,0.3,0,0.5-0.1c0.1,0,0.3-0.1,0.2-0.3l-0.6-2l-1,0.3l-0.6-2.2l0.8-0.2
		c0.1-0.3,0-0.5,0-0.7l0.8-0.1c0,0,0.1,0,0.1,0.1c0,0.1,0,0.1-0.1,0.2c0,0.2,0,0.2-0.1,0.4l1.2-0.4l0.6,2.2l-1,0.3L400.1,252.1
		L400.1,252.1z M398.3,253.3l-0.2-0.6l0.9-0.3l0.3,0.2c0.1,1.2-0.4,2.1-0.5,2.4c-0.3-0.1-0.6-0.2-0.7-0.2c0.3-0.4,0.5-1,0.5-1.6
		L398.3,253.3L398.3,253.3z M398.6,250.7l1.3-0.4l-0.1-0.3l-1.3,0.4L398.6,250.7L398.6,250.7z M400.1,250.8l-1.3,0.4l0.1,0.4
		l1.3-0.4L400.1,250.8z"/>
</g>
<path class="st13" d="M356.4,321.7c0,1.5-1.2,2.7-2.7,2.7s-2.7-1.2-2.7-2.7s1.2-2.7,2.7-2.7S356.4,320.2,356.4,321.7"/>
<g>
	<path class="st17" d="M356.1,315.8V315h2.5v-1.6l0.8,0c0.1,0,0.1,0,0.1,0.1c0,0.1-0.1,0.1-0.1,0.1v1.4h2.5v0.8h-2.5
		c0.3,0.9,0.9,2.1,2.5,2.9c-0.4,0.3-0.5,0.4-0.6,0.6c-0.7-0.3-1.8-1.2-2.4-2.5c-0.7,1.6-1.8,2.2-2.6,2.5c-0.1-0.1-0.2-0.4-0.6-0.7
		c0.5-0.2,2.2-0.9,2.6-2.9L356.1,315.8L356.1,315.8z"/>
	<path class="st17" d="M368.3,318.2v0.8h-5.9v-0.8H368.3z M368,313.8v0.8h-5.3v-0.8H368z M367.6,315.9v0.8h-4.4v-0.8H367.6z"/>
	<path class="st17" d="M372.2,319.3h-0.8v-1.5c-0.1,0.2-0.9,1-2,1.5c-0.2-0.3-0.3-0.4-0.7-0.6c1.1-0.4,1.9-1,2.1-1.3h-1.3V315h1.9
		v-0.3h-2.5V314h2.5v-0.6l0.8,0c0,0,0.1,0,0.1,0.1c0,0.1-0.1,0.1-0.2,0.1v0.4h2.5v0.6h-2.5v0.3h1.9v2.4h-1.3c0.6,0.5,1.3,0.9,2,1.2
		c-0.4,0.4-0.5,0.5-0.6,0.6c-0.3-0.1-1.1-0.6-2-1.5L372.2,319.3L372.2,319.3z M371.4,315.6h-1.1v0.4h1.1V315.6z M371.4,316.4h-1.1
		v0.4h1.1V316.4z M372.2,316h1.1v-0.4h-1.1V316z M372.2,316.8h1.1v-0.4h-1.1V316.8z"/>
</g>
<g>
	<path class="st26" d="M327.8,334.7h-0.8v-1.5l0.8,0c0.1,0,0.1,0,0.1,0.1c0,0.1-0.1,0.1-0.1,0.1v0.4h0.8v-0.7h-1v-3.6h1.1
		c0.1-0.3,0.2-0.4,0.2-0.6l0.9,0.1c0.1,0,0.1,0,0.1,0.1c0,0.1-0.1,0.1-0.2,0.1c0,0.1-0.1,0.2-0.1,0.3h2.2v2.1h-3.4v0.3h4.3v0.5h-4.3
		v0.3h4.2c0,0.6-0.1,1.5-0.4,1.9c-0.3,0.4-0.5,0.4-1.3,0.4c0-0.2-0.1-0.3-0.1-0.5h-3.1L327.8,334.7L327.8,334.7z M328.5,330.3h2.6
		V330h-2.6V330.3z M331.1,330.7h-2.6v0.3h2.6V330.7z M330.2,333.8v-0.6l0.8,0c0.1,0,0.2,0,0.2,0.1c0,0.1-0.1,0.1-0.2,0.1v0.6
		c0.2,0,0.3,0,0.4,0c0.3,0,0.3-0.1,0.4-0.2c0-0.1,0.1-0.5,0.1-0.8H329l0.4,0c0.1,0,0.2,0,0.2,0.1c0,0.1-0.1,0.1-0.2,0.1v0.5H330.2z"
		/>
	<path class="st26" d="M337.3,334.1c0,0.7-0.4,0.7-1.1,0.7c-0.1-0.3-0.1-0.4-0.4-0.8c0.1,0,0.3,0.1,0.4,0.1c0.2,0,0.2,0,0.2-0.3
		v-1.1h-1.4v-2.4h1.1c0.1-0.3,0.1-0.4,0.2-0.5h-1.7v0.8c0,1.2,0,2.9-0.8,4.1c-0.1-0.1-0.5-0.2-0.7-0.3c0.6-1,0.8-1.6,0.8-3.8v-1.4
		h5.2v0.6h-1.8c0,0,0,0,0,0c0,0.1-0.1,0.1-0.2,0.1c-0.1,0.2-0.1,0.3-0.1,0.3h1.6v2.4h-1.4L337.3,334.1L337.3,334.1z M336.2,333.2
		C336.2,333.2,336.2,333.2,336.2,333.2c0.1,0.1,0,0.2-0.1,0.2c-0.3,0.5-0.5,0.9-0.9,1.2c-0.2-0.2-0.5-0.3-0.7-0.4
		c0.6-0.5,0.8-0.9,1-1.3L336.2,333.2L336.2,333.2z M335.9,331.2h2v-0.4h-2V331.2z M337.9,331.8h-2v0.4h2V331.8z M338.1,332.9
		c0.3,0.2,0.9,0.9,1.1,1.3c-0.4,0.3-0.4,0.3-0.6,0.5c-0.1-0.2-0.6-0.9-1.1-1.4L338.1,332.9L338.1,332.9z"/>
	<path class="st26" d="M345.2,334.8c-0.4-0.3-1-1-1.3-1.7c-0.4,0.8-0.8,1.3-1.4,1.7c-0.2-0.2-0.3-0.3-0.7-0.5
		c0.1-0.1,0.2-0.1,0.3-0.2c-0.3,0.1-0.5,0.2-2.2,0.6c0,0,0,0.2-0.1,0.2c0,0-0.1,0-0.1-0.1l-0.1-0.7c0.2,0,0.8-0.1,1-0.2v-0.3
		c0,0-0.3,0.1-0.7,0.2c-0.1-0.4-0.1-0.6-0.2-1.1l0.6-0.1c0.1,0.2,0.2,0.7,0.3,1v-1.2h-0.9v-0.6h0.9v-0.5h-0.5v-0.5
		c-0.1,0.1-0.2,0.1-0.2,0.2c-0.2-0.3-0.3-0.4-0.5-0.5c0.6-0.4,1.1-0.9,1.4-1.5l0.7,0.2c0,0,0.1,0,0.1,0.1s0,0.1-0.2,0.1
		c0.4,0.5,0.6,0.6,0.9,0.8c-0.1,0.1-0.3,0.3-0.5,0.5c-0.2-0.2-0.4-0.3-0.8-0.8c-0.1,0.1-0.3,0.4-0.7,0.8h1.6v0.5
		c0.3-0.5,0.5-1.1,0.5-1.9l0.8,0.1c0.1,0,0.1,0,0.1,0.1c0,0.1-0.1,0.1-0.2,0.1c0,0.2,0,0.3-0.1,0.5h0.4V329l0.8,0c0,0,0.1,0,0.1,0.1
		c0,0.1-0.1,0.1-0.1,0.1v0.9h1.1v0.6h-1.1v0.8h1.3v0.6h-1.2c0.2,0.9,0.7,1.6,1.4,2C345.6,334.3,345.3,334.6,345.2,334.8L345.2,334.8
		z M343.5,330.8H343c-0.1,0.4-0.2,0.6-0.3,0.7c-0.2-0.1-0.3-0.2-0.7-0.3v0.1h-0.6v0.5h0.7v0.6h-0.7v1c0.1-0.3,0.3-0.7,0.3-0.9
		l0.6,0.2c0,0,0.1,0,0.1,0.1c0,0.1-0.1,0.1-0.2,0.1c-0.1,0.3-0.2,0.5-0.3,0.8c0.1,0,0.2-0.1,0.3-0.1c0,0.1,0,0.3,0,0.4
		c0,0.1,0,0.1,0,0.2c0.9-0.6,1.2-1.6,1.2-2h-1.1v-0.6h1.2V330.8L343.5,330.8z M341.5,333.4v0.4c0.1,0,0.4-0.1,0.5-0.1
		C341.9,333.5,341.7,333.4,341.5,333.4z"/>
	<path class="st26" d="M347.7,331.4v2c0,0.1,0,0.3,0.3,0.4c0.3,0.2,0.7,0.2,1.4,0.2c1.4,0,2.3-0.1,2.7-0.1c-0.1,0.2-0.2,0.5-0.2,0.8
		h-2.9c-0.9,0-1.3-0.1-1.7-0.6c-0.1,0.1-0.6,0.5-0.7,0.5c0,0,0,0.1,0,0.1c0,0.1,0,0.1-0.1,0.1c0,0-0.1,0-0.1-0.1l-0.4-0.7
		c0.2-0.1,0.5-0.2,0.8-0.5v-1.5h-0.8v-0.7L347.7,331.4L347.7,331.4z M346.7,329c0.1,0.1,0.6,0.4,1,1c-0.2,0.2-0.5,0.5-0.5,0.6
		c-0.4-0.4-0.7-0.7-1-1L346.7,329L346.7,329z M351.6,330.6v3.2h-0.8v-0.2h-1.7v0.2h-0.8v-3.2h0.9c0-0.1,0.1-0.3,0.1-0.4h-1.5v-0.6
		h0.9c-0.1-0.2-0.2-0.3-0.4-0.5l0.6-0.3c0.3,0.3,0.4,0.5,0.5,0.7c-0.1,0-0.2,0.1-0.3,0.1h1c0.2-0.3,0.2-0.5,0.4-0.8l0.7,0.2
		c0.1,0,0.1,0,0.1,0.1c0,0.1-0.1,0.1-0.1,0.1c0,0.1-0.2,0.3-0.2,0.4h0.9v0.6h-1.8c-0.1,0.2-0.1,0.3-0.2,0.4L351.6,330.6L351.6,330.6
		z M350.8,331.5v-0.3h-1.7v0.3H350.8z M350.8,332.3v-0.4h-1.7v0.4H350.8z M350.8,333.1v-0.4h-1.7v0.4H350.8z"/>
</g>
</svg>
