<?xml version="1.0" encoding="UTF-8"?><svg id="a" xmlns="http://www.w3.org/2000/svg" viewBox="0 0 70.31 61.23"><defs><style>.b{fill:#b69461;}.c{fill:#c30d23;}</style></defs><path class="c" d="M51,32.62c.39,.08,.69-.23,.69-.69v-.93c0-1.08-.15-2.47-.46-3.86-.39-1.39-.93-2.78-1.31-3.78-.23-.46-.31-.85-.46-1-.15-.39-.62-.62-.93-.39-.39,.15-.54,.54-.39,.93,.08,.31,.23,.62,.39,1.08,.39,.93,.93,2.24,1.23,3.55,.23,1.31,.46,2.54,.46,3.55v.69c0,.46,.31,.85,.77,.85Z"/><path class="c" d="M54.01,26.53c-.38-1.62-.92-3.08-1.39-4.24l-.54-1.23c-.23-.31-.54-.46-.93-.31-.46,.15-.62,.54-.46,.92,.15,.31,.39,.77,.54,1.16,.39,1.16,.93,2.62,1.31,4.09,.39,1.47,.54,2.93,.54,4.01v1.08c0,.46,.31,.77,.77,.77,.38,.08,.69-.23,.69-.62,.08-.39,.08-.77,0-1.23,0-1.23-.23-2.85-.54-4.4Z"/><path class="c" d="M52.93,58.92c-2.08,.54-4.4,.69-6.32,.62-1.85,0-3.7-.31-5.24-.69l.31-1.39c1.39,.39,3.24,.69,4.94,.69,2.08,.08,4.09-.31,6.02-.77,.39-.08,.69-.31,.62-.77-.08-.39-.54-.62-.85-.54-3.39,.77-7.09,.92-10.41,0l.23-1.39c1.23,.31,2.85,.62,4.4,.62,1.85,0,3.7-.23,5.4-.62,.39-.08,.69-.46,.62-.93-.08-.46-.46-.69-.93-.62-3.01,.69-6.17,.93-9.18,.08l.31-1.39c1,.31,2.39,.54,3.86,.54,1.77,0,3.55-.23,4.7-.54,.46-.08,.77-.46,.69-1-.15-.46-.62-.69-1.08-.62-3.55,.93-7.87,.85-11.03-1.31-2.54-1.77-4.01-4.78-4.16-8.71-.39-7.94,3.39-17.5,11.41-29.07l-13.03,.93c-4.94,8.1-9.33,18.2-8.87,28.61,.31,7.17,3.39,13.11,8.56,16.73,3.62,2.54,8.1,3.86,12.8,3.86,2.16,0,4.32-.31,6.55-.85,.46-.08,.69-.46,.62-.92-.08-.39-.46-.62-.93-.54Z"/><path class="c" d="M55.24,21.13l-.62-1.31c-.15-.31-.54-.46-.93-.31-.38,.15-.62,.62-.38,1,.08,.31,.31,.69,.54,1.23,.46,1.16,1.08,2.78,1.46,4.47,.39,1.62,.62,3.32,.62,4.63v1.39c0,.46,.31,.77,.77,.77,.39,.08,.69-.23,.69-.62v-1.62c0-1.39-.31-3.16-.69-4.94-.38-1.7-.92-3.47-1.46-4.7Z"/><path class="c" d="M57.87,20.13l-.62-1.47c-.23-.39-.62-.54-1-.39-.39,.15-.54,.62-.39,1.08l.62,1.31c.62,1.31,1.23,3.01,1.62,4.78,.39,1.85,.69,3.78,.69,5.32v1.7c0,.39,.31,.77,.69,.77,.46,0,.77-.31,.77-.62v-1.93c0-1.62-.31-3.62-.77-5.48-.46-2-1-3.78-1.62-5.09Z"/><path class="b" d="M59.25,10.26l-.62-8.17c-.08-1.23-1.16-2.16-2.39-2.08L10.05,3.47l.69,8.02c.08,1.23,1.08,2.16,2.31,2.08l21.13-1.54,13.03-.93,12.03-.85Z"/></svg>