<?xml version="1.0" encoding="UTF-8"?><svg id="a" xmlns="http://www.w3.org/2000/svg" viewBox="0 0 70.31 63.33"><defs><style>.b{fill:none;}.c{fill:#b69461;}.d{fill:#c30d23;}</style></defs><path class="b" d="M15.28,39.48l1.08,.77,.31-.46c.62-.77,1.47-1.47,2.24-2.16,1.08-.85,2.08-1.54,3.16-2.31v-1.47l-1.23,.77c-2.24,1.23-4.01,2.85-5.55,4.86Z"/><path class="b" d="M16.82,42.33c-1.54,2.31-2.08,5.78,.31,7.87,.92,.77,2.47,1.16,3.16,1,1.62-.23,1.7-2.39,1.7-3.78v-10.26c-2.08,1.39-3.93,3.01-5.17,5.17Z"/><path class="b" d="M21.91,30.77c-3.39,1.93-6.55,4.09-8.95,7.09l1.08,.77,.46-.46c.93-1.16,2.08-2.31,3.24-3.16,1.39-1,2.85-2.01,4.32-2.85v-1.54c-.08,.08-.15,.08-.15,.15Z"/><path class="b" d="M44.12,11.57s-3.01-.08-5.86,.08v1.31s2.93-.23,5.78-.08c1.47,.08,2.85,.15,3.86,.39l1.77,.23,.31-1.39-1.85-.15c-1.08-.23-2.54-.23-4.01-.39Z"/><path class="b" d="M44.2,10.02c1.47,.15,3.01,.23,4.16,.46l1.93,.23,.23-1.39-1.93-.23c-1.23-.23-2.78-.39-4.4-.39h-6.09l.08,1.39c2.93-.15,6.01-.08,6.01-.08Z"/><path class="b" d="M43.97,14.42s-2.78-.08-5.63,.08l.08,1.39c2.85-.15,5.47-.08,5.47-.08,1.31,.15,2.7,.23,3.7,.39l1.54,.23,.23-1.47-1.7-.15c-.92-.15-2.31-.23-3.7-.39Z"/><path class="b" d="M10.73,36.32l1.08,.69,.54-.62c1.16-1.54,2.7-2.93,4.32-4.09,.85-.69,1.77-1.31,2.7-1.85,.85-.54,1.77-1,2.7-1.47v-1.47c-1.54,.62-3.01,1.47-4.4,2.39-2.62,1.77-5.01,3.93-6.94,6.4Z"/><path class="d" d="M31.86,22.9l.08-5.09,3.24-.23c4.63-.31,9.33-.62,13.73,.31,3.16,.54,6.79,2.16,10.8,4.94l4.4-5.78c.77-1,.54-2.47-.38-3.24-3.78-2.93-8.02-4.94-12.88-5.94-5.63-1.08-11.26-.93-16.27-.46l-2.55,.23V2.16c0-1.16-.85-2.16-2.08-2.16h-8.33V8.25l-9.87,.85,.69,7.94c.15,1.16,1.23,2.08,2.39,2l7.02-.62v7.09l.08,.46-.69,.31c-7.71,3.32-14.19,9.79-15.35,18.28-.62,4.86,1.16,9.64,5.01,12.88,1.39,1.08,3.01,2.08,4.78,2.7,1.85,.62,3.86,.85,5.86,.62,2.16-.23,4.24-1.16,5.94-2.62,1.7-1.39,2.7-3.24,3.39-5.01,1-2.78,.92-5.63,.92-8.56v-11.34c.23,0,.46-.08,.62-.08,1.3-.29,2.62-.45,3.93-.53v-10.19c-1.49,.08-2.98,.22-4.47,.47Zm17.27-6.48l-1.54-.23c-1-.15-2.39-.23-3.7-.39,0,0-2.62-.08-5.47,.08l-.08-1.39c2.85-.15,5.63-.08,5.63-.08,1.39,.15,2.78,.23,3.7,.39l1.7,.15-.23,1.47Zm.54-2.93l-1.77-.23c-1-.23-2.39-.31-3.86-.39-2.85-.15-5.78,.08-5.78,.08v-1.31c2.85-.15,5.86-.08,5.86-.08,1.47,.15,2.93,.15,4.01,.39l1.85,.15-.31,1.39Zm-5.48-4.78c1.62,0,3.16,.15,4.4,.39l1.93,.23-.23,1.39-1.93-.23c-1.16-.23-2.7-.31-4.16-.46,0,0-3.08-.08-6.01,.08l-.08-1.39h6.09ZM21.99,47.42c0,1.39-.08,3.55-1.7,3.78-.69,.15-2.24-.23-3.16-1-2.39-2.08-1.85-5.55-.31-7.87,1.23-2.16,3.08-3.78,5.17-5.17v10.26Zm.08-12.11c-1.08,.77-2.08,1.47-3.16,2.31-.77,.69-1.62,1.39-2.24,2.16l-.31,.46-1.08-.77c1.54-2.01,3.32-3.62,5.55-4.86l1.23-.77v1.47Zm0-3.16c-1.47,.85-2.93,1.85-4.32,2.85-1.16,.85-2.31,2.01-3.24,3.16l-.46,.46-1.08-.77c2.39-3.01,5.55-5.17,8.95-7.09,0-.08,.08-.08,.15-.15v1.54Zm0-3.16c-.93,.46-1.85,.93-2.7,1.47-.92,.54-1.85,1.16-2.7,1.85-1.62,1.16-3.16,2.54-4.32,4.09l-.54,.62-1.08-.69c1.93-2.47,4.32-4.63,6.94-6.4,1.39-.93,2.85-1.77,4.4-2.39v1.47Z"/><path class="d" d="M51.84,43.06c-.25,1.78-1.06,3.55-2.39,5.06-2.55,2.78-6.25,4.55-9.79,6.01-.39,.08-.54,.62-.39,1,.23,.39,.69,.54,1.16,.39,3.32-1.39,6.55-2.7,9.1-5.24l.39-.31,.77,1.08c-2.78,2.54-6.09,4.32-9.56,5.78-.46,.15-.62,.54-.39,.93,.23,.31,.69,.46,1.08,.31,3.55-1.39,6.71-3.24,9.72-5.63l1,.93c-2.93,2.62-6.4,4.47-10.03,5.94-.39,.15-.54,.62-.39,.93,.23,.39,.77,.54,1.08,.39,3.78-1.54,7.25-3.47,10.26-6.01l.85,1.08c-3.09,2.62-6.63,4.55-10.33,6.09-.39,.23-.54,.69-.39,1.08,.23,.39,.77,.62,1.16,.39,4.63-1.93,9.18-4.55,12.57-8.33,1.39-1.54,2.62-3.32,3.55-5.55,.85-2.03,1.35-4.02,1.53-6.08l-10.55-.21Z"/><path class="c" d="M62.47,42.18c.08-2.7-.54-5.71-1.85-8.25-1.39-2.62-3.39-4.94-5.71-6.63-4.63-3.47-10.57-4.94-16.12-4.94-.83,0-1.65,.03-2.48,.07v10.19c.79-.05,1.57-.08,2.32-.08,4.09,.08,7.56,1.08,10.02,2.93,2.58,2.02,3.55,4.83,3.16,7.59l10.55,.21c.03-.36,.07-.72,.09-1.09Z"/></svg>