<?xml version="1.0" encoding="UTF-8"?><svg id="a" xmlns="http://www.w3.org/2000/svg" viewBox="0 0 70.31 68.84"><defs><style>.b{fill:none;}.c{fill:#b69461;}.d{fill:#c30d23;}</style></defs><path class="b" d="M47.81,52.19c2.16-.46,4.16-1.31,5.71-2.24l-.46-1.31c-1.47,.85-3.55,1.77-5.47,2.24-1,.23-1.93,.23-2.78,.23-.23-.08-.39-.15-.62-.15-.08,.46-.23,.85-.39,1.39,.31,0,.62,.08,.85,.08,1.08,.08,2.08,0,3.16-.23Z"/><path class="b" d="M19.12,57.12l1.46,2.01,1.39,2,1.16-.93-1.39-1.93c-.38-.62-.92-1.31-1.46-2.08-.39-.62-.85-1.31-1.39-1.93l-.69,1.47,.93,1.39Z"/><path class="b" d="M19.97,53.11l1.54,2.31c.54,.69,1,1.39,1.39,1.93l1.39,1.93,1.16-.77-1.39-1.93-2.93-4.16c-.23-.46-.54-.92-.77-1.31l-.69,1.54,.31,.46Z"/><path class="b" d="M22.44,51.49c.46,.85,1,1.62,1.54,2.31,.46,.62,.93,1.31,1.39,1.85l1.31,1.85,1.08-.85-2.62-3.62-1.54-2.24-1.93-3.01-.62,1.62,1.39,2.08Z"/><path class="b" d="M48.43,54.96c2.31-.54,4.55-1.31,6.17-2.24l-.46-1.31c-1.62,.85-3.7,1.85-6.01,2.31-1.16,.15-2.39,.15-3.55,.15-.39,0-.77-.08-1.16-.08l-.39,1.23c.46,.08,.93,.23,1.46,.23,1.23,.08,2.62,0,3.93-.31Z"/><path class="b" d="M48.74,56.5c-1.39,.31-2.93,.39-4.4,.31-.62-.08-1.23-.15-1.77-.31l-.54,1.31c.77,.23,1.39,.39,2.24,.39,1.54,.23,3.24,0,4.7-.31,2.62-.54,4.93-1.54,6.71-2.47l-.54-1.31c-1.77,.85-3.93,1.85-6.4,2.39Z"/><path class="d" d="M2.39,61.52l7.17,4.55c1.08,.69,2.47,.39,3.08-.62,.63-.98,1.49-2.32,2.48-3.99l-9-5.62c-2.12,3.6-3.7,5.64-3.73,5.67Z"/><path class="d" d="M57.76,6.61c.85,.69,1.93,1.85,3.01,2.93,.93,1.16,1.93,2.31,2.39,3.39l.46,1c.23,.31,.69,.46,1.08,.31,.31-.15,.54-.62,.39-.93-.15-.39-.39-.69-.62-1.08-.62-1.16-1.54-2.39-2.54-3.62-1.08-1.23-2.31-2.24-3.24-3.24l-1-.77c-.31-.23-.85-.08-1.08,.15-.23,.39-.15,.85,.15,1.16l1,.69Z"/><path class="d" d="M55.83,8.85c.77,.69,1.93,1.54,2.78,2.7,.93,1,1.7,2.01,2.08,2.78l.39,.69c.15,.46,.62,.46,.92,.39,.39-.15,.54-.54,.39-.92l-.39-.93c-.46-.85-1.39-1.93-2.31-3.08-.85-1-2.01-2.08-2.85-2.7l-.93-.77c-.31-.31-.85-.23-1,.15-.23,.23-.15,.69,.15,1l.77,.69Z"/><path class="d" d="M46.73,9.93l-4.55,6.63c-.62,.93-.39,2.24,.62,2.93,6.25,4.01,13.03,12.42,13.8,19.2,.39,3.39-.62,5.94-3.24,8.02l-1,.62c-1.39,.92-3.39,1.62-5.01,2-.93,.23-1.7,.23-2.39,.23-.23,0-.39-.08-.46-.08,.93-4.55,1.23-9.79,0-14.65-1.85-7.02-7.63-10.56-17.2-9.95,.46-3.78,.69-7.25,.69-10.87V2.91c0-1.16-1-2.24-2.24-2.24h-8.25V14.01c0,3.86-.31,7.48-.85,11.41,0,0-5.48,.54-9.49,.85C4.78,26.43,0,26.89,0,26.89l.69,7.71c.15,1.16,1.23,2.08,2.47,2.01l5.01-.46c2.16-.15,4.24-.46,6.48-.62l10.95-.69h1.7c6.32,0,6.71,1.47,7.02,2.7,1.62,5.94,0,13.03-2.62,18.51-.93,1.39-2.08,.69-2.78-.31l-1.23-1.77c-.46-.46-.85-1.16-1.31-1.77-.54-.77-1-1.47-1.46-2.24-.93-1.46-1.85-2.85-2.55-3.93l-.69,1.77,1.93,3.01,1.54,2.24,2.62,3.62-1.08,.85-1.31-1.85c-.46-.54-.93-1.23-1.39-1.85-.54-.69-1.08-1.47-1.54-2.31l-1.39-2.08-.69,1.7c.23,.39,.54,.85,.77,1.31l2.93,4.16,1.39,1.93-1.16,.77-1.39-1.93c-.39-.54-.85-1.23-1.39-1.93l-1.54-2.31-.31-.46-.77,1.62c.54,.62,1,1.31,1.39,1.93,.54,.77,1.08,1.47,1.46,2.08l1.39,1.93-1.16,.93-1.39-2-1.46-2.01-.93-1.39-.77,1.54,.46,.62,1.47,2.16c.77,1.08,1.31,1.77,1.47,1.85,1.31,1.77,5.01,6.94,10.49,6.94,.23,0,.54,0,.85-.08,2.39-.23,5.78-1.7,8.17-6.94,.31-.54,.77-1.47,1.23-2.54,.77,.23,1.62,.39,2.55,.46,1.77,.15,3.55-.08,5.17-.39,3.39-.69,6.17-2.01,8.17-3.16,1-.54,1.77-1,2.24-1.46l.93-.54c4.86-4.32,7.17-10.03,6.4-16.58-1.31-11.57-11.03-22.98-20.28-27.68Zm-2.54,41.02c.23,0,.39,.08,.62,.15,.85,0,1.77,0,2.78-.23,1.93-.46,4.01-1.39,5.47-2.24l.46,1.31c-1.54,.93-3.55,1.77-5.71,2.24-1.08,.23-2.08,.31-3.16,.23-.23,0-.54-.08-.85-.08,.15-.54,.31-.92,.39-1.39Zm-.77,2.85c.39,0,.77,.08,1.16,.08,1.16,0,2.39,0,3.55-.15,2.31-.46,4.4-1.46,6.01-2.31l.46,1.31c-1.62,.93-3.86,1.7-6.17,2.24-1.31,.31-2.7,.39-3.93,.31-.54,0-1-.15-1.46-.23l.39-1.23Zm5.55,4.09c-1.47,.31-3.16,.54-4.7,.31-.85,0-1.47-.15-2.24-.39l.54-1.31c.54,.15,1.16,.23,1.77,.31,1.47,.08,3.01,0,4.4-.31,2.47-.54,4.63-1.54,6.4-2.39l.54,1.31c-1.77,.93-4.09,1.93-6.71,2.47Z"/><path class="d" d="M66.93,10.78c-.69-1.16-1.77-2.7-2.93-4.01-1.23-1.39-2.47-2.62-3.47-3.47-.46-.31-.93-.62-1.16-.85-.31-.31-.77-.23-1,.08-.31,.39-.23,.85,.08,1.16l1.08,.85c1,.77,2.31,1.85,3.39,3.16,1.08,1.39,2.08,2.78,2.7,3.86,.31,.46,.54,.93,.69,1.31,.08,.23,.62,.46,1,.23,.31-.15,.54-.54,.39-.93-.23-.31-.54-.85-.77-1.39Z"/><path class="d" d="M70.25,11.01c-.23-.39-.54-1-.85-1.62-.77-1.39-2-3.08-3.31-4.47-1.31-1.54-2.7-2.85-3.78-3.78-.46-.39-.92-.69-1.16-1-.39-.23-.85-.15-1.16,.15-.23,.39-.08,.77,.23,1.08l1.16,1c1,.77,2.39,2.08,3.62,3.47,1.23,1.39,2.39,3.01,3.09,4.24,.39,.62,.62,1.16,.85,1.62,.08,.23,.62,.46,.93,.23,.38-.15,.54-.54,.38-.93Z"/><path class="c" d="M18.89,54.27l.77-1.62,.69-1.54,.69-1.7,.62-1.62,.69-1.77c1.23-3.32,2.31-7.17,3.24-11.18l-10.95,.69c-2.33,8.7-5.85,15.76-8.53,20.32l9,5.62c.72-1.21,1.49-2.6,2.3-4.19l.77-1.54,.69-1.47Z"/></svg>