<?xml version="1.0" encoding="UTF-8"?><svg id="a" xmlns="http://www.w3.org/2000/svg" viewBox="0 0 70.31 66.73"><defs><style>.b{fill:#b69461;}.c{fill:#c30d23;}</style></defs><path class="c" d="M7.73,49c-1.08,5.17,.69,8.79,2.39,10.95,4.86,6.01,14.57,6.55,15.65,6.71,.85,.08,1.7,.08,2.62,.08h2.78c2.01-.08,4.09-.15,6.09-.31,.46-.08,.77-.39,.77-.85-.08-.39-.39-.77-.85-.69-1.93,.15-3.93,.31-5.86,.31-1.93,.08-3.86,0-5.78-.15l.08-1.39c.38,0,1,.08,1.7,.08,3.32,.15,6.55,.08,9.79-.23,.38,0,.69-.39,.69-.77,0-.46-.38-.77-.77-.77-1.93,.23-3.86,.31-5.71,.39-1.93,.08-3.7-.08-5.55-.23l.08-1.39,.46,.08c1.7,.08,3.39,.15,5.01,.15,1.85-.08,3.7-.15,5.55-.39,.38,0,.69-.39,.69-.69,0-.46-.31-.69-.77-.69-1.85,.23-3.62,.23-5.48,.31-1.77,.08-3.55-.08-5.4-.15l.15-1.39h.08c.08-.08,.39,0,.54,0,.46,0,.93,0,1.39,.08,.93,0,1.85,.08,2.85,0,1.85-.08,3.78-.08,5.71-.31,.46,0,.69-.39,.69-.77,0-.46-.31-.77-.77-.77-3.7,.39-7.48,.69-11.18,.15-2.39-.31-9.72-2.08-7.09-5.94,1-1.39,3.16-2.01,4.7-2.39,2.16-.54,4.24-.69,6.32-.85,4.86-.46,9.64-.23,14.42,.39l7.71,1.08-2-7.48c-.05-.17-.3-1.13-.75-2.76-2.69-.57-6.62-1.27-11.36-1.71-10.49-.39-27.3,.77-29.61,12.34Z"/><path class="c" d="M50.69,19.54l-.54-7.87c-.08-1.23-1.16-2.16-2.39-2.08l-7.71,.62-3.01-8.64c-.46-1.16-1.7-1.85-2.85-1.47l-8.1,2.39c1,2.7,2.24,5.86,3.08,8.41l-18.89,1.39,.54,7.87c0,1.16,1.16,2.08,2.31,2l19.51-1.39,10.64-.69,7.4-.54Z"/><path class="c" d="M62.79,13.83c-.15-1.93-.62-3.86-.93-5.17l-.38-1.54c-.15-.46-.54-.62-.93-.54-.39,.08-.62,.54-.54,.93l.46,1.47c.39,1.31,.69,3.16,.85,5.01,.15,1.77,.15,3.78,0,5.24-.08,.62-.23,1.23-.31,1.7-.08,.39,.23,.77,.69,.85,.39,0,.69-.15,.77-.62,.08-.39,.23-1.08,.31-1.77,.15-1.62,.15-3.62,0-5.55Z"/><path class="c" d="M52.15,11.06c.23,1.08,.54,2.47,.62,3.7,.15,1.31,.15,2.62,.08,3.47,0,.31-.08,.62-.15,.85-.08,.39,.23,.77,.62,.85,.39,.08,.77-.15,.85-.54,.08-.23,.08-.62,.15-1,.08-.92,.08-2.31,0-3.78-.08-1.31-.46-2.78-.69-3.86-.15-.46-.23-.85-.31-1.16-.15-.39-.54-.62-1-.46-.31,.08-.54,.46-.46,.93,.15,.23,.23,.62,.31,1Z"/><path class="c" d="M56.39,9.98c-.15-.54-.23-.85-.39-1.23-.08-.39-.54-.62-.93-.54-.31,.15-.54,.62-.46,1l.39,1.16c.15,1.16,.62,2.7,.69,4.09,.15,1.54,.08,3.01,0,4.09-.08,.46-.15,.85-.15,1.08-.08,.46,.15,.85,.62,.92,.39,.15,.69-.15,.77-.54l.23-1.23c.23-1.23,.15-2.85,0-4.47-.15-1.54-.46-3.16-.77-4.32Z"/><path class="c" d="M59.17,9.36l-.39-1.39c-.15-.39-.54-.69-.93-.54-.39,.15-.62,.54-.54,.93,.15,.31,.23,.85,.39,1.31,.31,1.23,.62,2.85,.77,4.47,.15,1.77,.23,3.47,0,4.78l-.23,1.39c0,.39,.23,.77,.69,.85,.39,.08,.77-.15,.77-.54l.23-1.54c.23-1.39,.15-3.24,0-5.01-.15-1.7-.46-3.47-.77-4.7Z"/><path class="b" d="M32.64,20.77c1.93,6.63,3.55,11.88,4.7,15.89,4.74,.45,8.66,1.14,11.36,1.71-.94-3.42-2.75-9.82-5.42-18.29l-10.64,.69Z"/></svg>