<?xml version="1.0" encoding="UTF-8"?><svg id="a" xmlns="http://www.w3.org/2000/svg" viewBox="0 0 70.31 64.41"><defs><style>.b{fill:#b69461;}.c{fill:#c30d23;}</style></defs><path class="c" d="M22.78,2.64c-.15-1.77-.93-2.78-2.62-2.62H12.14V37.88l10.52-4.01,.12-31.23Z"/><path class="c" d="M57.87,41.89c-.23-.31-.77-.23-1,.08-1.23,1.54-2.7,2.85-4.09,4.32l-2.62,2.7c-.62-.62-1-.93-1-1.08,0-.08,.31-.23,.31-.23l1.08-1.08c1.85-1.85,3.7-3.62,5.32-5.63,.31-.39,.31-.77,0-1.08-.31-.31-.77-.31-1,0-2.16,2.47-4.47,4.7-6.79,6.94,0,0-.93-.85-.93-.93s.31-.39,.39-.39l.85-.92c1.77-1.93,3.7-3.7,5.4-5.63,.31-.39,.23-.85-.08-1.16-.23-.31-.69-.31-1,0-2.08,2.39-4.4,4.7-6.55,7.02l-.85-.93c-.23-.23-.15-.15,0-.39l1.85-1.77c1.54-1.62,3.01-3.24,4.55-4.94,.23-.31,.31-.77,0-1-.31-.31-.85-.23-1.08,.08-1.23,1.46-2.62,2.7-3.93,4.09l-3.55,3.7c-2.69,2.81-5.51,5.64-8.17,7.6l4.5,9.4c4.84-3.22,10.05-8.39,16.17-15.08l2.31-2.54c.31-.31,.31-.85-.08-1.16Z"/><path class="b" d="M28.41,53.84c-4.16-.46-5.78-2.47-5.78-12.34l.03-7.64-10.52,4.01v3.62c0,6.55,0,20.28,14.65,22.75,.69,.15,1.47,.15,2.16,.15,3.44,0,6.87-1.32,10.52-3.74l-4.5-9.4c-2.38,1.76-4.63,2.83-6.56,2.58Z"/></svg>