<?xml version="1.0" encoding="UTF-8"?><svg id="a" xmlns="http://www.w3.org/2000/svg" viewBox="0 0 70.31 70.33"><defs><style>.b{fill:#b69461;}.c{fill:#c30d23;}</style></defs><path class="c" d="M15.86,21.9l-1.39,.31,2,7.94c.31,1.23,1.54,1.77,2.7,1.54,8.29-2.48,14.55-3.4,18.78-2.83l2.21-10.1c-9.03-1.29-19.53,1.88-24.31,3.14Z"/><path class="c" d="M38.53,14.34c2.54,0,5.01-.39,7.63-.54,.39,0,.69-.31,.69-.77,0-.39-.39-.77-.77-.77-3.01,.31-6.02,.39-8.95,.54l.08-1.39,1.54-.08c2.39,0,4.78-.31,7.25-.46,.39,0,.62-.31,.62-.77s-.39-.77-.77-.77c-2.93,.23-5.78,.39-8.64,.54l.08-1.39,1.39-.08c2.31,0,4.7-.31,7.09-.46,.39,0,.69-.23,.69-.69-.08-.46-.39-.77-.77-.77-2.78,.23-5.55,.39-8.41,.54l.08-1.39,1.31-.08c2.24,0,4.55-.23,6.94-.46,.46,0,.62-.31,.62-.77-.08-.39-.31-.77-.77-.69l-6.09,.31c-3.47,.31-6.55-.39-7.63-3.93l-7.48,2.7c-1.16,.46-1.85,1.77-1.31,2.93,1.77,4.16,5.78,8.87,15.58,8.71Z"/><path class="c" d="M31.43,59.53l-3.78,3.47c-.31,.31-.39,.85-.08,1.08,.39,.31,.85,.31,1.16,0l7.71-7.09,1.16,.85-7.87,7.33c-.23,.15-.23,.69,.08,.93,.23,.31,.69,.31,1,0l7.94-7.33,1.23,.85-8.1,7.4c-.31,.31-.31,.77,0,1.08,.31,.23,.85,.31,1.16,0l8.1-7.48,1.08,.77-8.1,7.63c-.31,.31-.31,.77,0,1.08s.85,.31,1.23,0c2.31-2.01,4.4-4.24,6.4-6.17l1.08-.93c4.21-4.03,7.33-8.04,9.46-11.99l-9.45-5.69c-2.44,5.01-6.73,9.97-11.42,14.21Z"/><path class="b" d="M53.87,28.53c-2.66-6.26-7.88-8.94-13.7-9.77l-2.21,10.1c3.13,.42,5.16,1.65,6.05,3.68,1.69,3.99,.98,8.4-1.15,12.78l9.45,5.69c4.23-7.85,4.54-15.45,1.56-22.48Z"/></svg>