<?xml version="1.0" encoding="UTF-8"?><svg id="a" xmlns="http://www.w3.org/2000/svg" viewBox="0 0 70.31 45.37"><defs><style>.b{fill:none;}.c{fill:#b69461;}.d{fill:#c30d23;}</style></defs><path class="b" d="M50.33,11.57l-1.16-.77c-1,1.31-2.08,2.7-3.01,4.01l-4.47,5.4,1,1,4.55-5.48c1-1.39,2.01-2.93,3.09-4.16Z"/><polygon class="b" points="47.87 9.95 46.79 9.1 43.78 13.11 39.54 18.43 40.54 19.36 44.78 14.03 47.87 9.95"/><path class="b" d="M48.41,16.66l-4.55,5.48,1.08,1,4.47-5.78c1.23-1.39,2.24-2.85,3.09-4.09l-1.08-.69c-.92,1.16-1.77,2.62-3.01,4.09Z"/><path class="d" d="M19.03,35.32c-4.4-.85-5.09-11.8-5.55-15.11-.46-4.32-.93-12.42-1-17.27-.08-1.23-1.08-2.08-2.24-2.01L1.91,1.62c.31,7.48,.69,15.35,1.23,19.82,.93,7.48,2.31,18.58,9.95,22.52,4.75,2.48,9.6,1.42,13.91-1.07l-4.77-8.42c-1.15,.64-2.25,.99-3.2,.86Z"/><path class="d" d="M60.21,5.86C53.27,1.16,52.34,.46,51.49,0l-8.33,11.57-9.1,11.03c-.11,.14-.24,.29-.38,.46l7.21,6.88c2.25-2.48,4.11-4.65,5.9-6.95l3.93-4.63,3.01-4.32c3.47,3.08,4.94,6.4,3.93,10.8-.93,3.93-2.08,8.02-3.32,11.88-.15,.39,0,.77,.39,.92,.46,.08,.93-.15,1.08-.46,1.16-3.32,2.08-6.55,2.93-9.95,.08-.46,.15-.93,.31-1.23l1.39,.23c-.93,3.78-1.93,7.56-3.24,11.26-.15,.39,.08,.85,.46,1,.39,0,.85-.23,1-.62,1.16-3.24,2.16-6.55,2.93-9.95l.31-1.39,1.39,.31c-.85,3.86-1.93,7.63-3.24,11.49-.15,.31,.08,.77,.39,.92,.46,0,.93-.23,1.08-.62,1.16-3.24,2.08-6.55,2.93-10.18l.39-1.54,1.47,.31c-.93,3.78-2,7.33-3.16,11.18l-.23,.62c-.15,.46,.15,.93,.46,.93,.46,.15,.93-.08,1-.54,.93-2.62,1.85-5.17,2.47-7.87,.69-2.31,.93-3.62,1.08-4.7,1.62-7.87-.77-16.12-7.71-20.98Zm-20.67,12.57l4.24-5.32,3.01-4.01,1.08,.85-3.08,4.09-4.24,5.32-1-.93Zm2.16,1.77l4.47-5.4c.93-1.31,2.01-2.7,3.01-4.01l1.16,.77c-1.08,1.23-2.08,2.78-3.09,4.16l-4.55,5.48-1-1Zm7.71-2.85l-4.47,5.78-1.08-1,4.55-5.48c1.23-1.47,2.08-2.93,3.01-4.09l1.08,.69c-.85,1.23-1.85,2.7-3.09,4.09Z"/><path class="c" d="M22.23,34.46l4.77,8.42c3.31-1.92,6.31-4.68,8.69-7.33,1.99-2.12,3.69-3.94,5.21-5.62l-7.21-6.88c-2.25,2.72-7.26,9.07-11.45,11.41Z"/></svg>