<?xml version="1.0" encoding="UTF-8"?><svg id="a" xmlns="http://www.w3.org/2000/svg" viewBox="0 0 70.31 71.17"><defs><style>.b{fill:none;}.c{fill:#b69461;}.d{fill:#c30d23;}</style></defs><path class="b" d="M35.12,39.11c-.92,0-1.62,.62-1.62,1.54s.69,1.62,1.62,1.62c.54,0,.93-.23,1.16-.46,.23-.23,.46-.62,.46-1.16,0-.93-.69-1.54-1.62-1.54Z"/><path class="b" d="M40.82,30.17c.46,.23,.93,.54,1.39,.85v-6.63h-1.39v5.78Z"/><path class="b" d="M37.89,29.01c.46,.15,.93,.31,1.39,.46v-5.09h-1.39v4.63Z"/><path class="b" d="M43.75,32.25c.46,.54,.93,1.08,1.39,1.7v-9.56h-1.39v7.87Z"/><path class="d" d="M46.76,7.42l.15-4.94c0-1.54-.46-2.62-2.62-2.47h-8.02V8.19l-27.92,2.01,.62,7.79c.08,1.39,1.31,2.39,2.62,2.24l24.75-1.85v10.41c-.39-.08-.85-.08-1.23-.08-6.71,0-12.11,5.32-12.11,11.95s5.4,12.03,12.11,12.03h.77c-.39,.62-.93,1.31-1.47,1.93-2.78,3.01-6.86,5.24-10.95,7.09-.46,.15-.62,.62-.46,1,.15,.39,.69,.54,1.08,.39,.39-.15,.85-.39,1.39-.62,1.31-.54,3.01-1.39,4.63-2.39,1.54-.93,3.01-2.08,3.93-2.93,.54-.46,.85-.85,1.16-1.08,0,0,.23-.23,.39-.39l1.08,.92c-.23,.15-.46,.39-.46,.39-.31,.31-.69,.77-1.23,1.23-1,.93-2.54,2.08-4.16,3.01-1.62,1.08-3.39,1.85-4.7,2.47-.54,.31-1,.46-1.39,.69-.46,.15-.69,.62-.46,1,.15,.39,.62,.54,1.08,.39,.39-.23,.93-.46,1.47-.69,1.39-.69,3.16-1.62,4.93-2.62,1.7-1,3.24-2.16,4.32-3.16,.62-.54,1-.93,1.31-1.23,.23-.23,.39-.39,.46-.46l1,.92c-.23,.15-.54,.46-.54,.46-.31,.39-.77,.85-1.31,1.39-1.23,1-2.85,2.24-4.63,3.32-1.77,1.08-3.62,2.01-5.01,2.62-.54,.31-1.08,.54-1.47,.69-.39,.23-.62,.69-.46,1.08,.15,.39,.69,.54,1.08,.31,.39-.15,.93-.39,1.62-.69,1.39-.69,3.32-1.62,5.09-2.78,1.85-1.08,3.62-2.47,4.86-3.47,.62-.54,1.08-1.08,1.46-1.39,.23-.23,.39-.46,.46-.54l1,.92c-.23,.23-.54,.62-.54,.62-.39,.31-.93,.85-1.54,1.39-1.31,1.16-3.16,2.54-5.01,3.7-1.93,1.16-3.86,2.16-5.32,2.78-.62,.31-1.08,.54-1.54,.77-.39,.15-.62,.62-.39,1,.15,.39,.62,.54,1.08,.39,5.17-2.31,10.49-5.17,14.5-9.64,3.7-4.09,5.86-9.1,6.32-14.5,.23-3.16-.39-6.48-1.85-9.95V17.6l.08-10.18Zm-10.49,34.39c-.23,.23-.62,.46-1.16,.46-.92,0-1.62-.69-1.62-1.62s.69-1.54,1.62-1.54,1.62,.62,1.62,1.54c0,.54-.23,.93-.46,1.16Zm3.01-12.34c-.46-.15-.93-.31-1.39-.46v-4.63h1.39v5.09Zm2.93,1.54c-.46-.31-.92-.62-1.39-.85v-5.78h1.39v6.63Zm2.93,2.93c-.46-.62-.93-1.16-1.39-1.7v-7.87h1.39v9.56Z"/><path class="c" d="M61.95,16.52l-.62-7.79c-.08-1.31-1.23-2.31-2.62-2.24l-11.95,.93-.08,10.18,15.27-1.08Z"/></svg>