<?xml version="1.0" encoding="UTF-8"?><svg id="a" xmlns="http://www.w3.org/2000/svg" viewBox="0 0 70.31 69.04"><defs><style>.b{fill:none;}.c{fill:#b69461;}.d{fill:#c30d23;}</style></defs><polygon class="b" points="26.39 40.12 39.34 34.87 38.8 33.64 25.85 38.88 26.39 40.12"/><polygon class="b" points="25.23 37.5 38.26 32.25 37.73 30.94 24.62 36.19 25.23 37.5"/><polygon class="b" points="37.19 29.55 36.65 28.24 23.54 33.56 24.08 34.72 37.19 29.55"/><path class="d" d="M50.83,7.65l.69,.69c.77,.69,1.77,1.77,2.54,2.85,.85,1,1.54,2.08,1.93,2.93,.15,.23,.23,.46,.31,.62,.15,.31,.62,.54,1,.39,.39-.15,.54-.46,.39-.77-.08-.31-.23-.62-.39-.92-.39-.85-1.16-2.08-2-3.24-.93-1.08-2.01-2.16-2.78-2.85l-.77-.77c-.31-.23-.77-.23-1,.08-.31,.39-.31,.77,.08,1Z"/><path class="d" d="M53.53,6.34c.85,.85,1.93,1.85,2.85,3.08,.85,1.16,1.7,2.39,2.16,3.47l.46,.92c.15,.39,.62,.62,.93,.46,.39-.15,.62-.62,.46-1l-.54-1.08c-.46-1.08-1.31-2.47-2.31-3.7-1-1.23-2.16-2.39-3.01-3.16l-.93-.92c-.31-.23-.77-.15-1.08,.08-.23,.31-.23,.77,.08,1.08l.92,.77Z"/><path class="d" d="M55.46,4.34c1,.77,2.08,2.08,3.08,3.32,1.08,1.31,2.01,2.78,2.54,3.93,.23,.46,.39,.92,.54,1.31,.15,.31,.62,.54,1,.39,.39-.15,.54-.54,.39-.92l-.62-1.39c-.62-1.23-1.54-2.78-2.62-4.09-1.16-1.47-2.39-2.7-3.24-3.62-.46-.39-.85-.69-1.08-.93-.31-.31-.77-.31-1.08,.08-.31,.31-.23,.77,.08,1l1,.93Z"/><path class="d" d="M57.39,2.33c1,.93,2.31,2.16,3.47,3.62,1.08,1.39,2.24,3.01,2.78,4.32l.62,1.62c.15,.39,.62,.54,1.08,.39,.39-.08,.46-.54,.39-.85l-.77-1.77c-.69-1.39-1.77-3.01-3.01-4.55-1.16-1.54-2.47-2.93-3.55-3.86-.39-.46-.85-.85-1.16-1.08-.31-.23-.69-.23-1,0-.31,.39-.23,.85,.08,1.16,.31,.15,.62,.62,1.08,1Z"/><path class="d" d="M17.14,55.39c-1.31-1.16-2.08-2.47-2.08-4.01,0-1.62,.77-3.32,2.08-4.55,3.08-2.78,18.58-8.71,26.06-11.72,9.79-3.86,12.57-11.95,11.03-17.97-1.54-6.17-7.17-9.87-13.57-9.33l-30.15,2.62,.77,8.17c.08,1.16,1.16,2.08,2.39,1.93l28.07-2.39c.46-.08,1.85-.23,2.31,1.46,.46,1.85-.62,4.4-4.4,5.86l-16.66,6.71c-5.94,2.93-10.49,5.01-12.88,7.09-3.47,3.16-5.55,7.63-5.55,12.26,.08,4.47,2.08,8.56,5.71,11.72,2.97,2.51,6.66,4.21,11.06,5.09l.88-10.53c-1.98-.48-3.71-1.26-5.07-2.43Zm22.21-20.51l-12.96,5.24-.54-1.23,12.96-5.24,.54,1.23Zm-1.08-2.62l-13.03,5.24-.62-1.31,13.11-5.24,.54,1.31Zm-1.62-4.01l.54,1.31-13.11,5.17-.54-1.16,13.11-5.32Z"/><path class="c" d="M38.26,68.11c5.94-1.08,11.03-2.62,15.5-4.01,1.16-.39,1.77-1.7,1.47-2.93l-2.39-8.02c-6.43,2.48-21.27,6.96-30.63,4.67l-.88,10.53c2.23,.45,4.62,.69,7.22,.69,3.01,0,6.25-.39,9.72-.93Z"/></svg>