<?xml version="1.0" encoding="UTF-8"?><svg id="a" xmlns="http://www.w3.org/2000/svg" viewBox="0 0 150.43 106.83"><defs><style>.j{fill:#fff;}.k{fill:#ab1f24;}</style></defs><path id="b" class="k" d="M60.99,21.18c-1.96-1.1-3.57-2.71-4.67-4.67-2.04-3.65-6.66-4.95-10.31-2.91-1.22,.68-2.23,1.69-2.91,2.91-1.1,1.96-2.71,3.57-4.67,4.67-3.65,2.05-4.95,6.68-2.9,10.33,.68,1.22,1.69,2.22,2.9,2.9,1.96,1.1,3.57,2.71,4.67,4.67,2.04,3.65,6.66,4.95,10.31,2.91,1.22-.68,2.23-1.69,2.91-2.91,1.1-1.96,2.71-3.57,4.67-4.67,3.65-2.05,4.95-6.68,2.9-10.33-.68-1.22-1.69-2.22-2.9-2.9"/><path id="c" class="j" d="M54.91,29.32l8.63-1.07c.25-.03,.43-.26,.39-.52-.03-.21-.19-.37-.39-.39l-8.63-1.08c-1.93-.24-3.44-1.76-3.68-3.68l-1.07-8.63c-.04-.25-.27-.42-.52-.38-.2,.03-.36,.19-.38,.38l-1.08,8.63c-.24,1.93-1.76,3.44-3.68,3.68l-8.63,1.07c-.25,.03-.43,.26-.39,.52,.03,.21,.19,.37,.39,.39l8.63,1.07c1.93,.24,3.44,1.76,3.68,3.68l1.08,8.63c.03,.25,.26,.43,.51,.4,.21-.02,.38-.19,.4-.4l1.07-8.63c.24-1.93,1.76-3.44,3.68-3.68"/><path id="d" class="k" d="M35,40.69c-2.59-1.46-4.72-3.59-6.18-6.18-2.71-4.83-8.82-6.56-13.66-3.85-1.61,.9-2.95,2.24-3.85,3.85-1.46,2.59-3.59,4.72-6.18,6.18-4.83,2.71-6.56,8.82-3.85,13.66,.9,1.61,2.24,2.95,3.85,3.85,2.59,1.46,4.72,3.59,6.18,6.18,2.71,4.83,8.82,6.56,13.66,3.85,1.61-.9,2.95-2.24,3.85-3.85,1.46-2.59,3.59-4.72,6.18-6.18,4.83-2.71,6.56-8.82,3.85-13.66-.9-1.61-2.24-2.95-3.85-3.85"/><path id="e" class="j" d="M26.96,51.47l11.43-1.42c.33,0,.6-.27,.6-.61,0-.33-.27-.6-.6-.6l-11.43-1.42c-2.55-.32-4.56-2.33-4.88-4.88l-1.42-11.43c-.05-.33-.35-.56-.68-.51-.27,.04-.48,.25-.51,.51l-1.43,11.43c-.31,2.55-2.32,4.56-4.87,4.88l-11.43,1.42c-.33,0-.6,.27-.6,.61,0,.33,.27,.6,.6,.6l11.43,1.42c2.55,.32,4.56,2.33,4.87,4.88l1.43,11.43c.05,.33,.35,.56,.68,.51,.27-.04,.48-.25,.51-.51l1.42-11.43c.32-2.55,2.33-4.56,4.88-4.88"/><path id="f" class="k" d="M144.17,27.5c-3.79,2.78-8.08,2.76-12.46,2.17-.77-.1-1.5-.38-2.27-.51s-1.46,.04-1.69,.86,.38,1.28,1.04,1.58c1.95,.78,4.05,1.13,6.15,1.03,2.96,.11,5.9-.5,8.57-1.78,.95-.37,1.75-1.04,2.28-1.92,.3-.49,.22-1.11-.19-1.51-.46-.47-.96-.28-1.45,.07"/><path id="g" class="k" d="M150.15,24.38c-.51-2.52-1.56-4.91-3.07-6.99,2.12-2.72,2.11-6.54-.02-9.25-1.84-3.04-5.31-4.7-8.84-4.23-.82,.1-1.61,.34-2.35,.71-.5,.27-1.09,.29-1.61,.07-.49-.21-1.13-.49-1.83-.81C126.29,.95,119.51-.35,112.72,.08c-11.47,.99-16.97,5.54-21.15,10.44-.78,.91-.95,.68-1.81,.52-2.5-.47-5.02-.79-7.56-.95-4.34-.48-8.34,2.37-9.31,6.62-.92,2.9-1.07,6-.42,8.98,.81,3.56,3.01,6.66,6.1,8.61,1.05,.68,1.01,.69,.84,1.81-1.36,9.69,.15,16.49,5.62,26.28,2.13,3.81,6.88,9.1,7.03,15.93,.24,2.4-1.09,4.67-3.3,5.65-4.44,1.52-9.87-1.35-12.8-2.64-.8-.31-1.34-1.05-1.41-1.9-.54-3.97-3.27-7.31-7.06-8.62-15.73-5.53-28.47-.79-32.98,1.98-3.81,1.97-6.98,4.98-9.13,8.7-1.5,2.53-1.94,5.54-1.24,8.4,.51,1.73,2.14,4.27,8.8,5.34,5.01,.49,9.93,1.62,14.64,3.38,3.25,1.65,6.69,2.9,10.24,3.71,3.77,.63,7.34,.84,10.41-1.52,1-.75,2.37-.81,3.43-.15,14.44,8.93,26.25,5.82,29.36,5,16.44-4.31,17.36-17.78,17.26-20.5-.36-10.97-6.27-18.43-8.94-23.31-6-10.98-7.86-16.94-5.85-22.11,1.07-3.45,4.3-5.77,7.91-5.68,4.89-.33,10.21,1.54,15.1,3.46,3.81,1.41,7.93,1.79,11.94,1.1,3.02-.37,5.89-1.55,8.3-3.4,3-2.74,4.31-6.87,3.43-10.84M54.84,70.74c.69,.17,1.33,.51,1.86,.99,1.19,1.29,2.14,2.77,2.81,4.39-2.03-.34-5.06-.39-6.61-.62-1.41-.97-2.37-2.88-4.51-4.28,2.11-.51,4.29-.67,6.45-.48m-4.47,5.11c-1.19,.34-2.88,.49-4.06,.82-.67,.23-1.41,.11-1.97-.32-1.46-1.1-2.68-1.81-4.4-3.08,4.59-2.09,7.7-1.23,10.42,2.57m-13.96-1.16c.61-.52,1.49-.54,2.13-.05,1.38,1.08,2.8,2.09,4.41,3.28-1.24,.6-2.28,1.07-3.29,1.59-.43,.33-.99,.45-1.52,.33-1.84-.65-3.67-1.31-5.65-2.02,1.13-1.25,2.45-2.3,3.92-3.12m-6.74,6.03c.41-.48,1.02-.74,1.66-.7,1.9,.14,3.75,.65,5.44,1.5-2.07,3.15-2.89,3.77-9.97,5.08,.23-2.24,1.25-4.32,2.86-5.89m2.62,11.83c-2.21,.16-4.34-.87-5.58-2.71,2.33-1.45,4.94-2.4,7.66-2.8,.72-.14,1.28,.04,1.01,1.34-.68,1.61-1.74,3.04-3.09,4.17m7.09,1.3c-1.19-.2-2.6-.48-4.08-.67-.22-.03-.38-.23-.35-.45,0-.04,.02-.08,.03-.12,2.07-4.41,4.51-5.16,9.16-3.74-1.37,1.35-2.56,2.88-3.51,4.56-.29,.38-.78,.55-1.24,.43m9.17,.7c-1.44,1.61-2.8,.69-4.34,.3-.68-.17-1.65-.39-1.53-.92,.47-2.06,3.02-4.51,4.47-4.28s3.59,.89,5.31,1.32c-.82,.82-2.94,2.49-3.91,3.58m2.06,2.9c-1.41-.59-1.53-.7-.28-1.8,1.33-1.17,2.7-2.29,4.05-3.44,.33-.34,.83-.46,1.28-.31,1.74,.53,3.41,1.28,4.96,2.23-1.44,.91-2.82,1.92-4.13,3.02-2.06,1.76-3.98,1.07-5.87,.3m6.76,1.77c1.8-1.23,3.89-2.53,5.74-3.79,1.6,.59,3.08,1.46,4.36,2.58-2.89,2.23-6.77,2.7-10.1,1.21m6.35-22.34c-.61-.15-1.13-.54-1.44-1.09-.76-1.23-1.75-2.87-2.62-4.32,5.29,.08,11.35,3.8,11.62,7.65-2.45-.95-4.98-1.7-7.56-2.23M81.95,12.78c3.88-.01,7.73,.64,11.39,1.92,.27,.07,.53,.17,.79,.29-.01,.9,.06,1.8,.2,2.69-6.23-1.02-12.59-.8-18.73,.64,1.11-3.79,3.06-5.4,6.35-5.55m-7.14,9.39c.22-.88,1.13-1.23,3.06-1.61,.22-.05,1.31-.18,1.54-.21,4.98-.97,10.07-1.18,15.11-.64h.02c.11,.66,.28,1.32,.51,1.95-6.52,.68-12.82,2.71-18.5,5.98-1.24-1.54-1.86-3.5-1.72-5.47m21.15,2.9c-1.81,1.58-4.26,3.52-5.96,5.2-2.75,2.67-7.01,3.04-10.18,.88-.46-.34-1.25-.79-1.36-1.49,5.41-2.53,10.89-6.07,17.23-6.06,.2,.92,.59,1.19,.28,1.48m6.63,1.81c-2.5-1.45-4.16-3.99-4.49-6.86-.68-3.38-1.16-6.7,1.29-10.21,.19-.29,.52-.45,.86-.42,1.03,.14,.63,2.15,.48,3.06-.89,4.23,.06,8.64,2.62,12.13,.3,.37,.49,.82,.55,1.29,.03,.56-.4,1.03-.96,1.06-.12,0-.25-.01-.37-.05M139.29,6.1c3.9-.05,7.09,3.08,7.14,6.97,0,.02,0,.04,0,.07-.08,2.75-3.35,5.36-6.67,5.32-3.39,.04-6.18-2.68-6.22-6.07,0-.05,0-.09,0-.14,.05-3.22,2.53-5.88,5.74-6.16m-24.85,7.96c.18-3.42,3.1-6.05,6.53-5.86,.01,0,.02,0,.03,0,3.39,.02,6.13,2.78,6.11,6.17,0,.04,0,.08,0,.12,0,3.5-2.5,5.71-6.48,5.71-3.28,.13-6.05-2.42-6.18-5.7,0-.15,0-.29,0-.44m33.94,13.98c-.38,3.3-2.66,6.07-5.83,7.08-2.6,.81-5.32,1.21-8.05,1.19-1.23-.08-2.48-.08-3.71-.26-2.1-.19-4.09-1.06-5.66-2.47-1.89-1.46-2.24-4.17-.78-6.05,.6-.78,1.46-1.34,2.42-1.56,.81-.19,1.65-.22,2.47-.08,4.71,.64,9.51-.03,13.86-1.94,3.23-1.3,5.57,.6,5.26,4.09"/><path id="h" class="k" d="M124.9,12.88c-1.38-1.14-3.23-1.55-4.96-1.1-1.43,.56-2.56,1.71-3.11,3.15-.2,.56,.09,1.17,.65,1.37,.12,.05,.24,.07,.36,.07,.45,0,.85-.29,1.01-.71,.31-.82,.94-1.48,1.75-1.84,1.11-.21,2.25,.1,3.1,.84,.49,.33,1.16,.21,1.49-.28s.21-1.16-.28-1.49"/><path id="i" class="k" d="M137.04,14.39c.12,.05,.24,.07,.36,.07,.45,0,.85-.28,1.01-.7,.32-.83,.95-1.49,1.77-1.84,1.1-.2,2.24,.11,3.08,.84,.5,.32,1.16,.17,1.48-.33,.3-.48,.18-1.11-.27-1.44-1.39-1.14-3.23-1.55-4.97-1.11-1.43,.57-2.56,1.71-3.1,3.15-.2,.55,.09,1.16,.64,1.36"/></svg>