<?xml version="1.0" encoding="UTF-8"?><svg id="a" xmlns="http://www.w3.org/2000/svg" viewBox="0 0 150.43 106.83"><defs><style>.j{fill:#fff;}.k{fill:#ab1f24;}</style></defs><path id="b" class="k" d="M89.44,21.18c-1.22,.68-2.22,1.69-2.9,2.9-2.05,3.65-.75,8.28,2.9,10.33,1.96,1.1,3.57,2.71,4.67,4.67,.68,1.22,1.69,2.23,2.91,2.91,3.65,2.04,8.27,.74,10.31-2.91,1.1-1.96,2.71-3.57,4.67-4.67,1.22-.68,2.22-1.69,2.9-2.9,2.05-3.65,.75-8.28-2.9-10.33-1.96-1.1-3.57-2.71-4.67-4.67-.68-1.22-1.69-2.23-2.91-2.91-3.65-2.04-8.27-.74-10.31,2.91-1.1,1.96-2.71,3.57-4.67,4.67"/><path id="c" class="j" d="M95.52,29.32c1.93,.24,3.44,1.76,3.68,3.68l1.07,8.63c.02,.21,.19,.38,.4,.4,.25,.03,.48-.15,.51-.4l1.08-8.63c.24-1.93,1.76-3.44,3.68-3.68l8.63-1.07c.21-.03,.37-.19,.39-.39,.03-.25-.14-.48-.39-.52l-8.63-1.07c-1.93-.24-3.44-1.76-3.68-3.68l-1.08-8.63c-.03-.2-.19-.36-.38-.38-.25-.04-.48,.13-.52,.38l-1.07,8.63c-.24,1.93-1.76,3.44-3.68,3.68l-8.63,1.08c-.21,.03-.37,.19-.39,.39-.03,.25,.14,.48,.39,.52l8.63,1.07"/><path id="d" class="k" d="M115.43,40.69c-1.61,.9-2.95,2.24-3.85,3.85-2.71,4.83-.99,10.95,3.85,13.66,2.59,1.46,4.72,3.59,6.18,6.18,.9,1.61,2.24,2.95,3.85,3.85,4.83,2.71,10.95,.99,13.66-3.85,1.46-2.59,3.59-4.72,6.18-6.18,1.61-.9,2.95-2.24,3.85-3.85,2.71-4.83,.99-10.95-3.85-13.66-2.59-1.46-4.72-3.59-6.18-6.18-.9-1.61-2.24-2.95-3.85-3.85-4.83-2.71-10.95-.99-13.66,3.85-1.46,2.59-3.59,4.72-6.18,6.18"/><path id="e" class="j" d="M123.47,51.47c2.55,.32,4.56,2.33,4.88,4.88l1.42,11.43c.04,.27,.25,.48,.51,.51,.33,.05,.64-.18,.68-.51l1.43-11.43c.31-2.55,2.32-4.56,4.87-4.88l11.43-1.42c.33,0,.6-.27,.6-.6,0-.33-.27-.61-.6-.61l-11.43-1.42c-2.55-.32-4.56-2.33-4.87-4.88l-1.43-11.43c-.04-.27-.25-.48-.51-.51-.33-.05-.64,.18-.68,.51l-1.42,11.43c-.32,2.55-2.33,4.56-4.88,4.88l-11.43,1.42c-.33,0-.6,.27-.6,.6,0,.33,.27,.61,.6,.61l11.43,1.42"/><path id="f" class="k" d="M6.26,27.5c-.48-.35-.98-.55-1.45-.07-.41,.4-.48,1.02-.19,1.51,.53,.87,1.33,1.54,2.28,1.92,2.67,1.28,5.61,1.89,8.57,1.78,2.1,.1,4.2-.25,6.15-1.03,.66-.3,1.27-.76,1.04-1.58s-.93-.99-1.69-.86-1.5,.41-2.27,.51c-4.38,.59-8.67,.61-12.46-2.17"/><path id="g" class="k" d="M.27,24.37c-.88,3.97,.42,8.1,3.43,10.84,2.41,1.86,5.28,3.03,8.3,3.4,4.01,.69,8.12,.31,11.94-1.1,4.9-1.93,10.21-3.79,15.1-3.46,3.61-.09,6.84,2.23,7.91,5.68,2.02,5.18,.15,11.13-5.85,22.11-2.66,4.88-8.58,12.34-8.94,23.31-.09,2.71,.83,16.19,17.26,20.5,3.1,.81,14.92,3.93,29.36-5,1.06-.67,2.43-.61,3.43,.15,3.07,2.35,6.64,2.15,10.41,1.52,3.55-.81,6.99-2.06,10.24-3.71,4.71-1.75,9.64-2.89,14.64-3.38,6.66-1.07,8.29-3.6,8.8-5.34,.7-2.85,.25-5.87-1.24-8.4-2.15-3.71-5.32-6.73-9.13-8.7-4.51-2.77-17.26-7.51-32.98-1.98-3.79,1.31-6.52,4.64-7.06,8.62-.07,.85-.62,1.59-1.41,1.9-2.94,1.29-8.37,4.16-12.8,2.64-2.2-.97-3.53-3.25-3.3-5.65,.15-6.83,4.9-12.12,7.03-15.93,5.48-9.79,6.99-16.59,5.62-26.28-.17-1.12-.2-1.13,.84-1.81,3.09-1.95,5.29-5.04,6.1-8.61,.65-2.98,.51-6.07-.42-8.98-.97-4.25-4.97-7.1-9.31-6.62-2.54,.16-5.06,.47-7.56,.95-.86,.16-1.04,.39-1.81-.52C54.68,5.62,49.18,1.07,37.71,.08c-6.79-.44-13.57,.87-19.72,3.79-.71,.31-1.34,.59-1.83,.81-.52,.23-1.11,.2-1.61-.07-.74-.37-1.53-.61-2.35-.71-3.53-.47-6.99,1.19-8.84,4.23-2.12,2.72-2.13,6.53-.02,9.25-1.51,2.09-2.55,4.47-3.07,6.99m95.31,46.37c2.16-.19,4.34-.02,6.45,.48-2.14,1.4-3.1,3.31-4.51,4.28-1.55,.23-4.58,.28-6.61,.62,.67-1.62,1.62-3.1,2.81-4.39,.53-.48,1.17-.82,1.86-.99m4.47,5.11c2.72-3.81,5.83-4.66,10.42-2.57-1.71,1.26-2.93,1.98-4.4,3.08-.56,.43-1.3,.55-1.97,.32-1.18-.33-2.87-.48-4.06-.82m13.96-1.16c1.47,.82,2.79,1.87,3.92,3.12-1.97,.7-3.81,1.36-5.65,2.02-.53,.12-1.09,0-1.52-.33-1.01-.52-2.04-.98-3.29-1.59,1.6-1.18,3.03-2.19,4.41-3.28,.63-.49,1.52-.47,2.13,.05m6.75,6.04c1.61,1.57,2.62,3.65,2.86,5.89-7.08-1.31-7.9-1.93-9.97-5.08,1.7-.86,3.55-1.37,5.44-1.5,.63-.04,1.25,.22,1.66,.7m-2.61,11.83c-1.35-1.12-2.41-2.55-3.09-4.17-.27-1.3,.29-1.47,1.01-1.34,2.72,.39,5.33,1.34,7.66,2.8-1.24,1.84-3.37,2.87-5.58,2.71m-7.08,1.3c-.46,.12-.96-.04-1.24-.43-.96-1.67-2.14-3.21-3.51-4.56,4.65-1.42,7.09-.66,9.16,3.74,.02,.04,.03,.08,.03,.12,.03,.22-.13,.42-.35,.45-1.48,.19-2.9,.47-4.08,.67m-9.17,.7c-.96-1.08-3.09-2.76-3.91-3.58,1.71-.43,3.86-1.08,5.31-1.32s4,2.21,4.47,4.28c.12,.53-.85,.75-1.53,.92-1.55,.39-2.91,1.31-4.34-.3m-2.06,2.91c-1.89,.78-3.81,1.46-5.87-.3-1.3-1.1-2.68-2.11-4.13-3.02,1.55-.95,3.22-1.7,4.96-2.23,.45-.15,.95-.03,1.28,.31,1.34,1.15,2.71,2.27,4.05,3.44,1.25,1.09,1.13,1.21-.28,1.8m-6.77,1.78c-3.33,1.49-7.22,1.02-10.1-1.21,1.28-1.12,2.76-1.99,4.36-2.58,1.86,1.26,3.94,2.56,5.74,3.79m-6.35-22.33c-2.58,.53-5.11,1.28-7.56,2.23,.28-3.85,6.34-7.57,11.62-7.65-.87,1.45-1.86,3.09-2.62,4.32-.31,.55-.83,.95-1.44,1.09M68.48,12.78c3.29,.15,5.24,1.76,6.35,5.55-6.14-1.44-12.51-1.66-18.73-.64,.15-.89,.21-1.79,.2-2.69,.25-.12,.52-.22,.79-.29,3.66-1.28,7.51-1.93,11.39-1.92m7.14,9.38c.14,1.98-.48,3.93-1.72,5.47-5.68-3.27-11.98-5.31-18.5-5.98,.23-.63,.4-1.28,.51-1.95h.02c5.04-.54,10.13-.33,15.11,.64,.23,.03,1.32,.17,1.54,.21,1.93,.38,2.84,.73,3.06,1.61m-21.15,2.89c-.32-.29,.07-.56,.28-1.48,6.34,0,11.82,3.53,17.23,6.06-.11,.7-.9,1.15-1.36,1.49-3.17,2.16-7.43,1.8-10.18-.88-1.7-1.68-4.15-3.62-5.96-5.2m-6.62,1.82c-.12,.04-.24,.06-.37,.05-.56-.03-.98-.5-.96-1.06,.05-.47,.24-.92,.55-1.29,2.56-3.49,3.51-7.9,2.62-12.13-.15-.92-.54-2.93,.48-3.06,.34-.03,.68,.13,.86,.42,2.45,3.51,1.97,6.83,1.29,10.21-.33,2.87-2,5.41-4.49,6.86M11.14,6.1c3.21,.27,5.69,2.93,5.74,6.16,0,.05,0,.09,0,.14-.04,3.39-2.82,6.11-6.22,6.07-3.32,.04-6.58-2.57-6.67-5.32,0-.02,0-.04,0-.07,.05-3.9,3.24-7.02,7.14-6.97m24.85,7.96c0,.15,0,.29,0,.44-.13,3.28-2.9,5.83-6.18,5.7-3.98,0-6.48-2.21-6.48-5.71,0-.04,0-.08,0-.12-.02-3.39,2.72-6.15,6.11-6.17,.01,0,.02,0,.03,0,3.42-.18,6.34,2.44,6.53,5.86M2.06,28.04c-.31-3.48,2.04-5.39,5.26-4.09,4.36,1.91,9.15,2.58,13.86,1.94,.82-.14,1.66-.11,2.47,.08,.96,.23,1.82,.78,2.42,1.56,1.46,1.89,1.11,4.6-.78,6.05-1.57,1.41-3.56,2.28-5.66,2.47-1.22,.17-2.47,.18-3.71,.26-2.73,.02-5.44-.38-8.05-1.19-3.17-1.01-5.45-3.78-5.83-7.08"/><path id="h" class="k" d="M25.52,12.88c-.49,.33-.61,1-.28,1.49s1,.61,1.49,.28c.85-.74,1.99-1.05,3.1-.84,.81,.35,1.44,1.02,1.75,1.84,.16,.42,.56,.7,1.01,.71,.12,0,.25-.02,.36-.07,.56-.2,.84-.81,.65-1.37-.55-1.44-1.68-2.58-3.11-3.15-1.74-.44-3.58-.03-4.96,1.1"/><path id="i" class="k" d="M13.39,14.39c.55-.2,.84-.81,.64-1.36-.54-1.44-1.67-2.58-3.1-3.15-1.74-.44-3.58-.03-4.97,1.11-.46,.33-.57,.96-.27,1.44,.32,.5,.98,.65,1.48,.33,.84-.74,1.98-1.05,3.08-.84,.81,.35,1.45,1.02,1.77,1.84,.16,.42,.56,.7,1.01,.7,.12,0,.25-.02,.36-.07"/></svg>